<svg width="180" height="107" viewBox="0 0 180 107" fill="none" xmlns="http://www.w3.org/2000/svg">
<rect x="0.75" y="106.25" width="105.5" height="177.725" rx="4.25" transform="rotate(-90 0.75 106.25)" fill="#9CAFA2" stroke="#FCFAEE" stroke-width="1.5"/>
<path d="M91.8203 53.6879C91.9983 53.6879 92.1573 53.6579 92.2973 53.5979C92.4373 53.5379 92.5553 53.4539 92.6513 53.3459C92.7493 53.2379 92.8233 53.1089 92.8733 52.9589C92.9253 52.8089 92.9513 52.6439 92.9513 52.4639V49.8509H93.5303V52.4639C93.5303 52.7119 93.4903 52.9419 93.4103 53.1539C93.3323 53.3659 93.2193 53.5499 93.0713 53.7059C92.9253 53.8599 92.7463 53.9809 92.5343 54.0689C92.3223 54.1569 92.0843 54.2009 91.8203 54.2009C91.5563 54.2009 91.3183 54.1569 91.1063 54.0689C90.8943 53.9809 90.7143 53.8599 90.5663 53.7059C90.4183 53.5499 90.3043 53.3659 90.2243 53.1539C90.1463 52.9419 90.1073 52.7119 90.1073 52.4639V49.8509H90.6863V52.4609C90.6863 52.6409 90.7113 52.8059 90.7613 52.9559C90.8133 53.1059 90.8873 53.2349 90.9833 53.3429C91.0813 53.4509 91.2003 53.5359 91.3403 53.5979C91.4823 53.6579 91.6423 53.6879 91.8203 53.6879ZM96.8561 51.8339C96.7561 51.6999 96.6481 51.6069 96.5321 51.5549C96.4161 51.5009 96.2861 51.4739 96.1421 51.4739C95.8601 51.4739 95.6431 51.5749 95.4911 51.7769C95.3391 51.9789 95.2631 52.2669 95.2631 52.6409C95.2631 52.8389 95.2801 53.0089 95.3141 53.1509C95.3481 53.2909 95.3981 53.4069 95.4641 53.4989C95.5301 53.5889 95.6111 53.6549 95.7071 53.6969C95.8031 53.7389 95.9121 53.7599 96.0341 53.7599C96.2101 53.7599 96.3631 53.7199 96.4931 53.6399C96.6251 53.5599 96.7461 53.4469 96.8561 53.3009V51.8339ZM97.3901 49.7309V54.1499H97.0721C96.9961 54.1499 96.9481 54.1129 96.9281 54.0389L96.8801 53.6699C96.7501 53.8259 96.6021 53.9519 96.4361 54.0479C96.2701 54.1439 96.0781 54.1919 95.8601 54.1919C95.6861 54.1919 95.5281 54.1589 95.3861 54.0929C95.2441 54.0249 95.1231 53.9259 95.0231 53.7959C94.9231 53.6659 94.8461 53.5039 94.7921 53.3099C94.7381 53.1159 94.7111 52.8929 94.7111 52.6409C94.7111 52.4169 94.7411 52.2089 94.8011 52.0169C94.8611 51.8229 94.9471 51.6549 95.0591 51.5129C95.1711 51.3709 95.3081 51.2599 95.4701 51.1799C95.6341 51.0979 95.8181 51.0569 96.0221 51.0569C96.2081 51.0569 96.3671 51.0889 96.4991 51.1529C96.6331 51.2149 96.7521 51.3019 96.8561 51.4139V49.7309H97.3901ZM99.3255 49.7309V54.1499H98.7915V49.7309H99.3255ZM101.484 53.6459C101.624 53.7419 101.8 53.7899 102.012 53.7899C102.162 53.7899 102.294 53.7639 102.408 53.7119C102.524 53.6579 102.621 53.5809 102.699 53.4809C102.779 53.3809 102.839 53.2599 102.879 53.1179C102.919 52.9739 102.939 52.8119 102.939 52.6319C102.939 52.3299 102.887 52.0829 102.783 51.8909L101.484 53.6459ZM102.564 51.6329C102.418 51.5209 102.234 51.4649 102.012 51.4649C101.86 51.4649 101.726 51.4919 101.61 51.5459C101.494 51.5999 101.396 51.6769 101.316 51.7769C101.238 51.8769 101.179 51.9999 101.139 52.1459C101.099 52.2899 101.079 52.4519 101.079 52.6319C101.079 52.9519 101.138 53.2089 101.256 53.4029L102.564 51.6329ZM103.074 51.4949C103.198 51.6329 103.293 51.7969 103.359 51.9869C103.425 52.1769 103.458 52.3909 103.458 52.6289C103.458 52.8689 103.424 53.0849 103.356 53.2769C103.29 53.4689 103.194 53.6329 103.068 53.7689C102.942 53.9049 102.79 54.0099 102.612 54.0839C102.434 54.1559 102.234 54.1919 102.012 54.1919C101.86 54.1919 101.718 54.1749 101.586 54.1409C101.456 54.1069 101.337 54.0579 101.229 53.9939L101.064 54.2159C101.024 54.2759 100.973 54.3179 100.911 54.3419C100.851 54.3659 100.792 54.3779 100.734 54.3779H100.533L100.968 53.7899C100.836 53.6519 100.735 53.4859 100.665 53.2919C100.595 53.0959 100.56 52.8749 100.56 52.6289C100.56 52.3909 100.593 52.1759 100.659 51.9839C100.727 51.7899 100.824 51.6249 100.95 51.4889C101.076 51.3529 101.228 51.2479 101.406 51.1739C101.586 51.0999 101.788 51.0629 102.012 51.0629C102.17 51.0629 102.316 51.0819 102.45 51.1199C102.586 51.1579 102.71 51.2119 102.822 51.2819L103.026 51.0089C103.062 50.9529 103.096 50.9139 103.128 50.8919C103.162 50.8699 103.212 50.8589 103.278 50.8589H103.545L103.074 51.4949ZM105.207 53.4179C105.305 53.5499 105.412 53.6429 105.528 53.6969C105.646 53.7509 105.775 53.7779 105.915 53.7779C106.201 53.7779 106.42 53.6769 106.572 53.4749C106.724 53.2729 106.8 52.9719 106.8 52.5719C106.8 52.1999 106.732 51.9269 106.596 51.7529C106.462 51.5769 106.27 51.4889 106.02 51.4889C105.846 51.4889 105.694 51.5289 105.564 51.6089C105.436 51.6889 105.317 51.8019 105.207 51.9479V53.4179ZM105.207 51.5489C105.335 51.4009 105.479 51.2829 105.639 51.1949C105.801 51.1069 105.987 51.0629 106.197 51.0629C106.375 51.0629 106.535 51.0969 106.677 51.1649C106.821 51.2329 106.943 51.3319 107.043 51.4619C107.143 51.5899 107.219 51.7459 107.271 51.9299C107.325 52.1139 107.352 52.3209 107.352 52.5509C107.352 52.7969 107.322 53.0209 107.262 53.2229C107.202 53.4249 107.115 53.5979 107.001 53.7419C106.889 53.8839 106.752 53.9949 106.59 54.0749C106.428 54.1529 106.246 54.1919 106.044 54.1919C105.844 54.1919 105.675 54.1549 105.537 54.0809C105.401 54.0049 105.282 53.8979 105.18 53.7599L105.153 54.0359C105.137 54.1119 105.091 54.1499 105.015 54.1499H104.67V49.7309H105.207V51.5489ZM110.337 51.6119C110.313 51.6559 110.276 51.6779 110.226 51.6779C110.196 51.6779 110.162 51.6669 110.124 51.6449C110.086 51.6229 110.039 51.5989 109.983 51.5729C109.929 51.5449 109.864 51.5199 109.788 51.4979C109.712 51.4739 109.622 51.4619 109.518 51.4619C109.428 51.4619 109.347 51.4739 109.275 51.4979C109.203 51.5199 109.141 51.5509 109.089 51.5909C109.039 51.6309 109 51.6779 108.972 51.7319C108.946 51.7839 108.933 51.8409 108.933 51.9029C108.933 51.9809 108.955 52.0459 108.999 52.0979C109.045 52.1499 109.105 52.1949 109.179 52.2329C109.253 52.2709 109.337 52.3049 109.431 52.3349C109.525 52.3629 109.621 52.3939 109.719 52.4279C109.819 52.4599 109.916 52.4959 110.01 52.5359C110.104 52.5759 110.188 52.6259 110.262 52.6859C110.336 52.7459 110.395 52.8199 110.439 52.9079C110.485 52.9939 110.508 53.0979 110.508 53.2199C110.508 53.3599 110.483 53.4899 110.433 53.6099C110.383 53.7279 110.309 53.8309 110.211 53.9189C110.113 54.0049 109.993 54.0729 109.851 54.1229C109.709 54.1729 109.545 54.1979 109.359 54.1979C109.147 54.1979 108.955 54.1639 108.783 54.0959C108.611 54.0259 108.465 53.9369 108.345 53.8289L108.471 53.6249C108.487 53.5989 108.506 53.5789 108.528 53.5649C108.55 53.5509 108.578 53.5439 108.612 53.5439C108.648 53.5439 108.686 53.5579 108.726 53.5859C108.766 53.6139 108.814 53.6449 108.87 53.6789C108.928 53.7129 108.998 53.7439 109.08 53.7719C109.162 53.7999 109.264 53.8139 109.386 53.8139C109.49 53.8139 109.581 53.8009 109.659 53.7749C109.737 53.7469 109.802 53.7099 109.854 53.6639C109.906 53.6179 109.944 53.5649 109.968 53.5049C109.994 53.4449 110.007 53.3809 110.007 53.3129C110.007 53.2289 109.984 53.1599 109.938 53.1059C109.894 53.0499 109.835 53.0029 109.761 52.9649C109.687 52.9249 109.602 52.8909 109.506 52.8629C109.412 52.8329 109.315 52.8019 109.215 52.7699C109.117 52.7379 109.02 52.7019 108.924 52.6619C108.83 52.6199 108.746 52.5679 108.672 52.5059C108.598 52.4439 108.538 52.3679 108.492 52.2779C108.448 52.1859 108.426 52.0749 108.426 51.9449C108.426 51.8289 108.45 51.7179 108.498 51.6119C108.546 51.5039 108.616 51.4099 108.708 51.3299C108.8 51.2479 108.913 51.1829 109.047 51.1349C109.181 51.0869 109.334 51.0629 109.506 51.0629C109.706 51.0629 109.885 51.0949 110.043 51.1589C110.203 51.2209 110.341 51.3069 110.457 51.4169L110.337 51.6119ZM113.683 51.8339C113.583 51.6999 113.475 51.6069 113.359 51.5549C113.243 51.5009 113.113 51.4739 112.969 51.4739C112.687 51.4739 112.47 51.5749 112.318 51.7769C112.166 51.9789 112.09 52.2669 112.09 52.6409C112.09 52.8389 112.107 53.0089 112.141 53.1509C112.175 53.2909 112.225 53.4069 112.291 53.4989C112.357 53.5889 112.438 53.6549 112.534 53.6969C112.63 53.7389 112.739 53.7599 112.861 53.7599C113.037 53.7599 113.19 53.7199 113.32 53.6399C113.452 53.5599 113.573 53.4469 113.683 53.3009V51.8339ZM114.217 49.7309V54.1499H113.899C113.823 54.1499 113.775 54.1129 113.755 54.0389L113.707 53.6699C113.577 53.8259 113.429 53.9519 113.263 54.0479C113.097 54.1439 112.905 54.1919 112.687 54.1919C112.513 54.1919 112.355 54.1589 112.213 54.0929C112.071 54.0249 111.95 53.9259 111.85 53.7959C111.75 53.6659 111.673 53.5039 111.619 53.3099C111.565 53.1159 111.538 52.8929 111.538 52.6409C111.538 52.4169 111.568 52.2089 111.628 52.0169C111.688 51.8229 111.774 51.6549 111.886 51.5129C111.998 51.3709 112.135 51.2599 112.297 51.1799C112.461 51.0979 112.645 51.0569 112.849 51.0569C113.035 51.0569 113.194 51.0889 113.326 51.1529C113.46 51.2149 113.579 51.3019 113.683 51.4139V49.7309H114.217ZM117.247 52.7819C117.001 52.7899 116.791 52.8099 116.617 52.8419C116.445 52.8719 116.304 52.9119 116.194 52.9619C116.086 53.0119 116.007 53.0709 115.957 53.1389C115.909 53.2069 115.885 53.2829 115.885 53.3669C115.885 53.4469 115.898 53.5159 115.924 53.5739C115.95 53.6319 115.985 53.6799 116.029 53.7179C116.075 53.7539 116.128 53.7809 116.188 53.7989C116.25 53.8149 116.316 53.8229 116.386 53.8229C116.48 53.8229 116.566 53.8139 116.644 53.7959C116.722 53.7759 116.795 53.7479 116.863 53.7119C116.933 53.6759 116.999 53.6329 117.061 53.5829C117.125 53.5329 117.187 53.4759 117.247 53.4119V52.7819ZM115.522 51.5399C115.69 51.3779 115.871 51.2569 116.065 51.1769C116.259 51.0969 116.474 51.0569 116.71 51.0569C116.88 51.0569 117.031 51.0849 117.163 51.1409C117.295 51.1969 117.406 51.2749 117.496 51.3749C117.586 51.4749 117.654 51.5959 117.7 51.7379C117.746 51.8799 117.769 52.0359 117.769 52.2059V54.1499H117.532C117.48 54.1499 117.44 54.1419 117.412 54.1259C117.384 54.1079 117.362 54.0739 117.346 54.0239L117.286 53.7359C117.206 53.8099 117.128 53.8759 117.052 53.9339C116.976 53.9899 116.896 54.0379 116.812 54.0779C116.728 54.1159 116.638 54.1449 116.542 54.1649C116.448 54.1869 116.343 54.1979 116.227 54.1979C116.109 54.1979 115.998 54.1819 115.894 54.1499C115.79 54.1159 115.699 54.0659 115.621 53.9999C115.545 53.9339 115.484 53.8509 115.438 53.7509C115.394 53.6489 115.372 53.5289 115.372 53.3909C115.372 53.2709 115.405 53.1559 115.471 53.0459C115.537 52.9339 115.644 52.8349 115.792 52.7489C115.94 52.6629 116.133 52.5929 116.371 52.5389C116.609 52.4829 116.901 52.4509 117.247 52.4429V52.2059C117.247 51.9699 117.196 51.7919 117.094 51.6719C116.992 51.5499 116.843 51.4889 116.647 51.4889C116.515 51.4889 116.404 51.5059 116.314 51.5399C116.226 51.5719 116.149 51.6089 116.083 51.6509C116.019 51.6909 115.963 51.7279 115.915 51.7619C115.869 51.7939 115.823 51.8099 115.777 51.8099C115.741 51.8099 115.71 51.8009 115.684 51.7829C115.658 51.7629 115.636 51.7389 115.618 51.7109L115.522 51.5399ZM120.015 54.1979C119.775 54.1979 119.59 54.1309 119.46 53.9969C119.332 53.8629 119.268 53.6699 119.268 53.4179V51.5579H118.902C118.87 51.5579 118.843 51.5489 118.821 51.5309C118.799 51.5109 118.788 51.4809 118.788 51.4409V51.2279L119.286 51.1649L119.409 50.2259C119.415 50.1959 119.428 50.1719 119.448 50.1539C119.47 50.1339 119.498 50.1239 119.532 50.1239H119.802V51.1709H120.681V51.5579H119.802V53.3819C119.802 53.5099 119.833 53.6049 119.895 53.6669C119.957 53.7289 120.037 53.7599 120.135 53.7599C120.191 53.7599 120.239 53.7529 120.279 53.7389C120.321 53.7229 120.357 53.7059 120.387 53.6879C120.417 53.6699 120.442 53.6539 120.462 53.6399C120.484 53.6239 120.503 53.6159 120.519 53.6159C120.547 53.6159 120.572 53.6329 120.594 53.6669L120.75 53.9219C120.658 54.0079 120.547 54.0759 120.417 54.1259C120.287 54.1739 120.153 54.1979 120.015 54.1979ZM123.036 51.0629C123.258 51.0629 123.458 51.0999 123.636 51.1739C123.814 51.2479 123.966 51.3529 124.092 51.4889C124.218 51.6249 124.314 51.7899 124.38 51.9839C124.448 52.1759 124.482 52.3909 124.482 52.6289C124.482 52.8689 124.448 53.0849 124.38 53.2769C124.314 53.4689 124.218 53.6329 124.092 53.7689C123.966 53.9049 123.814 54.0099 123.636 54.0839C123.458 54.1559 123.258 54.1919 123.036 54.1919C122.812 54.1919 122.61 54.1559 122.43 54.0839C122.252 54.0099 122.1 53.9049 121.974 53.7689C121.848 53.6329 121.751 53.4689 121.683 53.2769C121.617 53.0849 121.584 52.8689 121.584 52.6289C121.584 52.3909 121.617 52.1759 121.683 51.9839C121.751 51.7899 121.848 51.6249 121.974 51.4889C122.1 51.3529 122.252 51.2479 122.43 51.1739C122.61 51.0999 122.812 51.0629 123.036 51.0629ZM123.036 53.7749C123.336 53.7749 123.56 53.6749 123.708 53.4749C123.856 53.2729 123.93 52.9919 123.93 52.6319C123.93 52.2699 123.856 51.9879 123.708 51.7859C123.56 51.5839 123.336 51.4829 123.036 51.4829C122.884 51.4829 122.751 51.5089 122.637 51.5609C122.525 51.6129 122.431 51.6879 122.355 51.7859C122.281 51.8839 122.225 52.0049 122.187 52.1489C122.151 52.2909 122.133 52.4519 122.133 52.6319C122.133 52.9919 122.207 53.2729 122.355 53.4749C122.505 53.6749 122.732 53.7749 123.036 53.7749ZM125.651 53.8199C125.651 53.7679 125.66 53.7189 125.678 53.6729C125.698 53.6269 125.724 53.5869 125.756 53.5529C125.79 53.5189 125.83 53.4919 125.876 53.4719C125.922 53.4519 125.971 53.4419 126.023 53.4419C126.075 53.4419 126.124 53.4519 126.17 53.4719C126.216 53.4919 126.256 53.5189 126.29 53.5529C126.324 53.5869 126.351 53.6269 126.371 53.6729C126.391 53.7189 126.401 53.7679 126.401 53.8199C126.401 53.8739 126.391 53.9239 126.371 53.9699C126.351 54.0139 126.324 54.0529 126.29 54.0869C126.256 54.1209 126.216 54.1469 126.17 54.1649C126.124 54.1849 126.075 54.1949 126.023 54.1949C125.971 54.1949 125.922 54.1849 125.876 54.1649C125.83 54.1469 125.79 54.1209 125.756 54.0869C125.724 54.0529 125.698 54.0139 125.678 53.9699C125.66 53.9239 125.651 53.8739 125.651 53.8199ZM125.651 51.5699C125.651 51.5179 125.66 51.4689 125.678 51.4229C125.698 51.3769 125.724 51.3369 125.756 51.3029C125.79 51.2689 125.83 51.2419 125.876 51.2219C125.922 51.2019 125.971 51.1919 126.023 51.1919C126.075 51.1919 126.124 51.2019 126.17 51.2219C126.216 51.2419 126.256 51.2689 126.29 51.3029C126.324 51.3369 126.351 51.3769 126.371 51.4229C126.391 51.4689 126.401 51.5179 126.401 51.5699C126.401 51.6239 126.391 51.6739 126.371 51.7199C126.351 51.7639 126.324 51.8029 126.29 51.8369C126.256 51.8709 126.216 51.8979 126.17 51.9179C126.124 51.9359 126.075 51.9449 126.023 51.9449C125.971 51.9449 125.922 51.9359 125.876 51.9179C125.83 51.8979 125.79 51.8709 125.756 51.8369C125.724 51.8029 125.698 51.7639 125.678 51.7199C125.66 51.6739 125.651 51.6239 125.651 51.5699ZM132.445 53.7419V54.1499H130.141V53.7419H131.062V50.8109C131.062 50.7229 131.065 50.6339 131.071 50.5439L130.306 51.2009C130.28 51.2229 130.254 51.2369 130.228 51.2429C130.202 51.2469 130.178 51.2469 130.156 51.2429C130.134 51.2389 130.113 51.2309 130.093 51.2189C130.075 51.2069 130.061 51.1939 130.051 51.1799L129.883 50.9489L131.164 49.8419H131.599V53.7419H132.445ZM136.373 53.6429C136.431 53.6429 136.477 53.6599 136.511 53.6939C136.545 53.7279 136.562 53.7719 136.562 53.8259V54.1499H133.694V53.9669C133.694 53.9289 133.702 53.8899 133.718 53.8499C133.734 53.8099 133.759 53.7729 133.793 53.7389L135.17 52.3559C135.284 52.2399 135.388 52.1289 135.482 52.0229C135.576 51.9149 135.656 51.8069 135.722 51.6989C135.788 51.5909 135.839 51.4819 135.875 51.3719C135.911 51.2599 135.929 51.1409 135.929 51.0149C135.929 50.8889 135.909 50.7789 135.869 50.6849C135.829 50.5889 135.774 50.5099 135.704 50.4479C135.636 50.3859 135.555 50.3399 135.461 50.3099C135.367 50.2779 135.266 50.2619 135.158 50.2619C135.048 50.2619 134.947 50.2779 134.855 50.3099C134.763 50.3419 134.681 50.3869 134.609 50.4449C134.539 50.5009 134.48 50.5679 134.432 50.6459C134.384 50.7239 134.35 50.8099 134.33 50.9039C134.306 50.9739 134.273 51.0209 134.231 51.0449C134.191 51.0669 134.134 51.0729 134.06 51.0629L133.781 51.0149C133.809 50.8189 133.863 50.6459 133.943 50.4959C134.025 50.3439 134.127 50.2169 134.249 50.1149C134.373 50.0129 134.514 49.9359 134.672 49.8839C134.83 49.8299 135.001 49.8029 135.185 49.8029C135.367 49.8029 135.537 49.8299 135.695 49.8839C135.853 49.9379 135.99 50.0169 136.106 50.1209C136.222 50.2229 136.313 50.3479 136.379 50.4959C136.445 50.6439 136.478 50.8119 136.478 50.9999C136.478 51.1599 136.454 51.3089 136.406 51.4469C136.358 51.5829 136.293 51.7129 136.211 51.8369C136.129 51.9609 136.034 52.0819 135.926 52.1999C135.82 52.3179 135.707 52.4369 135.587 52.5569L134.453 53.7149C134.533 53.6929 134.614 53.6759 134.696 53.6639C134.778 53.6499 134.857 53.6429 134.933 53.6429H136.373ZM137.822 51.0149C137.85 50.8189 137.904 50.6459 137.984 50.4959C138.064 50.3439 138.165 50.2169 138.287 50.1149C138.411 50.0129 138.552 49.9359 138.71 49.8839C138.87 49.8299 139.042 49.8029 139.226 49.8029C139.408 49.8029 139.576 49.8289 139.73 49.8809C139.884 49.9329 140.016 50.0069 140.126 50.1029C140.238 50.1989 140.325 50.3149 140.387 50.4509C140.449 50.5869 140.48 50.7379 140.48 50.9039C140.48 51.0399 140.462 51.1619 140.426 51.2699C140.392 51.3759 140.342 51.4689 140.276 51.5489C140.212 51.6289 140.134 51.6969 140.042 51.7529C139.95 51.8089 139.847 51.8549 139.733 51.8909C140.013 51.9629 140.223 52.0869 140.363 52.2629C140.505 52.4369 140.576 52.6549 140.576 52.9169C140.576 53.1149 140.538 53.2929 140.462 53.4509C140.388 53.6089 140.286 53.7439 140.156 53.8559C140.026 53.9659 139.874 54.0509 139.7 54.1109C139.528 54.1689 139.343 54.1979 139.145 54.1979C138.917 54.1979 138.722 54.1699 138.56 54.1139C138.398 54.0559 138.261 53.9769 138.149 53.8769C138.037 53.7769 137.945 53.6589 137.873 53.5229C137.801 53.3849 137.74 53.2359 137.69 53.0759L137.921 52.9799C137.981 52.9539 138.039 52.9469 138.095 52.9589C138.153 52.9709 138.195 53.0039 138.221 53.0579C138.247 53.1139 138.279 53.1809 138.317 53.2589C138.357 53.3369 138.411 53.4119 138.479 53.4839C138.547 53.5559 138.633 53.6169 138.737 53.6669C138.843 53.7169 138.977 53.7419 139.139 53.7419C139.289 53.7419 139.42 53.7179 139.532 53.6699C139.646 53.6199 139.74 53.5559 139.814 53.4779C139.89 53.3999 139.947 53.3129 139.985 53.2169C140.023 53.1209 140.042 53.0259 140.042 52.9319C140.042 52.8159 140.027 52.7099 139.997 52.6139C139.967 52.5179 139.911 52.4349 139.829 52.3649C139.747 52.2949 139.634 52.2399 139.49 52.1999C139.348 52.1599 139.165 52.1399 138.941 52.1399V51.7529C139.125 51.7509 139.281 51.7309 139.409 51.6929C139.539 51.6549 139.644 51.6029 139.724 51.5369C139.806 51.4709 139.865 51.3919 139.901 51.2999C139.939 51.2079 139.958 51.1059 139.958 50.9939C139.958 50.8699 139.938 50.7619 139.898 50.6699C139.86 50.5779 139.807 50.5019 139.739 50.4419C139.671 50.3819 139.59 50.3369 139.496 50.3069C139.404 50.2769 139.304 50.2619 139.196 50.2619C139.088 50.2619 138.987 50.2779 138.893 50.3099C138.801 50.3419 138.719 50.3869 138.647 50.4449C138.577 50.5009 138.518 50.5679 138.47 50.6459C138.422 50.7239 138.388 50.8099 138.368 50.9039C138.342 50.9739 138.309 51.0209 138.269 51.0449C138.231 51.0669 138.175 51.0729 138.101 51.0629L137.822 51.0149ZM143.643 52.5989V50.8259C143.643 50.7739 143.645 50.7169 143.649 50.6549C143.653 50.5929 143.659 50.5299 143.667 50.4659L142.101 52.5989H143.643ZM144.762 52.5989V52.9049C144.762 52.9369 144.752 52.9639 144.732 52.9859C144.714 53.0079 144.685 53.0189 144.645 53.0189H144.111V54.1499H143.643V53.0189H141.735C141.695 53.0189 141.66 53.0079 141.63 52.9859C141.602 52.9619 141.584 52.9329 141.576 52.8989L141.522 52.6259L143.613 49.8509H144.111V52.5989H144.762ZM146.559 51.4739C146.783 51.4259 146.989 51.4019 147.177 51.4019C147.401 51.4019 147.599 51.4349 147.771 51.5009C147.943 51.5669 148.086 51.6579 148.2 51.7739C148.316 51.8899 148.403 52.0269 148.461 52.1849C148.521 52.3429 148.551 52.5149 148.551 52.7009C148.551 52.9289 148.511 53.1349 148.431 53.3189C148.353 53.5029 148.244 53.6609 148.104 53.7929C147.966 53.9229 147.803 54.0229 147.615 54.0929C147.427 54.1629 147.224 54.1979 147.006 54.1979C146.88 54.1979 146.759 54.1849 146.643 54.1589C146.527 54.1349 146.418 54.1019 146.316 54.0599C146.216 54.0179 146.123 53.9699 146.037 53.9159C145.951 53.8619 145.875 53.8049 145.809 53.7449L145.974 53.5169C146.01 53.4649 146.057 53.4389 146.115 53.4389C146.155 53.4389 146.2 53.4549 146.25 53.4869C146.3 53.5169 146.361 53.5509 146.433 53.5889C146.505 53.6269 146.589 53.6619 146.685 53.6939C146.783 53.7239 146.899 53.7389 147.033 53.7389C147.183 53.7389 147.318 53.7149 147.438 53.6669C147.558 53.6189 147.661 53.5509 147.747 53.4629C147.833 53.3729 147.899 53.2659 147.945 53.1419C147.991 53.0179 148.014 52.8789 148.014 52.7249C148.014 52.5909 147.994 52.4699 147.954 52.3619C147.916 52.2539 147.857 52.1619 147.777 52.0859C147.699 52.0099 147.601 51.9509 147.483 51.9089C147.365 51.8669 147.227 51.8459 147.069 51.8459C146.961 51.8459 146.848 51.8549 146.73 51.8729C146.614 51.8909 146.495 51.9199 146.373 51.9599L146.037 51.8609L146.382 49.8509H148.419V50.0849C148.419 50.1609 148.395 50.2239 148.347 50.2739C148.301 50.3219 148.221 50.3459 148.107 50.3459H146.757L146.559 51.4739ZM151.227 53.7539C151.371 53.7539 151.501 53.7309 151.617 53.6849C151.735 53.6389 151.835 53.5749 151.917 53.4929C152.001 53.4109 152.065 53.3139 152.109 53.2019C152.155 53.0899 152.178 52.9679 152.178 52.8359C152.178 52.6959 152.156 52.5699 152.112 52.4579C152.068 52.3439 152.005 52.2479 151.923 52.1699C151.843 52.0899 151.747 52.0289 151.635 51.9869C151.523 51.9449 151.4 51.9239 151.266 51.9239C151.122 51.9239 150.992 51.9489 150.876 51.9989C150.76 52.0469 150.661 52.1129 150.579 52.1969C150.499 52.2789 150.437 52.3749 150.393 52.4849C150.351 52.5929 150.33 52.7059 150.33 52.8239C150.33 52.9619 150.35 53.0879 150.39 53.2019C150.43 53.3159 150.488 53.4139 150.564 53.4959C150.642 53.5779 150.736 53.6419 150.846 53.6879C150.958 53.7319 151.085 53.7539 151.227 53.7539ZM150.915 51.4619C150.877 51.5099 150.84 51.5569 150.804 51.6029C150.77 51.6469 150.737 51.6909 150.705 51.7349C150.807 51.6649 150.919 51.6109 151.041 51.5729C151.163 51.5349 151.296 51.5159 151.44 51.5159C151.614 51.5159 151.778 51.5449 151.932 51.6029C152.086 51.6589 152.22 51.7419 152.334 51.8519C152.45 51.9599 152.542 52.0939 152.61 52.2539C152.678 52.4119 152.712 52.5929 152.712 52.7969C152.712 52.9949 152.676 53.1789 152.604 53.3489C152.532 53.5189 152.431 53.6669 152.301 53.7929C152.173 53.9189 152.018 54.0179 151.836 54.0899C151.656 54.1619 151.457 54.1979 151.239 54.1979C151.023 54.1979 150.827 54.1639 150.651 54.0959C150.475 54.0259 150.325 53.9279 150.201 53.8019C150.079 53.6739 149.984 53.5199 149.916 53.3399C149.85 53.1579 149.817 52.9549 149.817 52.7309C149.817 52.5429 149.858 52.3429 149.94 52.1309C150.024 51.9169 150.157 51.6889 150.339 51.4469L151.431 49.9799C151.459 49.9439 151.497 49.9139 151.545 49.8899C151.595 49.8639 151.652 49.8509 151.716 49.8509H152.19L150.915 51.4619Z" fill="black"/>
<path d="M93.6443 23.1009V27.3999H93.3533C93.3073 27.3999 93.2683 27.3919 93.2363 27.3759C93.2063 27.3599 93.1763 27.3329 93.1463 27.2949L90.6593 24.0549C90.6633 24.1049 90.6663 24.1539 90.6683 24.2019C90.6703 24.2499 90.6713 24.2949 90.6713 24.3369V27.3999H90.1613V23.1009H90.4613C90.4873 23.1009 90.5093 23.1029 90.5273 23.1069C90.5453 23.1089 90.5613 23.1139 90.5753 23.1219C90.5893 23.1279 90.6033 23.1379 90.6173 23.1519C90.6313 23.1639 90.6463 23.1799 90.6623 23.1999L93.1493 26.4369C93.1453 26.3849 93.1413 26.3349 93.1373 26.2869C93.1353 26.2369 93.1343 26.1899 93.1343 26.1459V23.1009H93.6443ZM96.7164 26.0319C96.4704 26.0399 96.2604 26.0599 96.0864 26.0919C95.9144 26.1219 95.7734 26.1619 95.6634 26.2119C95.5554 26.2619 95.4764 26.3209 95.4264 26.3889C95.3784 26.4569 95.3544 26.5329 95.3544 26.6169C95.3544 26.6969 95.3674 26.7659 95.3934 26.8239C95.4194 26.8819 95.4544 26.9299 95.4984 26.9679C95.5444 27.0039 95.5974 27.0309 95.6574 27.0489C95.7194 27.0649 95.7854 27.0729 95.8554 27.0729C95.9494 27.0729 96.0354 27.0639 96.1134 27.0459C96.1914 27.0259 96.2644 26.9979 96.3324 26.9619C96.4024 26.9259 96.4684 26.8829 96.5304 26.8329C96.5944 26.7829 96.6564 26.7259 96.7164 26.6619V26.0319ZM94.9914 24.7899C95.1594 24.6279 95.3404 24.5069 95.5344 24.4269C95.7284 24.3469 95.9434 24.3069 96.1794 24.3069C96.3494 24.3069 96.5004 24.3349 96.6324 24.3909C96.7644 24.4469 96.8754 24.5249 96.9654 24.6249C97.0554 24.7249 97.1234 24.8459 97.1694 24.9879C97.2154 25.1299 97.2384 25.2859 97.2384 25.4559V27.3999H97.0014C96.9494 27.3999 96.9094 27.3919 96.8814 27.3759C96.8534 27.3579 96.8314 27.3239 96.8154 27.2739L96.7554 26.9859C96.6754 27.0599 96.5974 27.1259 96.5214 27.1839C96.4454 27.2399 96.3654 27.2879 96.2814 27.3279C96.1974 27.3659 96.1074 27.3949 96.0114 27.4149C95.9174 27.4369 95.8124 27.4479 95.6964 27.4479C95.5784 27.4479 95.4674 27.4319 95.3634 27.3999C95.2594 27.3659 95.1684 27.3159 95.0904 27.2499C95.0144 27.1839 94.9534 27.1009 94.9074 27.0009C94.8634 26.8989 94.8414 26.7789 94.8414 26.6409C94.8414 26.5209 94.8744 26.4059 94.9404 26.2959C95.0064 26.1839 95.1134 26.0849 95.2614 25.9989C95.4094 25.9129 95.6024 25.8429 95.8404 25.7889C96.0784 25.7329 96.3704 25.7009 96.7164 25.6929V25.4559C96.7164 25.2199 96.6654 25.0419 96.5634 24.9219C96.4614 24.7999 96.3124 24.7389 96.1164 24.7389C95.9844 24.7389 95.8734 24.7559 95.7834 24.7899C95.6954 24.8219 95.6184 24.8589 95.5524 24.9009C95.4884 24.9409 95.4324 24.9779 95.3844 25.0119C95.3384 25.0439 95.2924 25.0599 95.2464 25.0599C95.2104 25.0599 95.1794 25.0509 95.1534 25.0329C95.1274 25.0129 95.1054 24.9889 95.0874 24.9609L94.9914 24.7899ZM101.131 24.3609L99.8924 27.3999H99.4124L98.1734 24.3609H98.6084C98.6524 24.3609 98.6884 24.3719 98.7164 24.3939C98.7444 24.4159 98.7634 24.4419 98.7734 24.4719L99.5444 26.4279C99.5684 26.5019 99.5894 26.5739 99.6074 26.6439C99.6254 26.7139 99.6424 26.7839 99.6584 26.8539C99.6744 26.7839 99.6914 26.7139 99.7094 26.6439C99.7274 26.5739 99.7494 26.5019 99.7754 26.4279L100.555 24.4719C100.567 24.4399 100.587 24.4139 100.615 24.3939C100.643 24.3719 100.676 24.3609 100.714 24.3609H101.131ZM102.665 24.8019C102.731 24.7279 102.801 24.6609 102.875 24.6009C102.949 24.5409 103.027 24.4899 103.109 24.4479C103.193 24.4039 103.281 24.3709 103.373 24.3489C103.467 24.3249 103.568 24.3129 103.676 24.3129C103.842 24.3129 103.988 24.3409 104.114 24.3969C104.242 24.4509 104.348 24.5289 104.432 24.6309C104.518 24.7309 104.583 24.8519 104.627 24.9939C104.671 25.1359 104.693 25.2929 104.693 25.4649V27.3999H104.156V25.4649C104.156 25.2349 104.103 25.0569 103.997 24.9309C103.893 24.8029 103.734 24.7389 103.52 24.7389C103.362 24.7389 103.214 24.7769 103.076 24.8529C102.94 24.9289 102.814 25.0319 102.698 25.1619V27.3999H102.161V24.3609H102.482C102.558 24.3609 102.605 24.3979 102.623 24.4719L102.665 24.8019ZM105.999 27.0699C105.999 27.0179 106.008 26.9689 106.026 26.9229C106.046 26.8769 106.072 26.8369 106.104 26.8029C106.138 26.7689 106.178 26.7419 106.224 26.7219C106.27 26.7019 106.319 26.6919 106.371 26.6919C106.423 26.6919 106.472 26.7019 106.518 26.7219C106.564 26.7419 106.604 26.7689 106.638 26.8029C106.672 26.8369 106.699 26.8769 106.719 26.9229C106.739 26.9689 106.749 27.0179 106.749 27.0699C106.749 27.1239 106.739 27.1739 106.719 27.2199C106.699 27.2639 106.672 27.3029 106.638 27.3369C106.604 27.3709 106.564 27.3969 106.518 27.4149C106.472 27.4349 106.423 27.4449 106.371 27.4449C106.319 27.4449 106.27 27.4349 106.224 27.4149C106.178 27.3969 106.138 27.3709 106.104 27.3369C106.072 27.3029 106.046 27.2639 106.026 27.2199C106.008 27.1739 105.999 27.1239 105.999 27.0699ZM105.999 24.8199C105.999 24.7679 106.008 24.7189 106.026 24.6729C106.046 24.6269 106.072 24.5869 106.104 24.5529C106.138 24.5189 106.178 24.4919 106.224 24.4719C106.27 24.4519 106.319 24.4419 106.371 24.4419C106.423 24.4419 106.472 24.4519 106.518 24.4719C106.564 24.4919 106.604 24.5189 106.638 24.5529C106.672 24.5869 106.699 24.6269 106.719 24.6729C106.739 24.7189 106.749 24.7679 106.749 24.8199C106.749 24.8739 106.739 24.9239 106.719 24.9699C106.699 25.0139 106.672 25.0529 106.638 25.0869C106.604 25.1209 106.564 25.1479 106.518 25.1679C106.472 25.1859 106.423 25.1949 106.371 25.1949C106.319 25.1949 106.27 25.1859 106.224 25.1679C106.178 25.1479 106.138 25.1209 106.104 25.0869C106.072 25.0529 106.046 25.0139 106.026 24.9699C106.008 24.9239 105.999 24.8739 105.999 24.8199ZM92.4443 32.8039L91.7693 31.0549C91.7493 31.0029 91.7283 30.9429 91.7063 30.8749C91.6843 30.8049 91.6633 30.7309 91.6433 30.6529C91.6013 30.8149 91.5583 30.9499 91.5143 31.0579L90.8393 32.8039H92.4443ZM93.6563 34.3999H93.2063C93.1543 34.3999 93.1123 34.3869 93.0803 34.3609C93.0483 34.3349 93.0243 34.3019 93.0083 34.2619L92.6063 33.2239H90.6773L90.2753 34.2619C90.2633 34.2979 90.2403 34.3299 90.2063 34.3579C90.1723 34.3859 90.1303 34.3999 90.0803 34.3999H89.6303L91.3493 30.1009H91.9373L93.6563 34.3999ZM95.1281 31.8019C95.1941 31.7279 95.2641 31.6609 95.3381 31.6009C95.4121 31.5409 95.4901 31.4899 95.5721 31.4479C95.6561 31.4039 95.7441 31.3709 95.8361 31.3489C95.9301 31.3249 96.0311 31.3129 96.1391 31.3129C96.3051 31.3129 96.4511 31.3409 96.5771 31.3969C96.7051 31.4509 96.8111 31.5289 96.8951 31.6309C96.9811 31.7309 97.0461 31.8519 97.0901 31.9939C97.1341 32.1359 97.1561 32.2929 97.1561 32.4649V34.3999H96.6191V32.4649C96.6191 32.2349 96.5661 32.0569 96.4601 31.9309C96.3561 31.8029 96.1971 31.7389 95.9831 31.7389C95.8251 31.7389 95.6771 31.7769 95.5391 31.8529C95.4031 31.9289 95.2771 32.0319 95.1611 32.1619V34.3999H94.6241V31.3609H94.9451C95.0211 31.3609 95.0681 31.3979 95.0861 31.4719L95.1281 31.8019ZM100.49 32.0839C100.39 31.9499 100.282 31.8569 100.166 31.8049C100.05 31.7509 99.9198 31.7239 99.7758 31.7239C99.4938 31.7239 99.2768 31.8249 99.1248 32.0269C98.9728 32.2289 98.8968 32.5169 98.8968 32.8909C98.8968 33.0889 98.9138 33.2589 98.9478 33.4009C98.9818 33.5409 99.0318 33.6569 99.0978 33.7489C99.1638 33.8389 99.2448 33.9049 99.3408 33.9469C99.4368 33.9889 99.5458 34.0099 99.6678 34.0099C99.8438 34.0099 99.9968 33.9699 100.127 33.8899C100.259 33.8099 100.38 33.6969 100.49 33.5509V32.0839ZM101.024 29.9809V34.3999H100.706C100.63 34.3999 100.582 34.3629 100.562 34.2889L100.514 33.9199C100.384 34.0759 100.236 34.2019 100.07 34.2979C99.9038 34.3939 99.7118 34.4419 99.4938 34.4419C99.3198 34.4419 99.1618 34.4089 99.0198 34.3429C98.8778 34.2749 98.7568 34.1759 98.6568 34.0459C98.5568 33.9159 98.4798 33.7539 98.4258 33.5599C98.3718 33.3659 98.3448 33.1429 98.3448 32.8909C98.3448 32.6669 98.3748 32.4589 98.4348 32.2669C98.4948 32.0729 98.5808 31.9049 98.6928 31.7629C98.8048 31.6209 98.9418 31.5099 99.1038 31.4299C99.2678 31.3479 99.4518 31.3069 99.6558 31.3069C99.8418 31.3069 100.001 31.3389 100.133 31.4029C100.267 31.4649 100.386 31.5519 100.49 31.6639V29.9809H101.024ZM104.441 32.5489C104.441 32.4249 104.423 32.3119 104.387 32.2099C104.353 32.1059 104.302 32.0169 104.234 31.9429C104.168 31.8669 104.087 31.8089 103.991 31.7689C103.895 31.7269 103.786 31.7059 103.664 31.7059C103.408 31.7059 103.205 31.7809 103.055 31.9309C102.907 32.0789 102.815 32.2849 102.779 32.5489H104.441ZM104.873 33.9739C104.807 34.0539 104.728 34.1239 104.636 34.1839C104.544 34.2419 104.445 34.2899 104.339 34.3279C104.235 34.3659 104.127 34.3939 104.015 34.4119C103.903 34.4319 103.792 34.4419 103.682 34.4419C103.472 34.4419 103.278 34.4069 103.1 34.3369C102.924 34.2649 102.771 34.1609 102.641 34.0249C102.513 33.8869 102.413 33.7169 102.341 33.5149C102.269 33.3129 102.233 33.0809 102.233 32.8189C102.233 32.6069 102.265 32.4089 102.329 32.2249C102.395 32.0409 102.489 31.8819 102.611 31.7479C102.733 31.6119 102.882 31.5059 103.058 31.4299C103.234 31.3519 103.432 31.3129 103.652 31.3129C103.834 31.3129 104.002 31.3439 104.156 31.4059C104.312 31.4659 104.446 31.5539 104.558 31.6699C104.672 31.7839 104.761 31.9259 104.825 32.0959C104.889 32.2639 104.921 32.4559 104.921 32.6719C104.921 32.7559 104.912 32.8119 104.894 32.8399C104.876 32.8679 104.842 32.8819 104.792 32.8819H102.761C102.767 33.0739 102.793 33.2409 102.839 33.3829C102.887 33.5249 102.953 33.6439 103.037 33.7399C103.121 33.8339 103.221 33.9049 103.337 33.9529C103.453 33.9989 103.583 34.0219 103.727 34.0219C103.861 34.0219 103.976 34.0069 104.072 33.9769C104.17 33.9449 104.254 33.9109 104.324 33.8749C104.394 33.8389 104.452 33.8059 104.498 33.7759C104.546 33.7439 104.587 33.7279 104.621 33.7279C104.665 33.7279 104.699 33.7449 104.723 33.7789L104.873 33.9739ZM106.624 31.9699C106.72 31.7619 106.838 31.5999 106.978 31.4839C107.118 31.3659 107.289 31.3069 107.491 31.3069C107.555 31.3069 107.616 31.3139 107.674 31.3279C107.734 31.3419 107.787 31.3639 107.833 31.3939L107.794 31.7929C107.782 31.8429 107.752 31.8679 107.704 31.8679C107.676 31.8679 107.635 31.8619 107.581 31.8499C107.527 31.8379 107.466 31.8319 107.398 31.8319C107.302 31.8319 107.216 31.8459 107.14 31.8739C107.066 31.9019 106.999 31.9439 106.939 31.9999C106.881 32.0539 106.828 32.1219 106.78 32.2039C106.734 32.2839 106.692 32.3759 106.654 32.4799V34.3999H106.117V31.3609H106.423C106.481 31.3609 106.521 31.3719 106.543 31.3939C106.565 31.4159 106.58 31.4539 106.588 31.5079L106.624 31.9699ZM110.595 31.8619C110.571 31.9059 110.534 31.9279 110.484 31.9279C110.454 31.9279 110.42 31.9169 110.382 31.8949C110.344 31.8729 110.297 31.8489 110.241 31.8229C110.187 31.7949 110.122 31.7699 110.046 31.7479C109.97 31.7239 109.88 31.7119 109.776 31.7119C109.686 31.7119 109.605 31.7239 109.533 31.7479C109.461 31.7699 109.399 31.8009 109.347 31.8409C109.297 31.8809 109.258 31.9279 109.23 31.9819C109.204 32.0339 109.191 32.0909 109.191 32.1529C109.191 32.2309 109.213 32.2959 109.257 32.3479C109.303 32.3999 109.363 32.4449 109.437 32.4829C109.511 32.5209 109.595 32.5549 109.689 32.5849C109.783 32.6129 109.879 32.6439 109.977 32.6779C110.077 32.7099 110.174 32.7459 110.268 32.7859C110.362 32.8259 110.446 32.8759 110.52 32.9359C110.594 32.9959 110.653 33.0699 110.697 33.1579C110.743 33.2439 110.766 33.3479 110.766 33.4699C110.766 33.6099 110.741 33.7399 110.691 33.8599C110.641 33.9779 110.567 34.0809 110.469 34.1689C110.371 34.2549 110.251 34.3229 110.109 34.3729C109.967 34.4229 109.803 34.4479 109.617 34.4479C109.405 34.4479 109.213 34.4139 109.041 34.3459C108.869 34.2759 108.723 34.1869 108.603 34.0789L108.729 33.8749C108.745 33.8489 108.764 33.8289 108.786 33.8149C108.808 33.8009 108.836 33.7939 108.87 33.7939C108.906 33.7939 108.944 33.8079 108.984 33.8359C109.024 33.8639 109.072 33.8949 109.128 33.9289C109.186 33.9629 109.256 33.9939 109.338 34.0219C109.42 34.0499 109.522 34.0639 109.644 34.0639C109.748 34.0639 109.839 34.0509 109.917 34.0249C109.995 33.9969 110.06 33.9599 110.112 33.9139C110.164 33.8679 110.202 33.8149 110.226 33.7549C110.252 33.6949 110.265 33.6309 110.265 33.5629C110.265 33.4789 110.242 33.4099 110.196 33.3559C110.152 33.2999 110.093 33.2529 110.019 33.2149C109.945 33.1749 109.86 33.1409 109.764 33.1129C109.67 33.0829 109.573 33.0519 109.473 33.0199C109.375 32.9879 109.278 32.9519 109.182 32.9119C109.088 32.8699 109.004 32.8179 108.93 32.7559C108.856 32.6939 108.796 32.6179 108.75 32.5279C108.706 32.4359 108.684 32.3249 108.684 32.1949C108.684 32.0789 108.708 31.9679 108.756 31.8619C108.804 31.7539 108.874 31.6599 108.966 31.5799C109.058 31.4979 109.171 31.4329 109.305 31.3849C109.439 31.3369 109.592 31.3129 109.764 31.3129C109.964 31.3129 110.143 31.3449 110.301 31.4089C110.461 31.4709 110.599 31.5569 110.715 31.6669L110.595 31.8619ZM116.246 32.8039L115.571 31.0549C115.551 31.0029 115.53 30.9429 115.508 30.8749C115.486 30.8049 115.465 30.7309 115.445 30.6529C115.403 30.8149 115.36 30.9499 115.316 31.0579L114.641 32.8039H116.246ZM117.458 34.3999H117.008C116.956 34.3999 116.914 34.3869 116.882 34.3609C116.85 34.3349 116.826 34.3019 116.81 34.2619L116.408 33.2239H114.479L114.077 34.2619C114.065 34.2979 114.042 34.3299 114.008 34.3579C113.974 34.3859 113.932 34.3999 113.882 34.3999H113.432L115.151 30.1009H115.739L117.458 34.3999ZM118.93 31.8019C118.996 31.7279 119.066 31.6609 119.14 31.6009C119.214 31.5409 119.292 31.4899 119.374 31.4479C119.458 31.4039 119.546 31.3709 119.638 31.3489C119.732 31.3249 119.833 31.3129 119.941 31.3129C120.107 31.3129 120.253 31.3409 120.379 31.3969C120.507 31.4509 120.613 31.5289 120.697 31.6309C120.783 31.7309 120.848 31.8519 120.892 31.9939C120.936 32.1359 120.958 32.2929 120.958 32.4649V34.3999H120.421V32.4649C120.421 32.2349 120.368 32.0569 120.262 31.9309C120.158 31.8029 119.999 31.7389 119.785 31.7389C119.627 31.7389 119.479 31.7769 119.341 31.8529C119.205 31.9289 119.079 32.0319 118.963 32.1619V34.3999H118.426V31.3609H118.747C118.823 31.3609 118.87 31.3979 118.888 31.4719L118.93 31.8019ZM124.291 32.0839C124.191 31.9499 124.083 31.8569 123.967 31.8049C123.851 31.7509 123.721 31.7239 123.577 31.7239C123.295 31.7239 123.078 31.8249 122.926 32.0269C122.774 32.2289 122.698 32.5169 122.698 32.8909C122.698 33.0889 122.715 33.2589 122.749 33.4009C122.783 33.5409 122.833 33.6569 122.899 33.7489C122.965 33.8389 123.046 33.9049 123.142 33.9469C123.238 33.9889 123.347 34.0099 123.469 34.0099C123.645 34.0099 123.798 33.9699 123.928 33.8899C124.06 33.8099 124.181 33.6969 124.291 33.5509V32.0839ZM124.825 29.9809V34.3999H124.507C124.431 34.3999 124.383 34.3629 124.363 34.2889L124.315 33.9199C124.185 34.0759 124.037 34.2019 123.871 34.2979C123.705 34.3939 123.513 34.4419 123.295 34.4419C123.121 34.4419 122.963 34.4089 122.821 34.3429C122.679 34.2749 122.558 34.1759 122.458 34.0459C122.358 33.9159 122.281 33.7539 122.227 33.5599C122.173 33.3659 122.146 33.1429 122.146 32.8909C122.146 32.6669 122.176 32.4589 122.236 32.2669C122.296 32.0729 122.382 31.9049 122.494 31.7629C122.606 31.6209 122.743 31.5099 122.905 31.4299C123.069 31.3479 123.253 31.3069 123.457 31.3069C123.643 31.3069 123.802 31.3389 123.934 31.4029C124.068 31.4649 124.187 31.5519 124.291 31.6639V29.9809H124.825ZM128.243 32.5489C128.243 32.4249 128.225 32.3119 128.189 32.2099C128.155 32.1059 128.104 32.0169 128.036 31.9429C127.97 31.8669 127.889 31.8089 127.793 31.7689C127.697 31.7269 127.588 31.7059 127.466 31.7059C127.21 31.7059 127.007 31.7809 126.857 31.9309C126.709 32.0789 126.617 32.2849 126.581 32.5489H128.243ZM128.675 33.9739C128.609 34.0539 128.53 34.1239 128.438 34.1839C128.346 34.2419 128.247 34.2899 128.141 34.3279C128.037 34.3659 127.929 34.3939 127.817 34.4119C127.705 34.4319 127.594 34.4419 127.484 34.4419C127.274 34.4419 127.08 34.4069 126.902 34.3369C126.726 34.2649 126.573 34.1609 126.443 34.0249C126.315 33.8869 126.215 33.7169 126.143 33.5149C126.071 33.3129 126.035 33.0809 126.035 32.8189C126.035 32.6069 126.067 32.4089 126.131 32.2249C126.197 32.0409 126.291 31.8819 126.413 31.7479C126.535 31.6119 126.684 31.5059 126.86 31.4299C127.036 31.3519 127.234 31.3129 127.454 31.3129C127.636 31.3129 127.804 31.3439 127.958 31.4059C128.114 31.4659 128.248 31.5539 128.36 31.6699C128.474 31.7839 128.563 31.9259 128.627 32.0959C128.691 32.2639 128.723 32.4559 128.723 32.6719C128.723 32.7559 128.714 32.8119 128.696 32.8399C128.678 32.8679 128.644 32.8819 128.594 32.8819H126.563C126.569 33.0739 126.595 33.2409 126.641 33.3829C126.689 33.5249 126.755 33.6439 126.839 33.7399C126.923 33.8339 127.023 33.9049 127.139 33.9529C127.255 33.9989 127.385 34.0219 127.529 34.0219C127.663 34.0219 127.778 34.0069 127.874 33.9769C127.972 33.9449 128.056 33.9109 128.126 33.8749C128.196 33.8389 128.254 33.8059 128.3 33.7759C128.348 33.7439 128.389 33.7279 128.423 33.7279C128.467 33.7279 128.501 33.7449 128.525 33.7789L128.675 33.9739ZM130.426 31.9699C130.522 31.7619 130.64 31.5999 130.78 31.4839C130.92 31.3659 131.091 31.3069 131.293 31.3069C131.357 31.3069 131.418 31.3139 131.476 31.3279C131.536 31.3419 131.589 31.3639 131.635 31.3939L131.596 31.7929C131.584 31.8429 131.554 31.8679 131.506 31.8679C131.478 31.8679 131.437 31.8619 131.383 31.8499C131.329 31.8379 131.268 31.8319 131.2 31.8319C131.104 31.8319 131.018 31.8459 130.942 31.8739C130.868 31.9019 130.801 31.9439 130.741 31.9999C130.683 32.0539 130.63 32.1219 130.582 32.2039C130.536 32.2839 130.494 32.3759 130.456 32.4799V34.3999H129.919V31.3609H130.225C130.283 31.3609 130.323 31.3719 130.345 31.3939C130.367 31.4159 130.382 31.4539 130.39 31.5079L130.426 31.9699ZM134.397 31.8619C134.373 31.9059 134.336 31.9279 134.286 31.9279C134.256 31.9279 134.222 31.9169 134.184 31.8949C134.146 31.8729 134.099 31.8489 134.043 31.8229C133.989 31.7949 133.924 31.7699 133.848 31.7479C133.772 31.7239 133.682 31.7119 133.578 31.7119C133.488 31.7119 133.407 31.7239 133.335 31.7479C133.263 31.7699 133.201 31.8009 133.149 31.8409C133.099 31.8809 133.06 31.9279 133.032 31.9819C133.006 32.0339 132.993 32.0909 132.993 32.1529C132.993 32.2309 133.015 32.2959 133.059 32.3479C133.105 32.3999 133.165 32.4449 133.239 32.4829C133.313 32.5209 133.397 32.5549 133.491 32.5849C133.585 32.6129 133.681 32.6439 133.779 32.6779C133.879 32.7099 133.976 32.7459 134.07 32.7859C134.164 32.8259 134.248 32.8759 134.322 32.9359C134.396 32.9959 134.455 33.0699 134.499 33.1579C134.545 33.2439 134.568 33.3479 134.568 33.4699C134.568 33.6099 134.543 33.7399 134.493 33.8599C134.443 33.9779 134.369 34.0809 134.271 34.1689C134.173 34.2549 134.053 34.3229 133.911 34.3729C133.769 34.4229 133.605 34.4479 133.419 34.4479C133.207 34.4479 133.015 34.4139 132.843 34.3459C132.671 34.2759 132.525 34.1869 132.405 34.0789L132.531 33.8749C132.547 33.8489 132.566 33.8289 132.588 33.8149C132.61 33.8009 132.638 33.7939 132.672 33.7939C132.708 33.7939 132.746 33.8079 132.786 33.8359C132.826 33.8639 132.874 33.8949 132.93 33.9289C132.988 33.9629 133.058 33.9939 133.14 34.0219C133.222 34.0499 133.324 34.0639 133.446 34.0639C133.55 34.0639 133.641 34.0509 133.719 34.0249C133.797 33.9969 133.862 33.9599 133.914 33.9139C133.966 33.8679 134.004 33.8149 134.028 33.7549C134.054 33.6949 134.067 33.6309 134.067 33.5629C134.067 33.4789 134.044 33.4099 133.998 33.3559C133.954 33.2999 133.895 33.2529 133.821 33.2149C133.747 33.1749 133.662 33.1409 133.566 33.1129C133.472 33.0829 133.375 33.0519 133.275 33.0199C133.177 32.9879 133.08 32.9519 132.984 32.9119C132.89 32.8699 132.806 32.8179 132.732 32.7559C132.658 32.6939 132.598 32.6179 132.552 32.5279C132.508 32.4359 132.486 32.3249 132.486 32.1949C132.486 32.0789 132.51 31.9679 132.558 31.8619C132.606 31.7539 132.676 31.6599 132.768 31.5799C132.86 31.4979 132.973 31.4329 133.107 31.3849C133.241 31.3369 133.394 31.3129 133.566 31.3129C133.766 31.3129 133.945 31.3449 134.103 31.4089C134.263 31.4709 134.401 31.5569 134.517 31.6669L134.397 31.8619ZM137.796 32.5489C137.796 32.4249 137.778 32.3119 137.742 32.2099C137.708 32.1059 137.657 32.0169 137.589 31.9429C137.523 31.8669 137.442 31.8089 137.346 31.7689C137.25 31.7269 137.141 31.7059 137.019 31.7059C136.763 31.7059 136.56 31.7809 136.41 31.9309C136.262 32.0789 136.17 32.2849 136.134 32.5489H137.796ZM138.228 33.9739C138.162 34.0539 138.083 34.1239 137.991 34.1839C137.899 34.2419 137.8 34.2899 137.694 34.3279C137.59 34.3659 137.482 34.3939 137.37 34.4119C137.258 34.4319 137.147 34.4419 137.037 34.4419C136.827 34.4419 136.633 34.4069 136.455 34.3369C136.279 34.2649 136.126 34.1609 135.996 34.0249C135.868 33.8869 135.768 33.7169 135.696 33.5149C135.624 33.3129 135.588 33.0809 135.588 32.8189C135.588 32.6069 135.62 32.4089 135.684 32.2249C135.75 32.0409 135.844 31.8819 135.966 31.7479C136.088 31.6119 136.237 31.5059 136.413 31.4299C136.589 31.3519 136.787 31.3129 137.007 31.3129C137.189 31.3129 137.357 31.3439 137.511 31.4059C137.667 31.4659 137.801 31.5539 137.913 31.6699C138.027 31.7839 138.116 31.9259 138.18 32.0959C138.244 32.2639 138.276 32.4559 138.276 32.6719C138.276 32.7559 138.267 32.8119 138.249 32.8399C138.231 32.8679 138.197 32.8819 138.147 32.8819H136.116C136.122 33.0739 136.148 33.2409 136.194 33.3829C136.242 33.5249 136.308 33.6439 136.392 33.7399C136.476 33.8339 136.576 33.9049 136.692 33.9529C136.808 33.9989 136.938 34.0219 137.082 34.0219C137.216 34.0219 137.331 34.0069 137.427 33.9769C137.525 33.9449 137.609 33.9109 137.679 33.8749C137.749 33.8389 137.807 33.8059 137.853 33.7759C137.901 33.7439 137.942 33.7279 137.976 33.7279C138.02 33.7279 138.054 33.7449 138.078 33.7789L138.228 33.9739ZM139.976 31.8019C140.042 31.7279 140.112 31.6609 140.186 31.6009C140.26 31.5409 140.338 31.4899 140.42 31.4479C140.504 31.4039 140.592 31.3709 140.684 31.3489C140.778 31.3249 140.879 31.3129 140.987 31.3129C141.153 31.3129 141.299 31.3409 141.425 31.3969C141.553 31.4509 141.659 31.5289 141.743 31.6309C141.829 31.7309 141.894 31.8519 141.938 31.9939C141.982 32.1359 142.004 32.2929 142.004 32.4649V34.3999H141.467V32.4649C141.467 32.2349 141.414 32.0569 141.308 31.9309C141.204 31.8029 141.045 31.7389 140.831 31.7389C140.673 31.7389 140.525 31.7769 140.387 31.8529C140.251 31.9289 140.125 32.0319 140.009 32.1619V34.3999H139.472V31.3609H139.793C139.869 31.3609 139.916 31.3979 139.934 31.4719L139.976 31.8019Z" fill="black"/>
<path d="M97.3598 94.575V79.235H98.1398V94.575H97.3598ZM101.26 94.575V79.235H102.04V94.575H101.26ZM103.6 94.575V79.235H105.16V94.575H103.6ZM106.722 94.575V79.235H107.502V94.575H106.722ZM108.282 94.575V79.235H111.402V94.575H108.282ZM112.962 94.575V79.235H113.742V94.575H112.962ZM116.084 94.575V79.235H116.864V94.575H116.084ZM119.984 94.575V79.235H121.544V94.575H119.984ZM122.324 94.575V79.235H123.104V94.575H122.324ZM125.446 94.575V79.235H126.226V94.575H125.446ZM129.346 94.575V79.235H130.906V94.575H129.346ZM132.466 94.575V79.235H133.246V94.575H132.466ZM134.808 94.575V79.235H135.588V94.575H134.808ZM137.148 94.575V79.235H137.928V94.575H137.148ZM141.048 94.575V79.235H142.608V94.575H141.048Z" fill="black"/>
<mask id="mask0_550_3168" style="mask-type:luminance" maskUnits="userSpaceOnUse" x="6" y="12" width="79" height="84">
<path d="M85 12H6V96H85V12Z" fill="white"/>
</mask>
<g mask="url(#mask0_550_3168)">
<path d="M13.5249 52.1505C13.5249 34.983 27.4654 21.0662 44.6617 21.0662C61.8583 21.0662 75.7988 34.983 75.7988 52.1505V95.6686H13.5249V52.1505Z" fill="#355E50"/>
<path d="M51.5649 79.3845C54.8797 78.1151 57.7101 75.8391 59.9014 73.0737C62.3108 70.0306 63.9192 66.4558 65.0333 62.7595C65.6974 60.5525 66.1891 58.298 66.5991 56.0321C66.6987 55.4844 65.8535 55.2869 65.7539 55.8346C64.4362 63.1071 62.0957 70.7418 56.2053 75.6506C54.7394 76.8719 53.0884 77.8747 51.3028 78.5594C50.7836 78.7562 51.0429 79.5846 51.5678 79.3845H51.5649Z" fill="#748763"/>
<path d="M66.6411 56.0013C66.7328 54.101 66.8674 52.1929 66.8487 50.2911C66.8437 49.7332 65.9759 49.768 65.9812 50.3258C65.9998 52.2305 65.8624 54.1357 65.7736 56.0361C65.7465 56.5924 66.614 56.5546 66.6411 56.0013Z" fill="#748763"/>
<path d="M66.8943 50.4107C66.7997 47.7053 66.7025 44.9999 66.6086 42.2972C66.5862 41.74 65.7214 41.7747 65.7411 42.3319C65.8354 45.0375 65.9327 47.7429 66.0265 50.4454C66.0491 51.0026 66.9138 50.9679 66.8943 50.4107Z" fill="#748763"/>
<path d="M66.617 42.3576C66.5713 41.5151 66.5259 40.6726 66.4806 39.8272C66.4683 39.6022 66.266 39.3906 66.0289 39.4116C65.7924 39.4326 65.6003 39.6197 65.6129 39.862C65.6583 40.7045 65.7036 41.547 65.7495 42.3924C65.7611 42.6174 65.964 42.829 66.2005 42.8079C66.437 42.7869 66.6297 42.6 66.617 42.3576Z" fill="#748763"/>
<path d="M66.9579 45.9409C67.5159 45.9186 67.4814 45.0526 66.9232 45.0749C66.365 45.0972 66.3997 45.9633 66.9579 45.9409Z" fill="#748763"/>
<path d="M66.9898 46.6681C67.9916 45.3614 68.7162 43.8636 69.0831 42.2557C69.4841 40.4904 69.2925 38.6792 69.5627 36.9018L68.7054 36.8205C68.487 39.6022 67.8303 42.3579 66.6252 44.8813L67.4311 45.1844C67.6747 43.9632 67.9443 42.7496 68.2436 41.5404C68.5198 40.4161 68.8284 39.3022 69.3571 38.2661L68.5511 37.963C67.9332 39.8759 67.4437 41.8269 67.0833 43.8047C66.9837 44.3523 67.8055 44.5478 67.928 44.0022C68.4539 41.6679 68.9803 39.3336 69.5062 36.9994L68.6704 37.033C69.3066 39.8121 68.6812 42.7749 67.0426 45.0988C66.722 45.554 67.4915 45.9569 67.8089 45.5047C69.5876 42.9872 70.185 39.7625 69.4967 36.7685C69.3982 36.3387 68.7493 36.4052 68.661 36.8021C68.1351 39.1362 67.6092 41.4704 67.0833 43.8047L67.928 44.0022C68.2889 42.0244 68.7784 40.0732 69.3963 38.1605C69.5482 37.6887 68.8105 37.4264 68.5905 37.8573C68.051 38.9199 67.7149 40.0638 67.4279 41.2147C67.1161 42.4646 66.8365 43.7221 66.5832 44.9871C66.4892 45.4535 67.1698 45.7472 67.389 45.2902C68.6662 42.6194 69.3406 39.7298 69.5697 36.7858C69.6081 36.3014 68.7853 36.2245 68.712 36.7045C68.453 38.4006 68.6268 40.1343 68.2838 41.8222C67.9692 43.3672 67.3067 44.8309 66.3495 46.0808C66.0137 46.5222 66.6486 47.1126 66.9871 46.6681H66.9898Z" fill="#748763"/>
<path d="M66.033 45.4227C65.1547 44.469 64.6485 43.2547 64.2175 42.0489C63.7313 40.6863 63.3392 39.291 63.0391 37.8746L62.2126 38.1391C63.01 40.5389 65.0632 42.3996 65.2548 45.0087L66.0556 44.7568C65.5216 43.7257 64.9907 42.6945 64.4572 41.6664L63.7258 42.1322C64.0791 42.7774 64.432 43.4224 64.7854 44.0675C65.1103 44.6618 65.5203 45.2699 65.5741 45.9616L66.3749 45.7097C66.2527 45.5585 66.2425 45.4462 66.3491 45.2799C66.6543 44.8109 65.8853 44.408 65.5825 44.8741C65.3234 45.2719 65.345 45.8059 65.6437 46.1786C65.8905 46.4867 66.4777 46.3938 66.4445 45.9268C66.3875 45.1599 66.0167 44.5068 65.654 43.8448C65.2572 43.1176 64.8598 42.3934 64.4601 41.6662C64.1913 41.1738 63.4743 41.642 63.7285 42.1322C64.2624 43.1632 64.7934 44.1944 65.3273 45.2227C65.5282 45.6108 66.156 45.3831 66.1279 44.9708C66.0317 43.6562 65.5399 42.4441 64.8748 41.3199C64.2096 40.1958 63.4635 39.1356 63.0446 37.8744C62.8665 37.335 62.1041 37.6027 62.2181 38.1389C62.5366 39.6413 62.955 41.1192 63.485 42.5611C63.9505 43.8292 64.5269 45.0553 65.4506 46.0592C65.8293 46.4719 66.4146 45.8324 66.0391 45.4225L66.033 45.4227Z" fill="#748763"/>
<path d="M60.8784 42.1943C61.5042 43.8578 62.6976 45.1631 63.756 46.5577C64.3002 47.2732 64.8171 48.0245 65.1575 48.858C65.5464 49.8082 65.7225 50.8102 65.7086 51.8316L66.5094 51.5797C65.6394 50.1774 64.7231 48.7917 63.9351 47.3399C63.147 45.8883 62.5247 44.3893 62.0049 42.8401L61.2256 43.2067C62.0198 44.6582 62.8169 46.1068 63.6106 47.5582C64.3575 48.922 65.1943 50.2733 65.6198 51.7772L66.3985 51.4106C65.1094 49.606 64.0066 47.6754 63.1226 45.6434C62.9024 45.1376 62.0727 45.3934 62.2961 45.9078C63.2119 48.0108 64.3352 50.01 65.667 51.8766C65.9493 52.2729 66.584 51.993 66.4458 51.51C66.0111 49.9805 65.1672 48.5975 64.4077 47.2111C63.5891 45.7202 62.773 44.2261 61.9539 42.7352C61.7165 42.3024 61.0204 42.6396 61.1752 43.1018C61.7053 44.6795 62.3523 46.2179 63.1381 47.687C63.9244 49.1562 64.8831 50.604 65.7782 52.0455C66.0134 52.4266 66.5724 52.2104 66.579 51.7938C66.6051 49.7803 65.8745 47.9648 64.6952 46.361C63.6411 44.9287 62.3401 43.616 61.7044 41.9241C61.5099 41.4056 60.6801 41.6643 60.8779 42.1884L60.8784 42.1943Z" fill="#748763"/>
<path d="M67.4214 50.485C69.1065 47.9596 70.421 45.212 71.3475 42.3211L70.4897 42.2398C70.3252 44.123 69.9424 45.908 69.0513 47.5947C68.6424 48.3685 68.1535 49.0965 67.5835 49.7642C67.0137 50.4319 66.3365 51.017 66.2098 51.9069C66.1467 52.3489 66.6224 52.5929 66.9525 52.2993C68.4933 50.9248 69.6179 49.1477 70.2313 47.18C70.3977 46.6472 69.5501 46.4527 69.3861 46.9827C68.8168 48.8127 67.7467 50.4371 66.3149 51.7119L67.0577 52.1042C67.1798 51.2464 68.015 50.6317 68.5251 49.9867C69.087 49.2732 69.5806 48.5015 69.9821 47.6874C70.8418 45.9471 71.1914 44.1287 71.3579 42.2109C71.4037 41.6944 70.6389 41.6989 70.5001 42.1296C69.5969 44.9474 68.2965 47.6219 66.6519 50.0819C66.3407 50.5456 67.1123 50.9483 67.4185 50.4878L67.4214 50.485Z" fill="#748763"/>
<path d="M66.7538 58.226C67.368 57.5103 67.9795 56.7977 68.5937 56.082C68.9561 55.6598 68.3422 55.0887 67.9561 55.4946L66.1522 57.3826L66.7898 57.9701C67.7083 56.8259 68.6265 55.6788 69.5477 54.5343C70.4691 53.39 71.369 52.3594 72.1711 51.1995L71.3653 50.8964C70.3228 54.0003 68.3493 56.7771 65.7567 58.7837L66.4126 59.2457C66.5977 58.738 67.0521 58.3672 67.4311 58.0052C67.8663 57.5887 68.2805 57.1499 68.6671 56.6891C69.4276 55.7883 70.092 54.8076 70.6557 53.7729C70.9227 53.2822 70.1559 52.8763 69.8891 53.367C69.2983 54.449 68.6003 55.4602 67.7832 56.3863C67.0297 57.2406 65.9633 57.9482 65.5646 59.0484C65.4366 59.3978 65.9339 59.7334 66.2205 59.5109C69.0042 57.3551 71.0875 54.4265 72.2071 51.091C72.3782 50.5869 71.656 50.4193 71.4018 50.7879C70.616 51.924 69.6825 52.9764 68.819 54.0547C67.9309 55.1631 67.04 56.2714 66.1522 57.3798C65.8045 57.8131 66.4009 58.376 66.7898 57.9672L68.5937 56.0792L67.9556 55.4917C67.3419 56.2073 66.7304 56.92 66.1162 57.6357C65.7535 58.0579 66.3883 58.6484 66.7538 58.2231V58.226Z" fill="#748763"/>
<path d="M65.8104 58.0181C63.8541 54.9623 63.1692 51.3378 62.5124 47.8278L61.6864 48.0923C61.8907 48.9313 62.3521 49.6647 62.8323 50.374C63.3127 51.0833 63.7981 51.8417 64.1579 52.6542C64.875 54.2766 65.2233 56.0263 65.1962 57.797L66.0441 57.6473C65.1891 55.3221 64.3024 53.0099 63.3904 50.7073L62.6115 51.0739C63.3077 52.5437 64.0041 54.0136 64.7029 55.4834C64.8044 55.6961 65.1213 55.7269 65.3022 55.6155C65.5229 55.4795 65.5327 55.2274 65.4346 55.0173C64.7384 53.5476 64.042 52.0777 63.3427 50.6079C63.1337 50.1681 62.3834 50.5193 62.5639 50.9745C63.4764 53.2772 64.3599 55.5925 65.2181 57.9147C65.3902 58.379 66.0572 58.2569 66.0666 57.7651C66.0955 55.9682 65.7476 54.1634 65.0381 52.5091C64.6932 51.7047 64.2659 50.944 63.776 50.2205C63.2866 49.4971 62.7345 48.7298 62.5158 47.8335C62.3807 47.2808 61.5897 47.5613 61.6893 48.098C62.361 51.6882 63.0822 55.3661 65.0821 58.4897C65.3818 58.9607 66.1161 58.4946 65.8133 58.0238L65.8104 58.0181Z" fill="#748763"/>
<path d="M64.8533 64.3423C69.1221 63.6072 72.6411 60.6499 74.0846 56.5732C74.2481 56.1068 73.4933 55.8393 73.2787 56.2701C71.6066 59.6331 67.8955 61.1264 64.9342 63.1014C64.5335 63.3693 64.8238 64.0398 65.3011 63.8793C67.156 63.2581 68.8485 62.2796 70.3262 60.9972L69.6887 60.4101C68.8383 61.3 67.7187 61.9113 66.4987 62.1106L66.7511 62.91C68.9888 61.1638 71.2242 59.4175 73.4624 57.6708C73.8976 57.3296 73.4366 56.5962 72.9959 56.9406C70.7577 58.6871 68.5223 60.4335 66.2842 62.1801C65.9892 62.4116 66.0643 63.0561 66.5366 62.9795C67.9922 62.7392 69.309 62.0673 70.3323 60.9999C70.7268 60.588 70.106 60.055 69.6947 60.4125C68.3373 61.5917 66.7511 62.4854 65.0449 63.0566L65.4123 63.8339C68.5121 61.7667 72.3068 60.1977 74.057 56.6783L73.2511 56.3752C71.9507 60.0502 68.6816 62.8126 64.8331 63.4756C64.6004 63.5167 64.4092 63.6694 64.4167 63.926C64.4251 64.1369 64.6378 64.3827 64.8677 64.3418L64.8533 64.3423Z" fill="#748763"/>
<path d="M62.9023 67.162C62.5297 63.0824 62.4629 58.9795 62.704 54.8898L61.9034 55.1417C63.2043 57.6021 63.8082 60.3799 63.6852 63.1575C63.6614 63.7138 64.5286 63.676 64.5528 63.123C64.6837 60.1886 64.0072 57.2692 62.6343 54.6728C62.4119 54.2538 61.859 54.5392 61.8337 54.9247C61.5925 59.0139 61.6593 63.1173 62.0319 67.1964C62.0829 67.7499 62.9504 67.7177 62.8995 67.162H62.9023Z" fill="#748763"/>
<path d="M64.0874 64.0148C63.6672 61.6259 63.247 59.2398 62.8289 56.8509L62.0026 57.1154C62.585 58.4857 62.985 59.9328 63.1516 61.4121C63.3043 62.7679 63.2717 64.1803 62.6906 65.4353C62.4565 65.9421 63.2226 66.3509 63.4572 65.8414C64.0859 64.4801 64.1847 62.9727 64.0326 61.4984C63.8667 59.8974 63.4591 58.3292 62.8318 56.8479C62.6111 56.3248 61.908 56.5669 62.0053 57.1124C62.426 59.5012 62.8462 61.8872 63.2638 64.2761C63.3053 64.5085 63.6078 64.6181 63.811 64.558C64.0598 64.4814 64.134 64.2411 64.093 64.0116L64.0874 64.0148Z" fill="#748763"/>
<path d="M62.7057 65.3856L62.4122 65.7212L63.1549 66.1136C63.4873 64.2237 63.4774 62.3126 63.1436 60.4264C63.1026 60.1969 62.7996 60.0815 62.5962 60.145C62.3476 60.2244 62.2732 60.4587 62.3144 60.6911C62.6183 62.4168 62.6117 64.1952 62.3074 65.9192C62.2369 66.3266 62.7481 66.6532 63.0501 66.3116L63.3437 65.9761C63.7121 65.5564 63.074 64.9661 62.7061 65.3885L62.7057 65.3856Z" fill="#748763"/>
<path d="M63.6357 67.9072C67.0787 67.3761 70.2784 65.7787 72.7549 63.3259L72.051 62.8279C71.3273 64.2737 69.5631 64.5528 68.1499 64.9187C66.5358 65.3364 64.9891 65.9794 63.5423 66.8096C63.1066 67.0612 63.4459 67.721 63.9097 67.587C66.9215 66.7173 69.7843 65.3681 72.3716 63.5989L71.9051 62.8686C70.9575 63.6465 69.9081 64.2789 68.768 64.732L69.1354 65.5095L70.5092 64.8243L69.8539 64.3618L69.6926 64.9639C69.5893 65.3527 70.0338 65.6009 70.3485 65.4264L70.4728 65.3579C70.9631 65.0895 70.4939 64.3592 70.0062 64.6275L69.8815 64.696L70.5373 65.1585L70.6986 64.5565C70.8069 64.159 70.3578 63.9368 70.0427 64.094L68.6684 64.7797C68.2314 64.9966 68.5796 65.7401 69.0358 65.557C70.2474 65.0746 71.3708 64.4226 72.3772 63.5957C72.7951 63.2521 72.3842 62.5401 71.9107 62.8654C69.3822 64.5976 66.5994 65.9088 63.6535 66.7588L64.0204 67.5361C65.5663 66.6472 67.2132 66.0405 68.9396 65.6131C70.4452 65.2401 72.0808 64.7207 72.8264 63.2335C73.0489 62.7878 72.4734 62.3888 72.1228 62.7356C69.8248 65.0134 66.8107 66.5455 63.6068 67.0382C63.0599 67.1237 63.0888 67.9899 63.6414 67.9039L63.6357 67.9072Z" fill="#748763"/>
<path d="M72.1309 62.9432C70.9819 64.4034 69.3505 65.3913 67.5255 65.7445C67.2955 65.7883 67.18 66.0852 67.2432 66.2909C67.3226 66.5364 67.5578 66.6167 67.7905 66.5724C69.7423 66.1967 71.5399 65.0949 72.769 63.5335C72.9149 63.3486 72.9246 63.0878 72.7441 62.9217C72.5814 62.7719 72.2771 62.7612 72.1309 62.9464V62.9432Z" fill="#748763"/>
<path d="M59.8734 71.9498C59.6458 67.7983 61.4554 63.7472 60.7267 59.5953C60.6326 59.0643 59.7959 59.0628 59.859 59.6299C60.1162 61.9907 60.2287 64.3627 60.1853 66.7358C60.1633 67.9221 60.1039 69.1068 60.0067 70.2907C60.0006 70.3515 59.9441 70.6777 59.9707 70.6913L60.2699 70.6357C60.2662 70.5494 60.2746 70.462 60.2852 70.3747C60.3086 70.0934 60.3438 69.8143 60.3732 69.5357C60.4387 68.9286 60.5012 68.3219 60.5662 67.7153L59.7089 67.6335C59.6392 68.9263 59.5669 70.2217 59.4973 71.514L60.3643 71.4789C60.5378 67.7885 60.7107 64.0977 60.8836 60.4072C60.9107 59.851 60.0432 59.8888 60.0161 60.4418C59.8431 64.1327 59.6702 67.823 59.4973 71.514C59.47 72.073 60.3344 72.0295 60.3643 71.4789C60.434 70.1868 60.5065 68.8912 60.5761 67.5991C60.6032 67.118 59.7716 67.0325 59.7188 67.5178C59.6384 68.2641 59.5617 69.0131 59.4813 69.7592C59.4248 70.2965 59.2185 71.0711 59.8108 71.3973C60.0655 71.5373 60.3774 71.5101 60.5924 71.3138C60.8074 71.1173 60.8248 70.8186 60.8481 70.5405C60.9094 69.8321 60.959 69.1218 60.994 68.4092C61.1393 65.4687 61.044 62.5203 60.7267 59.5953L59.859 59.6299C60.5877 63.7761 58.7783 67.8329 59.0064 71.9849C59.0372 72.5415 59.9049 72.5065 59.8734 71.9498Z" fill="#748763"/>
<path d="M59.5662 72.5924C60.1244 72.5699 60.0898 71.7039 59.5316 71.7263C58.9734 71.7486 59.0081 72.6148 59.5662 72.5924Z" fill="#748763"/>
<path d="M60.3116 73.1152C63.8694 72.7815 67.3033 71.5249 70.2207 69.4622C70.677 69.1402 70.238 68.4495 69.7542 68.7318C67.0205 70.3305 63.9746 71.3578 60.8267 71.7353L60.9767 72.5824C63.1541 71.8534 65.3885 71.3041 67.6573 70.9588L67.5072 70.1117L64.9473 70.7086L65.399 71.4161C65.9467 70.703 67.0668 70.9737 67.8329 70.7232C68.5992 70.4725 69.1377 69.7455 69.9127 69.6508L69.7631 68.8037C67.8305 69.5144 65.8981 70.2224 63.9662 70.9331L64.2308 71.7581C65.7855 71.0857 67.3398 70.4132 68.8941 69.7408C69.4008 69.5209 69.1442 68.6927 68.6289 68.9157C67.0747 69.5881 65.5204 70.2607 63.9662 70.9331C63.465 71.1496 63.6973 71.9556 64.2308 71.7581C66.1632 71.0475 68.0957 70.3394 70.0276 69.6288C70.4643 69.4696 70.3881 68.7211 69.8775 68.7817C69.411 68.8383 69.0128 69.0249 68.6234 69.2801C68.2339 69.5359 67.8891 69.8158 67.445 69.932C66.5104 70.1747 65.4302 69.9577 64.7612 70.8258C64.4944 71.1747 64.779 71.6349 65.2124 71.5336L67.7722 70.9363C68.2424 70.8281 68.1088 70.0152 67.6221 70.0899C65.2731 70.4468 62.9635 70.9994 60.7118 71.7544C60.2658 71.9051 60.3602 72.6593 60.8618 72.6015C64.1648 72.2062 67.3487 71.1417 70.2207 69.4622L69.7542 68.7318C66.9601 70.7059 63.6847 71.9303 60.2769 72.249C59.7231 72.2999 59.7549 73.1661 60.3116 73.1152Z" fill="#748763"/>
<path d="M69.596 68.5502L67.8752 69.3393C67.7672 69.3897 67.6826 69.4397 67.6232 69.5489C67.5719 69.6436 67.5546 69.7832 67.5935 69.8853C67.6676 70.0851 67.9188 70.2685 68.1404 70.1672L69.861 69.3781C69.969 69.3277 70.0541 69.2777 70.1135 69.1685C70.1643 69.0738 70.1821 68.9348 70.1433 68.832C70.0686 68.6328 69.8179 68.4489 69.596 68.5502Z" fill="#748763"/>
<path d="M56.9623 75.1719C56.9773 72.2309 57.0698 69.2751 56.8964 66.3383L56.0291 66.3732C56.2293 67.8195 56.3886 69.2704 56.4995 70.7264C56.6102 72.1819 56.7429 73.6081 56.449 75.0193L57.2942 75.2166C57.8756 72.244 57.761 69.1781 56.9599 66.2549C56.8136 65.7171 55.9844 65.9818 56.1334 66.5193C56.8935 69.2877 57.002 72.201 56.449 75.0193C56.341 75.5671 57.1802 75.7651 57.2942 75.2166C57.5952 73.7732 57.4863 72.2915 57.3755 70.8329C57.2646 69.374 57.1016 67.8307 56.8935 66.3388C56.8196 65.7979 55.9918 65.805 56.0264 66.3732C56.1994 69.3129 56.1069 72.2658 56.0919 75.2069C56.0882 75.7651 56.9557 75.7305 56.9594 75.1723L56.9623 75.1719Z" fill="#748763"/>
<path d="M57.123 76.0761C58.1729 77.0436 59.6299 77.1265 60.9653 76.8448C62.4417 76.5339 63.8761 75.9095 65.194 75.1834C65.653 74.9305 65.2771 74.3066 64.8266 74.4059C62.5786 74.8917 60.2782 75.0971 57.976 75.0388L58.1261 75.8857C60.0851 75.3416 62.1355 75.1899 64.1507 75.4564L64.1169 74.622C62.3476 75.3434 60.4643 76.1186 58.5122 75.8387C57.9616 75.7592 57.761 76.6029 58.3143 76.6819C60.4441 76.9872 62.4417 76.239 64.3791 75.447C64.7355 75.3028 64.8083 74.6724 64.3455 74.6131C62.1705 74.3271 59.9753 74.4732 57.8581 75.0606C57.3655 75.1965 57.5356 75.8951 58.0082 75.9077C60.3886 75.9688 62.7599 75.7345 65.086 75.2338L64.7186 74.4564C63.5738 75.0863 62.3547 75.6005 61.0879 75.9292C59.95 76.2231 58.6262 76.2907 57.7059 75.44C57.2935 75.0601 56.7049 75.6968 57.1172 76.0766L57.123 76.0761Z" fill="#748763"/>
<path d="M56.9053 74.9804C56.7598 72.1529 56.7645 69.3189 56.9203 66.4909C56.95 65.934 56.0825 65.972 56.0525 66.5253C55.8969 69.3538 55.8922 72.1875 56.0381 75.0155C56.0662 75.5722 56.9337 75.5376 56.9053 74.9804Z" fill="#748763"/>
<path d="M37.2777 74.2744C34.3854 72.9486 31.9837 70.7492 30.1823 68.1489C28.2025 65.2879 26.9694 61.9969 26.1856 58.6256C25.7184 56.613 25.4087 54.5672 25.1725 52.5162C25.115 52.0205 25.8824 51.8924 25.94 52.3881C26.6999 58.9711 28.3535 65.9364 33.3412 70.6671C34.582 71.844 36.0017 72.8361 37.5598 73.5515C38.0129 73.7579 37.7333 74.4835 37.2752 74.2744H37.2777Z" fill="#748763"/>
<path d="M25.1363 52.486C25.164 50.7803 25.1534 49.0654 25.2798 47.3649C25.3165 46.866 26.0906 46.9471 26.054 47.4459C25.9273 49.149 25.9408 50.8616 25.9105 52.567C25.9024 53.0662 25.1285 52.9828 25.1363 52.486Z" fill="#748763"/>
<path d="M25.2323 47.4695C25.4727 45.0541 25.7156 42.639 25.9557 40.2263C26.0078 39.7291 26.7795 39.8099 26.7298 40.3073C26.4894 42.7227 26.2465 45.1377 26.0065 47.5504C25.9541 48.0476 25.1826 47.9669 25.2323 47.4695Z" fill="#748763"/>
<path d="M25.945 40.2798C26.0342 39.5286 26.1235 38.7775 26.213 38.0238C26.2367 37.8231 26.4302 37.6453 26.6406 37.6777C26.8512 37.7102 27.0124 37.8886 26.9872 38.1047C26.898 38.8559 26.8087 39.607 26.7192 40.3609C26.6955 40.5614 26.502 40.7392 26.2915 40.7068C26.0809 40.6743 25.9198 40.4959 25.945 40.2798Z" fill="#748763"/>
<path d="M25.4332 43.4665C24.935 43.4144 25.0161 42.6416 25.5143 42.6937C26.0122 42.7457 25.9311 43.5187 25.4332 43.4665Z" fill="#748763"/>
<path d="M25.3626 44.1155C24.5417 42.8889 23.9796 41.507 23.7441 40.0473C23.487 38.4445 23.7629 36.8352 23.6235 35.2293L24.3956 35.2058C24.4306 37.7071 24.8593 40.2107 25.7918 42.5377L25.0532 42.7626C24.9059 41.6559 24.7345 40.5544 24.5366 39.4555C24.3543 38.4338 24.1425 37.4193 23.729 36.4617L24.4675 36.2369C24.9103 37.9839 25.2354 39.7578 25.4442 41.5481C25.5017 42.0438 24.7551 42.1715 24.6767 41.6762C24.3408 39.5574 24.0048 37.4386 23.6687 35.32L24.4147 35.3979C23.6852 37.848 24.0738 40.535 25.4059 42.7083C25.6664 43.1341 24.955 43.4503 24.6968 43.0274C23.2507 40.6728 22.9021 37.7531 23.6904 35.1137C23.8031 34.7349 24.3802 34.8318 24.4362 35.1918C24.7721 37.3106 25.1083 39.4293 25.4442 41.5481L24.6767 41.6762C24.4681 39.8859 24.1428 38.112 23.7 36.365C23.5913 35.9343 24.2663 35.7418 24.4385 36.1402C24.8598 37.1219 25.0948 38.1648 25.2851 39.2108C25.492 40.3472 25.6696 41.4883 25.8232 42.6348C25.8806 43.0575 25.2544 43.2812 25.0847 42.8596C24.0962 40.3966 23.6593 37.7725 23.624 35.1252C23.6176 34.6894 24.3581 34.6679 24.3961 35.1017C24.5301 36.634 24.2745 38.1753 24.4845 39.7052C24.6766 41.1058 25.1848 42.4534 25.9696 43.6268C26.2445 44.0411 25.6424 44.5328 25.3651 44.1158L25.3626 44.1155Z" fill="#748763"/>
<path d="M26.2901 43.0559C27.131 42.2532 27.654 41.1957 28.109 40.1416C28.6228 38.9503 29.054 37.7244 29.4044 36.4745L30.1286 36.7586C29.2767 38.86 27.3325 40.4068 27.0105 42.7303L26.3083 42.4589C26.8455 41.567 27.3799 40.6748 27.9167 39.7854L28.5444 40.2444C28.1911 40.8014 27.8378 41.3583 27.4846 41.9152C27.1596 42.428 26.7578 42.9486 26.6698 43.5646L25.9678 43.2932C26.0856 43.1648 26.1012 43.065 26.0158 42.9102C25.7695 42.4729 26.4809 42.1565 26.725 42.5911C26.934 42.9619 26.884 43.4385 26.595 43.7547C26.3563 44.0162 25.8363 43.8993 25.893 43.4833C25.9882 42.8005 26.3578 42.2374 26.7203 41.666C27.1175 41.0381 27.5145 40.4128 27.9142 39.7853C28.1832 39.3602 28.7976 39.8204 28.5419 40.2442C28.0047 41.1361 27.4701 42.0282 26.9333 42.9176C26.7312 43.2533 26.1823 43.0135 26.2313 42.6462C26.3933 41.4755 26.9033 40.4192 27.5631 39.4516C28.2229 38.484 28.952 37.5783 29.3992 36.474C29.5896 36.0016 30.2565 36.2849 30.1234 36.758C29.7521 38.084 29.2923 39.3824 28.7348 40.6421C28.2455 41.7499 27.6592 42.8138 26.7746 43.6588C26.4121 44.0064 25.9251 43.4007 26.2849 43.0554L26.2901 43.0559Z" fill="#748763"/>
<path d="M31.0889 40.4635C30.4328 41.916 29.2897 43.0153 28.2623 44.2024C27.7341 44.8113 27.2284 45.4538 26.8756 46.18C26.4731 47.0079 26.2574 47.8942 26.2111 48.8088L25.5091 48.5374C26.3686 47.3328 27.2679 46.1455 28.0569 44.8919C28.8459 43.6383 29.4891 42.3329 30.0435 40.9767L30.7193 41.3495C29.9253 42.6025 29.1287 43.8527 28.3345 45.1059C27.5876 46.2831 26.7612 47.4443 26.2939 48.7653L25.6181 48.3926C26.8756 46.852 27.9738 45.188 28.8819 43.4207C29.108 42.9807 29.8356 43.2574 29.606 43.7048C28.6654 45.5337 27.5452 47.2579 26.2458 48.8514C25.9702 49.19 25.4184 48.903 25.57 48.4788C26.0474 47.1352 26.8819 45.9462 27.6414 44.7495C28.46 43.4625 29.2762 42.1727 30.0948 40.8857C30.3324 40.5121 30.9357 40.8538 30.7706 41.2585C30.2057 42.6396 29.5382 43.979 28.75 45.2483C27.962 46.5177 27.0205 47.7579 26.1366 48.9964C25.9039 49.3237 25.4162 49.0981 25.4346 48.725C25.5273 46.9219 26.2855 45.3396 27.4333 43.9725C28.459 42.7513 29.6988 41.6516 30.3652 40.1743C30.5692 39.7216 31.2965 40.0007 31.0894 40.4583L31.0889 40.4635Z" fill="#748763"/>
<path d="M24.7561 47.5057C23.3936 45.1493 22.3759 42.6155 21.7137 39.9756L22.4858 39.9521C22.5245 41.6465 22.7643 43.2656 23.4641 44.826C23.7854 45.5419 24.1813 46.2214 24.6525 46.8514C25.1239 47.4817 25.6962 48.0441 25.7581 48.8477C25.7892 49.2467 25.3491 49.4378 25.0709 49.156C23.7716 47.8377 22.8677 46.1831 22.4326 44.3874C22.3141 43.9009 23.0837 43.7756 23.2 44.2592C23.6041 45.9293 24.4678 47.4442 25.6751 48.667L24.9879 48.9755C24.9284 48.2009 24.2163 47.6029 23.7972 46.9965C23.3354 46.3256 22.9386 45.6071 22.6261 44.8556C21.9572 43.2489 21.7492 41.6019 21.7111 39.8763C21.6999 39.4115 22.3836 39.4595 22.4832 39.8528C23.129 42.4259 24.1379 44.8938 25.4675 47.1893C25.7197 47.6221 25.0056 47.9381 24.7585 47.5086L24.7561 47.5057Z" fill="#748763"/>
<path d="M24.9075 54.4703C24.3991 53.7947 23.8931 53.122 23.3849 52.4464C23.0849 52.0477 23.667 51.572 23.9893 51.9574L25.4943 53.7504L24.8898 54.2394C24.1342 53.1628 23.3786 52.0837 22.6202 51.0067C21.8618 49.9299 21.1161 48.9559 20.4654 47.8721L21.2038 47.6472C21.9576 50.4843 23.5634 53.0822 25.7675 55.0265L25.154 55.4025C25.0175 54.9377 24.6325 54.5797 24.3138 54.2339C23.9486 53.8362 23.6036 53.4199 23.2839 52.9853C22.6557 52.1357 22.1178 51.2198 21.673 50.2618C21.4624 49.8073 22.1716 49.4883 22.3822 49.9427C22.8484 50.9447 23.4146 51.8894 24.0923 52.7651C24.7172 53.5727 25.6306 54.2673 25.9239 55.2747C26.0183 55.5945 25.554 55.8664 25.3106 55.6507C22.9443 53.5618 21.249 50.8217 20.4393 47.773C20.3154 47.3122 20.9712 47.2035 21.1777 47.5481C21.8151 48.6098 22.5898 49.605 23.2999 50.6195C24.0307 51.6622 24.764 52.7052 25.4946 53.7479C25.7806 54.1555 25.2147 54.6248 24.8902 54.2367L23.385 52.4437L23.9895 51.9549C24.4979 52.6305 25.0037 53.3032 25.5121 53.9788C25.8121 54.3775 25.21 54.8693 24.9077 54.4678L24.9075 54.4703Z" fill="#748763"/>
<path d="M25.764 54.3385C27.6905 51.7167 28.512 48.513 29.302 45.4103L30.0261 45.6945C29.7946 46.4334 29.3399 47.0629 28.8691 47.67C28.3984 48.2771 27.9205 48.9278 27.5516 49.6342C26.8166 51.0445 26.4041 52.5901 26.3264 54.1759L25.5759 53.9934C26.4751 51.9621 27.4017 49.944 28.3508 47.9362L29.0264 48.309C28.3187 49.5841 27.611 50.8592 26.9007 52.1342C26.7978 52.3187 26.5124 52.328 26.357 52.218C26.1676 52.0835 26.173 51.8574 26.2731 51.6752C26.9808 50.4001 27.6885 49.125 28.399 47.85C28.6111 47.4687 29.2625 47.8257 29.0747 48.2229C28.1256 50.2307 27.2013 52.2516 26.2998 54.28C26.119 54.6856 25.5291 54.538 25.5493 54.0973C25.6269 52.488 26.0421 50.8932 26.7722 49.4536C27.1275 48.7537 27.5538 48.0977 28.0336 47.4784C28.5133 46.8592 29.0517 46.2046 29.2988 45.4152C29.4516 44.9285 30.1433 45.2248 30.023 45.6993C29.2152 48.8731 28.3576 52.1224 26.3885 54.8023C26.0929 55.2063 25.4629 54.7472 25.7608 54.3433L25.764 54.3385Z" fill="#748763"/>
<path d="M26.2548 60.052C22.4779 59.149 19.5 56.3009 18.4435 52.5701C18.3239 52.1436 19.015 51.9476 19.182 52.3452C20.4841 55.4507 23.7183 57 26.2545 58.9373C26.5973 59.1999 26.2987 59.7833 25.881 59.612C24.2573 58.9499 22.7992 57.9769 21.551 56.7446L22.1554 56.2557C22.865 57.1008 23.8313 57.7124 24.9115 57.9608L24.6397 58.6615C22.7379 56.9703 20.8386 55.2794 18.9367 53.5879C18.567 53.2576 19.0218 52.628 19.3964 52.9616C21.2983 54.6528 23.1976 56.3439 25.0994 58.0351C25.3499 58.2592 25.2455 58.8318 24.8276 58.7361C23.5388 58.4372 22.3993 57.7606 21.5456 56.7468C21.2162 56.3553 21.8025 55.914 22.15 56.2577C23.2964 57.3908 24.6641 58.2813 26.1576 58.8906L25.7841 59.5653C23.1297 57.5374 19.8248 55.9157 18.4622 52.6658L19.2006 52.441C20.1522 55.804 22.9179 58.4634 26.3231 59.2779C26.5292 59.3279 26.691 59.4753 26.6697 59.7049C26.6498 59.893 26.4454 60.1006 26.242 60.0507L26.2548 60.052Z" fill="#748763"/>
<path d="M27.8384 62.6869C28.407 59.058 28.7031 55.3907 28.7233 51.7179L29.4253 51.9893C28.1195 54.116 27.4188 56.5666 27.3685 59.0591C27.3579 59.558 26.5841 59.4744 26.5943 58.9778C26.6463 56.3451 27.4198 53.772 28.7981 51.5278C29.0212 51.1655 29.4998 51.4527 29.5001 51.7992C29.48 55.472 29.1839 59.1393 28.6153 62.7682C28.5375 63.2599 27.763 63.1816 27.8411 62.6869H27.8384Z" fill="#748763"/>
<path d="M26.9594 59.803C27.4733 57.6897 27.9869 55.5792 28.4983 53.4656L29.2226 53.7497C28.6225 54.9424 28.1812 56.2141 27.9469 57.5284C27.7317 58.7326 27.6799 59.9981 28.1272 61.1545C28.3079 61.6212 27.5983 61.9431 27.418 61.4738C26.934 60.2198 26.9325 58.8651 27.1535 57.5547C27.3941 56.1318 27.8493 54.7521 28.496 53.4627C28.7238 53.0073 29.3386 53.2644 29.2202 53.7468C28.7063 55.8601 28.1925 57.9707 27.6813 60.084C27.631 60.2898 27.3537 60.3706 27.1754 60.3048C26.9572 60.2222 26.9044 60.0028 26.9545 59.7998L26.9594 59.803Z" fill="#748763"/>
<path d="M28.1163 61.1087L28.3596 61.4259L27.6724 61.7344C27.4839 60.0245 27.6032 58.3153 28.0105 56.6467C28.0605 56.4436 28.3382 56.3581 28.5164 56.4261C28.7344 56.5114 28.7875 56.7253 28.7372 56.9311C28.3658 58.4576 28.2692 60.0494 28.442 61.6095C28.4817 61.9781 28.0053 62.2408 27.7548 61.9175L27.5115 61.6006C27.2062 61.2039 27.8108 60.7126 28.116 61.1114L28.1163 61.1087Z" fill="#748763"/>
<path d="M27.139 63.3119C24.0894 62.6385 21.3184 61.0256 19.2443 58.6885L19.9025 58.2835C20.4668 59.6187 22.0293 59.9697 23.2726 60.3784C24.6925 60.8446 26.0395 61.5091 27.2859 62.3347C27.6614 62.5847 27.3197 63.156 26.9126 63.0094C24.2677 62.0584 21.7845 60.6864 19.5712 58.9545L20.0309 58.3283C20.8339 59.0791 21.7362 59.7045 22.7303 60.1759L22.3569 60.8507L21.1668 60.1581L21.7802 59.7819L21.8897 60.3304C21.9596 60.6841 21.5476 60.8806 21.2763 60.7061L21.1687 60.6374C20.7455 60.3695 21.2078 59.7433 21.6284 60.0112L21.7359 60.0797L21.1226 60.4559L21.0131 59.9076C20.9389 59.5458 21.3536 59.3727 21.6265 59.5319L22.8166 60.2239C23.1953 60.4433 22.8406 61.0886 22.4432 60.8987C21.3869 60.3976 20.4192 59.7494 19.5663 58.9518C19.2123 58.6203 19.6211 58.0067 20.026 58.3251C22.1883 60.0201 24.6025 61.3538 27.1897 62.2828L26.8162 62.9577C25.4845 62.0734 24.046 61.4359 22.526 60.9543C21.2004 60.5343 19.7667 59.9752 19.1856 58.6019C19.0122 58.1904 19.5497 57.8663 19.8438 58.1966C21.7684 60.3672 24.3771 61.911 27.2152 62.5359C27.6997 62.6437 27.6237 63.4173 27.1342 63.3085L27.139 63.3119Z" fill="#748763"/>
<path d="M19.8242 58.3819C20.7681 59.7543 22.1709 60.732 23.7834 61.153C23.9866 61.2057 24.0728 61.4778 24.0043 61.6579C23.9192 61.8731 23.7043 61.9313 23.4986 61.8786C21.7741 61.4301 20.2291 60.3414 19.2195 58.8738C19.0995 58.6996 19.1058 58.4657 19.2768 58.3273C19.4308 58.2029 19.7039 58.2105 19.8239 58.3846L19.8242 58.3819Z" fill="#748763"/>
<path d="M30.2716 67.145C30.7149 63.4434 29.3293 59.7147 30.2209 56.0418C30.3355 55.5719 31.0845 55.619 30.9951 56.1227C30.6289 58.2201 30.3912 60.3364 30.2935 62.4615C30.2445 63.5246 30.2294 64.5881 30.2482 65.6526C30.2502 65.7077 30.2818 66.0026 30.2573 66.0133L29.993 65.9467C30.0011 65.8691 29.9989 65.7906 29.9942 65.7124C29.9893 65.459 29.974 65.2074 29.9639 64.9564C29.9403 64.4094 29.9195 63.8629 29.8959 63.316L30.6679 63.2926C30.6558 64.4527 30.6461 65.6162 30.6338 66.7762L29.8596 66.6956C29.9175 63.3837 29.9755 60.0712 30.0334 56.7592C30.0414 56.26 30.8155 56.3436 30.8076 56.8402C30.7497 60.1525 30.6918 63.4644 30.6338 66.7762C30.6255 67.2785 29.8547 67.1899 29.8596 66.6956C29.8717 65.5354 29.8816 64.3721 29.8939 63.2119C29.8974 62.7798 30.6466 62.7514 30.6659 63.1882C30.6945 63.8606 30.7203 64.5353 30.7489 65.2079C30.7685 65.6914 30.9085 66.3964 30.3597 66.654C30.1237 66.7647 29.8463 66.7227 29.6651 66.5346C29.4841 66.3465 29.4861 66.0781 29.4811 65.8276C29.467 65.1906 29.4636 64.5521 29.4733 63.9123C29.5129 61.2729 29.7682 58.6406 30.2209 56.0418L30.9951 56.1227C30.104 59.7902 31.4891 63.5246 31.0458 67.2258C30.9859 67.7222 30.2117 67.6416 30.2716 67.145Z" fill="#748763"/>
<path d="M30.5097 67.7378C30.0117 67.6855 30.0928 66.9127 30.5908 66.9649C31.0889 67.0168 31.0078 67.79 30.5097 67.7378Z" fill="#748763"/>
<path d="M29.8128 68.1625C26.6487 67.6594 23.6487 66.3377 21.1572 64.3245C20.7676 64.01 21.2002 63.4174 21.6169 63.6978C23.9706 65.2855 26.637 66.3794 29.4314 66.8983L29.2485 67.6478C27.342 66.8697 25.3748 66.2501 23.3649 65.8109L23.548 65.0614L25.8036 65.7427L25.3589 66.3498C24.9101 65.6808 23.8922 65.8581 23.2213 65.5897C22.5501 65.3219 22.1103 64.6404 21.422 64.5113L21.605 63.7618C23.2929 64.5089 24.9809 65.2532 26.6689 65.9998L26.3843 66.7228C25.0324 66.0321 23.6804 65.341 22.3284 64.6503C21.8877 64.4245 22.1648 63.6978 22.613 63.927C23.965 64.6181 25.3169 65.3093 26.6689 65.9998C27.1046 66.2225 26.8505 66.9304 26.3843 66.7228C24.6965 65.9762 23.0083 65.2317 21.3204 64.4846C20.9388 64.3172 21.0504 63.6516 21.5034 63.7356C21.918 63.8127 22.2633 64.0026 22.597 64.2537C22.9307 64.5047 23.2231 64.7749 23.6141 64.9041C24.436 65.1753 25.4153 65.0433 25.9637 65.8584C26.1824 66.1861 25.901 66.5814 25.5191 66.4657L23.2633 65.7842C22.8485 65.6601 23.0154 64.9405 23.4464 65.0352C25.5275 65.4898 27.5619 66.1166 29.5334 66.922C29.9235 67.0825 29.7958 67.7517 29.3503 67.6711C26.4176 67.1273 23.6302 65.9919 21.1572 64.3245L21.6169 63.6978C24.0029 65.6247 26.8632 66.9085 29.8939 67.3897C30.3866 67.4671 30.3082 68.2404 29.8128 68.1625Z" fill="#748763"/>
<path d="M21.7686 63.5448L23.2626 64.3492C23.3563 64.4006 23.4295 64.4501 23.4762 64.5514C23.5166 64.6391 23.5242 64.7647 23.4835 64.8542C23.4052 65.0283 23.1704 65.1785 22.9778 65.075L21.4838 64.2699C21.3901 64.2186 21.3169 64.1692 21.2702 64.0679C21.2298 63.9806 21.2221 63.8546 21.2628 63.765C21.3411 63.591 21.576 63.4412 21.7686 63.5448Z" fill="#748763"/>
<path d="M32.6909 70.1953C32.8472 67.5628 32.9349 64.913 33.259 62.2956L34.0332 62.3762C33.7708 63.659 33.5442 64.9481 33.3612 66.244C33.1783 67.5403 32.9773 68.8083 33.1588 70.0878L32.3913 70.2163C32.0426 67.5231 32.3218 64.786 33.2072 62.2171C33.3691 61.7444 34.0958 62.0285 33.9315 62.5008C33.0917 64.9344 32.8267 67.5347 33.1588 70.0878C33.2241 70.5844 32.4618 70.7132 32.3913 70.2163C32.2051 68.9072 32.388 67.588 32.5712 66.2892C32.7545 64.9905 32.9897 63.6189 33.2616 62.2956C33.3588 61.8163 34.0993 61.8698 34.0358 62.3767C33.7112 64.9966 33.6239 67.6439 33.4676 70.2764C33.4387 70.7762 32.6645 70.6956 32.6936 70.1956L32.6909 70.1953Z" fill="#748763"/>
<path d="M32.4954 70.9951C31.5005 71.8 30.1916 71.7908 29.013 71.4616C27.7101 71.0991 26.4625 70.4579 25.3255 69.7323C24.9293 69.4799 25.3012 68.9432 25.6989 69.0575C27.6825 69.6221 29.7287 69.9377 31.7918 70.0179L31.6088 70.7669C29.8871 70.1677 28.0614 69.9143 26.2432 70.0366L26.3214 69.2921C27.863 70.0393 29.5034 70.8411 31.2659 70.7024C31.7632 70.6633 31.8941 71.4296 31.3943 71.4687C29.4713 71.619 27.7274 70.8349 26.0393 70.0151C25.7289 69.8658 25.6998 69.2973 26.1175 69.2708C28.08 69.1401 30.0359 69.3967 31.896 70.0445C32.329 70.1938 32.1365 70.8094 31.7129 70.7934C29.5798 70.7108 27.4714 70.3655 25.4192 69.7837L25.7926 69.1092C26.7806 69.7388 27.8415 70.269 28.9563 70.6352C29.9575 70.9642 31.1381 71.1006 32.0107 70.3921C32.4013 70.0762 32.8912 70.6796 32.5006 70.9955L32.4954 70.9951Z" fill="#748763"/>
<path d="M32.753 70.0271C33.0464 67.5052 33.2056 64.9694 33.2293 62.4303C33.2348 61.9303 34.0087 62.014 34.0035 62.5109C33.9798 65.0505 33.8206 67.5865 33.5272 70.1083C33.47 70.6047 32.6957 70.5236 32.753 70.0271Z" fill="#748763"/>
<path d="M57.5638 88.1017C55.5378 88.0807 53.9045 86.4241 53.9166 84.4012L54.0406 63.5449L58.0765 63.5864L57.933 87.7392C57.9317 87.9417 57.7666 88.1041 57.5638 88.1017Z" fill="#DEB364"/>
<path d="M29.022 62.3361C29.022 57.1816 33.2077 53.0029 38.3711 53.0029H53.9103V68.7641H29.022V62.3361Z" fill="#F5D494"/>
<path d="M52.5742 21.1902H58.7374V62.874C58.7374 66.2718 55.9781 69.0266 52.5742 69.0266V21.1902Z" fill="#F5D494"/>
<path d="M52.5742 15.2991H64.3642C64.6606 15.2991 64.9005 15.5388 64.9005 15.8346C64.9005 18.7925 62.4987 21.1903 59.5358 21.1903H52.5742V15.2991Z" fill="#F5D494"/>
<path d="M61.3789 15.2991H64.4814C64.7127 15.2991 64.9008 15.4866 64.9008 15.718V17.4387C64.9008 19.3805 63.324 20.9546 61.3789 20.9546V15.2991Z" fill="#FFE6C8"/>
<path d="M53.3818 89.1801C51.3552 89.1591 49.7223 87.5025 49.7344 85.4796L49.8477 66.4348L53.8833 66.4765L53.7506 88.8176C53.7492 89.0201 53.5842 89.1825 53.3818 89.1801Z" fill="#F5D494"/>
<path d="M53.3294 12.4823C53.7163 12.4884 54.0253 12.8067 54.0193 13.1934L53.9772 15.8511L52.5747 15.829L52.6168 13.1713C52.6228 12.7846 52.9418 12.4762 53.3294 12.4823Z" fill="#F5D494"/>
<path d="M55.7439 12.4823C56.1283 12.4883 56.4348 12.8041 56.4287 13.1877L56.3867 15.851L54.9956 15.8291L55.0377 13.1658C55.0437 12.7822 55.3602 12.4762 55.7439 12.4823Z" fill="#F5D494"/>
<path d="M37.1558 68.7911H33.8643C34.0952 67.8485 34.8344 65.9636 35.9432 65.9636C37.0518 65.9636 37.2137 67.8485 37.1558 68.7911Z" fill="#5F2E23"/>
<path d="M52.5483 37.4246L52.5566 33.6797C53.4914 33.9449 55.3613 34.7906 55.3586 36.0521C55.3557 37.3134 53.4835 37.4926 52.5483 37.4246Z" fill="#5F2E23"/>
<path d="M58.7931 29.9468L58.7813 24.7249C57.4607 25.0946 54.821 26.274 54.8247 28.033C54.8289 29.792 57.472 30.0417 58.7931 29.9468Z" fill="#5F2E23"/>
<path d="M40.261 53.0029L43.5527 53.0071C43.3205 53.9494 42.5793 55.8336 41.4705 55.8323C40.3617 55.8308 40.2023 53.9454 40.261 53.0029Z" fill="#5F2E23"/>
<path d="M58.7751 56.5715L58.7452 63.1459C57.8645 62.68 56.105 61.1947 56.1153 58.98C56.125 56.7654 57.8924 56.4516 58.7751 56.5715Z" fill="#5F2E23"/>
<path d="M58.7629 41.7284L58.7403 46.667C57.3642 46.3133 54.6142 45.19 54.6216 43.5265C54.6292 41.8629 57.3852 41.6345 58.7629 41.7284Z" fill="#5F2E23"/>
<path d="M51.0243 68.791H47.9521C48.1678 66.9061 48.8576 63.1355 49.8925 63.1355C50.9273 63.1355 51.0782 66.9061 51.0243 68.791Z" fill="#5F2E23"/>
<path d="M49.7651 73.026L49.7944 70.9121C50.5994 71.0732 52.2068 71.5734 52.1969 72.2855C52.1871 72.9977 50.5716 73.0761 49.7651 73.026Z" fill="#5F2E23"/>
<path d="M53.8444 73.5194L53.8391 76.164C53.2914 75.9767 52.1964 75.3809 52.1982 74.49C52.1999 73.5991 53.2964 73.4717 53.8444 73.5194Z" fill="#5F2E23"/>
<path d="M49.2934 16.1749C50.2091 17.0237 50.5322 17.9769 51.1421 18.3625C51.5404 18.6144 52.1921 18.6349 52.5811 18.6208C52.7749 18.6137 52.9278 18.4688 52.9657 18.2747L53.2574 16.7705C53.3041 16.5291 53.1615 16.2863 52.9273 16.217C51.625 15.8315 47.779 14.7712 49.2934 16.1749Z" fill="#F5D494"/>
<path d="M53.3445 14.1208C53.8916 14.1208 54.3351 13.6461 54.3351 13.0604C54.3351 12.4748 53.8916 12 53.3445 12C52.7976 12 52.354 12.4748 52.354 13.0604C52.354 13.6461 52.7976 14.1208 53.3445 14.1208Z" fill="#5F2E23"/>
<path d="M55.7659 14.1208C56.313 14.1208 56.7564 13.6461 56.7564 13.0604C56.7564 12.4748 56.313 12 55.7659 12C55.2188 12 54.7754 12.4748 54.7754 13.0604C54.7754 13.6461 55.2188 14.1208 55.7659 14.1208Z" fill="#5F2E23"/>
<path d="M42.1187 58.658C42.7351 56.867 44.3566 55.9481 45.0903 55.7125C46.0808 55.4094 46.1908 56.5372 46.5211 58.658C46.8513 60.7787 45.0903 61.3682 44.54 61.3682C43.9897 61.3682 41.3484 60.8968 42.1187 58.658Z" fill="#5F2E23"/>
<path d="M37.9419 64.4534C37.4213 63.5914 37.5395 62.6558 37.6637 62.2956C37.8373 61.8143 38.3122 62.1686 39.2418 62.7883C40.1713 63.408 39.8826 64.2812 39.7201 64.4893C39.5576 64.697 38.5928 65.5305 37.9419 64.4534Z" fill="#5F2E23"/>
<path d="M35.7296 57.5752C36.5554 56.9251 37.7778 57.0623 38.2858 57.2121C38.9678 57.4218 38.7525 58.0108 38.4231 59.1633C38.0935 60.3155 36.8687 59.9669 36.5319 59.7685C36.1953 59.5702 34.6972 58.3876 35.7296 57.5752Z" fill="#5F2E23"/>
<path d="M52.9372 39.5437C53.5674 39.0478 54.4999 39.1525 54.8875 39.2668C55.4078 39.4269 55.2431 39.8762 54.9921 40.7552C54.7406 41.6342 53.8063 41.3685 53.5496 41.217C53.2925 41.0655 52.1498 40.1636 52.9372 39.5437Z" fill="#5F2E23"/>
<path d="M52.9372 23.7554C53.5674 23.2595 54.4999 23.3641 54.8875 23.4785C55.4078 23.6384 55.2431 24.0879 54.9921 24.9668C54.7406 25.8458 53.8063 25.5801 53.5496 25.4287C53.2925 25.2773 52.1498 24.3753 52.9372 23.7554Z" fill="#5F2E23"/>
<path d="M31.5189 64.5546C31.1936 63.1196 31.9773 61.5863 32.4099 60.9992C33.0003 60.2156 33.5681 60.8153 34.7257 61.868C35.8831 62.9208 34.8552 64.3437 34.4543 64.6797C34.0534 65.0158 31.9257 66.349 31.5189 64.5546Z" fill="#5F2E23"/>
<path d="M44.302 67.2681C43.0594 67.9098 41.4947 67.4113 40.8676 67.082C40.0278 66.6288 40.4564 65.9083 41.1748 64.4755C41.8933 63.0434 43.4087 63.8204 43.7996 64.1696C44.1906 64.5185 45.8551 66.4655 44.302 67.2681Z" fill="#5F2E23"/>
<path d="M52.1871 56.1673C51.6541 57.5296 50.1737 58.2667 49.5003 58.465C48.5907 58.7212 48.4657 57.8777 48.1168 56.2953C47.7677 54.7129 49.3837 54.2195 49.8926 54.2035C50.4013 54.1874 52.8531 54.4645 52.1871 56.1673Z" fill="#5F2E23"/>
<path d="M47.6553 63.1321C47.4168 63.9157 46.7444 64.3352 46.438 64.4467C46.0242 64.5914 45.9645 64.1041 45.8001 63.1904C45.6357 62.2767 46.3707 61.9986 46.6027 61.9912C46.8345 61.9841 47.9533 62.1531 47.6553 63.1321Z" fill="#5F2E23"/>
<path d="M52.771 60.5422C52.2503 61.3347 50.8357 61.777 50.1934 61.8997C49.3262 62.0579 49.216 61.5731 48.9006 60.6641C48.5852 59.7549 50.1263 59.4511 50.6101 59.4362C51.0938 59.4209 53.4217 59.5519 52.771 60.5422Z" fill="#5F2E23"/>
<path d="M32.4668 67.5101C32.043 68.2325 30.8868 68.6329 30.3618 68.7425C29.6527 68.8848 29.5613 68.4411 29.3008 67.6095C29.0403 66.7779 30.3004 66.5048 30.696 66.4927C31.0919 66.4802 32.9966 66.6066 32.4668 67.5101Z" fill="#5F2E23"/>
<path d="M38.8926 54.7404C38.3653 55.2801 36.9471 55.5933 36.304 55.6823C35.4356 55.7982 35.3297 55.472 35.0226 54.8621C34.7152 54.2522 36.2587 54.0315 36.7424 54.0162C37.2262 54.0011 39.5521 54.0656 38.8926 54.7404Z" fill="#5F2E23"/>
<path d="M54.2265 65.0815C53.9372 66.1418 53.1154 66.7074 52.7402 66.8577C52.2339 67.0513 52.1588 66.3915 51.9543 65.153C51.7497 63.914 52.6492 63.5397 52.933 63.5308C53.2173 63.5219 54.5882 63.7558 54.2265 65.0815Z" fill="#5F2E23"/>
<path d="M55.2415 64.2082C53.9584 63.0589 53.6367 61.8021 53.6362 61.3178C53.6475 60.6704 54.5839 61.1399 56.377 61.9594C58.1696 62.7784 58.1902 63.9525 58.0482 64.2339C57.9065 64.5149 56.8454 65.6447 55.2415 64.2082Z" fill="#5F2E23"/>
<path d="M53.7171 58.1195C54.0748 57.7062 54.6824 57.6506 54.9413 57.6747C55.2901 57.7111 55.227 58.0312 55.1484 58.648C55.0698 59.2646 54.4459 59.2138 54.2669 59.1474C54.0882 59.0816 53.2706 58.6362 53.7171 58.1195Z" fill="#5F2E23"/>
<path d="M53.4066 56.5877C52.9004 55.7179 53.1154 54.2763 53.2864 53.6642C53.5235 52.8413 54.0236 53.0093 55.0094 53.2311C55.9949 53.4529 55.5942 54.9272 55.3937 55.3467C55.1931 55.7664 54.0389 57.6751 53.4066 56.5877Z" fill="#5F2E23"/>
<path d="M31.6079 59.8769C31.0695 59.0742 31.2011 57.808 31.3342 57.2754C31.5201 56.5599 32.0145 56.7397 32.983 56.9973C33.9515 57.255 33.6417 58.5385 33.4698 58.8982C33.2979 59.2586 32.2804 60.8811 31.6079 59.8769Z" fill="#5F2E23"/>
<path d="M56.9333 52.8853C57.686 53.0065 58.2076 53.6897 58.374 54.0162C58.5934 54.4582 58.1708 54.6187 57.3892 54.9792C56.6071 55.34 56.1981 54.5589 56.1411 54.2971C56.0844 54.0353 55.9919 52.7337 56.9333 52.8853Z" fill="#5F2E23"/>
<path d="M55.1374 50.3284C56.5743 50.1658 57.3976 50.476 57.6299 50.6515C57.9308 50.8911 57.0586 51.1439 55.4263 51.6559C53.7939 52.1681 53.2189 51.7516 53.1824 51.5857C53.1464 51.4198 53.3409 50.5314 55.1374 50.3284Z" fill="#5F2E23"/>
<path d="M55.5036 31.5031C56.7742 32.2405 57.2888 32.9952 57.3871 33.2805C57.5085 33.6607 56.6559 33.3401 55.0394 32.7725C53.4234 32.2049 53.1696 31.5132 53.2276 31.3545C53.2855 31.1958 53.9157 30.5815 55.5036 31.5031Z" fill="#5F2E23"/>
<path d="M53.1695 47.8459C53.1774 47.0517 53.615 46.5106 53.8328 46.3393C54.1288 46.1141 54.2891 46.5634 54.6313 47.3953C54.9739 48.2272 54.4536 48.6481 54.2709 48.7043C54.088 48.7606 53.1593 48.8385 53.1695 47.8459Z" fill="#5F2E23"/>
<path d="M40.8821 59.537C41.3473 60.1825 41.2822 61.0621 41.1917 61.421C41.0642 61.9026 40.6552 61.7056 39.8578 61.3864C39.0602 61.0677 39.2697 60.2011 39.3979 59.9697C39.5259 59.7386 40.3006 58.7307 40.8821 59.537Z" fill="#5F2E23"/>
<path d="M56.3795 36.3964C56.7366 35.9829 57.3443 35.9275 57.6037 35.9515C57.9519 35.9878 57.8888 36.308 57.8103 36.9247C57.7317 37.5415 57.1077 37.4905 56.9288 37.4245C56.7501 37.3585 55.9325 36.9131 56.3795 36.3964Z" fill="#5F2E23"/>
<mask id="mask1_550_3168" style="mask-type:luminance" maskUnits="userSpaceOnUse" x="36" y="36" width="15" height="18">
<path d="M50.8891 36.6086H36.0991V53.4459H50.8891V36.6086Z" fill="white"/>
</mask>
<g mask="url(#mask1_550_3168)">
<path d="M43.0273 40.8848H47.0882C47.2004 40.8848 47.2913 40.976 47.2913 41.0883C47.2913 43.3376 45.4732 45.1608 43.2304 45.1608H43.0273V40.8848Z" fill="#FFE6C8"/>
<path d="M41.4287 40.8847V36.8122C41.4287 36.6997 41.5196 36.6086 41.6318 36.6086C43.8744 36.6086 45.6925 38.4319 45.6925 40.6812V40.8847H41.4287Z" fill="#E37A63"/>
<path d="M36.3657 45.2945C36.3657 41.5306 39.4081 38.4792 43.1611 38.4792V52.3769C39.4081 52.3769 36.3657 49.3255 36.3657 45.5616V45.2945Z" fill="#E37A63"/>
<path d="M50.2617 43.7328C50.1744 43.4898 49.9073 43.3638 49.6649 43.4515C49.4226 43.5391 49.2969 43.8071 49.3844 44.0501L50.2617 43.7328ZM36.5109 43.7853C35.9272 46.2994 36.1539 48.0866 36.8139 49.4196C37.4696 50.7439 38.5212 51.5519 39.4379 52.1647L39.9552 51.3865C39.073 50.7967 38.1927 50.1013 37.6493 49.0035C37.1101 47.9146 36.8706 46.3609 37.4193 43.9974L36.5109 43.7853ZM39.4379 52.1647C40.6638 52.9843 42.4107 53.446 43.6939 53.446V52.5106C42.5787 52.5106 41.0151 52.095 39.9552 51.3865L39.4379 52.1647ZM43.6939 53.446C44.9489 53.446 46.1181 53.2262 47.2144 52.7375L46.8356 51.8827C45.8745 52.3111 44.8372 52.5106 43.6939 52.5106V53.446ZM47.2144 52.7375C49.784 51.5922 51.8049 48.0241 50.2617 43.7328L49.3844 44.0501C50.7726 47.9102 48.9295 50.9493 46.8356 51.8827L47.2144 52.7375Z" fill="#E37A63"/>
<path d="M42.3613 51.4637C42.3613 48.942 44.3996 46.8979 46.9139 46.8979H47.4247V48.1452C47.4247 50.4821 45.5356 52.3768 43.2053 52.3768C42.7392 52.3768 42.3613 51.9977 42.3613 51.5304V51.4637Z" fill="#E37A63"/>
</g>
<mask id="mask2_550_3168" style="mask-type:luminance" maskUnits="userSpaceOnUse" x="46" y="55" width="39" height="39">
<path d="M76.3449 55.5181L46.478 64.305L55.1332 93.6245L85.0001 84.8376L76.3449 55.5181Z" fill="white"/>
</mask>
<g mask="url(#mask2_550_3168)">
<path d="M53.1425 86.8809C50.8275 79.0389 55.2909 70.8168 63.1113 68.5161L78.818 63.8953C81.1383 71.7572 76.6574 79.9988 68.8134 82.2945L53.1425 86.8809Z" fill="#3A3435"/>
<path d="M66.7188 58.9785C66.6426 58.7197 66.79 58.4484 67.0479 58.3725L68.0426 58.0798C72.6564 56.7224 77.5039 59.3725 78.8699 63.999L69.0533 66.8867L66.7188 58.9785Z" fill="#3A3435"/>
<path d="M60.2798 84.1443L60.3825 84.4934C61.5209 88.3485 59.3266 92.3913 55.4814 93.5225C55.2893 93.5789 55.0872 93.4684 55.0302 93.2756L52.9697 86.2947L60.2798 84.1443Z" fill="#3A3435"/>
<path d="M72.0001 78.0862L72.4219 79.5141C73.5525 83.3455 71.3719 87.3635 67.551 88.4886C67.3602 88.5447 67.1592 88.4349 67.1026 88.2436L64.7358 80.2248L72.0001 78.0862Z" fill="#262021"/>
<path d="M57.541 85.6325C55.7655 79.6182 59.1888 73.3121 65.1872 71.5472L76.2564 68.2908C78.0319 74.3051 74.6086 80.6112 68.6108 82.3761L57.541 85.6325Z" fill="#FFE6C8"/>
<path d="M71.4479 73.7021L71.8689 75.1301C73.0003 78.962 70.8195 82.9799 66.9986 84.1046C66.8078 84.1607 66.6069 84.051 66.5502 83.8596L64.1831 75.8409L71.4479 73.7021Z" fill="#3A3435"/>
</g>
</g>
<path d="M39.6906 82.7725H33.1914V84.4593C33.1914 88.4004 35.6162 91.5951 38.6073 91.5951C39.2056 91.5951 39.6906 90.9563 39.6906 90.1681V82.7725Z" fill="#EACBA6"/>
<path d="M19.3452 78.7878H25.8442V81.1278C25.8442 86.5944 23.4195 91.0258 20.4284 91.0258C19.8301 91.0258 19.3452 90.1396 19.3452 89.0462V78.7878Z" fill="#EACBA6"/>
<path fill-rule="evenodd" clip-rule="evenodd" d="M47.2682 75.2347C47.2682 71.087 44.283 67.7241 40.6005 67.7241H19.0635V76.4365C19.0635 79.3382 20.5249 81.8558 22.6641 83.1064V91.4943C22.6641 92.1785 23.1566 92.7333 23.7642 92.7333C26.8024 92.7333 29.2653 89.9594 29.2653 86.5375V83.9464H40.6671V86.5375C40.6671 89.9594 43.1301 92.7333 46.1682 92.7333C46.7758 92.7333 47.2682 92.1785 47.2682 91.4943V83.9464V81.6934V75.2347Z" fill="#FFE6C8"/>
<path d="M31.6659 64.495C31.6659 56.1995 25.6954 49.4746 18.3303 49.4746H11.9292V64.495C11.9292 72.7904 17.8998 79.5156 25.2648 79.5156H31.6659V64.495Z" fill="#E37A63"/>
<path fill-rule="evenodd" clip-rule="evenodd" d="M20.3638 54.7317C21.6342 54.7317 22.6642 55.8918 22.6642 57.3227C22.6642 58.7535 21.6342 59.9136 20.3638 59.9136H19.797V65.3961C19.797 65.7694 19.5283 66.0722 19.1969 66.0722H14.4739C10.4538 66.0722 7.19482 62.4015 7.19482 57.8734C7.19482 56.9679 7.8466 56.2337 8.65061 56.2337H17.4258C17.9264 55.3317 18.8162 54.7317 19.8303 54.7317H20.3638Z" fill="#FFE6C8"/>
<path d="M46.1408 54.5028C45.8233 54.3916 45.4769 54.5577 45.3669 54.8738C45.2569 55.1896 45.0495 55.8474 45.3669 55.9586L46.1408 54.5028ZM45.7922 72.3242C47.6262 71.7607 49.5255 70.379 50.5778 69.0859L48.9239 67.949C48.0094 69.0728 46.7158 69.8215 45.1304 70.3085L45.7922 72.3242ZM50.5778 69.0859C51.6068 67.8212 52.3433 66.4628 52.7479 64.9575L50.5778 64.6491C50.2228 65.9687 49.8613 66.797 48.9239 67.949L50.5778 69.0859ZM52.7479 64.9575C53.6967 61.4289 51.7458 56.4664 46.1408 54.5028L45.3669 55.9586C50.4087 57.7249 51.3509 61.7736 50.5778 64.6491L52.7479 64.9575Z" fill="#FFE6C8"/>
<path d="M46.2684 53.6804H45.735C44.2621 53.6804 43.0679 55.0254 43.0679 56.6846H46.2684V53.6804Z" fill="#E37A63"/>
</svg>
