<svg width="192" height="192" viewBox="0 0 192 192" fill="none" xmlns="http://www.w3.org/2000/svg">
<rect width="192" height="192" fill="#4E722C"/>
<path d="M48.9656 79.875H77.6956C77.6956 79.875 76.8158 99.4782 77.6956 117.188C80.4599 172.827 90 192 90 192H39.1875C39.1875 192 56.2592 157.258 52.3125 112.312C50.8289 95.4166 48.9656 79.875 48.9656 79.875Z" fill="#F5D494"/>
<path d="M49.4252 10.5854L43.6699 12.6407C43.6699 12.6407 45.2179 15.3952 45.7243 17.3697C46.5343 20.528 46.0388 25.8716 46.0388 25.8716L54.9735 22.6809C54.9735 22.6809 51.7776 18.7392 50.588 15.6328C49.8926 13.8172 49.4252 10.5854 49.4252 10.5854Z" fill="#F5D494"/>
<path d="M85.127 13.0887L79.3174 11.1922C79.3174 11.1922 78.8561 14.3181 78.0482 16.1896C76.7561 19.1831 73.0942 23.1061 73.0942 23.1061L82.1131 26.0502C82.1131 26.0502 81.9977 20.977 82.9577 17.7922C83.5189 15.9307 85.127 13.0887 85.127 13.0887Z" fill="#F5D494"/>
<path d="M92.1414 48.9414C86.9205 75.8707 78.402 77.2447 64.113 79.7178C49.824 77.4782 39.9316 72.8481 36.3593 48.9414C36.3593 33.31 47.4192 19.0308 64.113 19.0308C80.8068 19.0308 92.1414 32.4541 92.1414 48.9414Z" fill="#F5D494"/>
<path d="M43.7785 46.4684C43.5367 46.0381 42.7145 45.113 41.3603 44.8548C40.0062 44.5966 38.8323 46.1935 37.1835 46.1937" stroke="black" stroke-linecap="round"/>
<path d="M84.9967 47.011C85.2385 46.5807 86.0607 45.6556 87.4148 45.3974C88.769 45.1392 89.9429 46.7361 91.5916 46.7363" stroke="black" stroke-linecap="round"/>
<path d="M83.3481 70.6498C83.3481 76.3206 80.1076 80.5939 76.2036 84.1144C72.7941 87.189 69.0654 89.885 64.1129 89.885C59.1604 89.885 55.4316 87.189 52.0222 84.1144C48.1182 80.5939 44.8777 76.3206 44.8777 70.6498C44.8777 60.0265 53.4896 51.4146 64.1129 51.4146C74.7362 51.4146 83.3481 60.0265 83.3481 70.6498Z" fill="#F5D494"/>
<circle cx="46.2514" cy="9.92141" r="4.67141" fill="#5F2E23"/>
<circle cx="82.5236" cy="9.92141" r="4.67141" fill="#5F2E23"/>
<path d="M30.3411 26.686C37.4857 28.3347 41.3327 33.2809 41.6075 33.8305L38.8596 37.9523C36.6613 38.7767 31.4403 40.0957 28.1428 38.7767C24.021 37.128 21.4565 34.38 19.6245 32.1817C17.3346 29.4338 15.5026 28.3347 15.7773 27.7851C16.3267 26.6859 24.6255 25.367 30.3411 26.686Z" fill="#F5D494"/>
<path d="M96.0711 21.8974C89.5239 25.1984 85.4078 31.3054 85.2716 31.9045L88.2943 37.6751C90.6256 37.9529 98.3203 36.4432 101.209 34.3776C104.821 31.7957 106.531 27.2571 107.787 24.6861C109.358 21.4724 110.876 19.9691 110.478 19.5006C109.683 18.5636 101.309 19.2567 96.0711 21.8974Z" fill="#F5D494"/>
<circle cx="41.5803" cy="47.5675" r="2.74789" fill="black"/>
<circle cx="87.195" cy="47.5675" r="2.74789" fill="black"/>
<path d="M29.4544 65.0476C29.045 64.3295 28.1183 64.0623 27.3845 64.4508C26.6508 64.8393 26.3879 65.7364 26.7974 66.4545L29.4544 65.0476ZM50.4176 77.6467C50.5693 77.6467 50.6689 77.6728 50.6152 77.6618C50.5994 77.6586 50.56 77.6496 50.4909 77.6314C50.3549 77.5956 50.1546 77.5374 49.892 77.4547C49.3696 77.2903 48.6425 77.0425 47.7669 76.7182C46.0158 76.0695 43.702 75.126 41.2824 73.9526C38.8582 72.7769 36.3593 71.3856 34.2205 69.8467C32.0622 68.2938 30.3772 66.6659 29.4544 65.0476L26.7974 66.4545C28.0304 68.6169 30.1184 70.5511 32.4305 72.2147C34.7622 73.8923 37.4311 75.3719 39.9521 76.5945C42.4777 77.8194 44.8866 78.8016 46.7155 79.4791C47.63 79.8178 48.4072 80.0833 48.9886 80.2663C49.2779 80.3573 49.5293 80.4313 49.7305 80.4843C49.83 80.5105 49.9305 80.5352 50.0243 80.5544C50.0801 80.5658 50.2589 80.6033 50.4574 80.6033L50.4176 77.6467Z" fill="#5F2E23"/>
<path d="M94.9655 87.2202C95.5688 87.788 95.5976 88.7373 95.0298 89.3405C94.462 89.9438 93.5127 89.9726 92.9095 89.4048L94.9655 87.2202ZM92.9095 89.4048C88.333 85.0976 83.5793 82.9423 79.7414 81.7006C77.814 81.077 76.1257 80.6858 74.7609 80.3579C74.0916 80.1971 73.466 80.0435 72.9499 79.8836C72.4768 79.737 71.8984 79.5296 71.4541 79.184L73.2959 76.816C73.2735 76.7986 73.3865 76.8782 73.8377 77.018C74.246 77.1445 74.7775 77.2765 75.4617 77.4409C76.804 77.7634 78.6078 78.1808 80.6649 78.8463C84.7957 80.1827 89.9795 82.5274 94.9655 87.2202L92.9095 89.4048Z" fill="#5F2E23"/>
<path d="M81.6994 69.8253C81.6994 71.3751 81.3244 72.9565 80.7067 74.4982C77.9403 81.4023 71.5278 87.5921 64.0907 87.685C64.0075 87.6861 63.9233 87.6866 63.8381 87.6866C63.27 87.6866 62.7477 87.6634 62.262 87.6184C55.885 87.0273 50.7727 81.6643 47.7576 76.0141C46.6867 74.0072 45.9769 71.8884 45.9769 69.8253C45.9769 59.9608 53.9736 59.1086 63.8381 59.1086C73.7027 59.1086 81.6994 59.9608 81.6994 69.8253Z" fill="#FFE6C8"/>
<path d="M34.9325 61.0324C34.8089 60.2141 34.042 59.6361 33.2194 59.7414C32.3969 59.8468 31.8304 60.5956 31.954 61.4139L34.9325 61.0324ZM44.719 75.7173C43.322 74.6652 41.0973 72.6198 39.102 69.9888C37.1004 67.3495 35.4163 64.235 34.9325 61.0324L31.954 61.4139C32.5417 65.3052 34.5412 68.8943 36.7089 71.7526C38.8829 74.6192 41.3131 76.8653 42.9301 78.0831L44.719 75.7173Z" fill="#5F2E23"/>
<path d="M34.8098 72.1466C34.2851 75.7318 31.1446 82.164 22.7801 79.2113C23.754 76.6365 27.5234 71.6188 34.8098 72.1466Z" fill="#002A12"/>
<path d="M29.5525 66.3917C26.0174 67.1865 18.8869 66.5593 18.6464 57.6922C21.3992 57.6788 27.4343 59.4 29.5525 66.3917Z" fill="#002A12"/>
<path d="M44.2167 76.8217C42.7845 73.4934 42.0878 66.3694 50.7588 64.5C51.279 67.2032 50.6987 73.4521 44.2167 76.8217Z" fill="#002A12"/>
<path d="M33.7167 63.6968C32.2845 60.3685 31.5878 53.2445 40.2588 51.375C40.779 54.0783 40.1987 60.3272 33.7167 63.6968Z" fill="#002A12"/>
<path d="M40.6402 86.3838C37.5965 84.4178 33.049 78.8901 39.2081 72.5067C41.1461 74.4617 44.1457 79.9742 40.6402 86.3838Z" fill="#002A12"/>
<path d="M33.864 63.8532C30.6028 62.2742 25.4133 57.3442 30.7455 50.2554C32.908 51.9588 36.5593 57.063 33.864 63.8532Z" fill="#002A12"/>
<path d="M15.9853 67.2917C17.9977 64.2786 23.5947 59.8164 29.8827 66.0729C27.8982 67.9806 22.3402 70.8952 15.9853 67.2917Z" fill="#002A12"/>
<path d="M10.6605 129.916L10.3538 127.222C10.8919 127.267 11.3117 127.29 11.6131 127.29C12.4203 127.29 12.9424 127.093 13.1792 126.7C13.4159 126.308 13.5343 125.528 13.5343 124.361V100.053H16.3759V123.872C16.3759 127.98 14.9174 130.034 12.0006 130.034C11.5808 130.034 11.1341 129.994 10.6605 129.916ZM24.0106 123.081V112.56L20.5394 100.053H23.4616L25.3668 109.093H25.4314L27.4495 100.053H30.4041L26.8683 112.56V123.081H24.0106ZM34.616 123.081V100.053H37.4576V120.321H42.9146V123.081H34.616ZM46.9651 123.081V100.053H49.8066V120.321H55.2637V123.081H46.9651ZM57.5866 123.081L61.7521 99.9183H64.7067L68.8398 123.081H66.0951L65.304 117.981H61.2032L60.3313 123.081H57.5866ZM61.6229 115.22H64.8035L63.2536 105.574H63.1728L61.6229 115.22ZM73.0194 123.081V100.053H75.3282L80.2202 114.26H80.2847V100.053H82.9001V123.081H80.5915L75.6995 108.739H75.635V123.081H73.0194ZM88.6622 123.081V100.053H91.7946C96.8426 100.053 99.3665 103.88 99.3665 111.534C99.3665 115.36 98.7368 118.244 97.4774 120.186C96.229 122.116 94.4692 123.081 92.198 123.081H88.6622ZM91.5036 120.321H91.9232C93.6029 120.321 94.7866 119.653 95.4751 118.317C96.1754 116.971 96.5251 114.754 96.5251 111.668C96.5251 108.447 96.1967 106.169 95.5398 104.834C94.8836 103.487 93.6992 102.814 91.9878 102.814H91.5036V120.321ZM103.675 122.492V119.428C104.525 120.281 105.349 120.708 106.146 120.708C106.737 120.708 107.243 120.489 107.663 120.051C108.083 119.614 108.293 119.086 108.293 118.469C108.293 117.941 108.174 117.302 107.938 116.55C107.7 115.798 107.06 114.412 106.016 112.392C104.983 110.361 104.31 108.823 103.998 107.78C103.686 106.736 103.53 105.816 103.53 105.019C103.53 103.47 103.949 102.208 104.789 101.231C105.639 100.244 106.721 99.75 108.034 99.75C108.777 99.75 109.568 99.952 110.407 100.356V103.15C109.633 102.668 108.971 102.427 108.422 102.427C106.991 102.427 106.274 103.162 106.274 104.632C106.274 105.17 106.393 105.821 106.63 106.584C106.877 107.336 107.517 108.717 108.551 110.725C109.595 112.723 110.268 114.249 110.569 115.304C110.881 116.348 111.037 117.274 111.037 118.082C111.037 119.653 110.612 120.932 109.762 121.92C108.922 122.896 107.83 123.384 106.484 123.384C105.516 123.384 104.579 123.087 103.675 122.492ZM128.939 123.081V100.053H131.942C133.976 100.053 135.591 100.62 136.785 101.753C137.99 102.887 138.593 104.447 138.593 106.433C138.593 108.464 138.039 110.063 136.93 111.23C135.821 112.398 134.304 112.981 132.377 112.981H131.78V123.081H128.939ZM131.78 110.22H132.28C134.595 110.22 135.752 108.902 135.752 106.265C135.752 103.897 134.427 102.746 131.78 102.814V110.22ZM140.658 123.081L144.823 99.9183H147.778L151.911 123.081H149.166L148.375 117.981H144.274L143.403 123.081H140.658ZM144.694 115.22H147.875L146.325 105.574H146.244L144.694 115.22ZM156.09 123.081V100.053H158.464C160.359 100.053 161.8 100.637 162.791 101.804C163.792 102.96 164.293 104.503 164.293 106.433C164.293 108.621 163.528 110.265 161.999 111.365C163.184 112.24 164.19 114.569 165.019 118.351L166.036 123.081H163.066L162.21 119.109C161.596 116.325 161.063 114.558 160.611 113.806C160.16 113.043 159.6 112.701 158.932 112.779V123.081H156.09ZM158.932 110.018H159.061C160.654 110.018 161.451 108.857 161.451 106.534C161.451 104.065 160.611 102.825 158.932 102.814V110.018ZM170.183 123.081V100.053H173.025V123.081H170.183ZM177.061 123.081L173.122 111.399L176.238 100.053H179.144L175.673 111.012L179.999 123.081H177.061ZM9.375 186.094L39.3615 131.317H18.2658C18.2658 134.744 17.3768 138.031 15.5986 141.177C14.8442 142.469 13.9821 143.536 13.0122 144.379H10.5874V129.21H54.2335V131.317L24.3278 186.094H46.1509C46.1509 182.555 47.013 179.268 48.7373 176.234C49.4917 174.942 50.3808 173.875 51.4045 173.032H53.8293V188.201H9.375V186.094ZM90.6241 189.465C85.3432 189.465 80.7095 188.285 76.7221 185.925C72.7886 183.51 69.7441 179.998 67.5887 175.391C65.4334 170.785 64.3557 165.223 64.3557 158.706C64.3557 152.188 65.4334 146.626 67.5887 142.02C69.7441 137.413 72.7886 133.929 76.7221 131.57C80.7095 129.154 85.3432 127.946 90.6241 127.946C95.905 127.946 100.512 129.154 104.445 131.57C108.433 133.929 111.504 137.413 113.66 142.02C115.815 146.626 116.893 152.188 116.893 158.706C116.893 165.223 115.815 170.785 113.66 175.391C111.504 179.998 108.433 183.51 104.445 185.925C100.512 188.285 95.905 189.465 90.6241 189.465ZM90.6241 187.779C92.7256 187.779 94.6654 186.852 96.4436 184.998C98.2754 183.145 99.7846 180.055 100.97 175.729C102.155 171.403 102.748 165.728 102.748 158.706C102.748 151.683 102.155 146.008 100.97 141.682C99.7846 137.356 98.2754 134.267 96.4436 132.413C94.6654 130.559 92.7256 129.632 90.6241 129.632C88.5226 129.632 86.5556 130.559 84.7238 132.413C82.9456 134.267 81.4638 137.356 80.2784 141.682C79.093 146.008 78.5002 151.683 78.5002 158.706C78.5002 165.728 79.093 171.403 80.2784 175.729C81.4638 180.055 82.9456 183.145 84.7238 184.998C86.5556 186.852 88.5226 187.779 90.6241 187.779ZM155.304 189.465C150.023 189.465 145.39 188.285 141.402 185.925C137.469 183.51 134.424 179.998 132.269 175.391C130.114 170.785 129.036 165.223 129.036 158.706C129.036 152.188 130.114 146.626 132.269 142.02C134.424 137.413 137.469 133.929 141.402 131.57C145.39 129.154 150.023 127.946 155.304 127.946C160.585 127.946 165.192 129.154 169.125 131.57C173.113 133.929 176.184 137.413 178.34 142.02C180.495 146.626 181.573 152.188 181.573 158.706C181.573 165.223 180.495 170.785 178.34 175.391C176.184 179.998 173.113 183.51 169.125 185.925C165.192 188.285 160.585 189.465 155.304 189.465ZM155.304 187.779C157.406 187.779 159.345 186.852 161.124 184.998C162.955 183.145 164.465 180.055 165.65 175.729C166.835 171.403 167.428 165.728 167.428 158.706C167.428 151.683 166.835 146.008 165.65 141.682C164.465 137.356 162.955 134.267 161.124 132.413C159.345 130.559 157.406 129.632 155.304 129.632C153.203 129.632 151.236 130.559 149.404 132.413C147.626 134.267 146.144 137.356 144.958 141.682C143.773 146.008 143.18 151.683 143.18 158.706C143.18 165.728 143.773 171.403 144.958 175.729C146.144 180.055 147.626 183.145 149.404 184.998C151.236 186.852 153.203 187.779 155.304 187.779Z" fill="#002A12"/>
</svg>
