<svg width="512" height="512" viewBox="0 0 512 512" fill="none" xmlns="http://www.w3.org/2000/svg">
<rect width="512" height="512" fill="#4E722C"/>
<path d="M130.575 213H207.188C207.188 213 204.842 265.275 207.188 312.5C214.56 460.871 240 512 240 512H104.5C104.5 512 150.025 419.355 139.5 299.5C135.544 254.444 130.575 213 130.575 213Z" fill="#F5D494"/>
<path d="M131.801 28.2277L116.453 33.7085C116.453 33.7085 120.581 41.0538 121.932 46.3192C124.092 54.7413 122.77 68.9909 122.77 68.9909L146.596 60.4823C146.596 60.4823 138.074 49.9711 134.901 41.6875C133.047 36.8458 131.801 28.2277 131.801 28.2277Z" fill="#F5D494"/>
<path d="M227.005 34.9032L211.513 29.8459C211.513 29.8459 210.283 38.1815 208.129 43.1722C204.683 51.155 194.918 61.6163 194.918 61.6163L218.968 69.4673C218.968 69.4673 218.66 55.9386 221.221 47.4459C222.717 42.4819 227.005 34.9032 227.005 34.9032Z" fill="#F5D494"/>
<path d="M245.711 130.51C231.788 202.322 209.072 205.986 170.968 212.581C132.864 206.608 106.484 194.262 96.9582 130.51C96.9582 88.8266 126.451 50.7487 170.968 50.7487C215.485 50.7487 245.711 86.5443 245.711 130.51Z" fill="#F5D494"/>
<path d="M116.743 123.916C116.098 122.768 113.905 120.301 110.294 119.613C106.683 118.924 103.553 123.183 99.1561 123.183" stroke="black" stroke-linecap="round"/>
<path d="M226.658 125.363C227.303 124.215 229.495 121.748 233.106 121.06C236.717 120.371 239.848 124.63 244.244 124.63" stroke="black" stroke-linecap="round"/>
<path d="M222.262 188.399C222.262 203.522 213.62 214.917 203.21 224.305C194.118 232.504 184.174 239.693 170.968 239.693C157.761 239.693 147.818 232.504 138.726 224.305C128.315 214.917 119.674 203.522 119.674 188.399C119.674 160.071 142.639 137.105 170.968 137.105C199.297 137.105 222.262 160.071 222.262 188.399Z" fill="#F5D494"/>
<circle cx="123.337" cy="26.4571" r="12.4571" fill="#5F2E23"/>
<circle cx="220.063" cy="26.4571" r="12.4571" fill="#5F2E23"/>
<path d="M80.9097 71.1626C99.9617 75.5592 110.221 88.7491 110.953 90.2146L103.626 101.206C97.7635 103.405 83.8408 106.922 75.0476 103.405C64.056 99.0079 57.2172 91.6799 52.3321 85.8179C46.2257 78.4902 41.3404 75.5593 42.0729 74.0936C43.5379 71.1624 65.6681 67.6453 80.9097 71.1626Z" fill="#F5D494"/>
<path d="M256.19 58.3932C238.73 67.1957 227.754 83.481 227.391 85.0788L235.451 100.467C241.668 101.208 262.187 97.1818 269.892 91.6737C279.522 84.7886 284.083 72.6856 287.433 65.8297C291.621 57.2598 295.669 53.2509 294.609 52.0016C292.489 49.503 270.157 51.3511 256.19 58.3932Z" fill="#F5D494"/>
<circle cx="110.881" cy="126.847" r="7.3277" fill="black"/>
<circle cx="232.52" cy="126.847" r="7.3277" fill="black"/>
<path d="M77.6594 173.929C76.8406 172.493 74.9871 171.959 73.5196 172.736C72.0522 173.513 71.5264 175.307 72.3453 176.743L77.6594 173.929ZM134.46 208.043C134.748 208.043 134.921 208.092 134.777 208.062C134.709 208.048 134.583 208.019 134.389 207.968C134.005 207.867 133.453 207.706 132.744 207.483C131.332 207.038 129.376 206.372 127.028 205.502C122.332 203.763 116.131 201.234 109.643 198.087C103.146 194.937 96.4257 191.197 90.6581 187.047C84.8513 182.869 80.2235 178.426 77.6594 173.929L72.3453 176.743C75.5299 182.328 80.9636 187.384 87.078 191.783C93.2316 196.211 100.292 200.127 106.982 203.371C113.682 206.621 120.074 209.227 124.925 211.024C127.351 211.922 129.407 212.624 130.937 213.106C131.7 213.346 132.353 213.538 132.868 213.674C133.123 213.741 133.371 213.802 133.595 213.848C133.743 213.878 134.127 213.957 134.54 213.957L134.46 208.043Z" fill="#5F2E23"/>
<path d="M252.556 233.315C253.763 234.451 253.82 236.35 252.685 237.556C251.549 238.763 249.65 238.82 248.444 237.685L252.556 233.315ZM248.444 237.685C236.104 226.07 223.284 220.26 212.952 216.917C207.769 215.24 203.228 214.188 199.596 213.315C197.806 212.885 196.169 212.483 194.829 212.068C193.575 211.679 192.187 211.169 191.158 210.368L194.842 205.632C194.839 205.63 194.871 205.655 194.953 205.701C195.034 205.746 195.149 205.804 195.305 205.872C195.623 206.01 196.048 206.164 196.605 206.337C197.729 206.685 199.178 207.044 200.998 207.481C204.585 208.343 209.356 209.447 214.798 211.208C225.716 214.74 239.396 220.93 252.556 233.315L248.444 237.685Z" fill="#5F2E23"/>
<path d="M217.865 186.201C217.865 196.039 212.199 206.353 205.623 214.584C200.98 220.394 194.969 224.946 188.583 228.759C183.268 231.932 178.628 233.831 170.235 233.831C161.327 233.831 156.647 231.692 151.149 228.161C145.761 224.699 140.672 220.716 136.509 215.849C129.304 207.426 122.605 196.55 122.605 186.201C122.605 159.895 143.93 157.623 170.235 157.623C196.54 157.623 217.865 159.895 217.865 186.201Z" fill="#FFE6C8"/>
<path d="M92.1606 162.88C91.9134 161.244 90.3794 160.088 88.7344 160.298C87.0894 160.509 85.9562 162.007 86.2034 163.643L92.1606 162.88ZM118.654 202.701C114.856 199.84 108.855 194.319 103.474 187.225C98.0814 180.114 93.4852 171.65 92.1606 162.88L86.2034 163.643C87.7361 173.79 92.9629 183.203 98.6881 190.752C104.426 198.318 110.838 204.241 115.076 207.433L118.654 202.701Z" fill="#5F2E23"/>
<path d="M92.8262 192.391C91.427 201.951 83.0522 219.104 60.747 211.23C63.344 204.364 73.3958 190.983 92.8262 192.391Z" fill="#002A12"/>
<path d="M78.8067 177.045C69.3797 179.164 50.3652 177.491 49.7237 153.846C57.0645 153.81 73.1583 158.4 78.8067 177.045Z" fill="#002A12"/>
<path d="M117.911 204.858C114.092 195.982 112.234 176.985 135.357 172C136.744 179.209 135.197 195.872 117.911 204.858Z" fill="#002A12"/>
<path d="M89.9112 169.858C86.0919 160.983 84.234 141.985 107.357 137C108.744 144.209 107.197 160.873 89.9112 169.858Z" fill="#002A12"/>
<path d="M108.374 230.357C100.257 225.114 88.1306 210.373 104.555 193.351C109.723 198.565 117.722 213.265 108.374 230.357Z" fill="#002A12"/>
<path d="M90.3041 170.275C81.6074 166.065 67.7688 152.918 81.9879 134.014C87.7547 138.557 97.4915 152.168 90.3041 170.275Z" fill="#002A12"/>
<path d="M42.6274 179.445C47.994 171.41 62.9191 159.51 79.6873 176.194C74.3951 181.282 59.5739 189.054 42.6274 179.445Z" fill="#002A12"/>
<path d="M28.428 346.442L27.61 339.26C29.0451 339.379 30.1645 339.439 30.9682 339.439C33.1209 339.439 34.5129 338.915 35.1444 337.868C35.7759 336.82 36.0916 334.741 36.0916 331.628V266.808H43.669V330.326C43.669 341.279 39.7799 346.756 32.0015 346.756C30.8821 346.756 29.6909 346.651 28.428 346.442ZM64.0283 328.217V300.161L54.7718 266.808H62.5644L67.6448 290.914H67.817L73.1987 266.808H81.0776L71.6488 300.161V328.217H64.0283ZM92.3094 328.217V266.808H99.8868V320.855H114.439V328.217H92.3094ZM125.24 328.217V266.808H132.818V320.855H147.37V328.217H125.24ZM153.564 328.217L164.672 266.449H172.551L183.573 328.217H176.254L174.144 314.615H163.208L160.884 328.217H153.564ZM164.328 307.253H172.809L168.676 281.532H168.461L164.328 307.253ZM194.718 328.217V266.808H200.875L213.92 304.695H214.093V266.808H221.067V328.217H214.911L201.865 289.971H201.693V328.217H194.718ZM236.433 328.217V266.808H244.786C258.247 266.808 264.977 277.013 264.977 297.423C264.977 307.627 263.298 315.318 259.94 320.496C256.611 325.643 251.918 328.217 245.861 328.217H236.433ZM244.01 320.855H245.128C249.608 320.855 252.764 319.074 254.6 315.513C256.468 311.922 257.4 306.012 257.4 297.782C257.4 289.193 256.524 283.118 254.773 279.557C253.023 275.965 249.864 274.17 245.301 274.17H244.01V320.855ZM276.467 326.646V318.476C278.734 320.75 280.931 321.887 283.055 321.887C284.632 321.887 285.982 321.304 287.101 320.137C288.22 318.969 288.78 317.563 288.78 315.917C288.78 314.51 288.465 312.805 287.834 310.8C287.201 308.795 285.495 305.099 282.71 299.712C279.955 294.295 278.16 290.195 277.328 287.412C276.495 284.629 276.079 282.175 276.079 280.05C276.079 275.921 277.198 272.554 279.438 269.95C281.705 267.317 284.589 266 288.091 266C290.072 266 292.182 266.539 294.42 267.616V275.068C292.354 273.781 290.589 273.137 289.125 273.137C285.308 273.137 283.398 275.098 283.398 279.018C283.398 280.454 283.715 282.19 284.346 284.225C285.007 286.23 286.713 289.911 289.47 295.268C292.253 300.595 294.047 304.665 294.851 307.478C295.684 310.261 296.099 312.73 296.099 314.885C296.099 319.074 294.966 322.486 292.699 325.119C290.46 327.723 287.546 329.025 283.958 329.025C281.376 329.025 278.878 328.232 276.467 326.646ZM343.836 328.217V266.808H351.844C357.268 266.808 361.575 268.319 364.759 271.342C367.974 274.364 369.581 278.524 369.581 283.821C369.581 289.238 368.104 293.502 365.147 296.614C362.19 299.727 358.144 301.283 353.006 301.283H351.413V328.217H343.836ZM351.413 293.921H352.748C358.92 293.921 362.004 290.405 362.004 283.372C362.004 277.058 358.473 273.99 351.413 274.17V293.921ZM375.087 328.217L386.195 266.449H394.074L405.096 328.217H397.777L395.667 314.615H384.731L382.407 328.217H375.087ZM385.85 307.253H394.332L390.2 281.532H389.985L385.85 307.253ZM416.241 328.217V266.808H422.57C427.623 266.808 431.467 268.364 434.109 271.477C436.777 274.559 438.114 278.674 438.114 283.821C438.114 289.657 436.076 294.041 431.998 296.974C435.157 299.308 437.839 305.518 440.05 315.603L442.763 328.217H434.842L432.559 317.623C430.923 310.201 429.502 305.488 428.297 303.483C427.092 301.448 425.599 300.535 423.82 300.744V328.217H416.241ZM423.82 293.383H424.163C428.411 293.383 430.535 290.285 430.535 284.09C430.535 277.507 428.297 274.2 423.82 274.17V293.383ZM453.822 328.217V266.808H461.4V328.217H453.822ZM472.163 328.217L461.658 297.064L469.968 266.808H477.718L468.461 296.031L479.998 328.217H472.163ZM25 496.251L104.964 350.179H48.7089C48.7089 359.317 46.338 368.082 41.5963 376.472C39.5846 379.917 37.2856 382.764 34.6991 385.011H28.233V344.56H144.623V350.179L64.8741 496.251H123.069C123.069 486.812 125.368 478.048 129.966 469.958C131.978 466.512 134.349 463.665 137.079 461.418H143.545V501.869H25V496.251ZM241.664 505.24C227.582 505.24 215.225 502.094 204.592 495.801C194.103 489.36 185.984 479.995 180.237 467.711C174.489 455.426 171.615 440.594 171.615 423.215C171.615 405.836 174.489 391.004 180.237 378.719C185.984 366.434 194.103 357.145 204.592 350.853C215.225 344.411 227.582 341.19 241.664 341.19C255.747 341.19 268.032 344.411 278.521 350.853C289.155 357.145 297.345 366.434 303.092 378.719C308.839 391.004 311.714 405.836 311.714 423.215C311.714 440.594 308.839 455.426 303.092 467.711C297.345 479.995 289.155 489.36 278.521 495.801C268.032 502.094 255.747 505.24 241.664 505.24ZM241.664 500.745C247.268 500.745 252.441 498.273 257.183 493.329C262.068 488.385 266.092 480.146 269.253 468.609C272.413 457.073 273.995 441.942 273.995 423.215C273.995 404.487 272.413 389.356 269.253 377.82C266.092 366.284 262.068 358.044 257.183 353.1C252.441 348.156 247.268 345.684 241.664 345.684C236.06 345.684 230.815 348.156 225.93 353.1C221.188 358.044 217.237 366.284 214.076 377.82C210.915 389.356 209.334 404.487 209.334 423.215C209.334 441.942 210.915 457.073 214.076 468.609C217.237 480.146 221.188 488.385 225.93 493.329C230.815 498.273 236.06 500.745 241.664 500.745ZM414.144 505.24C400.062 505.24 387.706 502.094 377.072 495.801C366.583 489.36 358.463 479.995 352.716 467.711C346.969 455.426 344.095 440.594 344.095 423.215C344.095 405.836 346.969 391.004 352.716 378.719C358.463 366.434 366.583 357.145 377.072 350.853C387.706 344.411 400.062 341.19 414.144 341.19C428.227 341.19 440.512 344.411 451.001 350.853C461.635 357.145 469.825 366.434 475.572 378.719C481.319 391.004 484.193 405.836 484.193 423.215C484.193 440.594 481.319 455.426 475.572 467.711C469.825 479.995 461.635 489.36 451.001 495.801C440.512 502.094 428.227 505.24 414.144 505.24ZM414.144 500.745C419.748 500.745 424.921 498.273 429.663 493.329C434.548 488.385 438.572 480.146 441.733 468.609C444.893 457.073 446.475 441.942 446.475 423.215C446.475 404.487 444.893 389.356 441.733 377.82C438.572 366.284 434.548 358.044 429.663 353.1C424.921 348.156 419.748 345.684 414.144 345.684C408.54 345.684 403.295 348.156 398.41 353.1C393.668 358.044 389.716 366.284 386.556 377.82C383.395 389.356 381.814 404.487 381.814 423.215C381.814 441.942 383.395 457.073 386.556 468.609C389.716 480.146 393.668 488.385 398.41 493.329C403.295 498.273 408.54 500.745 414.144 500.745Z" fill="#002A12"/>
</svg>
