<svg width="94" height="94" viewBox="0 0 94 94" fill="none" xmlns="http://www.w3.org/2000/svg">
<circle cx="46.9791" cy="46.9794" r="46.9791" transform="rotate(-90 46.9791 46.9794)" fill="#F99319"/>
<path d="M46.745 93.9946C28.7824 94.2939 17.7285 83.7697 17.7285 83.7697C38.7601 77.918 51.9374 78.365 76.3142 83.7697C76.3142 83.7697 64.7076 93.6952 46.745 93.9946Z" fill="#CC740B"/>
<path d="M38.2197 55.0908L59.9092 55.5122L59.4325 78.9851C59.3204 84.5068 54.7532 88.8961 49.2314 88.7888L47.5381 88.7559C42.0163 88.6486 37.6309 84.0855 37.7431 78.5638L38.2197 55.0908Z" fill="#304B17"/>
<path fill-rule="evenodd" clip-rule="evenodd" d="M65.4909 49.379C63.8076 57.4838 57.1051 63.476 49.22 63.3228C40.2115 63.1478 33.0709 55.0179 33.271 45.1641C33.4711 35.3103 40.9361 27.4641 49.9446 27.6391C54.0338 27.7186 57.7381 29.4371 60.5457 32.212C61.1457 31.7615 61.8949 31.5005 62.7029 31.5162C64.6247 31.5536 66.151 33.1417 66.112 35.0635L65.8513 47.9038C65.8405 48.4337 65.7119 48.9336 65.4909 49.379Z" fill="#456824"/>
<path fill-rule="evenodd" clip-rule="evenodd" d="M43.2095 34.697C43.9507 35.7965 45.2114 36.5154 46.6373 36.5047C48.0986 36.4937 49.3762 35.7192 50.094 34.5624C50.3794 36.448 51.959 37.9349 53.938 38.0337C55.9591 38.1345 57.7124 36.7533 58.1429 34.844C58.3452 36.6678 59.7639 38.1897 61.6653 38.4462C63.908 38.7487 65.973 37.1761 66.2776 34.9336L68.0268 22.0529C68.3314 19.8104 66.7601 17.7472 64.5174 17.4447C62.2746 17.1421 60.2096 18.7147 59.9051 20.9572L58.3127 32.6829L59.3166 12.9116C59.4314 10.6515 57.6921 8.7278 55.4318 8.61503C53.1715 8.50225 51.2462 10.2431 51.1314 12.5032L50.6402 22.1779L50.5566 9.55969C50.5416 7.29666 48.6949 5.47587 46.4319 5.49285C44.1689 5.50983 42.3465 7.35815 42.3615 9.62118L42.4512 23.1603L41.2178 12.4319C40.9593 10.1837 38.9274 8.57221 36.6794 8.83266C34.4313 9.0931 32.8185 11.1268 33.0769 13.3751L35.392 33.5124C35.6504 35.7607 37.6824 37.3722 39.9304 37.1117C41.4257 36.9385 42.64 35.9806 43.2095 34.697Z" fill="#598331"/>
<path fill-rule="evenodd" clip-rule="evenodd" d="M25.2262 42.4686L21.9535 35.6416C20.9798 33.6103 21.8515 31.2018 23.9005 30.2622C25.9496 29.3225 28.4 30.2075 29.3738 32.2388L30.8985 35.4195C32.9477 36.49 35.1292 38.5886 36.6837 41.2954C39.2681 42.1312 41.9764 44.2533 43.9848 47.2894C47.4607 52.5441 47.5238 58.547 44.1257 60.6973C40.7277 62.8476 35.1552 60.331 31.6793 55.0763C30.8184 53.7747 30.1668 52.4273 29.7253 51.1038C28.6375 49.9063 27.6133 48.409 26.7658 46.6977C26.0551 45.2625 25.5421 43.8254 25.2262 42.4686Z" fill="#648E3D"/>
<rect x="15.4004" y="67.8877" width="59.6959" height="8.00001" rx="4.00001" transform="rotate(1.13787 15.4004 67.8877)" fill="#D84F52"/>
<rect x="15.4004" y="67.8877" width="59.6959" height="8.00001" rx="4.00001" transform="rotate(1.13787 15.4004 67.8877)" fill="#D84F52"/>
<path d="M23.2227 68.1899L49.7885 68.7176C49.7885 68.7176 50.251 71.1652 50.2199 72.727C50.1889 74.2888 49.6296 76.716 49.6296 76.716L23.0638 76.1884L23.2227 68.1899Z" fill="#B9393B"/>
<rect x="21.373" y="61.9561" width="25.9767" height="18.6981" rx="9.34907" transform="rotate(1.13787 21.373 61.9561)" fill="#FCFAEE"/>
</svg>
