<svg width="136" height="135" viewBox="0 0 136 135" fill="none" xmlns="http://www.w3.org/2000/svg">
<rect x="0.75" y="0.75" width="133.791" height="132.572" rx="4.25" fill="#9CAFA2" stroke="#013D19" stroke-width="1.5"/>
<path d="M65.8818 129.661C41.1931 130.069 26 115.747 26 115.747C54.9069 107.783 73.0184 108.392 106.523 115.747C106.523 115.747 90.5705 129.254 65.8818 129.661Z" fill="#355E50" fill-opacity="0.5"/>
<path d="M53.6406 77.2393L82.2597 77.7952L81.5659 111.962C81.4537 117.484 76.8865 121.873 71.3647 121.766L62.7419 121.598C57.2201 121.491 52.8347 116.928 52.9468 111.406L53.6406 77.2393Z" fill="#304B17"/>
<path fill-rule="evenodd" clip-rule="evenodd" d="M89.625 69.701C87.4045 80.396 78.5602 88.3034 68.1554 88.1013C56.2687 87.8704 46.8468 77.143 47.1108 64.141C47.3748 51.1391 57.2249 40.7861 69.1115 41.017C74.5071 41.1218 79.3949 43.3894 83.0994 47.0507C83.8911 46.4564 84.8796 46.1122 85.9455 46.1329C88.4813 46.1821 90.4953 48.2777 90.4438 50.8135L90.0997 67.7562C90.0855 68.4547 89.9161 69.1137 89.625 69.701Z" fill="#456824"/>
<path fill-rule="evenodd" clip-rule="evenodd" d="M60.2242 50.3296C61.2023 51.7805 62.8657 52.7292 64.7473 52.7151C66.6754 52.7006 68.3611 51.6786 69.3082 50.1523C69.685 52.6402 71.7692 54.6021 74.3804 54.7323C77.0469 54.8654 79.3602 53.0432 79.9285 50.5242C80.1958 52.9304 82.0676 54.9381 84.5762 55.2765C87.5355 55.6758 90.2602 53.6007 90.6621 50.6417L92.9702 33.6457C93.3721 30.6868 91.2988 27.9644 88.3395 27.5652C85.3802 27.1659 82.6555 29.241 82.2536 32.2L80.1528 47.6691L81.4774 21.584C81.6288 18.6017 79.3338 16.0635 76.3514 15.9147C73.369 15.7659 70.8285 18.0628 70.6771 21.0451L70.029 33.8083L69.9188 17.1613C69.899 14.1753 67.4623 11.7728 64.4763 11.7952C61.4902 11.8176 59.0856 14.2564 59.1054 17.2425L59.2237 35.1063L57.5963 20.9507C57.2553 17.9841 54.5742 15.8579 51.6079 16.2015C48.6416 16.5452 46.5135 19.2286 46.8545 22.1952L49.9092 48.7663C50.2502 51.7329 52.9313 53.8592 55.8976 53.5155C57.8706 53.2869 59.4727 52.0233 60.2242 50.3296Z" fill="#598331"/>
<path fill-rule="evenodd" clip-rule="evenodd" d="M36.495 60.5834L32.1771 51.576C30.8923 48.8957 32.0425 45.7177 34.7462 44.4779C37.4499 43.238 40.6833 44.4057 41.9682 47.086L43.9801 51.283C46.6839 52.6956 49.5623 55.4647 51.6134 59.0361C55.0236 60.139 58.5974 62.939 61.2475 66.9454C65.834 73.8789 65.9172 81.7997 61.4335 84.637C56.9498 87.4743 49.597 84.1537 45.0106 77.2201C43.8747 75.5029 43.015 73.7252 42.4325 71.9791C40.9968 70.3988 39.6452 68.4229 38.5267 66.1644C37.5888 64.2705 36.9119 62.3739 36.495 60.5834Z" fill="#648E3D"/>
<rect x="23.5303" y="94.1248" width="78.7683" height="10.556" rx="5" transform="rotate(1.13787 23.5303 94.1248)" fill="#D84F52"/>
<rect x="23.5303" y="94.1248" width="78.7683" height="10.556" rx="5" transform="rotate(1.13787 23.5303 94.1248)" fill="#D84F52"/>
<path d="M33.8516 94.5232L68.905 95.2194C68.905 95.2194 69.5152 98.449 69.4743 100.51C69.4333 102.571 68.6954 105.773 68.6954 105.773L33.6419 105.077L33.8516 94.5232Z" fill="#B9393B"/>
<rect x="31.4111" y="86.2976" width="34.276" height="24.6721" rx="10" transform="rotate(1.13787 31.4111 86.2976)" fill="#FCFAEE"/>
</svg>
