<svg width="132" height="79" viewBox="0 0 132 79" fill="none" xmlns="http://www.w3.org/2000/svg">
<mask id="path-1-inside-1_280_4870" fill="white">
<path fill-rule="evenodd" clip-rule="evenodd" d="M4.99951 79.0006C2.23809 79.0006 -0.000488281 76.762 -0.000488281 74.0006L-0.000488281 51.3888C5.29349 50.3142 9.27808 45.6337 9.27808 40.0226C9.27808 34.4115 5.29349 29.731 -0.000488281 28.6564L-0.000488281 5.58886C-0.000488281 2.82744 2.23809 0.588867 4.99951 0.588867L126.756 0.588867C129.517 0.588867 131.756 2.82744 131.756 5.58887V28.4335C125.565 28.677 120.621 33.7725 120.621 40.0226C120.621 46.2727 125.565 51.3682 131.756 51.6117V51.6212V74.0006C131.756 76.762 129.517 79.0006 126.756 79.0006H4.99951Z"/>
</mask>
<path fill-rule="evenodd" clip-rule="evenodd" d="M4.99951 79.0006C2.23809 79.0006 -0.000488281 76.762 -0.000488281 74.0006L-0.000488281 51.3888C5.29349 50.3142 9.27808 45.6337 9.27808 40.0226C9.27808 34.4115 5.29349 29.731 -0.000488281 28.6564L-0.000488281 5.58886C-0.000488281 2.82744 2.23809 0.588867 4.99951 0.588867L126.756 0.588867C129.517 0.588867 131.756 2.82744 131.756 5.58887V28.4335C125.565 28.677 120.621 33.7725 120.621 40.0226C120.621 46.2727 125.565 51.3682 131.756 51.6117V51.6212V74.0006C131.756 76.762 129.517 79.0006 126.756 79.0006H4.99951Z" fill="#9CAFA2"/>
<path d="M-0.000488281 51.3888L-0.298891 49.9188L-1.50049 50.1627V51.3888H-0.000488281ZM-0.000488281 28.6564H-1.50049V29.8825L-0.298891 30.1264L-0.000488281 28.6564ZM131.756 28.4335L131.815 29.9323L133.256 29.8756V28.4335H131.756ZM131.756 51.6117H133.256V50.1696L131.815 50.1129L131.756 51.6117ZM-1.50049 74.0006C-1.50049 77.5905 1.40966 80.5006 4.99951 80.5006V77.5006C3.06651 77.5006 1.49951 75.9336 1.49951 74.0006H-1.50049ZM-1.50049 51.3888V74.0006H1.49951V51.3888H-1.50049ZM7.77808 40.0226C7.77808 44.9063 4.30979 48.9833 -0.298891 49.9188L0.297914 52.8588C6.2772 51.6451 10.7781 46.3612 10.7781 40.0226H7.77808ZM-0.298891 30.1264C4.30979 31.0619 7.77808 35.1389 7.77808 40.0226H10.7781C10.7781 33.684 6.2772 28.4001 0.297914 27.1863L-0.298891 30.1264ZM-1.50049 5.58886V28.6564H1.49951V5.58886H-1.50049ZM4.99951 -0.911133C1.40966 -0.911133 -1.50049 1.99901 -1.50049 5.58886H1.49951C1.49951 3.65587 3.06651 2.08887 4.99951 2.08887V-0.911133ZM126.756 -0.911133L4.99951 -0.911133V2.08887H126.756V-0.911133ZM133.256 5.58887C133.256 1.99902 130.345 -0.911133 126.756 -0.911133V2.08887C128.689 2.08887 130.256 3.65587 130.256 5.58887H133.256ZM133.256 28.4335V5.58887H130.256V28.4335H133.256ZM122.121 40.0226C122.121 34.5811 126.426 30.1443 131.815 29.9323L131.697 26.9346C124.705 27.2097 119.121 32.9638 119.121 40.0226H122.121ZM131.815 50.1129C126.426 49.9009 122.121 45.464 122.121 40.0226H119.121C119.121 47.0814 124.705 52.8355 131.697 53.1106L131.815 50.1129ZM133.256 51.6212V51.6117H130.256V51.6212H133.256ZM133.256 74.0006V51.6212H130.256V74.0006H133.256ZM126.756 80.5006C130.345 80.5006 133.256 77.5905 133.256 74.0006H130.256C130.256 75.9336 128.689 77.5006 126.756 77.5006V80.5006ZM4.99951 80.5006H126.756V77.5006H4.99951V80.5006Z" fill="#013D19" mask="url(#path-1-inside-1_280_4870)"/>
</svg>
