<svg width="323" height="125" viewBox="0 0 323 125" fill="none" xmlns="http://www.w3.org/2000/svg">
<path fill-rule="evenodd" clip-rule="evenodd" d="M240.985 0H20C8.95431 0 0 8.95431 0 20V105C0 116.046 8.95429 125 20 125H301.332C312.378 125 321.332 116.046 321.332 105V79.1663L321.283 79.2149L240.985 0ZM321.332 46.7365V20C321.332 8.9543 312.378 0 301.332 0H273.957L321.332 46.7365Z" fill="#355E50"/>
<path d="M259.996 11.1185L260.85 11.6241L268.14 4.43268L267.627 3.58992L267.798 3.42137L271.044 6.62383L270.873 6.79238L270.019 6.28673L266.442 9.81504L272.639 9.20826L272.126 8.02841L272.297 7.85986L274.461 9.99483L274.29 10.1634L273.037 9.60154L268.595 10.051L267.001 17.6919L267.399 18.4223L267.228 18.5909L265.634 17.0177C265.292 16.6806 265.083 16.3098 265.007 15.9053C264.946 15.5008 264.965 15.0476 265.064 14.5457L265.975 10.2757L262.729 13.4782L263.242 14.3209L263.071 14.4895L259.825 11.287L259.996 11.1185ZM268.087 19.1014L268.942 19.607L276.231 12.4155L275.719 11.5728L275.89 11.4042L277.371 12.865C278.054 13.5392 278.054 14.2134 277.371 14.8876L270.764 21.4049L271.277 22.2476L271.106 22.4162L267.917 19.2699L268.087 19.1014ZM272.927 24.437C272.699 24.2123 272.581 23.9314 272.573 23.5943C272.581 23.2572 272.699 22.9763 272.927 22.7515C273.154 22.5268 273.435 22.4144 273.769 22.4144C274.119 22.4144 274.407 22.5268 274.635 22.7515C274.863 22.9763 274.973 23.2572 274.965 23.5943C274.973 23.9314 274.863 24.2123 274.635 24.437C274.407 24.6618 274.119 24.7741 273.769 24.7741C273.435 24.7741 273.154 24.6618 272.927 24.437ZM279.083 30.2858L279.254 30.1172L280.279 30.6791L286.532 24.5101L284.493 24.1618L284.55 23.6562L288.503 23.8472L289.733 25.0607L282.158 32.5331L282.728 33.5444L282.557 33.713L279.083 30.2858ZM286.777 38.2134C286.162 37.6066 285.767 36.8949 285.593 36.0784C285.418 35.2619 285.494 34.4004 285.82 33.494C286.162 32.5875 286.766 31.7073 287.632 30.8533C288.497 29.9994 289.386 29.4076 290.297 29.0779C291.223 28.7483 292.1 28.6697 292.928 28.842C293.756 29.0143 294.477 29.4038 295.092 30.0106C295.707 30.6174 296.102 31.329 296.277 32.1456C296.451 32.9621 296.368 33.8236 296.026 34.73C295.7 35.6364 295.103 36.5166 294.238 37.3706C293.372 38.2246 292.476 38.8164 291.55 39.146C290.639 39.4756 289.769 39.5543 288.941 39.382C288.114 39.2097 287.392 38.8201 286.777 38.2134ZM287.005 37.9886C287.878 38.8501 289.625 37.9886 292.245 35.4042C294.864 32.8198 295.738 31.0968 294.864 30.2353C293.991 29.3738 292.245 30.2353 289.625 32.8198C287.005 35.4042 286.132 37.1271 287.005 37.9886ZM296.572 39.4485C296.344 39.2238 296.226 38.9429 296.219 38.6058C296.226 38.2687 296.344 37.9877 296.572 37.763C296.8 37.5383 297.081 37.4259 297.415 37.4259C297.764 37.4259 298.053 37.5383 298.28 37.763C298.508 37.9877 298.618 38.2687 298.611 38.6058C298.618 38.9429 298.508 39.2238 298.28 39.4485C298.053 39.6732 297.764 39.7856 297.415 39.7856C297.081 39.7856 296.8 39.6732 296.572 39.4485ZM292.358 43.6061C292.13 43.3813 292.012 43.1004 292.004 42.7633C292.012 42.4262 292.13 42.1453 292.358 41.9206C292.585 41.6958 292.866 41.5835 293.2 41.5835C293.55 41.5835 293.838 41.6958 294.066 41.9206C294.294 42.1453 294.404 42.4262 294.396 42.7633C294.404 43.1004 294.294 43.3813 294.066 43.6061C293.838 43.8308 293.55 43.9432 293.2 43.9432C292.866 43.9432 292.585 43.8308 292.358 43.6061ZM297.828 49.1147C297.212 48.5079 296.818 47.7962 296.643 46.9797C296.468 46.1632 296.544 45.3017 296.871 44.3953C297.212 43.4889 297.816 42.6087 298.682 41.7547C299.547 40.9007 300.436 40.3089 301.347 39.9793C302.274 39.6497 303.151 39.571 303.978 39.7433C304.806 39.9156 305.527 40.3051 306.142 40.9119C306.757 41.5187 307.152 42.2304 307.327 43.0469C307.502 43.8634 307.418 44.7249 307.076 45.6313C306.75 46.5377 306.154 47.4179 305.288 48.2719C304.422 49.1259 303.526 49.7177 302.6 50.0473C301.689 50.3769 300.819 50.4556 299.992 50.2833C299.164 50.111 298.443 49.7215 297.828 49.1147ZM298.055 48.89C298.929 49.7514 300.675 48.89 303.295 46.3055C305.915 43.7211 306.788 41.9981 305.915 41.1366C305.041 40.2752 303.295 41.1366 300.675 43.7211C298.055 46.3055 297.182 48.0285 298.055 48.89ZM305.8 56.9795C305.185 56.3727 304.79 55.661 304.615 54.8445C304.441 54.028 304.517 53.1665 304.843 52.2601C305.185 51.3537 305.788 50.4734 306.654 49.6195C307.52 48.7655 308.408 48.1737 309.319 47.8441C310.246 47.5145 311.123 47.4358 311.951 47.6081C312.778 47.7804 313.5 48.1699 314.115 48.7767C314.73 49.3835 315.125 50.0951 315.299 50.9117C315.474 51.7282 315.39 52.5897 315.049 53.4961C314.722 54.4025 314.126 55.2827 313.26 56.1367C312.395 56.9907 311.499 57.5825 310.572 57.9121C309.661 58.2417 308.792 58.3204 307.964 58.1481C307.136 57.9758 306.415 57.5863 305.8 56.9795ZM306.028 56.7547C306.901 57.6162 308.647 56.7547 311.267 54.1703C313.887 51.5859 314.76 49.8629 313.887 49.0014C313.014 48.14 311.267 49.0014 308.647 51.5859C306.028 54.1703 305.154 55.8933 306.028 56.7547Z" fill="#355E50"/>
<path d="M118.994 53.3636H120.676L124.631 63.0227H124.767L128.722 53.3636H130.403V65H129.085V56.1591H128.972L125.335 65H124.062L120.426 56.1591H120.312V65H118.994V53.3636ZM139.027 61.4318V56.2727H140.368V65H139.027V63.5227H138.936C138.731 63.9659 138.413 64.3428 137.981 64.6534C137.55 64.9602 137.004 65.1136 136.345 65.1136C135.8 65.1136 135.315 64.9943 134.89 64.7557C134.466 64.5133 134.133 64.1496 133.89 63.6648C133.648 63.1761 133.527 62.5606 133.527 61.8182V56.2727H134.868V61.7273C134.868 62.3636 135.046 62.8712 135.402 63.25C135.762 63.6288 136.22 63.8182 136.777 63.8182C137.11 63.8182 137.449 63.733 137.794 63.5625C138.142 63.392 138.434 63.1307 138.669 62.7784C138.908 62.4261 139.027 61.9773 139.027 61.4318ZM144.645 53.3636V65H143.304V53.3636H144.645ZM147.581 65V56.2727H148.922V65H147.581ZM148.262 54.8182C148.001 54.8182 147.776 54.7292 147.586 54.5511C147.401 54.3731 147.308 54.1591 147.308 53.9091C147.308 53.6591 147.401 53.4451 147.586 53.267C147.776 53.089 148.001 53 148.262 53C148.524 53 148.747 53.089 148.933 53.267C149.122 53.4451 149.217 53.6591 149.217 53.9091C149.217 54.1591 149.122 54.3731 148.933 54.5511C148.747 54.7292 148.524 54.8182 148.262 54.8182ZM155.38 68.4545C154.732 68.4545 154.176 68.3712 153.71 68.2045C153.244 68.0417 152.856 67.8258 152.545 67.5568C152.238 67.2917 151.994 67.0076 151.812 66.7045L152.88 65.9545C153.001 66.1136 153.155 66.2955 153.34 66.5C153.526 66.7083 153.78 66.8883 154.102 67.0398C154.428 67.1951 154.854 67.2727 155.38 67.2727C156.085 67.2727 156.666 67.1023 157.125 66.7614C157.583 66.4205 157.812 65.8864 157.812 65.1591V63.3864H157.698C157.6 63.5455 157.46 63.7424 157.278 63.9773C157.1 64.2083 156.842 64.4148 156.505 64.5966C156.172 64.7746 155.721 64.8636 155.153 64.8636C154.448 64.8636 153.816 64.697 153.255 64.3636C152.698 64.0303 152.257 63.5455 151.931 62.9091C151.609 62.2727 151.448 61.5 151.448 60.5909C151.448 59.697 151.606 58.9186 151.92 58.2557C152.234 57.589 152.672 57.0739 153.232 56.7102C153.793 56.3428 154.441 56.1591 155.176 56.1591C155.744 56.1591 156.195 56.2538 156.528 56.4432C156.865 56.6288 157.123 56.8409 157.301 57.0795C157.482 57.3144 157.623 57.5076 157.721 57.6591H157.857V56.2727H159.153V65.25C159.153 66 158.982 66.6098 158.642 67.0795C158.304 67.553 157.85 67.8996 157.278 68.1193C156.71 68.3428 156.077 68.4545 155.38 68.4545ZM155.335 63.6591C155.873 63.6591 156.327 63.536 156.698 63.2898C157.07 63.0436 157.352 62.6894 157.545 62.2273C157.738 61.7652 157.835 61.2121 157.835 60.5682C157.835 59.9394 157.74 59.3845 157.551 58.9034C157.361 58.4223 157.081 58.0455 156.71 57.7727C156.339 57.5 155.88 57.3636 155.335 57.3636C154.767 57.3636 154.293 57.5076 153.914 57.7955C153.539 58.0833 153.257 58.4697 153.068 58.9545C152.882 59.4394 152.789 59.9773 152.789 60.5682C152.789 61.1742 152.884 61.7102 153.073 62.1761C153.267 62.6383 153.551 63.0019 153.926 63.267C154.304 63.5284 154.774 63.6591 155.335 63.6591ZM163.428 59.75V65H162.087V53.3636H163.428V57.6364H163.542C163.747 57.1856 164.053 56.8277 164.462 56.5625C164.875 56.2936 165.425 56.1591 166.11 56.1591C166.705 56.1591 167.226 56.2784 167.673 56.517C168.12 56.7519 168.466 57.1136 168.712 57.6023C168.962 58.0871 169.087 58.7045 169.087 59.4545V65H167.747V59.5455C167.747 58.8523 167.567 58.3163 167.207 57.9375C166.851 57.5549 166.356 57.3636 165.724 57.3636C165.284 57.3636 164.891 57.4564 164.542 57.642C164.197 57.8277 163.925 58.0985 163.724 58.4545C163.527 58.8106 163.428 59.2424 163.428 59.75ZM175.68 65.1818C174.839 65.1818 174.113 64.9962 173.504 64.625C172.897 64.25 172.43 63.7273 172.1 63.0568C171.774 62.3826 171.612 61.5985 171.612 60.7045C171.612 59.8106 171.774 59.0227 172.1 58.3409C172.43 57.6553 172.888 57.1212 173.475 56.7386C174.066 56.3523 174.755 56.1591 175.543 56.1591C175.998 56.1591 176.447 56.2348 176.89 56.3864C177.333 56.5379 177.737 56.7841 178.1 57.125C178.464 57.4621 178.754 57.9091 178.969 58.4659C179.185 59.0227 179.293 59.7083 179.293 60.5227V61.0909H172.566V59.9318H177.93C177.93 59.4394 177.831 59 177.634 58.6136C177.441 58.2273 177.165 57.9223 176.805 57.6989C176.449 57.4754 176.028 57.3636 175.543 57.3636C175.009 57.3636 174.547 57.4962 174.157 57.7614C173.771 58.0227 173.473 58.3636 173.265 58.7841C173.057 59.2045 172.952 59.6553 172.952 60.1364V60.9091C172.952 61.5682 173.066 62.1269 173.293 62.5852C173.524 63.0398 173.844 63.3864 174.254 63.625C174.663 63.8598 175.138 63.9773 175.68 63.9773C176.032 63.9773 176.35 63.928 176.634 63.8295C176.922 63.7273 177.17 63.5758 177.379 63.375C177.587 63.1705 177.748 62.9167 177.862 62.6136L179.157 62.9773C179.021 63.4167 178.791 63.803 178.469 64.1364C178.147 64.4659 177.75 64.7235 177.276 64.9091C176.803 65.0909 176.271 65.1818 175.68 65.1818ZM185.109 65.1818C184.381 65.1818 183.739 64.9981 183.182 64.6307C182.626 64.2595 182.19 63.7367 181.876 63.0625C181.561 62.3845 181.404 61.5833 181.404 60.6591C181.404 59.7424 181.561 58.947 181.876 58.2727C182.19 57.5985 182.627 57.0777 183.188 56.7102C183.749 56.3428 184.396 56.1591 185.131 56.1591C185.699 56.1591 186.148 56.2538 186.478 56.4432C186.811 56.6288 187.065 56.8409 187.239 57.0795C187.417 57.3144 187.556 57.5076 187.654 57.6591H187.768V53.3636H189.109V65H187.813V63.6591H187.654C187.556 63.8182 187.415 64.0189 187.234 64.2614C187.052 64.5 186.792 64.714 186.455 64.9034C186.118 65.089 185.669 65.1818 185.109 65.1818ZM185.29 63.9773C185.828 63.9773 186.283 63.8371 186.654 63.5568C187.025 63.2727 187.307 62.8807 187.501 62.3807C187.694 61.8769 187.79 61.2955 187.79 60.6364C187.79 59.9848 187.696 59.4148 187.506 58.9261C187.317 58.4337 187.037 58.0511 186.665 57.7784C186.294 57.5019 185.836 57.3636 185.29 57.3636C184.722 57.3636 184.249 57.5095 183.87 57.8011C183.495 58.089 183.213 58.4811 183.023 58.9773C182.838 59.4697 182.745 60.0227 182.745 60.6364C182.745 61.2576 182.84 61.822 183.029 62.3295C183.222 62.8333 183.506 63.2348 183.881 63.5341C184.26 63.8295 184.73 63.9773 185.29 63.9773ZM201.097 56.2727V57.4091H196.392V56.2727H201.097ZM197.802 65V55.0682C197.802 54.5682 197.919 54.1515 198.154 53.8182C198.389 53.4848 198.694 53.2348 199.069 53.0682C199.444 52.9015 199.839 52.8182 200.256 52.8182C200.586 52.8182 200.855 52.8447 201.063 52.8977C201.271 52.9508 201.427 53 201.529 53.0455L201.142 54.2045C201.074 54.1818 200.98 54.1534 200.858 54.1193C200.741 54.0852 200.586 54.0682 200.392 54.0682C199.949 54.0682 199.629 54.1799 199.432 54.4034C199.239 54.6269 199.142 54.9545 199.142 55.3864V65H197.802ZM206.642 65.1818C205.854 65.1818 205.163 64.9943 204.568 64.6193C203.978 64.2443 203.515 63.7197 203.182 63.0455C202.853 62.3712 202.688 61.5833 202.688 60.6818C202.688 59.7727 202.853 58.9792 203.182 58.3011C203.515 57.6231 203.978 57.0966 204.568 56.7216C205.163 56.3466 205.854 56.1591 206.642 56.1591C207.43 56.1591 208.12 56.3466 208.71 56.7216C209.305 57.0966 209.767 57.6231 210.097 58.3011C210.43 58.9792 210.597 59.7727 210.597 60.6818C210.597 61.5833 210.43 62.3712 210.097 63.0455C209.767 63.7197 209.305 64.2443 208.71 64.6193C208.12 64.9943 207.43 65.1818 206.642 65.1818ZM206.642 63.9773C207.241 63.9773 207.733 63.8239 208.12 63.517C208.506 63.2102 208.792 62.8068 208.978 62.3068C209.163 61.8068 209.256 61.2652 209.256 60.6818C209.256 60.0985 209.163 59.5549 208.978 59.0511C208.792 58.5473 208.506 58.1402 208.12 57.8295C207.733 57.5189 207.241 57.3636 206.642 57.3636C206.044 57.3636 205.551 57.5189 205.165 57.8295C204.779 58.1402 204.493 58.5473 204.307 59.0511C204.121 59.5549 204.029 60.0985 204.029 60.6818C204.029 61.2652 204.121 61.8068 204.307 62.3068C204.493 62.8068 204.779 63.2102 205.165 63.517C205.551 63.8239 206.044 63.9773 206.642 63.9773ZM213.124 65V56.2727H214.419V57.5909H214.51C214.669 57.1591 214.957 56.8087 215.374 56.5398C215.79 56.2708 216.26 56.1364 216.783 56.1364C216.881 56.1364 217.004 56.1383 217.152 56.142C217.3 56.1458 217.412 56.1515 217.487 56.1591V57.5227C217.442 57.5114 217.338 57.4943 217.175 57.4716C217.016 57.4451 216.847 57.4318 216.669 57.4318C216.245 57.4318 215.866 57.5208 215.533 57.6989C215.203 57.8731 214.942 58.1155 214.749 58.4261C214.559 58.733 214.465 59.0833 214.465 59.4773V65H213.124ZM228.06 68.4545C227.412 68.4545 226.855 68.3712 226.389 68.2045C225.923 68.0417 225.535 67.8258 225.224 67.5568C224.918 67.2917 224.673 67.0076 224.491 66.7045L225.56 65.9545C225.681 66.1136 225.834 66.2955 226.02 66.5C226.205 66.7083 226.459 66.8883 226.781 67.0398C227.107 67.1951 227.533 67.2727 228.06 67.2727C228.764 67.2727 229.346 67.1023 229.804 66.7614C230.262 66.4205 230.491 65.8864 230.491 65.1591V63.3864H230.378C230.279 63.5455 230.139 63.7424 229.957 63.9773C229.779 64.2083 229.522 64.4148 229.185 64.5966C228.851 64.7746 228.4 64.8636 227.832 64.8636C227.128 64.8636 226.495 64.697 225.935 64.3636C225.378 64.0303 224.936 63.5455 224.611 62.9091C224.289 62.2727 224.128 61.5 224.128 60.5909C224.128 59.697 224.285 58.9186 224.599 58.2557C224.914 57.589 225.351 57.0739 225.912 56.7102C226.472 56.3428 227.12 56.1591 227.855 56.1591C228.423 56.1591 228.874 56.2538 229.207 56.4432C229.544 56.6288 229.802 56.8409 229.98 57.0795C230.162 57.3144 230.302 57.5076 230.4 57.6591H230.537V56.2727H231.832V65.25C231.832 66 231.662 66.6098 231.321 67.0795C230.984 67.553 230.529 67.8996 229.957 68.1193C229.389 68.3428 228.757 68.4545 228.06 68.4545ZM228.014 63.6591C228.552 63.6591 229.007 63.536 229.378 63.2898C229.749 63.0436 230.031 62.6894 230.224 62.2273C230.418 61.7652 230.514 61.2121 230.514 60.5682C230.514 59.9394 230.419 59.3845 230.23 58.9034C230.041 58.4223 229.76 58.0455 229.389 57.7727C229.018 57.5 228.56 57.3636 228.014 57.3636C227.446 57.3636 226.972 57.5076 226.594 57.7955C226.219 58.0833 225.936 58.4697 225.747 58.9545C225.561 59.4394 225.469 59.9773 225.469 60.5682C225.469 61.1742 225.563 61.7102 225.753 62.1761C225.946 62.6383 226.23 63.0019 226.605 63.267C226.984 63.5284 227.454 63.6591 228.014 63.6591ZM234.767 65V56.2727H236.062V57.5909H236.153C236.312 57.1591 236.6 56.8087 237.017 56.5398C237.434 56.2708 237.903 56.1364 238.426 56.1364C238.524 56.1364 238.648 56.1383 238.795 56.142C238.943 56.1458 239.055 56.1515 239.13 56.1591V57.5227C239.085 57.5114 238.981 57.4943 238.818 57.4716C238.659 57.4451 238.49 57.4318 238.312 57.4318C237.888 57.4318 237.509 57.5208 237.176 57.6989C236.846 57.8731 236.585 58.1155 236.392 58.4261C236.202 58.733 236.108 59.0833 236.108 59.4773V65H234.767ZM243.768 65.2045C243.215 65.2045 242.713 65.1004 242.262 64.892C241.812 64.6799 241.454 64.375 241.189 63.9773C240.923 63.5758 240.791 63.0909 240.791 62.5227C240.791 62.0227 240.889 61.6174 241.086 61.3068C241.283 60.9924 241.547 60.7462 241.876 60.5682C242.206 60.3902 242.569 60.2576 242.967 60.1705C243.369 60.0795 243.772 60.0076 244.177 59.9545C244.708 59.8864 245.137 59.8352 245.467 59.8011C245.8 59.7633 246.043 59.7008 246.194 59.6136C246.35 59.5265 246.427 59.375 246.427 59.1591V59.1136C246.427 58.553 246.274 58.1174 245.967 57.8068C245.664 57.4962 245.204 57.3409 244.586 57.3409C243.946 57.3409 243.444 57.4811 243.081 57.7614C242.717 58.0417 242.461 58.3409 242.314 58.6591L241.041 58.2045C241.268 57.6742 241.571 57.2614 241.95 56.9659C242.333 56.6667 242.749 56.4583 243.2 56.3409C243.655 56.2197 244.101 56.1591 244.541 56.1591C244.821 56.1591 245.143 56.1932 245.507 56.2614C245.874 56.3258 246.228 56.4602 246.569 56.6648C246.914 56.8693 247.2 57.178 247.427 57.5909C247.655 58.0038 247.768 58.5568 247.768 59.25V65H246.427V63.8182H246.359C246.268 64.0076 246.117 64.2102 245.905 64.4261C245.692 64.642 245.41 64.8258 245.058 64.9773C244.706 65.1288 244.276 65.2045 243.768 65.2045ZM243.973 64C244.503 64 244.95 63.8958 245.314 63.6875C245.681 63.4792 245.958 63.2102 246.143 62.8807C246.333 62.5511 246.427 62.2045 246.427 61.8409V60.6136C246.37 60.6818 246.245 60.7443 246.052 60.8011C245.863 60.8542 245.643 60.9015 245.393 60.9432C245.147 60.9811 244.906 61.0152 244.672 61.0455C244.441 61.072 244.253 61.0947 244.109 61.1136C243.761 61.1591 243.435 61.233 243.132 61.3352C242.833 61.4337 242.59 61.5833 242.405 61.7841C242.223 61.9811 242.132 62.25 242.132 62.5909C242.132 63.0568 242.304 63.4091 242.649 63.6477C242.997 63.8826 243.439 64 243.973 64ZM254.491 56.2727V57.4091H249.968V56.2727H254.491ZM251.287 54.1818H252.627V62.5C252.627 62.8788 252.682 63.1629 252.792 63.3523C252.906 63.5379 253.05 63.6629 253.224 63.7273C253.402 63.7879 253.59 63.8182 253.787 63.8182C253.934 63.8182 254.055 63.8106 254.15 63.7955C254.245 63.7765 254.321 63.7614 254.377 63.75L254.65 64.9545C254.559 64.9886 254.432 65.0227 254.269 65.0568C254.107 65.0947 253.9 65.1136 253.65 65.1136C253.271 65.1136 252.9 65.0322 252.537 64.8693C252.177 64.7064 251.877 64.4583 251.639 64.125C251.404 63.7917 251.287 63.3712 251.287 62.8636V54.1818ZM256.988 65V56.2727H258.329V65H256.988ZM257.67 54.8182C257.409 54.8182 257.183 54.7292 256.994 54.5511C256.808 54.3731 256.715 54.1591 256.715 53.9091C256.715 53.6591 256.808 53.4451 256.994 53.267C257.183 53.089 257.409 53 257.67 53C257.931 53 258.155 53.089 258.34 53.267C258.53 53.4451 258.624 53.6591 258.624 53.9091C258.624 54.1591 258.53 54.3731 258.34 54.5511C258.155 54.7292 257.931 54.8182 257.67 54.8182ZM267.447 58.2273L266.242 58.5682C266.166 58.3674 266.055 58.1723 265.907 57.983C265.763 57.7898 265.566 57.6307 265.316 57.5057C265.066 57.3807 264.746 57.3182 264.356 57.3182C263.822 57.3182 263.377 57.4413 263.021 57.6875C262.668 57.9299 262.492 58.2386 262.492 58.6136C262.492 58.947 262.613 59.2102 262.856 59.4034C263.098 59.5966 263.477 59.7576 263.992 59.8864L265.288 60.2045C266.068 60.3939 266.649 60.6837 267.032 61.0739C267.415 61.4602 267.606 61.9583 267.606 62.5682C267.606 63.0682 267.462 63.5152 267.174 63.9091C266.89 64.303 266.492 64.6136 265.981 64.8409C265.47 65.0682 264.875 65.1818 264.197 65.1818C263.307 65.1818 262.57 64.9886 261.987 64.6023C261.403 64.2159 261.034 63.6515 260.879 62.9091L262.151 62.5909C262.273 63.0606 262.502 63.4129 262.839 63.6477C263.18 63.8826 263.625 64 264.174 64C264.799 64 265.295 63.8674 265.663 63.6023C266.034 63.3333 266.22 63.0114 266.22 62.6364C266.22 62.3333 266.113 62.0795 265.901 61.875C265.689 61.6667 265.363 61.5114 264.924 61.4091L263.47 61.0682C262.67 60.8788 262.083 60.5852 261.708 60.1875C261.337 59.786 261.151 59.2841 261.151 58.6818C261.151 58.1894 261.29 57.7538 261.566 57.375C261.846 56.9962 262.227 56.6989 262.708 56.483C263.193 56.267 263.742 56.1591 264.356 56.1591C265.22 56.1591 265.898 56.3485 266.39 56.7273C266.886 57.1061 267.238 57.6061 267.447 58.2273ZM121.381 84.2045C120.828 84.2045 120.326 84.1004 119.875 83.892C119.424 83.6799 119.066 83.375 118.801 82.9773C118.536 82.5758 118.403 82.0909 118.403 81.5227C118.403 81.0227 118.502 80.6174 118.699 80.3068C118.896 79.9924 119.159 79.7462 119.489 79.5682C119.818 79.3902 120.182 79.2576 120.58 79.1705C120.981 79.0795 121.384 79.0076 121.79 78.9545C122.32 78.8864 122.75 78.8352 123.08 78.8011C123.413 78.7633 123.655 78.7008 123.807 78.6136C123.962 78.5265 124.04 78.375 124.04 78.1591V78.1136C124.04 77.553 123.886 77.1174 123.58 76.8068C123.276 76.4962 122.816 76.3409 122.199 76.3409C121.559 76.3409 121.057 76.4811 120.693 76.7614C120.33 77.0417 120.074 77.3409 119.926 77.6591L118.653 77.2045C118.881 76.6742 119.184 76.2614 119.562 75.9659C119.945 75.6667 120.362 75.4583 120.812 75.3409C121.267 75.2197 121.714 75.1591 122.153 75.1591C122.434 75.1591 122.756 75.1932 123.119 75.2614C123.487 75.3258 123.841 75.4602 124.182 75.6648C124.526 75.8693 124.812 76.178 125.04 76.5909C125.267 77.0038 125.381 77.5568 125.381 78.25V84H124.04V82.8182H123.972C123.881 83.0076 123.729 83.2102 123.517 83.4261C123.305 83.642 123.023 83.8258 122.67 83.9773C122.318 84.1288 121.888 84.2045 121.381 84.2045ZM121.585 83C122.116 83 122.562 82.8958 122.926 82.6875C123.294 82.4792 123.57 82.2102 123.756 81.8807C123.945 81.5511 124.04 81.2045 124.04 80.8409V79.6136C123.983 79.6818 123.858 79.7443 123.665 79.8011C123.475 79.8542 123.256 79.9015 123.006 79.9432C122.759 79.9811 122.519 80.0152 122.284 80.0455C122.053 80.072 121.866 80.0947 121.722 80.1136C121.373 80.1591 121.047 80.233 120.744 80.3352C120.445 80.4337 120.203 80.5833 120.017 80.7841C119.835 80.9811 119.744 81.25 119.744 81.5909C119.744 82.0568 119.917 82.4091 120.261 82.6477C120.61 82.8826 121.051 83 121.585 83ZM129.649 78.75V84H128.308V75.2727H129.604V76.6364H129.717C129.922 76.1932 130.232 75.8371 130.649 75.5682C131.066 75.2955 131.604 75.1591 132.263 75.1591C132.854 75.1591 133.371 75.2803 133.814 75.5227C134.257 75.7614 134.602 76.125 134.848 76.6136C135.094 77.0985 135.217 77.7121 135.217 78.4545V84H133.876V78.5455C133.876 77.8598 133.698 77.3258 133.342 76.9432C132.986 76.5568 132.497 76.3636 131.876 76.3636C131.448 76.3636 131.066 76.4564 130.729 76.642C130.395 76.8277 130.132 77.0985 129.939 77.4545C129.746 77.8106 129.649 78.2424 129.649 78.75ZM144.329 77.2273L143.125 77.5682C143.049 77.3674 142.937 77.1723 142.79 76.983C142.646 76.7898 142.449 76.6307 142.199 76.5057C141.949 76.3807 141.629 76.3182 141.238 76.3182C140.704 76.3182 140.259 76.4413 139.903 76.6875C139.551 76.9299 139.375 77.2386 139.375 77.6136C139.375 77.947 139.496 78.2102 139.738 78.4034C139.981 78.5966 140.36 78.7576 140.875 78.8864L142.17 79.2045C142.951 79.3939 143.532 79.6837 143.915 80.0739C144.297 80.4602 144.488 80.9583 144.488 81.5682C144.488 82.0682 144.344 82.5152 144.057 82.9091C143.772 83.303 143.375 83.6136 142.863 83.8409C142.352 84.0682 141.757 84.1818 141.079 84.1818C140.189 84.1818 139.452 83.9886 138.869 83.6023C138.286 83.2159 137.916 82.6515 137.761 81.9091L139.034 81.5909C139.155 82.0606 139.384 82.4129 139.721 82.6477C140.062 82.8826 140.507 83 141.057 83C141.682 83 142.178 82.8674 142.545 82.6023C142.916 82.3333 143.102 82.0114 143.102 81.6364C143.102 81.3333 142.996 81.0795 142.784 80.875C142.572 80.6667 142.246 80.5114 141.807 80.4091L140.352 80.0682C139.553 79.8788 138.966 79.5852 138.591 79.1875C138.219 78.786 138.034 78.2841 138.034 77.6818C138.034 77.1894 138.172 76.7538 138.449 76.375C138.729 75.9962 139.11 75.6989 139.591 75.483C140.076 75.267 140.625 75.1591 141.238 75.1591C142.102 75.1591 142.78 75.3485 143.272 75.7273C143.769 76.1061 144.121 76.6061 144.329 77.2273ZM146.987 84V75.2727H148.328V84H146.987ZM147.669 73.8182C147.407 73.8182 147.182 73.7292 146.993 73.5511C146.807 73.3731 146.714 73.1591 146.714 72.9091C146.714 72.6591 146.807 72.4451 146.993 72.267C147.182 72.089 147.407 72 147.669 72C147.93 72 148.154 72.089 148.339 72.267C148.529 72.4451 148.623 72.6591 148.623 72.9091C148.623 73.1591 148.529 73.3731 148.339 73.5511C148.154 73.7292 147.93 73.8182 147.669 73.8182ZM154.786 87.4545C154.139 87.4545 153.582 87.3712 153.116 87.2045C152.65 87.0417 152.262 86.8258 151.951 86.5568C151.644 86.2917 151.4 86.0076 151.218 85.7045L152.286 84.9545C152.408 85.1136 152.561 85.2955 152.747 85.5C152.932 85.7083 153.186 85.8883 153.508 86.0398C153.834 86.1951 154.26 86.2727 154.786 86.2727C155.491 86.2727 156.072 86.1023 156.531 85.7614C156.989 85.4205 157.218 84.8864 157.218 84.1591V82.3864H157.105C157.006 82.5455 156.866 82.7424 156.684 82.9773C156.506 83.2083 156.249 83.4148 155.911 83.5966C155.578 83.7746 155.127 83.8636 154.559 83.8636C153.855 83.8636 153.222 83.697 152.661 83.3636C152.105 83.0303 151.663 82.5455 151.338 81.9091C151.016 81.2727 150.855 80.5 150.855 79.5909C150.855 78.697 151.012 77.9186 151.326 77.2557C151.641 76.589 152.078 76.0739 152.639 75.7102C153.199 75.3428 153.847 75.1591 154.582 75.1591C155.15 75.1591 155.601 75.2538 155.934 75.4432C156.271 75.6288 156.529 75.8409 156.707 76.0795C156.889 76.3144 157.029 76.5076 157.127 76.6591H157.264V75.2727H158.559V84.25C158.559 85 158.389 85.6098 158.048 86.0795C157.711 86.553 157.256 86.8996 156.684 87.1193C156.116 87.3428 155.483 87.4545 154.786 87.4545ZM154.741 82.6591C155.279 82.6591 155.733 82.536 156.105 82.2898C156.476 82.0436 156.758 81.6894 156.951 81.2273C157.144 80.7652 157.241 80.2121 157.241 79.5682C157.241 78.9394 157.146 78.3845 156.957 77.9034C156.768 77.4223 156.487 77.0455 156.116 76.7727C155.745 76.5 155.286 76.3636 154.741 76.3636C154.173 76.3636 153.699 76.5076 153.321 76.7955C152.946 77.0833 152.663 77.4697 152.474 77.9545C152.288 78.4394 152.196 78.9773 152.196 79.5682C152.196 80.1742 152.29 80.7102 152.48 81.1761C152.673 81.6383 152.957 82.0019 153.332 82.267C153.711 82.5284 154.18 82.6591 154.741 82.6591ZM165.289 75.2727V76.4091H160.766V75.2727H165.289ZM162.085 73.1818H163.426V81.5C163.426 81.8788 163.48 82.1629 163.59 82.3523C163.704 82.5379 163.848 82.6629 164.022 82.7273C164.2 82.7879 164.388 82.8182 164.585 82.8182C164.732 82.8182 164.854 82.8106 164.948 82.7955C165.043 82.7765 165.119 82.7614 165.176 82.75L165.448 83.9545C165.357 83.9886 165.23 84.0227 165.068 84.0568C164.905 84.0947 164.698 84.1136 164.448 84.1136C164.069 84.1136 163.698 84.0322 163.335 83.8693C162.975 83.7064 162.676 83.4583 162.437 83.125C162.202 82.7917 162.085 82.3712 162.085 81.8636V73.1818ZM173.812 77.2273L172.607 77.5682C172.531 77.3674 172.42 77.1723 172.272 76.983C172.128 76.7898 171.931 76.6307 171.681 76.5057C171.431 76.3807 171.111 76.3182 170.721 76.3182C170.187 76.3182 169.742 76.4413 169.386 76.6875C169.033 76.9299 168.857 77.2386 168.857 77.6136C168.857 77.947 168.978 78.2102 169.221 78.4034C169.463 78.5966 169.842 78.7576 170.357 78.8864L171.653 79.2045C172.433 79.3939 173.014 79.6837 173.397 80.0739C173.78 80.4602 173.971 80.9583 173.971 81.5682C173.971 82.0682 173.827 82.5152 173.539 82.9091C173.255 83.303 172.857 83.6136 172.346 83.8409C171.835 84.0682 171.24 84.1818 170.562 84.1818C169.672 84.1818 168.935 83.9886 168.352 83.6023C167.768 83.2159 167.399 82.6515 167.244 81.9091L168.516 81.5909C168.638 82.0606 168.867 82.4129 169.204 82.6477C169.545 82.8826 169.99 83 170.539 83C171.164 83 171.66 82.8674 172.028 82.6023C172.399 82.3333 172.585 82.0114 172.585 81.6364C172.585 81.3333 172.478 81.0795 172.266 80.875C172.054 80.6667 171.728 80.5114 171.289 80.4091L169.835 80.0682C169.035 79.8788 168.448 79.5852 168.073 79.1875C167.702 78.786 167.516 78.2841 167.516 77.6818C167.516 77.1894 167.655 76.7538 167.931 76.375C168.211 75.9962 168.592 75.6989 169.073 75.483C169.558 75.267 170.107 75.1591 170.721 75.1591C171.585 75.1591 172.263 75.3485 172.755 75.7273C173.251 76.1061 173.603 76.6061 173.812 77.2273ZM176.469 84V75.2727H177.765V76.6364H177.878C178.06 76.1705 178.354 75.8087 178.759 75.5511C179.164 75.2898 179.651 75.1591 180.219 75.1591C180.795 75.1591 181.274 75.2898 181.657 75.5511C182.043 75.8087 182.344 76.1705 182.56 76.6364H182.651C182.875 76.1856 183.21 75.8277 183.657 75.5625C184.104 75.2936 184.64 75.1591 185.265 75.1591C186.045 75.1591 186.683 75.4034 187.18 75.892C187.676 76.3769 187.924 77.1326 187.924 78.1591V84H186.583V78.1591C186.583 77.5152 186.407 77.0549 186.055 76.7784C185.702 76.5019 185.288 76.3636 184.81 76.3636C184.197 76.3636 183.721 76.5492 183.384 76.9205C183.047 77.2879 182.878 77.7538 182.878 78.3182V84H181.515V78.0227C181.515 77.5265 181.354 77.1269 181.032 76.8239C180.71 76.517 180.295 76.3636 179.788 76.3636C179.439 76.3636 179.113 76.4564 178.81 76.642C178.511 76.8277 178.269 77.0852 178.083 77.4148C177.901 77.7405 177.81 78.1174 177.81 78.5455V84H176.469ZM193.424 84.2045C192.871 84.2045 192.369 84.1004 191.918 83.892C191.467 83.6799 191.109 83.375 190.844 82.9773C190.579 82.5758 190.447 82.0909 190.447 81.5227C190.447 81.0227 190.545 80.6174 190.742 80.3068C190.939 79.9924 191.202 79.7462 191.532 79.5682C191.861 79.3902 192.225 79.2576 192.623 79.1705C193.024 79.0795 193.428 79.0076 193.833 78.9545C194.363 78.8864 194.793 78.8352 195.123 78.8011C195.456 78.7633 195.698 78.7008 195.85 78.6136C196.005 78.5265 196.083 78.375 196.083 78.1591V78.1136C196.083 77.553 195.929 77.1174 195.623 76.8068C195.32 76.4962 194.859 76.3409 194.242 76.3409C193.602 76.3409 193.1 76.4811 192.736 76.7614C192.373 77.0417 192.117 77.3409 191.969 77.6591L190.697 77.2045C190.924 76.6742 191.227 76.2614 191.606 75.9659C191.988 75.6667 192.405 75.4583 192.856 75.3409C193.31 75.2197 193.757 75.1591 194.197 75.1591C194.477 75.1591 194.799 75.1932 195.162 75.2614C195.53 75.3258 195.884 75.4602 196.225 75.6648C196.57 75.8693 196.856 76.178 197.083 76.5909C197.31 77.0038 197.424 77.5568 197.424 78.25V84H196.083V82.8182H196.015C195.924 83.0076 195.772 83.2102 195.56 83.4261C195.348 83.642 195.066 83.8258 194.714 83.9773C194.361 84.1288 193.931 84.2045 193.424 84.2045ZM193.628 83C194.159 83 194.606 82.8958 194.969 82.6875C195.337 82.4792 195.613 82.2102 195.799 81.8807C195.988 81.5511 196.083 81.2045 196.083 80.8409V79.6136C196.026 79.6818 195.901 79.7443 195.708 79.8011C195.518 79.8542 195.299 79.9015 195.049 79.9432C194.803 79.9811 194.562 80.0152 194.327 80.0455C194.096 80.072 193.909 80.0947 193.765 80.1136C193.416 80.1591 193.09 80.233 192.787 80.3352C192.488 80.4337 192.246 80.5833 192.06 80.7841C191.878 80.9811 191.787 81.25 191.787 81.5909C191.787 82.0568 191.96 82.4091 192.304 82.6477C192.653 82.8826 193.094 83 193.628 83ZM201.692 72.3636V84H200.351V72.3636H201.692ZM204.628 84V75.2727H205.969V84H204.628ZM205.31 73.8182C205.049 73.8182 204.823 73.7292 204.634 73.5511C204.448 73.3731 204.355 73.1591 204.355 72.9091C204.355 72.6591 204.448 72.4451 204.634 72.267C204.823 72.089 205.049 72 205.31 72C205.571 72 205.795 72.089 205.98 72.267C206.17 72.4451 206.264 72.6591 206.264 72.9091C206.264 73.1591 206.17 73.3731 205.98 73.5511C205.795 73.7292 205.571 73.8182 205.31 73.8182ZM210.246 78.75V84H208.905V75.2727H210.2V76.6364H210.314C210.519 76.1932 210.829 75.8371 211.246 75.5682C211.663 75.2955 212.2 75.1591 212.86 75.1591C213.45 75.1591 213.967 75.2803 214.411 75.5227C214.854 75.7614 215.199 76.125 215.445 76.6136C215.691 77.0985 215.814 77.7121 215.814 78.4545V84H214.473V78.5455C214.473 77.8598 214.295 77.3258 213.939 76.9432C213.583 76.5568 213.094 76.3636 212.473 76.3636C212.045 76.3636 211.663 76.4564 211.325 76.642C210.992 76.8277 210.729 77.0985 210.536 77.4545C210.342 77.8106 210.246 78.2424 210.246 78.75ZM222.267 87.4545C221.619 87.4545 221.063 87.3712 220.597 87.2045C220.131 87.0417 219.742 86.8258 219.432 86.5568C219.125 86.2917 218.881 86.0076 218.699 85.7045L219.767 84.9545C219.888 85.1136 220.042 85.2955 220.227 85.5C220.413 85.7083 220.667 85.8883 220.989 86.0398C221.314 86.1951 221.741 86.2727 222.267 86.2727C222.972 86.2727 223.553 86.1023 224.011 85.7614C224.47 85.4205 224.699 84.8864 224.699 84.1591V82.3864H224.585C224.487 82.5455 224.347 82.7424 224.165 82.9773C223.987 83.2083 223.729 83.4148 223.392 83.5966C223.059 83.7746 222.608 83.8636 222.04 83.8636C221.335 83.8636 220.703 83.697 220.142 83.3636C219.585 83.0303 219.144 82.5455 218.818 81.9091C218.496 81.2727 218.335 80.5 218.335 79.5909C218.335 78.697 218.492 77.9186 218.807 77.2557C219.121 76.589 219.559 76.0739 220.119 75.7102C220.68 75.3428 221.328 75.1591 222.063 75.1591C222.631 75.1591 223.081 75.2538 223.415 75.4432C223.752 75.6288 224.01 75.8409 224.188 76.0795C224.369 76.3144 224.51 76.5076 224.608 76.6591H224.744V75.2727H226.04V84.25C226.04 85 225.869 85.6098 225.528 86.0795C225.191 86.553 224.737 86.8996 224.165 87.1193C223.597 87.3428 222.964 87.4545 222.267 87.4545ZM222.222 82.6591C222.76 82.6591 223.214 82.536 223.585 82.2898C223.956 82.0436 224.239 81.6894 224.432 81.2273C224.625 80.7652 224.722 80.2121 224.722 79.5682C224.722 78.9394 224.627 78.3845 224.438 77.9034C224.248 77.4223 223.968 77.0455 223.597 76.7727C223.225 76.5 222.767 76.3636 222.222 76.3636C221.653 76.3636 221.18 76.5076 220.801 76.7955C220.426 77.0833 220.144 77.4697 219.955 77.9545C219.769 78.4394 219.676 78.9773 219.676 79.5682C219.676 80.1742 219.771 80.7102 219.96 81.1761C220.153 81.6383 220.438 82.0019 220.813 82.267C221.191 82.5284 221.661 82.6591 222.222 82.6591Z" fill="#FCFAEE"/>
<path d="M123.884 23.3203L120.827 35H117.81L122.253 20.7812H124.138L123.884 23.3203ZM126.296 35L123.22 23.3203L122.937 20.7812H124.851L129.333 35H126.296ZM126.404 29.6973V32.0703H119.988V29.6973H126.404ZM133.371 26.6895V35H130.627V24.4336H133.195L133.371 26.6895ZM132.961 29.3555L132.228 29.375C132.215 28.5807 132.29 27.8678 132.453 27.2363C132.622 26.6048 132.86 26.0677 133.166 25.625C133.478 25.1758 133.849 24.834 134.279 24.5996C134.715 24.3587 135.2 24.2383 135.734 24.2383C136.144 24.2383 136.519 24.3099 136.857 24.4531C137.202 24.5964 137.498 24.8242 137.746 25.1367C137.993 25.4492 138.185 25.8659 138.322 26.3867C138.459 26.901 138.527 27.5326 138.527 28.2812V35H135.783V28.2617C135.783 27.806 135.737 27.4544 135.646 27.207C135.555 26.9531 135.418 26.7773 135.236 26.6797C135.054 26.5755 134.826 26.5234 134.552 26.5234C134.292 26.5234 134.061 26.5983 133.859 26.748C133.657 26.8913 133.488 27.0898 133.351 27.3438C133.221 27.5977 133.12 27.8971 133.048 28.2422C132.983 28.5872 132.954 28.9583 132.961 29.3555ZM145.816 32.1484C145.816 31.9661 145.755 31.8034 145.631 31.6602C145.507 31.5169 145.312 31.3704 145.045 31.2207C144.778 31.0645 144.423 30.8919 143.981 30.7031C143.499 30.5078 143.072 30.306 142.701 30.0977C142.33 29.8893 142.014 29.6582 141.754 29.4043C141.5 29.1504 141.308 28.8607 141.178 28.5352C141.048 28.2096 140.982 27.8385 140.982 27.4219C140.982 26.9727 141.064 26.5592 141.227 26.1816C141.396 25.7975 141.637 25.4622 141.949 25.1758C142.262 24.8828 142.643 24.6549 143.092 24.4922C143.548 24.3229 144.059 24.2383 144.625 24.2383C145.419 24.2383 146.1 24.3783 146.666 24.6582C147.239 24.9316 147.678 25.3158 147.984 25.8105C148.29 26.3053 148.443 26.8815 148.443 27.5391H145.709C145.709 27.3047 145.673 27.0964 145.602 26.9141C145.53 26.7253 145.413 26.5788 145.25 26.4746C145.094 26.3704 144.882 26.3184 144.615 26.3184C144.42 26.3184 144.244 26.3607 144.088 26.4453C143.938 26.5299 143.818 26.6439 143.727 26.7871C143.642 26.9238 143.6 27.0866 143.6 27.2754C143.6 27.4186 143.629 27.5456 143.688 27.6562C143.753 27.7669 143.854 27.8743 143.99 27.9785C144.127 28.0827 144.309 28.1934 144.537 28.3105C144.772 28.4212 145.058 28.5449 145.397 28.6816C146.1 28.9421 146.676 29.222 147.125 29.5215C147.581 29.821 147.919 30.1725 148.141 30.5762C148.362 30.9733 148.473 31.4648 148.473 32.0508C148.473 32.5195 148.382 32.946 148.199 33.3301C148.023 33.7142 147.766 34.0462 147.428 34.3262C147.089 34.6061 146.682 34.821 146.207 34.9707C145.738 35.1204 145.214 35.1953 144.635 35.1953C143.782 35.1953 143.063 35.026 142.477 34.6875C141.891 34.349 141.448 33.916 141.148 33.3887C140.849 32.8548 140.699 32.3014 140.699 31.7285H143.297C143.31 32.0801 143.375 32.3568 143.492 32.5586C143.616 32.7539 143.782 32.8906 143.99 32.9688C144.199 33.0469 144.43 33.0859 144.684 33.0859C144.938 33.0859 145.146 33.0534 145.309 32.9883C145.478 32.9167 145.605 32.8092 145.69 32.666C145.774 32.5163 145.816 32.3438 145.816 32.1484ZM153.682 24.4336V35H150.938V24.4336H153.682ZM150.811 21.6992C150.811 21.276 150.944 20.9277 151.211 20.6543C151.485 20.3743 151.849 20.2344 152.305 20.2344C152.767 20.2344 153.132 20.3743 153.399 20.6543C153.666 20.9277 153.799 21.276 153.799 21.6992C153.799 22.1159 153.663 22.4642 153.389 22.7441C153.122 23.0176 152.764 23.1543 152.315 23.1543C151.853 23.1543 151.485 23.0176 151.211 22.7441C150.944 22.4642 150.811 22.1159 150.811 21.6992ZM162.007 24.4336H164.487V35C164.487 35.9635 164.302 36.7513 163.931 37.3633C163.566 37.9818 163.055 38.4342 162.397 38.7207C161.746 39.0137 160.985 39.1602 160.112 39.1602C159.78 39.1602 159.406 39.1146 158.989 39.0234C158.579 38.9323 158.182 38.7923 157.798 38.6035C157.414 38.4212 157.098 38.1999 156.85 37.9395L157.778 36.0449C158.032 36.2988 158.364 36.5137 158.774 36.6895C159.184 36.8717 159.588 36.9629 159.985 36.9629C160.369 36.9629 160.688 36.901 160.942 36.7773C161.203 36.6602 161.398 36.4583 161.528 36.1719C161.665 35.8854 161.733 35.5013 161.733 35.0195V26.8848L162.007 24.4336ZM156.108 30.0879V29.3848C156.108 28.5254 156.19 27.7734 156.352 27.1289C156.515 26.4844 156.75 25.9473 157.056 25.5176C157.362 25.0879 157.736 24.7689 158.179 24.5605C158.628 24.3457 159.129 24.2383 159.682 24.2383C160.262 24.2383 160.747 24.3652 161.138 24.6191C161.528 24.8665 161.844 25.2148 162.085 25.6641C162.332 26.1133 162.521 26.6439 162.651 27.2559C162.788 27.8678 162.892 28.5384 162.964 29.2676V30.2832C162.892 30.9733 162.775 31.6178 162.612 32.2168C162.456 32.8158 162.248 33.3366 161.987 33.7793C161.727 34.222 161.408 34.5703 161.03 34.8242C160.653 35.0716 160.197 35.1953 159.663 35.1953C159.116 35.1953 158.621 35.0846 158.179 34.8633C157.742 34.6419 157.368 34.3164 157.056 33.8867C156.75 33.4505 156.515 32.9167 156.352 32.2852C156.19 31.6471 156.108 30.9147 156.108 30.0879ZM158.852 29.3848V30.0879C158.852 30.5827 158.882 31.0091 158.94 31.3672C159.005 31.7188 159.103 32.0085 159.233 32.2363C159.363 32.4577 159.529 32.6237 159.731 32.7344C159.94 32.8385 160.184 32.8906 160.464 32.8906C160.861 32.8906 161.177 32.7995 161.411 32.6172C161.652 32.4284 161.828 32.1712 161.938 31.8457C162.056 31.5137 162.121 31.1328 162.134 30.7031V28.8574C162.127 28.4993 162.085 28.1771 162.007 27.8906C161.935 27.6042 161.834 27.36 161.704 27.1582C161.574 26.9564 161.404 26.8001 161.196 26.6895C160.994 26.5788 160.757 26.5234 160.483 26.5234C160.203 26.5234 159.962 26.5788 159.761 26.6895C159.559 26.8001 159.39 26.9727 159.253 27.207C159.123 27.4349 159.022 27.7311 158.95 28.0957C158.885 28.4538 158.852 28.8835 158.852 29.3848ZM171.738 24.4336V26.4941H166.347V24.4336H171.738ZM167.587 21.8262H170.312V31.7773C170.312 32.0703 170.341 32.2949 170.4 32.4512C170.458 32.6074 170.546 32.7181 170.663 32.7832C170.787 32.8418 170.95 32.8711 171.152 32.8711C171.288 32.8711 171.415 32.8646 171.532 32.8516C171.65 32.832 171.738 32.8125 171.796 32.793V34.9316C171.581 35.0163 171.353 35.0814 171.113 35.127C170.878 35.1725 170.598 35.1953 170.273 35.1953C169.726 35.1953 169.251 35.0911 168.847 34.8828C168.45 34.6745 168.141 34.3424 167.919 33.8867C167.698 33.4245 167.587 32.819 167.587 32.0703V21.8262ZM178.548 32.1484C178.548 31.9661 178.487 31.8034 178.363 31.6602C178.239 31.5169 178.044 31.3704 177.777 31.2207C177.51 31.0645 177.155 30.8919 176.713 30.7031C176.231 30.5078 175.804 30.306 175.433 30.0977C175.062 29.8893 174.746 29.6582 174.486 29.4043C174.232 29.1504 174.04 28.8607 173.91 28.5352C173.78 28.2096 173.715 27.8385 173.715 27.4219C173.715 26.9727 173.796 26.5592 173.959 26.1816C174.128 25.7975 174.369 25.4622 174.681 25.1758C174.994 24.8828 175.375 24.6549 175.824 24.4922C176.28 24.3229 176.791 24.2383 177.357 24.2383C178.151 24.2383 178.832 24.3783 179.398 24.6582C179.971 24.9316 180.41 25.3158 180.716 25.8105C181.022 26.3053 181.175 26.8815 181.175 27.5391H178.441C178.441 27.3047 178.405 27.0964 178.334 26.9141C178.262 26.7253 178.145 26.5788 177.982 26.4746C177.826 26.3704 177.614 26.3184 177.347 26.3184C177.152 26.3184 176.976 26.3607 176.82 26.4453C176.67 26.5299 176.55 26.6439 176.459 26.7871C176.374 26.9238 176.332 27.0866 176.332 27.2754C176.332 27.4186 176.361 27.5456 176.42 27.6562C176.485 27.7669 176.586 27.8743 176.722 27.9785C176.859 28.0827 177.041 28.1934 177.269 28.3105C177.504 28.4212 177.79 28.5449 178.129 28.6816C178.832 28.9421 179.408 29.222 179.857 29.5215C180.313 29.821 180.651 30.1725 180.873 30.5762C181.094 30.9733 181.205 31.4648 181.205 32.0508C181.205 32.5195 181.114 32.946 180.931 33.3301C180.756 33.7142 180.498 34.0462 180.16 34.3262C179.821 34.6061 179.414 34.821 178.939 34.9707C178.47 35.1204 177.946 35.1953 177.367 35.1953C176.514 35.1953 175.795 35.026 175.209 34.6875C174.623 34.349 174.18 33.916 173.881 33.3887C173.581 32.8548 173.431 32.3014 173.431 31.7285H176.029C176.042 32.0801 176.107 32.3568 176.224 32.5586C176.348 32.7539 176.514 32.8906 176.722 32.9688C176.931 33.0469 177.162 33.0859 177.416 33.0859C177.67 33.0859 177.878 33.0534 178.041 32.9883C178.21 32.9167 178.337 32.8092 178.422 32.666C178.506 32.5163 178.548 32.3438 178.548 32.1484ZM186.297 26.6211V35H183.553V24.4336H186.131L186.297 26.6211ZM185.906 29.3555L185.154 29.375C185.141 28.6328 185.206 27.9492 185.35 27.3242C185.493 26.6992 185.708 26.1556 185.994 25.6934C186.287 25.2311 186.655 24.873 187.098 24.6191C187.54 24.3652 188.058 24.2383 188.65 24.2383C189.035 24.2383 189.389 24.3099 189.715 24.4531C190.04 24.5898 190.324 24.8079 190.564 25.1074C190.805 25.4004 190.991 25.7845 191.121 26.2598C191.251 26.7285 191.316 27.2917 191.316 27.9492V35H188.582V28.2812C188.582 27.8125 188.537 27.4544 188.445 27.207C188.354 26.9531 188.224 26.7773 188.055 26.6797C187.885 26.5755 187.677 26.5234 187.43 26.5234C187.169 26.5234 186.941 26.5951 186.746 26.7383C186.551 26.8815 186.391 27.0833 186.268 27.3438C186.15 27.5977 186.059 27.8971 185.994 28.2422C185.936 28.5872 185.906 28.9583 185.906 29.3555ZM191.053 29.082L190.066 29.209C190.053 28.5124 190.115 27.8646 190.252 27.2656C190.389 26.6602 190.6 26.1328 190.887 25.6836C191.173 25.2279 191.531 24.873 191.961 24.6191C192.397 24.3652 192.902 24.2383 193.475 24.2383C193.904 24.2383 194.295 24.3099 194.647 24.4531C194.998 24.5964 195.298 24.8275 195.545 25.1465C195.799 25.459 195.991 25.8724 196.121 26.3867C196.258 26.901 196.326 27.526 196.326 28.2617V35H193.582V28.2715C193.582 27.7962 193.537 27.4316 193.445 27.1777C193.354 26.9238 193.224 26.7513 193.055 26.6602C192.885 26.569 192.684 26.5234 192.449 26.5234C192.215 26.5234 192.01 26.5885 191.834 26.7188C191.665 26.849 191.522 27.0312 191.404 27.2656C191.287 27.4935 191.199 27.7637 191.141 28.0762C191.082 28.3822 191.053 28.7174 191.053 29.082ZM203.645 32.5684V27.6855C203.645 27.3665 203.606 27.1126 203.528 26.9238C203.456 26.735 203.345 26.5983 203.196 26.5137C203.053 26.4225 202.877 26.377 202.668 26.377C202.434 26.377 202.239 26.4258 202.082 26.5234C201.926 26.6211 201.809 26.7611 201.731 26.9434C201.659 27.1257 201.623 27.3438 201.623 27.5977H198.879C198.879 27.1419 198.967 26.7122 199.143 26.3086C199.319 25.8984 199.576 25.5404 199.915 25.2344C200.26 24.9219 200.67 24.6777 201.145 24.502C201.62 24.3262 202.154 24.2383 202.747 24.2383C203.45 24.2383 204.075 24.3587 204.622 24.5996C205.168 24.834 205.601 25.2083 205.92 25.7227C206.239 26.237 206.399 26.9043 206.399 27.7246V32.4316C206.399 33.0241 206.428 33.5059 206.487 33.877C206.552 34.248 206.646 34.5671 206.77 34.834V35H204.016C203.892 34.707 203.798 34.3424 203.733 33.9062C203.674 33.4635 203.645 33.0176 203.645 32.5684ZM203.977 28.5449L203.987 30.1855H202.981C202.72 30.1855 202.493 30.2279 202.297 30.3125C202.109 30.3971 201.949 30.5176 201.819 30.6738C201.689 30.8236 201.591 30.9993 201.526 31.2012C201.467 31.403 201.438 31.6178 201.438 31.8457C201.438 32.0996 201.474 32.3145 201.545 32.4902C201.617 32.666 201.724 32.7995 201.868 32.8906C202.011 32.9818 202.18 33.0273 202.375 33.0273C202.675 33.0273 202.935 32.9655 203.157 32.8418C203.378 32.7181 203.541 32.5684 203.645 32.3926C203.756 32.2168 203.791 32.054 203.752 31.9043L204.377 32.9688C204.299 33.2096 204.192 33.4603 204.055 33.7207C203.925 33.9811 203.759 34.222 203.557 34.4434C203.355 34.6647 203.105 34.847 202.805 34.9902C202.512 35.127 202.164 35.1953 201.76 35.1953C201.194 35.1953 200.676 35.0651 200.207 34.8047C199.739 34.5443 199.368 34.1797 199.094 33.7109C198.827 33.2422 198.694 32.6855 198.694 32.041C198.694 31.5072 198.778 31.0254 198.948 30.5957C199.123 30.1595 199.384 29.7917 199.729 29.4922C200.074 29.1862 200.51 28.9518 201.038 28.7891C201.565 28.6263 202.183 28.5449 202.893 28.5449H203.977ZM211.891 20V35H209.147V20H211.891ZM217.531 24.4336V35H214.786V24.4336H217.531ZM214.659 21.6992C214.659 21.276 214.793 20.9277 215.06 20.6543C215.333 20.3743 215.698 20.2344 216.154 20.2344C216.616 20.2344 216.98 20.3743 217.247 20.6543C217.514 20.9277 217.648 21.276 217.648 21.6992C217.648 22.1159 217.511 22.4642 217.238 22.7441C216.971 23.0176 216.613 23.1543 216.163 23.1543C215.701 23.1543 215.333 23.0176 215.06 22.7441C214.793 22.4642 214.659 22.1159 214.659 21.6992ZM222.984 26.6895V35H220.24V24.4336H222.808L222.984 26.6895ZM222.574 29.3555L221.841 29.375C221.828 28.5807 221.903 27.8678 222.066 27.2363C222.235 26.6048 222.473 26.0677 222.779 25.625C223.091 25.1758 223.463 24.834 223.892 24.5996C224.328 24.3587 224.813 24.2383 225.347 24.2383C225.757 24.2383 226.132 24.3099 226.47 24.4531C226.815 24.5964 227.112 24.8242 227.359 25.1367C227.606 25.4492 227.798 25.8659 227.935 26.3867C228.072 26.901 228.14 27.5326 228.14 28.2812V35H225.396V28.2617C225.396 27.806 225.351 27.4544 225.259 27.207C225.168 26.9531 225.032 26.7773 224.849 26.6797C224.667 26.5755 224.439 26.5234 224.166 26.5234C223.905 26.5234 223.674 26.5983 223.472 26.748C223.27 26.8913 223.101 27.0898 222.965 27.3438C222.834 27.5977 222.733 27.8971 222.662 28.2422C222.597 28.5872 222.567 28.9583 222.574 29.3555ZM236.299 24.4336H238.779V35C238.779 35.9635 238.594 36.7513 238.223 37.3633C237.858 37.9818 237.347 38.4342 236.689 38.7207C236.038 39.0137 235.277 39.1602 234.404 39.1602C234.072 39.1602 233.698 39.1146 233.281 39.0234C232.871 38.9323 232.474 38.7923 232.09 38.6035C231.706 38.4212 231.39 38.1999 231.143 37.9395L232.07 36.0449C232.324 36.2988 232.656 36.5137 233.066 36.6895C233.477 36.8717 233.88 36.9629 234.277 36.9629C234.662 36.9629 234.981 36.901 235.234 36.7773C235.495 36.6602 235.69 36.4583 235.82 36.1719C235.957 35.8854 236.025 35.5013 236.025 35.0195V26.8848L236.299 24.4336ZM230.4 30.0879V29.3848C230.4 28.5254 230.482 27.7734 230.645 27.1289C230.807 26.4844 231.042 25.9473 231.348 25.5176C231.654 25.0879 232.028 24.7689 232.471 24.5605C232.92 24.3457 233.421 24.2383 233.975 24.2383C234.554 24.2383 235.039 24.3652 235.43 24.6191C235.82 24.8665 236.136 25.2148 236.377 25.6641C236.624 26.1133 236.813 26.6439 236.943 27.2559C237.08 27.8678 237.184 28.5384 237.256 29.2676V30.2832C237.184 30.9733 237.067 31.6178 236.904 32.2168C236.748 32.8158 236.54 33.3366 236.279 33.7793C236.019 34.222 235.7 34.5703 235.322 34.8242C234.945 35.0716 234.489 35.1953 233.955 35.1953C233.408 35.1953 232.913 35.0846 232.471 34.8633C232.035 34.6419 231.66 34.3164 231.348 33.8867C231.042 33.4505 230.807 32.9167 230.645 32.2852C230.482 31.6471 230.4 30.9147 230.4 30.0879ZM233.145 29.3848V30.0879C233.145 30.5827 233.174 31.0091 233.232 31.3672C233.298 31.7188 233.395 32.0085 233.525 32.2363C233.656 32.4577 233.822 32.6237 234.023 32.7344C234.232 32.8385 234.476 32.8906 234.756 32.8906C235.153 32.8906 235.469 32.7995 235.703 32.6172C235.944 32.4284 236.12 32.1712 236.231 31.8457C236.348 31.5137 236.413 31.1328 236.426 30.7031V28.8574C236.419 28.4993 236.377 28.1771 236.299 27.8906C236.227 27.6042 236.126 27.36 235.996 27.1582C235.866 26.9564 235.697 26.8001 235.488 26.6895C235.287 26.5788 235.049 26.5234 234.775 26.5234C234.495 26.5234 234.255 26.5788 234.053 26.6895C233.851 26.8001 233.682 26.9727 233.545 27.207C233.415 27.4349 233.314 27.7311 233.242 28.0957C233.177 28.4538 233.145 28.8835 233.145 29.3848Z" fill="#FCFAEE"/>
<path d="M98.3256 55.4093C98.3256 75.5677 81.7607 91.9093 61.3268 91.9093C40.8929 91.9093 24.328 75.5677 24.328 55.4093C24.328 35.2509 62.6482 28.0343 61.3268 18.9093C60.0054 9.78427 98.3256 35.2509 98.3256 55.4093Z" fill="#D84F52"/>
<path d="M86.5034 57.2004C86.5034 71.1212 75.1334 82.4062 61.1077 82.4062C47.0821 82.4062 35.7121 71.1212 35.7121 57.2004C35.7121 43.2797 46.4252 41.3707 60.4113 41.3707C74.3973 41.3707 86.5034 43.2797 86.5034 57.2004Z" fill="#F99319"/>
<path d="M62.6013 64.9385C61.8617 65.55 60.7921 65.55 60.0525 64.9385L59.7327 64.6741C58.2881 63.4797 59.1326 61.1327 61.0071 61.1327H61.6467C63.5211 61.1327 64.3657 63.4797 62.9211 64.6741L62.6013 64.9385Z" fill="black"/>
<path d="M51.0372 68.7014C51.0372 68.1593 51.4768 67.7197 52.0189 67.7197H70.6347C71.1769 67.7197 71.6164 68.1593 71.6164 68.7014C71.6164 74.1233 67.2212 78.5185 61.7993 78.5185H60.8543C55.4325 78.5185 51.0372 74.1233 51.0372 68.7014Z" fill="#FCFAEE"/>
<path d="M75.9457 52.5513L82.0479 50.5481L92.2469 80.7856C92.8137 82.4662 91.9072 84.2769 90.2221 84.8301C88.537 85.3832 86.7115 84.4693 86.1447 82.7888L75.9457 52.5513Z" fill="#5F2E23"/>
<rect width="6.42261" height="3.6586" transform="matrix(0.950119 -0.311888 0.319605 0.947551 74.7766 49.0844)" fill="#DEB364"/>
<path d="M72.4916 32.8918C79.9384 30.4473 81.4936 47.6493 81.4936 47.6493L74.4379 49.9654C74.4379 49.9654 65.8173 35.0827 72.4916 32.8918Z" fill="black"/>
<path d="M78.149 35.8481C78.5687 37.0926 76.4966 35.8129 73.969 36.6427C71.4414 37.4724 70.7655 39.0765 70.3458 37.832C69.926 36.5875 69.9213 32.9657 72.4489 32.136C74.9765 31.3062 77.7292 34.6036 78.149 35.8481Z" fill="#F99319"/>
</svg>
