<svg width="75" height="75" viewBox="0 0 75 75" fill="none" xmlns="http://www.w3.org/2000/svg">
<path d="M74.3256 38.4093C74.3256 58.5677 57.7607 74.9093 37.3268 74.9093C16.8929 74.9093 0.328003 58.5677 0.328003 38.4093C0.328003 18.2509 38.6482 11.0343 37.3268 1.90927C36.0054 -7.21573 74.3256 18.2509 74.3256 38.4093Z" fill="#D84F52"/>
<path d="M62.5034 40.2004C62.5034 54.1212 51.1334 65.4062 37.1077 65.4062C23.0821 65.4062 11.7121 54.1212 11.7121 40.2004C11.7121 26.2797 22.4252 24.3707 36.4113 24.3707C50.3973 24.3707 62.5034 26.2797 62.5034 40.2004Z" fill="#F99319"/>
<path d="M38.6013 47.9385C37.8617 48.55 36.7921 48.55 36.0525 47.9385L35.7327 47.6741C34.2881 46.4797 35.1326 44.1327 37.0071 44.1327H37.6467C39.5211 44.1327 40.3657 46.4797 38.9211 47.6741L38.6013 47.9385Z" fill="black"/>
<path d="M27.0372 51.7014C27.0372 51.1593 27.4768 50.7197 28.0189 50.7197H46.6347C47.1769 50.7197 47.6164 51.1593 47.6164 51.7014C47.6164 57.1233 43.2212 61.5185 37.7993 61.5185H36.8543C31.4325 61.5185 27.0372 57.1233 27.0372 51.7014Z" fill="#FCFAEE"/>
<path d="M51.9457 35.5513L58.0479 33.5481L68.2469 63.7856C68.8137 65.4662 67.9072 67.2769 66.2221 67.8301C64.537 68.3832 62.7115 67.4693 62.1447 65.7888L51.9457 35.5513Z" fill="#5F2E23"/>
<rect width="6.42261" height="3.6586" transform="matrix(0.950119 -0.311888 0.319605 0.947551 50.7766 32.0844)" fill="#DEB364"/>
<path d="M48.4916 15.8918C55.9384 13.4473 57.4936 30.6493 57.4936 30.6493L50.4379 32.9654C50.4379 32.9654 41.8173 18.0827 48.4916 15.8918Z" fill="black"/>
<path d="M54.149 18.8481C54.5687 20.0926 52.4966 18.8129 49.969 19.6427C47.4414 20.4724 46.7655 22.0765 46.3458 20.832C45.926 19.5875 45.9213 15.9657 48.4489 15.136C50.9765 14.3062 53.7292 17.6036 54.149 18.8481Z" fill="#F99319"/>
</svg>
