<svg width="323" height="125" viewBox="0 0 323 125" fill="none" xmlns="http://www.w3.org/2000/svg">
<path fill-rule="evenodd" clip-rule="evenodd" d="M242.236 0H20C8.9543 0 0 8.95431 0 20V105C0 116.046 8.95431 125 20 125H303C314.046 125 323 116.046 323 105V79.1663L322.951 79.2149L242.236 0ZM323 46.7365V20C323 8.9543 314.046 0 303 0H275.379L323 46.7365Z" fill="#355E50"/>
<path d="M262.879 11.4395L263.736 11.9438L271.044 4.7712L270.53 3.93066L270.701 3.76255L273.956 6.95659L273.785 7.1247L272.928 6.62038L269.343 10.1394L275.555 9.53424L275.041 8.35748L275.212 8.18938L277.382 10.3187L277.21 10.4868L275.954 9.92649L271.501 10.3748L269.902 17.9956L270.302 18.7241L270.131 18.8922L268.532 17.3232C268.189 16.987 267.98 16.6172 267.904 16.2137C267.843 15.8102 267.862 15.3582 267.961 14.8576L268.874 10.5989L265.62 13.793L266.134 14.6335L265.962 14.8016L262.708 11.6076L262.879 11.4395ZM270.992 19.4013L271.848 19.9057L279.157 12.7331L278.643 11.8926L278.814 11.7244L280.299 13.1814C280.984 13.8538 280.984 14.5262 280.299 15.1987L273.675 21.6988L274.189 22.5393L274.018 22.7075L270.821 19.5695L270.992 19.4013ZM275.843 24.723C275.615 24.4988 275.497 24.2187 275.489 23.8825C275.497 23.5462 275.615 23.2661 275.843 23.0419C276.072 22.8178 276.353 22.7057 276.688 22.7057C277.039 22.7057 277.328 22.8178 277.556 23.0419C277.785 23.2661 277.895 23.5462 277.887 23.8825C277.895 24.2187 277.785 24.4988 277.556 24.723C277.328 24.9471 277.039 25.0592 276.688 25.0592C276.353 25.0592 276.072 24.9471 275.843 24.723ZM282.015 30.5564L282.187 30.3883L283.215 30.9486L289.484 24.7959L287.44 24.4485L287.497 23.9442L291.459 24.1347L292.693 25.3451L285.099 32.7978L285.67 33.8065L285.498 33.9746L282.015 30.5564ZM288.982 37.7294C288.456 37.2139 288.08 36.7021 287.851 36.194C287.63 35.6934 287.539 35.2377 287.577 34.8268C287.623 34.4233 287.767 34.102 288.011 33.8629C288.27 33.6089 288.552 33.4819 288.856 33.4819C289.176 33.4819 289.465 33.6089 289.724 33.8629C289.785 33.9227 289.838 33.99 289.884 34.0647C289.937 34.1319 289.975 34.1767 289.998 34.1992L290.124 34.3673L288.297 36.1604C288.304 36.1679 288.354 36.2762 288.445 36.4854C288.59 36.732 288.788 36.9785 289.039 37.2251C289.496 37.6734 290.044 37.8452 290.683 37.7406C291.33 37.6285 292.057 37.1765 292.864 36.3846C293.664 35.6001 294.105 34.8977 294.189 34.2776C294.28 33.65 294.067 33.0822 293.549 32.5741C293.351 32.3799 293.131 32.2304 292.887 32.1258C292.643 32.0212 292.366 31.9278 292.053 31.8457C291.795 31.7859 291.513 31.7485 291.208 31.7336L291.151 31.3413L295.434 28.0352L298.802 31.3413C299.267 30.9902 299.739 30.781 300.218 30.7137C300.431 30.6689 300.645 30.654 300.858 30.6689L301.2 31.0051L298.974 33.1905L294.828 29.1223L291.894 31.3974C292.076 31.4273 292.316 31.4982 292.613 31.6103C293.214 31.8569 293.698 32.1595 294.063 32.5181C295.175 33.6089 295.776 34.6474 295.868 35.6337C295.966 36.6124 295.612 37.4978 294.806 38.2898C293.983 39.0967 293.07 39.4628 292.065 39.3881C291.06 39.3134 290.032 38.7605 288.982 37.7294ZM298.635 38.7976C298.406 38.5735 298.288 38.2933 298.281 37.9571C298.288 37.6208 298.406 37.3407 298.635 37.1165C298.863 36.8924 299.145 36.7803 299.48 36.7803C299.83 36.7803 300.119 36.8924 300.347 37.1165C300.576 37.3407 300.686 37.6208 300.679 37.9571C300.686 38.2933 300.576 38.5735 300.347 38.7976C300.119 39.0217 299.83 39.1338 299.48 39.1338C299.145 39.1338 298.863 39.0217 298.635 38.7976ZM294.409 42.9442C294.181 42.7201 294.063 42.4399 294.055 42.1037C294.063 41.7675 294.181 41.4873 294.409 41.2632C294.638 41.039 294.919 40.927 295.254 40.927C295.605 40.927 295.894 41.039 296.122 41.2632C296.351 41.4873 296.461 41.7675 296.453 42.1037C296.461 42.4399 296.351 42.7201 296.122 42.9442C295.894 43.1684 295.605 43.2805 295.254 43.2805C294.919 43.2805 294.638 43.1684 294.409 42.9442ZM299.893 48.4384C299.277 47.8332 298.881 47.1234 298.706 46.309C298.531 45.4946 298.607 44.6354 298.934 43.7314C299.277 42.8273 299.882 41.9494 300.75 41.0977C301.618 40.2459 302.508 39.6557 303.422 39.327C304.351 38.9982 305.23 38.9198 306.06 39.0916C306.89 39.2634 307.613 39.652 308.229 40.2572C308.846 40.8623 309.242 41.5721 309.417 42.3865C309.592 43.2009 309.508 44.0601 309.166 44.9642C308.838 45.8682 308.241 46.7461 307.373 47.5978C306.505 48.4496 305.607 49.0398 304.678 49.3686C303.764 49.6973 302.893 49.7758 302.063 49.6039C301.233 49.4321 300.51 49.0436 299.893 48.4384ZM300.122 48.2142C300.997 49.0734 302.748 48.2142 305.375 45.6366C308.001 43.0589 308.877 41.3405 308.001 40.4813C307.126 39.6221 305.375 40.4813 302.748 43.0589C300.122 45.6366 299.246 47.355 300.122 48.2142ZM307.886 56.2825C307.269 55.6773 306.873 54.9675 306.698 54.1531C306.523 53.3388 306.599 52.4795 306.927 51.5755C307.269 50.6715 307.875 49.7936 308.742 48.9418C309.61 48.0901 310.501 47.4998 311.415 47.1711C312.343 46.8423 313.223 46.7639 314.052 46.9357C314.882 47.1076 315.605 47.4961 316.222 48.1013C316.839 48.7065 317.235 49.4163 317.41 50.2306C317.585 51.045 317.501 51.9042 317.158 52.8083C316.831 53.7123 316.233 54.5902 315.366 55.442C314.498 56.2937 313.599 56.884 312.671 57.2127C311.757 57.5414 310.885 57.6199 310.056 57.448C309.226 57.2762 308.503 56.8877 307.886 56.2825ZM308.114 56.0584C308.99 56.9176 310.741 56.0584 313.367 53.4807C315.994 50.9031 316.869 49.1846 315.994 48.3254C315.118 47.4662 313.367 48.3254 310.741 50.9031C308.114 53.4807 307.239 55.1991 308.114 56.0584Z" fill="#355E50"/>
<path d="M119.605 60.3636H121.286L125.241 70.0227H125.377L129.332 60.3636H131.014V72H129.696V63.1591H129.582L125.946 72H124.673L121.036 63.1591H120.923V72H119.605V60.3636ZM139.637 68.4318V63.2727H140.978V72H139.637V70.5227H139.546C139.342 70.9659 139.024 71.3428 138.592 71.6534C138.16 71.9602 137.614 72.1136 136.955 72.1136C136.41 72.1136 135.925 71.9943 135.501 71.7557C135.077 71.5133 134.743 71.1496 134.501 70.6648C134.258 70.1761 134.137 69.5606 134.137 68.8182V63.2727H135.478V68.7273C135.478 69.3636 135.656 69.8712 136.012 70.25C136.372 70.6288 136.83 70.8182 137.387 70.8182C137.721 70.8182 138.06 70.733 138.404 70.5625C138.753 70.392 139.044 70.1307 139.279 69.7784C139.518 69.4261 139.637 68.9773 139.637 68.4318ZM145.255 60.3636V72H143.914V60.3636H145.255ZM148.191 72V63.2727H149.532V72H148.191ZM148.873 61.8182C148.611 61.8182 148.386 61.7292 148.197 61.5511C148.011 61.3731 147.918 61.1591 147.918 60.9091C147.918 60.6591 148.011 60.4451 148.197 60.267C148.386 60.089 148.611 60 148.873 60C149.134 60 149.358 60.089 149.543 60.267C149.733 60.4451 149.827 60.6591 149.827 60.9091C149.827 61.1591 149.733 61.3731 149.543 61.5511C149.358 61.7292 149.134 61.8182 148.873 61.8182ZM155.991 75.4545C155.343 75.4545 154.786 75.3712 154.32 75.2045C153.854 75.0417 153.466 74.8258 153.155 74.5568C152.849 74.2917 152.604 74.0076 152.422 73.7045L153.491 72.9545C153.612 73.1136 153.765 73.2955 153.951 73.5C154.136 73.7083 154.39 73.8883 154.712 74.0398C155.038 74.1951 155.464 74.2727 155.991 74.2727C156.695 74.2727 157.277 74.1023 157.735 73.7614C158.193 73.4205 158.422 72.8864 158.422 72.1591V70.3864H158.309C158.21 70.5455 158.07 70.7424 157.888 70.9773C157.71 71.2083 157.453 71.4148 157.116 71.5966C156.782 71.7746 156.331 71.8636 155.763 71.8636C155.059 71.8636 154.426 71.697 153.866 71.3636C153.309 71.0303 152.867 70.5455 152.542 69.9091C152.22 69.2727 152.059 68.5 152.059 67.5909C152.059 66.697 152.216 65.9186 152.53 65.2557C152.845 64.589 153.282 64.0739 153.843 63.7102C154.403 63.3428 155.051 63.1591 155.786 63.1591C156.354 63.1591 156.805 63.2538 157.138 63.4432C157.475 63.6288 157.733 63.8409 157.911 64.0795C158.093 64.3144 158.233 64.5076 158.331 64.6591H158.468V63.2727H159.763V72.25C159.763 73 159.593 73.6098 159.252 74.0795C158.915 74.553 158.46 74.8996 157.888 75.1193C157.32 75.3428 156.688 75.4545 155.991 75.4545ZM155.945 70.6591C156.483 70.6591 156.938 70.536 157.309 70.2898C157.68 70.0436 157.962 69.6894 158.155 69.2273C158.349 68.7652 158.445 68.2121 158.445 67.5682C158.445 66.9394 158.35 66.3845 158.161 65.9034C157.972 65.4223 157.691 65.0455 157.32 64.7727C156.949 64.5 156.491 64.3636 155.945 64.3636C155.377 64.3636 154.903 64.5076 154.525 64.7955C154.15 65.0833 153.867 65.4697 153.678 65.9545C153.492 66.4394 153.4 66.9773 153.4 67.5682C153.4 68.1742 153.494 68.7102 153.684 69.1761C153.877 69.6383 154.161 70.0019 154.536 70.267C154.915 70.5284 155.384 70.6591 155.945 70.6591ZM164.039 66.75V72H162.698V60.3636H164.039V64.6364H164.152C164.357 64.1856 164.664 63.8277 165.073 63.5625C165.486 63.2936 166.035 63.1591 166.721 63.1591C167.315 63.1591 167.836 63.2784 168.283 63.517C168.73 63.7519 169.077 64.1136 169.323 64.6023C169.573 65.0871 169.698 65.7045 169.698 66.4545V72H168.357V66.5455C168.357 65.8523 168.177 65.3163 167.817 64.9375C167.461 64.5549 166.967 64.3636 166.334 64.3636C165.895 64.3636 165.501 64.4564 165.152 64.642C164.808 64.8277 164.535 65.0985 164.334 65.4545C164.137 65.8106 164.039 66.2424 164.039 66.75ZM176.29 72.1818C175.449 72.1818 174.724 71.9962 174.114 71.625C173.508 71.25 173.04 70.7273 172.711 70.0568C172.385 69.3826 172.222 68.5985 172.222 67.7045C172.222 66.8106 172.385 66.0227 172.711 65.3409C173.04 64.6553 173.498 64.1212 174.086 63.7386C174.676 63.3523 175.366 63.1591 176.154 63.1591C176.608 63.1591 177.057 63.2348 177.5 63.3864C177.943 63.5379 178.347 63.7841 178.711 64.125C179.074 64.4621 179.364 64.9091 179.58 65.4659C179.796 66.0227 179.904 66.7083 179.904 67.5227V68.0909H173.176V66.9318H178.54C178.54 66.4394 178.442 66 178.245 65.6136C178.051 65.2273 177.775 64.9223 177.415 64.6989C177.059 64.4754 176.639 64.3636 176.154 64.3636C175.62 64.3636 175.157 64.4962 174.767 64.7614C174.381 65.0227 174.084 65.3636 173.875 65.7841C173.667 66.2045 173.563 66.6553 173.563 67.1364V67.9091C173.563 68.5682 173.676 69.1269 173.904 69.5852C174.135 70.0398 174.455 70.3864 174.864 70.625C175.273 70.8598 175.748 70.9773 176.29 70.9773C176.642 70.9773 176.961 70.928 177.245 70.8295C177.532 70.7273 177.781 70.5758 177.989 70.375C178.197 70.1705 178.358 69.9167 178.472 69.6136L179.767 69.9773C179.631 70.4167 179.402 70.803 179.08 71.1364C178.758 71.4659 178.36 71.7235 177.887 71.9091C177.413 72.0909 176.881 72.1818 176.29 72.1818ZM185.719 72.1818C184.992 72.1818 184.35 71.9981 183.793 71.6307C183.236 71.2595 182.8 70.7367 182.486 70.0625C182.172 69.3845 182.014 68.5833 182.014 67.6591C182.014 66.7424 182.172 65.947 182.486 65.2727C182.8 64.5985 183.238 64.0777 183.798 63.7102C184.359 63.3428 185.007 63.1591 185.742 63.1591C186.31 63.1591 186.759 63.2538 187.088 63.4432C187.422 63.6288 187.675 63.8409 187.85 64.0795C188.028 64.3144 188.166 64.5076 188.264 64.6591H188.378V60.3636H189.719V72H188.423V70.6591H188.264C188.166 70.8182 188.026 71.0189 187.844 71.2614C187.662 71.5 187.403 71.714 187.066 71.9034C186.728 72.089 186.28 72.1818 185.719 72.1818ZM185.901 70.9773C186.439 70.9773 186.893 70.8371 187.264 70.5568C187.636 70.2727 187.918 69.8807 188.111 69.3807C188.304 68.8769 188.401 68.2955 188.401 67.6364C188.401 66.9848 188.306 66.4148 188.117 65.9261C187.927 65.4337 187.647 65.0511 187.276 64.7784C186.905 64.5019 186.446 64.3636 185.901 64.3636C185.333 64.3636 184.859 64.5095 184.48 64.8011C184.105 65.089 183.823 65.4811 183.634 65.9773C183.448 66.4697 183.355 67.0227 183.355 67.6364C183.355 68.2576 183.45 68.822 183.639 69.3295C183.833 69.8333 184.117 70.2348 184.492 70.5341C184.87 70.8295 185.34 70.9773 185.901 70.9773ZM201.707 63.2727V64.4091H197.003V63.2727H201.707ZM198.412 72V62.0682C198.412 61.5682 198.529 61.1515 198.764 60.8182C198.999 60.4848 199.304 60.2348 199.679 60.0682C200.054 59.9015 200.45 59.8182 200.866 59.8182C201.196 59.8182 201.465 59.8447 201.673 59.8977C201.882 59.9508 202.037 60 202.139 60.0455L201.753 61.2045C201.685 61.1818 201.59 61.1534 201.469 61.1193C201.351 61.0852 201.196 61.0682 201.003 61.0682C200.56 61.0682 200.24 61.1799 200.043 61.4034C199.849 61.6269 199.753 61.9545 199.753 62.3864V72H198.412ZM207.253 72.1818C206.465 72.1818 205.773 71.9943 205.179 71.6193C204.588 71.2443 204.126 70.7197 203.792 70.0455C203.463 69.3712 203.298 68.5833 203.298 67.6818C203.298 66.7727 203.463 65.9792 203.792 65.3011C204.126 64.6231 204.588 64.0966 205.179 63.7216C205.773 63.3466 206.465 63.1591 207.253 63.1591C208.041 63.1591 208.73 63.3466 209.321 63.7216C209.916 64.0966 210.378 64.6231 210.707 65.3011C211.041 65.9792 211.207 66.7727 211.207 67.6818C211.207 68.5833 211.041 69.3712 210.707 70.0455C210.378 70.7197 209.916 71.2443 209.321 71.6193C208.73 71.9943 208.041 72.1818 207.253 72.1818ZM207.253 70.9773C207.851 70.9773 208.344 70.8239 208.73 70.517C209.116 70.2102 209.402 69.8068 209.588 69.3068C209.773 68.8068 209.866 68.2652 209.866 67.6818C209.866 67.0985 209.773 66.5549 209.588 66.0511C209.402 65.5473 209.116 65.1402 208.73 64.8295C208.344 64.5189 207.851 64.3636 207.253 64.3636C206.654 64.3636 206.162 64.5189 205.775 64.8295C205.389 65.1402 205.103 65.5473 204.917 66.0511C204.732 66.5549 204.639 67.0985 204.639 67.6818C204.639 68.2652 204.732 68.8068 204.917 69.3068C205.103 69.8068 205.389 70.2102 205.775 70.517C206.162 70.8239 206.654 70.9773 207.253 70.9773ZM213.734 72V63.2727H215.03V64.5909H215.12C215.28 64.1591 215.567 63.8087 215.984 63.5398C216.401 63.2708 216.87 63.1364 217.393 63.1364C217.492 63.1364 217.615 63.1383 217.762 63.142C217.91 63.1458 218.022 63.1515 218.098 63.1591V64.5227C218.052 64.5114 217.948 64.4943 217.785 64.4716C217.626 64.4451 217.458 64.4318 217.28 64.4318C216.855 64.4318 216.477 64.5208 216.143 64.6989C215.814 64.8731 215.552 65.1155 215.359 65.4261C215.17 65.733 215.075 66.0833 215.075 66.4773V72H213.734ZM228.67 75.4545C228.022 75.4545 227.465 75.3712 226.999 75.2045C226.534 75.0417 226.145 74.8258 225.835 74.5568C225.528 74.2917 225.284 74.0076 225.102 73.7045L226.17 72.9545C226.291 73.1136 226.445 73.2955 226.63 73.5C226.816 73.7083 227.07 73.8883 227.392 74.0398C227.717 74.1951 228.143 74.2727 228.67 74.2727C229.374 74.2727 229.956 74.1023 230.414 73.7614C230.873 73.4205 231.102 72.8864 231.102 72.1591V70.3864H230.988C230.89 70.5455 230.749 70.7424 230.568 70.9773C230.39 71.2083 230.132 71.4148 229.795 71.5966C229.462 71.7746 229.011 71.8636 228.443 71.8636C227.738 71.8636 227.106 71.697 226.545 71.3636C225.988 71.0303 225.547 70.5455 225.221 69.9091C224.899 69.2727 224.738 68.5 224.738 67.5909C224.738 66.697 224.895 65.9186 225.21 65.2557C225.524 64.589 225.962 64.0739 226.522 63.7102C227.083 63.3428 227.731 63.1591 228.465 63.1591C229.034 63.1591 229.484 63.2538 229.818 63.4432C230.155 63.6288 230.412 63.8409 230.59 64.0795C230.772 64.3144 230.912 64.5076 231.011 64.6591H231.147V63.2727H232.443V72.25C232.443 73 232.272 73.6098 231.931 74.0795C231.594 74.553 231.14 74.8996 230.568 75.1193C229.999 75.3428 229.367 75.4545 228.67 75.4545ZM228.624 70.6591C229.162 70.6591 229.617 70.536 229.988 70.2898C230.359 70.0436 230.642 69.6894 230.835 69.2273C231.028 68.7652 231.124 68.2121 231.124 67.5682C231.124 66.9394 231.03 66.3845 230.84 65.9034C230.651 65.4223 230.371 65.0455 229.999 64.7727C229.628 64.5 229.17 64.3636 228.624 64.3636C228.056 64.3636 227.583 64.5076 227.204 64.7955C226.829 65.0833 226.547 65.4697 226.357 65.9545C226.172 66.4394 226.079 66.9773 226.079 67.5682C226.079 68.1742 226.174 68.7102 226.363 69.1761C226.556 69.6383 226.84 70.0019 227.215 70.267C227.594 70.5284 228.064 70.6591 228.624 70.6591ZM235.377 72V63.2727H236.673V64.5909H236.764C236.923 64.1591 237.211 63.8087 237.627 63.5398C238.044 63.2708 238.514 63.1364 239.036 63.1364C239.135 63.1364 239.258 63.1383 239.406 63.142C239.553 63.1458 239.665 63.1515 239.741 63.1591V64.5227C239.695 64.5114 239.591 64.4943 239.428 64.4716C239.269 64.4451 239.101 64.4318 238.923 64.4318C238.498 64.4318 238.12 64.5208 237.786 64.6989C237.457 64.8731 237.195 65.1155 237.002 65.4261C236.813 65.733 236.718 66.0833 236.718 66.4773V72H235.377ZM244.379 72.2045C243.825 72.2045 243.324 72.1004 242.873 71.892C242.422 71.6799 242.064 71.375 241.799 70.9773C241.534 70.5758 241.401 70.0909 241.401 69.5227C241.401 69.0227 241.5 68.6174 241.697 68.3068C241.894 67.9924 242.157 67.7462 242.486 67.5682C242.816 67.3902 243.18 67.2576 243.577 67.1705C243.979 67.0795 244.382 67.0076 244.788 66.9545C245.318 66.8864 245.748 66.8352 246.077 66.8011C246.411 66.7633 246.653 66.7008 246.805 66.6136C246.96 66.5265 247.038 66.375 247.038 66.1591V66.1136C247.038 65.553 246.884 65.1174 246.577 64.8068C246.274 64.4962 245.814 64.3409 245.197 64.3409C244.557 64.3409 244.055 64.4811 243.691 64.7614C243.327 65.0417 243.072 65.3409 242.924 65.6591L241.651 65.2045C241.879 64.6742 242.182 64.2614 242.56 63.9659C242.943 63.6667 243.36 63.4583 243.81 63.3409C244.265 63.2197 244.712 63.1591 245.151 63.1591C245.432 63.1591 245.754 63.1932 246.117 63.2614C246.485 63.3258 246.839 63.4602 247.18 63.6648C247.524 63.8693 247.81 64.178 248.038 64.5909C248.265 65.0038 248.379 65.5568 248.379 66.25V72H247.038V70.8182H246.969C246.879 71.0076 246.727 71.2102 246.515 71.4261C246.303 71.642 246.021 71.8258 245.668 71.9773C245.316 72.1288 244.886 72.2045 244.379 72.2045ZM244.583 71C245.113 71 245.56 70.8958 245.924 70.6875C246.291 70.4792 246.568 70.2102 246.754 69.8807C246.943 69.5511 247.038 69.2045 247.038 68.8409V67.6136C246.981 67.6818 246.856 67.7443 246.663 67.8011C246.473 67.8542 246.254 67.9015 246.004 67.9432C245.757 67.9811 245.517 68.0152 245.282 68.0455C245.051 68.072 244.863 68.0947 244.719 68.1136C244.371 68.1591 244.045 68.233 243.742 68.3352C243.443 68.4337 243.2 68.5833 243.015 68.7841C242.833 68.9811 242.742 69.25 242.742 69.5909C242.742 70.0568 242.914 70.4091 243.259 70.6477C243.608 70.8826 244.049 71 244.583 71ZM255.101 63.2727V64.4091H250.579V63.2727H255.101ZM251.897 61.1818H253.238V69.5C253.238 69.8788 253.293 70.1629 253.403 70.3523C253.516 70.5379 253.66 70.6629 253.834 70.7273C254.012 70.7879 254.2 70.8182 254.397 70.8182C254.545 70.8182 254.666 70.8106 254.76 70.7955C254.855 70.7765 254.931 70.7614 254.988 70.75L255.26 71.9545C255.17 71.9886 255.043 72.0227 254.88 72.0568C254.717 72.0947 254.51 72.1136 254.26 72.1136C253.882 72.1136 253.51 72.0322 253.147 71.8693C252.787 71.7064 252.488 71.4583 252.249 71.125C252.014 70.7917 251.897 70.3712 251.897 69.8636V61.1818ZM257.598 72V63.2727H258.939V72H257.598ZM258.28 61.8182C258.019 61.8182 257.794 61.7292 257.604 61.5511C257.419 61.3731 257.326 61.1591 257.326 60.9091C257.326 60.6591 257.419 60.4451 257.604 60.267C257.794 60.089 258.019 60 258.28 60C258.542 60 258.765 60.089 258.951 60.267C259.14 60.4451 259.235 60.6591 259.235 60.9091C259.235 61.1591 259.14 61.3731 258.951 61.5511C258.765 61.7292 258.542 61.8182 258.28 61.8182ZM268.057 65.2273L266.853 65.5682C266.777 65.3674 266.665 65.1723 266.517 64.983C266.373 64.7898 266.176 64.6307 265.926 64.5057C265.676 64.3807 265.356 64.3182 264.966 64.3182C264.432 64.3182 263.987 64.4413 263.631 64.6875C263.279 64.9299 263.103 65.2386 263.103 65.6136C263.103 65.947 263.224 66.2102 263.466 66.4034C263.709 66.5966 264.087 66.7576 264.603 66.8864L265.898 67.2045C266.678 67.3939 267.26 67.6837 267.642 68.0739C268.025 68.4602 268.216 68.9583 268.216 69.5682C268.216 70.0682 268.072 70.5152 267.784 70.9091C267.5 71.303 267.103 71.6136 266.591 71.8409C266.08 72.0682 265.485 72.1818 264.807 72.1818C263.917 72.1818 263.18 71.9886 262.597 71.6023C262.014 71.2159 261.644 70.6515 261.489 69.9091L262.762 69.5909C262.883 70.0606 263.112 70.4129 263.449 70.6477C263.79 70.8826 264.235 71 264.784 71C265.409 71 265.906 70.8674 266.273 70.6023C266.644 70.3333 266.83 70.0114 266.83 69.6364C266.83 69.3333 266.724 69.0795 266.512 68.875C266.3 68.6667 265.974 68.5114 265.534 68.4091L264.08 68.0682C263.281 67.8788 262.694 67.5852 262.319 67.1875C261.947 66.786 261.762 66.2841 261.762 65.6818C261.762 65.1894 261.9 64.7538 262.176 64.375C262.457 63.9962 262.837 63.6989 263.319 63.483C263.803 63.267 264.353 63.1591 264.966 63.1591C265.83 63.1591 266.508 63.3485 267 63.7273C267.497 64.1061 267.849 64.6061 268.057 65.2273ZM121.991 91.2045C121.438 91.2045 120.936 91.1004 120.485 90.892C120.035 90.6799 119.677 90.375 119.411 89.9773C119.146 89.5758 119.014 89.0909 119.014 88.5227C119.014 88.0227 119.112 87.6174 119.309 87.3068C119.506 86.9924 119.769 86.7462 120.099 86.5682C120.429 86.3902 120.792 86.2576 121.19 86.1705C121.591 86.0795 121.995 86.0076 122.4 85.9545C122.93 85.8864 123.36 85.8352 123.69 85.8011C124.023 85.7633 124.266 85.7008 124.417 85.6136C124.572 85.5265 124.65 85.375 124.65 85.1591V85.1136C124.65 84.553 124.497 84.1174 124.19 83.8068C123.887 83.4962 123.427 83.3409 122.809 83.3409C122.169 83.3409 121.667 83.4811 121.304 83.7614C120.94 84.0417 120.684 84.3409 120.536 84.6591L119.264 84.2045C119.491 83.6742 119.794 83.2614 120.173 82.9659C120.555 82.6667 120.972 82.4583 121.423 82.3409C121.877 82.2197 122.324 82.1591 122.764 82.1591C123.044 82.1591 123.366 82.1932 123.73 82.2614C124.097 82.3258 124.451 82.4602 124.792 82.6648C125.137 82.8693 125.423 83.178 125.65 83.5909C125.877 84.0038 125.991 84.5568 125.991 85.25V91H124.65V89.8182H124.582C124.491 90.0076 124.339 90.2102 124.127 90.4261C123.915 90.642 123.633 90.8258 123.281 90.9773C122.929 91.1288 122.499 91.2045 121.991 91.2045ZM122.196 90C122.726 90 123.173 89.8958 123.536 89.6875C123.904 89.4792 124.18 89.2102 124.366 88.8807C124.555 88.5511 124.65 88.2045 124.65 87.8409V86.6136C124.593 86.6818 124.468 86.7443 124.275 86.8011C124.086 86.8542 123.866 86.9015 123.616 86.9432C123.37 86.9811 123.129 87.0152 122.894 87.0455C122.663 87.072 122.476 87.0947 122.332 87.1136C121.983 87.1591 121.658 87.233 121.355 87.3352C121.055 87.4337 120.813 87.5833 120.627 87.7841C120.446 87.9811 120.355 88.25 120.355 88.5909C120.355 89.0568 120.527 89.4091 120.872 89.6477C121.22 89.8826 121.661 90 122.196 90ZM130.259 85.75V91H128.918V82.2727H130.214V83.6364H130.328C130.532 83.1932 130.843 82.8371 131.259 82.5682C131.676 82.2955 132.214 82.1591 132.873 82.1591C133.464 82.1591 133.981 82.2803 134.424 82.5227C134.867 82.7614 135.212 83.125 135.458 83.6136C135.704 84.0985 135.828 84.7121 135.828 85.4545V91H134.487V85.5455C134.487 84.8598 134.309 84.3258 133.953 83.9432C133.596 83.5568 133.108 83.3636 132.487 83.3636C132.059 83.3636 131.676 83.4564 131.339 83.642C131.006 83.8277 130.742 84.0985 130.549 84.4545C130.356 84.8106 130.259 85.2424 130.259 85.75ZM144.94 84.2273L143.735 84.5682C143.659 84.3674 143.548 84.1723 143.4 83.983C143.256 83.7898 143.059 83.6307 142.809 83.5057C142.559 83.3807 142.239 83.3182 141.849 83.3182C141.315 83.3182 140.87 83.4413 140.514 83.6875C140.161 83.9299 139.985 84.2386 139.985 84.6136C139.985 84.947 140.106 85.2102 140.349 85.4034C140.591 85.5966 140.97 85.7576 141.485 85.8864L142.781 86.2045C143.561 86.3939 144.142 86.6837 144.525 87.0739C144.907 87.4602 145.099 87.9583 145.099 88.5682C145.099 89.0682 144.955 89.5152 144.667 89.9091C144.383 90.303 143.985 90.6136 143.474 90.8409C142.962 91.0682 142.368 91.1818 141.69 91.1818C140.799 91.1818 140.063 90.9886 139.479 90.6023C138.896 90.2159 138.527 89.6515 138.371 88.9091L139.644 88.5909C139.765 89.0606 139.995 89.4129 140.332 89.6477C140.673 89.8826 141.118 90 141.667 90C142.292 90 142.788 89.8674 143.156 89.6023C143.527 89.3333 143.712 89.0114 143.712 88.6364C143.712 88.3333 143.606 88.0795 143.394 87.875C143.182 87.6667 142.856 87.5114 142.417 87.4091L140.962 87.0682C140.163 86.8788 139.576 86.5852 139.201 86.1875C138.83 85.786 138.644 85.2841 138.644 84.6818C138.644 84.1894 138.782 83.7538 139.059 83.375C139.339 82.9962 139.72 82.6989 140.201 82.483C140.686 82.267 141.235 82.1591 141.849 82.1591C142.712 82.1591 143.39 82.3485 143.883 82.7273C144.379 83.1061 144.731 83.6061 144.94 84.2273ZM147.597 91V82.2727H148.938V91H147.597ZM148.279 80.8182C148.018 80.8182 147.792 80.7292 147.603 80.5511C147.417 80.3731 147.324 80.1591 147.324 79.9091C147.324 79.6591 147.417 79.4451 147.603 79.267C147.792 79.089 148.018 79 148.279 79C148.54 79 148.764 79.089 148.949 79.267C149.139 79.4451 149.234 79.6591 149.234 79.9091C149.234 80.1591 149.139 80.3731 148.949 80.5511C148.764 80.7292 148.54 80.8182 148.279 80.8182ZM155.397 94.4545C154.749 94.4545 154.192 94.3712 153.726 94.2045C153.26 94.0417 152.872 93.8258 152.562 93.5568C152.255 93.2917 152.01 93.0076 151.829 92.7045L152.897 91.9545C153.018 92.1136 153.171 92.2955 153.357 92.5C153.543 92.7083 153.796 92.8883 154.118 93.0398C154.444 93.1951 154.87 93.2727 155.397 93.2727C156.101 93.2727 156.683 93.1023 157.141 92.7614C157.599 92.4205 157.829 91.8864 157.829 91.1591V89.3864H157.715C157.617 89.5455 157.476 89.7424 157.295 89.9773C157.117 90.2083 156.859 90.4148 156.522 90.5966C156.188 90.7746 155.738 90.8636 155.17 90.8636C154.465 90.8636 153.832 90.697 153.272 90.3636C152.715 90.0303 152.274 89.5455 151.948 88.9091C151.626 88.2727 151.465 87.5 151.465 86.5909C151.465 85.697 151.622 84.9186 151.937 84.2557C152.251 83.589 152.688 83.0739 153.249 82.7102C153.81 82.3428 154.457 82.1591 155.192 82.1591C155.76 82.1591 156.211 82.2538 156.545 82.4432C156.882 82.6288 157.139 82.8409 157.317 83.0795C157.499 83.3144 157.639 83.5076 157.738 83.6591H157.874V82.2727H159.17V91.25C159.17 92 158.999 92.6098 158.658 93.0795C158.321 93.553 157.867 93.8996 157.295 94.1193C156.726 94.3428 156.094 94.4545 155.397 94.4545ZM155.351 89.6591C155.889 89.6591 156.344 89.536 156.715 89.2898C157.086 89.0436 157.368 88.6894 157.562 88.2273C157.755 87.7652 157.851 87.2121 157.851 86.5682C157.851 85.9394 157.757 85.3845 157.567 84.9034C157.378 84.4223 157.098 84.0455 156.726 83.7727C156.355 83.5 155.897 83.3636 155.351 83.3636C154.783 83.3636 154.31 83.5076 153.931 83.7955C153.556 84.0833 153.274 84.4697 153.084 84.9545C152.899 85.4394 152.806 85.9773 152.806 86.5682C152.806 87.1742 152.901 87.7102 153.09 88.1761C153.283 88.6383 153.567 89.0019 153.942 89.267C154.321 89.5284 154.791 89.6591 155.351 89.6591ZM165.9 82.2727V83.4091H161.377V82.2727H165.9ZM162.695 80.1818H164.036V88.5C164.036 88.8788 164.091 89.1629 164.201 89.3523C164.314 89.5379 164.458 89.6629 164.632 89.7273C164.811 89.7879 164.998 89.8182 165.195 89.8182C165.343 89.8182 165.464 89.8106 165.559 89.7955C165.653 89.7765 165.729 89.7614 165.786 89.75L166.059 90.9545C165.968 90.9886 165.841 91.0227 165.678 91.0568C165.515 91.0947 165.309 91.1136 165.059 91.1136C164.68 91.1136 164.309 91.0322 163.945 90.8693C163.585 90.7064 163.286 90.4583 163.047 90.125C162.812 89.7917 162.695 89.3712 162.695 88.8636V80.1818ZM174.422 84.2273L173.218 84.5682C173.142 84.3674 173.03 84.1723 172.882 83.983C172.738 83.7898 172.541 83.6307 172.291 83.5057C172.041 83.3807 171.721 83.3182 171.331 83.3182C170.797 83.3182 170.352 83.4413 169.996 83.6875C169.644 83.9299 169.468 84.2386 169.468 84.6136C169.468 84.947 169.589 85.2102 169.831 85.4034C170.074 85.5966 170.452 85.7576 170.968 85.8864L172.263 86.2045C173.043 86.3939 173.625 86.6837 174.007 87.0739C174.39 87.4602 174.581 87.9583 174.581 88.5682C174.581 89.0682 174.437 89.5152 174.149 89.9091C173.865 90.303 173.468 90.6136 172.956 90.8409C172.445 91.0682 171.85 91.1818 171.172 91.1818C170.282 91.1818 169.545 90.9886 168.962 90.6023C168.379 90.2159 168.009 89.6515 167.854 88.9091L169.127 88.5909C169.248 89.0606 169.477 89.4129 169.814 89.6477C170.155 89.8826 170.6 90 171.149 90C171.774 90 172.271 89.8674 172.638 89.6023C173.009 89.3333 173.195 89.0114 173.195 88.6364C173.195 88.3333 173.089 88.0795 172.877 87.875C172.665 87.6667 172.339 87.5114 171.899 87.4091L170.445 87.0682C169.646 86.8788 169.059 86.5852 168.684 86.1875C168.312 85.786 168.127 85.2841 168.127 84.6818C168.127 84.1894 168.265 83.7538 168.541 83.375C168.822 82.9962 169.202 82.6989 169.684 82.483C170.168 82.267 170.718 82.1591 171.331 82.1591C172.195 82.1591 172.873 82.3485 173.365 82.7273C173.862 83.1061 174.214 83.6061 174.422 84.2273ZM177.08 91V82.2727H178.375V83.6364H178.489C178.671 83.1705 178.964 82.8087 179.369 82.5511C179.775 82.2898 180.262 82.1591 180.83 82.1591C181.405 82.1591 181.885 82.2898 182.267 82.5511C182.654 82.8087 182.955 83.1705 183.171 83.6364H183.262C183.485 83.1856 183.82 82.8277 184.267 82.5625C184.714 82.2936 185.25 82.1591 185.875 82.1591C186.655 82.1591 187.294 82.4034 187.79 82.892C188.286 83.3769 188.534 84.1326 188.534 85.1591V91H187.193V85.1591C187.193 84.5152 187.017 84.0549 186.665 83.7784C186.313 83.5019 185.898 83.3636 185.421 83.3636C184.807 83.3636 184.332 83.5492 183.994 83.9205C183.657 84.2879 183.489 84.7538 183.489 85.3182V91H182.125V85.0227C182.125 84.5265 181.964 84.1269 181.642 83.8239C181.32 83.517 180.905 83.3636 180.398 83.3636C180.049 83.3636 179.724 83.4564 179.421 83.642C179.121 83.8277 178.879 84.0852 178.693 84.4148C178.512 84.7405 178.421 85.1174 178.421 85.5455V91H177.08ZM194.034 91.2045C193.481 91.2045 192.979 91.1004 192.528 90.892C192.078 90.6799 191.72 90.375 191.455 89.9773C191.189 89.5758 191.057 89.0909 191.057 88.5227C191.057 88.0227 191.155 87.6174 191.352 87.3068C191.549 86.9924 191.813 86.7462 192.142 86.5682C192.472 86.3902 192.835 86.2576 193.233 86.1705C193.635 86.0795 194.038 86.0076 194.443 85.9545C194.974 85.8864 195.403 85.8352 195.733 85.8011C196.066 85.7633 196.309 85.7008 196.46 85.6136C196.616 85.5265 196.693 85.375 196.693 85.1591V85.1136C196.693 84.553 196.54 84.1174 196.233 83.8068C195.93 83.4962 195.47 83.3409 194.852 83.3409C194.212 83.3409 193.71 83.4811 193.347 83.7614C192.983 84.0417 192.727 84.3409 192.58 84.6591L191.307 84.2045C191.534 83.6742 191.837 83.2614 192.216 82.9659C192.599 82.6667 193.015 82.4583 193.466 82.3409C193.92 82.2197 194.367 82.1591 194.807 82.1591C195.087 82.1591 195.409 82.1932 195.773 82.2614C196.14 82.3258 196.494 82.4602 196.835 82.6648C197.18 82.8693 197.466 83.178 197.693 83.5909C197.92 84.0038 198.034 84.5568 198.034 85.25V91H196.693V89.8182H196.625C196.534 90.0076 196.383 90.2102 196.17 90.4261C195.958 90.642 195.676 90.8258 195.324 90.9773C194.972 91.1288 194.542 91.2045 194.034 91.2045ZM194.239 90C194.769 90 195.216 89.8958 195.58 89.6875C195.947 89.4792 196.224 89.2102 196.409 88.8807C196.599 88.5511 196.693 88.2045 196.693 87.8409V86.6136C196.636 86.6818 196.511 86.7443 196.318 86.8011C196.129 86.8542 195.909 86.9015 195.659 86.9432C195.413 86.9811 195.172 87.0152 194.938 87.0455C194.706 87.072 194.519 87.0947 194.375 87.1136C194.027 87.1591 193.701 87.233 193.398 87.3352C193.099 87.4337 192.856 87.5833 192.67 87.7841C192.489 87.9811 192.398 88.25 192.398 88.5909C192.398 89.0568 192.57 89.4091 192.915 89.6477C193.263 89.8826 193.705 90 194.239 90ZM202.302 79.3636V91H200.962V79.3636H202.302ZM205.238 91V82.2727H206.579V91H205.238ZM205.92 80.8182C205.659 80.8182 205.434 80.7292 205.244 80.5511C205.059 80.3731 204.966 80.1591 204.966 79.9091C204.966 79.6591 205.059 79.4451 205.244 79.267C205.434 79.089 205.659 79 205.92 79C206.182 79 206.405 79.089 206.591 79.267C206.78 79.4451 206.875 79.6591 206.875 79.9091C206.875 80.1591 206.78 80.3731 206.591 80.5511C206.405 80.7292 206.182 80.8182 205.92 80.8182ZM210.856 85.75V91H209.515V82.2727H210.811V83.6364H210.924C211.129 83.1932 211.44 82.8371 211.856 82.5682C212.273 82.2955 212.811 82.1591 213.47 82.1591C214.061 82.1591 214.578 82.2803 215.021 82.5227C215.464 82.7614 215.809 83.125 216.055 83.6136C216.301 84.0985 216.424 84.7121 216.424 85.4545V91H215.084V85.5455C215.084 84.8598 214.905 84.3258 214.549 83.9432C214.193 83.5568 213.705 83.3636 213.084 83.3636C212.655 83.3636 212.273 83.4564 211.936 83.642C211.602 83.8277 211.339 84.0985 211.146 84.4545C210.953 84.8106 210.856 85.2424 210.856 85.75ZM222.877 94.4545C222.23 94.4545 221.673 94.3712 221.207 94.2045C220.741 94.0417 220.353 93.8258 220.042 93.5568C219.735 93.2917 219.491 93.0076 219.309 92.7045L220.377 91.9545C220.499 92.1136 220.652 92.2955 220.838 92.5C221.023 92.7083 221.277 92.8883 221.599 93.0398C221.925 93.1951 222.351 93.2727 222.877 93.2727C223.582 93.2727 224.163 93.1023 224.622 92.7614C225.08 92.4205 225.309 91.8864 225.309 91.1591V89.3864H225.196C225.097 89.5455 224.957 89.7424 224.775 89.9773C224.597 90.2083 224.34 90.4148 224.002 90.5966C223.669 90.7746 223.218 90.8636 222.65 90.8636C221.946 90.8636 221.313 90.697 220.752 90.3636C220.196 90.0303 219.754 89.5455 219.429 88.9091C219.107 88.2727 218.946 87.5 218.946 86.5909C218.946 85.697 219.103 84.9186 219.417 84.2557C219.732 83.589 220.169 83.0739 220.73 82.7102C221.29 82.3428 221.938 82.1591 222.673 82.1591C223.241 82.1591 223.692 82.2538 224.025 82.4432C224.362 82.6288 224.62 82.8409 224.798 83.0795C224.98 83.3144 225.12 83.5076 225.218 83.6591H225.355V82.2727H226.65V91.25C226.65 92 226.48 92.6098 226.139 93.0795C225.802 93.553 225.347 93.8996 224.775 94.1193C224.207 94.3428 223.574 94.4545 222.877 94.4545ZM222.832 89.6591C223.37 89.6591 223.824 89.536 224.196 89.2898C224.567 89.0436 224.849 88.6894 225.042 88.2273C225.235 87.7652 225.332 87.2121 225.332 86.5682C225.332 85.9394 225.237 85.3845 225.048 84.9034C224.858 84.4223 224.578 84.0455 224.207 83.7727C223.836 83.5 223.377 83.3636 222.832 83.3636C222.264 83.3636 221.79 83.5076 221.412 83.7955C221.037 84.0833 220.754 84.4697 220.565 84.9545C220.379 85.4394 220.287 85.9773 220.287 86.5682C220.287 87.1742 220.381 87.7102 220.571 88.1761C220.764 88.6383 221.048 89.0019 221.423 89.267C221.802 89.5284 222.271 89.6591 222.832 89.6591Z" fill="#FCFAEE"/>
<path d="M124.494 29.3203L121.438 41H118.42L122.864 26.7812H124.748L124.494 29.3203ZM126.906 41L123.83 29.3203L123.547 26.7812H125.461L129.944 41H126.906ZM127.014 35.6973V38.0703H120.598V35.6973H127.014ZM133.981 32.6895V41H131.237V30.4336H133.805L133.981 32.6895ZM133.571 35.3555L132.839 35.375C132.826 34.5807 132.9 33.8678 133.063 33.2363C133.232 32.6048 133.47 32.0677 133.776 31.625C134.089 31.1758 134.46 30.834 134.889 30.5996C135.326 30.3587 135.811 30.2383 136.344 30.2383C136.755 30.2383 137.129 30.3099 137.467 30.4531C137.812 30.5964 138.109 30.8242 138.356 31.1367C138.603 31.4492 138.796 31.8659 138.932 32.3867C139.069 32.901 139.137 33.5326 139.137 34.2812V41H136.393V34.2617C136.393 33.806 136.348 33.4544 136.256 33.207C136.165 32.9531 136.029 32.7773 135.846 32.6797C135.664 32.5755 135.436 32.5234 135.163 32.5234C134.902 32.5234 134.671 32.5983 134.469 32.748C134.268 32.8913 134.098 33.0898 133.962 33.3438C133.831 33.5977 133.73 33.8971 133.659 34.2422C133.594 34.5872 133.564 34.9583 133.571 35.3555ZM146.427 38.1484C146.427 37.9661 146.365 37.8034 146.241 37.6602C146.118 37.5169 145.922 37.3704 145.655 37.2207C145.388 37.0645 145.034 36.8919 144.591 36.7031C144.109 36.5078 143.683 36.306 143.312 36.0977C142.94 35.8893 142.625 35.6582 142.364 35.4043C142.11 35.1504 141.918 34.8607 141.788 34.5352C141.658 34.2096 141.593 33.8385 141.593 33.4219C141.593 32.9727 141.674 32.5592 141.837 32.1816C142.006 31.7975 142.247 31.4622 142.56 31.1758C142.872 30.8828 143.253 30.6549 143.702 30.4922C144.158 30.3229 144.669 30.2383 145.235 30.2383C146.03 30.2383 146.71 30.3783 147.276 30.6582C147.849 30.9316 148.289 31.3158 148.595 31.8105C148.901 32.3053 149.054 32.8815 149.054 33.5391H146.319C146.319 33.3047 146.284 33.0964 146.212 32.9141C146.14 32.7253 146.023 32.5788 145.86 32.4746C145.704 32.3704 145.493 32.3184 145.226 32.3184C145.03 32.3184 144.855 32.3607 144.698 32.4453C144.549 32.5299 144.428 32.6439 144.337 32.7871C144.252 32.9238 144.21 33.0866 144.21 33.2754C144.21 33.4186 144.239 33.5456 144.298 33.6562C144.363 33.7669 144.464 33.8743 144.601 33.9785C144.737 34.0827 144.92 34.1934 145.148 34.3105C145.382 34.4212 145.668 34.5449 146.007 34.6816C146.71 34.9421 147.286 35.222 147.735 35.5215C148.191 35.821 148.53 36.1725 148.751 36.5762C148.972 36.9733 149.083 37.4648 149.083 38.0508C149.083 38.5195 148.992 38.946 148.81 39.3301C148.634 39.7142 148.377 40.0462 148.038 40.3262C147.7 40.6061 147.293 40.821 146.817 40.9707C146.349 41.1204 145.825 41.1953 145.245 41.1953C144.392 41.1953 143.673 41.026 143.087 40.6875C142.501 40.349 142.058 39.916 141.759 39.3887C141.459 38.8548 141.31 38.3014 141.31 37.7285H143.907C143.92 38.0801 143.985 38.3568 144.103 38.5586C144.226 38.7539 144.392 38.8906 144.601 38.9688C144.809 39.0469 145.04 39.0859 145.294 39.0859C145.548 39.0859 145.756 39.0534 145.919 38.9883C146.088 38.9167 146.215 38.8092 146.3 38.666C146.384 38.5163 146.427 38.3438 146.427 38.1484ZM154.292 30.4336V41H151.548V30.4336H154.292ZM151.421 27.6992C151.421 27.276 151.555 26.9277 151.822 26.6543C152.095 26.3743 152.46 26.2344 152.915 26.2344C153.378 26.2344 153.742 26.3743 154.009 26.6543C154.276 26.9277 154.41 27.276 154.41 27.6992C154.41 28.1159 154.273 28.4642 153.999 28.7441C153.733 29.0176 153.374 29.1543 152.925 29.1543C152.463 29.1543 152.095 29.0176 151.822 28.7441C151.555 28.4642 151.421 28.1159 151.421 27.6992ZM162.617 30.4336H165.098V41C165.098 41.9635 164.912 42.7513 164.541 43.3633C164.176 43.9818 163.665 44.4342 163.008 44.7207C162.357 45.0137 161.595 45.1602 160.723 45.1602C160.39 45.1602 160.016 45.1146 159.599 45.0234C159.189 44.9323 158.792 44.7923 158.408 44.6035C158.024 44.4212 157.708 44.1999 157.461 43.9395L158.389 42.0449C158.642 42.2988 158.974 42.5137 159.385 42.6895C159.795 42.8717 160.198 42.9629 160.596 42.9629C160.98 42.9629 161.299 42.901 161.553 42.7773C161.813 42.6602 162.008 42.4583 162.139 42.1719C162.275 41.8854 162.344 41.5013 162.344 41.0195V32.8848L162.617 30.4336ZM156.719 36.0879V35.3848C156.719 34.5254 156.8 33.7734 156.963 33.1289C157.126 32.4844 157.36 31.9473 157.666 31.5176C157.972 31.0879 158.346 30.7689 158.789 30.5605C159.238 30.3457 159.739 30.2383 160.293 30.2383C160.872 30.2383 161.357 30.3652 161.748 30.6191C162.139 30.8665 162.454 31.2148 162.695 31.6641C162.943 32.1133 163.131 32.6439 163.262 33.2559C163.398 33.8678 163.502 34.5384 163.574 35.2676V36.2832C163.502 36.9733 163.385 37.6178 163.223 38.2168C163.066 38.8158 162.858 39.3366 162.598 39.7793C162.337 40.222 162.018 40.5703 161.64 40.8242C161.263 41.0716 160.807 41.1953 160.273 41.1953C159.726 41.1953 159.232 41.0846 158.789 40.8633C158.353 40.6419 157.978 40.3164 157.666 39.8867C157.36 39.4505 157.126 38.9167 156.963 38.2852C156.8 37.6471 156.719 36.9147 156.719 36.0879ZM159.463 35.3848V36.0879C159.463 36.5827 159.492 37.0091 159.551 37.3672C159.616 37.7188 159.713 38.0085 159.844 38.2363C159.974 38.4577 160.14 38.6237 160.342 38.7344C160.55 38.8385 160.794 38.8906 161.074 38.8906C161.471 38.8906 161.787 38.7995 162.021 38.6172C162.262 38.4284 162.438 38.1712 162.549 37.8457C162.666 37.5137 162.731 37.1328 162.744 36.7031V34.8574C162.737 34.4993 162.695 34.1771 162.617 33.8906C162.545 33.6042 162.445 33.36 162.314 33.1582C162.184 32.9564 162.015 32.8001 161.806 32.6895C161.605 32.5788 161.367 32.5234 161.094 32.5234C160.814 32.5234 160.573 32.5788 160.371 32.6895C160.169 32.8001 160 32.9727 159.863 33.207C159.733 33.4349 159.632 33.7311 159.56 34.0957C159.495 34.4538 159.463 34.8835 159.463 35.3848ZM172.348 30.4336V32.4941H166.957V30.4336H172.348ZM168.198 27.8262H170.922V37.7773C170.922 38.0703 170.951 38.2949 171.01 38.4512C171.069 38.6074 171.156 38.7181 171.274 38.7832C171.397 38.8418 171.56 38.8711 171.762 38.8711C171.899 38.8711 172.026 38.8646 172.143 38.8516C172.26 38.832 172.348 38.8125 172.406 38.793V40.9316C172.192 41.0163 171.964 41.0814 171.723 41.127C171.489 41.1725 171.209 41.1953 170.883 41.1953C170.336 41.1953 169.861 41.0911 169.457 40.8828C169.06 40.6745 168.751 40.3424 168.53 39.8867C168.308 39.4245 168.198 38.819 168.198 38.0703V27.8262ZM179.159 38.1484C179.159 37.9661 179.097 37.8034 178.973 37.6602C178.85 37.5169 178.654 37.3704 178.387 37.2207C178.12 37.0645 177.766 36.8919 177.323 36.7031C176.841 36.5078 176.415 36.306 176.044 36.0977C175.673 35.8893 175.357 35.6582 175.096 35.4043C174.842 35.1504 174.65 34.8607 174.52 34.5352C174.39 34.2096 174.325 33.8385 174.325 33.4219C174.325 32.9727 174.406 32.5592 174.569 32.1816C174.738 31.7975 174.979 31.4622 175.292 31.1758C175.604 30.8828 175.985 30.6549 176.434 30.4922C176.89 30.3229 177.401 30.2383 177.967 30.2383C178.762 30.2383 179.442 30.3783 180.008 30.6582C180.581 30.9316 181.021 31.3158 181.327 31.8105C181.633 32.3053 181.786 32.8815 181.786 33.5391H179.051C179.051 33.3047 179.016 33.0964 178.944 32.9141C178.872 32.7253 178.755 32.5788 178.592 32.4746C178.436 32.3704 178.225 32.3184 177.958 32.3184C177.762 32.3184 177.587 32.3607 177.43 32.4453C177.281 32.5299 177.16 32.6439 177.069 32.7871C176.984 32.9238 176.942 33.0866 176.942 33.2754C176.942 33.4186 176.971 33.5456 177.03 33.6562C177.095 33.7669 177.196 33.8743 177.333 33.9785C177.469 34.0827 177.652 34.1934 177.88 34.3105C178.114 34.4212 178.4 34.5449 178.739 34.6816C179.442 34.9421 180.018 35.222 180.467 35.5215C180.923 35.821 181.262 36.1725 181.483 36.5762C181.704 36.9733 181.815 37.4648 181.815 38.0508C181.815 38.5195 181.724 38.946 181.542 39.3301C181.366 39.7142 181.109 40.0462 180.77 40.3262C180.432 40.6061 180.025 40.821 179.549 40.9707C179.081 41.1204 178.557 41.1953 177.977 41.1953C177.124 41.1953 176.405 41.026 175.819 40.6875C175.233 40.349 174.79 39.916 174.491 39.3887C174.191 38.8548 174.042 38.3014 174.042 37.7285H176.639C176.652 38.0801 176.717 38.3568 176.835 38.5586C176.958 38.7539 177.124 38.8906 177.333 38.9688C177.541 39.0469 177.772 39.0859 178.026 39.0859C178.28 39.0859 178.488 39.0534 178.651 38.9883C178.82 38.9167 178.947 38.8092 179.032 38.666C179.117 38.5163 179.159 38.3438 179.159 38.1484ZM186.907 32.6211V41H184.163V30.4336H186.741L186.907 32.6211ZM186.517 35.3555L185.765 35.375C185.752 34.6328 185.817 33.9492 185.96 33.3242C186.103 32.6992 186.318 32.1556 186.605 31.6934C186.898 31.2311 187.265 30.873 187.708 30.6191C188.151 30.3652 188.668 30.2383 189.261 30.2383C189.645 30.2383 190 30.3099 190.325 30.4531C190.651 30.5898 190.934 30.8079 191.175 31.1074C191.416 31.4004 191.601 31.7845 191.731 32.2598C191.862 32.7285 191.927 33.2917 191.927 33.9492V41H189.192V34.2812C189.192 33.8125 189.147 33.4544 189.056 33.207C188.965 32.9531 188.834 32.7773 188.665 32.6797C188.496 32.5755 188.287 32.5234 188.04 32.5234C187.78 32.5234 187.552 32.5951 187.356 32.7383C187.161 32.8815 187.002 33.0833 186.878 33.3438C186.761 33.5977 186.67 33.8971 186.605 34.2422C186.546 34.5872 186.517 34.9583 186.517 35.3555ZM191.663 35.082L190.677 35.209C190.664 34.5124 190.726 33.8646 190.862 33.2656C190.999 32.6602 191.211 32.1328 191.497 31.6836C191.784 31.2279 192.142 30.873 192.571 30.6191C193.008 30.3652 193.512 30.2383 194.085 30.2383C194.515 30.2383 194.905 30.3099 195.257 30.4531C195.608 30.5964 195.908 30.8275 196.155 31.1465C196.409 31.459 196.601 31.8724 196.731 32.3867C196.868 32.901 196.937 33.526 196.937 34.2617V41H194.192V34.2715C194.192 33.7962 194.147 33.4316 194.056 33.1777C193.965 32.9238 193.834 32.7513 193.665 32.6602C193.496 32.569 193.294 32.5234 193.06 32.5234C192.825 32.5234 192.62 32.5885 192.444 32.7188C192.275 32.849 192.132 33.0312 192.015 33.2656C191.898 33.4935 191.81 33.7637 191.751 34.0762C191.692 34.3822 191.663 34.7174 191.663 35.082ZM204.255 38.5684V33.6855C204.255 33.3665 204.216 33.1126 204.138 32.9238C204.067 32.735 203.956 32.5983 203.806 32.5137C203.663 32.4225 203.487 32.377 203.279 32.377C203.044 32.377 202.849 32.4258 202.693 32.5234C202.537 32.6211 202.419 32.7611 202.341 32.9434C202.27 33.1257 202.234 33.3438 202.234 33.5977H199.49C199.49 33.1419 199.578 32.7122 199.753 32.3086C199.929 31.8984 200.186 31.5404 200.525 31.2344C200.87 30.9219 201.28 30.6777 201.755 30.502C202.231 30.3262 202.764 30.2383 203.357 30.2383C204.06 30.2383 204.685 30.3587 205.232 30.5996C205.779 30.834 206.212 31.2083 206.531 31.7227C206.85 32.237 207.009 32.9043 207.009 33.7246V38.4316C207.009 39.0241 207.039 39.5059 207.097 39.877C207.162 40.248 207.257 40.5671 207.38 40.834V41H204.626C204.503 40.707 204.408 40.3424 204.343 39.9062C204.285 39.4635 204.255 39.0176 204.255 38.5684ZM204.587 34.5449L204.597 36.1855H203.591C203.331 36.1855 203.103 36.2279 202.908 36.3125C202.719 36.3971 202.559 36.5176 202.429 36.6738C202.299 36.8236 202.201 36.9993 202.136 37.2012C202.078 37.403 202.048 37.6178 202.048 37.8457C202.048 38.0996 202.084 38.3145 202.156 38.4902C202.227 38.666 202.335 38.7995 202.478 38.8906C202.621 38.9818 202.79 39.0273 202.986 39.0273C203.285 39.0273 203.546 38.9655 203.767 38.8418C203.988 38.7181 204.151 38.5684 204.255 38.3926C204.366 38.2168 204.402 38.054 204.363 37.9043L204.988 38.9688C204.91 39.2096 204.802 39.4603 204.665 39.7207C204.535 39.9811 204.369 40.222 204.167 40.4434C203.966 40.6647 203.715 40.847 203.415 40.9902C203.123 41.127 202.774 41.1953 202.371 41.1953C201.804 41.1953 201.287 41.0651 200.818 40.8047C200.349 40.5443 199.978 40.1797 199.705 39.7109C199.438 39.2422 199.304 38.6855 199.304 38.041C199.304 37.5072 199.389 37.0254 199.558 36.5957C199.734 36.1595 199.994 35.7917 200.339 35.4922C200.684 35.1862 201.121 34.9518 201.648 34.7891C202.175 34.6263 202.794 34.5449 203.503 34.5449H204.587ZM212.502 26V41H209.758V26H212.502ZM218.141 30.4336V41H215.397V30.4336H218.141ZM215.27 27.6992C215.27 27.276 215.403 26.9277 215.67 26.6543C215.944 26.3743 216.308 26.2344 216.764 26.2344C217.226 26.2344 217.591 26.3743 217.858 26.6543C218.125 26.9277 218.258 27.276 218.258 27.6992C218.258 28.1159 218.121 28.4642 217.848 28.7441C217.581 29.0176 217.223 29.1543 216.774 29.1543C216.311 29.1543 215.944 29.0176 215.67 28.7441C215.403 28.4642 215.27 28.1159 215.27 27.6992ZM223.594 32.6895V41H220.85V30.4336H223.419L223.594 32.6895ZM223.184 35.3555L222.452 35.375C222.439 34.5807 222.514 33.8678 222.676 33.2363C222.846 32.6048 223.083 32.0677 223.389 31.625C223.702 31.1758 224.073 30.834 224.503 30.5996C224.939 30.3587 225.424 30.2383 225.958 30.2383C226.368 30.2383 226.742 30.3099 227.081 30.4531C227.426 30.5964 227.722 30.8242 227.969 31.1367C228.217 31.4492 228.409 31.8659 228.546 32.3867C228.682 32.901 228.751 33.5326 228.751 34.2812V41H226.006V34.2617C226.006 33.806 225.961 33.4544 225.87 33.207C225.779 32.9531 225.642 32.7773 225.46 32.6797C225.277 32.5755 225.049 32.5234 224.776 32.5234C224.516 32.5234 224.284 32.5983 224.083 32.748C223.881 32.8913 223.712 33.0898 223.575 33.3438C223.445 33.5977 223.344 33.8971 223.272 34.2422C223.207 34.5872 223.178 34.9583 223.184 35.3555ZM236.909 30.4336H239.39V41C239.39 41.9635 239.204 42.7513 238.833 43.3633C238.468 43.9818 237.957 44.4342 237.3 44.7207C236.649 45.0137 235.887 45.1602 235.015 45.1602C234.683 45.1602 234.308 45.1146 233.892 45.0234C233.481 44.9323 233.084 44.7923 232.7 44.6035C232.316 44.4212 232 44.1999 231.753 43.9395L232.681 42.0449C232.935 42.2988 233.267 42.5137 233.677 42.6895C234.087 42.8717 234.491 42.9629 234.888 42.9629C235.272 42.9629 235.591 42.901 235.845 42.7773C236.105 42.6602 236.301 42.4583 236.431 42.1719C236.567 41.8854 236.636 41.5013 236.636 41.0195V32.8848L236.909 30.4336ZM231.011 36.0879V35.3848C231.011 34.5254 231.092 33.7734 231.255 33.1289C231.418 32.4844 231.652 31.9473 231.958 31.5176C232.264 31.0879 232.638 30.7689 233.081 30.5605C233.53 30.3457 234.032 30.2383 234.585 30.2383C235.164 30.2383 235.649 30.3652 236.04 30.6191C236.431 30.8665 236.746 31.2148 236.987 31.6641C237.235 32.1133 237.424 32.6439 237.554 33.2559C237.69 33.8678 237.795 34.5384 237.866 35.2676V36.2832C237.795 36.9733 237.677 37.6178 237.515 38.2168C237.358 38.8158 237.15 39.3366 236.89 39.7793C236.629 40.222 236.31 40.5703 235.933 40.8242C235.555 41.0716 235.099 41.1953 234.565 41.1953C234.019 41.1953 233.524 41.0846 233.081 40.8633C232.645 40.6419 232.271 40.3164 231.958 39.8867C231.652 39.4505 231.418 38.9167 231.255 38.2852C231.092 37.6471 231.011 36.9147 231.011 36.0879ZM233.755 35.3848V36.0879C233.755 36.5827 233.784 37.0091 233.843 37.3672C233.908 37.7188 234.006 38.0085 234.136 38.2363C234.266 38.4577 234.432 38.6237 234.634 38.7344C234.842 38.8385 235.086 38.8906 235.366 38.8906C235.763 38.8906 236.079 38.7995 236.314 38.6172C236.554 38.4284 236.73 38.1712 236.841 37.8457C236.958 37.5137 237.023 37.1328 237.036 36.7031V34.8574C237.03 34.4993 236.987 34.1771 236.909 33.8906C236.838 33.6042 236.737 33.36 236.606 33.1582C236.476 32.9564 236.307 32.8001 236.099 32.6895C235.897 32.5788 235.659 32.5234 235.386 32.5234C235.106 32.5234 234.865 32.5788 234.663 32.6895C234.461 32.8001 234.292 32.9727 234.155 33.207C234.025 33.4349 233.924 33.7311 233.853 34.0957C233.787 34.4538 233.755 34.8835 233.755 35.3848Z" fill="#FCFAEE"/>
<path d="M99.8549 64.4093C99.8549 84.5677 83.2039 100.909 62.664 100.909C42.1241 100.909 25.4731 84.5677 25.4731 64.4093C25.4731 44.2509 63.9922 37.0343 62.664 27.9093C61.3358 18.7843 99.8549 44.2509 99.8549 64.4093Z" fill="#D84F52"/>
<path d="M87.9714 66.2003C87.9714 80.1211 76.5423 91.4061 62.4439 91.4061C48.3455 91.4061 36.9165 80.1211 36.9165 66.2003C36.9165 52.2796 47.6852 50.3706 61.7438 50.3706C75.8024 50.3706 87.9714 52.2796 87.9714 66.2003Z" fill="#F99319"/>
<path d="M63.9346 73.9472C63.1964 74.5544 62.1318 74.5544 61.3936 73.9472L61.0655 73.6773C59.6159 72.485 60.459 70.1327 62.336 70.1327H62.9922C64.8691 70.1327 65.7123 72.485 64.2626 73.6773L63.9346 73.9472Z" fill="black"/>
<path d="M52.321 77.7014C52.321 77.1593 52.7606 76.7197 53.3028 76.7197H72.0254C72.5676 76.7197 73.0071 77.1593 73.0071 77.7014C73.0071 83.1233 68.6118 87.5185 63.19 87.5185H62.1382C56.7163 87.5185 52.321 83.1233 52.321 77.7014Z" fill="#FCFAEE"/>
<path d="M77.3589 61.5513L83.4928 59.5481L93.7404 89.773C94.3126 91.4605 93.4033 93.2769 91.7094 93.8301C90.0156 94.3832 88.1787 93.4636 87.6065 91.7761L77.3589 61.5513Z" fill="#5F2E23"/>
<rect width="6.45272" height="3.66054" transform="matrix(0.950595 -0.310433 0.321093 0.947048 76.1836 58.0845)" fill="#DEB364"/>
<path d="M73.8868 41.892C81.3723 39.4474 82.9355 56.6494 82.9355 56.6494L75.8432 58.9656C75.8432 58.9656 67.1779 44.0829 73.8868 41.892Z" fill="black"/>
<path d="M79.5736 44.848C79.9955 46.0925 77.9127 44.8128 75.3719 45.6425C72.8312 46.4723 72.1518 48.0764 71.7299 46.8319C71.3079 45.5874 71.3032 41.9656 73.8439 41.1358C76.3847 40.3061 79.1517 43.6035 79.5736 44.848Z" fill="#F99319"/>
</svg>
