<svg width="94" height="94" viewBox="0 0 94 94" fill="none" xmlns="http://www.w3.org/2000/svg">
<ellipse cx="47" cy="46.9581" rx="47" ry="46.9581" fill="#F99319"/>
<path fill-rule="evenodd" clip-rule="evenodd" d="M33.591 55.7974C31.8351 55.7974 30.4116 57.2208 30.4116 58.9768V76.1212H36.7705L36.7704 76.1211H43.1293V67.291C43.1293 65.5351 41.7058 64.1116 39.9499 64.1116C38.1962 64.1116 36.7741 65.5314 36.7705 67.2842V58.9768C36.7705 57.2208 35.347 55.7974 33.591 55.7974Z" fill="#456824"/>
<path fill-rule="evenodd" clip-rule="evenodd" d="M19.7679 28.6613C19.7679 26.8671 21.2224 25.4126 23.0166 25.4126C24.8109 25.4126 26.2654 26.8671 26.2654 28.6613V34.6259C26.2703 32.8358 27.7229 31.3862 29.5141 31.3862C31.3083 31.3862 32.7628 32.8407 32.7628 34.6349V76.1884L26.2654 76.1884H19.7679L13.2705 76.1884V41.2059C13.2705 39.4117 14.725 37.9572 16.5192 37.9572C18.3105 37.9572 19.7631 39.4069 19.7679 41.197V28.6613Z" fill="#456824"/>
<path fill-rule="evenodd" clip-rule="evenodd" d="M73.7088 36.8026C73.7088 35.0166 72.261 33.5688 70.4751 33.5688C68.6892 33.5688 67.2414 35.0166 67.2414 36.8026V75.9816H73.7088H73.7088H80.1763V47.281C80.1763 45.4951 78.7285 44.0473 76.9425 44.0473C75.1613 44.0473 73.7165 45.4874 73.7088 47.2668V36.8026ZM64.0076 38.5587C65.7936 38.5587 67.2413 40.0065 67.2413 41.7924V75.9817H60.7739V41.7924C60.7739 40.0065 62.2217 38.5587 64.0076 38.5587Z" fill="#456824"/>
<path d="M12.1646 54.4198C12.1646 52.4348 13.7737 50.8257 15.7587 50.8257C17.7436 50.8257 19.3528 52.4348 19.3528 54.4198V76.2383H12.1646V54.4198Z" fill="#FCFAEE"/>
<path d="M22.042 46.4771C22.042 44.5298 23.6206 42.9512 25.5679 42.9512C27.5153 42.9512 29.0939 44.5298 29.0939 46.4771V76.1662H22.042V46.4771Z" fill="#FCFAEE"/>
<rect x="15.9971" y="57.5454" width="7.05189" height="2.51628" fill="#FCFAEE"/>
<rect x="15.9971" y="68.6172" width="7.05189" height="2.51628" fill="#FCFAEE"/>
<path d="M82.252 54.3516C82.252 52.4043 80.6733 50.8257 78.726 50.8257C76.7787 50.8257 75.2001 52.4043 75.2001 54.3516V75.9885H82.252V54.3516Z" fill="#FCFAEE"/>
<path d="M71.4053 46.4771C71.4053 44.5298 69.8267 42.9512 67.8793 42.9512C65.932 42.9512 64.3534 44.5298 64.3534 46.4771V76.1662H71.4053V46.4771Z" fill="#FCFAEE"/>
<rect width="7.0519" height="2.51628" transform="matrix(-1 0 0 1 77.4497 57.5454)" fill="#FCFAEE"/>
<rect width="7.0519" height="2.51628" transform="matrix(-1 0 0 1 77.4497 68.6172)" fill="#FCFAEE"/>
<path fill-rule="evenodd" clip-rule="evenodd" d="M57.3013 22.8207L59.857 22.8207C62.6184 22.8207 64.8569 25.0592 64.8569 27.8207V37.9184H29.0938V27.8207C29.0938 25.0592 31.3324 22.8207 34.0938 22.8207H36.1457C36.1457 17.5398 40.4267 13.2588 45.7076 13.2588H47.7395C53.0203 13.2588 57.3013 17.5398 57.3013 22.8207ZM33.6271 37.9184H29.0938V76.166H33.6271V37.9184ZM60.3236 37.9184V76.166H64.8569V37.9184H60.3236Z" fill="#D84F52"/>
<path d="M38.8267 34.6324H31.2246V32.8682L36.0648 27.4892H32.8836V29.2918H31.2246V25.6962H38.6535V27.4892L33.8042 32.849H37.1586V31.0752H38.8267V34.6324ZM51.1264 29.9534C51.1264 30.6501 51.0201 31.283 50.8074 31.8519C50.6008 32.4208 50.3 32.913 49.905 33.3284C49.5161 33.7375 49.0481 34.0571 48.5013 34.2873C47.9544 34.5174 47.3436 34.6324 46.6691 34.6324C46.0068 34.6324 45.4021 34.5174 44.8552 34.2873C44.3083 34.0571 43.8373 33.7375 43.4423 33.3284C43.0534 32.913 42.7526 32.4208 42.5399 31.8519C42.3333 31.283 42.23 30.6501 42.23 29.9534C42.23 29.2758 42.3333 28.6494 42.5399 28.0741C42.7526 27.4924 43.0534 26.9939 43.4423 26.5784C43.8373 26.1565 44.3083 25.8337 44.8552 25.61C45.4021 25.3799 46.0068 25.2648 46.6691 25.2648C47.3436 25.2648 47.9544 25.3799 48.5013 25.61C49.0481 25.8337 49.5161 26.1565 49.905 26.5784C50.3 26.9939 50.6008 27.4924 50.8074 28.0741C51.0201 28.6494 51.1264 29.2758 51.1264 29.9534ZM49.2487 29.9534C49.2487 29.5507 49.1879 29.1704 49.0663 28.8124C48.9509 28.4481 48.7808 28.138 48.5559 27.8824C48.3311 27.6267 48.0577 27.4253 47.7356 27.2783C47.4196 27.1249 47.0641 27.0482 46.6691 27.0482C46.268 27.0482 45.9095 27.1249 45.5935 27.2783C45.2775 27.4253 45.0101 27.6267 44.7914 27.8824C44.5726 28.138 44.4025 28.4481 44.2809 28.8124C44.1655 29.1704 44.1077 29.5507 44.1077 29.9534C44.1077 30.3753 44.1655 30.7588 44.2809 31.104C44.4025 31.4492 44.5726 31.7528 44.7914 32.0149C45.0101 32.2769 45.2775 32.4815 45.5935 32.6285C45.9095 32.7691 46.268 32.8394 46.6691 32.8394C47.0641 32.8394 47.4196 32.7691 47.7356 32.6285C48.0577 32.4815 48.3311 32.2769 48.5559 32.0149C48.7808 31.7528 48.9509 31.4492 49.0663 31.104C49.1879 30.7588 49.2487 30.3753 49.2487 29.9534ZM62.9176 29.9528C62.9176 30.6495 62.8113 31.2823 62.5987 31.8512C62.3921 32.4201 62.0912 32.9123 61.6962 33.3278C61.3073 33.7369 60.8394 34.0565 60.2925 34.2866C59.7456 34.5167 59.1349 34.6318 58.4604 34.6318C57.798 34.6318 57.1934 34.5167 56.6464 34.2866C56.0995 34.0565 55.6286 33.7369 55.2336 33.3278C54.8446 32.9123 54.5439 32.4201 54.3312 31.8512C54.1246 31.2823 54.0212 30.6495 54.0212 29.9528C54.0212 29.2752 54.1246 28.6488 54.3312 28.0735C54.5439 27.4918 54.8446 26.9932 55.2336 26.5777C55.6286 26.1559 56.0995 25.8331 56.6464 25.6093C57.1934 25.3792 57.798 25.2642 58.4604 25.2642C59.1349 25.2642 59.7456 25.3792 60.2925 25.6093C60.8394 25.8331 61.3073 26.1559 61.6962 26.5777C62.0912 26.9932 62.3921 27.4918 62.5987 28.0735C62.8113 28.6488 62.9176 29.2752 62.9176 29.9528ZM61.04 29.9528C61.04 29.5501 60.9792 29.1697 60.8576 28.8118C60.7422 28.4474 60.572 28.1374 60.3472 27.8817C60.1224 27.626 59.8489 27.4247 59.5269 27.2777C59.2108 27.1243 58.8554 27.0476 58.4604 27.0476C58.0593 27.0476 57.7007 27.1243 57.3848 27.2777C57.0688 27.4247 56.8014 27.626 56.5826 27.8817C56.3639 28.1374 56.1937 28.4474 56.0722 28.8118C55.9567 29.1697 55.899 29.5501 55.899 29.9528C55.899 30.3746 55.9567 30.7582 56.0722 31.1033C56.1937 31.4485 56.3639 31.7521 56.5826 32.0142C56.8014 32.2763 57.0688 32.4808 57.3848 32.6279C57.7007 32.7685 58.0593 32.8388 58.4604 32.8388C58.8554 32.8388 59.2108 32.7685 59.5269 32.6279C59.8489 32.4808 60.1224 32.2763 60.3472 32.0142C60.572 31.7521 60.7422 31.4485 60.8576 31.1033C60.9792 30.7582 61.04 30.3746 61.04 29.9528Z" fill="white"/>
<path d="M46.7237 93.994C28.7532 94.2932 17.6943 83.7737 17.6943 83.7737C38.7353 77.9246 51.9184 78.3713 76.3061 83.7737C76.3061 83.7737 64.6943 93.6948 46.7237 93.994Z" fill="#CC740B"/>
<path d="M25.4351 67.4016C25.4351 65.5693 26.9204 64.084 28.7527 64.084C30.585 64.084 32.0704 65.5693 32.0704 67.4016V76.2378H25.4351V67.4016Z" fill="#598331"/>
<path d="M68.5649 69.6116C68.5649 67.7793 67.0796 66.2939 65.2473 66.2939C63.415 66.2939 61.9296 67.7793 61.9296 69.6116V76.238H68.5649V69.6116Z" fill="#598331"/>
<path d="M74.647 73.4783C74.647 71.646 73.1616 70.1606 71.3293 70.1606C69.497 70.1606 68.0117 71.646 68.0117 73.4783V76.2376H74.647V73.4783Z" fill="#598331"/>
<path d="M30.9648 72.926C30.9648 71.0938 32.4502 69.6084 34.2825 69.6084C36.1148 69.6084 37.6001 71.0938 37.6001 72.926V76.2378H30.9648V72.926Z" fill="#598331"/>
<path d="M63.0352 74.5833C63.0352 72.751 61.5498 71.2656 59.7175 71.2656C57.8852 71.2656 56.3999 72.751 56.3999 74.5833V76.2377H63.0352V74.5833Z" fill="#598331"/>
</svg>
