<svg width="282" height="146" viewBox="0 0 282 146" fill="none" xmlns="http://www.w3.org/2000/svg">
<rect x="0.75" y="145.25" width="144.5" height="280.5" rx="4.25" transform="rotate(-90 0.75 145.25)" fill="#355E50" fill-opacity="0.48" stroke="#013D19" stroke-width="1.5"/>
<path fill-rule="evenodd" clip-rule="evenodd" d="M25.3057 66.7435C18.0159 61.4614 17.0409 49.2718 22.1004 38.1817L18.3988 35.4401L17.8036 36.2437C17.4749 36.6875 16.8487 36.7808 16.4049 36.4521C15.9611 36.1234 15.8678 35.4971 16.1965 35.0533L25.1243 22.9995C25.453 22.5557 26.0793 22.4624 26.5231 22.7912C26.9669 23.1199 27.0602 23.7461 26.7315 24.1899L26.1363 24.9935L29.4654 27.4593C37.9705 18.8804 49.2324 16.5885 56.8295 21.6802L57.994 20.0156C58.3106 19.563 58.9341 19.4528 59.3867 19.7694C59.8392 20.086 59.9494 20.7095 59.6328 21.162L27.4299 67.196H85.6013C86.1535 67.196 86.6013 67.6438 86.6013 68.196C86.6013 68.7483 86.1535 69.196 85.6013 69.196H84.6013V72.196C84.6013 72.5309 84.5907 72.8643 84.57 73.196H88.8688C89.2146 72.5982 89.861 72.196 90.6013 72.196C91.7058 72.196 92.6013 73.0915 92.6013 74.196C92.6013 75.3006 91.7058 76.196 90.6013 76.196C89.861 76.196 89.2146 75.7938 88.8688 75.196H84.3184C83.2786 80.6872 79.4458 85.6061 74.0519 89.0625L83.1355 121.268C83.9807 121.502 84.6013 122.276 84.6013 123.196C84.6013 124.301 83.7058 125.196 82.6013 125.196C81.4967 125.196 80.6013 124.301 80.6013 123.196C80.6013 122.638 80.8301 122.133 81.199 121.77L77.3705 108.196H36.8099L33.7609 117.066C34.8768 117.885 35.6013 119.206 35.6013 120.696C35.6013 123.181 33.5865 125.196 31.1013 125.196C28.616 125.196 26.6013 123.181 26.6013 120.696C26.6013 118.211 28.616 116.196 31.1013 116.196C31.3807 116.196 31.6542 116.221 31.9195 116.27L40.8572 90.2696C34.8936 86.8071 30.8441 81.3624 29.843 75.196H24.3337C23.9879 75.7938 23.3415 76.196 22.6013 76.196C21.4967 76.196 20.6013 75.3006 20.6013 74.196C20.6013 73.0915 21.4967 72.196 22.6013 72.196C23.3415 72.196 23.9879 72.5982 24.3337 73.196H29.6279C29.6102 72.8643 29.6013 72.5309 29.6013 72.196V69.196H25.6013V69.1849C25.5523 69.1922 25.5022 69.1961 25.4513 69.1961C24.899 69.1961 24.4513 68.7483 24.4513 68.1961C24.4513 68.1292 24.4578 68.064 24.4703 68.0008L24.4406 67.9801L24.4952 67.9022C24.5573 67.6996 24.6821 67.5244 24.847 67.3992L25.3057 66.7435ZM37.4974 106.196H76.8064L72.2718 90.1188C67.6103 92.6758 61.9971 94.196 56.1013 94.196C51.1092 94.196 46.5359 93.1062 42.6454 91.22L37.4974 106.196ZM18.994 34.6365L25.5411 25.7971L28.766 28.1857C27.6529 29.3759 26.5919 30.6774 25.5984 32.0875C24.4231 33.7555 23.402 35.4908 22.5361 37.26L18.994 34.6365ZM31.1601 72.196H82.9248L56.1013 72.1961L31.1601 72.196ZM31.1013 118.196C32.482 118.196 33.6013 119.315 33.6013 120.696C33.6013 122.077 32.482 123.196 31.1013 123.196C29.7205 123.196 28.6013 122.077 28.6013 120.696C28.6013 119.315 29.7205 118.196 31.1013 118.196Z" fill="#002A12"/>
<path d="M111.064 59.402V68H110.482C110.39 68 110.312 67.984 110.248 67.952C110.188 67.92 110.128 67.866 110.068 67.79L105.094 61.31C105.102 61.41 105.108 61.508 105.112 61.604C105.116 61.7 105.118 61.79 105.118 61.874V68H104.098V59.402H104.698C104.75 59.402 104.794 59.406 104.83 59.414C104.866 59.418 104.898 59.428 104.926 59.444C104.954 59.456 104.982 59.476 105.01 59.504C105.038 59.528 105.068 59.56 105.1 59.6L110.074 66.074C110.066 65.97 110.058 65.87 110.05 65.774C110.046 65.674 110.044 65.58 110.044 65.492V59.402H111.064ZM117.208 65.264C116.716 65.28 116.296 65.32 115.948 65.384C115.604 65.444 115.322 65.524 115.102 65.624C114.886 65.724 114.728 65.842 114.628 65.978C114.532 66.114 114.484 66.266 114.484 66.434C114.484 66.594 114.51 66.732 114.562 66.848C114.614 66.964 114.684 67.06 114.772 67.136C114.864 67.208 114.97 67.262 115.09 67.298C115.214 67.33 115.346 67.346 115.486 67.346C115.674 67.346 115.846 67.328 116.002 67.292C116.158 67.252 116.304 67.196 116.44 67.124C116.58 67.052 116.712 66.966 116.836 66.866C116.964 66.766 117.088 66.652 117.208 66.524V65.264ZM113.758 62.78C114.094 62.456 114.456 62.214 114.844 62.054C115.232 61.894 115.662 61.814 116.134 61.814C116.474 61.814 116.776 61.87 117.04 61.982C117.304 62.094 117.526 62.25 117.706 62.45C117.886 62.65 118.022 62.892 118.114 63.176C118.206 63.46 118.252 63.772 118.252 64.112V68H117.778C117.674 68 117.594 67.984 117.538 67.952C117.482 67.916 117.438 67.848 117.406 67.748L117.286 67.172C117.126 67.32 116.97 67.452 116.818 67.568C116.666 67.68 116.506 67.776 116.338 67.856C116.17 67.932 115.99 67.99 115.798 68.03C115.61 68.074 115.4 68.096 115.168 68.096C114.932 68.096 114.71 68.064 114.502 68C114.294 67.932 114.112 67.832 113.956 67.7C113.804 67.568 113.682 67.402 113.59 67.202C113.502 66.998 113.458 66.758 113.458 66.482C113.458 66.242 113.524 66.012 113.656 65.792C113.788 65.568 114.002 65.37 114.298 65.198C114.594 65.026 114.98 64.886 115.456 64.778C115.932 64.666 116.516 64.602 117.208 64.586V64.112C117.208 63.64 117.106 63.284 116.902 63.044C116.698 62.8 116.4 62.678 116.008 62.678C115.744 62.678 115.522 62.712 115.342 62.78C115.166 62.844 115.012 62.918 114.88 63.002C114.752 63.082 114.64 63.156 114.544 63.224C114.452 63.288 114.36 63.32 114.268 63.32C114.196 63.32 114.134 63.302 114.082 63.266C114.03 63.226 113.986 63.178 113.95 63.122L113.758 62.78ZM126.038 61.922L123.56 68H122.6L120.122 61.922H120.992C121.08 61.922 121.152 61.944 121.208 61.988C121.264 62.032 121.302 62.084 121.322 62.144L122.864 66.056C122.912 66.204 122.954 66.348 122.99 66.488C123.026 66.628 123.06 66.768 123.092 66.908C123.124 66.768 123.158 66.628 123.194 66.488C123.23 66.348 123.274 66.204 123.326 66.056L124.886 62.144C124.91 62.08 124.95 62.028 125.006 61.988C125.062 61.944 125.128 61.922 125.204 61.922H126.038ZM129.106 62.804C129.238 62.656 129.378 62.522 129.526 62.402C129.674 62.282 129.83 62.18 129.994 62.096C130.162 62.008 130.338 61.942 130.522 61.898C130.71 61.85 130.912 61.826 131.128 61.826C131.46 61.826 131.752 61.882 132.004 61.994C132.26 62.102 132.472 62.258 132.64 62.462C132.812 62.662 132.942 62.904 133.03 63.188C133.118 63.472 133.162 63.786 133.162 64.13V68H132.088V64.13C132.088 63.67 131.982 63.314 131.77 63.062C131.562 62.806 131.244 62.678 130.816 62.678C130.5 62.678 130.204 62.754 129.928 62.906C129.656 63.058 129.404 63.264 129.172 63.524V68H128.098V61.922H128.74C128.892 61.922 128.986 61.996 129.022 62.144L129.106 62.804ZM135.773 67.34C135.773 67.236 135.791 67.138 135.827 67.046C135.867 66.954 135.919 66.874 135.983 66.806C136.051 66.738 136.131 66.684 136.223 66.644C136.315 66.604 136.413 66.584 136.517 66.584C136.621 66.584 136.719 66.604 136.811 66.644C136.903 66.684 136.983 66.738 137.051 66.806C137.119 66.874 137.173 66.954 137.213 67.046C137.253 67.138 137.273 67.236 137.273 67.34C137.273 67.448 137.253 67.548 137.213 67.64C137.173 67.728 137.119 67.806 137.051 67.874C136.983 67.942 136.903 67.994 136.811 68.03C136.719 68.07 136.621 68.09 136.517 68.09C136.413 68.09 136.315 68.07 136.223 68.03C136.131 67.994 136.051 67.942 135.983 67.874C135.919 67.806 135.867 67.728 135.827 67.64C135.791 67.548 135.773 67.448 135.773 67.34ZM135.773 62.84C135.773 62.736 135.791 62.638 135.827 62.546C135.867 62.454 135.919 62.374 135.983 62.306C136.051 62.238 136.131 62.184 136.223 62.144C136.315 62.104 136.413 62.084 136.517 62.084C136.621 62.084 136.719 62.104 136.811 62.144C136.903 62.184 136.983 62.238 137.051 62.306C137.119 62.374 137.173 62.454 137.213 62.546C137.253 62.638 137.273 62.736 137.273 62.84C137.273 62.948 137.253 63.048 137.213 63.14C137.173 63.228 137.119 63.306 137.051 63.374C136.983 63.442 136.903 63.496 136.811 63.536C136.719 63.572 136.621 63.59 136.517 63.59C136.413 63.59 136.315 63.572 136.223 63.536C136.131 63.496 136.051 63.442 135.983 63.374C135.919 63.306 135.867 63.228 135.827 63.14C135.791 63.048 135.773 62.948 135.773 62.84ZM149.229 67.022V68H144.351V59.402H145.509V67.022H149.229ZM153.472 61.826C153.916 61.826 154.316 61.9 154.672 62.048C155.028 62.196 155.332 62.406 155.584 62.678C155.836 62.95 156.028 63.28 156.16 63.668C156.296 64.052 156.364 64.482 156.364 64.958C156.364 65.438 156.296 65.87 156.16 66.254C156.028 66.638 155.836 66.966 155.584 67.238C155.332 67.51 155.028 67.72 154.672 67.868C154.316 68.012 153.916 68.084 153.472 68.084C153.024 68.084 152.62 68.012 152.26 67.868C151.904 67.72 151.6 67.51 151.348 67.238C151.096 66.966 150.902 66.638 150.766 66.254C150.634 65.87 150.568 65.438 150.568 64.958C150.568 64.482 150.634 64.052 150.766 63.668C150.902 63.28 151.096 62.95 151.348 62.678C151.6 62.406 151.904 62.196 152.26 62.048C152.62 61.9 153.024 61.826 153.472 61.826ZM153.472 67.25C154.072 67.25 154.52 67.05 154.816 66.65C155.112 66.246 155.26 65.684 155.26 64.964C155.26 64.24 155.112 63.676 154.816 63.272C154.52 62.868 154.072 62.666 153.472 62.666C153.168 62.666 152.902 62.718 152.674 62.822C152.45 62.926 152.262 63.076 152.11 63.272C151.962 63.468 151.85 63.71 151.774 63.998C151.702 64.282 151.666 64.604 151.666 64.964C151.666 65.684 151.814 66.246 152.11 66.65C152.41 67.05 152.864 67.25 153.472 67.25ZM159.812 63.14C160.004 62.724 160.24 62.4 160.52 62.168C160.8 61.932 161.142 61.814 161.546 61.814C161.674 61.814 161.796 61.828 161.912 61.856C162.032 61.884 162.138 61.928 162.23 61.988L162.152 62.786C162.128 62.886 162.068 62.936 161.972 62.936C161.916 62.936 161.834 62.924 161.726 62.9C161.618 62.876 161.496 62.864 161.36 62.864C161.168 62.864 160.996 62.892 160.844 62.948C160.696 63.004 160.562 63.088 160.442 63.2C160.326 63.308 160.22 63.444 160.124 63.608C160.032 63.768 159.948 63.952 159.872 64.16V68H158.798V61.922H159.41C159.526 61.922 159.606 61.944 159.65 61.988C159.694 62.032 159.724 62.108 159.74 62.216L159.812 63.14ZM168.072 64.298C168.072 64.05 168.036 63.824 167.964 63.62C167.896 63.412 167.794 63.234 167.658 63.086C167.526 62.934 167.364 62.818 167.172 62.738C166.98 62.654 166.762 62.612 166.518 62.612C166.006 62.612 165.6 62.762 165.3 63.062C165.004 63.358 164.82 63.77 164.748 64.298H168.072ZM168.936 67.148C168.804 67.308 168.646 67.448 168.462 67.568C168.278 67.684 168.08 67.78 167.868 67.856C167.66 67.932 167.444 67.988 167.22 68.024C166.996 68.064 166.774 68.084 166.554 68.084C166.134 68.084 165.746 68.014 165.39 67.874C165.038 67.73 164.732 67.522 164.472 67.25C164.216 66.974 164.016 66.634 163.872 66.23C163.728 65.826 163.656 65.362 163.656 64.838C163.656 64.414 163.72 64.018 163.848 63.65C163.98 63.282 164.168 62.964 164.412 62.696C164.656 62.424 164.954 62.212 165.306 62.06C165.658 61.904 166.054 61.826 166.494 61.826C166.858 61.826 167.194 61.888 167.502 62.012C167.814 62.132 168.082 62.308 168.306 62.54C168.534 62.768 168.712 63.052 168.84 63.392C168.968 63.728 169.032 64.112 169.032 64.544C169.032 64.712 169.014 64.824 168.978 64.88C168.942 64.936 168.874 64.964 168.774 64.964H164.712C164.724 65.348 164.776 65.682 164.868 65.966C164.964 66.25 165.096 66.488 165.264 66.68C165.432 66.868 165.632 67.01 165.864 67.106C166.096 67.198 166.356 67.244 166.644 67.244C166.912 67.244 167.142 67.214 167.334 67.154C167.53 67.09 167.698 67.022 167.838 66.95C167.978 66.878 168.094 66.812 168.186 66.752C168.282 66.688 168.364 66.656 168.432 66.656C168.52 66.656 168.588 66.69 168.636 66.758L168.936 67.148ZM171.423 68V61.922H172.065C172.217 61.922 172.311 61.996 172.347 62.144L172.425 62.768C172.649 62.492 172.901 62.266 173.181 62.09C173.461 61.914 173.785 61.826 174.153 61.826C174.561 61.826 174.891 61.94 175.143 62.168C175.399 62.396 175.583 62.704 175.695 63.092C175.783 62.872 175.895 62.682 176.031 62.522C176.171 62.362 176.327 62.23 176.499 62.126C176.671 62.022 176.853 61.946 177.045 61.898C177.241 61.85 177.439 61.826 177.639 61.826C177.959 61.826 178.243 61.878 178.491 61.982C178.743 62.082 178.955 62.23 179.127 62.426C179.303 62.622 179.437 62.864 179.529 63.152C179.621 63.436 179.667 63.762 179.667 64.13V68H178.593V64.13C178.593 63.654 178.489 63.294 178.281 63.05C178.073 62.802 177.773 62.678 177.381 62.678C177.205 62.678 177.037 62.71 176.877 62.774C176.721 62.834 176.583 62.924 176.463 63.044C176.343 63.164 176.247 63.316 176.175 63.5C176.107 63.68 176.073 63.89 176.073 64.13V68H174.999V64.13C174.999 63.642 174.901 63.278 174.705 63.038C174.509 62.798 174.223 62.678 173.847 62.678C173.583 62.678 173.339 62.75 173.115 62.894C172.891 63.034 172.685 63.226 172.497 63.47V68H171.423ZM187.937 68H186.773V59.402H187.937V68ZM191.944 66.536C192.14 66.8 192.354 66.986 192.586 67.094C192.818 67.202 193.078 67.256 193.366 67.256C193.934 67.256 194.37 67.054 194.674 66.65C194.978 66.246 195.13 65.67 195.13 64.922C195.13 64.526 195.094 64.186 195.022 63.902C194.954 63.618 194.854 63.386 194.722 63.206C194.59 63.022 194.428 62.888 194.236 62.804C194.044 62.72 193.826 62.678 193.582 62.678C193.234 62.678 192.928 62.758 192.664 62.918C192.404 63.078 192.164 63.304 191.944 63.596V66.536ZM191.89 62.864C192.146 62.548 192.442 62.294 192.778 62.102C193.114 61.91 193.498 61.814 193.93 61.814C194.282 61.814 194.6 61.882 194.884 62.018C195.168 62.15 195.41 62.348 195.61 62.612C195.81 62.872 195.964 63.196 196.072 63.584C196.18 63.972 196.234 64.418 196.234 64.922C196.234 65.37 196.174 65.788 196.054 66.176C195.934 66.56 195.76 66.894 195.532 67.178C195.308 67.458 195.032 67.68 194.704 67.844C194.38 68.004 194.014 68.084 193.606 68.084C193.234 68.084 192.914 68.022 192.646 67.898C192.382 67.77 192.148 67.594 191.944 67.37V70.058H190.87V61.922H191.512C191.664 61.922 191.758 61.996 191.794 62.144L191.89 62.864ZM202.217 62.924C202.169 63.012 202.095 63.056 201.995 63.056C201.935 63.056 201.867 63.034 201.791 62.99C201.715 62.946 201.621 62.898 201.509 62.846C201.401 62.79 201.271 62.74 201.119 62.696C200.967 62.648 200.787 62.624 200.579 62.624C200.399 62.624 200.237 62.648 200.093 62.696C199.949 62.74 199.825 62.802 199.721 62.882C199.621 62.962 199.543 63.056 199.487 63.164C199.435 63.268 199.409 63.382 199.409 63.506C199.409 63.662 199.453 63.792 199.541 63.896C199.633 64 199.753 64.09 199.901 64.166C200.049 64.242 200.217 64.31 200.405 64.37C200.593 64.426 200.785 64.488 200.981 64.556C201.181 64.62 201.375 64.692 201.563 64.772C201.751 64.852 201.919 64.952 202.067 65.072C202.215 65.192 202.333 65.34 202.421 65.516C202.513 65.688 202.559 65.896 202.559 66.14C202.559 66.42 202.509 66.68 202.409 66.92C202.309 67.156 202.161 67.362 201.965 67.538C201.769 67.71 201.529 67.846 201.245 67.946C200.961 68.046 200.633 68.096 200.261 68.096C199.837 68.096 199.453 68.028 199.109 67.892C198.765 67.752 198.473 67.574 198.233 67.358L198.485 66.95C198.517 66.898 198.555 66.858 198.599 66.83C198.643 66.802 198.699 66.788 198.767 66.788C198.839 66.788 198.915 66.816 198.995 66.872C199.075 66.928 199.171 66.99 199.283 67.058C199.399 67.126 199.539 67.188 199.703 67.244C199.867 67.3 200.071 67.328 200.315 67.328C200.523 67.328 200.705 67.302 200.861 67.25C201.017 67.194 201.147 67.12 201.251 67.028C201.355 66.936 201.431 66.83 201.479 66.71C201.531 66.59 201.557 66.462 201.557 66.326C201.557 66.158 201.511 66.02 201.419 65.912C201.331 65.8 201.213 65.706 201.065 65.63C200.917 65.55 200.747 65.482 200.555 65.426C200.367 65.366 200.173 65.304 199.973 65.24C199.777 65.176 199.583 65.104 199.391 65.024C199.203 64.94 199.035 64.836 198.887 64.712C198.739 64.588 198.619 64.436 198.527 64.256C198.439 64.072 198.395 63.85 198.395 63.59C198.395 63.358 198.443 63.136 198.539 62.924C198.635 62.708 198.775 62.52 198.959 62.36C199.143 62.196 199.369 62.066 199.637 61.97C199.905 61.874 200.211 61.826 200.555 61.826C200.955 61.826 201.313 61.89 201.629 62.018C201.949 62.142 202.225 62.314 202.457 62.534L202.217 62.924ZM209.946 61.922V68H209.31C209.158 68 209.062 67.926 209.022 67.778L208.938 67.124C208.674 67.416 208.378 67.652 208.05 67.832C207.722 68.008 207.346 68.096 206.922 68.096C206.59 68.096 206.296 68.042 206.04 67.934C205.788 67.822 205.576 67.666 205.404 67.466C205.232 67.266 205.102 67.024 205.014 66.74C204.93 66.456 204.888 66.142 204.888 65.798V61.922H205.956V65.798C205.956 66.258 206.06 66.614 206.268 66.866C206.48 67.118 206.802 67.244 207.234 67.244C207.55 67.244 207.844 67.17 208.116 67.022C208.392 66.87 208.646 66.662 208.878 66.398V61.922H209.946ZM212.72 68V61.922H213.362C213.514 61.922 213.608 61.996 213.644 62.144L213.722 62.768C213.946 62.492 214.198 62.266 214.478 62.09C214.758 61.914 215.082 61.826 215.45 61.826C215.858 61.826 216.188 61.94 216.44 62.168C216.696 62.396 216.88 62.704 216.992 63.092C217.08 62.872 217.192 62.682 217.328 62.522C217.468 62.362 217.624 62.23 217.796 62.126C217.968 62.022 218.15 61.946 218.342 61.898C218.538 61.85 218.736 61.826 218.936 61.826C219.256 61.826 219.54 61.878 219.788 61.982C220.04 62.082 220.252 62.23 220.424 62.426C220.6 62.622 220.734 62.864 220.826 63.152C220.918 63.436 220.964 63.762 220.964 64.13V68H219.89V64.13C219.89 63.654 219.786 63.294 219.578 63.05C219.37 62.802 219.07 62.678 218.678 62.678C218.502 62.678 218.334 62.71 218.174 62.774C218.018 62.834 217.88 62.924 217.76 63.044C217.64 63.164 217.544 63.316 217.472 63.5C217.404 63.68 217.37 63.89 217.37 64.13V68H216.296V64.13C216.296 63.642 216.198 63.278 216.002 63.038C215.806 62.798 215.52 62.678 215.144 62.678C214.88 62.678 214.636 62.75 214.412 62.894C214.188 63.034 213.982 63.226 213.794 63.47V68H212.72Z" fill="black"/>
<path d="M108.912 78.38H106.128V86H104.97V78.38H102.18V77.402H108.912V78.38ZM112.109 79.922V86H111.041V79.922H112.109ZM112.337 78.014C112.337 78.118 112.315 78.216 112.271 78.308C112.231 78.396 112.175 78.476 112.103 78.548C112.035 78.616 111.953 78.67 111.857 78.71C111.765 78.75 111.667 78.77 111.563 78.77C111.459 78.77 111.361 78.75 111.269 78.71C111.181 78.67 111.103 78.616 111.035 78.548C110.967 78.476 110.913 78.396 110.873 78.308C110.833 78.216 110.813 78.118 110.813 78.014C110.813 77.91 110.833 77.812 110.873 77.72C110.913 77.624 110.967 77.542 111.035 77.474C111.103 77.402 111.181 77.346 111.269 77.306C111.361 77.266 111.459 77.246 111.563 77.246C111.667 77.246 111.765 77.266 111.857 77.306C111.953 77.346 112.035 77.402 112.103 77.474C112.175 77.542 112.231 77.624 112.271 77.72C112.315 77.812 112.337 77.91 112.337 78.014ZM118.904 81.368C118.704 81.1 118.488 80.914 118.255 80.81C118.024 80.702 117.764 80.648 117.475 80.648C116.911 80.648 116.477 80.85 116.173 81.254C115.869 81.658 115.717 82.234 115.717 82.982C115.717 83.378 115.751 83.718 115.819 84.002C115.887 84.282 115.987 84.514 116.119 84.698C116.251 84.878 116.413 85.01 116.605 85.094C116.797 85.178 117.015 85.22 117.259 85.22C117.611 85.22 117.917 85.14 118.177 84.98C118.442 84.82 118.684 84.594 118.904 84.302V81.368ZM119.972 77.162V86H119.336C119.184 86 119.088 85.926 119.048 85.778L118.951 85.04C118.691 85.352 118.395 85.604 118.063 85.796C117.731 85.988 117.347 86.084 116.911 86.084C116.563 86.084 116.248 86.018 115.963 85.886C115.679 85.75 115.437 85.552 115.237 85.292C115.037 85.032 114.883 84.708 114.775 84.32C114.667 83.932 114.613 83.486 114.613 82.982C114.613 82.534 114.673 82.118 114.793 81.734C114.913 81.346 115.085 81.01 115.309 80.726C115.533 80.442 115.807 80.22 116.131 80.06C116.46 79.896 116.827 79.814 117.235 79.814C117.608 79.814 117.926 79.878 118.19 80.006C118.457 80.13 118.696 80.304 118.904 80.528V77.162H119.972ZM126.278 80.924C126.23 81.012 126.156 81.056 126.056 81.056C125.996 81.056 125.928 81.034 125.852 80.99C125.776 80.946 125.682 80.898 125.57 80.846C125.462 80.79 125.332 80.74 125.18 80.696C125.028 80.648 124.848 80.624 124.64 80.624C124.46 80.624 124.298 80.648 124.154 80.696C124.01 80.74 123.886 80.802 123.782 80.882C123.682 80.962 123.604 81.056 123.548 81.164C123.496 81.268 123.47 81.382 123.47 81.506C123.47 81.662 123.514 81.792 123.602 81.896C123.694 82 123.814 82.09 123.962 82.166C124.11 82.242 124.278 82.31 124.466 82.37C124.654 82.426 124.846 82.488 125.042 82.556C125.242 82.62 125.436 82.692 125.624 82.772C125.812 82.852 125.98 82.952 126.128 83.072C126.276 83.192 126.394 83.34 126.482 83.516C126.574 83.688 126.62 83.896 126.62 84.14C126.62 84.42 126.57 84.68 126.47 84.92C126.37 85.156 126.222 85.362 126.026 85.538C125.83 85.71 125.59 85.846 125.306 85.946C125.022 86.046 124.694 86.096 124.322 86.096C123.898 86.096 123.514 86.028 123.17 85.892C122.826 85.752 122.534 85.574 122.294 85.358L122.546 84.95C122.578 84.898 122.616 84.858 122.66 84.83C122.704 84.802 122.76 84.788 122.828 84.788C122.9 84.788 122.976 84.816 123.056 84.872C123.136 84.928 123.232 84.99 123.344 85.058C123.46 85.126 123.6 85.188 123.764 85.244C123.928 85.3 124.132 85.328 124.376 85.328C124.584 85.328 124.766 85.302 124.922 85.25C125.078 85.194 125.208 85.12 125.312 85.028C125.416 84.936 125.492 84.83 125.54 84.71C125.592 84.59 125.618 84.462 125.618 84.326C125.618 84.158 125.572 84.02 125.48 83.912C125.392 83.8 125.274 83.706 125.126 83.63C124.978 83.55 124.808 83.482 124.616 83.426C124.428 83.366 124.234 83.304 124.034 83.24C123.838 83.176 123.644 83.104 123.452 83.024C123.264 82.94 123.096 82.836 122.948 82.712C122.8 82.588 122.68 82.436 122.588 82.256C122.5 82.072 122.456 81.85 122.456 81.59C122.456 81.358 122.504 81.136 122.6 80.924C122.696 80.708 122.836 80.52 123.02 80.36C123.204 80.196 123.43 80.066 123.698 79.97C123.966 79.874 124.272 79.826 124.616 79.826C125.016 79.826 125.374 79.89 125.69 80.018C126.01 80.142 126.286 80.314 126.518 80.534L126.278 80.924ZM130.084 84.536C130.28 84.8 130.494 84.986 130.726 85.094C130.958 85.202 131.218 85.256 131.506 85.256C132.074 85.256 132.51 85.054 132.814 84.65C133.118 84.246 133.27 83.67 133.27 82.922C133.27 82.526 133.234 82.186 133.162 81.902C133.094 81.618 132.994 81.386 132.862 81.206C132.73 81.022 132.568 80.888 132.376 80.804C132.184 80.72 131.966 80.678 131.722 80.678C131.374 80.678 131.068 80.758 130.804 80.918C130.544 81.078 130.304 81.304 130.084 81.596V84.536ZM130.03 80.864C130.286 80.548 130.582 80.294 130.918 80.102C131.254 79.91 131.638 79.814 132.07 79.814C132.422 79.814 132.74 79.882 133.024 80.018C133.308 80.15 133.55 80.348 133.75 80.612C133.95 80.872 134.104 81.196 134.212 81.584C134.32 81.972 134.374 82.418 134.374 82.922C134.374 83.37 134.314 83.788 134.194 84.176C134.074 84.56 133.9 84.894 133.672 85.178C133.448 85.458 133.172 85.68 132.844 85.844C132.52 86.004 132.154 86.084 131.746 86.084C131.374 86.084 131.054 86.022 130.786 85.898C130.522 85.77 130.288 85.594 130.084 85.37V88.058H129.01V79.922H129.652C129.804 79.922 129.898 79.996 129.934 80.144L130.03 80.864ZM141.814 79.922V86H141.178C141.026 86 140.93 85.926 140.89 85.778L140.806 85.124C140.542 85.416 140.246 85.652 139.918 85.832C139.59 86.008 139.214 86.096 138.79 86.096C138.458 86.096 138.164 86.042 137.908 85.934C137.656 85.822 137.444 85.666 137.272 85.466C137.1 85.266 136.97 85.024 136.882 84.74C136.798 84.456 136.756 84.142 136.756 83.798V79.922H137.824V83.798C137.824 84.258 137.928 84.614 138.136 84.866C138.348 85.118 138.67 85.244 139.102 85.244C139.418 85.244 139.712 85.17 139.984 85.022C140.26 84.87 140.514 84.662 140.746 84.398V79.922H141.814ZM145.596 80.804C145.728 80.656 145.868 80.522 146.016 80.402C146.164 80.282 146.32 80.18 146.484 80.096C146.652 80.008 146.828 79.942 147.012 79.898C147.2 79.85 147.402 79.826 147.618 79.826C147.95 79.826 148.242 79.882 148.494 79.994C148.75 80.102 148.962 80.258 149.13 80.462C149.302 80.662 149.432 80.904 149.52 81.188C149.608 81.472 149.652 81.786 149.652 82.13V86H148.578V82.13C148.578 81.67 148.472 81.314 148.26 81.062C148.052 80.806 147.734 80.678 147.306 80.678C146.99 80.678 146.694 80.754 146.418 80.906C146.146 81.058 145.894 81.264 145.662 81.524V86H144.588V79.922H145.23C145.382 79.922 145.476 79.996 145.512 80.144L145.596 80.804ZM153.433 77.162V82.364H153.709C153.789 82.364 153.855 82.354 153.907 82.334C153.963 82.31 154.021 82.264 154.081 82.196L156.001 80.138C156.057 80.07 156.115 80.018 156.175 79.982C156.239 79.942 156.323 79.922 156.427 79.922H157.393L155.155 82.304C155.047 82.44 154.931 82.546 154.807 82.622C154.879 82.67 154.943 82.726 154.999 82.79C155.059 82.85 155.115 82.92 155.167 83L157.543 86H156.589C156.497 86 156.417 85.986 156.349 85.958C156.285 85.926 156.229 85.87 156.181 85.79L154.183 83.3C154.123 83.216 154.063 83.162 154.003 83.138C153.947 83.11 153.859 83.096 153.739 83.096H153.433V86H152.359V77.162H153.433ZM161.399 86.096C160.919 86.096 160.549 85.962 160.289 85.694C160.033 85.426 159.905 85.04 159.905 84.536V80.816H159.173C159.109 80.816 159.055 80.798 159.011 80.762C158.967 80.722 158.945 80.662 158.945 80.582V80.156L159.941 80.03L160.187 78.152C160.199 78.092 160.225 78.044 160.265 78.008C160.309 77.968 160.365 77.948 160.433 77.948H160.973V80.042H162.731V80.816H160.973V84.464C160.973 84.72 161.035 84.91 161.159 85.034C161.283 85.158 161.443 85.22 161.639 85.22C161.751 85.22 161.847 85.206 161.927 85.178C162.011 85.146 162.083 85.112 162.143 85.076C162.203 85.04 162.253 85.008 162.293 84.98C162.337 84.948 162.375 84.932 162.407 84.932C162.463 84.932 162.513 84.966 162.557 85.034L162.869 85.544C162.685 85.716 162.463 85.852 162.203 85.952C161.943 86.048 161.675 86.096 161.399 86.096ZM164.818 85.34C164.818 85.236 164.836 85.138 164.872 85.046C164.912 84.954 164.964 84.874 165.028 84.806C165.096 84.738 165.176 84.684 165.268 84.644C165.36 84.604 165.458 84.584 165.562 84.584C165.666 84.584 165.764 84.604 165.856 84.644C165.948 84.684 166.028 84.738 166.096 84.806C166.164 84.874 166.218 84.954 166.258 85.046C166.298 85.138 166.318 85.236 166.318 85.34C166.318 85.448 166.298 85.548 166.258 85.64C166.218 85.728 166.164 85.806 166.096 85.874C166.028 85.942 165.948 85.994 165.856 86.03C165.764 86.07 165.666 86.09 165.562 86.09C165.458 86.09 165.36 86.07 165.268 86.03C165.176 85.994 165.096 85.942 165.028 85.874C164.964 85.806 164.912 85.728 164.872 85.64C164.836 85.548 164.818 85.448 164.818 85.34ZM164.818 80.84C164.818 80.736 164.836 80.638 164.872 80.546C164.912 80.454 164.964 80.374 165.028 80.306C165.096 80.238 165.176 80.184 165.268 80.144C165.36 80.104 165.458 80.084 165.562 80.084C165.666 80.084 165.764 80.104 165.856 80.144C165.948 80.184 166.028 80.238 166.096 80.306C166.164 80.374 166.218 80.454 166.258 80.546C166.298 80.638 166.318 80.736 166.318 80.84C166.318 80.948 166.298 81.048 166.258 81.14C166.218 81.228 166.164 81.306 166.096 81.374C166.028 81.442 165.948 81.496 165.856 81.536C165.764 81.572 165.666 81.59 165.562 81.59C165.458 81.59 165.36 81.572 165.268 81.536C165.176 81.496 165.096 81.442 165.028 81.374C164.964 81.306 164.912 81.228 164.872 81.14C164.836 81.048 164.818 80.948 164.818 80.84ZM178.406 85.184V86H173.798V85.184H175.64V79.322C175.64 79.146 175.646 78.968 175.658 78.788L174.128 80.102C174.076 80.146 174.024 80.174 173.972 80.186C173.92 80.194 173.872 80.194 173.828 80.186C173.784 80.178 173.742 80.162 173.702 80.138C173.666 80.114 173.638 80.088 173.618 80.06L173.282 79.598L175.844 77.384H176.714V85.184H178.406ZM181.119 79.73C181.175 79.338 181.283 78.992 181.443 78.692C181.603 78.388 181.805 78.134 182.049 77.93C182.297 77.726 182.579 77.572 182.895 77.468C183.215 77.36 183.559 77.306 183.927 77.306C184.291 77.306 184.627 77.358 184.935 77.462C185.243 77.566 185.507 77.714 185.727 77.906C185.951 78.098 186.125 78.33 186.249 78.602C186.373 78.874 186.435 79.176 186.435 79.508C186.435 79.78 186.399 80.024 186.327 80.24C186.259 80.452 186.159 80.638 186.027 80.798C185.899 80.958 185.743 81.094 185.559 81.206C185.375 81.318 185.169 81.41 184.941 81.482C185.501 81.626 185.921 81.874 186.201 82.226C186.485 82.574 186.627 83.01 186.627 83.534C186.627 83.93 186.551 84.286 186.399 84.602C186.251 84.918 186.047 85.188 185.787 85.412C185.527 85.632 185.223 85.802 184.875 85.922C184.531 86.038 184.161 86.096 183.765 86.096C183.309 86.096 182.919 86.04 182.595 85.928C182.271 85.812 181.997 85.654 181.773 85.454C181.549 85.254 181.365 85.018 181.221 84.746C181.077 84.47 180.955 84.172 180.855 83.852L181.317 83.66C181.437 83.608 181.553 83.594 181.665 83.618C181.781 83.642 181.865 83.708 181.917 83.816C181.969 83.928 182.033 84.062 182.109 84.218C182.189 84.374 182.297 84.524 182.433 84.668C182.569 84.812 182.741 84.934 182.949 85.034C183.161 85.134 183.429 85.184 183.753 85.184C184.053 85.184 184.315 85.136 184.539 85.04C184.767 84.94 184.955 84.812 185.103 84.656C185.255 84.5 185.369 84.326 185.445 84.134C185.521 83.942 185.559 83.752 185.559 83.564C185.559 83.332 185.529 83.12 185.469 82.928C185.409 82.736 185.297 82.57 185.133 82.43C184.969 82.29 184.743 82.18 184.455 82.1C184.171 82.02 183.805 81.98 183.357 81.98V81.206C183.725 81.202 184.037 81.162 184.293 81.086C184.553 81.01 184.763 80.906 184.923 80.774C185.087 80.642 185.205 80.484 185.277 80.3C185.353 80.116 185.391 79.912 185.391 79.688C185.391 79.44 185.351 79.224 185.271 79.04C185.195 78.856 185.089 78.704 184.953 78.584C184.817 78.464 184.655 78.374 184.467 78.314C184.283 78.254 184.083 78.224 183.867 78.224C183.651 78.224 183.449 78.256 183.261 78.32C183.077 78.384 182.913 78.474 182.769 78.59C182.629 78.702 182.511 78.836 182.415 78.992C182.319 79.148 182.251 79.32 182.211 79.508C182.159 79.648 182.093 79.742 182.013 79.79C181.937 79.834 181.825 79.846 181.677 79.826L181.119 79.73ZM189.13 85.34C189.13 85.236 189.148 85.138 189.184 85.046C189.224 84.954 189.276 84.874 189.34 84.806C189.408 84.738 189.488 84.684 189.58 84.644C189.672 84.604 189.77 84.584 189.874 84.584C189.978 84.584 190.076 84.604 190.168 84.644C190.26 84.684 190.34 84.738 190.408 84.806C190.476 84.874 190.53 84.954 190.57 85.046C190.61 85.138 190.63 85.236 190.63 85.34C190.63 85.448 190.61 85.548 190.57 85.64C190.53 85.728 190.476 85.806 190.408 85.874C190.34 85.942 190.26 85.994 190.168 86.03C190.076 86.07 189.978 86.09 189.874 86.09C189.77 86.09 189.672 86.07 189.58 86.03C189.488 85.994 189.408 85.942 189.34 85.874C189.276 85.806 189.224 85.728 189.184 85.64C189.148 85.548 189.13 85.448 189.13 85.34ZM189.13 80.84C189.13 80.736 189.148 80.638 189.184 80.546C189.224 80.454 189.276 80.374 189.34 80.306C189.408 80.238 189.488 80.184 189.58 80.144C189.672 80.104 189.77 80.084 189.874 80.084C189.978 80.084 190.076 80.104 190.168 80.144C190.26 80.184 190.34 80.238 190.408 80.306C190.476 80.374 190.53 80.454 190.57 80.546C190.61 80.638 190.63 80.736 190.63 80.84C190.63 80.948 190.61 81.048 190.57 81.14C190.53 81.228 190.476 81.306 190.408 81.374C190.34 81.442 190.26 81.496 190.168 81.536C190.076 81.572 189.978 81.59 189.874 81.59C189.77 81.59 189.672 81.572 189.58 81.536C189.488 81.496 189.408 81.442 189.34 81.374C189.276 81.306 189.224 81.228 189.184 81.14C189.148 81.048 189.13 80.948 189.13 80.84ZM198.568 85.184V86H193.96V85.184H195.802V79.322C195.802 79.146 195.808 78.968 195.82 78.788L194.29 80.102C194.238 80.146 194.186 80.174 194.134 80.186C194.082 80.194 194.034 80.194 193.99 80.186C193.946 80.178 193.904 80.162 193.864 80.138C193.828 80.114 193.8 80.088 193.78 80.06L193.444 79.598L196.006 77.384H196.876V85.184H198.568ZM202.673 80.648C203.121 80.552 203.533 80.504 203.909 80.504C204.357 80.504 204.753 80.57 205.097 80.702C205.441 80.834 205.727 81.016 205.955 81.248C206.187 81.48 206.361 81.754 206.477 82.07C206.597 82.386 206.657 82.73 206.657 83.102C206.657 83.558 206.577 83.97 206.417 84.338C206.261 84.706 206.043 85.022 205.763 85.286C205.487 85.546 205.161 85.746 204.785 85.886C204.409 86.026 204.003 86.096 203.567 86.096C203.315 86.096 203.073 86.07 202.841 86.018C202.609 85.97 202.391 85.904 202.187 85.82C201.987 85.736 201.801 85.64 201.629 85.532C201.457 85.424 201.305 85.31 201.173 85.19L201.503 84.734C201.575 84.63 201.669 84.578 201.785 84.578C201.865 84.578 201.955 84.61 202.055 84.674C202.155 84.734 202.277 84.802 202.421 84.878C202.565 84.954 202.733 85.024 202.925 85.088C203.121 85.148 203.353 85.178 203.621 85.178C203.921 85.178 204.191 85.13 204.431 85.034C204.671 84.938 204.877 84.802 205.049 84.626C205.221 84.446 205.353 84.232 205.445 83.984C205.537 83.736 205.583 83.458 205.583 83.15C205.583 82.882 205.543 82.64 205.463 82.424C205.387 82.208 205.269 82.024 205.109 81.872C204.953 81.72 204.757 81.602 204.521 81.518C204.285 81.434 204.009 81.392 203.693 81.392C203.477 81.392 203.251 81.41 203.015 81.446C202.783 81.482 202.545 81.54 202.301 81.62L201.629 81.422L202.319 77.402H206.393V77.87C206.393 78.022 206.345 78.148 206.249 78.248C206.157 78.344 205.997 78.392 205.769 78.392H203.069L202.673 80.648ZM213.442 81.95H216.406V82.856H213.442V81.95ZM228.483 85.184V86H223.875V85.184H225.717V79.322C225.717 79.146 225.723 78.968 225.735 78.788L224.205 80.102C224.153 80.146 224.101 80.174 224.049 80.186C223.997 80.194 223.949 80.194 223.905 80.186C223.861 80.178 223.819 80.162 223.779 80.138C223.743 80.114 223.715 80.088 223.695 80.06L223.359 79.598L225.921 77.384H226.791V85.184H228.483ZM231.196 79.73C231.252 79.338 231.36 78.992 231.52 78.692C231.68 78.388 231.882 78.134 232.126 77.93C232.374 77.726 232.656 77.572 232.972 77.468C233.292 77.36 233.636 77.306 234.004 77.306C234.368 77.306 234.704 77.358 235.012 77.462C235.32 77.566 235.584 77.714 235.804 77.906C236.028 78.098 236.202 78.33 236.326 78.602C236.45 78.874 236.512 79.176 236.512 79.508C236.512 79.78 236.476 80.024 236.404 80.24C236.336 80.452 236.236 80.638 236.104 80.798C235.976 80.958 235.82 81.094 235.636 81.206C235.452 81.318 235.246 81.41 235.018 81.482C235.578 81.626 235.998 81.874 236.278 82.226C236.562 82.574 236.704 83.01 236.704 83.534C236.704 83.93 236.628 84.286 236.476 84.602C236.328 84.918 236.124 85.188 235.864 85.412C235.604 85.632 235.3 85.802 234.952 85.922C234.608 86.038 234.238 86.096 233.842 86.096C233.386 86.096 232.996 86.04 232.672 85.928C232.348 85.812 232.074 85.654 231.85 85.454C231.626 85.254 231.442 85.018 231.298 84.746C231.154 84.47 231.032 84.172 230.932 83.852L231.394 83.66C231.514 83.608 231.63 83.594 231.742 83.618C231.858 83.642 231.942 83.708 231.994 83.816C232.046 83.928 232.11 84.062 232.186 84.218C232.266 84.374 232.374 84.524 232.51 84.668C232.646 84.812 232.818 84.934 233.026 85.034C233.238 85.134 233.506 85.184 233.83 85.184C234.13 85.184 234.392 85.136 234.616 85.04C234.844 84.94 235.032 84.812 235.18 84.656C235.332 84.5 235.446 84.326 235.522 84.134C235.598 83.942 235.636 83.752 235.636 83.564C235.636 83.332 235.606 83.12 235.546 82.928C235.486 82.736 235.374 82.57 235.21 82.43C235.046 82.29 234.82 82.18 234.532 82.1C234.248 82.02 233.882 81.98 233.434 81.98V81.206C233.802 81.202 234.114 81.162 234.37 81.086C234.63 81.01 234.84 80.906 235 80.774C235.164 80.642 235.282 80.484 235.354 80.3C235.43 80.116 235.468 79.912 235.468 79.688C235.468 79.44 235.428 79.224 235.348 79.04C235.272 78.856 235.166 78.704 235.03 78.584C234.894 78.464 234.732 78.374 234.544 78.314C234.36 78.254 234.16 78.224 233.944 78.224C233.728 78.224 233.526 78.256 233.338 78.32C233.154 78.384 232.99 78.474 232.846 78.59C232.706 78.702 232.588 78.836 232.492 78.992C232.396 79.148 232.328 79.32 232.288 79.508C232.236 79.648 232.17 79.742 232.09 79.79C232.014 79.834 231.902 79.846 231.754 79.826L231.196 79.73ZM239.207 85.34C239.207 85.236 239.225 85.138 239.261 85.046C239.301 84.954 239.353 84.874 239.417 84.806C239.485 84.738 239.565 84.684 239.657 84.644C239.749 84.604 239.847 84.584 239.951 84.584C240.055 84.584 240.153 84.604 240.245 84.644C240.337 84.684 240.417 84.738 240.485 84.806C240.553 84.874 240.607 84.954 240.647 85.046C240.687 85.138 240.707 85.236 240.707 85.34C240.707 85.448 240.687 85.548 240.647 85.64C240.607 85.728 240.553 85.806 240.485 85.874C240.417 85.942 240.337 85.994 240.245 86.03C240.153 86.07 240.055 86.09 239.951 86.09C239.847 86.09 239.749 86.07 239.657 86.03C239.565 85.994 239.485 85.942 239.417 85.874C239.353 85.806 239.301 85.728 239.261 85.64C239.225 85.548 239.207 85.448 239.207 85.34ZM239.207 80.84C239.207 80.736 239.225 80.638 239.261 80.546C239.301 80.454 239.353 80.374 239.417 80.306C239.485 80.238 239.565 80.184 239.657 80.144C239.749 80.104 239.847 80.084 239.951 80.084C240.055 80.084 240.153 80.104 240.245 80.144C240.337 80.184 240.417 80.238 240.485 80.306C240.553 80.374 240.607 80.454 240.647 80.546C240.687 80.638 240.707 80.736 240.707 80.84C240.707 80.948 240.687 81.048 240.647 81.14C240.607 81.228 240.553 81.306 240.485 81.374C240.417 81.442 240.337 81.496 240.245 81.536C240.153 81.572 240.055 81.59 239.951 81.59C239.847 81.59 239.749 81.572 239.657 81.536C239.565 81.496 239.485 81.442 239.417 81.374C239.353 81.306 239.301 81.228 239.261 81.14C239.225 81.048 239.207 80.948 239.207 80.84ZM246.917 82.898V79.352C246.917 79.248 246.921 79.134 246.929 79.01C246.937 78.886 246.949 78.76 246.965 78.632L243.833 82.898H246.917ZM249.155 82.898V83.51C249.155 83.574 249.135 83.628 249.095 83.672C249.059 83.716 249.001 83.738 248.921 83.738H247.853V86H246.917V83.738H243.101C243.021 83.738 242.951 83.716 242.891 83.672C242.835 83.624 242.799 83.566 242.783 83.498L242.675 82.952L246.857 77.402H247.853V82.898H249.155ZM252.75 80.648C253.198 80.552 253.61 80.504 253.986 80.504C254.434 80.504 254.83 80.57 255.174 80.702C255.518 80.834 255.804 81.016 256.032 81.248C256.264 81.48 256.438 81.754 256.554 82.07C256.674 82.386 256.734 82.73 256.734 83.102C256.734 83.558 256.654 83.97 256.494 84.338C256.338 84.706 256.12 85.022 255.84 85.286C255.564 85.546 255.238 85.746 254.862 85.886C254.486 86.026 254.08 86.096 253.644 86.096C253.392 86.096 253.15 86.07 252.918 86.018C252.686 85.97 252.468 85.904 252.264 85.82C252.064 85.736 251.878 85.64 251.706 85.532C251.534 85.424 251.382 85.31 251.25 85.19L251.58 84.734C251.652 84.63 251.746 84.578 251.862 84.578C251.942 84.578 252.032 84.61 252.132 84.674C252.232 84.734 252.354 84.802 252.498 84.878C252.642 84.954 252.81 85.024 253.002 85.088C253.198 85.148 253.43 85.178 253.698 85.178C253.998 85.178 254.268 85.13 254.508 85.034C254.748 84.938 254.954 84.802 255.126 84.626C255.298 84.446 255.43 84.232 255.522 83.984C255.614 83.736 255.66 83.458 255.66 83.15C255.66 82.882 255.62 82.64 255.54 82.424C255.464 82.208 255.346 82.024 255.186 81.872C255.03 81.72 254.834 81.602 254.598 81.518C254.362 81.434 254.086 81.392 253.77 81.392C253.554 81.392 253.328 81.41 253.092 81.446C252.86 81.482 252.622 81.54 252.378 81.62L251.706 81.422L252.396 77.402H256.47V77.87C256.47 78.022 256.422 78.148 256.326 78.248C256.234 78.344 256.074 78.392 255.846 78.392H253.146L252.75 80.648Z" fill="black"/>
<path d="M117.56 33.6625V40.39C116.716 41.011 115.815 41.4672 114.857 41.7585C113.906 42.0422 112.887 42.184 111.798 42.184C110.441 42.184 109.211 41.9732 108.107 41.5515C107.01 41.1298 106.071 40.5433 105.289 39.792C104.515 39.0407 103.917 38.1437 103.495 37.101C103.073 36.0583 102.863 34.9198 102.863 33.6855C102.863 32.4358 103.066 31.2897 103.472 30.247C103.878 29.2043 104.453 28.3073 105.197 27.556C105.948 26.8047 106.857 26.222 107.923 25.808C108.988 25.394 110.184 25.187 111.511 25.187C112.185 25.187 112.814 25.2407 113.397 25.348C113.987 25.4553 114.531 25.6048 115.03 25.7965C115.536 25.9805 115.996 26.2067 116.41 26.475C116.824 26.7433 117.203 27.0385 117.548 27.3605L116.663 28.7635C116.525 28.9858 116.344 29.1238 116.122 29.1775C115.9 29.2235 115.658 29.166 115.398 29.005C115.145 28.8593 114.892 28.7137 114.639 28.568C114.386 28.4223 114.102 28.2958 113.788 28.1885C113.481 28.0812 113.132 27.993 112.741 27.924C112.358 27.855 111.913 27.8205 111.407 27.8205C110.587 27.8205 109.843 27.9585 109.176 28.2345C108.517 28.5105 107.953 28.9053 107.486 29.419C107.018 29.9327 106.658 30.5498 106.405 31.2705C106.152 31.9912 106.025 32.7962 106.025 33.6855C106.025 34.6362 106.159 35.4872 106.428 36.2385C106.704 36.9822 107.087 37.6147 107.578 38.136C108.076 38.6497 108.674 39.0445 109.372 39.3205C110.069 39.5888 110.847 39.723 111.706 39.723C112.319 39.723 112.868 39.6578 113.351 39.5275C113.834 39.3972 114.305 39.2208 114.765 38.9985V35.9855H112.672C112.473 35.9855 112.316 35.9318 112.201 35.8245C112.093 35.7095 112.04 35.5715 112.04 35.4105V33.6625H117.56ZM123.281 32.248C123.649 31.5427 124.086 30.9907 124.592 30.592C125.098 30.1857 125.696 29.9825 126.386 29.9825C126.931 29.9825 127.368 30.1013 127.697 30.339L127.513 32.4665C127.475 32.6045 127.417 32.7042 127.341 32.7655C127.272 32.8192 127.176 32.846 127.053 32.846C126.938 32.846 126.766 32.8268 126.536 32.7885C126.313 32.7502 126.095 32.731 125.88 32.731C125.566 32.731 125.286 32.777 125.041 32.869C124.795 32.961 124.573 33.0952 124.374 33.2715C124.182 33.4402 124.01 33.6472 123.856 33.8925C123.711 34.1378 123.573 34.4177 123.442 34.732V42H120.602V30.201H122.269C122.561 30.201 122.764 30.2547 122.879 30.362C122.994 30.4617 123.07 30.6457 123.109 30.914L123.281 32.248ZM132.816 30.201V42H129.964V30.201H132.816ZM133.207 26.7625C133.207 27.0078 133.157 27.2378 133.057 27.4525C132.958 27.6672 132.824 27.855 132.655 28.016C132.494 28.177 132.302 28.3073 132.08 28.407C131.858 28.499 131.62 28.545 131.367 28.545C131.122 28.545 130.888 28.499 130.665 28.407C130.451 28.3073 130.263 28.177 130.102 28.016C129.941 27.855 129.811 27.6672 129.711 27.4525C129.619 27.2378 129.573 27.0078 129.573 26.7625C129.573 26.5095 129.619 26.2718 129.711 26.0495C129.811 25.8272 129.941 25.6355 130.102 25.4745C130.263 25.3135 130.451 25.187 130.665 25.095C130.888 24.9953 131.122 24.9455 131.367 24.9455C131.62 24.9455 131.858 24.9953 132.08 25.095C132.302 25.187 132.494 25.3135 132.655 25.4745C132.824 25.6355 132.958 25.8272 133.057 26.0495C133.157 26.2718 133.207 26.5095 133.207 26.7625ZM139.277 24.911V42H136.436V24.911H139.277ZM145.672 24.911V42H142.831V24.911H145.672ZM152.032 38.941C152.354 39.332 152.703 39.608 153.079 39.769C153.462 39.93 153.876 40.0105 154.321 40.0105C154.75 40.0105 155.137 39.93 155.482 39.769C155.827 39.608 156.119 39.3627 156.356 39.033C156.602 38.7033 156.79 38.2893 156.92 37.791C157.05 37.285 157.115 36.6908 157.115 36.0085C157.115 35.3185 157.058 34.7358 156.943 34.2605C156.836 33.7775 156.678 33.3865 156.471 33.0875C156.264 32.7885 156.011 32.57 155.712 32.432C155.421 32.294 155.088 32.225 154.712 32.225C154.122 32.225 153.619 32.3515 153.205 32.6045C152.791 32.8498 152.4 33.1987 152.032 33.651V38.941ZM151.883 31.811C152.366 31.2667 152.914 30.8258 153.527 30.4885C154.141 30.1512 154.861 29.9825 155.689 29.9825C156.333 29.9825 156.92 30.1167 157.449 30.385C157.986 30.6533 158.446 31.0443 158.829 31.558C159.22 32.064 159.519 32.6927 159.726 33.444C159.941 34.1877 160.048 35.0425 160.048 36.0085C160.048 36.8902 159.929 37.7067 159.691 38.458C159.454 39.2093 159.113 39.861 158.668 40.413C158.231 40.965 157.698 41.3982 157.069 41.7125C156.448 42.0192 155.751 42.1725 154.976 42.1725C154.317 42.1725 153.754 42.0728 153.286 41.8735C152.818 41.6665 152.4 41.3828 152.032 41.0225V45.8525H149.192V30.201H150.928C151.296 30.201 151.538 30.3735 151.653 30.7185L151.883 31.811ZM165.829 24.911V42H162.989V24.911H165.829ZM175.582 36.963C174.762 37.0013 174.072 37.0742 173.512 37.1815C172.953 37.2812 172.504 37.4115 172.167 37.5725C171.829 37.7335 171.588 37.9213 171.442 38.136C171.297 38.3507 171.224 38.5845 171.224 38.8375C171.224 39.3358 171.369 39.6923 171.661 39.907C171.96 40.1217 172.347 40.229 172.822 40.229C173.405 40.229 173.907 40.1255 174.329 39.9185C174.758 39.7038 175.176 39.3818 175.582 38.9525V36.963ZM169.073 31.8455C170.43 30.6035 172.063 29.9825 173.972 29.9825C174.662 29.9825 175.279 30.0975 175.824 30.3275C176.368 30.5498 176.828 30.8642 177.204 31.2705C177.579 31.6692 177.863 32.1483 178.055 32.708C178.254 33.2677 178.354 33.881 178.354 34.548V42H177.066C176.797 42 176.59 41.9617 176.445 41.885C176.299 41.8007 176.184 41.6358 176.1 41.3905L175.847 40.5395C175.548 40.8078 175.256 41.0455 174.973 41.2525C174.689 41.4518 174.394 41.6205 174.087 41.7585C173.781 41.8965 173.451 42 173.098 42.069C172.753 42.1457 172.37 42.184 171.948 42.184C171.45 42.184 170.99 42.1188 170.568 41.9885C170.147 41.8505 169.782 41.6473 169.476 41.379C169.169 41.1107 168.931 40.7772 168.763 40.3785C168.594 39.9798 168.51 39.516 168.51 38.987C168.51 38.688 168.56 38.3928 168.659 38.1015C168.759 37.8025 168.92 37.5188 169.142 37.2505C169.372 36.9822 169.667 36.7292 170.028 36.4915C170.388 36.2538 170.829 36.0468 171.35 35.8705C171.879 35.6942 172.493 35.5523 173.19 35.445C173.888 35.33 174.685 35.261 175.582 35.238V34.548C175.582 33.7583 175.414 33.1757 175.076 32.8C174.739 32.4167 174.252 32.225 173.616 32.225C173.156 32.225 172.772 32.2787 172.466 32.386C172.167 32.4933 171.902 32.616 171.672 32.754C171.442 32.8843 171.231 33.0032 171.04 33.1105C170.856 33.2178 170.649 33.2715 170.419 33.2715C170.219 33.2715 170.051 33.2217 169.913 33.122C169.775 33.0147 169.664 32.892 169.579 32.754L169.073 31.8455ZM189.125 33.214C188.803 32.823 188.45 32.547 188.067 32.386C187.691 32.225 187.285 32.1445 186.848 32.1445C186.419 32.1445 186.031 32.225 185.686 32.386C185.341 32.547 185.046 32.7923 184.801 33.122C184.556 33.444 184.368 33.858 184.237 34.364C184.107 34.8623 184.042 35.4527 184.042 36.135C184.042 36.825 184.096 37.4115 184.203 37.8945C184.318 38.3698 184.479 38.7608 184.686 39.0675C184.893 39.3665 185.146 39.585 185.445 39.723C185.744 39.8533 186.077 39.9185 186.445 39.9185C187.036 39.9185 187.538 39.7958 187.952 39.5505C188.366 39.3052 188.757 38.9563 189.125 38.504V33.214ZM191.965 24.911V42H190.229C189.853 42 189.616 41.8275 189.516 41.4825L189.274 40.344C188.799 40.8883 188.251 41.3292 187.63 41.6665C187.017 42.0038 186.3 42.1725 185.479 42.1725C184.835 42.1725 184.245 42.0383 183.708 41.77C183.172 41.5017 182.708 41.1145 182.317 40.6085C181.934 40.0948 181.635 39.4623 181.42 38.711C181.213 37.9597 181.109 37.101 181.109 36.135C181.109 35.261 181.228 34.4483 181.466 33.697C181.704 32.9457 182.045 32.294 182.489 31.742C182.934 31.19 183.467 30.7607 184.088 30.454C184.709 30.1397 185.407 29.9825 186.181 29.9825C186.84 29.9825 187.404 30.086 187.871 30.293C188.339 30.5 188.757 30.7798 189.125 31.1325V24.911H191.965ZM202.658 32.501C202.581 32.6237 202.501 32.7118 202.416 32.7655C202.332 32.8115 202.225 32.8345 202.094 32.8345C201.956 32.8345 201.807 32.7962 201.646 32.7195C201.492 32.6428 201.312 32.5585 201.105 32.4665C200.898 32.3668 200.661 32.2787 200.392 32.202C200.132 32.1253 199.821 32.087 199.461 32.087C198.901 32.087 198.46 32.2058 198.138 32.4435C197.824 32.6812 197.667 32.9917 197.667 33.375C197.667 33.628 197.747 33.8427 197.908 34.019C198.077 34.1877 198.295 34.3372 198.564 34.4675C198.84 34.5978 199.15 34.7167 199.495 34.824C199.84 34.9237 200.189 35.0348 200.542 35.1575C200.902 35.2802 201.255 35.422 201.6 35.583C201.945 35.7363 202.251 35.9357 202.52 36.181C202.796 36.4187 203.014 36.7062 203.175 37.0435C203.344 37.3808 203.428 37.7872 203.428 38.2625C203.428 38.8298 203.325 39.355 203.118 39.838C202.918 40.3133 202.619 40.7273 202.221 41.08C201.822 41.425 201.328 41.6972 200.737 41.8965C200.155 42.0882 199.48 42.184 198.713 42.184C198.307 42.184 197.908 42.1457 197.517 42.069C197.134 42 196.762 41.9003 196.402 41.77C196.049 41.6397 195.719 41.4863 195.413 41.31C195.114 41.1337 194.849 40.942 194.619 40.735L195.275 39.654C195.359 39.5237 195.459 39.424 195.574 39.355C195.689 39.286 195.834 39.2515 196.011 39.2515C196.187 39.2515 196.352 39.3013 196.505 39.401C196.666 39.5007 196.85 39.608 197.057 39.723C197.264 39.838 197.506 39.9453 197.782 40.045C198.065 40.1447 198.422 40.1945 198.851 40.1945C199.189 40.1945 199.476 40.1562 199.714 40.0795C199.959 39.9952 200.158 39.8878 200.312 39.7575C200.473 39.6272 200.588 39.4777 200.657 39.309C200.733 39.1327 200.772 38.9525 200.772 38.7685C200.772 38.4925 200.687 38.2663 200.519 38.09C200.358 37.9137 200.139 37.7603 199.863 37.63C199.595 37.4997 199.284 37.3847 198.932 37.285C198.587 37.1777 198.23 37.0627 197.862 36.94C197.502 36.8173 197.145 36.6755 196.793 36.5145C196.448 36.3458 196.137 36.135 195.861 35.882C195.593 35.629 195.374 35.3185 195.206 34.9505C195.045 34.5825 194.964 34.1378 194.964 33.6165C194.964 33.1335 195.06 32.6735 195.252 32.2365C195.443 31.7995 195.723 31.42 196.091 31.098C196.467 30.7683 196.931 30.5077 197.483 30.316C198.042 30.1167 198.686 30.017 199.415 30.017C200.227 30.017 200.967 30.1512 201.634 30.4195C202.301 30.6878 202.857 31.0405 203.302 31.4775L202.658 32.501ZM223.038 39.8725V42H213.838V39.8725H217.208V30.178C217.208 29.7947 217.219 29.3998 217.242 28.9935L214.85 30.9945C214.712 31.1018 214.574 31.1708 214.436 31.2015C214.306 31.2245 214.18 31.2245 214.057 31.2015C213.942 31.1785 213.838 31.1402 213.746 31.0865C213.654 31.0252 213.585 30.96 213.539 30.891L212.642 29.6605L217.714 25.348H220.048V39.8725H223.038Z" fill="black"/>
<path d="M206.108 138.184V139H201.5V138.184H203.342V132.322C203.342 132.146 203.348 131.968 203.36 131.788L201.83 133.102C201.778 133.146 201.726 133.174 201.674 133.186C201.622 133.194 201.574 133.194 201.53 133.186C201.486 133.178 201.444 133.162 201.404 133.138C201.368 133.114 201.34 133.088 201.32 133.06L200.984 132.598L203.546 130.384H204.416V138.184H206.108ZM210.213 133.648C210.661 133.552 211.073 133.504 211.449 133.504C211.897 133.504 212.293 133.57 212.637 133.702C212.981 133.834 213.267 134.016 213.495 134.248C213.727 134.48 213.901 134.754 214.017 135.07C214.137 135.386 214.197 135.73 214.197 136.102C214.197 136.558 214.117 136.97 213.957 137.338C213.801 137.706 213.583 138.022 213.303 138.286C213.027 138.546 212.701 138.746 212.325 138.886C211.949 139.026 211.543 139.096 211.107 139.096C210.855 139.096 210.613 139.07 210.381 139.018C210.149 138.97 209.931 138.904 209.727 138.82C209.527 138.736 209.341 138.64 209.169 138.532C208.997 138.424 208.845 138.31 208.713 138.19L209.043 137.734C209.115 137.63 209.209 137.578 209.325 137.578C209.405 137.578 209.495 137.61 209.595 137.674C209.695 137.734 209.817 137.802 209.961 137.878C210.105 137.954 210.273 138.024 210.465 138.088C210.661 138.148 210.893 138.178 211.161 138.178C211.461 138.178 211.731 138.13 211.971 138.034C212.211 137.938 212.417 137.802 212.589 137.626C212.761 137.446 212.893 137.232 212.985 136.984C213.077 136.736 213.123 136.458 213.123 136.15C213.123 135.882 213.083 135.64 213.003 135.424C212.927 135.208 212.809 135.024 212.649 134.872C212.493 134.72 212.297 134.602 212.061 134.518C211.825 134.434 211.549 134.392 211.233 134.392C211.017 134.392 210.791 134.41 210.555 134.446C210.323 134.482 210.085 134.54 209.841 134.62L209.169 134.422L209.859 130.402H213.933V130.87C213.933 131.022 213.885 131.148 213.789 131.248C213.697 131.344 213.537 131.392 213.309 131.392H210.609L210.213 133.648ZM217.516 139.126C217.464 139.266 217.382 139.37 217.27 139.438C217.162 139.506 217.05 139.54 216.934 139.54H216.484L220.09 130.558C220.138 130.43 220.21 130.332 220.306 130.264C220.406 130.196 220.52 130.162 220.648 130.162H221.104L217.516 139.126ZM229.188 134.704C229.188 135.456 229.106 136.108 228.942 136.66C228.782 137.208 228.562 137.662 228.282 138.022C228.002 138.382 227.67 138.65 227.286 138.826C226.906 139.002 226.498 139.09 226.062 139.09C225.622 139.09 225.212 139.002 224.832 138.826C224.456 138.65 224.128 138.382 223.848 138.022C223.568 137.662 223.348 137.208 223.188 136.66C223.028 136.108 222.948 135.456 222.948 134.704C222.948 133.952 223.028 133.3 223.188 132.748C223.348 132.196 223.568 131.74 223.848 131.38C224.128 131.016 224.456 130.746 224.832 130.57C225.212 130.394 225.622 130.306 226.062 130.306C226.498 130.306 226.906 130.394 227.286 130.57C227.67 130.746 228.002 131.016 228.282 131.38C228.562 131.74 228.782 132.196 228.942 132.748C229.106 133.3 229.188 133.952 229.188 134.704ZM228.078 134.704C228.078 134.048 228.022 133.498 227.91 133.054C227.802 132.606 227.654 132.246 227.466 131.974C227.282 131.702 227.068 131.508 226.824 131.392C226.58 131.272 226.326 131.212 226.062 131.212C225.798 131.212 225.544 131.272 225.3 131.392C225.056 131.508 224.842 131.702 224.658 131.974C224.474 132.246 224.326 132.606 224.214 133.054C224.106 133.498 224.052 134.048 224.052 134.704C224.052 135.36 224.106 135.91 224.214 136.354C224.326 136.798 224.474 137.156 224.658 137.428C224.842 137.7 225.056 137.896 225.3 138.016C225.544 138.132 225.798 138.19 226.062 138.19C226.326 138.19 226.58 138.132 226.824 138.016C227.068 137.896 227.282 137.7 227.466 137.428C227.654 137.156 227.802 136.798 227.91 136.354C228.022 135.91 228.078 135.36 228.078 134.704ZM234.097 138.208C234.385 138.208 234.645 138.162 234.877 138.07C235.113 137.978 235.313 137.85 235.477 137.686C235.645 137.522 235.773 137.328 235.861 137.104C235.953 136.88 235.999 136.636 235.999 136.372C235.999 136.092 235.955 135.84 235.867 135.616C235.779 135.388 235.653 135.196 235.489 135.04C235.329 134.88 235.137 134.758 234.913 134.674C234.689 134.59 234.443 134.548 234.175 134.548C233.887 134.548 233.627 134.598 233.395 134.698C233.163 134.794 232.965 134.926 232.801 135.094C232.641 135.258 232.517 135.45 232.429 135.67C232.345 135.886 232.303 136.112 232.303 136.348C232.303 136.624 232.343 136.876 232.423 137.104C232.503 137.332 232.619 137.528 232.771 137.692C232.927 137.856 233.115 137.984 233.335 138.076C233.559 138.164 233.813 138.208 234.097 138.208ZM233.473 133.624C233.397 133.72 233.323 133.814 233.251 133.906C233.183 133.994 233.117 134.082 233.053 134.17C233.257 134.03 233.481 133.922 233.725 133.846C233.969 133.77 234.235 133.732 234.523 133.732C234.871 133.732 235.199 133.79 235.507 133.906C235.815 134.018 236.083 134.184 236.311 134.404C236.543 134.62 236.727 134.888 236.863 135.208C236.999 135.524 237.067 135.886 237.067 136.294C237.067 136.69 236.995 137.058 236.851 137.398C236.707 137.738 236.505 138.034 236.245 138.286C235.989 138.538 235.679 138.736 235.315 138.88C234.955 139.024 234.557 139.096 234.121 139.096C233.689 139.096 233.297 139.028 232.945 138.892C232.593 138.752 232.293 138.556 232.045 138.304C231.801 138.048 231.611 137.74 231.475 137.38C231.343 137.016 231.277 136.61 231.277 136.162C231.277 135.786 231.359 135.386 231.523 134.962C231.691 134.534 231.957 134.078 232.321 133.594L234.505 130.66C234.561 130.588 234.637 130.528 234.733 130.48C234.833 130.428 234.947 130.402 235.075 130.402H236.023L233.473 133.624ZM240.104 139.126C240.052 139.266 239.97 139.37 239.858 139.438C239.75 139.506 239.638 139.54 239.522 139.54H239.072L242.678 130.558C242.726 130.43 242.798 130.332 242.894 130.264C242.994 130.196 243.108 130.162 243.236 130.162H243.692L240.104 139.126ZM251.097 137.986C251.213 137.986 251.305 138.02 251.373 138.088C251.441 138.156 251.475 138.244 251.475 138.352V139H245.739V138.634C245.739 138.558 245.755 138.48 245.787 138.4C245.819 138.32 245.869 138.246 245.937 138.178L248.691 135.412C248.919 135.18 249.127 134.958 249.315 134.746C249.503 134.53 249.663 134.314 249.795 134.098C249.927 133.882 250.029 133.664 250.101 133.444C250.173 133.22 250.209 132.982 250.209 132.73C250.209 132.478 250.169 132.258 250.089 132.07C250.009 131.878 249.899 131.72 249.759 131.596C249.623 131.472 249.461 131.38 249.273 131.32C249.085 131.256 248.883 131.224 248.667 131.224C248.447 131.224 248.245 131.256 248.061 131.32C247.877 131.384 247.713 131.474 247.569 131.59C247.429 131.702 247.311 131.836 247.215 131.992C247.119 132.148 247.051 132.32 247.011 132.508C246.963 132.648 246.897 132.742 246.813 132.79C246.733 132.834 246.619 132.846 246.471 132.826L245.913 132.73C245.969 132.338 246.077 131.992 246.237 131.692C246.401 131.388 246.605 131.134 246.849 130.93C247.097 130.726 247.379 130.572 247.695 130.468C248.011 130.36 248.353 130.306 248.721 130.306C249.085 130.306 249.425 130.36 249.741 130.468C250.057 130.576 250.331 130.734 250.563 130.942C250.795 131.146 250.977 131.396 251.109 131.692C251.241 131.988 251.307 132.324 251.307 132.7C251.307 133.02 251.259 133.318 251.163 133.594C251.067 133.866 250.937 134.126 250.773 134.374C250.609 134.622 250.419 134.864 250.203 135.1C249.991 135.336 249.765 135.574 249.525 135.814L247.257 138.13C247.417 138.086 247.579 138.052 247.743 138.028C247.907 138 248.065 137.986 248.217 137.986H251.097ZM259.816 134.704C259.816 135.456 259.734 136.108 259.57 136.66C259.41 137.208 259.19 137.662 258.91 138.022C258.63 138.382 258.298 138.65 257.914 138.826C257.534 139.002 257.126 139.09 256.69 139.09C256.25 139.09 255.84 139.002 255.46 138.826C255.084 138.65 254.756 138.382 254.476 138.022C254.196 137.662 253.976 137.208 253.816 136.66C253.656 136.108 253.576 135.456 253.576 134.704C253.576 133.952 253.656 133.3 253.816 132.748C253.976 132.196 254.196 131.74 254.476 131.38C254.756 131.016 255.084 130.746 255.46 130.57C255.84 130.394 256.25 130.306 256.69 130.306C257.126 130.306 257.534 130.394 257.914 130.57C258.298 130.746 258.63 131.016 258.91 131.38C259.19 131.74 259.41 132.196 259.57 132.748C259.734 133.3 259.816 133.952 259.816 134.704ZM258.706 134.704C258.706 134.048 258.65 133.498 258.538 133.054C258.43 132.606 258.282 132.246 258.094 131.974C257.91 131.702 257.696 131.508 257.452 131.392C257.208 131.272 256.954 131.212 256.69 131.212C256.426 131.212 256.172 131.272 255.928 131.392C255.684 131.508 255.47 131.702 255.286 131.974C255.102 132.246 254.954 132.606 254.842 133.054C254.734 133.498 254.68 134.048 254.68 134.704C254.68 135.36 254.734 135.91 254.842 136.354C254.954 136.798 255.102 137.156 255.286 137.428C255.47 137.7 255.684 137.896 255.928 138.016C256.172 138.132 256.426 138.19 256.69 138.19C256.954 138.19 257.208 138.132 257.452 138.016C257.696 137.896 257.91 137.7 258.094 137.428C258.282 137.156 258.43 136.798 258.538 136.354C258.65 135.91 258.706 135.36 258.706 134.704ZM267.179 137.986C267.295 137.986 267.387 138.02 267.455 138.088C267.523 138.156 267.557 138.244 267.557 138.352V139H261.821V138.634C261.821 138.558 261.837 138.48 261.869 138.4C261.901 138.32 261.951 138.246 262.019 138.178L264.773 135.412C265.001 135.18 265.209 134.958 265.397 134.746C265.585 134.53 265.745 134.314 265.877 134.098C266.009 133.882 266.111 133.664 266.183 133.444C266.255 133.22 266.291 132.982 266.291 132.73C266.291 132.478 266.251 132.258 266.171 132.07C266.091 131.878 265.981 131.72 265.841 131.596C265.705 131.472 265.543 131.38 265.355 131.32C265.167 131.256 264.965 131.224 264.749 131.224C264.529 131.224 264.327 131.256 264.143 131.32C263.959 131.384 263.795 131.474 263.651 131.59C263.511 131.702 263.393 131.836 263.297 131.992C263.201 132.148 263.133 132.32 263.093 132.508C263.045 132.648 262.979 132.742 262.895 132.79C262.815 132.834 262.701 132.846 262.553 132.826L261.995 132.73C262.051 132.338 262.159 131.992 262.319 131.692C262.483 131.388 262.687 131.134 262.931 130.93C263.179 130.726 263.461 130.572 263.777 130.468C264.093 130.36 264.435 130.306 264.803 130.306C265.167 130.306 265.507 130.36 265.823 130.468C266.139 130.576 266.413 130.734 266.645 130.942C266.877 131.146 267.059 131.396 267.191 131.692C267.323 131.988 267.389 132.324 267.389 132.7C267.389 133.02 267.341 133.318 267.245 133.594C267.149 133.866 267.019 134.126 266.855 134.374C266.691 134.622 266.501 134.864 266.285 135.1C266.073 135.336 265.847 135.574 265.607 135.814L263.339 138.13C263.499 138.086 263.661 138.052 263.825 138.028C263.989 138 264.147 137.986 264.299 137.986H267.179ZM273.678 135.898V132.352C273.678 132.248 273.682 132.134 273.69 132.01C273.698 131.886 273.71 131.76 273.726 131.632L270.594 135.898H273.678ZM275.916 135.898V136.51C275.916 136.574 275.896 136.628 275.856 136.672C275.82 136.716 275.762 136.738 275.682 136.738H274.614V139H273.678V136.738H269.862C269.782 136.738 269.712 136.716 269.652 136.672C269.596 136.624 269.56 136.566 269.544 136.498L269.436 135.952L273.618 130.402H274.614V135.898H275.916Z" fill="#5F5F5F"/>
</svg>
