<svg width="77" height="107" viewBox="0 0 77 107" fill="none" xmlns="http://www.w3.org/2000/svg">
<path fill-rule="evenodd" clip-rule="evenodd" d="M9.3057 47.7435C2.01587 42.4614 1.04087 30.2718 6.10038 19.1817L2.39884 16.4401L1.80365 17.2437C1.47493 17.6875 0.848681 17.7808 0.404873 17.4521C-0.0389343 17.1234 -0.132236 16.4971 0.196479 16.0533L9.12433 3.99955C9.45304 3.55574 10.0793 3.46244 10.5231 3.79115C10.9669 4.11987 11.0602 4.74612 10.7315 5.18993L10.1363 5.99351L13.4654 8.45927C21.9705 -0.119625 33.2324 -2.41154 40.8295 2.68023L41.994 1.01558C42.3106 0.563037 42.9341 0.452813 43.3867 0.76939C43.8392 1.08597 43.9494 1.70946 43.6328 2.16201L11.4299 48.196H69.6013C70.1535 48.196 70.6013 48.6438 70.6013 49.196C70.6013 49.7483 70.1535 50.196 69.6013 50.196H68.6013V53.196C68.6013 53.5309 68.5907 53.8643 68.57 54.196H72.8688C73.2146 53.5982 73.861 53.196 74.6013 53.196C75.7058 53.196 76.6013 54.0915 76.6013 55.196C76.6013 56.3006 75.7058 57.196 74.6013 57.196C73.861 57.196 73.2146 56.7938 72.8688 56.196H68.3184C67.2786 61.6872 63.4458 66.6061 58.0519 70.0625L67.1355 102.268C67.9807 102.502 68.6013 103.276 68.6013 104.196C68.6013 105.301 67.7058 106.196 66.6013 106.196C65.4967 106.196 64.6013 105.301 64.6013 104.196C64.6013 103.638 64.8301 103.133 65.199 102.77L61.3705 89.196H20.8099L17.7609 98.0657C18.8768 98.8847 19.6013 100.206 19.6013 101.696C19.6013 104.181 17.5865 106.196 15.1013 106.196C12.616 106.196 10.6013 104.181 10.6013 101.696C10.6013 99.2107 12.616 97.196 15.1013 97.196C15.3807 97.196 15.6542 97.2215 15.9195 97.2702L24.8572 71.2696C18.8936 67.8071 14.8441 62.3624 13.843 56.196H8.33369C7.98788 56.7938 7.34154 57.196 6.60126 57.196C5.49669 57.196 4.60126 56.3006 4.60126 55.196C4.60126 54.0915 5.49669 53.196 6.60126 53.196C7.34154 53.196 7.98788 53.5982 8.33369 54.196H13.6279C13.6102 53.8643 13.6013 53.5309 13.6013 53.196V50.196H9.60126V50.1849C9.55233 50.1922 9.50224 50.1961 9.45127 50.1961C8.89898 50.1961 8.45127 49.7483 8.45127 49.1961C8.45127 49.1292 8.45782 49.064 8.47031 49.0008L8.44064 48.9801L8.49515 48.9022C8.55735 48.6996 8.68215 48.5244 8.84697 48.3992L9.3057 47.7435ZM21.4974 87.196H60.8064L56.2718 71.1188C51.6103 73.6758 45.9971 75.196 40.1013 75.196C35.1092 75.196 30.5359 74.1062 26.6454 72.22L21.4974 87.196ZM2.99403 15.6365L9.54112 6.7971L12.766 9.18567C11.6529 10.3759 10.5919 11.6774 9.59841 13.0875C8.42314 14.7555 7.40198 16.4908 6.53609 18.26L2.99403 15.6365ZM15.1601 53.196H66.9248L40.1013 53.1961L15.1601 53.196ZM15.1013 99.196C16.482 99.196 17.6013 100.315 17.6013 101.696C17.6013 103.077 16.482 104.196 15.1013 104.196C13.7205 104.196 12.6013 103.077 12.6013 101.696C12.6013 100.315 13.7205 99.196 15.1013 99.196Z" fill="#002A12"/>
</svg>
