<svg width="95" height="95" viewBox="0 0 95 95" fill="none" xmlns="http://www.w3.org/2000/svg">
<ellipse cx="47.5" cy="47.4576" rx="47.5" ry="47.4576" fill="#F99319"/>
<path d="M47.2206 94.9938C29.0588 95.2962 17.8823 84.6648 17.8823 84.6648C39.1471 78.7535 52.4705 79.205 77.1176 84.6648C77.1176 84.6648 65.3823 94.6914 47.2206 94.9938Z" fill="#CC740B"/>
<path d="M75.441 36.8494C75.441 52.2671 64.5439 68.953 47.4998 86.2611C31.0145 69.5114 19.5586 52.2671 19.5586 36.8494C19.5586 21.4316 32.0683 8.93311 47.4998 8.93311C62.9313 8.93311 75.441 21.4316 75.441 36.8494Z" fill="#4E722C"/>
<ellipse cx="47.4999" cy="36.8491" rx="22.3529" ry="22.333" fill="#FCFAEE"/>
<path d="M53.7196 35.49C53.999 38.0024 53.999 37.7233 57.0726 39.6774C63.2196 44.4232 56.7931 53.9147 50.9254 50.5648C45.6692 47.5639 45.0578 52.5748 41.146 51.4022C32.7637 48.8898 36.1166 40.5364 38.3519 39.6774C41.9843 38.2816 41.7048 36.0483 41.7048 34.9316C41.8911 32.9775 43.4372 29.1809 48.1313 29.6275C53.9989 30.1858 53.5816 34.2492 53.7196 35.49Z" fill="#D84F52"/>
<ellipse cx="2.51415" cy="3.62992" rx="2.51415" ry="3.62992" transform="matrix(0.866333 -0.499467 0.500137 0.865946 33.5293 30.4277)" fill="#D84F52"/>
<ellipse cx="2.51407" cy="3.63004" rx="2.51407" ry="3.63004" transform="matrix(0.845673 0.533702 -0.534383 0.845243 58.0854 27.3579)" fill="#D84F52"/>
<ellipse cx="3.12074" cy="4.57801" rx="3.12074" ry="4.57801" transform="matrix(0.975048 0.221994 -0.222371 0.974962 50.6538 19.5415)" fill="#D84F52"/>
<ellipse cx="3.12058" cy="4.57824" rx="3.12058" ry="4.57824" transform="matrix(0.946018 -0.324116 0.324634 0.94584 38.5586 21.0059)" fill="#D84F52"/>
</svg>
