<svg width="26" height="30" viewBox="0 0 26 30" fill="none" xmlns="http://www.w3.org/2000/svg">
<path d="M8.58543 29.4099C9.95467 29.4099 11.0647 28.2999 11.0647 26.9306C11.0647 25.5614 9.95467 24.4514 8.58543 24.4514C7.21619 24.4514 6.1062 25.5614 6.1062 26.9306C6.1062 28.2999 7.21619 29.4099 8.58543 29.4099Z" stroke="#013D19" stroke-width="1.2" stroke-miterlimit="10"/>
<path d="M18.5023 29.4099C19.8715 29.4099 20.9815 28.2999 20.9815 26.9306C20.9815 25.5614 19.8715 24.4514 18.5023 24.4514C17.1331 24.4514 16.0231 25.5614 16.0231 26.9306C16.0231 28.2999 17.1331 29.4099 18.5023 29.4099Z" stroke="#013D19" stroke-width="1.2" stroke-miterlimit="10"/>
<path d="M0.528113 7.09659L2.82497 7.09659C3.29366 7.09659 3.69947 7.42212 3.80115 7.87965L4.86679 12.6748M4.86679 12.6748L5.99073 21.1042C6.05698 21.601 6.48076 21.972 6.98196 21.972L20.162 21.972C20.6387 21.972 21.0491 21.6356 21.1426 21.1682L22.602 13.8712C22.7258 13.2524 22.2525 12.6751 21.6215 12.6751L4.86679 12.6748Z" stroke="#013D19" stroke-width="1.2"/>
</svg>
