<svg width="3041" height="3239" viewBox="0 0 3041 3239" fill="none" xmlns="http://www.w3.org/2000/svg">
<g clip-path="url(#clip0_550_2646)">
<mask id="mask0_550_2646" style="mask-type:luminance" maskUnits="userSpaceOnUse" x="0" y="0" width="3041" height="3239">
<path d="M3041 0H0V3239H3041V0Z" fill="white"/>
</mask>
<g mask="url(#mask0_550_2646)">
<path d="M289.654 1548.19C289.654 886.218 826.276 349.591 1488.22 349.591C2150.19 349.591 2686.8 886.218 2686.8 1548.19V3226.22H289.654V1548.19Z" fill="#355E50"/>
<path d="M1753.96 2598.31C1881.55 2549.36 1990.51 2461.6 2074.86 2354.97C2167.61 2237.63 2229.52 2099.79 2272.4 1957.26C2297.97 1872.16 2316.9 1785.23 2332.68 1697.85C2336.51 1676.74 2303.98 1669.12 2300.15 1690.24C2249.42 1970.66 2159.32 2265.05 1932.58 2454.34C1876.15 2501.43 1812.6 2540.1 1743.87 2566.5C1723.88 2574.09 1733.86 2606.03 1754.07 2598.31H1753.96Z" fill="#748763"/>
<path d="M2334.3 1696.67C2337.83 1623.39 2343.01 1549.82 2342.29 1476.48C2342.09 1454.97 2308.69 1456.31 2308.89 1477.82C2309.61 1551.27 2304.32 1624.73 2300.9 1698.01C2299.86 1719.46 2333.26 1718 2334.3 1696.67Z" fill="#748763"/>
<path d="M2344.04 1481.09C2340.4 1376.78 2336.65 1272.46 2333.04 1168.24C2332.18 1146.76 2298.89 1148.1 2299.65 1169.58C2303.28 1273.91 2307.02 1378.23 2310.63 1482.43C2311.5 1503.92 2344.79 1502.58 2344.04 1481.09Z" fill="#748763"/>
<path d="M2333.37 1170.58C2331.6 1138.09 2329.86 1105.6 2328.11 1073.01C2327.64 1064.33 2319.85 1056.17 2310.73 1056.98C2301.62 1057.79 2294.23 1065 2294.71 1074.35C2296.46 1106.84 2298.2 1139.32 2299.97 1171.92C2300.42 1180.6 2308.23 1188.76 2317.33 1187.94C2326.44 1187.13 2333.85 1179.92 2333.37 1170.58Z" fill="#748763"/>
<path d="M2346.48 1308.74C2367.96 1307.88 2366.64 1274.49 2345.15 1275.35C2323.66 1276.21 2325 1309.61 2346.48 1308.74Z" fill="#748763"/>
<path d="M2347.72 1336.79C2386.28 1286.4 2414.18 1228.65 2428.3 1166.65C2443.74 1098.58 2436.36 1028.74 2446.76 960.206L2413.76 957.072C2405.36 1064.33 2380.07 1170.59 2333.69 1267.89L2364.71 1279.58C2374.08 1232.49 2384.46 1185.69 2395.99 1139.07C2406.62 1095.72 2418.49 1052.77 2438.85 1012.81L2407.82 1001.12C2384.04 1074.89 2365.19 1150.12 2351.32 1226.38C2347.49 1247.49 2379.12 1255.03 2383.84 1233.99C2404.08 1143.98 2424.34 1053.98 2444.59 963.968L2412.41 965.263C2436.91 1072.42 2412.83 1186.67 2349.75 1276.28C2337.41 1293.83 2367.03 1309.37 2379.25 1291.93C2447.72 1194.86 2470.71 1070.51 2444.22 955.065C2440.43 938.494 2415.45 941.058 2412.05 956.36C2391.81 1046.36 2371.57 1136.37 2351.32 1226.38L2383.84 1233.99C2397.73 1157.73 2416.57 1082.49 2440.36 1008.74C2446.2 990.55 2417.81 980.435 2409.34 997.051C2388.57 1038.02 2375.63 1082.13 2364.58 1126.51C2352.58 1174.7 2341.82 1223.19 2332.07 1271.97C2328.45 1289.95 2354.65 1301.28 2363.09 1283.66C2412.25 1180.67 2438.21 1069.25 2447.03 955.732C2448.51 937.056 2416.84 934.091 2414.01 952.597C2404.05 1018 2410.74 1084.85 2397.53 1149.94C2385.42 1209.51 2359.92 1265.95 2323.07 1314.15C2310.15 1331.16 2334.59 1353.93 2347.62 1336.79H2347.72Z" fill="#748763"/>
<path d="M2310.89 1288.76C2277.08 1251.99 2257.59 1205.16 2241 1158.67C2222.29 1106.13 2207.19 1052.33 2195.64 997.712L2163.82 1007.91C2194.52 1100.44 2273.56 1172.19 2280.93 1272.8L2311.76 1263.09C2291.2 1223.33 2270.76 1183.56 2250.23 1143.92L2222.07 1161.88C2235.67 1186.76 2249.26 1211.63 2262.86 1236.51C2275.37 1259.42 2291.15 1282.87 2293.22 1309.54L2324.05 1299.83C2319.35 1294 2318.95 1289.67 2323.06 1283.26C2334.8 1265.17 2305.2 1249.64 2293.55 1267.61C2283.57 1282.95 2284.4 1303.54 2295.9 1317.91C2305.4 1329.79 2328 1326.21 2326.73 1308.2C2324.53 1278.63 2310.26 1253.45 2296.3 1227.92C2281.02 1199.88 2265.73 1171.95 2250.34 1143.91C2239.99 1124.93 2212.39 1142.98 2222.18 1161.88C2242.73 1201.64 2263.17 1241.4 2283.72 1281.05C2291.45 1296.01 2315.62 1287.23 2314.54 1271.34C2310.84 1220.65 2291.91 1173.91 2266.3 1130.56C2240.7 1087.21 2211.98 1046.34 2195.85 997.705C2189 976.906 2159.65 987.228 2164.04 1007.9C2176.3 1065.83 2192.4 1122.82 2212.81 1178.42C2230.73 1227.32 2252.91 1274.59 2288.47 1313.3C2303.05 1329.22 2325.58 1304.56 2311.12 1288.76L2310.89 1288.76Z" fill="#748763"/>
<path d="M2112.47 1164.28C2136.56 1228.42 2182.5 1278.76 2223.24 1332.53C2244.19 1360.12 2264.09 1389.09 2277.19 1421.23C2292.16 1457.87 2298.94 1496.51 2298.4 1535.89L2329.23 1526.18C2295.74 1472.11 2260.47 1418.67 2230.14 1362.69C2199.8 1306.72 2175.84 1248.92 2155.83 1189.18L2125.84 1203.32C2156.41 1259.29 2187.09 1315.14 2217.64 1371.11C2246.4 1423.7 2278.61 1475.8 2294.98 1533.79L2324.96 1519.66C2275.34 1450.07 2232.89 1375.63 2198.86 1297.28C2190.38 1277.77 2158.44 1287.64 2167.04 1307.47C2202.3 1388.56 2245.54 1465.65 2296.8 1537.63C2307.67 1552.91 2332.1 1542.11 2326.78 1523.49C2310.05 1464.51 2277.56 1411.19 2248.33 1357.73C2216.82 1300.24 2185.4 1242.62 2153.87 1185.14C2144.73 1168.45 2117.94 1181.45 2123.9 1199.27C2144.3 1260.11 2169.21 1319.43 2199.45 1376.08C2229.72 1432.73 2266.63 1488.55 2301.08 1544.14C2310.14 1558.83 2331.66 1550.5 2331.91 1534.43C2332.91 1456.79 2304.79 1386.79 2259.39 1324.95C2218.82 1269.72 2168.74 1219.1 2144.27 1153.86C2136.78 1133.87 2104.84 1143.84 2112.45 1164.05L2112.47 1164.28Z" fill="#748763"/>
<path d="M2364.33 1483.96C2429.2 1386.59 2479.8 1280.64 2515.46 1169.17L2482.44 1166.03C2476.11 1238.65 2461.38 1307.48 2427.08 1372.52C2411.33 1402.35 2392.51 1430.42 2370.58 1456.17C2348.64 1481.92 2322.57 1504.48 2317.69 1538.79C2315.27 1555.83 2333.58 1565.24 2346.28 1553.92C2405.6 1500.92 2448.89 1432.4 2472.5 1356.53C2478.9 1335.98 2446.28 1328.48 2439.96 1348.92C2418.05 1419.48 2376.86 1482.12 2321.74 1531.27L2350.33 1546.4C2355.03 1513.32 2387.19 1489.62 2406.82 1464.75C2428.45 1437.24 2447.45 1407.48 2462.91 1376.09C2496 1308.98 2509.45 1238.87 2515.86 1164.92C2517.63 1145 2488.19 1145.18 2482.84 1161.79C2448.08 1270.44 2398.02 1373.56 2334.71 1468.42C2322.73 1486.3 2352.44 1501.83 2364.22 1484.07L2364.33 1483.96Z" fill="#748763"/>
<path d="M2338.64 1782.45C2362.28 1754.86 2385.82 1727.38 2409.46 1699.78C2423.41 1683.5 2399.78 1661.48 2384.92 1677.13L2315.48 1749.93L2340.02 1772.58C2375.38 1728.47 2410.72 1684.23 2446.19 1640.1C2481.65 1595.98 2516.29 1556.24 2547.17 1511.52L2516.15 1499.83C2476.02 1619.51 2400.05 1726.58 2300.26 1803.96L2325.5 1821.77C2332.63 1802.2 2350.12 1787.9 2364.71 1773.94C2381.46 1757.88 2397.4 1740.96 2412.29 1723.19C2441.56 1688.46 2467.13 1650.64 2488.83 1610.75C2499.11 1591.82 2469.6 1576.17 2459.32 1595.09C2436.58 1636.82 2409.71 1675.8 2378.26 1711.52C2349.26 1744.46 2308.21 1771.74 2292.86 1814.16C2287.93 1827.64 2307.07 1840.58 2318.11 1832C2425.26 1748.87 2505.46 1635.95 2548.55 1507.33C2555.14 1487.89 2527.34 1481.43 2517.55 1495.64C2487.31 1539.45 2451.37 1580.03 2418.13 1621.61C2383.95 1664.35 2349.65 1707.09 2315.48 1749.82C2302.09 1766.53 2325.05 1788.24 2340.02 1772.47L2409.46 1699.67L2384.9 1677.02C2361.28 1704.61 2337.74 1732.09 2314.09 1759.69C2300.13 1775.97 2324.56 1798.74 2338.64 1782.34V1782.45Z" fill="#748763"/>
<path d="M2302.31 1774.44C2227 1656.6 2200.64 1516.85 2175.36 1381.5L2143.56 1391.7C2151.42 1424.05 2169.19 1452.33 2187.67 1479.68C2206.16 1507.04 2224.84 1536.28 2238.7 1567.61C2266.3 1630.17 2279.71 1697.63 2278.66 1765.91L2311.3 1760.14C2278.39 1670.48 2244.26 1581.32 2209.15 1492.54L2179.17 1506.67C2205.97 1563.35 2232.78 1620.02 2259.68 1676.7C2263.58 1684.9 2275.78 1686.09 2282.74 1681.79C2291.24 1676.55 2291.62 1666.83 2287.84 1658.73C2261.04 1602.06 2234.23 1545.38 2207.32 1488.7C2199.27 1471.74 2170.39 1485.28 2177.34 1502.84C2212.46 1591.63 2246.47 1680.91 2279.51 1770.45C2286.13 1788.35 2311.81 1783.65 2312.17 1764.68C2313.28 1695.39 2299.89 1625.8 2272.58 1562.01C2259.3 1530.99 2242.85 1501.66 2224 1473.76C2205.16 1445.87 2183.91 1416.28 2175.49 1381.72C2170.29 1360.41 2139.84 1371.23 2143.67 1391.92C2169.53 1530.36 2197.29 1672.18 2274.27 1792.62C2285.81 1810.78 2314.07 1792.81 2302.42 1774.66L2302.31 1774.44Z" fill="#748763"/>
<path d="M2265.47 2018.29C2429.79 1989.95 2565.25 1875.92 2620.82 1718.72C2627.12 1700.74 2598.06 1690.43 2589.8 1707.03C2525.43 1836.71 2382.58 1894.29 2268.59 1970.45C2253.16 1980.78 2264.34 2006.63 2282.71 2000.44C2354.11 1976.49 2419.27 1938.76 2476.15 1889.31L2451.6 1866.67C2418.87 1900.99 2375.77 1924.56 2328.81 1932.24L2338.53 1963.07C2424.67 1895.73 2510.72 1828.4 2596.87 1761.05C2613.62 1747.89 2595.88 1719.61 2578.91 1732.89C2492.76 1800.24 2406.71 1867.57 2320.56 1934.92C2309.2 1943.85 2312.09 1968.7 2330.27 1965.75C2386.3 1956.48 2436.99 1930.57 2476.38 1889.41C2491.57 1873.53 2467.67 1852.98 2451.84 1866.76C2399.59 1912.23 2338.53 1946.7 2272.85 1968.72L2286.99 1998.69C2406.31 1918.98 2552.39 1858.48 2619.76 1722.78L2588.73 1711.09C2538.68 1852.8 2412.84 1959.31 2264.7 1984.88C2255.74 1986.46 2248.38 1992.35 2248.67 2002.24C2248.99 2010.38 2257.18 2019.86 2266.03 2018.28L2265.47 2018.29Z" fill="#748763"/>
<path d="M2190.37 2127.02C2176.02 1969.71 2173.45 1811.5 2182.73 1653.81L2151.92 1663.52C2201.99 1758.39 2225.24 1865.5 2220.51 1972.6C2219.59 1994.06 2252.97 1992.6 2253.9 1971.28C2258.94 1858.13 2232.9 1745.56 2180.05 1645.44C2171.49 1629.28 2150.21 1640.29 2149.23 1655.15C2139.95 1812.83 2142.52 1971.06 2156.86 2128.34C2158.82 2149.69 2192.22 2148.44 2190.26 2127.02H2190.37Z" fill="#748763"/>
<path d="M2235.98 2005.66C2219.81 1913.55 2203.63 1821.54 2187.54 1729.43L2155.73 1739.63C2178.15 1792.46 2193.55 1848.26 2199.96 1905.31C2205.84 1957.58 2204.58 2012.05 2182.22 2060.44C2173.2 2079.98 2202.69 2095.74 2211.73 2076.09C2235.93 2023.6 2239.73 1965.48 2233.87 1908.63C2227.49 1846.9 2211.8 1786.43 2187.65 1729.31C2179.15 1709.14 2152.09 1718.48 2155.83 1739.51C2172.03 1831.62 2188.21 1923.62 2204.28 2015.74C2205.88 2024.7 2217.52 2028.93 2225.34 2026.61C2234.92 2023.66 2237.78 2014.39 2236.2 2005.54L2235.98 2005.66Z" fill="#748763"/>
<path d="M2182.81 2058.53L2171.51 2071.46L2200.1 2086.6C2212.9 2013.72 2212.52 1940.03 2199.67 1867.3C2198.09 1858.45 2186.42 1854 2178.6 1856.45C2169.02 1859.51 2166.16 1868.54 2167.75 1877.51C2179.44 1944.05 2179.19 2012.62 2167.48 2079.1C2164.76 2094.81 2184.44 2107.4 2196.07 2094.23L2207.37 2081.29C2221.55 2065.11 2196.99 2042.35 2182.82 2058.64L2182.81 2058.53Z" fill="#748763"/>
<path d="M2218.6 2155.75C2351.13 2135.27 2474.3 2073.68 2569.63 1979.1L2542.53 1959.9C2514.67 2015.65 2446.76 2026.41 2392.37 2040.52C2330.23 2056.62 2270.69 2081.42 2215 2113.43C2198.23 2123.13 2211.29 2148.57 2229.14 2143.41C2345.08 2109.87 2455.28 2057.85 2554.87 1989.63L2536.92 1961.47C2500.44 1991.46 2460.04 2015.85 2416.16 2033.32L2430.3 2063.3L2483.18 2036.88L2457.96 2019.05L2451.75 2042.26C2447.77 2057.25 2464.88 2066.82 2477 2060.09L2481.78 2057.45C2500.65 2047.1 2482.59 2018.94 2463.82 2029.29L2459.02 2031.93L2484.26 2049.77L2490.47 2026.55C2494.64 2011.22 2477.35 2002.66 2465.22 2008.72L2412.32 2035.16C2395.5 2043.52 2408.9 2072.19 2426.47 2065.13C2473.1 2046.53 2516.35 2021.39 2555.09 1989.5C2571.17 1976.26 2555.36 1948.8 2537.13 1961.34C2439.8 2028.14 2332.68 2078.7 2219.28 2111.47L2233.41 2141.44C2292.91 2107.17 2356.31 2083.77 2422.76 2067.29C2480.72 2052.91 2543.68 2032.88 2572.38 1975.54C2580.94 1958.35 2558.79 1942.97 2545.3 1956.34C2456.84 2044.17 2340.81 2103.25 2217.48 2122.24C2196.43 2125.54 2197.54 2158.94 2218.82 2155.63L2218.6 2155.75Z" fill="#748763"/>
<path d="M2545.61 1964.35C2501.38 2020.65 2438.58 2058.75 2368.33 2072.36C2359.48 2074.05 2355.03 2085.5 2357.46 2093.44C2360.52 2102.9 2369.57 2106 2378.53 2104.29C2453.66 2089.8 2522.86 2047.32 2570.17 1987.11C2575.78 1979.98 2576.16 1969.92 2569.21 1963.52C2562.95 1957.74 2551.23 1957.33 2545.61 1964.47V1964.35Z" fill="#748763"/>
<path d="M2073.78 2311.64C2065.02 2151.56 2134.68 1995.35 2106.62 1835.25C2103 1814.78 2070.79 1814.72 2073.22 1836.59C2083.12 1927.62 2087.46 2019.08 2085.79 2110.59C2084.94 2156.33 2082.65 2202.01 2078.91 2247.67C2078.67 2250.01 2076.5 2262.59 2077.52 2263.11L2089.04 2260.97C2088.9 2257.64 2089.22 2254.27 2089.63 2250.9C2090.53 2240.06 2091.89 2229.3 2093.02 2218.55C2095.54 2195.14 2097.95 2171.75 2100.45 2148.36L2067.45 2145.21C2064.77 2195.05 2061.98 2245.01 2059.3 2294.83L2092.68 2293.48C2099.35 2151.18 2106.01 2008.87 2112.67 1866.56C2113.71 1845.12 2080.31 1846.57 2079.27 1867.9C2072.61 2010.21 2065.96 2152.51 2059.3 2294.83C2058.25 2316.39 2091.52 2314.71 2092.68 2293.48C2095.36 2243.66 2098.15 2193.7 2100.83 2143.88C2101.87 2125.33 2069.86 2122.03 2067.83 2140.74C2064.73 2169.52 2061.78 2198.4 2058.68 2227.17C2056.51 2247.89 2048.57 2277.76 2071.37 2290.33C2081.17 2295.73 2093.18 2294.68 2101.46 2287.11C2109.73 2279.54 2110.4 2268.02 2111.3 2257.3C2113.66 2229.98 2115.57 2202.59 2116.91 2175.12C2122.51 2061.73 2118.84 1948.04 2106.62 1835.25L2073.22 1836.59C2101.28 1996.47 2031.62 2152.89 2040.4 2312.99C2041.59 2334.46 2074.99 2333.1 2073.78 2311.64Z" fill="#748763"/>
<path d="M2061.96 2336.42C2083.45 2335.55 2082.11 2302.16 2060.63 2303.02C2039.14 2303.88 2040.47 2337.28 2061.96 2336.42Z" fill="#748763"/>
<path d="M2090.64 2356.57C2227.6 2343.7 2359.78 2295.25 2472.08 2215.71C2489.64 2203.3 2472.75 2176.66 2454.12 2187.55C2348.89 2249.19 2231.64 2288.8 2110.47 2303.36L2116.25 2336.02C2200.06 2307.91 2286.07 2286.73 2373.4 2273.42L2367.63 2240.76L2269.09 2263.77L2286.47 2291.05C2307.56 2263.56 2350.67 2274 2380.16 2264.33C2409.66 2254.67 2430.39 2226.63 2460.22 2222.98L2454.47 2190.32C2380.07 2217.72 2305.69 2245.02 2231.32 2272.43L2241.51 2304.24C2301.36 2278.31 2361.18 2252.38 2421.01 2226.45C2440.52 2217.98 2430.64 2186.04 2410.81 2194.64C2350.98 2220.57 2291.15 2246.5 2231.32 2272.43C2212.03 2280.78 2220.97 2311.86 2241.51 2304.24C2315.89 2276.84 2390.28 2249.54 2464.65 2222.13C2481.46 2216 2478.52 2187.13 2458.87 2189.47C2440.91 2191.65 2425.59 2198.85 2410.59 2208.69C2395.6 2218.55 2382.33 2229.35 2365.23 2233.83C2329.26 2243.19 2287.68 2234.82 2261.92 2268.29C2251.65 2281.75 2262.61 2299.49 2279.29 2295.58L2377.83 2272.55C2395.93 2268.38 2390.79 2237.03 2372.05 2239.92C2281.63 2253.68 2192.73 2274.99 2106.05 2304.1C2088.88 2309.91 2092.51 2338.99 2111.82 2336.76C2238.97 2321.52 2361.53 2280.47 2472.08 2215.71L2454.12 2187.55C2346.57 2263.67 2220.49 2310.88 2089.31 2323.17C2067.99 2325.13 2069.21 2358.53 2090.64 2356.57Z" fill="#748763"/>
<path d="M2448.04 2180.55L2381.8 2210.98C2377.65 2212.92 2374.39 2214.85 2372.1 2219.06C2370.13 2222.71 2369.46 2228.09 2370.96 2232.03C2373.81 2239.73 2383.48 2246.8 2392.01 2242.9L2458.24 2212.47C2462.4 2210.53 2465.68 2208.6 2467.96 2204.39C2469.92 2200.74 2470.61 2195.38 2469.11 2191.41C2466.23 2183.73 2456.59 2176.64 2448.04 2180.55Z" fill="#748763"/>
<path d="M1961.72 2435.87C1962.29 2322.47 1965.85 2208.5 1959.18 2095.25L1925.8 2096.6C1933.5 2152.37 1939.63 2208.32 1943.9 2264.46C1948.16 2320.58 1953.27 2375.58 1941.96 2429.99L1974.49 2437.6C1996.87 2322.98 1992.46 2204.75 1961.63 2092.04C1955.99 2071.3 1924.07 2081.51 1929.81 2102.24C1959.07 2208.98 1963.24 2321.32 1941.96 2429.99C1937.8 2451.11 1970.1 2458.75 1974.49 2437.6C1986.08 2381.94 1981.89 2324.81 1977.62 2268.56C1973.35 2212.31 1967.08 2152.8 1959.07 2095.27C1956.23 2074.42 1924.36 2074.69 1925.69 2096.6C1932.35 2209.95 1928.79 2323.82 1928.21 2437.22C1928.07 2458.75 1961.46 2457.41 1961.61 2435.89L1961.72 2435.87Z" fill="#748763"/>
<path d="M1967.91 2470.74C2008.32 2508.05 2064.41 2511.25 2115.81 2500.38C2172.64 2488.4 2227.86 2464.32 2278.59 2436.32C2296.26 2426.57 2281.79 2402.51 2264.45 2406.34C2177.92 2425.07 2089.37 2432.99 2000.75 2430.75L2006.52 2463.4C2081.93 2442.42 2160.86 2436.57 2238.43 2446.85L2237.13 2414.67C2169.02 2442.49 2096.53 2472.38 2021.38 2461.59C2000.19 2458.53 1992.47 2491.06 2013.77 2494.1C2095.75 2505.87 2172.64 2477.03 2247.22 2446.49C2260.94 2440.93 2263.74 2416.62 2245.93 2414.33C2162.2 2403.3 2077.7 2408.94 1996.21 2431.59C1977.25 2436.83 1983.79 2463.76 2001.98 2464.25C2093.61 2466.61 2184.9 2457.57 2274.44 2438.26L2260.29 2408.29C2216.23 2432.58 2169.3 2452.41 2120.53 2465.08C2076.73 2476.41 2025.77 2479.02 1990.35 2446.22C1974.47 2431.57 1951.82 2456.12 1967.69 2470.76L1967.91 2470.74Z" fill="#748763"/>
<path d="M1959.52 2428.49C1953.92 2319.47 1954.1 2210.19 1960.1 2101.14C1961.24 2079.67 1927.85 2081.13 1926.7 2102.47C1920.71 2211.53 1920.52 2320.8 1926.14 2429.85C1927.22 2451.31 1960.62 2449.98 1959.52 2428.49Z" fill="#748763"/>
<path d="M1203.98 2401.27C1092.64 2350.15 1000.2 2265.34 930.853 2165.07C854.64 2054.75 807.173 1927.85 777.003 1797.86C759.02 1720.25 747.098 1641.37 738.006 1562.28C735.791 1543.17 765.334 1538.23 767.548 1557.34C796.799 1811.18 860.456 2079.76 1052.45 2262.17C1100.21 2307.55 1154.86 2345.81 1214.84 2373.39C1232.28 2381.35 1221.52 2409.33 1203.88 2401.27H1203.98Z" fill="#748763"/>
<path d="M736.62 1561.12C737.689 1495.35 737.281 1429.23 742.144 1363.66C743.556 1344.42 773.357 1347.55 771.945 1366.78C767.069 1432.45 767.587 1498.49 766.422 1564.25C766.111 1583.5 736.323 1580.28 736.62 1561.12Z" fill="#748763"/>
<path d="M740.318 1367.68C749.572 1274.55 758.923 1181.43 768.163 1088.39C770.171 1069.22 799.875 1072.33 797.965 1091.51C788.711 1184.65 779.36 1277.77 770.119 1370.81C768.105 1389.98 738.407 1386.86 740.318 1367.68Z" fill="#748763"/>
<path d="M767.749 1090.46C771.181 1061.49 774.62 1032.53 778.065 1003.47C778.978 995.73 786.425 988.873 794.526 990.123C802.634 991.379 808.837 998.256 807.866 1006.59C804.434 1035.55 800.995 1064.52 797.55 1093.59C796.637 1101.32 789.19 1108.18 781.089 1106.93C772.981 1105.67 766.777 1098.79 767.749 1090.46Z" fill="#748763"/>
<path d="M748.05 1213.33C728.875 1211.32 731.997 1181.52 751.171 1183.53C770.339 1185.54 767.218 1215.34 748.05 1213.33Z" fill="#748763"/>
<path d="M745.33 1238.36C713.728 1191.06 692.093 1137.77 683.027 1081.49C673.132 1019.69 683.752 957.636 678.384 895.711L708.107 894.805C709.454 991.256 725.954 1087.79 761.849 1177.52L733.421 1186.19C727.748 1143.52 721.149 1101.05 713.534 1058.67C706.514 1019.27 698.361 980.157 682.444 943.234L710.872 934.564C727.916 1001.93 740.434 1070.33 748.47 1139.36C750.685 1158.48 721.946 1163.4 718.928 1144.3C705.996 1062.6 693.064 980.902 680.126 899.208L708.839 902.213C680.76 996.689 695.719 1100.3 746.994 1184.1C757.025 1200.52 729.639 1212.71 719.699 1196.4C664.033 1105.61 650.616 993.03 680.961 891.256C685.3 876.648 707.511 880.384 709.668 894.267C722.6 975.967 735.538 1057.66 748.47 1139.36L718.928 1144.3C710.898 1075.27 698.374 1006.87 681.33 939.504C677.147 922.895 703.127 915.474 709.759 930.834C725.974 968.689 735.02 1008.9 742.344 1049.24C750.309 1093.06 757.148 1137.06 763.06 1181.26C765.268 1197.56 741.166 1206.19 734.632 1189.93C696.58 1094.96 679.763 993.775 678.403 891.696C678.157 874.893 706.663 874.064 708.127 890.79C713.281 949.878 703.445 1009.31 711.526 1068.3C718.922 1122.31 738.485 1174.27 768.694 1219.51C779.275 1235.49 756.099 1254.45 745.427 1238.37L745.33 1238.36Z" fill="#748763"/>
<path d="M781.044 1197.5C813.41 1166.55 833.543 1125.78 851.06 1085.13C870.836 1039.19 887.434 991.923 900.923 943.726L928.801 954.683C896.008 1035.71 821.168 1095.35 808.773 1184.95L781.743 1174.48C802.42 1140.09 822.994 1105.69 843.658 1071.4L867.819 1089.09C854.22 1110.57 840.621 1132.04 827.022 1153.52C814.511 1173.29 799.047 1193.37 795.66 1217.12L768.637 1206.65C773.17 1201.7 773.772 1197.85 770.482 1191.88C761.002 1175.02 788.388 1162.82 797.784 1179.58C805.827 1193.88 803.903 1212.26 792.778 1224.45C783.589 1234.53 763.573 1230.02 765.755 1213.98C769.42 1187.66 783.647 1165.94 797.603 1143.91C812.892 1119.7 828.174 1095.59 843.561 1071.39C853.915 1055 877.565 1072.74 867.722 1089.09C847.045 1123.48 826.465 1157.87 805.801 1192.17C798.023 1205.11 776.893 1195.87 778.778 1181.7C785.014 1136.56 804.648 1095.83 830.046 1058.52C855.444 1021.21 883.509 986.289 900.722 943.707C908.052 925.492 933.722 936.416 928.6 954.657C914.308 1005.79 896.61 1055.85 875.149 1104.43C856.311 1147.14 833.744 1188.17 799.694 1220.75C785.739 1234.15 766.992 1210.8 780.843 1197.48L781.044 1197.5Z" fill="#748763"/>
<path d="M965.751 1097.54C940.496 1153.55 896.493 1195.94 856.946 1241.71C836.612 1265.19 817.146 1289.97 803.567 1317.97C788.07 1349.89 779.768 1384.07 777.987 1419.33L750.964 1408.87C784.049 1362.42 818.668 1316.64 849.039 1268.3C879.41 1219.96 904.167 1169.63 925.511 1117.33L951.524 1131.71C920.959 1180.02 890.296 1228.23 859.724 1276.55C830.972 1321.94 799.163 1366.72 781.174 1417.65L755.161 1403.29C803.567 1343.88 845.84 1279.72 880.796 1211.57C889.499 1194.6 917.507 1205.27 908.668 1222.52C872.462 1293.05 829.34 1359.53 779.321 1420.98C768.714 1434.03 747.474 1422.96 753.309 1406.61C771.687 1354.8 803.806 1308.95 833.044 1262.81C864.555 1213.18 895.975 1163.45 927.486 1113.82C936.63 1099.41 959.852 1112.59 953.499 1128.2C931.754 1181.45 906.058 1233.1 875.719 1282.04C845.387 1330.99 809.142 1378.81 775.119 1426.57C766.163 1439.19 747.39 1430.49 748.096 1416.1C751.664 1346.57 780.85 1285.56 825.034 1232.85C864.516 1185.76 912.242 1143.36 937.893 1086.39C945.748 1068.93 973.742 1079.7 965.771 1097.34L965.751 1097.54Z" fill="#748763"/>
<path d="M721.991 1369.08C669.544 1278.22 630.37 1180.52 604.878 1078.73L634.599 1077.82C636.09 1143.16 645.318 1205.59 672.258 1265.75C684.626 1293.36 699.864 1319.56 718.002 1343.85C736.147 1368.16 758.178 1389.84 760.561 1420.83C761.759 1436.21 744.818 1443.58 734.107 1432.72C684.095 1381.88 649.301 1318.08 632.552 1248.84C627.99 1230.08 657.616 1225.25 662.091 1243.9C677.645 1308.3 710.892 1366.71 757.368 1413.86L730.915 1425.76C728.622 1395.89 701.211 1372.83 685.08 1349.45C667.304 1323.58 652.028 1295.87 640 1266.89C614.253 1204.94 606.243 1141.43 604.777 1074.9C604.345 1056.97 630.663 1058.83 634.498 1073.99C659.358 1173.21 698.193 1268.37 749.377 1356.88C759.084 1373.57 731.595 1385.76 722.082 1369.19L721.991 1369.08Z" fill="#748763"/>
<path d="M727.813 1637.64C708.243 1611.59 688.764 1585.65 669.201 1559.6C657.655 1544.22 680.061 1525.88 692.468 1540.74L750.4 1609.88L727.133 1628.73C698.044 1587.22 668.962 1545.61 639.765 1504.08C610.572 1462.56 581.868 1425 556.819 1383.21L585.245 1374.54C614.259 1483.94 676.072 1584.11 760.917 1659.08L737.3 1673.58C732.048 1655.66 717.225 1641.85 704.96 1628.52C690.901 1613.19 677.62 1597.13 665.316 1580.38C641.131 1547.62 620.425 1512.3 603.305 1475.36C595.199 1457.83 622.498 1445.53 630.606 1463.05C648.55 1501.69 670.347 1538.12 696.432 1571.89C720.489 1603.03 755.646 1629.81 766.939 1668.65C770.572 1680.98 752.699 1691.47 743.329 1683.15C652.241 1602.61 586.985 1496.95 555.814 1379.39C551.047 1361.62 576.291 1357.43 584.239 1370.72C608.774 1411.66 638.598 1450.03 665.931 1489.15C694.061 1529.36 722.289 1569.57 750.413 1609.78C761.422 1625.5 739.638 1643.6 727.146 1628.63L669.208 1559.49L692.475 1540.64C712.045 1566.69 731.517 1592.63 751.087 1618.68C762.633 1634.06 739.456 1653.02 727.819 1637.54L727.813 1637.64Z" fill="#748763"/>
<path d="M760.775 1632.55C834.935 1531.46 866.556 1407.93 896.966 1288.29L924.837 1299.25C915.927 1327.74 898.423 1352.01 880.304 1375.42C862.184 1398.83 843.787 1423.92 829.586 1451.16C801.293 1505.54 785.415 1565.14 782.423 1626.29L753.535 1619.25C788.148 1540.92 823.816 1463.11 860.352 1385.69L886.358 1400.06C859.115 1449.23 831.872 1498.4 804.531 1547.56C800.568 1554.67 789.585 1555.03 783.602 1550.79C776.31 1545.6 776.517 1536.89 780.37 1529.86C807.614 1480.69 834.857 1431.53 862.204 1382.36C870.37 1367.66 895.444 1381.43 888.217 1396.74C851.681 1474.16 816.103 1552.08 781.4 1630.3C774.438 1645.94 751.735 1640.25 752.512 1623.26C755.497 1561.2 771.479 1499.7 799.584 1444.2C813.26 1417.21 829.67 1391.92 848.139 1368.03C866.607 1344.16 887.33 1318.92 896.843 1288.48C902.723 1269.71 929.351 1281.13 924.721 1299.43C893.624 1421.81 860.611 1547.1 784.813 1650.44C773.435 1666.02 749.183 1648.32 760.652 1632.74L760.775 1632.55Z" fill="#748763"/>
<path d="M779.671 1852.87C634.284 1818.05 519.651 1708.23 478.985 1564.37C474.38 1547.92 500.983 1540.36 507.41 1555.7C557.532 1675.44 682.03 1735.18 779.658 1809.88C792.855 1820.01 781.361 1842.51 765.282 1835.9C702.778 1810.37 646.651 1772.85 598.603 1725.33L621.868 1706.48C649.185 1739.07 686.381 1762.65 727.962 1772.23L717.497 1799.25C644.291 1734.04 571.181 1668.84 497.97 1603.62C483.738 1590.88 501.245 1566.6 515.666 1579.46C588.874 1644.68 661.987 1709.88 735.195 1775.1C744.838 1783.74 740.816 1805.82 724.731 1802.13C675.12 1790.6 631.256 1764.51 598.395 1725.42C585.715 1710.32 608.285 1693.31 621.66 1706.56C665.788 1750.25 718.436 1784.59 775.928 1808.08L761.551 1834.1C659.371 1755.9 532.155 1693.37 479.703 1568.06L508.128 1559.39C544.758 1689.07 651.218 1791.61 782.3 1823.02C790.232 1824.95 796.462 1830.63 795.64 1839.48C794.876 1846.74 787.008 1854.74 779.178 1852.82L779.671 1852.87Z" fill="#748763"/>
<path d="M840.64 1954.47C862.528 1814.54 873.925 1673.13 874.702 1531.51L901.725 1541.97C851.461 1623.97 824.489 1718.47 822.553 1814.58C822.145 1833.82 792.357 1830.59 792.752 1811.44C794.753 1709.93 824.528 1610.71 877.584 1524.18C886.171 1510.21 904.594 1521.28 904.607 1534.64C903.83 1676.26 892.433 1817.67 870.545 1957.6C867.553 1976.56 837.739 1973.54 840.744 1954.47H840.64Z" fill="#748763"/>
<path d="M806.798 1843.26C826.581 1761.77 846.351 1680.39 866.038 1598.89L893.916 1609.85C870.817 1655.83 853.831 1704.87 844.81 1755.55C836.528 1801.98 834.533 1850.78 851.752 1895.37C858.707 1913.37 831.393 1925.78 824.451 1907.68C805.82 1859.33 805.762 1807.09 814.271 1756.56C823.531 1701.7 841.054 1648.5 865.947 1598.78C874.715 1581.22 898.384 1591.13 893.825 1609.74C874.042 1691.22 854.265 1772.6 834.585 1854.09C832.649 1862.03 821.977 1865.14 815.113 1862.61C806.714 1859.42 804.68 1850.96 806.61 1843.13L806.798 1843.26Z" fill="#748763"/>
<path d="M851.338 1893.61L860.702 1905.84L834.249 1917.74C826.996 1851.81 831.587 1785.9 847.265 1721.56C849.188 1713.72 859.879 1710.43 866.737 1713.05C875.13 1716.34 877.176 1724.59 875.24 1732.52C860.942 1791.38 857.224 1852.76 863.875 1912.92C865.403 1927.13 847.064 1937.26 837.422 1924.8L828.058 1912.58C816.304 1897.28 839.578 1878.34 851.325 1893.71L851.338 1893.61Z" fill="#748763"/>
<path d="M813.707 1978.56C696.315 1952.6 589.649 1890.41 509.808 1800.29L535.146 1784.67C556.868 1836.15 617.013 1849.69 664.875 1865.45C719.53 1883.42 771.381 1909.05 819.36 1940.88C833.814 1950.52 820.662 1972.55 804.99 1966.9C703.179 1930.23 607.59 1877.33 522.393 1810.54L540.087 1786.4C571.001 1815.35 605.731 1839.46 643.999 1857.64L629.625 1883.66L583.814 1856.95L607.426 1842.45L611.64 1863.6C614.33 1877.23 598.472 1884.81 588.028 1878.08L583.886 1875.43C567.596 1865.11 585.39 1840.96 601.581 1851.29L605.722 1853.93L582.11 1868.43L577.896 1847.29C575.04 1833.34 591.003 1826.67 601.51 1832.81L647.319 1859.49C661.896 1867.95 648.246 1892.83 632.945 1885.51C592.288 1866.19 555.036 1841.19 522.204 1810.44C508.579 1797.66 524.313 1774 539.9 1786.27C623.137 1851.63 716.066 1903.06 815.656 1938.88L801.28 1964.9C750.018 1930.81 694.644 1906.22 636.135 1887.65C585.108 1871.46 529.92 1849.9 507.548 1796.95C500.874 1781.08 521.566 1768.58 532.886 1781.32C606.973 1865.02 707.388 1924.54 816.64 1948.64C835.29 1952.8 832.363 1982.63 813.519 1978.43L813.707 1978.56Z" fill="#748763"/>
<path d="M532.138 1788.47C568.473 1841.39 622.469 1879.09 684.542 1895.32C692.365 1897.35 695.681 1907.84 693.045 1914.79C689.768 1923.09 681.499 1925.33 673.579 1923.3C607.198 1906 547.724 1864.02 508.861 1807.44C504.241 1800.72 504.482 1791.7 511.066 1786.36C516.993 1781.57 527.505 1781.86 532.127 1788.57L532.138 1788.47Z" fill="#748763"/>
<path d="M934.305 2126.37C951.369 1983.64 898.034 1839.86 932.356 1698.23C936.766 1680.12 965.596 1681.93 962.157 1701.36C948.059 1782.23 938.909 1863.83 935.147 1945.78C933.262 1986.77 932.68 2027.77 933.405 2068.82C933.483 2070.95 934.7 2082.32 933.755 2082.73L923.581 2080.16C923.892 2077.17 923.808 2074.15 923.627 2071.13C923.439 2061.36 922.849 2051.66 922.461 2041.98C921.554 2020.88 920.751 1999.81 919.845 1978.72L949.562 1977.82C949.096 2022.56 948.72 2067.42 948.247 2112.15L918.446 2109.04C920.674 1981.33 922.908 1853.61 925.135 1725.9C925.446 1706.65 955.241 1709.87 954.937 1729.02C952.709 1856.74 950.481 1984.45 948.247 2112.15C947.93 2131.52 918.258 2128.1 918.446 2109.04C918.912 2064.3 919.294 2019.45 919.767 1974.71C919.903 1958.05 948.739 1956.95 949.484 1973.8C950.585 1999.72 951.576 2025.74 952.677 2051.68C953.434 2070.32 958.822 2097.5 937.698 2107.44C928.613 2111.7 917.934 2110.08 910.96 2102.83C903.992 2095.58 904.07 2085.23 903.876 2075.57C903.332 2051.01 903.202 2026.39 903.578 2001.72C905.099 1899.94 914.93 1798.44 932.356 1698.23L962.157 1701.36C927.855 1842.77 981.17 1986.77 964.106 2129.48C961.801 2148.63 932 2145.52 934.305 2126.37Z" fill="#748763"/>
<path d="M943.461 2149.22C924.293 2147.21 927.414 2117.41 946.582 2119.42C965.757 2121.42 962.636 2151.23 943.461 2149.22Z" fill="#748763"/>
<path d="M916.638 2165.6C794.843 2146.2 679.361 2095.24 583.454 2017.61C568.454 2005.48 585.11 1982.63 601.15 1993.44C691.749 2054.66 794.39 2096.84 901.958 2116.85L894.919 2145.75C821.529 2115.75 745.802 2091.86 668.437 2074.92L675.482 2046.02L762.309 2072.29L745.194 2095.7C727.916 2069.9 688.732 2076.74 662.907 2066.39C637.071 2056.07 620.14 2029.79 593.648 2024.81L600.691 1995.91C665.665 2024.72 730.643 2053.42 795.62 2082.21L784.663 2110.08C732.624 2083.45 680.579 2056.8 628.537 2030.17C611.574 2021.46 622.239 1993.44 639.492 2002.28C691.536 2028.93 743.575 2055.58 795.62 2082.21C812.392 2090.79 802.607 2118.09 784.663 2110.08C719.692 2081.29 654.708 2052.59 589.736 2023.78C575.047 2017.32 579.343 1991.66 596.78 1994.9C612.738 1997.87 626.03 2005.19 638.876 2014.88C651.723 2024.56 662.978 2034.98 678.027 2039.95C709.668 2050.41 747.363 2045.32 768.474 2076.75C776.892 2089.39 766.058 2104.63 751.359 2100.17L664.526 2073.89C648.556 2069.11 654.98 2041.36 671.571 2045.01C751.682 2062.54 829.993 2086.71 905.882 2117.76C920.899 2123.95 915.984 2149.76 898.837 2146.65C785.945 2125.68 678.649 2081.9 583.454 2017.61L601.15 1993.44C692.993 2067.74 803.1 2117.25 919.76 2135.8C938.727 2138.78 935.709 2168.6 916.638 2165.6Z" fill="#748763"/>
<path d="M606.993 1987.54L664.5 2018.56C668.107 2020.54 670.924 2022.45 672.725 2026.36C674.279 2029.74 674.57 2034.58 673.003 2038.03C669.992 2044.75 660.952 2050.54 653.537 2046.55L596.027 2015.5C592.42 2013.52 589.605 2011.62 587.806 2007.71C586.251 2004.35 585.956 1999.49 587.522 1996.03C590.535 1989.32 599.577 1983.55 606.993 1987.54Z" fill="#748763"/>
<path d="M1027.43 2243.98C1033.45 2142.47 1036.82 2040.3 1049.3 1939.37L1079.1 1942.48C1069 1991.95 1060.28 2041.65 1053.23 2091.62C1046.19 2141.61 1038.45 2190.5 1045.44 2239.84L1015.9 2244.79C1002.47 2140.95 1013.22 2035.4 1047.31 1936.35C1053.54 1918.12 1081.51 1929.08 1075.18 1947.29C1042.86 2041.13 1032.66 2141.39 1045.44 2239.84C1047.95 2258.99 1018.61 2263.95 1015.9 2244.79C1008.73 2194.32 1015.77 2143.44 1022.82 2093.36C1029.88 2043.29 1038.93 1990.4 1049.4 1939.37C1053.14 1920.89 1081.65 1922.96 1079.2 1942.5C1066.71 2043.52 1063.35 2145.6 1057.33 2247.11C1056.22 2266.38 1026.41 2263.27 1027.54 2243.99L1027.43 2243.98Z" fill="#748763"/>
<path d="M1019.89 2274.82C981.591 2305.86 931.209 2305.5 885.84 2292.81C835.686 2278.83 787.662 2254.11 743.893 2226.13C728.642 2216.4 742.96 2195.7 758.269 2200.11C834.624 2221.88 913.388 2234.05 992.807 2237.14L985.761 2266.02C919.488 2242.92 849.207 2233.15 779.218 2237.86L782.229 2209.16C841.572 2237.97 904.717 2268.89 972.563 2263.54C991.706 2262.03 996.744 2291.58 977.504 2293.08C903.48 2298.88 836.353 2268.65 771.369 2237.03C759.421 2231.28 758.301 2209.36 774.38 2208.33C849.926 2203.3 925.213 2213.19 996.815 2238.17C1013.48 2243.92 1006.08 2267.66 989.769 2267.05C907.657 2263.86 826.497 2250.55 747.5 2228.11L761.876 2202.11C799.908 2226.38 840.744 2246.82 883.658 2260.95C922.195 2273.63 967.642 2278.89 1001.23 2251.57C1016.27 2239.39 1035.13 2262.66 1020.09 2274.84L1019.89 2274.82Z" fill="#748763"/>
<path d="M1029.82 2237.5C1041.11 2140.26 1047.23 2042.48 1048.15 1944.57C1048.36 1925.29 1078.15 1928.52 1077.95 1947.68C1077.04 2045.61 1070.91 2143.39 1059.62 2240.63C1057.41 2259.78 1027.61 2256.65 1029.82 2237.5Z" fill="#748763"/>
<path d="M1984.87 2934.44C1906.89 2933.63 1844.01 2869.75 1844.48 2791.75L1849.25 1987.54L2004.61 1989.14L1999.09 2920.46C1999.04 2928.27 1992.68 2934.53 1984.87 2934.44Z" fill="#DEB364"/>
<path d="M886.189 1940.93C886.189 1742.18 1047.31 1581.05 1246.07 1581.05H1844.23V2188.79H886.189V1940.93Z" fill="#F5D494"/>
<path d="M1792.81 354.372H2030.06V1961.68C2030.06 2092.7 1923.84 2198.92 1792.81 2198.92V354.372Z" fill="#F5D494"/>
<path d="M1792.81 127.209H2246.65C2258.06 127.209 2267.29 136.454 2267.29 147.86C2267.29 261.913 2174.84 354.37 2060.79 354.37H1792.81V127.209Z" fill="#F5D494"/>
<path d="M2131.72 127.209H2251.15C2260.05 127.209 2267.29 134.441 2267.29 143.362V209.713C2267.29 284.586 2206.6 345.284 2131.72 345.284V127.209Z" fill="#FFE6C8"/>
<path d="M1823.9 2976.03C1745.89 2975.22 1683.03 2911.34 1683.5 2833.33L1687.86 2098.98L1843.21 2100.58L1838.1 2962.05C1838.04 2969.86 1831.69 2976.12 1823.9 2976.03Z" fill="#F5D494"/>
<path d="M1821.87 18.5964C1836.76 18.8316 1848.66 31.1078 1848.42 46.0158L1846.81 148.497L1792.82 147.645L1794.44 45.1641C1794.67 30.2561 1806.95 18.3613 1821.87 18.5964Z" fill="#F5D494"/>
<path d="M1914.82 18.5964C1929.62 18.8298 1941.42 31.0075 1941.18 45.7962L1939.56 148.494L1886.02 147.648L1887.63 44.9514C1887.87 30.1627 1900.05 18.3632 1914.82 18.5964Z" fill="#F5D494"/>
<path d="M766.324 2483.45C763.009 2518.07 788.394 2548.83 823.019 2552.13C857.645 2555.44 888.398 2530.05 891.707 2495.44L766.324 2483.45ZM1048.73 1647.51C1021.28 1655.46 997.495 1673.73 979.11 1691.35C959.566 1710.08 940.618 1733.47 923.328 1759.12C888.852 1810.26 857.503 1875.58 840.692 1942.54L962.856 1973.22C975.704 1922.04 1000.47 1870.02 1027.76 1829.53C1041.35 1809.38 1054.7 1793.38 1066.27 1782.29C1078.99 1770.1 1085.12 1768.1 1083.8 1768.49L1048.73 1647.51ZM840.692 1942.54C793.186 2131.75 782.986 2309.21 766.324 2483.45L891.707 2495.44C908.939 2315.29 918.316 2150.64 962.856 1973.22L840.692 1942.54Z" fill="#F5D494"/>
<path d="M793.749 2558.77C832.39 2561.67 865.325 2532.64 867.313 2493.96L870.24 2437.03L793.283 2431.24L787.118 2551.25C786.917 2555.12 789.89 2558.49 793.749 2558.77Z" fill="#5F2E23"/>
<path d="M1199.3 2189.83H1072.6C1081.49 2153.49 1109.95 2080.81 1152.63 2080.81C1195.3 2080.81 1201.53 2153.49 1199.3 2189.83Z" fill="#5F2E23"/>
<path d="M1792.81 980.358L1793.13 835.956C1829.11 846.181 1901.09 878.791 1900.99 927.434C1900.88 976.071 1828.81 982.98 1792.81 980.358Z" fill="#5F2E23"/>
<path d="M2030.18 692.02L2029.73 490.663C1978.9 504.922 1877.29 550.397 1877.43 618.224C1877.59 686.05 1979.33 695.679 2030.18 692.02Z" fill="#5F2E23"/>
<path d="M1318.83 1581.05L1445.54 1581.21C1436.61 1617.54 1408.08 1690.2 1365.39 1690.15C1322.71 1690.09 1316.57 1617.39 1318.83 1581.05Z" fill="#5F2E23"/>
<path d="M2031.5 1718.65L2030.35 1972.16C1996.45 1954.19 1928.72 1896.92 1929.11 1811.52C1929.49 1726.13 1997.52 1714.03 2031.5 1718.65Z" fill="#5F2E23"/>
<path d="M2029.03 1146.31L2028.16 1336.74C1975.19 1323.1 1869.33 1279.79 1869.62 1215.64C1869.91 1151.5 1976 1142.69 2029.03 1146.31Z" fill="#5F2E23"/>
<path d="M1733.14 2189.83H1614.88C1623.18 2117.15 1649.73 1971.76 1689.57 1971.76C1729.4 1971.76 1735.21 2117.15 1733.14 2189.83Z" fill="#5F2E23"/>
<path d="M1682.67 2353.13L1683.79 2271.62C1714.78 2277.83 1776.65 2297.12 1776.27 2324.58C1775.9 2352.04 1713.71 2355.06 1682.67 2353.13Z" fill="#5F2E23"/>
<path d="M1837.7 2372.16L1837.5 2474.13C1816.41 2466.91 1774.26 2443.94 1774.34 2409.58C1774.4 2375.23 1816.61 2370.32 1837.7 2372.16Z" fill="#5F2E23"/>
<path d="M1042.89 2281.16L1042.69 2383.13C1021.6 2375.93 979.453 2352.94 979.525 2318.59C979.589 2284.23 1021.79 2279.32 1042.89 2281.16Z" fill="#5F2E23"/>
<path d="M887.686 2508.79V2345.36C921.67 2356.82 989.646 2393.53 989.646 2448.58C989.646 2503.64 921.67 2511.66 887.686 2508.79Z" fill="#5F2E23"/>
<path d="M1666.51 160.981C1701.75 193.709 1714.19 230.464 1737.67 245.331C1753 255.046 1778.09 255.836 1793.06 255.291C1800.52 255.019 1806.41 249.43 1807.87 241.946L1819.1 183.945C1820.9 174.638 1815.4 165.276 1806.39 162.602C1756.26 147.737 1608.21 106.855 1666.51 160.981Z" fill="#F5D494"/>
<path d="M1822.46 81.7779C1843.52 81.7779 1860.59 63.4716 1860.59 40.8891C1860.59 18.3067 1843.52 0 1822.46 0C1801.4 0 1784.33 18.3067 1784.33 40.8891C1784.33 63.4716 1801.4 81.7779 1822.46 81.7779Z" fill="#5F2E23"/>
<path d="M1915.67 81.7779C1936.73 81.7779 1953.8 63.4716 1953.8 40.8891C1953.8 18.3067 1936.73 0 1915.67 0C1894.61 0 1877.54 18.3067 1877.54 40.8891C1877.54 63.4716 1894.61 81.7779 1915.67 81.7779Z" fill="#5F2E23"/>
<path d="M1390.34 1799.11C1414.07 1730.05 1476.48 1694.62 1504.73 1685.54C1542.85 1673.85 1547.09 1717.34 1559.8 1799.11C1572.51 1880.89 1504.73 1903.62 1483.54 1903.62C1462.36 1903.62 1360.69 1885.44 1390.34 1799.11Z" fill="#5F2E23"/>
<path d="M1229.55 2022.57C1209.51 1989.34 1214.06 1953.26 1218.84 1939.37C1225.52 1920.81 1243.81 1934.48 1279.59 1958.37C1315.37 1982.27 1304.26 2015.94 1298 2023.96C1291.75 2031.97 1254.61 2064.11 1229.55 2022.57Z" fill="#5F2E23"/>
<path d="M1144.4 1757.35C1176.19 1732.29 1223.24 1737.58 1242.8 1743.36C1269.05 1751.44 1260.76 1774.15 1248.08 1818.59C1235.39 1863.02 1188.24 1849.58 1175.28 1841.93C1162.32 1834.28 1104.66 1788.68 1144.4 1757.35Z" fill="#5F2E23"/>
<path d="M1806.79 1062.07C1831.04 1042.95 1866.94 1046.98 1881.86 1051.39C1901.89 1057.56 1895.55 1074.89 1885.89 1108.78C1876.21 1142.68 1840.24 1132.43 1830.36 1126.59C1820.46 1120.75 1776.47 1085.97 1806.79 1062.07Z" fill="#5F2E23"/>
<path d="M1806.79 453.278C1831.04 434.155 1866.94 438.192 1881.86 442.6C1901.89 448.768 1895.55 466.097 1885.89 499.99C1876.21 533.883 1840.24 523.638 1830.36 517.799C1820.46 511.96 1776.47 477.18 1806.79 453.278Z" fill="#5F2E23"/>
<path d="M982.309 2026.48C969.785 1971.15 999.955 1912.02 1016.6 1889.38C1039.33 1859.17 1061.19 1882.29 1105.75 1922.89C1150.3 1963.48 1110.74 2018.35 1095.3 2031.3C1079.87 2044.26 997.967 2095.67 982.309 2026.48Z" fill="#5F2E23"/>
<path d="M1474.39 2131.12C1426.56 2155.86 1366.33 2136.64 1342.18 2123.94C1309.86 2106.46 1326.36 2078.68 1354.01 2023.44C1381.67 1968.21 1440 1998.18 1455.05 2011.64C1470.1 2025.09 1534.17 2100.17 1474.39 2131.12Z" fill="#5F2E23"/>
<path d="M1777.91 1703.07C1757.39 1755.6 1700.41 1784.02 1674.49 1791.67C1639.47 1801.55 1634.66 1769.02 1621.23 1708.01C1607.79 1646.99 1670 1627.96 1689.59 1627.35C1709.17 1626.73 1803.55 1637.41 1777.91 1703.07Z" fill="#5F2E23"/>
<path d="M1603.47 1971.63C1594.28 2001.85 1568.4 2018.02 1556.61 2022.32C1540.68 2027.9 1538.38 2009.11 1532.05 1973.88C1525.73 1938.65 1554.02 1927.92 1562.95 1927.64C1571.87 1927.37 1614.93 1933.88 1603.47 1971.63Z" fill="#5F2E23"/>
<path d="M1800.38 1871.76C1780.34 1902.32 1725.88 1919.38 1701.16 1924.11C1667.78 1930.21 1663.54 1911.52 1651.39 1876.46C1639.25 1841.41 1698.58 1829.69 1717.2 1829.12C1735.82 1828.53 1825.43 1833.58 1800.38 1871.76Z" fill="#5F2E23"/>
<path d="M1018.8 2140.44C1002.49 2168.3 957.979 2183.73 937.769 2187.96C910.474 2193.45 906.957 2176.34 896.926 2144.27C886.902 2112.21 935.405 2101.68 950.636 2101.21C965.873 2100.73 1039.19 2105.6 1018.8 2140.44Z" fill="#5F2E23"/>
<path d="M1266.16 1648.04C1245.86 1668.86 1191.27 1680.93 1166.51 1684.36C1133.08 1688.83 1129.01 1676.26 1117.19 1652.74C1105.35 1629.22 1164.77 1620.71 1183.39 1620.12C1202.01 1619.54 1291.54 1622.03 1266.16 1648.04Z" fill="#5F2E23"/>
<path d="M1856.42 2046.79C1845.28 2087.68 1813.64 2109.49 1799.2 2115.28C1779.71 2122.75 1776.82 2097.31 1768.95 2049.55C1761.07 2001.78 1795.7 1987.34 1806.62 1987C1817.57 1986.66 1870.34 1995.68 1856.42 2046.79Z" fill="#5F2E23"/>
<path d="M1895.48 2013.13C1846.09 1968.81 1833.7 1920.35 1833.69 1901.67C1834.12 1876.71 1870.16 1894.81 1939.19 1926.41C2008.19 1958 2008.98 2003.27 2003.52 2014.12C1998.07 2024.95 1957.22 2068.52 1895.48 2013.13Z" fill="#5F2E23"/>
<path d="M1836.8 1778.34C1850.57 1762.41 1873.96 1760.26 1883.92 1761.19C1897.35 1762.59 1894.92 1774.94 1891.9 1798.72C1888.87 1822.5 1864.85 1820.54 1857.96 1817.98C1851.09 1815.44 1819.61 1798.27 1836.8 1778.34Z" fill="#5F2E23"/>
<path d="M1824.85 1719.29C1805.37 1685.74 1813.64 1630.16 1820.23 1606.56C1829.35 1574.83 1848.61 1581.3 1886.55 1589.86C1924.49 1598.41 1909.06 1655.26 1901.34 1671.43C1893.62 1687.61 1849.19 1761.21 1824.85 1719.29Z" fill="#5F2E23"/>
<path d="M985.741 1846.11C965.019 1815.15 970.083 1766.33 975.205 1745.8C982.361 1718.2 1001.39 1725.14 1038.67 1735.07C1075.95 1745.01 1064.03 1794.5 1057.41 1808.37C1050.8 1822.26 1011.63 1884.83 985.741 1846.11Z" fill="#5F2E23"/>
<path d="M1960.6 1576.52C1989.57 1581.19 2009.65 1607.53 2016.06 1620.12C2024.5 1637.16 2008.23 1643.36 1978.15 1657.26C1948.04 1671.17 1932.3 1641.05 1930.1 1630.95C1927.92 1620.86 1924.36 1570.67 1960.6 1576.52Z" fill="#5F2E23"/>
<path d="M1891.47 1477.92C1946.78 1471.65 1978.47 1483.61 1987.41 1490.38C1999 1499.62 1965.42 1509.37 1902.59 1529.11C1839.75 1548.86 1817.62 1532.8 1816.21 1526.4C1814.83 1520.01 1822.31 1485.75 1891.47 1477.92Z" fill="#5F2E23"/>
<path d="M1905.57 752.035C1954.48 780.468 1974.29 809.569 1978.08 820.57C1982.75 835.231 1949.93 822.869 1887.71 800.982C1825.5 779.095 1815.73 752.423 1817.96 746.304C1820.19 740.185 1844.45 716.498 1905.57 752.035Z" fill="#5F2E23"/>
<path d="M1815.73 1382.2C1816.03 1351.58 1832.88 1330.72 1841.26 1324.11C1852.65 1315.43 1858.82 1332.75 1872 1364.83C1885.19 1396.91 1865.16 1413.14 1858.12 1415.3C1851.09 1417.47 1815.33 1420.48 1815.73 1382.2Z" fill="#5F2E23"/>
<path d="M1342.73 1833C1360.63 1857.89 1358.13 1891.81 1354.64 1905.65C1349.73 1924.22 1333.99 1916.62 1303.3 1904.31C1272.6 1892.02 1280.66 1858.61 1285.59 1849.69C1290.52 1840.78 1320.34 1801.91 1342.73 1833Z" fill="#5F2E23"/>
<path d="M1939.28 940.715C1953.03 924.773 1976.42 922.636 1986.4 923.562C1999.81 924.961 1997.38 937.309 1994.35 961.087C1991.33 984.871 1967.31 982.902 1960.42 980.358C1953.54 977.813 1922.07 960.64 1939.28 940.715Z" fill="#5F2E23"/>
<mask id="mask1_550_2646" style="mask-type:luminance" maskUnits="userSpaceOnUse" x="0" y="1478" width="2078" height="1669">
<path d="M0 1478.27H2077.52V3146.32H0V1478.27Z" fill="white"/>
</mask>
<g mask="url(#mask1_550_2646)">
<path d="M1250.87 2762.22H1000.69V2827.27C1000.69 2979.23 1094.03 3102.42 1209.17 3102.42C1232.2 3102.42 1250.87 3077.79 1250.87 3047.39V2762.22Z" fill="#EACBA6"/>
<path d="M467.715 2608.58H717.886V2698.81C717.886 2909.6 624.549 3080.47 509.411 3080.47C486.382 3080.47 467.715 3046.3 467.715 3004.14V2608.58Z" fill="#EACBA6"/>
<path fill-rule="evenodd" clip-rule="evenodd" d="M1542.58 2471.57C1542.58 2311.64 1427.66 2181.97 1285.91 2181.97H456.872V2517.91C456.872 2629.8 513.129 2726.88 595.473 2775.1V3098.54C595.473 3124.92 614.432 3146.31 637.822 3146.31C754.772 3146.31 849.576 3039.35 849.576 2907.4V2807.49H1288.47V2907.4C1288.47 3039.35 1383.29 3146.31 1500.23 3146.31C1523.62 3146.31 1542.58 3124.92 1542.58 3098.54V2807.49V2720.62V2471.57Z" fill="#FFE6C8"/>
<path d="M941.972 2057.45C941.972 1737.58 712.148 1478.27 428.637 1478.27H182.235V2057.45C182.235 2377.32 412.065 2636.64 695.57 2636.64H941.972V2057.45Z" fill="#E37A63"/>
<path fill-rule="evenodd" clip-rule="evenodd" d="M506.919 1680.98C555.823 1680.98 595.469 1725.72 595.469 1780.89C595.469 1836.06 555.823 1880.8 506.919 1880.8H485.101V2092.2C485.101 2106.59 474.76 2118.27 462.002 2118.27H280.195C125.447 2118.27 -0.00195312 1976.73 -0.00195312 1802.13C-0.00195312 1767.21 25.0874 1738.9 56.0365 1738.9H393.824C413.097 1704.12 447.347 1680.98 486.384 1680.98H506.919Z" fill="#FFE6C8"/>
<path d="M1499.17 1672.15C1486.95 1667.86 1473.62 1674.27 1469.38 1686.46C1465.15 1698.64 1457.16 1724 1469.38 1728.29L1499.17 1672.15ZM1485.75 2359.33C1556.35 2337.61 1629.46 2284.33 1669.97 2234.47L1606.3 2190.63C1571.1 2233.96 1521.3 2262.83 1460.28 2281.61L1485.75 2359.33ZM1669.97 2234.47C1709.58 2185.7 1737.93 2133.32 1753.5 2075.28L1669.97 2063.39C1656.3 2114.27 1642.39 2146.21 1606.3 2190.63L1669.97 2234.47ZM1753.5 2075.28C1790.03 1939.22 1714.93 1747.87 1499.17 1672.15L1469.38 1728.29C1663.46 1796.4 1699.73 1952.51 1669.97 2063.39L1753.5 2075.28Z" fill="#FFE6C8"/>
<path d="M1504.08 1640.44H1483.54C1426.85 1640.44 1380.88 1692.3 1380.88 1756.28H1504.08V1640.44Z" fill="#E37A63"/>
</g>
<mask id="mask2_550_2646" style="mask-type:luminance" maskUnits="userSpaceOnUse" x="1158" y="948" width="570" height="651">
<path d="M1727.94 948.894H1158.62V1598.13H1727.94V948.894Z" fill="white"/>
</mask>
<g mask="url(#mask2_550_2646)">
<path d="M1425.33 1113.78H1581.64C1585.96 1113.78 1589.46 1117.29 1589.46 1121.63C1589.46 1208.36 1519.48 1278.66 1433.14 1278.66H1425.33V1113.78Z" fill="#FFE6C8"/>
<path d="M1363.78 1113.78V956.742C1363.78 952.403 1367.28 948.894 1371.6 948.894C1457.93 948.894 1527.91 1019.2 1527.91 1105.93V1113.78H1363.78Z" fill="#E37A63"/>
<path d="M1168.88 1283.81C1168.88 1138.68 1286 1021.02 1430.46 1021.02V1556.91C1286 1556.91 1168.88 1439.25 1168.88 1294.12V1283.81Z" fill="#E37A63"/>
<path d="M1703.8 1223.59C1700.44 1214.22 1690.15 1209.37 1680.82 1212.75C1671.5 1216.13 1666.66 1226.46 1670.03 1235.83L1703.8 1223.59ZM1174.48 1225.62C1152.01 1322.56 1160.74 1391.47 1186.14 1442.88C1211.38 1493.94 1251.86 1525.09 1287.15 1548.72L1307.06 1518.72C1273.1 1495.98 1239.21 1469.16 1218.3 1426.83C1197.54 1384.84 1188.32 1324.93 1209.45 1233.8L1174.48 1225.62ZM1287.15 1548.72C1334.34 1580.33 1401.58 1598.13 1450.98 1598.13V1562.06C1408.05 1562.06 1347.86 1546.04 1307.06 1518.72L1287.15 1548.72ZM1450.98 1598.13C1499.29 1598.13 1544.29 1589.65 1586.49 1570.81L1571.91 1537.85C1534.92 1554.37 1494.99 1562.06 1450.98 1562.06V1598.13ZM1586.49 1570.81C1685.41 1526.65 1763.2 1389.07 1703.8 1223.59L1670.03 1235.83C1723.46 1384.68 1652.51 1501.86 1571.91 1537.85L1586.49 1570.81Z" fill="#E37A63"/>
<path d="M1399.68 1521.7C1399.68 1424.47 1478.14 1345.65 1574.93 1345.65H1594.59V1393.74C1594.59 1483.85 1521.87 1556.91 1432.17 1556.91C1414.23 1556.91 1399.68 1542.29 1399.68 1524.27V1521.7Z" fill="#E37A63"/>
</g>
<mask id="mask3_550_2646" style="mask-type:luminance" maskUnits="userSpaceOnUse" x="1558" y="1678" width="1483" height="1470">
<path d="M2707.83 1678.03L1558.14 2016.85L1891.31 3147.4L3041 2808.58L2707.83 1678.03Z" fill="white"/>
</mask>
<g mask="url(#mask3_550_2646)">
<path d="M1814.69 2887.37C1725.57 2584.99 1897.39 2267.95 2198.42 2179.23L2803.03 2001.06C2892.35 2304.21 2719.86 2622 2417.92 2710.52L1814.69 2887.37Z" fill="#3A3435"/>
<path d="M2335.29 1807.47C2332.36 1797.49 2338.03 1787.03 2347.96 1784.1L2386.25 1772.81C2563.85 1720.47 2750.45 1822.66 2803.03 2001.06L2425.15 2112.4L2335.29 1807.47Z" fill="#3A3435"/>
<path d="M2089.42 2781.85L2093.38 2795.31C2137.2 2943.96 2052.73 3099.85 1904.71 3143.47C1897.32 3145.64 1889.54 3141.38 1887.34 3133.95L1808.03 2864.77L2089.42 2781.85Z" fill="#3A3435"/>
<path d="M2540.58 2548.25L2556.82 2603.31C2600.34 2751.05 2516.4 2905.98 2369.32 2949.36C2361.98 2951.52 2354.24 2947.29 2352.06 2939.91L2260.95 2630.71L2540.58 2548.25Z" fill="#262021"/>
<path d="M1983.99 2839.23C1915.65 2607.32 2047.42 2364.17 2278.32 2296.11L2704.42 2170.54C2772.76 2402.45 2640.99 2645.61 2410.11 2713.67L1983.99 2839.23Z" fill="#FFE6C8"/>
<path d="M2519.34 2379.21L2535.54 2434.27C2579.09 2582.02 2495.15 2736.96 2348.07 2780.32C2340.72 2782.48 2332.99 2778.26 2330.81 2770.87L2239.69 2461.68L2519.34 2379.21Z" fill="#3A3435"/>
</g>
</g>
</g>
<defs>
<clipPath id="clip0_550_2646">
<rect width="3041" height="3239" fill="white"/>
</clipPath>
</defs>
</svg>
