<svg width="648" height="969" viewBox="0 0 648 969" fill="none" xmlns="http://www.w3.org/2000/svg">
<g clip-path="url(#clip0_550_3415)">
<mask id="mask0_550_3415" style="mask-type:luminance" maskUnits="userSpaceOnUse" x="0" y="0" width="648" height="690">
<path d="M648 0H0V690H648V0Z" fill="white"/>
</mask>
<g mask="url(#mask0_550_3415)">
<path d="M61.7217 329.808C61.7217 188.79 176.069 74.4729 317.122 74.4729C458.178 74.4729 572.525 188.79 572.525 329.808V687.278H61.7217V329.808Z" fill="#355E50"/>
<path d="M373.747 553.515C400.936 543.087 424.153 524.392 442.128 501.676C461.89 476.679 475.084 447.315 484.221 416.952C489.669 398.823 493.703 380.304 497.065 361.691C497.882 357.193 490.95 355.571 490.133 360.069C479.324 419.807 460.126 482.521 411.81 522.844C399.785 532.875 386.243 541.113 371.597 546.737C367.338 548.354 369.465 555.159 373.77 553.515H373.747Z" fill="#748763"/>
<path d="M497.41 361.439C498.162 345.829 499.266 330.156 499.113 314.533C499.072 309.951 491.954 310.236 491.997 314.819C492.15 330.465 491.023 346.114 490.294 361.724C490.072 366.294 497.188 365.984 497.41 361.439Z" fill="#748763"/>
<path d="M499.485 315.516C498.71 293.293 497.912 271.07 497.142 248.869C496.959 244.292 489.865 244.578 490.026 249.155C490.8 271.379 491.598 293.602 492.368 315.801C492.553 320.378 499.645 320.093 499.485 315.516Z" fill="#748763"/>
<path d="M497.211 249.367C496.836 242.446 496.463 235.525 496.092 228.581C495.991 226.733 494.331 224.995 492.387 225.167C490.447 225.34 488.871 226.876 488.975 228.867C489.347 235.787 489.718 242.708 490.095 249.652C490.19 251.501 491.854 253.239 493.795 253.065C495.735 252.893 497.315 251.357 497.211 249.367Z" fill="#748763"/>
<path d="M500.007 278.8C504.584 278.617 504.301 271.503 499.723 271.687C495.144 271.87 495.429 278.984 500.007 278.8Z" fill="#748763"/>
<path d="M500.27 284.775C508.488 274.041 514.431 261.738 517.441 248.53C520.73 234.029 519.159 219.152 521.375 204.552L514.343 203.884C512.552 226.733 507.164 249.37 497.28 270.097L503.89 272.587C505.888 262.556 508.1 252.587 510.555 242.655C512.821 233.419 515.351 224.269 519.688 215.758L513.077 213.268C508.009 228.982 503.993 245.008 501.038 261.254C500.221 265.752 506.962 267.358 507.966 262.876C512.28 243.702 516.597 224.527 520.911 205.353L514.056 205.629C519.274 228.457 514.144 252.795 500.704 271.884C498.074 275.624 504.385 278.933 506.989 275.218C521.579 254.539 526.479 228.051 520.834 203.456C520.025 199.926 514.703 200.473 513.978 203.732C509.665 222.905 505.351 242.08 501.038 261.254L507.966 262.876C510.926 246.63 514.942 230.603 520.01 214.891C521.256 211.016 515.205 208.861 513.4 212.401C508.975 221.128 506.218 230.525 503.864 239.979C501.307 250.246 499.013 260.575 496.935 270.967C496.164 274.797 501.747 277.21 503.545 273.456C514.021 251.518 519.553 227.782 521.433 203.598C521.747 199.62 514.998 198.988 514.396 202.931C512.273 216.863 513.698 231.105 510.885 244.969C508.304 257.66 502.87 269.684 495.019 279.951C492.264 283.576 497.472 288.426 500.248 284.775H500.27Z" fill="#748763"/>
<path d="M492.422 274.543C485.218 266.709 481.065 256.734 477.53 246.83C473.542 235.637 470.326 224.175 467.864 212.541L461.085 214.714C467.625 234.426 484.467 249.71 486.039 271.143L492.607 269.074C488.227 260.604 483.872 252.133 479.497 243.688L473.497 247.514C476.394 252.814 479.29 258.113 482.189 263.411C484.853 268.293 488.216 273.288 488.658 278.97L495.226 276.901C494.224 275.659 494.14 274.736 495.015 273.371C497.518 269.518 491.21 266.209 488.727 270.036C486.602 273.304 486.778 277.691 489.229 280.752C491.253 283.283 496.069 282.52 495.797 278.684C495.329 272.384 492.288 267.02 489.313 261.582C486.058 255.609 482.799 249.659 479.52 243.686C477.315 239.642 471.434 243.488 473.519 247.514C477.899 255.983 482.254 264.454 486.633 272.9C488.281 276.088 493.431 274.218 493.2 270.831C492.411 260.033 488.378 250.076 482.921 240.842C477.465 231.608 471.345 222.899 467.909 212.54C466.448 208.109 460.195 210.308 461.13 214.712C463.742 227.053 467.174 239.193 471.522 251.037C475.34 261.454 480.068 271.525 487.645 279.771C490.751 283.162 495.552 277.909 492.472 274.542L492.422 274.543Z" fill="#748763"/>
<path d="M450.142 248.025C455.275 261.69 465.064 272.412 473.745 283.867C478.209 289.745 482.449 295.917 485.241 302.763C488.431 310.568 489.876 318.799 489.762 327.189L496.33 325.12C489.194 313.601 481.678 302.218 475.215 290.293C468.75 278.369 463.646 266.056 459.382 253.33L452.99 256.342C459.505 268.264 466.042 280.163 472.553 292.086C478.68 303.288 485.543 314.389 489.033 326.742L495.421 323.731C484.846 308.907 475.801 293.049 468.55 276.358C466.743 272.203 459.938 274.304 461.77 278.529C469.282 295.804 478.496 312.226 489.421 327.558C491.736 330.814 496.943 328.514 495.808 324.547C492.243 311.983 485.321 300.623 479.091 289.235C472.376 276.988 465.682 264.715 458.964 252.468C457.017 248.913 451.307 251.683 452.576 255.48C456.924 268.439 462.231 281.077 468.677 293.144C475.126 305.213 482.99 317.105 490.333 328.946C492.262 332.076 496.847 330.301 496.901 326.878C497.115 310.339 491.122 295.426 481.449 282.252C472.803 270.487 462.132 259.703 456.917 245.805C455.322 241.547 448.515 243.671 450.138 247.977L450.142 248.025Z" fill="#748763"/>
<path d="M503.81 316.127C517.632 295.383 528.415 272.814 536.014 249.066L528.978 248.399C527.628 263.868 524.489 278.53 517.18 292.385C513.825 298.742 509.815 304.722 505.14 310.206C500.466 315.691 494.911 320.497 493.872 327.807C493.354 331.437 497.257 333.442 499.964 331.03C512.603 319.74 521.827 305.142 526.858 288.979C528.223 284.602 521.271 283.005 519.926 287.358C515.256 302.39 506.479 315.734 494.734 326.205L500.826 329.428C501.828 322.381 508.679 317.333 512.863 312.034C517.472 306.173 521.521 299.834 524.815 293.147C531.866 278.851 534.733 263.915 536.099 248.161C536.475 243.918 530.202 243.956 529.063 247.494C521.655 270.64 510.988 292.609 497.498 312.816C494.945 316.625 501.275 319.933 503.786 316.15L503.81 316.127Z" fill="#748763"/>
<path d="M498.335 379.714C503.373 373.834 508.389 367.981 513.427 362.102C516.399 358.634 511.364 353.943 508.197 357.277L493.401 372.786L498.63 377.611C506.165 368.213 513.696 358.79 521.252 349.389C528.81 339.99 536.191 331.524 542.771 321.996L536.161 319.506C527.61 345.003 511.422 367.812 490.156 384.295L495.537 388.09C497.055 383.92 500.782 380.874 503.891 377.9C507.46 374.479 510.858 370.874 514.029 367.089C520.267 359.69 525.716 351.634 530.34 343.135C532.53 339.104 526.241 335.77 524.052 339.801C519.206 348.688 513.481 356.994 506.779 364.602C500.598 371.619 491.851 377.432 488.581 386.469C487.531 389.339 491.609 392.096 493.961 390.268C516.794 372.56 533.883 348.504 543.066 321.105C544.469 316.964 538.545 315.587 536.46 318.615C530.015 327.947 522.358 336.592 515.275 345.449C507.99 354.554 500.682 363.658 493.401 372.763C490.548 376.322 495.44 380.945 498.63 377.588L513.427 362.079L508.193 357.253C503.159 363.131 498.143 368.986 493.105 374.865C490.13 378.333 495.337 383.183 498.335 379.69V379.714Z" fill="#748763"/>
<path d="M490.593 378.006C474.546 352.904 468.929 323.132 463.541 294.3L456.766 296.473C458.441 303.364 462.226 309.388 466.165 315.215C470.106 321.042 474.087 327.271 477.038 333.945C482.921 347.272 485.777 361.645 485.555 376.189L492.51 374.96C485.497 355.861 478.224 336.867 470.743 317.953L464.354 320.965C470.064 333.038 475.777 345.112 481.509 357.185C482.341 358.933 484.941 359.185 486.424 358.27C488.235 357.153 488.315 355.083 487.51 353.357C481.8 341.284 476.088 329.21 470.351 317.137C468.637 313.524 462.483 316.408 463.964 320.148C471.448 339.063 478.696 358.081 485.734 377.156C487.146 380.971 492.617 379.968 492.695 375.927C492.932 361.167 490.078 346.342 484.258 332.753C481.429 326.146 477.924 319.897 473.906 313.954C469.892 308.012 465.363 301.709 463.569 294.347C462.461 289.807 455.973 292.111 456.79 296.519C462.3 326.011 468.215 356.222 484.619 381.88C487.077 385.749 493.1 381.92 490.616 378.053L490.593 378.006Z" fill="#748763"/>
<path d="M482.745 429.955C517.76 423.917 546.624 399.625 558.465 366.137C559.806 362.307 553.615 360.109 551.854 363.648C538.139 391.272 507.699 403.538 483.408 419.762C480.122 421.962 482.503 427.471 486.418 426.152C501.633 421.049 515.516 413.011 527.637 402.478L522.407 397.655C515.432 404.965 506.249 409.986 496.242 411.623L498.311 418.19C516.667 403.846 535.003 389.501 553.361 375.154C556.931 372.351 553.15 366.326 549.535 369.156C531.176 383.502 512.84 397.847 494.482 412.195C492.062 414.095 492.679 419.39 496.552 418.761C508.492 416.787 519.293 411.268 527.687 402.5C530.922 399.116 525.831 394.738 522.457 397.674C511.322 407.361 498.311 414.702 484.316 419.394L487.33 425.779C512.756 408.798 543.882 395.91 558.239 367.001L551.628 364.511C540.961 394.699 514.147 417.39 482.579 422.836C480.671 423.174 479.102 424.427 479.164 426.535C479.233 428.268 480.977 430.287 482.863 429.951L482.745 429.955Z" fill="#748763"/>
<path d="M466.741 453.116C463.685 419.605 463.137 385.902 465.114 352.308L458.547 354.378C469.218 374.588 474.172 397.405 473.163 420.221C472.967 424.791 480.08 424.481 480.279 419.939C481.353 395.834 475.804 371.854 464.543 350.526C462.719 347.084 458.183 349.428 457.976 352.595C455.997 386.185 456.545 419.892 459.601 453.398C460.02 457.945 467.136 457.68 466.718 453.116H466.741Z" fill="#748763"/>
<path d="M476.461 427.263C473.014 407.641 469.567 388.04 466.138 368.417L459.36 370.59C464.137 381.846 467.418 393.733 468.784 405.885C470.037 417.021 469.77 428.623 465.004 438.932C463.083 443.095 469.367 446.453 471.292 442.268C476.448 431.086 477.258 418.704 476.011 406.594C474.65 393.442 471.307 380.561 466.161 368.393C464.351 364.096 458.584 366.085 459.382 370.565C462.833 390.188 466.28 409.787 469.705 429.41C470.046 431.319 472.527 432.22 474.194 431.726C476.235 431.097 476.843 429.123 476.506 427.237L476.461 427.263Z" fill="#748763"/>
<path d="M465.13 438.525L462.722 441.281L468.815 444.505C471.541 428.981 471.46 413.283 468.722 397.789C468.385 395.903 465.9 394.955 464.232 395.477C462.192 396.129 461.583 398.054 461.921 399.963C464.413 414.138 464.359 428.746 461.863 442.908C461.284 446.254 465.478 448.937 467.955 446.132L470.363 443.375C473.385 439.928 468.151 435.079 465.133 438.549L465.13 438.525Z" fill="#748763"/>
<path d="M472.756 459.238C500.997 454.874 527.242 441.753 547.556 421.605L541.782 417.515C535.846 429.391 521.375 431.683 509.784 434.689C496.544 438.12 483.857 443.402 471.99 450.222C468.416 452.288 471.199 457.708 475.003 456.607C499.708 449.463 523.189 438.38 544.412 423.848L540.586 417.849C532.813 424.238 524.205 429.433 514.853 433.155L517.867 439.542L529.135 433.914L523.761 430.115L522.437 435.06C521.59 438.253 525.236 440.292 527.818 438.859L528.837 438.296C532.858 436.092 529.01 430.093 525.01 432.297L523.987 432.86L529.366 436.659L530.689 431.714C531.578 428.448 527.894 426.623 525.309 427.915L514.037 433.547C510.452 435.329 513.308 441.436 517.05 439.932C526.988 435.969 536.203 430.614 544.458 423.822C547.885 420.999 544.516 415.15 540.631 417.822C519.891 432.051 497.065 442.822 472.902 449.804L475.911 456.189C488.591 448.888 502.1 443.904 516.261 440.393C528.611 437.329 542.026 433.063 548.142 420.846C549.968 417.185 545.247 413.908 542.371 416.756C523.522 435.467 498.798 448.052 472.518 452.099C468.032 452.801 468.27 459.916 472.802 459.21L472.756 459.238Z" fill="#748763"/>
<path d="M542.437 418.463C533.013 430.457 519.63 438.572 504.661 441.473C502.775 441.833 501.827 444.272 502.346 445.962C502.997 447.979 504.926 448.638 506.835 448.274C522.844 445.188 537.59 436.137 547.671 423.311C548.868 421.793 548.948 419.65 547.467 418.286C546.133 417.056 543.636 416.967 542.437 418.489V418.463Z" fill="#748763"/>
<path d="M441.896 492.445C440.029 458.344 454.873 425.067 448.895 390.962C448.124 386.6 441.26 386.588 441.778 391.246C443.888 410.638 444.811 430.123 444.455 449.616C444.274 459.361 443.787 469.093 442.989 478.818C442.94 479.317 442.476 481.996 442.694 482.108L445.149 481.651C445.119 480.942 445.188 480.225 445.275 479.507C445.466 477.197 445.755 474.904 445.996 472.616C446.533 467.629 447.046 462.645 447.579 457.662L440.547 456.991C439.976 467.61 439.382 478.251 438.811 488.866L445.923 488.577C447.346 458.264 448.764 427.946 450.183 397.632C450.405 393.063 443.289 393.373 443.067 397.916C441.648 428.233 440.23 458.547 438.811 488.866C438.588 493.458 445.677 493.1 445.923 488.577C446.494 477.964 447.089 467.321 447.66 456.708C447.882 452.756 441.062 452.054 440.628 456.04C439.969 462.17 439.34 468.323 438.68 474.452C438.216 478.865 436.525 485.228 441.383 487.907C443.472 489.057 446.031 488.834 447.794 487.221C449.558 485.607 449.7 483.153 449.892 480.869C450.394 475.05 450.801 469.215 451.088 463.362C452.28 439.208 451.498 414.989 448.895 390.962L441.778 391.246C447.756 425.305 432.913 458.628 434.785 492.733C435.037 497.306 442.155 497.018 441.896 492.445Z" fill="#748763"/>
<path d="M439.378 497.724C443.957 497.539 443.672 490.425 439.094 490.609C434.515 490.792 434.8 497.908 439.378 497.724Z" fill="#748763"/>
<path d="M445.491 502.017C474.674 499.276 502.841 488.954 526.771 472.01C530.513 469.366 526.913 463.692 522.944 466.011C500.521 479.143 475.537 487.581 449.716 490.682L450.947 497.64C468.807 491.652 487.135 487.14 505.744 484.304L504.513 477.346L483.515 482.248L487.22 488.06C491.713 482.203 500.9 484.427 507.184 482.368C513.47 480.309 517.887 474.337 524.244 473.559L523.017 466.601C507.165 472.439 491.314 478.255 475.468 484.093L477.638 490.87C490.391 485.347 503.14 479.822 515.889 474.299C520.045 472.493 517.941 465.689 513.714 467.521C500.965 473.045 488.216 478.569 475.468 484.093C471.357 485.871 473.262 492.492 477.638 490.87C493.489 485.032 509.34 479.216 525.187 473.379C528.769 472.071 528.144 465.923 523.956 466.421C520.129 466.885 516.863 468.418 513.669 470.515C510.474 472.616 507.645 474.915 504.002 475.87C496.337 477.863 487.477 476.081 481.989 483.211C479.8 486.078 482.135 489.857 485.69 489.026L506.686 484.119C510.543 483.231 509.448 476.553 505.455 477.167C486.188 480.098 467.243 484.638 448.773 490.84C445.115 492.077 445.889 498.272 450.004 497.798C477.097 494.55 503.213 485.806 526.771 472.01L522.944 466.011C500.026 482.226 473.159 492.284 445.206 494.902C440.664 495.32 440.925 502.435 445.491 502.017Z" fill="#748763"/>
<path d="M521.648 464.52L507.533 471.002C506.647 471.415 505.953 471.826 505.466 472.723C505.045 473.501 504.903 474.647 505.222 475.486C505.83 477.128 507.89 478.634 509.708 477.802L523.821 471.32C524.707 470.906 525.405 470.495 525.892 469.599C526.309 468.821 526.455 467.678 526.137 466.834C525.524 465.198 523.468 463.688 521.648 464.52Z" fill="#748763"/>
<path d="M418.018 518.911C418.141 494.753 418.9 470.473 417.477 446.35L410.364 446.636C412.006 458.516 413.313 470.435 414.222 482.395C415.13 494.35 416.219 506.066 413.808 517.657L420.741 519.278C425.51 494.861 424.57 469.676 417.999 445.664C416.798 441.247 409.997 443.421 411.219 447.837C417.454 470.577 418.344 494.507 413.808 517.657C412.922 522.157 419.805 523.783 420.741 519.278C423.209 507.422 422.316 495.251 421.407 483.269C420.498 471.286 419.161 458.609 417.454 446.354C416.848 441.91 410.057 441.968 410.342 446.636C411.76 470.784 411.001 495.04 410.878 519.198C410.848 523.783 417.964 523.499 417.995 518.914L418.018 518.911Z" fill="#748763"/>
<path d="M419.337 526.339C427.949 534.286 439.901 534.968 450.854 532.653C462.964 530.1 474.731 524.971 485.541 519.006C489.305 516.929 486.222 511.804 482.527 512.619C464.087 516.61 445.219 518.297 426.335 517.818L427.566 524.775C443.635 520.306 460.453 519.06 476.983 521.249L476.705 514.395C462.193 520.321 446.745 526.688 430.733 524.389C426.216 523.736 424.571 530.667 429.11 531.315C446.579 533.823 462.964 527.677 478.857 521.172C481.779 519.987 482.377 514.808 478.581 514.322C460.74 511.972 442.734 513.172 425.368 517.998C421.327 519.114 422.722 524.852 426.598 524.956C446.124 525.458 465.575 523.533 484.655 519.42L481.641 513.034C472.251 518.209 462.251 522.433 451.86 525.132C442.527 527.546 431.668 528.102 424.119 521.114C420.737 517.994 415.908 523.223 419.29 526.343L419.337 526.339Z" fill="#748763"/>
<path d="M417.55 517.339C416.356 494.113 416.395 470.833 417.672 447.603C417.917 443.029 410.801 443.341 410.555 447.886C409.279 471.12 409.24 494.397 410.436 517.627C410.667 522.2 417.783 521.916 417.55 517.339Z" fill="#748763"/>
<path d="M256.553 511.539C232.828 500.648 213.129 482.582 198.353 461.222C182.113 437.721 171.998 410.688 165.569 382.995C161.737 366.463 159.197 349.658 157.26 332.811C156.788 328.739 163.083 327.686 163.555 331.758C169.788 385.833 183.352 443.048 224.263 481.907C234.441 491.574 246.086 499.724 258.867 505.601C262.583 507.296 260.29 513.257 256.532 511.539H256.553Z" fill="#748763"/>
<path d="M156.964 332.564C157.192 318.553 157.105 304.466 158.141 290.498C158.442 286.399 164.793 287.066 164.492 291.163C163.453 305.153 163.563 319.221 163.315 333.229C163.248 337.33 156.901 336.644 156.964 332.564Z" fill="#748763"/>
<path d="M157.752 291.356C159.724 271.515 161.717 251.678 163.686 231.859C164.114 227.775 170.443 228.438 170.036 232.524C168.064 252.365 166.072 272.202 164.103 292.021C163.673 296.105 157.345 295.442 157.752 291.356Z" fill="#748763"/>
<path d="M163.598 232.299C164.329 226.129 165.062 219.959 165.796 213.768C165.99 212.119 167.577 210.658 169.303 210.925C171.031 211.192 172.353 212.657 172.146 214.433C171.415 220.603 170.682 226.773 169.948 232.965C169.753 234.612 168.166 236.073 166.44 235.807C164.713 235.539 163.391 234.074 163.598 232.299Z" fill="#748763"/>
<path d="M159.401 258.474C155.315 258.047 155.98 251.698 160.066 252.126C164.15 252.554 163.485 258.903 159.401 258.474Z" fill="#748763"/>
<path d="M158.82 263.806C152.086 253.73 147.476 242.379 145.544 230.389C143.436 217.223 145.699 204.004 144.555 190.812L150.888 190.619C151.175 211.166 154.691 231.731 162.34 250.846L156.282 252.693C155.074 243.602 153.668 234.555 152.045 225.528C150.549 217.135 148.812 208.802 145.42 200.936L151.478 199.089C155.11 213.439 157.777 228.011 159.489 242.717C159.961 246.789 153.837 247.837 153.194 243.769C150.439 226.365 147.683 208.96 144.926 191.557L151.044 192.197C145.061 212.323 148.249 234.395 159.175 252.247C161.312 255.744 155.477 258.342 153.358 254.868C141.497 235.527 138.638 211.544 145.104 189.863C146.028 186.751 150.761 187.547 151.221 190.505C153.977 207.909 156.734 225.312 159.489 242.717L153.194 243.769C151.483 229.063 148.814 214.492 145.183 200.142C144.291 196.603 149.827 195.022 151.24 198.294C154.696 206.359 156.623 214.925 158.184 223.518C159.881 232.852 161.338 242.226 162.598 251.643C163.069 255.115 157.933 256.953 156.54 253.49C148.432 233.258 144.849 211.703 144.559 189.957C144.506 186.377 150.581 186.201 150.893 189.764C151.991 202.351 149.895 215.012 151.617 227.579C153.193 239.083 157.361 250.153 163.799 259.792C166.053 263.195 161.115 267.234 158.841 263.809L158.82 263.806Z" fill="#748763"/>
<path d="M166.431 255.103C173.328 248.509 177.618 239.823 181.35 231.164C185.564 221.378 189.101 211.308 191.975 201.041L197.916 203.375C190.928 220.636 174.981 233.342 172.34 252.428L166.58 250.199C170.986 242.873 175.37 235.544 179.773 228.238L184.921 232.008C182.024 236.584 179.126 241.158 176.228 245.732C173.562 249.945 170.267 254.221 169.545 259.281L163.787 257.052C164.753 255.997 164.881 255.177 164.18 253.905C162.16 250.313 167.996 247.715 169.998 251.285C171.712 254.33 171.302 258.245 168.931 260.843C166.973 262.991 162.708 262.03 163.173 258.614C163.954 253.005 166.986 248.379 169.959 243.685C173.217 238.527 176.474 233.392 179.752 228.237C181.959 224.745 186.998 228.525 184.901 232.007C180.495 239.333 176.109 246.661 171.706 253.966C170.049 256.724 165.546 254.754 165.948 251.737C167.277 242.121 171.461 233.444 176.872 225.496C182.284 217.547 188.265 210.108 191.933 201.037C193.495 197.156 198.965 199.483 197.873 203.369C194.828 214.262 191.056 224.927 186.483 235.275C182.469 244.375 177.66 253.114 170.405 260.055C167.431 262.911 163.436 257.935 166.388 255.099L166.431 255.103Z" fill="#748763"/>
<path d="M205.789 233.808C200.408 245.739 191.031 254.769 182.604 264.52C178.271 269.522 174.123 274.8 171.23 280.765C167.928 287.565 166.158 294.846 165.779 302.359L160.021 300.129C167.071 290.235 174.448 280.482 180.919 270.184C187.391 259.887 192.666 249.164 197.214 238.024L202.758 241.086C196.244 251.378 189.711 261.648 183.196 271.942C177.069 281.612 170.291 291.151 166.458 302.001L160.915 298.94C171.23 286.285 180.238 272.616 187.686 258.099C189.541 254.485 195.509 256.758 193.625 260.433C185.91 275.457 176.722 289.619 166.063 302.709C163.803 305.49 159.277 303.132 160.52 299.648C164.436 288.611 171.281 278.844 177.511 269.015C184.225 258.442 190.921 247.848 197.635 237.276C199.584 234.207 204.532 237.014 203.178 240.339C198.545 251.683 193.069 262.686 186.604 273.111C180.141 283.539 172.418 293.726 165.168 303.899C163.259 306.588 159.259 304.735 159.409 301.67C160.17 286.859 166.389 273.862 175.804 262.632C184.217 252.6 194.387 243.568 199.853 231.433C201.527 227.714 207.492 230.006 205.793 233.765L205.789 233.808Z" fill="#748763"/>
<path d="M153.847 291.654C142.671 272.297 134.324 251.484 128.892 229.799L135.225 229.606C135.543 243.525 137.509 256.824 143.25 269.642C145.885 275.523 149.132 281.104 152.997 286.28C156.864 291.457 161.558 296.076 162.066 302.677C162.321 305.955 158.711 307.524 156.429 305.21C145.772 294.381 138.358 280.789 134.789 266.039C133.817 262.043 140.13 261.014 141.083 264.986C144.398 278.705 151.482 291.149 161.386 301.193L155.749 303.727C155.26 297.365 149.419 292.453 145.982 287.471C142.194 281.96 138.939 276.058 136.376 269.885C130.889 256.688 129.183 243.158 128.87 228.984C128.778 225.166 134.386 225.56 135.203 228.791C140.501 249.927 148.776 270.199 159.683 289.055C161.751 292.61 155.894 295.206 153.867 291.677L153.847 291.654Z" fill="#748763"/>
<path d="M155.088 348.864C150.918 343.315 146.767 337.788 142.599 332.239C140.138 328.964 144.913 325.056 147.557 328.222L159.901 342.95L154.943 346.967C148.745 338.124 142.548 329.259 136.326 320.413C130.105 311.568 123.989 303.567 118.651 294.664L124.708 292.817C130.891 316.121 144.063 337.462 162.142 353.433L157.11 356.521C155.991 352.703 152.832 349.762 150.218 346.922C147.223 343.655 144.392 340.236 141.771 336.666C136.617 329.687 132.205 322.163 128.557 314.294C126.83 310.561 132.647 307.94 134.375 311.673C138.198 319.904 142.843 327.663 148.401 334.857C153.527 341.491 161.019 347.196 163.425 355.472C164.2 358.098 160.391 360.331 158.394 358.56C138.985 341.401 125.079 318.893 118.437 293.85C117.421 290.065 122.801 289.173 124.494 292.003C129.722 300.724 136.077 308.899 141.902 317.232C147.896 325.797 153.911 334.365 159.904 342.93C162.25 346.278 157.608 350.133 154.946 346.945L142.6 332.217L147.558 328.201C151.728 333.751 155.877 339.277 160.047 344.826C162.508 348.101 157.569 352.142 155.089 348.843L155.088 348.864Z" fill="#748763"/>
<path d="M162.112 347.781C177.914 326.245 184.652 299.929 191.132 274.442L197.071 276.776C195.173 282.846 191.443 288.018 187.582 293.004C183.721 297.991 179.8 303.336 176.774 309.138C170.746 320.723 167.362 333.419 166.725 346.445L160.569 344.946C167.944 328.26 175.545 311.683 183.33 295.191L188.872 298.253C183.067 308.727 177.261 319.201 171.436 329.674C170.591 331.19 168.251 331.266 166.976 330.362C165.422 329.257 165.466 327.401 166.287 325.904C172.092 315.43 177.898 304.956 183.725 294.483C185.465 291.35 190.808 294.283 189.268 297.545C181.483 314.038 173.901 330.638 166.507 347.301C165.023 350.632 160.185 349.42 160.351 345.8C160.987 332.581 164.393 319.48 170.381 307.655C173.296 301.906 176.792 296.518 180.728 291.43C184.663 286.344 189.079 280.967 191.106 274.482C192.359 270.485 198.033 272.918 197.046 276.816C190.42 302.887 183.385 329.578 167.234 351.591C164.809 354.91 159.642 351.138 162.085 347.821L162.112 347.781Z" fill="#748763"/>
<path d="M166.138 394.714C135.158 387.297 110.731 363.901 102.066 333.255C101.084 329.752 106.753 328.142 108.123 331.408C118.803 356.917 145.332 369.644 166.135 385.557C168.948 387.715 166.498 392.507 163.072 391.1C149.753 385.661 137.793 377.668 127.555 367.546L132.512 363.53C138.333 370.472 146.259 375.496 155.12 377.536L152.89 383.292C137.29 369.4 121.711 355.51 106.111 341.616C103.079 338.903 106.809 333.731 109.882 336.471C125.482 350.363 141.061 364.254 156.661 378.147C158.716 379.987 157.859 384.691 154.431 383.905C143.86 381.449 134.513 375.891 127.511 367.564C124.809 364.348 129.618 360.723 132.468 363.547C141.871 372.854 153.09 380.169 165.341 385.174L162.277 390.716C140.504 374.058 113.396 360.737 102.219 334.042L108.276 332.195C116.081 359.819 138.766 381.664 166.698 388.355C168.389 388.766 169.716 389.977 169.541 391.863C169.378 393.408 167.702 395.113 166.033 394.703L166.138 394.714Z" fill="#748763"/>
<path d="M179.13 416.357C183.794 386.549 186.223 356.425 186.388 326.255L192.147 328.484C181.436 345.953 175.689 366.084 175.276 386.557C175.189 390.656 168.841 389.969 168.926 385.89C169.352 364.264 175.697 343.128 187.002 324.693C188.832 321.718 192.758 324.077 192.761 326.922C192.595 357.092 190.166 387.217 185.502 417.025C184.865 421.064 178.512 420.421 179.152 416.357H179.13Z" fill="#748763"/>
<path d="M171.919 392.667C176.134 375.308 180.347 357.971 184.542 340.609L190.483 342.943C185.561 352.74 181.941 363.186 180.019 373.982C178.254 383.874 177.829 394.27 181.498 403.768C182.98 407.602 177.16 410.246 175.68 406.391C171.711 396.09 171.698 384.962 173.511 374.199C175.485 362.51 179.219 351.177 184.523 340.586C186.391 336.844 191.435 338.956 190.463 342.92C186.248 360.279 182.034 377.615 177.84 394.974C177.427 396.666 175.153 397.329 173.691 396.788C171.901 396.11 171.468 394.308 171.879 392.64L171.919 392.667Z" fill="#748763"/>
<path d="M181.41 403.393L183.405 405.999L177.768 408.533C176.223 394.488 177.201 380.448 180.542 366.741C180.952 365.072 183.23 364.37 184.691 364.929C186.48 365.629 186.916 367.387 186.503 369.077C183.456 381.616 182.664 394.692 184.081 407.507C184.407 410.535 180.499 412.692 178.444 410.037L176.449 407.434C173.945 404.175 178.904 400.139 181.407 403.415L181.41 403.393Z" fill="#748763"/>
<path d="M173.391 421.49C148.376 415.959 125.647 402.711 108.634 383.513L114.033 380.186C118.662 391.154 131.478 394.037 141.677 397.394C153.323 401.224 164.372 406.682 174.596 413.463C177.676 415.517 174.873 420.21 171.534 419.006C149.839 411.194 129.47 399.924 111.316 385.698L115.086 380.554C121.673 386.721 129.074 391.859 137.228 395.731L134.166 401.273L124.404 395.584L129.435 392.494L130.333 397C130.906 399.905 127.527 401.519 125.302 400.086L124.419 399.521C120.948 397.321 124.74 392.177 128.19 394.377L129.072 394.94L124.041 398.03L123.143 393.526C122.534 390.555 125.936 389.133 128.174 390.44L137.936 396.125C141.042 397.927 138.133 403.228 134.873 401.668C126.209 397.552 118.271 392.227 111.275 385.676C108.372 382.953 111.725 377.912 115.046 380.528C132.783 394.451 152.585 405.406 173.806 413.037L170.743 418.581C159.82 411.317 148.02 406.081 135.553 402.124C124.679 398.674 112.92 394.082 108.152 382.801C106.73 379.421 111.139 376.759 113.552 379.472C129.339 397.302 150.736 409.983 174.016 415.116C177.99 416.002 177.367 422.357 173.351 421.463L173.391 421.49Z" fill="#748763"/>
<path d="M113.392 380.995C121.134 392.268 132.64 400.299 145.867 403.758C147.534 404.191 148.241 406.425 147.679 407.906C146.981 409.673 145.219 410.151 143.531 409.718C129.386 406.034 116.713 397.091 108.432 385.036C107.447 383.605 107.499 381.684 108.902 380.547C110.165 379.525 112.405 379.587 113.389 381.017L113.392 380.995Z" fill="#748763"/>
<path d="M199.088 452.977C202.724 422.572 191.36 391.942 198.673 361.773C199.613 357.913 205.756 358.299 205.023 362.437C202.019 379.665 200.07 397.049 199.268 414.506C198.866 423.238 198.742 431.974 198.897 440.718C198.913 441.171 199.173 443.593 198.971 443.681L196.803 443.134C196.87 442.496 196.852 441.852 196.813 441.209C196.773 439.128 196.647 437.061 196.565 434.999C196.371 430.506 196.2 426.018 196.007 421.525L202.339 421.333C202.24 430.862 202.16 440.419 202.059 449.948L195.709 449.286C196.184 422.081 196.66 394.871 197.134 367.666C197.201 363.564 203.55 364.251 203.485 368.33C203.01 395.539 202.535 422.744 202.059 449.948C201.992 454.074 195.669 453.346 195.709 449.286C195.808 439.755 195.89 430.2 195.991 420.669C196.02 417.12 202.164 416.887 202.323 420.475C202.557 425.998 202.769 431.541 203.003 437.066C203.165 441.037 204.313 446.828 199.811 448.944C197.875 449.853 195.6 449.508 194.114 447.963C192.629 446.418 192.646 444.214 192.604 442.156C192.488 436.923 192.461 431.679 192.541 426.423C192.865 404.742 194.96 383.119 198.673 361.773L205.023 362.437C197.714 392.563 209.075 423.238 205.439 453.641C204.947 457.719 198.597 457.057 199.088 452.977Z" fill="#748763"/>
<path d="M201.04 457.846C196.956 457.417 197.621 451.068 201.705 451.497C205.791 451.924 205.126 458.275 201.04 457.846Z" fill="#748763"/>
<path d="M195.324 461.334C169.371 457.201 144.763 446.345 124.327 429.808C121.13 427.225 124.68 422.357 128.097 424.66C147.403 437.702 169.275 446.687 192.196 450.95L190.696 457.106C175.058 450.715 158.921 445.625 142.436 442.018L143.937 435.861L162.439 441.458L158.791 446.444C155.11 440.949 146.76 442.405 141.257 440.201C135.752 438.001 132.144 432.403 126.499 431.342L128 425.186C141.845 431.323 155.691 437.437 169.537 443.57L167.202 449.508C156.113 443.835 145.023 438.158 133.933 432.484C130.319 430.629 132.591 424.66 136.268 426.543C147.358 432.22 158.446 437.897 169.537 443.57C173.111 445.399 171.026 451.213 167.202 449.508C153.357 443.375 139.51 437.26 125.665 431.123C122.535 429.748 123.451 424.281 127.166 424.971C130.567 425.604 133.399 427.164 136.136 429.226C138.874 431.289 141.272 433.508 144.479 434.569C151.221 436.797 159.254 435.712 163.752 442.408C165.546 445.1 163.237 448.347 160.105 447.396L141.602 441.799C138.199 440.779 139.568 434.868 143.103 435.646C160.174 439.38 176.861 444.528 193.032 451.144C196.232 452.463 195.185 457.96 191.531 457.298C167.475 452.831 144.612 443.505 124.327 429.808L128.097 424.66C147.668 440.488 171.131 451.034 195.989 454.986C200.031 455.622 199.388 461.974 195.324 461.334Z" fill="#748763"/>
<path d="M129.343 423.404L141.597 430.011C142.366 430.434 142.966 430.84 143.35 431.672C143.681 432.392 143.743 433.424 143.409 434.159C142.767 435.59 140.841 436.823 139.261 435.973L127.006 429.36C126.238 428.938 125.638 428.533 125.254 427.701C124.923 426.984 124.86 425.949 125.194 425.212C125.836 423.783 127.763 422.553 129.343 423.404Z" fill="#748763"/>
<path d="M218.933 478.032C220.215 456.408 220.934 434.642 223.593 413.142L229.943 413.804C227.791 424.342 225.932 434.93 224.431 445.575C222.931 456.223 221.282 466.64 222.771 477.15L216.476 478.205C213.615 456.083 215.906 433.599 223.168 412.498C224.495 408.615 230.457 410.949 229.108 414.828C222.22 434.819 220.047 456.178 222.771 477.15C223.306 481.229 217.054 482.287 216.476 478.205C214.948 467.452 216.448 456.615 217.951 445.947C219.455 435.279 221.384 424.012 223.614 413.142C224.411 409.205 230.486 409.645 229.964 413.808C227.302 435.329 226.586 457.075 225.304 478.699C225.067 482.804 218.716 482.142 218.955 478.035L218.933 478.032Z" fill="#748763"/>
<path d="M217.325 484.603C209.164 491.214 198.429 491.139 188.761 488.435C178.074 485.457 167.841 480.19 158.514 474.229C155.264 472.156 158.315 467.747 161.577 468.687C177.848 473.324 194.631 475.916 211.554 476.576L210.053 482.728C195.931 477.806 180.955 475.725 166.041 476.729L166.683 470.614C179.328 476.751 192.784 483.338 207.241 482.198C211.32 481.877 212.393 488.171 208.294 488.493C192.52 489.727 178.216 483.287 164.369 476.552C161.823 475.326 161.584 470.657 165.011 470.439C181.108 469.365 197.151 471.473 212.409 476.794C215.961 478.02 214.382 483.077 210.907 482.946C193.41 482.267 176.116 479.431 159.283 474.651L162.346 469.112C170.45 474.283 179.152 478.638 188.296 481.647C196.508 484.349 206.192 485.469 213.35 479.649C216.554 477.054 220.572 482.011 217.368 484.606L217.325 484.603Z" fill="#748763"/>
<path d="M219.441 476.652C221.847 455.936 223.153 435.107 223.347 414.25C223.393 410.143 229.74 410.83 229.698 414.912C229.503 435.773 228.198 456.604 225.791 477.319C225.322 481.397 218.97 480.731 219.441 476.652Z" fill="#748763"/>
<path d="M422.952 625.12C406.334 624.948 392.936 611.34 393.036 594.723L394.053 423.404L427.158 423.745L425.981 622.142C425.97 623.806 424.616 625.14 422.952 625.12Z" fill="#DEB364"/>
<path d="M188.836 413.474C188.836 371.133 223.169 336.809 265.522 336.809H392.984V466.275H188.836V413.474Z" fill="#F5D494"/>
<path d="M382.026 75.4915H432.58V417.894C432.58 445.805 409.947 468.433 382.026 468.433V75.4915Z" fill="#F5D494"/>
<path d="M382.026 27.0991H478.734C481.165 27.0991 483.133 29.0687 483.133 31.4985C483.133 55.795 463.432 75.491 439.129 75.491H382.026V27.0991Z" fill="#F5D494"/>
<path d="M454.244 27.0991H479.692C481.59 27.0991 483.132 28.6398 483.132 30.5403V44.6748C483.132 60.625 470.199 73.5555 454.244 73.5555V27.0991Z" fill="#FFE6C8"/>
<path d="M388.651 633.979C372.027 633.807 358.634 620.198 358.733 603.582L359.662 447.143L392.764 447.485L391.675 631.001C391.664 632.665 390.311 633.999 388.651 633.979Z" fill="#F5D494"/>
<path d="M388.218 3.96167C391.391 4.01177 393.926 6.62694 393.877 9.80278L393.532 31.6341L382.027 31.4527L382.372 9.62135C382.422 6.44552 385.038 3.91157 388.218 3.96167Z" fill="#F5D494"/>
<path d="M408.025 3.96166C411.178 4.01138 413.692 6.60558 413.642 9.75601L413.297 31.6335L401.887 31.4535L402.232 9.57603C402.281 6.4256 404.877 3.91197 408.025 3.96166Z" fill="#F5D494"/>
<path d="M255.557 466.498H228.558C230.452 458.755 236.515 443.272 245.61 443.272C254.704 443.272 256.031 458.755 255.557 466.498Z" fill="#5F2E23"/>
<path d="M381.812 208.844L381.88 178.083C389.548 180.261 404.886 187.208 404.864 197.57C404.84 207.931 389.483 209.403 381.812 208.844Z" fill="#5F2E23"/>
<path d="M433.034 147.42L432.937 104.525C422.105 107.563 400.453 117.251 400.483 131.7C400.518 146.148 422.198 148.2 433.034 147.42Z" fill="#5F2E23"/>
<path d="M281.027 336.809L308.028 336.843C306.124 344.583 300.044 360.061 290.949 360.05C281.854 360.037 280.546 344.55 281.027 336.809Z" fill="#5F2E23"/>
<path d="M432.887 366.122L432.642 420.126C425.418 416.299 410.986 404.098 411.07 385.906C411.15 367.715 425.647 365.137 432.887 366.122Z" fill="#5F2E23"/>
<path d="M432.788 244.197L432.603 284.764C421.316 281.858 398.759 272.631 398.819 258.967C398.882 245.302 421.488 243.426 432.788 244.197Z" fill="#5F2E23"/>
<path d="M369.31 466.498H344.11C345.879 451.015 351.537 420.042 360.026 420.042C368.514 420.042 369.752 451.015 369.31 466.498Z" fill="#5F2E23"/>
<path d="M358.981 501.284L359.222 483.92C365.824 485.243 379.009 489.352 378.928 495.201C378.848 501.051 365.597 501.695 358.981 501.284Z" fill="#5F2E23"/>
<path d="M392.444 505.337L392.401 527.061C387.908 525.523 378.926 520.628 378.941 513.311C378.955 505.993 387.949 504.946 392.444 505.337Z" fill="#5F2E23"/>
<path d="M355.112 34.2936C362.623 41.2656 365.274 49.0954 370.276 52.2625C373.543 54.3322 378.889 54.5004 382.079 54.3843C383.669 54.3265 384.923 53.1359 385.234 51.5415L387.627 39.1855C388.01 37.2029 386.84 35.2085 384.919 34.6388C374.237 31.4722 342.69 22.7632 355.112 34.2936Z" fill="#F5D494"/>
<path d="M388.343 17.4211C392.83 17.4211 396.467 13.5213 396.467 8.71055C396.467 3.89985 392.83 0 388.343 0C383.857 0 380.218 3.89985 380.218 8.71055C380.218 13.5213 383.857 17.4211 388.343 17.4211Z" fill="#5F2E23"/>
<path d="M408.205 17.4211C412.692 17.4211 416.33 13.5213 416.33 8.71055C416.33 3.89985 412.692 0 408.205 0C403.717 0 400.08 3.89985 400.08 8.71055C400.08 13.5213 403.717 17.4211 408.205 17.4211Z" fill="#5F2E23"/>
<path d="M296.264 383.263C301.32 368.551 314.621 361.003 320.639 359.067C328.763 356.578 329.666 365.842 332.375 383.263C335.083 400.683 320.639 405.524 316.125 405.524C311.611 405.524 289.945 401.652 296.264 383.263Z" fill="#5F2E23"/>
<path d="M262.002 430.867C257.731 423.786 258.701 416.101 259.72 413.142C261.144 409.189 265.039 412.099 272.665 417.189C280.289 422.28 277.921 429.453 276.588 431.162C275.255 432.868 267.341 439.714 262.002 430.867Z" fill="#5F2E23"/>
<path d="M243.857 374.367C250.63 369.027 260.657 370.154 264.824 371.385C270.418 373.108 268.652 377.945 265.95 387.412C263.247 396.877 253.2 394.013 250.437 392.384C247.676 390.755 235.388 381.041 243.857 374.367Z" fill="#5F2E23"/>
<path d="M385.003 226.251C390.172 222.178 397.821 223.037 401 223.977C405.268 225.291 403.918 228.983 401.859 236.203C399.796 243.423 392.132 241.24 390.026 239.996C387.918 238.752 378.544 231.343 385.003 226.251Z" fill="#5F2E23"/>
<path d="M385.003 96.5611C390.172 92.4875 397.821 93.3473 401 94.2864C405.268 95.6005 403.918 99.292 401.859 106.512C399.796 113.732 392.132 111.55 390.026 110.306C387.918 109.062 378.544 101.653 385.003 96.5611Z" fill="#5F2E23"/>
<path d="M209.318 431.698C206.65 419.911 213.079 407.315 216.626 402.493C221.47 396.056 226.127 400.982 235.622 409.63C245.116 418.278 236.684 429.966 233.396 432.726C230.108 435.486 212.655 446.438 209.318 431.698Z" fill="#5F2E23"/>
<path d="M314.174 453.989C303.982 459.26 291.147 455.165 286.003 452.46C279.115 448.737 282.631 442.819 288.523 431.05C294.416 419.286 306.846 425.669 310.053 428.537C313.26 431.403 326.913 447.396 314.174 453.989Z" fill="#5F2E23"/>
<path d="M378.85 362.803C374.479 373.993 362.336 380.048 356.812 381.677C349.351 383.782 348.326 376.853 345.464 363.854C342.6 350.856 355.856 346.803 360.03 346.672C364.203 346.539 384.313 348.815 378.85 362.803Z" fill="#5F2E23"/>
<path d="M341.679 420.014C339.722 426.451 334.207 429.897 331.694 430.813C328.299 432.002 327.809 427.999 326.461 420.493C325.113 412.987 331.142 410.703 333.045 410.642C334.946 410.584 344.123 411.972 341.679 420.014Z" fill="#5F2E23"/>
<path d="M383.639 398.739C379.368 405.249 367.765 408.882 362.496 409.891C355.383 411.19 354.479 407.208 351.892 399.741C349.305 392.272 361.946 389.777 365.914 389.654C369.882 389.529 388.977 390.605 383.639 398.739Z" fill="#5F2E23"/>
<path d="M217.094 455.975C213.618 461.91 204.134 465.198 199.827 466.099C194.011 467.267 193.262 463.623 191.124 456.792C188.988 449.961 199.323 447.718 202.569 447.618C205.816 447.515 221.439 448.554 217.094 455.975Z" fill="#5F2E23"/>
<path d="M269.803 351.08C265.477 355.514 253.845 358.087 248.569 358.818C241.446 359.77 240.578 357.091 238.059 352.081C235.538 347.07 248.198 345.258 252.165 345.132C256.134 345.008 275.212 345.538 269.803 351.08Z" fill="#5F2E23"/>
<path d="M395.579 436.026C393.206 444.736 386.465 449.382 383.388 450.616C379.235 452.207 378.619 446.787 376.941 436.614C375.263 426.436 382.642 423.361 384.969 423.288C387.301 423.215 398.546 425.137 395.579 436.026Z" fill="#5F2E23"/>
<path d="M403.903 428.854C393.379 419.413 390.74 409.089 390.736 405.111C390.829 399.793 398.509 403.65 413.218 410.382C427.922 417.11 428.09 426.753 426.926 429.065C425.764 431.373 417.059 440.654 403.903 428.854Z" fill="#5F2E23"/>
<path d="M391.399 378.838C394.333 375.443 399.317 374.987 401.441 375.184C404.301 375.483 403.784 378.112 403.14 383.179C402.495 388.244 397.377 387.827 395.909 387.282C394.443 386.741 387.737 383.083 391.399 378.838Z" fill="#5F2E23"/>
<path d="M388.853 366.257C384.701 359.112 386.465 347.27 387.868 342.242C389.813 335.483 393.915 336.862 402.001 338.685C410.085 340.507 406.798 352.617 405.153 356.063C403.508 359.51 394.04 375.189 388.853 366.257Z" fill="#5F2E23"/>
<path d="M210.05 393.274C205.634 386.68 206.713 376.279 207.805 371.905C209.329 366.027 213.385 367.505 221.329 369.621C229.273 371.737 226.733 382.28 225.322 385.235C223.912 388.195 215.566 401.523 210.05 393.274Z" fill="#5F2E23"/>
<path d="M417.779 335.843C423.953 336.839 428.232 342.451 429.596 345.132C431.396 348.763 427.929 350.082 421.518 353.044C415.103 356.007 411.749 349.591 411.281 347.44C410.816 345.29 410.057 334.598 417.779 335.843Z" fill="#5F2E23"/>
<path d="M403.049 314.84C414.834 313.504 421.588 316.052 423.493 317.494C425.962 319.462 418.807 321.538 405.418 325.744C392.029 329.951 387.312 326.53 387.013 325.167C386.718 323.805 388.313 316.507 403.049 314.84Z" fill="#5F2E23"/>
<path d="M406.054 160.205C416.476 166.262 420.697 172.461 421.503 174.805C422.499 177.928 415.506 175.295 402.246 170.632C388.991 165.97 386.909 160.288 387.385 158.984C387.86 157.681 393.029 152.635 406.054 160.205Z" fill="#5F2E23"/>
<path d="M386.909 294.449C386.974 287.925 390.563 283.481 392.35 282.074C394.777 280.224 396.092 283.914 398.899 290.748C401.71 297.581 397.442 301.038 395.943 301.5C394.443 301.963 386.825 302.603 386.909 294.449Z" fill="#5F2E23"/>
<path d="M286.119 390.482C289.935 395.784 289.401 403.01 288.658 405.958C287.612 409.914 284.258 408.296 277.717 405.673C271.175 403.055 272.893 395.937 273.944 394.036C274.994 392.138 281.349 383.859 286.119 390.482Z" fill="#5F2E23"/>
<path d="M413.236 200.399C416.166 197.003 421.15 196.548 423.278 196.745C426.134 197.043 425.617 199.674 424.972 204.739C424.328 209.806 419.21 209.386 417.742 208.844C416.276 208.302 409.57 204.644 413.236 200.399Z" fill="#5F2E23"/>
<mask id="mask1_550_3415" style="mask-type:luminance" maskUnits="userSpaceOnUse" x="246" y="202" width="123" height="139">
<path d="M368.204 202.142H246.889V340.448H368.204V202.142Z" fill="white"/>
</mask>
<g mask="url(#mask1_550_3415)">
<path d="M303.72 237.267H337.029C337.949 237.267 338.695 238.016 338.695 238.938C338.695 257.415 323.782 272.391 305.385 272.391H303.72V237.267Z" fill="#FFE6C8"/>
<path d="M290.605 237.266V203.813C290.605 202.889 291.351 202.142 292.271 202.142C310.666 202.142 325.579 217.118 325.579 235.595V237.266H290.605Z" fill="#E37A63"/>
<path d="M249.074 273.489C249.074 242.572 274.03 217.507 304.814 217.507V331.666C274.03 331.666 249.074 306.602 249.074 275.684V273.489Z" fill="#E37A63"/>
<path d="M363.058 260.661C362.342 258.665 360.151 257.63 358.162 258.35C356.175 259.07 355.144 261.272 355.862 263.268L363.058 260.661ZM250.267 261.092C245.478 281.744 247.338 296.424 252.752 307.374C258.131 318.253 266.756 324.889 274.275 329.923L278.519 323.53C271.282 318.686 264.061 312.973 259.604 303.956C255.182 295.012 253.217 282.249 257.718 262.835L250.267 261.092ZM274.275 329.923C284.331 336.656 298.66 340.448 309.185 340.448V332.764C300.038 332.764 287.212 329.35 278.519 323.53L274.275 329.923ZM309.185 340.448C319.48 340.448 329.07 338.642 338.063 334.628L334.955 327.607C327.072 331.126 318.563 332.764 309.185 332.764V340.448ZM338.063 334.628C359.139 325.22 375.716 295.911 363.058 260.661L355.862 263.268C367.249 294.976 352.131 319.94 334.955 327.607L338.063 334.628Z" fill="#E37A63"/>
<path d="M298.255 324.166C298.255 303.452 314.974 286.662 335.598 286.662H339.787V296.907C339.787 316.103 324.292 331.666 305.178 331.666C301.354 331.666 298.255 328.553 298.255 324.714V324.166Z" fill="#E37A63"/>
</g>
<mask id="mask2_550_3415" style="mask-type:luminance" maskUnits="userSpaceOnUse" x="332" y="357" width="316" height="314">
<path d="M577.006 357.469L332.021 429.647L403.016 670.486L648 598.308L577.006 357.469Z" fill="white"/>
</mask>
<g mask="url(#mask2_550_3415)">
<path d="M386.687 615.093C367.699 550.677 404.31 483.138 468.457 464.24L597.291 426.283C616.324 490.863 579.569 558.562 515.229 577.419L386.687 615.093Z" fill="#3A3435"/>
<path d="M498.048 385.895C497.422 383.769 498.631 381.54 500.747 380.916L508.906 378.512C546.751 367.362 586.513 389.131 597.718 427.135L517.196 450.854L498.048 385.895Z" fill="#3A3435"/>
<path d="M445.229 592.614L446.072 595.482C455.41 627.148 437.411 660.357 405.87 669.649C404.295 670.113 402.637 669.205 402.17 667.621L385.269 610.278L445.229 592.614Z" fill="#3A3435"/>
<path d="M541.367 542.85L544.826 554.58C554.1 586.052 536.214 619.056 504.872 628.299C503.308 628.759 501.659 627.857 501.195 626.286L481.781 560.417L541.367 542.85Z" fill="#262021"/>
<path d="M422.765 604.838C408.202 555.435 436.281 503.635 485.483 489.137L576.279 462.388C590.842 511.792 562.762 563.591 513.565 578.089L422.765 604.838Z" fill="#FFE6C8"/>
<path d="M536.839 506.84L540.293 518.569C549.573 550.046 531.686 583.05 500.344 592.288C498.779 592.749 497.132 591.848 496.667 590.276L477.25 524.409L536.839 506.84Z" fill="#3A3435"/>
</g>
</g>
<path d="M276.348 581.345H223.038V595.202C223.038 627.575 242.928 653.817 267.463 653.817C272.369 653.817 276.348 648.57 276.348 642.095V581.345Z" fill="#EACBA6"/>
<path d="M109.467 548.615H162.775V567.836C162.775 612.74 142.886 649.141 118.352 649.141C113.444 649.141 109.467 641.861 109.467 632.88V548.615Z" fill="#EACBA6"/>
<path fill-rule="evenodd" clip-rule="evenodd" d="M338.506 519.428C338.506 485.357 314.02 457.734 283.814 457.734H107.156V529.3C107.156 553.135 119.144 573.816 136.69 584.089V652.989C136.69 658.609 140.73 663.167 145.714 663.167C170.635 663.167 190.837 640.381 190.837 612.272V590.989H284.361V612.272C284.361 640.381 304.564 663.167 329.483 663.167C334.467 663.167 338.506 658.609 338.506 652.989V590.989V572.482V519.428Z" fill="#FFE6C8"/>
<path d="M210.525 431.209C210.525 363.067 161.553 307.827 101.14 307.827H48.6348V431.209C48.6348 499.349 97.6086 554.592 158.02 554.592H210.525V431.209Z" fill="#E37A63"/>
<path fill-rule="evenodd" clip-rule="evenodd" d="M117.82 351.01C128.241 351.01 136.689 360.539 136.689 372.294C136.689 384.047 128.241 393.576 117.82 393.576H113.171V438.611C113.171 441.677 110.968 444.164 108.249 444.164H69.5083C36.5334 444.164 9.80176 414.012 9.80176 376.817C9.80176 369.379 15.148 363.348 21.7429 363.348H93.7213C97.8282 355.939 105.126 351.01 113.445 351.01H117.82Z" fill="#FFE6C8"/>
<path d="M329.256 349.129C326.653 348.216 323.811 349.58 322.909 352.176C322.006 354.771 320.305 360.174 322.909 361.087L329.256 349.129ZM326.397 495.519C341.441 490.891 357.02 479.541 365.651 468.919L352.085 459.58C344.584 468.811 333.973 474.961 320.969 478.961L326.397 495.519ZM365.651 468.919C374.092 458.53 380.133 447.372 383.452 435.006L365.651 432.474C362.74 443.313 359.774 450.117 352.085 459.58L365.651 468.919ZM383.452 435.006C391.235 406.022 375.232 365.259 329.256 349.129L322.909 361.087C364.264 375.596 371.993 408.853 365.651 432.474L383.452 435.006Z" fill="#FFE6C8"/>
<path d="M330.302 342.374H325.927C313.846 342.374 304.05 353.422 304.05 367.05H330.302V342.374Z" fill="#E37A63"/>
</g>
<path d="M68.5556 786.906L67.657 779.325C69.2334 779.452 70.4631 779.515 71.3459 779.515C73.7105 779.515 75.2397 778.962 75.9333 777.857C76.6269 776.751 76.9737 774.556 76.9737 771.271V702.853H85.2973V769.897C85.2973 781.457 81.0252 787.238 72.4809 787.238C71.2513 787.238 69.9428 787.127 68.5556 786.906ZM107.661 767.67V738.057L97.4932 702.853H106.053L111.634 728.296H111.823L117.734 702.853H126.389L116.032 738.057V767.67H107.661ZM138.727 767.67V702.853H147.051V759.899H163.036V767.67H138.727ZM174.9 767.67V702.853H183.224V759.899H199.209V767.67H174.9ZM206.014 767.67L218.215 702.474H226.87L238.977 767.67H230.937L228.62 753.313H216.607L214.053 767.67H206.014ZM217.837 745.543H227.154L222.614 718.394H222.377L217.837 745.543ZM251.22 767.67V702.853H257.983L272.313 742.842H272.502V702.853H280.164V767.67H273.4L259.071 727.301H258.882V767.67H251.22ZM297.042 767.67V702.853H306.216C321.003 702.853 328.396 713.624 328.396 735.166C328.396 745.938 326.552 754.056 322.863 759.52C319.206 764.953 314.051 767.67 307.398 767.67H297.042ZM305.365 759.899H306.595C311.513 759.899 314.981 758.02 316.999 754.261C319.048 750.47 320.073 744.232 320.073 735.546C320.073 726.48 319.111 720.068 317.188 716.309C315.265 712.518 311.797 710.623 306.784 710.623H305.365V759.899ZM341.018 766.011V757.388C343.509 759.789 345.921 760.989 348.254 760.989C349.988 760.989 351.47 760.373 352.7 759.141C353.929 757.909 354.544 756.425 354.544 754.687C354.544 753.203 354.197 751.402 353.503 749.286C352.81 747.17 350.934 743.269 347.876 737.583C344.849 731.866 342.878 727.538 341.964 724.601C341.05 721.663 340.593 719.073 340.593 716.83C340.593 712.471 341.822 708.918 344.281 706.169C346.772 703.39 349.941 702 353.787 702C355.963 702 358.28 702.569 360.739 703.706V711.571C358.469 710.213 356.53 709.534 354.922 709.534C350.729 709.534 348.632 711.602 348.632 715.74C348.632 717.257 348.979 719.089 349.673 721.237C350.398 723.353 352.274 727.238 355.301 732.892C358.359 738.515 360.33 742.811 361.212 745.78C362.127 748.717 362.584 751.323 362.584 753.598C362.584 758.02 361.338 761.621 358.848 764.4C356.388 767.149 353.188 768.522 349.247 768.522C346.409 768.522 343.667 767.685 341.018 766.011ZM415.02 767.67V702.853H423.817C429.776 702.853 434.505 704.448 438.006 707.638C441.538 710.829 443.3 715.219 443.3 720.81C443.3 726.527 441.679 731.029 438.431 734.314C435.183 737.599 430.738 739.241 425.094 739.241H423.344V767.67H415.02ZM423.344 731.471H424.81C431.589 731.471 434.978 727.759 434.978 720.336C434.978 713.671 431.1 710.434 423.344 710.623V731.471ZM449.35 767.67L461.55 702.474H470.207L482.314 767.67H474.271L471.954 753.313H459.944L457.389 767.67H449.35ZM461.174 745.543H470.49L465.949 718.394H465.715L461.174 745.543ZM494.555 767.67V702.853H501.507C507.057 702.853 511.282 704.495 514.184 707.78C517.115 711.034 518.579 715.377 518.579 720.81C518.579 726.97 516.341 731.597 511.867 734.693C515.335 737.156 518.281 743.711 520.71 754.356L523.687 767.67H514.988L512.481 756.488C510.682 748.654 509.121 743.679 507.799 741.563C506.472 739.415 504.833 738.451 502.881 738.673V767.67H494.555ZM502.881 730.902H503.257C507.925 730.902 510.257 727.633 510.257 721.094C510.257 714.145 507.799 710.655 502.881 710.623V730.902ZM535.838 767.67V702.853H544.161V767.67H535.838ZM555.984 767.67L544.444 734.787L553.571 702.853H562.086L551.917 733.698L564.59 767.67H555.984ZM67 959.595L154.07 806.764H92.8159C92.8159 816.326 90.2343 825.495 85.0711 834.273C82.8807 837.879 80.3773 840.857 77.561 843.208H70.5203V800.886H197.253V806.764L110.418 959.595H173.784C173.784 949.72 176.287 940.55 181.294 932.085C183.484 928.48 186.066 925.502 189.039 923.151H196.079V965.473H67V959.595ZM302.918 969C287.585 969 274.129 965.708 262.551 959.125C251.13 952.384 242.29 942.588 236.032 929.734C229.773 916.881 226.644 901.362 226.644 883.179C226.644 864.996 229.773 849.478 236.032 836.625C242.29 823.771 251.13 814.053 262.551 807.469C274.129 800.729 287.585 797.359 302.918 797.359C318.251 797.359 331.628 800.729 343.05 807.469C354.628 814.053 363.546 823.771 369.805 836.625C376.063 849.478 379.192 864.996 379.192 883.179C379.192 901.362 376.063 916.881 369.805 929.734C363.546 942.588 354.628 952.384 343.05 959.125C331.628 965.708 318.251 969 302.918 969ZM302.918 964.297C309.02 964.297 314.653 961.711 319.816 956.538C325.135 951.366 329.516 942.744 332.958 930.675C336.4 918.605 338.122 902.773 338.122 883.179C338.122 863.586 336.4 847.754 332.958 835.684C329.516 823.614 325.135 814.993 319.816 809.82C314.653 804.648 309.02 802.061 302.918 802.061C296.816 802.061 291.105 804.648 285.786 809.82C280.623 814.993 276.32 823.614 272.878 835.684C269.436 847.754 267.715 863.586 267.715 883.179C267.715 902.773 269.436 918.605 272.878 930.675C276.32 942.744 280.623 951.366 285.786 956.538C291.105 961.711 296.816 964.297 302.918 964.297ZM490.726 969C475.393 969 461.937 965.708 450.359 959.125C438.938 952.384 430.097 942.588 423.838 929.734C417.58 916.881 414.451 901.362 414.451 883.179C414.451 864.996 417.58 849.478 423.838 836.625C430.097 823.771 438.938 814.053 450.359 807.469C461.937 800.729 475.393 797.359 490.726 797.359C506.059 797.359 519.436 800.729 530.858 807.469C542.436 814.053 551.354 823.771 557.612 836.625C563.871 849.478 567 864.996 567 883.179C567 901.362 563.871 916.881 557.612 929.734C551.354 942.588 542.436 952.384 530.858 959.125C519.436 965.708 506.059 969 490.726 969ZM490.726 964.297C496.828 964.297 502.46 961.711 507.623 956.538C512.943 951.366 517.324 942.744 520.766 930.675C524.208 918.605 525.929 902.773 525.929 883.179C525.929 863.586 524.208 847.754 520.766 835.684C517.324 823.614 512.943 814.993 507.623 809.82C502.46 804.648 496.828 802.061 490.726 802.061C484.624 802.061 478.913 804.648 473.593 809.82C468.43 814.993 464.128 823.614 460.686 835.684C457.243 847.754 455.522 863.586 455.522 883.179C455.522 902.773 457.243 918.605 460.686 930.675C464.128 942.744 468.43 951.366 473.593 956.538C478.913 961.711 484.624 964.297 490.726 964.297Z" fill="black"/>
<defs>
<clipPath id="clip0_550_3415">
<rect width="648" height="690" fill="white"/>
</clipPath>
</defs>
</svg>
