<svg width="37" height="59" viewBox="0 0 37 59" fill="none" xmlns="http://www.w3.org/2000/svg">
<path d="M7.04163 33.1665L18.7291 37.2915L30.6458 33.1665L26.7499 44.6248L19.1875 55.6248L15.0625 50.8123L10.0208 41.6457L7.04163 33.1665Z" fill="#191817"/>
<path d="M8.50039 25.8392L22.5313 29.4266L24.4559 31.6872L7.47635 27.3753L8.50039 25.8392Z" fill="#121111"/>
<path d="M8.50052 19.322L22.7909 21.9753L24.3735 20.2996L6.82391 17.3736L8.50052 19.322Z" fill="#121111"/>
<path d="M24.3735 20.2995L24.3735 31.5643L22.6977 29.6092L22.6977 21.9753L24.3735 20.2995Z" fill="#121111"/>
<path d="M6.82458 17.3672L7.46673 27.4312L8.63998 25.839L8.50033 19.2757L6.82458 17.3672Z" fill="#121111"/>
<rect x="18.2623" y="20.9922" width="1.44596" height="7.69062" transform="rotate(1.45806 18.2623 20.9922)" fill="#121111"/>
<path d="M13.9 9.59267L15.5758 9.12719L16.7861 9.35993L17.4377 9.87196L14.9707 10.4305L13.5277 12.7114L12.4205 16.0164L10.7348 15.6905L11.7123 12.0597L12.7363 10.4305L13.9 9.59267Z" fill="#121111"/>
<path d="M9.71075 9.31328L11.3865 8.8478L12.5968 9.08055L13.3415 9.31328L13.8536 9.59362L10.7814 10.1512L9.33837 12.432L8.54704 15.4111L6.91785 15.4111L7.0575 13.5968L7.52298 11.7804L8.54704 10.1512L9.71075 9.31328Z" fill="#121111"/>
<path d="M21.3479 10.5234L23.0237 10.0579L24.2339 10.2907L24.8856 10.8027L22.4185 11.3613L20.9755 13.6422L19.8118 17.1809L18.0895 16.9016L19.1602 12.9905L20.1842 11.3613L21.3479 10.5234Z" fill="#121111"/>
<rect x="14.282" y="20.0669" width="1.44596" height="7.69062" transform="rotate(1.45806 14.282 20.0669)" fill="#121111"/>
<rect x="10.9304" y="19.7876" width="1.44596" height="7.69062" transform="rotate(1.45806 10.9304 19.7876)" fill="#121111"/>
<path d="M31.1696 16.9482L30.2851 15.9707L25.484 18.2051L25.0215 19.9587L31.1696 16.9482Z" fill="#121111"/>
<path d="M31.1281 13.3173L30.2385 11.4554L28.8421 10.5244L27.2128 10.4313L25.956 10.7571L24.6992 12.0139L23.7217 13.6431L23.0235 15.5051L22.6511 17.7394L25.444 18.2049L25.956 15.0861L26.887 13.1777L28.0042 12.1536L29.261 12.2932L29.9592 13.3173L30.2385 16.2033L31.1281 16.855L31.1281 13.3173Z" fill="#121111"/>
<path d="M30.2853 19.1962L31.0301 17.3209L30.7043 27.1427L30.0061 26.0721L30.2853 19.1962Z" fill="#121111"/>
<path d="M24.8674 31.4902L25.8163 28.9579L30.0056 25.9788L30.7039 27.1426L24.8674 31.4902Z" fill="#121111"/>
<path d="M24.8392 20.2998L25.8168 21.6497L30.2854 19.3223L31.0767 17.2742L24.8392 20.2998Z" fill="#121111"/>
<path d="M24.8392 20.2998L25.8168 21.6032V29.1906L24.8858 31.4714L24.8392 20.2998Z" fill="#121111"/>
<rect x="12.4612" y="9.26807" width="16.292" height="0.465485" transform="rotate(6.23657 12.4612 9.26807)" fill="#121111"/>
<path d="M6.89978 14.915L25.5835 18.2052L25.0249 19.9741L6.79419 16.8715L6.89978 14.915Z" fill="#121111"/>
<path d="M14.1888 16.6226L15.8545 16.8362L15.8545 18.4384L14.1888 18.1714L14.1888 16.6226Z" fill="white"/>
<path d="M14.9587 18.4815V17.5533L14.9828 17.5559V18.4841L14.9587 18.4815Z" fill="white" stroke="#121111"/>
<path d="M2.26091 20.816C2.21451 30.253 15.2561 53.3626 19.3244 56.9223C22.8571 53.3626 35.2095 30.253 35.2559 20.816M18.6749 36.2558C9.52172 36.2108 2.13927 28.5242 2.18567 19.0872C2.23207 9.65027 9.6898 2.0366 18.843 2.0816C27.9962 2.1266 35.3786 9.81323 35.3322 19.2502C35.2859 28.6871 27.8281 36.3008 18.6749 36.2558Z" stroke="#191817" stroke-width="3" stroke-miterlimit="10"/>
</svg>
