<svg width="104" height="109" viewBox="0 0 104 109" fill="none" xmlns="http://www.w3.org/2000/svg">
<path d="M44.985 27.4653H71.6431C72.3793 27.4653 72.976 28.0509 72.976 28.7732C72.976 43.2196 61.0407 54.9307 46.3179 54.9307H44.985V27.4653Z" fill="#FFE6C8"/>
<path d="M34.4883 27.4654V1.30788C34.4883 0.585556 35.085 0 35.8212 0C50.544 0 62.4793 11.7112 62.4793 26.1575V27.4654H34.4883Z" fill="#E37A63"/>
<path d="M1.24902 55.7891C1.24902 31.6139 21.2219 12.0161 45.8597 12.0161V101.279C21.2219 101.279 1.24902 81.6807 1.24902 57.5056V55.7891Z" fill="#E37A63"/>
<path d="M92.4752 45.7579C91.9014 44.1971 90.1476 43.3883 88.5565 43.9511C86.9663 44.514 86.1419 46.2355 86.7156 47.7961L92.4752 45.7579ZM2.20336 46.0957C-1.62891 62.2432 -0.140342 73.7217 4.19249 82.2838C8.49734 90.7903 15.4012 95.9795 21.4186 99.9156L24.8151 94.9169C19.0238 91.1284 13.2443 86.6619 9.67664 79.6118C6.13706 72.6173 4.56412 62.6385 8.16683 47.4583L2.20336 46.0957ZM21.4186 99.9156C29.466 105.18 40.9346 108.145 49.3584 108.145V102.137C42.0373 102.137 31.7719 99.4676 24.8151 94.9169L21.4186 99.9156ZM49.3584 108.145C57.5979 108.145 65.2729 106.733 72.4698 103.594L69.983 98.1046C63.674 100.855 56.8639 102.137 49.3584 102.137V108.145ZM72.4698 103.594C89.3385 96.2378 102.606 73.3204 92.4752 45.7579L86.7156 47.7961C95.8289 72.5895 83.7295 92.1095 69.983 98.1046L72.4698 103.594Z" fill="#E37A63"/>
<path d="M40.6115 95.4139C40.6115 79.2178 53.992 66.0886 70.4977 66.0886H73.8508V74.0993C73.8508 89.1098 61.4494 101.279 46.1513 101.279C43.0917 101.279 40.6115 98.8445 40.6115 95.8431V95.4139Z" fill="#E37A63"/>
<path d="M70.1806 56.387L70.1807 56.3869L70.1839 56.3937L71.4388 59.005C71.9327 60.0327 72.8674 60.7799 73.9787 61.0353L74.4574 61.1454C74.863 61.2386 75.2527 61.3909 75.614 61.5974L77.0954 62.444C78.3041 63.1347 79.7973 63.0927 80.9653 62.3352C82.6192 61.2624 83.1491 59.0856 82.1731 57.3727L77.6564 49.4459C77.4907 49.155 77.2868 48.8877 77.0501 48.651L71.9088 43.5087L71.576 43.2524C70.5639 42.4728 69.2034 42.3175 68.0417 42.8492C67.6912 43.0096 67.3702 43.2277 67.0919 43.4944L67.062 43.5231C66.1607 44.387 65.7577 45.6482 65.9908 46.8746L66.3173 48.5917C66.3852 48.9488 66.5046 49.2941 66.6719 49.6168L70.1806 56.387Z" fill="#FDF2B4" stroke="#5F2E23" stroke-width="0.5"/>
<path d="M78.755 62.1483C78.4834 62.6786 78.8052 63.3199 79.3927 63.4192L81.1147 63.7102C81.393 63.7573 81.6621 63.8483 81.9118 63.9799L82.9934 64.5498C83.3708 64.7487 83.7161 65.0032 84.0177 65.3048L84.7259 66.0132C84.8917 66.1789 85.0434 66.3581 85.1796 66.5489L88.8442 71.6825C88.9798 71.8725 89.0995 72.0733 89.2021 72.2829L90.4006 74.7307C90.5212 74.9772 90.7036 75.1883 90.9298 75.3437L91.3185 75.6105C91.6441 75.8341 92.0755 75.8273 92.3939 75.5937C92.5285 75.495 92.6341 75.3618 92.6994 75.2082L92.9836 74.54C93.0721 74.3319 93.1406 74.1158 93.1883 73.8947L93.4174 72.8326C93.483 72.5283 93.5105 72.217 93.4992 71.906L93.449 70.5245C93.4372 70.1984 93.3828 69.8753 93.2874 69.5633L92.7464 67.7953C92.6696 67.5444 92.5667 67.3022 92.4393 67.0728L91.6456 65.6427C91.5467 65.4645 91.4335 65.2947 91.307 65.1349L89.7566 63.1763L88.5321 61.9517C88.3695 61.789 88.1923 61.6417 88.0027 61.5115L87.3152 61.0395C87.0128 60.8319 86.6815 60.6698 86.3321 60.5584L85.1992 60.1971L84.3911 59.9829C83.9192 59.8578 83.4274 59.8261 82.9434 59.8895L82.3039 59.9733L81.6277 60.1346C81.2421 60.2266 80.8736 60.3792 80.5358 60.5866L80.1892 60.7995C79.939 60.9531 79.7077 61.1356 79.5001 61.3432L78.9163 61.9268C78.8514 61.9918 78.7969 62.0665 78.755 62.1483Z" fill="#FDF2B4" stroke="#5F2E23" stroke-width="0.5"/>
<path d="M72.5931 66.5442L72.582 66.5554L72.5723 66.5678L69.7442 70.2141C69.4382 70.6085 69.2042 71.0538 69.0527 71.5295L68.4013 73.5756C68.3238 73.819 68.1725 74.0324 67.9684 74.1861L67.7898 74.3207C67.5334 74.5137 67.1912 74.5486 66.9012 74.4111C66.7199 74.3252 66.5743 74.1788 66.4893 73.9972L66.2628 74.1031L66.4893 73.9972L66.2154 73.412L65.9173 72.5534L65.5153 71.294C65.4247 71.01 65.3682 70.7162 65.3471 70.4189L65.2685 69.3091C65.2444 68.9695 65.2667 68.6281 65.3348 68.2945L65.6059 66.9652C65.6647 66.6767 65.7574 66.3961 65.8818 66.1293L66.3541 65.117C66.4547 64.9013 66.5756 64.6957 66.7152 64.5029L67.8417 62.9474L68.72 62.0304C68.908 61.8341 69.1168 61.6588 69.3427 61.5076L69.6441 61.3059C69.9906 61.0741 70.3733 60.9016 70.7765 60.7957L71.5865 60.5828L72.1678 60.4631C72.65 60.3638 73.1469 60.3604 73.6304 60.453L74.1352 60.5498L74.783 60.7404C75.1183 60.8389 75.438 60.9839 75.7331 61.171L76.1506 61.4358C76.3606 61.5689 76.5567 61.7226 76.7363 61.8945L77.3743 62.5056C77.4274 62.5564 77.4734 62.6141 77.5113 62.677C77.8031 63.1621 77.5336 63.7906 76.981 63.9136L75.8938 64.1558C75.6735 64.2048 75.4624 64.2886 75.2684 64.4039L74.4082 64.915C74.1044 65.0955 73.8243 65.3133 73.5744 65.5631L72.5931 66.5442Z" fill="#FDF2B4" stroke="#5F2E23" stroke-width="0.5"/>
<path d="M78.0646 63.3504L78.8545 70.24L78.8616 70.302L78.8532 70.3639L77.6389 79.3469L77.6282 79.426L77.5934 79.4978L73.9509 87.024L73.9179 87.0922L73.8662 87.1475L69.0567 92.2949L70.5459 92.5997L72.2965 91.9435L74.515 90.4258L77.3737 87.5677L79.8636 84.3669L81.4091 80.6828L82.6114 77.0768L83.3254 74.2217L83.5626 71.3781L83.4434 68.1515L83.0987 65.2784L82.2805 64.2554L80.8743 63.4981L79.0748 63.273L78.0646 63.3504Z" fill="#FEDA00" stroke="#5F2E23"/>
<path d="M74.5198 71.1242L74.5219 71.1783L74.5123 71.2316L73.5872 76.3766L73.5821 76.4046L73.574 76.4319L72.1168 81.2876L72.1071 81.32L72.0931 81.3508L70.2718 85.3567L70.2655 85.3704L70.2585 85.3837L68.0989 89.462L67.7668 90.6793L67.7667 91.6878L68.028 92.1231L68.1233 92.2184L71.0951 89.3593L73.696 86.2431L75.3672 82.6143L76.6928 79.0517L77.5045 76.2228L77.8392 73.3891L77.8309 70.1603L77.5732 67.135L77.572 67.1206L77.5716 67.106L77.4926 64.1711L76.203 64.6111L74.8489 65.2879L74.3193 65.8174L74.5198 71.1242Z" fill="#F5A800" stroke="#5F2E23"/>
</svg>
