<svg width="270" height="270" viewBox="0 0 270 270" fill="none" xmlns="http://www.w3.org/2000/svg">
<circle cx="135" cy="135" r="135" fill="#F99319"/>
<rect x="21" y="97.0807" width="212.774" height="23.4677" rx="5" fill="#D84F52"/>
<path d="M52.2903 97.0807H127.505C127.505 97.0807 128.952 104.232 128.952 108.815C128.952 113.397 127.505 120.548 127.505 120.548H52.2903V97.0807Z" fill="#B9393B"/>
<rect x="49.1614" y="83" width="73.5323" height="48.5" rx="10" fill="#FCFAEE"/>
<rect x="117" y="53.5" width="101" height="174" rx="16.5" fill="#FCFAEE" stroke="black" stroke-width="7"/>
<path d="M158.5 67H178.5" stroke="black" stroke-width="5" stroke-linecap="round"/>
<path d="M75.5 101.333C76.854 103.239 78.5 110.05 76.2522 113.519" stroke="black" stroke-width="5" stroke-linecap="round"/>
<path d="M83.4084 96.9852C87.0191 101.799 88.5235 110.826 84.1857 118.348" stroke="black" stroke-width="5" stroke-linecap="round"/>
<path d="M90.8333 92C97.1666 99.3333 97.1666 115 91.6084 122" stroke="black" stroke-width="5" stroke-linecap="round"/>
<path d="M190.955 127.222C184.955 133 184.455 146.109 189.325 153.625" stroke="black" stroke-width="9" stroke-linecap="round"/>
<path d="M173.82 117.801C165.997 128.232 162.737 147.789 172.136 164.087" stroke="black" stroke-width="9" stroke-linecap="round"/>
<path d="M157.732 107C140.455 126 142.955 157.5 156.053 172" stroke="black" stroke-width="9" stroke-linecap="round"/>
</svg>
