<svg width="323" height="125" viewBox="0 0 323 125" fill="none" xmlns="http://www.w3.org/2000/svg">
<path fill-rule="evenodd" clip-rule="evenodd" d="M241.144 0H20C8.95431 0 0 8.95431 0 20V105C0 116.046 8.95431 125 20 125H301.544C312.59 125 321.544 116.046 321.544 105V79.1663L321.495 79.2149L241.144 0ZM321.544 46.7365V20C321.544 8.9543 312.59 0 301.544 0H274.138L321.544 46.7365Z" fill="#355E50"/>
<path d="M262.198 12.1158L263.053 12.6213L270.345 5.4322L269.832 4.58973L270.003 4.42123L273.25 7.62261L273.079 7.79111L272.225 7.28563L268.647 10.8128L274.846 10.2062L274.333 9.02673L274.504 8.85823L276.669 10.9925L276.498 11.161L275.244 10.5993L270.801 11.0487L269.206 18.687L269.604 19.4172L269.433 19.5857L267.838 18.0131C267.496 17.6761 267.288 17.3054 267.212 16.901C267.151 16.4966 267.17 16.0436 267.269 15.5418L268.18 11.2733L264.933 14.4747L265.446 15.3172L265.275 15.4857L262.027 12.2843L262.198 12.1158ZM270.293 20.096L271.147 20.6015L278.44 13.4124L277.927 12.5699L278.098 12.4014L279.579 13.8617C280.263 14.5357 280.263 15.2097 279.579 15.8836L272.97 22.3987L273.483 23.2412L273.312 23.4097L270.122 20.2645L270.293 20.096ZM275.134 25.4299C274.906 25.2052 274.788 24.9244 274.78 24.5874C274.788 24.2504 274.906 23.9696 275.134 23.7449C275.361 23.5203 275.642 23.4079 275.977 23.4079C276.326 23.4079 276.615 23.5203 276.843 23.7449C277.07 23.9696 277.181 24.2504 277.173 24.5874C277.181 24.9244 277.07 25.2052 276.843 25.4299C276.615 25.6545 276.326 25.7668 275.977 25.7668C275.642 25.7668 275.361 25.6545 275.134 25.4299ZM281.292 31.2767L281.463 31.1082L282.488 31.6698L288.744 25.503L286.704 25.1547L286.761 24.6493L290.715 24.8402L291.945 26.0534L284.368 33.5233L284.938 34.5342L284.767 34.7027L281.292 31.2767ZM288.243 38.4662C287.719 37.9495 287.343 37.4365 287.115 36.9273C286.894 36.4255 286.803 35.9687 286.841 35.5569C286.887 35.1525 287.031 34.8305 287.274 34.5908C287.533 34.3362 287.814 34.2089 288.117 34.2089C288.436 34.2089 288.725 34.3362 288.983 34.5908C289.044 34.6507 289.097 34.7181 289.143 34.793C289.196 34.8604 289.234 34.9053 289.257 34.9278L289.382 35.0963L287.559 36.8936C287.567 36.9011 287.616 37.0096 287.707 37.2193C287.852 37.4664 288.049 37.7136 288.3 37.9607C288.756 38.41 289.302 38.5822 289.94 38.4774C290.586 38.3651 291.312 37.912 292.117 37.1182C292.914 36.3319 293.355 35.628 293.438 35.0064C293.53 34.3774 293.317 33.8083 292.8 33.299C292.603 33.1043 292.383 32.9546 292.14 32.8497C291.896 32.7449 291.619 32.6513 291.308 32.5689C291.049 32.509 290.768 32.4715 290.465 32.4566L290.408 32.0634L294.68 28.7497L298.042 32.0634C298.505 31.7115 298.976 31.5018 299.454 31.4344C299.667 31.3894 299.88 31.3745 300.092 31.3894L300.434 31.7264L298.212 33.9168L294.076 29.8393L291.148 32.1196C291.331 32.1495 291.57 32.2207 291.866 32.333C292.466 32.5801 292.948 32.8834 293.313 33.2429C294.422 34.3362 295.022 35.3771 295.113 36.3656C295.212 37.3466 294.859 38.234 294.054 39.0278C293.233 39.8366 292.322 40.2035 291.319 40.1286C290.316 40.0538 289.291 39.4996 288.243 38.4662ZM297.874 39.5368C297.646 39.3122 297.529 39.0313 297.521 38.6943C297.529 38.3574 297.646 38.0765 297.874 37.8519C298.102 37.6272 298.383 37.5149 298.717 37.5149C299.067 37.5149 299.355 37.6272 299.583 37.8519C299.811 38.0765 299.921 38.3574 299.914 38.6943C299.921 39.0313 299.811 39.3122 299.583 39.5368C299.355 39.7615 299.067 39.8738 298.717 39.8738C298.383 39.8738 298.102 39.7615 297.874 39.5368ZM293.658 43.693C293.431 43.4683 293.313 43.1875 293.305 42.8505C293.313 42.5135 293.431 42.2327 293.658 42.0081C293.886 41.7834 294.167 41.6711 294.502 41.6711C294.851 41.6711 295.14 41.7834 295.368 42.0081C295.595 42.2327 295.706 42.5135 295.698 42.8505C295.706 43.1875 295.595 43.4683 295.368 43.693C295.14 43.9176 294.851 44.03 294.502 44.03C294.167 44.03 293.886 43.9176 293.658 43.693ZM298.048 48.1326C297.524 47.6159 297.148 47.1029 296.92 46.5937C296.7 46.092 296.608 45.6352 296.646 45.2233C296.692 44.8189 296.836 44.4969 297.079 44.2573C297.338 44.0027 297.619 43.8753 297.922 43.8753C298.241 43.8753 298.53 44.0027 298.788 44.2573C298.849 44.3172 298.902 44.3846 298.948 44.4595C299.001 44.5269 299.039 44.5718 299.062 44.5943L299.187 44.7627L297.364 46.56C297.372 46.5675 297.421 46.6761 297.512 46.8858C297.657 47.1329 297.854 47.38 298.105 47.6271C298.636 48.1513 299.202 48.3947 299.802 48.3573C300.418 48.3198 301.048 47.9829 301.694 47.3463C302.355 46.6948 302.712 46.0658 302.765 45.4592C302.826 44.8601 302.621 44.3284 302.15 43.8641L301.58 43.3025L301.865 43.0216L302.434 43.5833C302.776 43.9203 303.213 44.0513 303.745 43.9764C304.276 43.9016 304.827 43.5833 305.397 43.0216C305.967 42.46 306.286 41.9133 306.354 41.3816C306.422 40.85 306.274 40.4044 305.91 40.0449C305.712 39.8502 305.492 39.693 305.249 39.5731C305.218 39.5582 305.116 39.5095 304.941 39.4271L303.118 41.2244L302.936 41.1121C302.799 41.0072 302.689 40.9136 302.605 40.8312C302.347 40.5766 302.214 40.2958 302.207 39.9888C302.214 39.6817 302.347 39.4009 302.605 39.1463C302.841 38.9141 303.164 38.7756 303.574 38.7307C303.984 38.6857 304.436 38.7644 304.93 38.9666C305.439 39.1688 305.936 39.5095 306.422 39.9888C307.06 40.6178 307.505 41.2431 307.755 41.8647C308.021 42.4862 308.109 43.0591 308.017 43.5833C307.934 44.115 307.706 44.5643 307.334 44.9312C306.901 45.3581 306.445 45.5902 305.967 45.6277C305.496 45.6576 305.006 45.5715 304.497 45.3693C304.011 45.1596 303.532 44.8451 303.061 44.4258L303.004 44.4819C303.483 44.9986 303.851 45.5341 304.109 46.0882C304.656 47.3463 304.497 48.4022 303.631 49.2559C302.962 49.9149 302.146 50.1733 301.181 50.031C300.232 49.8887 299.187 49.2559 298.048 48.1326ZM306.137 56.1076C305.522 55.501 305.127 54.7896 304.952 53.9733C304.777 53.157 304.853 52.2959 305.18 51.3897C305.522 50.4836 306.126 49.6037 306.992 48.75C307.858 47.8963 308.746 47.3047 309.658 46.9752C310.584 46.6457 311.462 46.5671 312.29 46.7393C313.118 46.9115 313.839 47.3009 314.455 47.9075C315.07 48.5141 315.465 49.2255 315.64 50.0418C315.814 50.858 315.731 51.7192 315.389 52.6254C315.062 53.5315 314.466 54.4114 313.6 55.2651C312.734 56.1188 311.838 56.7104 310.911 57.0399C310 57.3694 309.13 57.448 308.302 57.2758C307.474 57.1035 306.752 56.7141 306.137 56.1076ZM306.365 55.8829C307.238 56.7441 308.986 55.8829 311.606 53.2993C314.227 50.7158 315.1 48.9934 314.227 48.1322C313.353 47.271 311.606 48.1322 308.986 50.7158C306.365 53.2993 305.491 55.0217 306.365 55.8829Z" fill="#355E50"/>
<path d="M119.072 63V51.3636H126.049V52.6136H120.481V56.5455H125.526V57.7955H120.481V63H119.072ZM131.666 63.1818C130.878 63.1818 130.186 62.9943 129.592 62.6193C129.001 62.2443 128.539 61.7197 128.205 61.0455C127.876 60.3712 127.711 59.5833 127.711 58.6818C127.711 57.7727 127.876 56.9792 128.205 56.3011C128.539 55.6231 129.001 55.0966 129.592 54.7216C130.186 54.3466 130.878 54.1591 131.666 54.1591C132.453 54.1591 133.143 54.3466 133.734 54.7216C134.328 55.0966 134.791 55.6231 135.12 56.3011C135.453 56.9792 135.62 57.7727 135.62 58.6818C135.62 59.5833 135.453 60.3712 135.12 61.0455C134.791 61.7197 134.328 62.2443 133.734 62.6193C133.143 62.9943 132.453 63.1818 131.666 63.1818ZM131.666 61.9773C132.264 61.9773 132.756 61.8239 133.143 61.517C133.529 61.2102 133.815 60.8068 134.001 60.3068C134.186 59.8068 134.279 59.2652 134.279 58.6818C134.279 58.0985 134.186 57.5549 134.001 57.0511C133.815 56.5473 133.529 56.1402 133.143 55.8295C132.756 55.5189 132.264 55.3636 131.666 55.3636C131.067 55.3636 130.575 55.5189 130.188 55.8295C129.802 56.1402 129.516 56.5473 129.33 57.0511C129.145 57.5549 129.052 58.0985 129.052 58.6818C129.052 59.2652 129.145 59.8068 129.33 60.3068C129.516 60.8068 129.802 61.2102 130.188 61.517C130.575 61.8239 131.067 61.9773 131.666 61.9773ZM141.442 63.1818C140.715 63.1818 140.073 62.9981 139.516 62.6307C138.959 62.2595 138.524 61.7367 138.209 61.0625C137.895 60.3845 137.738 59.5833 137.738 58.6591C137.738 57.7424 137.895 56.947 138.209 56.2727C138.524 55.5985 138.961 55.0777 139.522 54.7102C140.083 54.3428 140.73 54.1591 141.465 54.1591C142.033 54.1591 142.482 54.2538 142.812 54.4432C143.145 54.6288 143.399 54.8409 143.573 55.0795C143.751 55.3144 143.889 55.5076 143.988 55.6591H144.102V51.3636H145.442V63H144.147V61.6591H143.988C143.889 61.8182 143.749 62.0189 143.567 62.2614C143.386 62.5 143.126 62.714 142.789 62.9034C142.452 63.089 142.003 63.1818 141.442 63.1818ZM141.624 61.9773C142.162 61.9773 142.617 61.8371 142.988 61.5568C143.359 61.2727 143.641 60.8807 143.834 60.3807C144.028 59.8769 144.124 59.2955 144.124 58.6364C144.124 57.9848 144.03 57.4148 143.84 56.9261C143.651 56.4337 143.37 56.0511 142.999 55.7784C142.628 55.5019 142.17 55.3636 141.624 55.3636C141.056 55.3636 140.583 55.5095 140.204 55.8011C139.829 56.089 139.547 56.4811 139.357 56.9773C139.172 57.4697 139.079 58.0227 139.079 58.6364C139.079 59.2576 139.174 59.822 139.363 60.3295C139.556 60.8333 139.84 61.2348 140.215 61.5341C140.594 61.8295 141.064 61.9773 141.624 61.9773ZM148.564 63V54.2727H149.86V55.5909H149.951C150.11 55.1591 150.398 54.8087 150.814 54.5398C151.231 54.2708 151.701 54.1364 152.224 54.1364C152.322 54.1364 152.445 54.1383 152.593 54.142C152.741 54.1458 152.852 54.1515 152.928 54.1591V55.5227C152.883 55.5114 152.779 55.4943 152.616 55.4716C152.457 55.4451 152.288 55.4318 152.11 55.4318C151.686 55.4318 151.307 55.5208 150.974 55.6989C150.644 55.8731 150.383 56.1155 150.189 56.4261C150 56.733 149.905 57.0833 149.905 57.4773V63H148.564ZM154.998 63V54.2727H156.339V63H154.998ZM155.679 52.8182C155.418 52.8182 155.193 52.7292 155.003 52.5511C154.818 52.3731 154.725 52.1591 154.725 51.9091C154.725 51.6591 154.818 51.4451 155.003 51.267C155.193 51.089 155.418 51 155.679 51C155.941 51 156.164 51.089 156.35 51.267C156.539 51.4451 156.634 51.6591 156.634 51.9091C156.634 52.1591 156.539 52.3731 156.35 52.5511C156.164 52.7292 155.941 52.8182 155.679 52.8182ZM160.615 57.75V63H159.274V54.2727H160.57V55.6364H160.684C160.888 55.1932 161.199 54.8371 161.615 54.5682C162.032 54.2955 162.57 54.1591 163.229 54.1591C163.82 54.1591 164.337 54.2803 164.78 54.5227C165.223 54.7614 165.568 55.125 165.814 55.6136C166.06 56.0985 166.184 56.7121 166.184 57.4545V63H164.843V57.5455C164.843 56.8598 164.665 56.3258 164.309 55.9432C163.953 55.5568 163.464 55.3636 162.843 55.3636C162.415 55.3636 162.032 55.4564 161.695 55.642C161.362 55.8277 161.098 56.0985 160.905 56.4545C160.712 56.8106 160.615 57.2424 160.615 57.75ZM172.637 66.4545C171.989 66.4545 171.432 66.3712 170.966 66.2045C170.5 66.0417 170.112 65.8258 169.801 65.5568C169.495 65.2917 169.25 65.0076 169.068 64.7045L170.137 63.9545C170.258 64.1136 170.411 64.2955 170.597 64.5C170.782 64.7083 171.036 64.8883 171.358 65.0398C171.684 65.1951 172.11 65.2727 172.637 65.2727C173.341 65.2727 173.923 65.1023 174.381 64.7614C174.839 64.4205 175.068 63.8864 175.068 63.1591V61.3864H174.955C174.856 61.5455 174.716 61.7424 174.534 61.9773C174.356 62.2083 174.099 62.4148 173.762 62.5966C173.428 62.7746 172.978 62.8636 172.409 62.8636C171.705 62.8636 171.072 62.697 170.512 62.3636C169.955 62.0303 169.513 61.5455 169.188 60.9091C168.866 60.2727 168.705 59.5 168.705 58.5909C168.705 57.697 168.862 56.9186 169.176 56.2557C169.491 55.589 169.928 55.0739 170.489 54.7102C171.049 54.3428 171.697 54.1591 172.432 54.1591C173 54.1591 173.451 54.2538 173.784 54.4432C174.121 54.6288 174.379 54.8409 174.557 55.0795C174.739 55.3144 174.879 55.5076 174.978 55.6591H175.114V54.2727H176.409V63.25C176.409 64 176.239 64.6098 175.898 65.0795C175.561 65.553 175.106 65.8996 174.534 66.1193C173.966 66.3428 173.334 66.4545 172.637 66.4545ZM172.591 61.6591C173.129 61.6591 173.584 61.536 173.955 61.2898C174.326 61.0436 174.608 60.6894 174.801 60.2273C174.995 59.7652 175.091 59.2121 175.091 58.5682C175.091 57.9394 174.996 57.3845 174.807 56.9034C174.618 56.4223 174.337 56.0455 173.966 55.7727C173.595 55.5 173.137 55.3636 172.591 55.3636C172.023 55.3636 171.549 55.5076 171.171 55.7955C170.796 56.0833 170.513 56.4697 170.324 56.9545C170.138 57.4394 170.046 57.9773 170.046 58.5682C170.046 59.1742 170.14 59.7102 170.33 60.1761C170.523 60.6383 170.807 61.0019 171.182 61.267C171.561 61.5284 172.031 61.6591 172.591 61.6591ZM187.869 63.1818C187.081 63.1818 186.39 62.9943 185.795 62.6193C185.205 62.2443 184.742 61.7197 184.409 61.0455C184.08 60.3712 183.915 59.5833 183.915 58.6818C183.915 57.7727 184.08 56.9792 184.409 56.3011C184.742 55.6231 185.205 55.0966 185.795 54.7216C186.39 54.3466 187.081 54.1591 187.869 54.1591C188.657 54.1591 189.347 54.3466 189.937 54.7216C190.532 55.0966 190.994 55.6231 191.324 56.3011C191.657 56.9792 191.824 57.7727 191.824 58.6818C191.824 59.5833 191.657 60.3712 191.324 61.0455C190.994 61.7197 190.532 62.2443 189.937 62.6193C189.347 62.9943 188.657 63.1818 187.869 63.1818ZM187.869 61.9773C188.468 61.9773 188.96 61.8239 189.347 61.517C189.733 61.2102 190.019 60.8068 190.205 60.3068C190.39 59.8068 190.483 59.2652 190.483 58.6818C190.483 58.0985 190.39 57.5549 190.205 57.0511C190.019 56.5473 189.733 56.1402 189.347 55.8295C188.96 55.5189 188.468 55.3636 187.869 55.3636C187.271 55.3636 186.778 55.5189 186.392 55.8295C186.006 56.1402 185.72 56.5473 185.534 57.0511C185.348 57.5549 185.256 58.0985 185.256 58.6818C185.256 59.2652 185.348 59.8068 185.534 60.3068C185.72 60.8068 186.006 61.2102 186.392 61.517C186.778 61.8239 187.271 61.9773 187.869 61.9773ZM197.873 66.4545C197.226 66.4545 196.669 66.3712 196.203 66.2045C195.737 66.0417 195.349 65.8258 195.038 65.5568C194.731 65.2917 194.487 65.0076 194.305 64.7045L195.373 63.9545C195.495 64.1136 195.648 64.2955 195.834 64.5C196.019 64.7083 196.273 64.8883 196.595 65.0398C196.921 65.1951 197.347 65.2727 197.873 65.2727C198.578 65.2727 199.159 65.1023 199.618 64.7614C200.076 64.4205 200.305 63.8864 200.305 63.1591V61.3864H200.192C200.093 61.5455 199.953 61.7424 199.771 61.9773C199.593 62.2083 199.336 62.4148 198.998 62.5966C198.665 62.7746 198.214 62.8636 197.646 62.8636C196.942 62.8636 196.309 62.697 195.748 62.3636C195.192 62.0303 194.75 61.5455 194.425 60.9091C194.103 60.2727 193.942 59.5 193.942 58.5909C193.942 57.697 194.099 56.9186 194.413 56.2557C194.728 55.589 195.165 55.0739 195.726 54.7102C196.286 54.3428 196.934 54.1591 197.669 54.1591C198.237 54.1591 198.688 54.2538 199.021 54.4432C199.358 54.6288 199.616 54.8409 199.794 55.0795C199.976 55.3144 200.116 55.5076 200.214 55.6591H200.351V54.2727H201.646V63.25C201.646 64 201.476 64.6098 201.135 65.0795C200.798 65.553 200.343 65.8996 199.771 66.1193C199.203 66.3428 198.57 66.4545 197.873 66.4545ZM197.828 61.6591C198.366 61.6591 198.82 61.536 199.192 61.2898C199.563 61.0436 199.845 60.6894 200.038 60.2273C200.231 59.7652 200.328 59.2121 200.328 58.5682C200.328 57.9394 200.233 57.3845 200.044 56.9034C199.855 56.4223 199.574 56.0455 199.203 55.7727C198.832 55.5 198.373 55.3636 197.828 55.3636C197.26 55.3636 196.786 55.5076 196.408 55.7955C196.033 56.0833 195.75 56.4697 195.561 56.9545C195.375 57.4394 195.283 57.9773 195.283 58.5682C195.283 59.1742 195.377 59.7102 195.567 60.1761C195.76 60.6383 196.044 61.0019 196.419 61.267C196.798 61.5284 197.267 61.6591 197.828 61.6591ZM118.89 85.2727V73.2727H120.186V74.6591H120.345C120.443 74.5076 120.58 74.3144 120.754 74.0795C120.932 73.8409 121.186 73.6288 121.515 73.4432C121.848 73.2538 122.299 73.1591 122.867 73.1591C123.602 73.1591 124.25 73.3428 124.811 73.7102C125.371 74.0777 125.809 74.5985 126.123 75.2727C126.437 75.947 126.595 76.7424 126.595 77.6591C126.595 78.5833 126.437 79.3845 126.123 80.0625C125.809 80.7367 125.373 81.2595 124.816 81.6307C124.259 81.9981 123.617 82.1818 122.89 82.1818C122.33 82.1818 121.881 82.089 121.544 81.9034C121.206 81.714 120.947 81.5 120.765 81.2614C120.583 81.0189 120.443 80.8182 120.345 80.6591H120.231V85.2727H118.89ZM120.208 77.6364C120.208 78.2955 120.305 78.8769 120.498 79.3807C120.691 79.8807 120.973 80.2727 121.345 80.5568C121.716 80.8371 122.17 80.9773 122.708 80.9773C123.269 80.9773 123.737 80.8295 124.112 80.5341C124.49 80.2348 124.775 79.8333 124.964 79.3295C125.157 78.822 125.254 78.2576 125.254 77.6364C125.254 77.0227 125.159 76.4697 124.97 75.9773C124.784 75.4811 124.502 75.089 124.123 74.8011C123.748 74.5095 123.276 74.3636 122.708 74.3636C122.163 74.3636 121.705 74.5019 121.333 74.7784C120.962 75.0511 120.682 75.4337 120.492 75.9261C120.303 76.4148 120.208 76.9848 120.208 77.6364ZM129.12 82V73.2727H130.416V74.5909H130.506C130.666 74.1591 130.953 73.8087 131.37 73.5398C131.787 73.2708 132.256 73.1364 132.779 73.1364C132.878 73.1364 133.001 73.1383 133.149 73.142C133.296 73.1458 133.408 73.1515 133.484 73.1591V74.5227C133.438 74.5114 133.334 74.4943 133.171 74.4716C133.012 74.4451 132.844 74.4318 132.666 74.4318C132.241 74.4318 131.863 74.5208 131.529 74.6989C131.2 74.8731 130.938 75.1155 130.745 75.4261C130.556 75.733 130.461 76.0833 130.461 76.4773V82H129.12ZM144.69 82.1818C143.724 82.1818 142.921 81.9451 142.281 81.4716C141.64 80.9943 141.246 80.375 141.099 79.6136L141.349 75.2727C141.633 74.6136 142.044 74.0966 142.582 73.7216C143.123 73.3466 143.781 73.1591 144.553 73.1591C145.008 73.1591 145.457 73.2348 145.9 73.3864C146.343 73.5379 146.746 73.7841 147.11 74.125C147.474 74.4621 147.763 74.9091 147.979 75.4659C148.195 76.0227 148.303 76.7083 148.303 77.5227V78.0909H141.576V76.9318H146.94C146.94 76.4394 146.841 76 146.644 75.6136C146.451 75.2273 146.174 74.9223 145.815 74.6989C145.459 74.4754 145.038 74.3636 144.553 74.3636C144.019 74.3636 143.557 74.4962 143.167 74.7614C142.781 75.0227 142.483 75.3655 142.275 75.7898C142.066 76.2102 141.962 76.6591 141.962 77.1364V77.9091C141.962 78.5682 142.078 79.1269 142.309 79.5852C142.54 80.0398 142.86 80.3864 143.269 80.625C143.678 80.8598 144.152 80.9773 144.69 80.9773C145.042 80.9773 145.36 80.928 145.644 80.8295C145.932 80.7273 146.18 80.5758 146.388 80.375C146.597 80.1705 146.758 79.9167 146.871 79.6136L148.167 79.9773C148.031 80.4167 147.801 80.803 147.479 81.1364C147.157 81.4659 146.76 81.7235 146.286 81.9091C145.813 82.0909 145.281 82.1818 144.69 82.1818ZM138.326 81C138.856 81 139.303 80.8958 139.667 80.6875C140.034 80.4792 140.311 80.2102 140.496 79.8807C140.686 79.5511 140.781 79.2045 140.781 78.8409V77.6136C140.724 77.6818 140.599 77.7443 140.406 77.8011C140.216 77.8542 139.996 77.9015 139.746 77.9432C139.5 77.9811 139.26 78.0152 139.025 78.0455C138.794 78.072 138.606 78.0947 138.462 78.1136C138.114 78.1591 137.788 78.233 137.485 78.3352C137.186 78.4337 136.943 78.5833 136.758 78.7841C136.576 78.9811 136.485 79.25 136.485 79.5909C136.485 80.0568 136.657 80.4091 137.002 80.6477C137.351 80.8826 137.792 81 138.326 81ZM138.121 82.2045C137.568 82.2045 137.066 82.1004 136.616 81.892C136.165 81.6799 135.807 81.375 135.542 80.9773C135.277 80.5758 135.144 80.0909 135.144 79.5227C135.144 79.0227 135.243 78.6174 135.44 78.3068C135.64 77.9924 135.904 77.7462 136.229 77.5682C136.559 77.3864 136.924 77.2519 137.326 77.1648C137.727 77.0739 138.129 77.0038 138.531 76.9545C139.061 76.8864 139.491 76.8333 139.82 76.7955C140.154 76.7576 140.396 76.6951 140.548 76.608C140.703 76.5208 140.781 76.3712 140.781 76.1591V76.1136C140.781 75.5568 140.627 75.1231 140.32 74.8125C140.013 74.4981 139.553 74.3409 138.94 74.3409C138.303 74.3409 137.801 74.4811 137.434 74.7614C137.07 75.0417 136.815 75.3409 136.667 75.6591L135.394 75.2045C135.621 74.6742 135.924 74.2614 136.303 73.9659C136.686 73.6667 137.102 73.4583 137.553 73.3409C138.008 73.2197 138.455 73.1591 138.894 73.1591C139.129 73.1591 139.394 73.1818 139.69 73.2273C139.985 73.2689 140.282 73.3542 140.582 73.483C140.881 73.6117 141.154 73.803 141.4 74.0568C141.646 74.3106 141.834 74.6477 141.962 75.0682L141.44 80.4091H141.326C141.212 80.7348 140.998 81.0341 140.684 81.3068C140.373 81.5795 139.995 81.7973 139.548 81.9602C139.104 82.1231 138.629 82.2045 138.121 82.2045ZM157.012 75.2273L155.807 75.5682C155.732 75.3674 155.62 75.1723 155.472 74.983C155.328 74.7898 155.131 74.6307 154.881 74.5057C154.631 74.3807 154.311 74.3182 153.921 74.3182C153.387 74.3182 152.942 74.4413 152.586 74.6875C152.234 74.9299 152.057 75.2386 152.057 75.6136C152.057 75.947 152.179 76.2102 152.421 76.4034C152.663 76.5966 153.042 76.7576 153.557 76.8864L154.853 77.2045C155.633 77.3939 156.215 77.6837 156.597 78.0739C156.98 78.4602 157.171 78.9583 157.171 79.5682C157.171 80.0682 157.027 80.5152 156.739 80.9091C156.455 81.303 156.057 81.6136 155.546 81.8409C155.035 82.0682 154.44 82.1818 153.762 82.1818C152.872 82.1818 152.135 81.9886 151.552 81.6023C150.968 81.2159 150.599 80.6515 150.444 79.9091L151.716 79.5909C151.838 80.0606 152.067 80.4129 152.404 80.6477C152.745 80.8826 153.19 81 153.739 81C154.364 81 154.86 80.8674 155.228 80.6023C155.599 80.3333 155.785 80.0114 155.785 79.6364C155.785 79.3333 155.679 79.0795 155.466 78.875C155.254 78.6667 154.929 78.5114 154.489 78.4091L153.035 78.0682C152.235 77.8788 151.648 77.5852 151.273 77.1875C150.902 76.786 150.716 76.2841 150.716 75.6818C150.716 75.1894 150.855 74.7538 151.131 74.375C151.412 73.9962 151.792 73.6989 152.273 73.483C152.758 73.267 153.307 73.1591 153.921 73.1591C154.785 73.1591 155.463 73.3485 155.955 73.7273C156.451 74.1061 156.804 74.6061 157.012 75.2273ZM163.329 82.1818C162.488 82.1818 161.762 81.9962 161.152 81.625C160.546 81.25 160.079 80.7273 159.749 80.0568C159.423 79.3826 159.26 78.5985 159.26 77.7045C159.26 76.8106 159.423 76.0227 159.749 75.3409C160.079 74.6553 160.537 74.1212 161.124 73.7386C161.715 73.3523 162.404 73.1591 163.192 73.1591C163.647 73.1591 164.096 73.2348 164.539 73.3864C164.982 73.5379 165.385 73.7841 165.749 74.125C166.113 74.4621 166.402 74.9091 166.618 75.4659C166.834 76.0227 166.942 76.7083 166.942 77.5227V78.0909H160.215V76.9318H165.579C165.579 76.4394 165.48 76 165.283 75.6136C165.09 75.2273 164.813 74.9223 164.454 74.6989C164.098 74.4754 163.677 74.3636 163.192 74.3636C162.658 74.3636 162.196 74.4962 161.806 74.7614C161.419 75.0227 161.122 75.3636 160.914 75.7841C160.705 76.2045 160.601 76.6553 160.601 77.1364V77.9091C160.601 78.5682 160.715 79.1269 160.942 79.5852C161.173 80.0398 161.493 80.3864 161.902 80.625C162.312 80.8598 162.787 80.9773 163.329 80.9773C163.681 80.9773 163.999 80.928 164.283 80.8295C164.571 80.7273 164.819 80.5758 165.027 80.375C165.236 80.1705 165.397 79.9167 165.51 79.6136L166.806 79.9773C166.669 80.4167 166.44 80.803 166.118 81.1364C165.796 81.4659 165.399 81.7235 164.925 81.9091C164.452 82.0909 163.919 82.1818 163.329 82.1818ZM170.803 76.75V82H169.462V73.2727H170.757V74.6364H170.871C171.076 74.1932 171.386 73.8371 171.803 73.5682C172.22 73.2955 172.757 73.1591 173.417 73.1591C174.007 73.1591 174.524 73.2803 174.968 73.5227C175.411 73.7614 175.756 74.125 176.002 74.6136C176.248 75.0985 176.371 75.7121 176.371 76.4545V82H175.03V76.5455C175.03 75.8598 174.852 75.3258 174.496 74.9432C174.14 74.5568 173.651 74.3636 173.03 74.3636C172.602 74.3636 172.22 74.4564 171.882 74.642C171.549 74.8277 171.286 75.0985 171.093 75.4545C170.899 75.8106 170.803 76.2424 170.803 76.75ZM183.097 73.2727V74.4091H178.574V73.2727H183.097ZM179.892 71.1818H181.233V79.5C181.233 79.8788 181.288 80.1629 181.398 80.3523C181.512 80.5379 181.656 80.6629 181.83 80.7273C182.008 80.7879 182.195 80.8182 182.392 80.8182C182.54 80.8182 182.661 80.8106 182.756 80.7955C182.851 80.7765 182.926 80.7614 182.983 80.75L183.256 81.9545C183.165 81.9886 183.038 82.0227 182.875 82.0568C182.712 82.0947 182.506 82.1136 182.256 82.1136C181.877 82.1136 181.506 82.0322 181.142 81.8693C180.782 81.7064 180.483 81.4583 180.245 81.125C180.01 80.7917 179.892 80.3712 179.892 79.8636V71.1818ZM188.162 82.2045C187.609 82.2045 187.107 82.1004 186.656 81.892C186.206 81.6799 185.848 81.375 185.583 80.9773C185.317 80.5758 185.185 80.0909 185.185 79.5227C185.185 79.0227 185.283 78.6174 185.48 78.3068C185.677 77.9924 185.94 77.7462 186.27 77.5682C186.6 77.3902 186.963 77.2576 187.361 77.1705C187.762 77.0795 188.166 77.0076 188.571 76.9545C189.101 76.8864 189.531 76.8352 189.861 76.8011C190.194 76.7633 190.437 76.7008 190.588 76.6136C190.743 76.5265 190.821 76.375 190.821 76.1591V76.1136C190.821 75.553 190.668 75.1174 190.361 74.8068C190.058 74.4962 189.598 74.3409 188.98 74.3409C188.34 74.3409 187.838 74.4811 187.475 74.7614C187.111 75.0417 186.855 75.3409 186.708 75.6591L185.435 75.2045C185.662 74.6742 185.965 74.2614 186.344 73.9659C186.726 73.6667 187.143 73.4583 187.594 73.3409C188.048 73.2197 188.495 73.1591 188.935 73.1591C189.215 73.1591 189.537 73.1932 189.901 73.2614C190.268 73.3258 190.622 73.4602 190.963 73.6648C191.308 73.8693 191.594 74.178 191.821 74.5909C192.048 75.0038 192.162 75.5568 192.162 76.25V82H190.821V80.8182H190.753C190.662 81.0076 190.511 81.2102 190.298 81.4261C190.086 81.642 189.804 81.8258 189.452 81.9773C189.1 82.1288 188.67 82.2045 188.162 82.2045ZM188.367 81C188.897 81 189.344 80.8958 189.708 80.6875C190.075 80.4792 190.351 80.2102 190.537 79.8807C190.726 79.5511 190.821 79.2045 190.821 78.8409V77.6136C190.764 77.6818 190.639 77.7443 190.446 77.8011C190.257 77.8542 190.037 77.9015 189.787 77.9432C189.541 77.9811 189.3 78.0152 189.065 78.0455C188.834 78.072 188.647 78.0947 188.503 78.1136C188.154 78.1591 187.829 78.233 187.526 78.3352C187.226 78.4337 186.984 78.5833 186.798 78.7841C186.617 78.9811 186.526 79.25 186.526 79.5909C186.526 80.0568 186.698 80.4091 187.043 80.6477C187.391 80.8826 187.833 81 188.367 81ZM198.885 73.2727V74.4091H194.362V73.2727H198.885ZM195.68 71.1818H197.021V79.5C197.021 79.8788 197.076 80.1629 197.186 80.3523C197.3 80.5379 197.444 80.6629 197.618 80.7273C197.796 80.7879 197.983 80.8182 198.18 80.8182C198.328 80.8182 198.449 80.8106 198.544 80.7955C198.639 80.7765 198.714 80.7614 198.771 80.75L199.044 81.9545C198.953 81.9886 198.826 82.0227 198.663 82.0568C198.5 82.0947 198.294 82.1136 198.044 82.1136C197.665 82.1136 197.294 82.0322 196.93 81.8693C196.571 81.7064 196.271 81.4583 196.033 81.125C195.798 80.7917 195.68 80.3712 195.68 79.8636V71.1818ZM201.382 82V73.2727H202.723V82H201.382ZM202.064 71.8182C201.802 71.8182 201.577 71.7292 201.388 71.5511C201.202 71.3731 201.109 71.1591 201.109 70.9091C201.109 70.6591 201.202 70.4451 201.388 70.267C201.577 70.089 201.802 70 202.064 70C202.325 70 202.549 70.089 202.734 70.267C202.924 70.4451 203.018 70.6591 203.018 70.9091C203.018 71.1591 202.924 71.3731 202.734 71.5511C202.549 71.7292 202.325 71.8182 202.064 71.8182ZM209.204 82.1818C208.416 82.1818 207.725 81.9943 207.13 81.6193C206.54 81.2443 206.077 80.7197 205.744 80.0455C205.415 79.3712 205.25 78.5833 205.25 77.6818C205.25 76.7727 205.415 75.9792 205.744 75.3011C206.077 74.6231 206.54 74.0966 207.13 73.7216C207.725 73.3466 208.416 73.1591 209.204 73.1591C209.992 73.1591 210.682 73.3466 211.273 73.7216C211.867 74.0966 212.329 74.6231 212.659 75.3011C212.992 75.9792 213.159 76.7727 213.159 77.6818C213.159 78.5833 212.992 79.3712 212.659 80.0455C212.329 80.7197 211.867 81.2443 211.273 81.6193C210.682 81.9943 209.992 82.1818 209.204 82.1818ZM209.204 80.9773C209.803 80.9773 210.295 80.8239 210.682 80.517C211.068 80.2102 211.354 79.8068 211.54 79.3068C211.725 78.8068 211.818 78.2652 211.818 77.6818C211.818 77.0985 211.725 76.5549 211.54 76.0511C211.354 75.5473 211.068 75.1402 210.682 74.8295C210.295 74.5189 209.803 74.3636 209.204 74.3636C208.606 74.3636 208.113 74.5189 207.727 74.8295C207.341 75.1402 207.055 75.5473 206.869 76.0511C206.683 76.5549 206.591 77.0985 206.591 77.6818C206.591 78.2652 206.683 78.8068 206.869 79.3068C207.055 79.8068 207.341 80.2102 207.727 80.517C208.113 80.8239 208.606 80.9773 209.204 80.9773ZM217.027 76.75V82H215.686V73.2727H216.981V74.6364H217.095C217.299 74.1932 217.61 73.8371 218.027 73.5682C218.443 73.2955 218.981 73.1591 219.64 73.1591C220.231 73.1591 220.748 73.2803 221.191 73.5227C221.635 73.7614 221.979 74.125 222.226 74.6136C222.472 75.0985 222.595 75.7121 222.595 76.4545V82H221.254V76.5455C221.254 75.8598 221.076 75.3258 220.72 74.9432C220.364 74.5568 219.875 74.3636 219.254 74.3636C218.826 74.3636 218.443 74.4564 218.106 74.642C217.773 74.8277 217.51 75.0985 217.316 75.4545C217.123 75.8106 217.027 76.2424 217.027 76.75ZM233.073 82.2045C232.52 82.2045 232.018 82.1004 231.568 81.892C231.117 81.6799 230.759 81.375 230.494 80.9773C230.229 80.5758 230.096 80.0909 230.096 79.5227C230.096 79.0227 230.195 78.6174 230.391 78.3068C230.588 77.9924 230.852 77.7462 231.181 77.5682C231.511 77.3902 231.874 77.2576 232.272 77.1705C232.674 77.0795 233.077 77.0076 233.482 76.9545C234.013 76.8864 234.443 76.8352 234.772 76.8011C235.105 76.7633 235.348 76.7008 235.499 76.6136C235.655 76.5265 235.732 76.375 235.732 76.1591V76.1136C235.732 75.553 235.579 75.1174 235.272 74.8068C234.969 74.4962 234.509 74.3409 233.891 74.3409C233.251 74.3409 232.749 74.4811 232.386 74.7614C232.022 75.0417 231.766 75.3409 231.619 75.6591L230.346 75.2045C230.573 74.6742 230.876 74.2614 231.255 73.9659C231.638 73.6667 232.054 73.4583 232.505 73.3409C232.96 73.2197 233.407 73.1591 233.846 73.1591C234.126 73.1591 234.448 73.1932 234.812 73.2614C235.179 73.3258 235.534 73.4602 235.874 73.6648C236.219 73.8693 236.505 74.178 236.732 74.5909C236.96 75.0038 237.073 75.5568 237.073 76.25V82H235.732V80.8182H235.664C235.573 81.0076 235.422 81.2102 235.21 81.4261C234.998 81.642 234.715 81.8258 234.363 81.9773C234.011 82.1288 233.581 82.2045 233.073 82.2045ZM233.278 81C233.808 81 234.255 80.8958 234.619 80.6875C234.986 80.4792 235.263 80.2102 235.448 79.8807C235.638 79.5511 235.732 79.2045 235.732 78.8409V77.6136C235.676 77.6818 235.551 77.7443 235.357 77.8011C235.168 77.8542 234.948 77.9015 234.698 77.9432C234.452 77.9811 234.212 78.0152 233.977 78.0455C233.746 78.072 233.558 78.0947 233.414 78.1136C233.066 78.1591 232.74 78.233 232.437 78.3352C232.138 78.4337 231.895 78.5833 231.71 78.7841C231.528 78.9811 231.437 79.25 231.437 79.5909C231.437 80.0568 231.609 80.4091 231.954 80.6477C232.302 80.8826 232.744 81 233.278 81ZM243.887 73.2727V74.4091H239.183V73.2727H243.887ZM240.592 82V72.0682C240.592 71.5682 240.709 71.1515 240.944 70.8182C241.179 70.4848 241.484 70.2348 241.859 70.0682C242.234 69.9015 242.63 69.8182 243.046 69.8182C243.376 69.8182 243.645 69.8447 243.853 69.8977C244.061 69.9508 244.217 70 244.319 70.0455L243.933 71.2045C243.864 71.1818 243.77 71.1534 243.648 71.1193C243.531 71.0852 243.376 71.0682 243.183 71.0682C242.739 71.0682 242.419 71.1799 242.222 71.4034C242.029 71.6269 241.933 71.9545 241.933 72.3864V82H240.592ZM119.072 101V89.3636H123.004C123.917 89.3636 124.663 89.5284 125.242 89.858C125.826 90.1837 126.258 90.625 126.538 91.1818C126.818 91.7386 126.958 92.3598 126.958 93.0455C126.958 93.7311 126.818 94.3542 126.538 94.9148C126.261 95.4754 125.833 95.9223 125.254 96.2557C124.674 96.5852 123.932 96.75 123.026 96.75H120.208V95.5H122.981C123.606 95.5 124.108 95.392 124.487 95.1761C124.865 94.9602 125.14 94.6686 125.311 94.3011C125.485 93.9299 125.572 93.5114 125.572 93.0455C125.572 92.5795 125.485 92.1629 125.311 91.7955C125.14 91.428 124.864 91.1402 124.481 90.9318C124.098 90.7197 123.591 90.6136 122.958 90.6136H120.481V101H119.072ZM129.526 101V92.2727H130.867V101H129.526ZM130.208 90.8182C129.947 90.8182 129.721 90.7292 129.532 90.5511C129.346 90.3731 129.254 90.1591 129.254 89.9091C129.254 89.6591 129.346 89.4451 129.532 89.267C129.721 89.089 129.947 89 130.208 89C130.47 89 130.693 89.089 130.879 89.267C131.068 89.4451 131.163 89.6591 131.163 89.9091C131.163 90.1591 131.068 90.3731 130.879 90.5511C130.693 90.7292 130.47 90.8182 130.208 90.8182ZM135.144 95.75V101H133.803V92.2727H135.099V93.6364H135.212C135.417 93.1932 135.727 92.8371 136.144 92.5682C136.561 92.2955 137.099 92.1591 137.758 92.1591C138.349 92.1591 138.866 92.2803 139.309 92.5227C139.752 92.7614 140.097 93.125 140.343 93.6136C140.589 94.0985 140.712 94.7121 140.712 95.4545V101H139.371V95.5455C139.371 94.8598 139.193 94.3258 138.837 93.9432C138.481 93.5568 137.993 93.3636 137.371 93.3636C136.943 93.3636 136.561 93.4564 136.224 93.642C135.89 93.8277 135.627 94.0985 135.434 94.4545C135.241 94.8106 135.144 95.2424 135.144 95.75ZM147.165 104.455C146.518 104.455 145.961 104.371 145.495 104.205C145.029 104.042 144.641 103.826 144.33 103.557C144.023 103.292 143.779 103.008 143.597 102.705L144.665 101.955C144.787 102.114 144.94 102.295 145.126 102.5C145.311 102.708 145.565 102.888 145.887 103.04C146.213 103.195 146.639 103.273 147.165 103.273C147.87 103.273 148.451 103.102 148.91 102.761C149.368 102.42 149.597 101.886 149.597 101.159V99.3864H149.484C149.385 99.5455 149.245 99.7424 149.063 99.9773C148.885 100.208 148.627 100.415 148.29 100.597C147.957 100.775 147.506 100.864 146.938 100.864C146.234 100.864 145.601 100.697 145.04 100.364C144.484 100.03 144.042 99.5455 143.716 98.9091C143.395 98.2727 143.234 97.5 143.234 96.5909C143.234 95.697 143.391 94.9186 143.705 94.2557C144.02 93.589 144.457 93.0739 145.018 92.7102C145.578 92.3428 146.226 92.1591 146.961 92.1591C147.529 92.1591 147.98 92.2538 148.313 92.4432C148.65 92.6288 148.908 92.8409 149.086 93.0795C149.268 93.3144 149.408 93.5076 149.506 93.6591H149.643V92.2727H150.938V101.25C150.938 102 150.768 102.61 150.427 103.08C150.09 103.553 149.635 103.9 149.063 104.119C148.495 104.343 147.862 104.455 147.165 104.455ZM147.12 99.6591C147.658 99.6591 148.112 99.536 148.484 99.2898C148.855 99.0436 149.137 98.6894 149.33 98.2273C149.523 97.7652 149.62 97.2121 149.62 96.5682C149.62 95.9394 149.525 95.3845 149.336 94.9034C149.146 94.4223 148.866 94.0455 148.495 93.7727C148.124 93.5 147.665 93.3636 147.12 93.3636C146.552 93.3636 146.078 93.5076 145.699 93.7955C145.324 94.0833 145.042 94.4697 144.853 94.9545C144.667 95.4394 144.574 95.9773 144.574 96.5682C144.574 97.1742 144.669 97.7102 144.859 98.1761C145.052 98.6383 145.336 99.0019 145.711 99.267C146.09 99.5284 146.559 99.6591 147.12 99.6591ZM161.009 92.2727L157.782 101H156.418L153.191 92.2727H154.645L157.054 99.2273H157.145L159.554 92.2727H161.009ZM163.259 101V92.2727H164.6V101H163.259ZM163.941 90.8182C163.679 90.8182 163.454 90.7292 163.265 90.5511C163.079 90.3731 162.986 90.1591 162.986 89.9091C162.986 89.6591 163.079 89.4451 163.265 89.267C163.454 89.089 163.679 89 163.941 89C164.202 89 164.426 89.089 164.611 89.267C164.801 89.4451 164.895 89.6591 164.895 89.9091C164.895 90.1591 164.801 90.3731 164.611 90.5511C164.426 90.7292 164.202 90.8182 163.941 90.8182ZM168.877 95.75V101H167.536V92.2727H168.831V93.6364H168.945C169.149 93.1932 169.46 92.8371 169.877 92.5682C170.293 92.2955 170.831 92.1591 171.49 92.1591C172.081 92.1591 172.598 92.2803 173.041 92.5227C173.485 92.7614 173.829 93.125 174.076 93.6136C174.322 94.0985 174.445 94.7121 174.445 95.4545V101H173.104V95.5455C173.104 94.8598 172.926 94.3258 172.57 93.9432C172.214 93.5568 171.725 93.3636 171.104 93.3636C170.676 93.3636 170.293 93.4564 169.956 93.642C169.623 93.8277 169.36 94.0985 169.166 94.4545C168.973 94.8106 168.877 95.2424 168.877 95.75ZM181.034 101.182C180.193 101.182 179.468 100.996 178.858 100.625C178.252 100.25 177.784 99.7273 177.455 99.0568C177.129 98.3826 176.966 97.5985 176.966 96.7045C176.966 95.8106 177.129 95.0227 177.455 94.3409C177.784 93.6553 178.243 93.1212 178.83 92.7386C179.421 92.3523 180.11 92.1591 180.898 92.1591C181.352 92.1591 181.801 92.2348 182.244 92.3864C182.688 92.5379 183.091 92.7841 183.455 93.125C183.818 93.4621 184.108 93.9091 184.324 94.4659C184.54 95.0227 184.648 95.7083 184.648 96.5227V97.0909H177.921V95.9318H183.284C183.284 95.4394 183.186 95 182.989 94.6136C182.796 94.2273 182.519 93.9223 182.159 93.6989C181.803 93.4754 181.383 93.3636 180.898 93.3636C180.364 93.3636 179.902 93.4962 179.511 93.7614C179.125 94.0227 178.828 94.3636 178.619 94.7841C178.411 95.2045 178.307 95.6553 178.307 96.1364V96.9091C178.307 97.5682 178.421 98.1269 178.648 98.5852C178.879 99.0398 179.199 99.3864 179.608 99.625C180.017 99.8598 180.493 99.9773 181.034 99.9773C181.386 99.9773 181.705 99.928 181.989 99.8295C182.277 99.7273 182.525 99.5758 182.733 99.375C182.941 99.1705 183.102 98.9167 183.216 98.6136L184.511 98.9773C184.375 99.4167 184.146 99.803 183.824 100.136C183.502 100.466 183.104 100.723 182.631 100.909C182.157 101.091 181.625 101.182 181.034 101.182ZM187.168 101V92.2727H188.463V93.5909H188.554C188.713 93.1591 189.001 92.8087 189.418 92.5398C189.834 92.2708 190.304 92.1364 190.827 92.1364C190.925 92.1364 191.048 92.1383 191.196 92.142C191.344 92.1458 191.455 92.1515 191.531 92.1591V93.5227C191.486 93.5114 191.382 93.4943 191.219 93.4716C191.06 93.4451 190.891 93.4318 190.713 93.4318C190.289 93.4318 189.91 93.5208 189.577 93.6989C189.247 93.8731 188.986 94.1155 188.793 94.4261C188.603 94.733 188.509 95.0833 188.509 95.4773V101H187.168Z" fill="#FCFAEE"/>
<path d="M123.659 35.9902H120.749V33.6172H123.659C124.063 33.6172 124.391 33.526 124.645 33.3438C124.906 33.1615 125.094 32.9108 125.212 32.5918C125.329 32.2663 125.387 31.9017 125.387 31.498C125.387 31.0879 125.326 30.707 125.202 30.3555C125.085 29.9974 124.899 29.7077 124.645 29.4863C124.398 29.265 124.069 29.1543 123.659 29.1543H121.667V41H118.815V26.7812H123.659C124.616 26.7812 125.44 26.9831 126.13 27.3867C126.82 27.7904 127.347 28.347 127.712 29.0566C128.083 29.7598 128.268 30.5671 128.268 31.4785C128.268 32.3965 128.083 33.194 127.712 33.8711C127.347 34.5417 126.82 35.0625 126.13 35.4336C125.44 35.8047 124.616 35.9902 123.659 35.9902ZM133.517 30.4336V41H130.773V30.4336H133.517ZM130.646 27.6992C130.646 27.276 130.779 26.9277 131.046 26.6543C131.319 26.3743 131.684 26.2344 132.14 26.2344C132.602 26.2344 132.967 26.3743 133.234 26.6543C133.5 26.9277 133.634 27.276 133.634 27.6992C133.634 28.1159 133.497 28.4642 133.224 28.7441C132.957 29.0176 132.599 29.1543 132.15 29.1543C131.687 29.1543 131.319 29.0176 131.046 28.7441C130.779 28.4642 130.646 28.1159 130.646 27.6992ZM138.97 32.6895V41H136.226V30.4336H138.794L138.97 32.6895ZM138.56 35.3555L137.828 35.375C137.815 34.5807 137.89 33.8678 138.052 33.2363C138.222 32.6048 138.459 32.0677 138.765 31.625C139.078 31.1758 139.449 30.834 139.878 30.5996C140.315 30.3587 140.8 30.2383 141.334 30.2383C141.744 30.2383 142.118 30.3099 142.457 30.4531C142.802 30.5964 143.098 30.8242 143.345 31.1367C143.593 31.4492 143.785 31.8659 143.921 32.3867C144.058 32.901 144.127 33.5326 144.127 34.2812V41H141.382V34.2617C141.382 33.806 141.337 33.4544 141.246 33.207C141.155 32.9531 141.018 32.7773 140.835 32.6797C140.653 32.5755 140.425 32.5234 140.152 32.5234C139.891 32.5234 139.66 32.5983 139.459 32.748C139.257 32.8913 139.087 33.0898 138.951 33.3438C138.821 33.5977 138.72 33.8971 138.648 34.2422C138.583 34.5872 138.554 34.9583 138.56 35.3555ZM152.285 30.4336H154.766V41C154.766 41.9635 154.58 42.7513 154.209 43.3633C153.844 43.9818 153.333 44.4342 152.676 44.7207C152.025 45.0137 151.263 45.1602 150.391 45.1602C150.059 45.1602 149.684 45.1146 149.268 45.0234C148.857 44.9323 148.46 44.7923 148.076 44.6035C147.692 44.4212 147.376 44.1999 147.129 43.9395L148.057 42.0449C148.31 42.2988 148.643 42.5137 149.053 42.6895C149.463 42.8717 149.866 42.9629 150.264 42.9629C150.648 42.9629 150.967 42.901 151.221 42.7773C151.481 42.6602 151.676 42.4583 151.807 42.1719C151.943 41.8854 152.012 41.5013 152.012 41.0195V32.8848L152.285 30.4336ZM146.387 36.0879V35.3848C146.387 34.5254 146.468 33.7734 146.631 33.1289C146.794 32.4844 147.028 31.9473 147.334 31.5176C147.64 31.0879 148.014 30.7689 148.457 30.5605C148.906 30.3457 149.408 30.2383 149.961 30.2383C150.54 30.2383 151.025 30.3652 151.416 30.6191C151.807 30.8665 152.122 31.2148 152.363 31.6641C152.611 32.1133 152.799 32.6439 152.93 33.2559C153.066 33.8678 153.171 34.5384 153.242 35.2676V36.2832C153.171 36.9733 153.053 37.6178 152.891 38.2168C152.734 38.8158 152.526 39.3366 152.266 39.7793C152.005 40.222 151.686 40.5703 151.309 40.8242C150.931 41.0716 150.475 41.1953 149.941 41.1953C149.394 41.1953 148.9 41.0846 148.457 40.8633C148.021 40.6419 147.646 40.3164 147.334 39.8867C147.028 39.4505 146.794 38.9167 146.631 38.2852C146.468 37.6471 146.387 36.9147 146.387 36.0879ZM149.131 35.3848V36.0879C149.131 36.5827 149.16 37.0091 149.219 37.3672C149.284 37.7188 149.381 38.0085 149.512 38.2363C149.642 38.4577 149.808 38.6237 150.01 38.7344C150.218 38.8385 150.462 38.8906 150.742 38.8906C151.139 38.8906 151.455 38.7995 151.689 38.6172C151.93 38.4284 152.106 38.1712 152.217 37.8457C152.334 37.5137 152.399 37.1328 152.412 36.7031V34.8574C152.406 34.4993 152.363 34.1771 152.285 33.8906C152.213 33.6042 152.113 33.36 151.982 33.1582C151.852 32.9564 151.683 32.8001 151.475 32.6895C151.273 32.5788 151.035 32.5234 150.762 32.5234C150.482 32.5234 150.241 32.5788 150.039 32.6895C149.837 32.8001 149.668 32.9727 149.531 33.207C149.401 33.4349 149.3 33.7311 149.228 34.0957C149.163 34.4538 149.131 34.8835 149.131 35.3848ZM160.522 38.8906L162.221 30.4336H165.073L162.172 41H160.463L160.522 38.8906ZM159.516 30.4336L161.244 38.9004L161.274 41H159.555L156.655 30.4336H159.516ZM169.862 30.4336V41H167.118V30.4336H169.862ZM166.991 27.6992C166.991 27.276 167.124 26.9277 167.391 26.6543C167.665 26.3743 168.029 26.2344 168.485 26.2344C168.947 26.2344 169.312 26.3743 169.579 26.6543C169.846 26.9277 169.979 27.276 169.979 27.6992C169.979 28.1159 169.843 28.4642 169.569 28.7441C169.302 29.0176 168.944 29.1543 168.495 29.1543C168.033 29.1543 167.665 29.0176 167.391 28.7441C167.124 28.4642 166.991 28.1159 166.991 27.6992ZM175.316 32.6895V41H172.571V30.4336H175.14L175.316 32.6895ZM174.905 35.3555L174.173 35.375C174.16 34.5807 174.235 33.8678 174.398 33.2363C174.567 32.6048 174.805 32.0677 175.11 31.625C175.423 31.1758 175.794 30.834 176.224 30.5996C176.66 30.3587 177.145 30.2383 177.679 30.2383C178.089 30.2383 178.463 30.3099 178.802 30.4531C179.147 30.5964 179.443 30.8242 179.691 31.1367C179.938 31.4492 180.13 31.8659 180.267 32.3867C180.403 32.901 180.472 33.5326 180.472 34.2812V41H177.728V34.2617C177.728 33.806 177.682 33.4544 177.591 33.207C177.5 32.9531 177.363 32.7773 177.181 32.6797C176.999 32.5755 176.771 32.5234 176.497 32.5234C176.237 32.5234 176.006 32.5983 175.804 32.748C175.602 32.8913 175.433 33.0898 175.296 33.3438C175.166 33.5977 175.065 33.8971 174.993 34.2422C174.928 34.5872 174.899 34.9583 174.905 35.3555ZM187.332 41.1953C186.609 41.1953 185.968 41.0846 185.408 40.8633C184.854 40.6419 184.386 40.3229 184.002 39.9062C183.617 39.4831 183.324 38.972 183.123 38.373C182.921 37.7741 182.82 37.0905 182.82 36.3223V35.4531C182.82 34.5938 182.918 33.8418 183.113 33.1973C183.308 32.5462 183.585 31.9993 183.943 31.5566C184.301 31.1139 184.74 30.7852 185.261 30.5703C185.789 30.349 186.384 30.2383 187.048 30.2383C187.712 30.2383 188.295 30.349 188.796 30.5703C189.304 30.7852 189.724 31.1107 190.056 31.5469C190.388 31.9766 190.639 32.5104 190.808 33.1484C190.977 33.7865 191.062 34.5286 191.062 35.375V36.625H183.982V34.7012H188.377V34.457C188.377 34.0273 188.331 33.6693 188.24 33.3828C188.149 33.0898 188.005 32.8717 187.81 32.7285C187.615 32.5853 187.354 32.5137 187.029 32.5137C186.755 32.5137 186.524 32.569 186.335 32.6797C186.147 32.7904 185.997 32.9629 185.886 33.1973C185.776 33.4316 185.694 33.7376 185.642 34.1152C185.59 34.4863 185.564 34.9323 185.564 35.4531V36.3223C185.564 36.8105 185.606 37.2207 185.691 37.5527C185.776 37.8783 185.899 38.1452 186.062 38.3535C186.231 38.5553 186.436 38.7018 186.677 38.793C186.918 38.8776 187.198 38.9199 187.517 38.9199C187.999 38.9199 188.432 38.8353 188.816 38.666C189.207 38.4902 189.539 38.2526 189.812 37.9531L190.906 39.6133C190.717 39.8607 190.457 40.1081 190.125 40.3555C189.793 40.6029 189.395 40.8047 188.933 40.9609C188.471 41.1172 187.937 41.1953 187.332 41.1953ZM195.978 32.7871V41H193.244V30.4336H195.822L195.978 32.7871ZM198.469 30.3555L198.43 33.0801C198.306 33.054 198.156 33.0345 197.98 33.0215C197.811 33.0085 197.661 33.002 197.531 33.002C197.225 33.002 196.965 33.0508 196.75 33.1484C196.535 33.2396 196.356 33.3796 196.213 33.5684C196.076 33.7507 195.972 33.9785 195.9 34.252C195.829 34.5254 195.786 34.8346 195.773 35.1797L195.256 34.9844C195.256 34.2943 195.308 33.6628 195.412 33.0898C195.523 32.5104 195.686 32.0091 195.9 31.5859C196.115 31.1562 196.372 30.8242 196.672 30.5898C196.978 30.3555 197.323 30.2383 197.707 30.2383C197.837 30.2383 197.974 30.2513 198.117 30.2773C198.267 30.2969 198.384 30.3229 198.469 30.3555Z" fill="#FCFAEE"/>
<path d="M54.1956 99.2029H66.1426C70.3393 99.2029 74.3522 100.925 77.2442 103.966C77.4761 104.21 77.3032 104.613 76.9666 104.613H54.1956V99.2029Z" fill="#F99319"/>
<path d="M61.5693 21.1001L73.8928 22.9225C77.0174 23.3846 79.895 24.8866 82.0606 27.1859C82.4826 27.6339 82.165 28.3694 81.5495 28.3694H61.5693V21.1001Z" fill="#F99319"/>
<ellipse cx="54.0244" cy="27.8624" rx="13.8896" ry="13.8624" fill="#0A1E31"/>
<path d="M40.3059 27.0171C63.1365 28.4298 80.7106 47.7317 79.9824 70.5943L79.6917 79.7234C79.2448 93.7542 67.6863 104.866 53.6488 104.761L33.9613 104.613C33.9613 104.613 40.5599 92.5922 41.164 87.031C42.9558 70.5377 41.1535 48.5584 40.3059 36.315C39.9256 30.8207 40.3059 27.0171 40.3059 27.0171Z" fill="#0A1E31"/>
<path d="M33.6186 98.6957C40.1351 93.6241 41.5065 85.1714 41.5065 85.1714L50.7659 104.613C50.7659 104.613 24.3588 105.12 25.3877 103.598C26.4166 102.077 27.1021 103.767 33.6186 98.6957Z" fill="#0A1E31"/>
<path d="M53.3385 34.2864C66.5554 34.2864 78.167 43.476 79.7204 56.6012C80.26 61.1603 80.629 65.7835 80.6033 69.7876C80.578 73.7359 80.1611 78.3133 79.5869 82.8003C78.0044 95.1667 67.3347 104.014 54.8818 104.613C54.2791 77.1485 53.9412 61.7505 53.3385 34.2864Z" fill="#FFE6C8"/>
<path d="M40.4777 37.1487C40.4777 37.1487 49.2628 32.7864 55.3361 32.5959C74.4055 31.9978 72.7119 72.342 71.9129 83.191C71.7813 84.9785 71.7502 86.7597 71.4238 88.521C71.1373 90.0671 70.5382 91.8526 69.2858 92.6098C64.0608 95.769 59.7243 86.7488 57.5102 81.0427L40.4777 37.1487Z" fill="#0A1E31"/>
</svg>
