<svg width="59" height="91" viewBox="0 0 59 91" fill="none" xmlns="http://www.w3.org/2000/svg">
<path d="M29.1956 85.2029H41.1426C45.3393 85.2029 49.3522 86.9245 52.2442 89.9657C52.4761 90.2096 52.3032 90.6126 51.9666 90.6126H29.1956V85.2029Z" fill="#F99319"/>
<path d="M36.5693 7.1001L48.8928 8.92249C52.0174 9.38456 54.895 10.8866 57.0606 13.1859C57.4826 13.6339 57.165 14.3694 56.5495 14.3694H36.5693V7.1001Z" fill="#F99319"/>
<ellipse cx="29.0244" cy="13.8624" rx="13.8896" ry="13.8624" fill="#0A1E31"/>
<path d="M15.3059 13.0171C38.1365 14.4298 55.7106 33.7317 54.9824 56.5943L54.6917 65.7234C54.2448 79.7542 42.6863 90.8664 28.6488 90.7607L8.9613 90.6126C8.9613 90.6126 15.5599 78.5922 16.164 73.031C17.9558 56.5377 16.1535 34.5584 15.3059 22.315C14.9256 16.8207 15.3059 13.0171 15.3059 13.0171Z" fill="#0A1E31"/>
<path d="M8.61858 84.6957C15.1351 79.6241 16.5065 71.1714 16.5065 71.1714L25.7659 90.6125C25.7659 90.6125 -0.641159 91.1197 0.387701 89.5982C1.41656 88.0767 2.10209 89.7673 8.61858 84.6957Z" fill="#0A1E31"/>
<path d="M28.3385 20.2864C41.5554 20.2864 53.167 29.476 54.7204 42.6012C55.26 47.1603 55.629 51.7835 55.6033 55.7876C55.578 59.7359 55.1611 64.3133 54.5869 68.8003C53.0044 81.1667 42.3347 90.0137 29.8818 90.6126C29.2791 63.1485 28.9412 47.7505 28.3385 20.2864Z" fill="#FFE6C8"/>
<path d="M15.4777 23.1487C15.4777 23.1487 24.2628 18.7864 30.3361 18.5959C49.4055 17.9978 47.7119 58.342 46.9129 69.191C46.7813 70.9785 46.7502 72.7597 46.4238 74.521C46.1373 76.0671 45.5382 77.8526 44.2858 78.6098C39.0608 81.769 34.7243 72.7488 32.5102 67.0427L15.4777 23.1487Z" fill="#0A1E31"/>
</svg>
