<svg width="155" height="155" viewBox="0 0 155 155" fill="none" xmlns="http://www.w3.org/2000/svg">
<rect x="0.5" y="0.5" width="154" height="154" rx="77" fill="#002A12" fill-opacity="0.6" stroke="#002A12"/>
<g filter="url(#filter0_d_176_4395)">
<rect x="59.6552" y="45.9824" width="46.3041" height="54.0936" fill="#355E50"/>
<path d="M97.3042 45.9825C97.3042 38.8124 91.298 33 83.889 33C76.4799 33 70.4738 38.8124 70.4738 45.9825" stroke="#1F532A" stroke-width="2"/>
<path d="M51 50.7427L59.655 45.9824V100.292L51 107V50.7427Z" fill="#002A12"/>
<path d="M97.304 50.7427L105.959 45.9824V100.292L97.304 107V50.7427Z" fill="#002A12"/>
<path d="M89.082 50.7427C89.082 42.8557 83.0758 36.462 75.6668 36.462C68.2578 36.462 62.2516 42.8557 62.2516 50.7427" stroke="#013D19" stroke-opacity="0.75" stroke-width="2"/>
<rect x="51" y="50.7427" width="46.3041" height="56.2573" fill="#013D19"/>
</g>
<path d="M51.8647 72.522V75H44.1499V72.522H51.8647ZM44.9312 57.2266V75H41.9648V57.2266H44.9312ZM50.8271 64.624V67.0654H44.1499V64.624H50.8271ZM51.7915 57.2266V59.7168H44.1499V57.2266H51.7915ZM66.3667 57.2266V75H63.4614L57.187 62.6953V75H54.3184V57.2266H57.187L63.5103 69.6167V57.2266H66.3667ZM75.8149 57.2266V75H72.8608V57.2266H75.8149ZM80.3438 57.2266V59.7168H68.3809V57.2266H80.3438ZM82.6997 57.2266H88.0708C89.2427 57.2266 90.2355 57.43 91.0493 57.8369C91.8631 58.2438 92.4816 58.846 92.9048 59.6436C93.3361 60.4329 93.5518 61.4136 93.5518 62.5854C93.5518 63.4725 93.4175 64.2537 93.1489 64.9292C92.8885 65.6047 92.5101 66.1743 92.0137 66.6382C91.5173 67.0939 90.9191 67.4479 90.2192 67.7002L89.3525 68.1763H84.8115L84.7993 65.686H87.9976C88.5754 65.686 89.0555 65.5599 89.438 65.3076C89.8205 65.0553 90.1053 64.7054 90.2925 64.2578C90.4878 63.8102 90.5854 63.3016 90.5854 62.7319C90.5854 62.1216 90.5 61.5926 90.3291 61.145C90.1582 60.6893 89.8896 60.3394 89.5234 60.0952C89.1572 59.8429 88.673 59.7168 88.0708 59.7168H85.666V75H82.6997V57.2266ZM90.9761 75L87.5947 67.0166L90.6831 67.0044L94.1499 74.8413V75H90.9761ZM106.162 72.522V75H98.4468V72.522H106.162ZM99.228 57.2266V75H96.2617V57.2266H99.228ZM105.124 64.624V67.0654H98.4468V64.624H105.124ZM106.088 57.2266V59.7168H98.4468V57.2266H106.088ZM99.814 56.0669L102.207 52.3804H105.539L102.207 56.0669H99.814ZM115.085 57.2266L109.323 76.5259H107.126L112.9 57.2266H115.085ZM58.3955 94.4102C58.3955 94.0439 58.3548 93.7184 58.2734 93.4336C58.2002 93.1406 58.0578 92.8761 57.8462 92.6401C57.6346 92.4041 57.3335 92.1722 56.9429 91.9443C56.5604 91.7165 56.064 91.4845 55.4536 91.2485C54.7537 90.98 54.0986 90.687 53.4883 90.3696C52.8861 90.0441 52.353 89.6779 51.8892 89.271C51.4334 88.856 51.0754 88.3717 50.8149 87.8184C50.5545 87.265 50.4243 86.6221 50.4243 85.8896C50.4243 85.1654 50.5505 84.5062 50.8027 83.9121C51.0632 83.3099 51.4294 82.7931 51.9014 82.3618C52.3815 81.9224 52.9512 81.5846 53.6104 81.3486C54.2695 81.1045 54.9979 80.9824 55.7954 80.9824C56.9429 80.9824 57.9235 81.2266 58.7373 81.7148C59.5592 82.2031 60.1859 82.8582 60.6172 83.6802C61.0566 84.5021 61.2764 85.4136 61.2764 86.4146H58.3223C58.3223 85.8368 58.2327 85.3241 58.0537 84.8765C57.8747 84.4289 57.598 84.0789 57.2236 83.8267C56.8493 83.5744 56.3651 83.4482 55.771 83.4482C55.2257 83.4482 54.7741 83.554 54.416 83.7656C54.0661 83.9772 53.8057 84.2661 53.6348 84.6323C53.472 84.9985 53.3906 85.4176 53.3906 85.8896C53.3906 86.2152 53.4598 86.5122 53.5981 86.7808C53.7365 87.0412 53.9359 87.2812 54.1963 87.501C54.4567 87.7207 54.7741 87.9282 55.1484 88.1235C55.5228 88.3188 55.9541 88.506 56.4424 88.6851C57.2725 88.9862 57.9967 89.3198 58.6152 89.686C59.2337 90.0522 59.7424 90.4632 60.1411 90.9189C60.548 91.3665 60.8491 91.8752 61.0444 92.4448C61.2479 93.0145 61.3496 93.6615 61.3496 94.3857C61.3496 95.1182 61.2235 95.7855 60.9712 96.3877C60.7271 96.9818 60.369 97.4904 59.897 97.9136C59.425 98.3368 58.8553 98.6663 58.188 98.9023C57.5207 99.1302 56.772 99.2441 55.9419 99.2441C55.1769 99.2441 54.4404 99.1302 53.7324 98.9023C53.0326 98.6745 52.4059 98.3286 51.8525 97.8647C51.2992 97.3927 50.8597 96.8027 50.5342 96.0947C50.2168 95.3867 50.0581 94.5566 50.0581 93.6045H53.0244C53.0244 94.1742 53.0936 94.6624 53.2319 95.0693C53.3703 95.4681 53.5697 95.7977 53.8301 96.0581C54.0986 96.3104 54.4119 96.4976 54.77 96.6196C55.1362 96.7336 55.5431 96.7905 55.9907 96.7905C56.5441 96.7905 56.9958 96.6929 57.3457 96.4976C57.7038 96.2941 57.9683 96.0133 58.1392 95.6553C58.3101 95.2972 58.3955 94.8822 58.3955 94.4102ZM73.7642 88.624V91.1143H66.2812V88.624H73.7642ZM66.9771 81.2266V99H64.0107V81.2266H66.9771ZM76.0835 81.2266V99H73.1294V81.2266H76.0835ZM91.501 88.6606V91.688C91.501 92.9412 91.3545 94.0399 91.0615 94.9839C90.7767 95.9279 90.3617 96.7173 89.8164 97.3521C89.2793 97.9787 88.6283 98.4507 87.8633 98.7681C87.1064 99.0854 86.2601 99.2441 85.3242 99.2441C84.3965 99.2441 83.5501 99.0854 82.7852 98.7681C82.0283 98.4507 81.3732 97.9787 80.8198 97.3521C80.2746 96.7173 79.8514 95.9279 79.5503 94.9839C79.2573 94.0399 79.1108 92.9412 79.1108 91.688V88.6606C79.1108 87.3911 79.2573 86.2803 79.5503 85.3281C79.8433 84.3678 80.2624 83.5662 80.8076 82.9233C81.361 82.2804 82.0161 81.7962 82.7729 81.4707C83.5379 81.1452 84.3802 80.9824 85.2998 80.9824C86.2357 80.9824 87.082 81.1452 87.8389 81.4707C88.6038 81.7962 89.259 82.2804 89.8042 82.9233C90.3494 83.5662 90.7686 84.3678 91.0615 85.3281C91.3545 86.2803 91.501 87.3911 91.501 88.6606ZM88.5591 91.688V88.6362C88.5591 87.7329 88.4858 86.9598 88.3394 86.3169C88.201 85.6659 87.9935 85.1369 87.7168 84.73C87.4401 84.3149 87.0983 84.0098 86.6914 83.8145C86.2926 83.611 85.8288 83.5093 85.2998 83.5093C84.7871 83.5093 84.3273 83.611 83.9204 83.8145C83.5216 84.0098 83.1799 84.3149 82.895 84.73C82.6183 85.1369 82.4067 85.6659 82.2603 86.3169C82.1219 86.9598 82.0527 87.7329 82.0527 88.6362V91.688C82.0527 92.575 82.126 93.34 82.2725 93.9829C82.4189 94.6177 82.6305 95.1385 82.9072 95.5454C83.1921 95.9442 83.5379 96.2412 83.9448 96.4365C84.3517 96.6318 84.8115 96.7295 85.3242 96.7295C85.8451 96.7295 86.3089 96.6318 86.7158 96.4365C87.1227 96.2412 87.4604 95.9442 87.729 95.5454C88.0057 95.1385 88.2132 94.6177 88.3516 93.9829C88.4899 93.34 88.5591 92.575 88.5591 91.688ZM100.375 92.4082H96.6279V89.9302H100.375C100.986 89.9302 101.478 89.8 101.853 89.5396C102.235 89.2791 102.512 88.9211 102.683 88.4653C102.862 88.0096 102.951 87.4928 102.951 86.915C102.951 86.3617 102.862 85.8408 102.683 85.3525C102.512 84.8643 102.239 84.4696 101.865 84.1685C101.49 83.8674 100.994 83.7168 100.375 83.7168H97.458V99H94.5039V81.2266H100.375C101.547 81.2266 102.548 81.4707 103.378 81.959C104.208 82.4473 104.843 83.1187 105.283 83.9731C105.722 84.8195 105.942 85.792 105.942 86.8906C105.942 88.0381 105.722 89.0228 105.283 89.8447C104.843 90.6667 104.208 91.3014 103.378 91.749C102.548 92.1885 101.547 92.4082 100.375 92.4082Z" fill="#FCFAEE"/>
<defs>
<filter id="filter0_d_176_4395" x="42.7" y="27.7" width="71.5592" height="91.6" filterUnits="userSpaceOnUse" color-interpolation-filters="sRGB">
<feFlood flood-opacity="0" result="BackgroundImageFix"/>
<feColorMatrix in="SourceAlpha" type="matrix" values="0 0 0 0 0 0 0 0 0 0 0 0 0 0 0 0 0 0 127 0" result="hardAlpha"/>
<feOffset dy="4"/>
<feGaussianBlur stdDeviation="4.15"/>
<feComposite in2="hardAlpha" operator="out"/>
<feColorMatrix type="matrix" values="0 0 0 0 0 0 0 0 0 0 0 0 0 0 0 0 0 0 0.35 0"/>
<feBlend mode="normal" in2="BackgroundImageFix" result="effect1_dropShadow_176_4395"/>
<feBlend mode="normal" in="SourceGraphic" in2="effect1_dropShadow_176_4395" result="shape"/>
</filter>
</defs>
</svg>
