<svg width="151" height="117" viewBox="0 0 151 117" fill="none" xmlns="http://www.w3.org/2000/svg">
<g opacity="0.8" filter="url(#filter0_d_234_3694)">
<path d="M42.8759 82.2032L107.468 98.3756L115.901 108.246L38.2028 89.2891L42.8759 82.2032Z" fill="black"/>
<path d="M42.7276 52.241L108.491 64.1125L115.729 56.3718L34.9745 43.3212L42.7276 52.241Z" fill="black"/>
<path d="M115.728 56.3717L115.986 108.246L108.24 99.7597L108.062 64.1145L115.728 56.3717Z" fill="black"/>
<path d="M34.9769 43.291L38.1598 89.5473L43.5175 82.2002L42.7252 52.0272L34.9769 43.291Z" fill="black"/>
<rect x="87.646" y="59.6948" width="6.64814" height="35.3594" transform="rotate(1.17264 87.646 59.6948)" fill="black"/>
<path d="M70.6037 8.15174L78.2976 5.97325L83.8673 7.01561L86.8752 9.35481L75.5452 11.9795L68.963 22.4993L63.9482 37.7197L56.1903 36.2602L60.6015 19.5447L65.2725 12.0307L70.6037 8.15174Z" fill="black"/>
<path d="M48.0618 6.195L55.7557 4.01651L61.3254 5.05887L64.755 6.11184L67.1155 7.38905L53.0033 10.0228L46.4211 20.5425L42.8511 34.2576L35.3606 34.2949L35.9611 25.95L38.0596 17.5879L42.7306 10.0739L48.0618 6.195Z" fill="black"/>
<path d="M101.593 11.4935L109.286 9.31498L114.856 10.3573L117.864 12.6965L106.534 15.3212L99.9519 25.841L94.6825 42.1376L86.7576 40.893L91.5904 22.8864L96.2614 15.3724L101.593 11.4935Z" fill="black"/>
<rect x="69.3248" y="55.5327" width="6.64814" height="35.3594" transform="rotate(1.17264 69.3248 55.5327)" fill="black"/>
<rect x="53.9093" y="54.3257" width="6.64814" height="35.3594" transform="rotate(1.17264 53.9093 54.3257)" fill="black"/>
<path d="M146.896 40.8071L142.808 36.3331L120.785 46.7157L118.698 54.7891L146.896 40.8071Z" fill="black"/>
<path d="M146.624 24.1151L142.491 15.5749L136.049 11.3266L128.557 10.9358L122.786 12.4627L117.036 18.2699L112.579 25.7828L109.412 34.3594L107.751 44.6406L120.602 46.7168L122.885 32.3661L127.122 23.5702L132.234 18.8363L138.016 19.4495L141.249 24.1419L142.6 37.4044L146.705 40.3803L146.624 24.1151Z" fill="black"/>
<path d="M142.884 51.1609L146.265 42.5219L144.992 87.6865L141.757 82.7802L142.884 51.1609Z" fill="black"/>
<path d="M118.256 107.81L122.56 96.1456L141.753 82.3527L144.99 87.6872L118.256 107.81Z" fill="black"/>
<path d="M117.868 56.3613L122.394 62.5454L142.886 51.7423L146.477 42.3075L117.868 56.3613Z" fill="black"/>
<path d="M117.944 56.4849L122.517 62.5037L122.692 97.6739L118.266 107.761L117.944 56.4849Z" fill="black"/>
<rect x="60.7076" y="5.92285" width="74.9061" height="2.14018" transform="rotate(5.95116 60.7076 5.92285)" fill="black"/>
<path d="M35.2684 32.0137L121.245 46.713L118.718 54.8584L34.8278 41.0111L35.2684 32.0137Z" fill="black"/>
<path d="M68.8173 39.6978L76.4803 40.6418L76.517 48.0083L68.8527 46.8187L68.8173 39.6978Z" fill="#4C5146"/>
<path d="M71.1672 49.4061L71.1295 41.832L74.6739 42.208L74.7117 49.7821L71.1672 49.4061Z" fill="#6A6A6A" stroke="black"/>
<path d="M75.6368 11.8306L82.7337 10.3744L89.3664 10.8149L100.74 12.1791L96.4939 15.5155L91.7934 22.6431L87.1494 41.137L63.9243 37.4638L68.5847 22.2851L75.6368 11.8306Z" fill="#383737" fill-opacity="0.89"/>
<path d="M52.8955 10.0495L55.7347 9.56176L61.8844 8.1103L69.4667 9.01975L65.2208 12.3562L60.9938 19.4814L56.3381 35.6072L42.5943 33.7813L46.317 20.5017L52.8955 10.0495Z" fill="#383737" fill-opacity="0.89"/>
<path d="M105.032 17.8414L106.441 15.4663L109.278 14.505L114.009 13.5342L121.115 13.9724L117.355 19.6745L112.657 27.2756L108.006 44.3487L101.371 43.4345L97.1034 42.5086L94.2595 42.0491L98.9247 27.8176L101.74 22.5939L105.032 17.8414Z" fill="#383737" fill-opacity="0.89"/>
<path d="M42.6853 52.2515L54.0611 54.0892L53.2672 84.8778L42.8363 82.5617L42.6853 52.2515Z" fill="#383737" fill-opacity="0.89"/>
<path d="M60.223 55.0059L69.2308 56.8555L68.9176 89.0625L59.9075 86.7393L60.223 55.0059Z" fill="#383737" fill-opacity="0.89"/>
<path d="M75.8685 58.2433L87.7178 60.0787L86.9358 93.2352L75.0817 90.4526L75.8685 58.2433Z" fill="#383737" fill-opacity="0.89"/>
<path d="M93.8805 61.4688L108.1 63.766L108.277 99.2858L93.5744 95.0966L93.8805 61.4688Z" fill="#383737" fill-opacity="0.89"/>
<path d="M122.303 62.4731L143.086 51.278L141.82 82.5425L122.471 96.3735L122.303 62.4731Z" fill="#383737" fill-opacity="0.89"/>
<path d="M122.628 32.4354L127.319 23.4135L132.031 18.6539L138.19 19.0968L141.531 24.2899L142.54 36.5987L120.333 47.1287L122.628 32.4354Z" fill="#383737" fill-opacity="0.89"/>
</g>
<g filter="url(#filter1_d_234_3694)">
<ellipse cx="20.6555" cy="68.8444" rx="15.5456" ry="4.44159" fill="#CE9732" fill-opacity="0.69"/>
<path d="M4 71.3827L9.21358 74.238L12.2804 74.8725L15.8072 75.0311H22.7076L28.0745 74.7139L33.1347 73.6035L36.2015 71.0654V74.238L30.0679 77.8864L27.3078 81.059H22.7076H13.2004L6.60679 79.6314L4 77.4106V71.3827Z" fill="#CE9732" fill-opacity="0.69"/>
<path d="M4 79.9487L7.59706 82.3282L14.0092 83.4386H26.2079L24.9568 86.6111L24.4876 89.9423H14.4784L7.59706 88.6733L4 85.818V79.9487Z" fill="#CE9732" fill-opacity="0.69"/>
<path d="M4 87.7207L7.56692 90.0608L13.9253 91.1528H24.3159L24.7812 94.273L25.7117 97.5491H14.3906L7.56692 96.301L4 93.4929V87.7207Z" fill="#CE9732" fill-opacity="0.69"/>
<path d="M4 96.7691L7.56692 99.1092L13.9253 100.201H26.6422L28.5032 102.541L31.7599 105.349L25.0913 106.597H14.3906L7.56692 105.349L4 102.541V96.7691Z" fill="#CE9732" fill-opacity="0.69"/>
<ellipse cx="42.8641" cy="91.6076" rx="16.656" ry="16.1008" fill="#CE9732" fill-opacity="0.69"/>
<circle cx="42.8645" cy="92.1627" r="14.4352" fill="#4A4E44"/>
<ellipse cx="42.8642" cy="91.6079" rx="12.2144" ry="11.6592" fill="#C49954"/>
</g>
<defs>
<filter id="filter0_d_234_3694" x="30.8278" y="4.0166" width="120.068" height="112.23" filterUnits="userSpaceOnUse" color-interpolation-filters="sRGB">
<feFlood flood-opacity="0" result="BackgroundImageFix"/>
<feColorMatrix in="SourceAlpha" type="matrix" values="0 0 0 0 0 0 0 0 0 0 0 0 0 0 0 0 0 0 127 0" result="hardAlpha"/>
<feOffset dy="4"/>
<feGaussianBlur stdDeviation="2"/>
<feComposite in2="hardAlpha" operator="out"/>
<feColorMatrix type="matrix" values="0 0 0 0 0 0 0 0 0 0 0 0 0 0 0 0 0 0 0.25 0"/>
<feBlend mode="normal" in2="BackgroundImageFix" result="effect1_dropShadow_234_3694"/>
<feBlend mode="normal" in="SourceGraphic" in2="effect1_dropShadow_234_3694" result="shape"/>
</filter>
<filter id="filter1_d_234_3694" x="0" y="64.4028" width="63.52" height="51.3057" filterUnits="userSpaceOnUse" color-interpolation-filters="sRGB">
<feFlood flood-opacity="0" result="BackgroundImageFix"/>
<feColorMatrix in="SourceAlpha" type="matrix" values="0 0 0 0 0 0 0 0 0 0 0 0 0 0 0 0 0 0 127 0" result="hardAlpha"/>
<feOffset dy="4"/>
<feGaussianBlur stdDeviation="2"/>
<feComposite in2="hardAlpha" operator="out"/>
<feColorMatrix type="matrix" values="0 0 0 0 0 0 0 0 0 0 0 0 0 0 0 0 0 0 0.25 0"/>
<feBlend mode="normal" in2="BackgroundImageFix" result="effect1_dropShadow_234_3694"/>
<feBlend mode="normal" in="SourceGraphic" in2="effect1_dropShadow_234_3694" result="shape"/>
</filter>
</defs>
</svg>
