<svg width="143" height="128" viewBox="0 0 143 128" fill="none" xmlns="http://www.w3.org/2000/svg">
<g opacity="0.8" filter="url(#filter0_d_564_2623)">
<path d="M31.4365 58.0167L77.0234 69.4307L82.9757 76.3972L28.1384 63.0178L31.4365 58.0167Z" fill="black"/>
<path d="M31.3317 36.8705L77.7456 45.2491L82.854 39.7859L25.8598 30.5752L31.3317 36.8705Z" fill="black"/>
<path d="M82.8527 39.7855L83.0349 76.397L77.5675 70.4075L77.4422 45.2502L82.8527 39.7855Z" fill="black"/>
<path d="M25.8613 30.5536L28.1077 63.2L31.889 58.0146L31.3298 36.7194L25.8613 30.5536Z" fill="black"/>
<rect x="63.0342" y="42.1309" width="4.69206" height="24.9556" transform="rotate(1.17264 63.0342 42.1309)" fill="black"/>
<path d="M51.0064 5.75344L56.4366 4.21592L60.3675 4.95159L62.4904 6.60253L54.494 8.45496L49.8485 15.8795L46.3092 26.6216L40.8339 25.5916L43.9472 13.7942L47.2439 8.49107L51.0064 5.75344Z" fill="black"/>
<path d="M35.097 4.37244L40.5272 2.83493L44.4581 3.5706L46.8786 4.31375L48.5446 5.21517L38.5846 7.07396L33.9391 14.4985L31.4195 24.1782L26.1329 24.2046L26.5567 18.315L28.0378 12.4132L31.3345 7.11008L35.097 4.37244Z" fill="black"/>
<path d="M72.8772 8.11164L78.3073 6.57412L82.2383 7.30979L84.3612 8.96073L76.3648 10.8132L71.7192 18.2377L68.0003 29.7394L62.4071 28.861L65.8179 16.1524L69.1146 10.8493L72.8772 8.11164Z" fill="black"/>
<rect x="50.1035" y="39.1935" width="4.69206" height="24.9556" transform="rotate(1.17264 50.1035 39.1935)" fill="black"/>
<rect x="39.2236" y="38.3416" width="4.69206" height="24.9556" transform="rotate(1.17264 39.2236 38.3416)" fill="black"/>
<path d="M104.851 28.8006L101.966 25.643L86.4225 32.9707L84.9501 38.6687L104.851 28.8006Z" fill="black"/>
<path d="M104.659 17.0198L101.742 10.9924L97.1954 7.99406L91.9073 7.71829L87.8344 8.79593L83.7765 12.8945L80.6309 18.1969L78.3953 24.25L77.223 31.5062L86.2933 32.9715L87.9044 22.8431L90.8944 16.6352L94.503 13.2942L98.5834 13.727L100.866 17.0387L101.818 26.3991L104.716 28.4993L104.659 17.0198Z" fill="black"/>
<path d="M102.019 36.1081L104.405 30.0109L103.507 61.8868L101.224 58.424L102.019 36.1081Z" fill="black"/>
<path d="M84.6378 76.0894L87.6758 67.857L101.222 58.1223L103.506 61.8872L84.6378 76.0894Z" fill="black"/>
<path d="M84.3641 39.7781L87.5579 44.1427L102.021 36.5181L104.555 29.8594L84.3641 39.7781Z" fill="black"/>
<path d="M84.4181 39.8657L87.6453 44.1136L87.7689 68.9357L84.6454 76.0546L84.4181 39.8657Z" fill="black"/>
<rect x="44.0216" y="4.18042" width="52.8666" height="1.51047" transform="rotate(5.95116 44.0216 4.18042)" fill="black"/>
<path d="M26.0671 22.5944L86.7472 32.9687L84.9632 38.7175L25.7561 28.9445L26.0671 22.5944Z" fill="black"/>
<path d="M49.745 28.0175L55.1534 28.6838L55.1793 33.8829L49.77 33.0433L49.745 28.0175Z" fill="#4C5146"/>
<path d="M51.5503 34.7371L51.5251 29.6875L53.7323 29.9217L53.7575 34.9712L51.5503 34.7371Z" fill="#6A6A6A" stroke="black"/>
<path d="M54.559 8.34992L59.5678 7.32219L64.249 7.63313L72.276 8.59592L69.2794 10.9507L65.9619 15.9811L62.6843 29.0335L46.2927 26.4411L49.5819 15.7284L54.559 8.34992Z" fill="#383737" fill-opacity="0.89"/>
<path d="M38.5083 7.09285L40.5121 6.74861L44.8524 5.72421L50.2037 6.36607L47.2071 8.72082L44.2238 13.7496L40.9379 25.1308L31.238 23.842L33.8654 14.4697L38.5083 7.09285Z" fill="#383737" fill-opacity="0.89"/>
<path d="M75.3042 12.592L76.2986 10.9157L78.3008 10.2372L81.64 9.55208L86.6554 9.86135L84.0014 13.8857L80.6855 19.2503L77.4029 31.3L72.7201 30.6548L69.7085 30.0013L67.7013 29.6771L70.9939 19.6329L72.9811 15.9461L75.3042 12.592Z" fill="#383737" fill-opacity="0.89"/>
<path d="M31.3029 36.8778L39.3315 38.1748L38.7713 59.9045L31.4094 58.2699L31.3029 36.8778Z" fill="#383737" fill-opacity="0.89"/>
<path d="M43.6802 38.8218L50.0376 40.1271L49.8166 62.8579L43.4575 61.2182L43.6802 38.8218Z" fill="#383737" fill-opacity="0.89"/>
<path d="M54.7222 41.1065L63.0851 42.4018L62.5332 65.8027L54.1669 63.8389L54.7222 41.1065Z" fill="#383737" fill-opacity="0.89"/>
<path d="M67.4353 43.383L77.4712 45.0043L77.5961 70.0732L67.2193 67.1165L67.4353 43.383Z" fill="#383737" fill-opacity="0.89"/>
<path d="M87.4944 44.0917L102.162 36.1905L101.27 58.2561L87.6136 68.0176L87.4944 44.0917Z" fill="#383737" fill-opacity="0.89"/>
<path d="M87.7232 22.8921L91.0341 16.5247L94.3599 13.1655L98.7069 13.4781L101.065 17.1432L101.777 25.8304L86.1036 33.2622L87.7232 22.8921Z" fill="#383737" fill-opacity="0.89"/>
</g>
<path d="M15.127 87.4564C15.0155 86.8975 14.7521 86.4822 14.3369 86.2107C13.9273 85.9385 13.3416 85.8472 12.5798 85.9368C12.0945 85.9939 11.7037 86.0999 11.4072 86.2549C11.1158 86.4036 10.9083 86.5854 10.7848 86.8001C10.6614 87.0149 10.6117 87.2496 10.636 87.5041C10.6492 87.7143 10.7081 87.899 10.8127 88.0583C10.9222 88.2113 11.0809 88.3443 11.2887 88.4571C11.4958 88.5644 11.7552 88.654 12.0669 88.726C12.3786 88.7981 12.7454 88.8522 13.1673 88.8884L14.6251 89.0258C15.6083 89.1161 16.4609 89.2876 17.1828 89.5402C17.9048 89.7928 18.5096 90.1193 18.9972 90.5196C19.4841 90.9143 19.862 91.379 20.1309 91.9138C20.4054 92.4479 20.5843 93.0447 20.6676 93.7042C20.796 94.8448 20.6246 95.8432 20.1532 96.6996C19.6818 97.556 18.9456 98.2519 17.9445 98.7873C16.949 99.322 15.7176 99.6757 14.2505 99.8482C12.7438 100.025 11.4028 99.9572 10.2274 99.6435C9.0577 99.3291 8.10805 98.7458 7.37847 97.8933C6.65387 97.0346 6.20346 95.8804 6.02723 94.4309L10.4964 93.9052C10.587 94.4323 10.7721 94.8625 11.0516 95.1958C11.331 95.529 11.6962 95.7635 12.1469 95.8993C12.6033 96.0344 13.1306 96.0668 13.7288 95.9964C14.231 95.9374 14.6441 95.8258 14.9681 95.6619C15.292 95.4979 15.5285 95.2956 15.6776 95.0549C15.8266 94.8143 15.8874 94.5526 15.8598 94.2698C15.823 94.0052 15.7083 93.7841 15.5158 93.6065C15.3282 93.4226 15.0361 93.2739 14.6395 93.1604C14.2422 93.0412 13.7136 92.9489 13.0537 92.8835L11.2831 92.7142C9.7091 92.5618 8.43331 92.1484 7.45577 91.4739C6.48322 90.793 5.92011 89.7752 5.76645 88.4202C5.63137 87.3205 5.81164 86.3239 6.30723 85.4303C6.80781 84.5304 7.5585 83.7871 8.55929 83.2002C9.56573 82.6127 10.7546 82.2383 12.1258 82.077C13.5252 81.9124 14.7632 82.0042 15.8396 82.3524C16.9161 82.7007 17.781 83.2683 18.4342 84.0553C19.0924 84.8361 19.491 85.7932 19.6301 86.9268L15.127 87.4564ZM26.3962 98.2136L24.3571 80.8786L29.0633 80.325L29.8877 87.3335L30.1247 87.3056L34.5143 79.6838L39.9993 79.0386L35.0499 87.4471L42.1737 96.3577L36.5534 97.0189L31.8951 90.9762L30.5767 93.1909L31.1024 97.66L26.3962 98.2136ZM51.275 95.2872L46.1964 95.8846L49.8792 77.8765L56.3121 77.1198L64.0731 93.7818L58.9945 94.3792L53.7249 82.2641L53.5895 82.28L51.275 95.2872ZM49.5225 88.5595L59.0703 87.4364L59.4845 90.9576L49.9367 92.0807L49.5225 88.5595ZM64.8246 79.963L64.3786 76.171L79.4452 74.3987L79.8912 78.1908L74.6772 78.8041L76.2702 92.3471L71.6317 92.8927L70.0387 79.3497L64.8246 79.963ZM84.5254 77.6457L84.0793 73.8536L99.1459 72.0814L99.592 75.8734L94.3779 76.4868L95.9709 90.0298L91.3325 90.5754L89.7394 77.0324L84.5254 77.6457ZM106.293 88.8156L104.254 71.4806L116.747 70.011L117.194 73.803L109.406 74.719L109.757 77.6985L116.901 76.8582L117.347 80.6502L110.203 81.4905L110.553 84.47L118.307 83.558L118.753 87.35L106.293 88.8156ZM131.831 75.2393L132.245 78.7605L124.119 79.7163L123.705 76.1951L131.831 75.2393ZM42.9605 102.856L47.599 102.31L48.9969 114.194C49.124 115.323 48.9558 116.35 48.4924 117.274C48.034 118.192 47.3393 118.949 46.4082 119.545C45.4821 120.134 44.3785 120.504 43.0976 120.655C41.9859 120.786 40.9477 120.713 39.9827 120.438C39.0171 120.157 38.2119 119.633 37.5669 118.868C36.9213 118.097 36.523 117.046 36.372 115.713L41.0782 115.16C41.1463 115.592 41.2628 115.951 41.4277 116.234C41.5983 116.518 41.8111 116.721 42.066 116.846C42.3259 116.964 42.628 117.003 42.9722 116.962C43.3221 116.921 43.6065 116.811 43.8256 116.63C44.0503 116.449 44.2072 116.202 44.2961 115.888C44.3844 115.569 44.4052 115.186 44.3584 114.74L42.9605 102.856ZM59.7085 118.461L54.6299 119.058L58.3127 101.05L64.7456 100.293L72.5066 116.955L67.428 117.553L62.1584 105.438L62.023 105.453L59.7085 118.461ZM57.956 111.733L67.5038 110.61L67.918 114.131L58.3702 115.254L57.956 111.733ZM86.5901 103.525C86.4816 103.234 86.335 102.986 86.1505 102.778C85.9653 102.566 85.7449 102.394 85.4893 102.264C85.2387 102.128 84.9535 102.038 84.6339 101.996C84.3192 101.947 83.9785 101.944 83.6117 101.987C82.8217 102.08 82.1696 102.349 81.6554 102.792C81.1469 103.235 80.7877 103.83 80.5779 104.575C80.3737 105.32 80.3307 106.195 80.4489 107.199C80.5684 108.215 80.8088 109.068 81.1703 109.757C81.5318 110.447 82.0087 110.952 82.6012 111.271C83.1937 111.59 83.8963 111.702 84.7089 111.607C85.4255 111.522 86.0086 111.348 86.458 111.084C86.9131 110.818 87.2366 110.48 87.4284 110.068C87.6203 109.657 87.6857 109.191 87.6246 108.672L88.4472 108.661L84.4859 109.127L84.0916 105.775L91.7772 104.871L92.06 107.275C92.2458 108.855 92.0691 110.246 91.5296 111.448C90.9952 112.644 90.1763 113.61 89.0729 114.346C87.9745 115.076 86.6692 115.53 85.1569 115.708C83.4697 115.906 81.9462 115.722 80.5867 115.155C79.2271 114.589 78.1109 113.684 77.2383 112.443C76.3713 111.2 75.8303 109.665 75.6152 107.836C75.4466 106.403 75.5145 105.108 75.819 103.951C76.129 102.793 76.6286 101.787 77.3177 100.934C78.0062 100.075 78.8382 99.3908 79.8137 98.8813C80.7886 98.3661 81.8601 98.0399 83.0282 97.9025C84.0552 97.7817 85.0261 97.8162 85.9409 98.0061C86.8607 98.1897 87.6907 98.5097 88.4309 98.9661C89.1761 99.4162 89.8003 99.9807 90.3035 100.659C90.8067 101.338 91.1546 102.107 91.3471 102.965L86.5901 103.525ZM95.6124 100.507L95.1664 96.715L110.233 94.9427L110.679 98.7348L105.465 99.3481L107.058 112.891L102.42 113.437L100.826 99.8937L95.6124 100.507Z" fill="black"/>
<g filter="url(#filter1_d_564_2623)">
<ellipse cx="15.7552" cy="48.5884" rx="10.9716" ry="3.13474" fill="#CE9732" fill-opacity="0.69"/>
<path d="M3.99988 50.3797L7.67947 52.3949L9.84394 52.8427L12.3331 52.9546H17.2031L20.9909 52.7307L24.5623 51.947L26.7268 50.1558V52.3949L22.3978 54.9698L20.4498 57.2089H17.2031H10.4933L5.83967 56.2013L3.99988 54.634V50.3797Z" fill="#CE9732" fill-opacity="0.69"/>
<path d="M3.99988 56.4252L6.53858 58.1046L11.0641 58.8882H19.6736L18.7906 61.1273L18.4594 63.4784H11.3952L6.53858 62.5828L3.99988 60.5676V56.4252Z" fill="#CE9732" fill-opacity="0.69"/>
<path d="M3.99988 61.9111L6.51731 63.5626L11.0049 64.3334H18.3383L18.6666 66.5355L19.3233 68.8477H11.3333L6.51731 67.9668L3.99988 65.9849V61.9111Z" fill="#CE9732" fill-opacity="0.69"/>
<path d="M3.99988 68.2971L6.51731 69.9487L11.0049 70.7194H19.9801L21.2935 72.371L23.592 74.3529L18.8855 75.2337H11.3333L6.51731 74.3529L3.99988 72.371V68.2971Z" fill="#CE9732" fill-opacity="0.69"/>
<ellipse cx="31.4289" cy="64.654" rx="11.7553" ry="11.3634" fill="#CE9732" fill-opacity="0.69"/>
<circle cx="31.4289" cy="65.0458" r="10.1879" fill="#4A4E44"/>
<ellipse cx="31.4289" cy="64.6539" rx="8.62055" ry="8.2287" fill="#C49954"/>
</g>
<defs>
<filter id="filter0_d_564_2623" x="21.7561" y="2.8349" width="87.0952" height="81.5623" filterUnits="userSpaceOnUse" color-interpolation-filters="sRGB">
<feFlood flood-opacity="0" result="BackgroundImageFix"/>
<feColorMatrix in="SourceAlpha" type="matrix" values="0 0 0 0 0 0 0 0 0 0 0 0 0 0 0 0 0 0 127 0" result="hardAlpha"/>
<feOffset dy="4"/>
<feGaussianBlur stdDeviation="2"/>
<feComposite in2="hardAlpha" operator="out"/>
<feColorMatrix type="matrix" values="0 0 0 0 0 0 0 0 0 0 0 0 0 0 0 0 0 0 0.25 0"/>
<feBlend mode="normal" in2="BackgroundImageFix" result="effect1_dropShadow_564_2623"/>
<feBlend mode="normal" in="SourceGraphic" in2="effect1_dropShadow_564_2623" result="shape"/>
</filter>
<filter id="filter1_d_564_2623" x="-0.00012207" y="45.4536" width="47.1843" height="38.5638" filterUnits="userSpaceOnUse" color-interpolation-filters="sRGB">
<feFlood flood-opacity="0" result="BackgroundImageFix"/>
<feColorMatrix in="SourceAlpha" type="matrix" values="0 0 0 0 0 0 0 0 0 0 0 0 0 0 0 0 0 0 127 0" result="hardAlpha"/>
<feOffset dy="4"/>
<feGaussianBlur stdDeviation="2"/>
<feComposite in2="hardAlpha" operator="out"/>
<feColorMatrix type="matrix" values="0 0 0 0 0 0 0 0 0 0 0 0 0 0 0 0 0 0 0.25 0"/>
<feBlend mode="normal" in2="BackgroundImageFix" result="effect1_dropShadow_564_2623"/>
<feBlend mode="normal" in="SourceGraphic" in2="effect1_dropShadow_564_2623" result="shape"/>
</filter>
</defs>
</svg>
