<svg width="120" height="127" viewBox="0 0 120 127" fill="none" xmlns="http://www.w3.org/2000/svg">
<g opacity="0.8" filter="url(#filter0_d_195_1203)">
<path d="M31.4365 58.0167L77.0234 69.4307L82.9757 76.3972L28.1384 63.0178L31.4365 58.0167Z" fill="black"/>
<path d="M31.3317 36.8705L77.7456 45.2491L82.854 39.7859L25.8598 30.5752L31.3317 36.8705Z" fill="black"/>
<path d="M82.8527 39.7855L83.0349 76.397L77.5675 70.4075L77.4422 45.2502L82.8527 39.7855Z" fill="black"/>
<path d="M25.8613 30.5536L28.1077 63.2L31.889 58.0146L31.3298 36.7194L25.8613 30.5536Z" fill="black"/>
<rect x="63.0342" y="42.1309" width="4.69206" height="24.9556" transform="rotate(1.17264 63.0342 42.1309)" fill="black"/>
<path d="M51.0064 5.75344L56.4366 4.21592L60.3675 4.95159L62.4904 6.60253L54.494 8.45496L49.8485 15.8795L46.3092 26.6216L40.8339 25.5916L43.9472 13.7942L47.2439 8.49107L51.0064 5.75344Z" fill="black"/>
<path d="M35.097 4.37244L40.5272 2.83493L44.4581 3.5706L46.8786 4.31375L48.5446 5.21517L38.5846 7.07396L33.9391 14.4985L31.4195 24.1782L26.1329 24.2046L26.5567 18.315L28.0378 12.4132L31.3345 7.11008L35.097 4.37244Z" fill="black"/>
<path d="M72.8772 8.11164L78.3073 6.57412L82.2383 7.30979L84.3612 8.96073L76.3648 10.8132L71.7192 18.2377L68.0003 29.7394L62.4071 28.861L65.8179 16.1524L69.1146 10.8493L72.8772 8.11164Z" fill="black"/>
<rect x="50.1035" y="39.1935" width="4.69206" height="24.9556" transform="rotate(1.17264 50.1035 39.1935)" fill="black"/>
<rect x="39.2236" y="38.3416" width="4.69206" height="24.9556" transform="rotate(1.17264 39.2236 38.3416)" fill="black"/>
<path d="M104.851 28.8006L101.966 25.643L86.4225 32.9707L84.9501 38.6687L104.851 28.8006Z" fill="black"/>
<path d="M104.659 17.0198L101.742 10.9924L97.1954 7.99406L91.9073 7.71829L87.8344 8.79593L83.7765 12.8945L80.6309 18.1969L78.3953 24.25L77.223 31.5062L86.2933 32.9715L87.9044 22.8431L90.8944 16.6352L94.503 13.2942L98.5834 13.727L100.866 17.0387L101.818 26.3991L104.716 28.4993L104.659 17.0198Z" fill="black"/>
<path d="M102.019 36.1081L104.405 30.0109L103.507 61.8868L101.224 58.424L102.019 36.1081Z" fill="black"/>
<path d="M84.6378 76.0894L87.6758 67.857L101.222 58.1223L103.506 61.8872L84.6378 76.0894Z" fill="black"/>
<path d="M84.3641 39.7781L87.5579 44.1427L102.021 36.5181L104.555 29.8594L84.3641 39.7781Z" fill="black"/>
<path d="M84.4181 39.8657L87.6453 44.1136L87.7689 68.9357L84.6454 76.0546L84.4181 39.8657Z" fill="black"/>
<rect x="44.0216" y="4.18042" width="52.8666" height="1.51047" transform="rotate(5.95116 44.0216 4.18042)" fill="black"/>
<path d="M26.0671 22.5944L86.7472 32.9687L84.9632 38.7175L25.7561 28.9445L26.0671 22.5944Z" fill="black"/>
<path d="M49.745 28.0175L55.1534 28.6838L55.1793 33.8829L49.77 33.0433L49.745 28.0175Z" fill="#4C5146"/>
<path d="M51.5503 34.7371L51.5251 29.6875L53.7323 29.9217L53.7575 34.9712L51.5503 34.7371Z" fill="#6A6A6A" stroke="black"/>
<path d="M54.559 8.34992L59.5678 7.32219L64.249 7.63313L72.276 8.59592L69.2794 10.9507L65.9619 15.9811L62.6843 29.0335L46.2927 26.4411L49.5819 15.7284L54.559 8.34992Z" fill="#383737" fill-opacity="0.89"/>
<path d="M38.5083 7.09285L40.5121 6.74861L44.8524 5.72421L50.2037 6.36607L47.2071 8.72082L44.2238 13.7496L40.9379 25.1308L31.238 23.842L33.8654 14.4697L38.5083 7.09285Z" fill="#383737" fill-opacity="0.89"/>
<path d="M75.3042 12.592L76.2986 10.9157L78.3008 10.2372L81.64 9.55208L86.6554 9.86135L84.0014 13.8857L80.6855 19.2503L77.4029 31.3L72.7201 30.6548L69.7085 30.0013L67.7013 29.6771L70.9939 19.6329L72.9811 15.9461L75.3042 12.592Z" fill="#383737" fill-opacity="0.89"/>
<path d="M31.3029 36.8778L39.3315 38.1748L38.7713 59.9045L31.4094 58.2699L31.3029 36.8778Z" fill="#383737" fill-opacity="0.89"/>
<path d="M43.6802 38.8218L50.0376 40.1271L49.8166 62.8579L43.4575 61.2182L43.6802 38.8218Z" fill="#383737" fill-opacity="0.89"/>
<path d="M54.7222 41.1065L63.0851 42.4018L62.5332 65.8027L54.1669 63.8389L54.7222 41.1065Z" fill="#383737" fill-opacity="0.89"/>
<path d="M67.4353 43.383L77.4712 45.0043L77.5961 70.0732L67.2193 67.1165L67.4353 43.383Z" fill="#383737" fill-opacity="0.89"/>
<path d="M87.4944 44.0917L102.162 36.1905L101.27 58.2561L87.6136 68.0176L87.4944 44.0917Z" fill="#383737" fill-opacity="0.89"/>
<path d="M87.7232 22.8921L91.0341 16.5247L94.3599 13.1655L98.7069 13.4781L101.065 17.1432L101.777 25.8304L86.1036 33.2622L87.7232 22.8921Z" fill="#383737" fill-opacity="0.89"/>
</g>
<mask id="path-30-outside-1_195_1203" maskUnits="userSpaceOnUse" x="19.8237" y="75.1772" width="96.452" height="45.6247" fill="black">
<rect fill="white" x="19.8237" y="75.1772" width="96.452" height="45.6247"/>
<path d="M29.554 90.2819C29.4156 89.6889 29.0815 89.2562 28.5517 88.9839C28.0215 88.7073 27.3839 88.6128 26.6391 88.7004C26.1058 88.7631 25.6544 88.902 25.285 89.1171C24.915 89.328 24.6393 89.5921 24.4578 89.9095C24.2801 90.2222 24.2129 90.5626 24.2562 90.9308C24.2925 91.2398 24.3958 91.4979 24.5661 91.7053C24.7406 91.9122 24.9553 92.0779 25.2102 92.2024C25.4689 92.3221 25.7418 92.4166 26.0288 92.4858C26.3153 92.5508 26.5893 92.6001 26.8507 92.6337L28.1592 92.8145C28.5859 92.8673 29.0274 92.9548 29.4837 93.077C29.9401 93.1993 30.3711 93.3803 30.7769 93.62C31.1827 93.8598 31.5245 94.1757 31.8023 94.5678C32.0844 94.9594 32.2597 95.4472 32.3284 96.0313C32.4151 96.7677 32.3015 97.4439 31.9878 98.0601C31.6784 98.6757 31.1833 99.1909 30.5027 99.6057C29.8263 100.02 28.9802 100.287 27.9645 100.406C26.9911 100.521 26.1307 100.465 25.3834 100.24C24.636 100.015 24.028 99.6421 23.5592 99.1223C23.0899 98.5983 22.7881 97.9472 22.6537 97.1693L24.6216 96.9378C24.715 97.4031 24.9134 97.7766 25.2169 98.0584C25.5241 98.3355 25.8961 98.5256 26.333 98.6287C26.7737 98.727 27.2458 98.7466 27.7494 98.6874C28.3038 98.6221 28.7867 98.4774 29.198 98.2531C29.613 98.0241 29.9269 97.7383 30.1398 97.3957C30.3521 97.0489 30.4334 96.6639 30.3836 96.2407C30.3383 95.8556 30.1912 95.5532 29.9423 95.3336C29.6975 95.1136 29.3795 94.945 28.9882 94.828C28.601 94.7105 28.1675 94.6177 27.6875 94.5498L26.1019 94.3115C25.0275 94.1504 24.1532 93.8306 23.479 93.3521C22.8091 92.8731 22.4209 92.1808 22.3143 91.2751C22.2262 90.526 22.3525 89.8482 22.693 89.2418C23.0336 88.6353 23.5328 88.1368 24.1905 87.7462C24.8477 87.3514 25.6123 87.1027 26.4841 87.0002C27.3644 86.8966 28.1592 86.9598 28.8684 87.1895C29.5819 87.4188 30.1652 87.7815 30.6183 88.2774C31.0709 88.7691 31.3467 89.3631 31.4458 90.0594L29.554 90.2819ZM37.5979 99.0543L36.0686 86.053L38.0303 85.8222L38.7606 92.0309L38.9193 92.0122L43.6421 85.1621L46.1116 84.8717L41.5564 91.3416L47.66 97.8707L45.2984 98.1485L40.4126 92.8341L39.0839 94.7797L39.5596 98.8235L37.5979 99.0543ZM53.0702 97.2343L50.988 97.4792L54.1374 83.9276L56.4037 83.661L62.6117 96.112L60.5294 96.3569L55.6023 86.1495L55.5007 86.1615L53.0702 97.2343ZM52.8205 92.1019L59.5751 91.3074L59.7692 92.9579L53.0146 93.7525L52.8205 92.1019ZM63.4838 84.5402L63.2852 82.8516L73.3472 81.668L73.5458 83.3567L69.4893 83.8338L70.8199 95.1465L68.8647 95.3765L67.534 84.0638L63.4838 84.5402ZM77.6309 82.8762L77.4322 81.1875L87.4943 80.0039L87.6929 81.6926L83.6363 82.1698L84.967 93.4824L83.0117 93.7124L81.6811 82.3997L77.6309 82.8762ZM93.7498 92.4493L92.2205 79.448L100.372 78.4892L100.57 80.1779L94.3807 80.9059L94.8467 84.8672L100.611 84.1892L100.809 85.8715L95.0446 86.5495L95.5128 90.5299L101.779 89.7929L101.977 91.4815L93.7498 92.4493ZM111.755 82.9041L111.949 84.5547L106.185 85.2327L105.991 83.5821L111.755 82.9041ZM49.4372 102.605L51.3924 102.375L52.4767 111.592C52.5748 112.426 52.4936 113.159 52.2332 113.79C51.977 114.421 51.5711 114.928 51.0154 115.31C50.4592 115.689 49.7833 115.925 48.9877 116.019C48.2555 116.105 47.5817 116.049 46.9663 115.851C46.3551 115.653 45.8504 115.319 45.4521 114.851C45.0575 114.379 44.8172 113.776 44.731 113.044L46.68 112.815C46.7223 113.175 46.8414 113.476 47.0373 113.719C47.2375 113.961 47.4923 114.139 47.8017 114.253C48.1149 114.362 48.4619 114.394 48.8428 114.35C49.2576 114.301 49.5986 114.173 49.866 113.965C50.1371 113.753 50.3287 113.467 50.4407 113.106C50.5528 112.745 50.5797 112.317 50.5214 111.822L49.4372 102.605ZM59.3779 114.616L57.2956 114.861L60.445 101.31L62.7114 101.043L68.9193 113.494L66.8371 113.739L61.9099 103.532L61.8084 103.544L59.3779 114.616ZM59.1282 109.484L65.8827 108.69L66.0769 110.34L59.3223 111.135L59.1282 109.484ZM80.4411 103.122C80.2731 102.751 80.0675 102.426 79.8242 102.145C79.5848 101.86 79.3105 101.627 79.0016 101.444C78.6921 101.257 78.3487 101.128 77.9713 101.057C77.5981 100.985 77.1957 100.974 76.764 101.025C76.0319 101.111 75.3938 101.377 74.8498 101.823C74.3059 102.269 73.9053 102.876 73.6481 103.644C73.3946 104.408 73.3297 105.314 73.4531 106.364C73.5771 107.418 73.8533 108.288 74.2817 108.976C74.7101 109.664 75.2449 110.161 75.8859 110.467C76.527 110.774 77.2284 110.882 77.9902 110.792C78.6969 110.709 79.2958 110.493 79.7867 110.143C80.2819 109.793 80.6425 109.339 80.8686 108.78C81.0984 108.217 81.1712 107.578 81.0871 106.862L81.6061 106.898L77.886 107.336L77.6956 105.717L82.806 105.116L82.98 106.595C83.1084 107.687 82.9872 108.662 82.6162 109.521C82.249 110.375 81.6826 111.068 80.9171 111.6C80.1558 112.132 79.2503 112.459 78.2007 112.583C77.0242 112.721 75.9597 112.572 75.0072 112.134C74.059 111.697 73.2788 111.01 72.6666 110.073C72.0539 109.133 71.667 107.977 71.5057 106.606C71.3837 105.569 71.4181 104.621 71.6088 103.762C71.7995 102.903 72.1213 102.155 72.5742 101.518C73.0307 100.876 73.5945 100.362 74.2654 99.9737C74.9401 99.5812 75.6985 99.3353 76.5407 99.2363C77.2433 99.1536 77.9094 99.1804 78.539 99.3166C79.1728 99.4523 79.7491 99.6827 80.2679 100.008C80.791 100.332 81.2399 100.739 81.6148 101.227C81.9893 101.71 82.2688 102.263 82.4535 102.885L80.4411 103.122ZM86.0684 100.008L85.8698 98.3191L95.9318 97.1356L96.1304 98.8242L92.0739 99.3014L93.4045 110.614L91.4493 110.844L90.1186 99.5314L86.0684 100.008Z"/>
</mask>
<path d="M29.554 90.2819C29.4156 89.6889 29.0815 89.2562 28.5517 88.9839C28.0215 88.7073 27.3839 88.6128 26.6391 88.7004C26.1058 88.7631 25.6544 88.902 25.285 89.1171C24.915 89.328 24.6393 89.5921 24.4578 89.9095C24.2801 90.2222 24.2129 90.5626 24.2562 90.9308C24.2925 91.2398 24.3958 91.4979 24.5661 91.7053C24.7406 91.9122 24.9553 92.0779 25.2102 92.2024C25.4689 92.3221 25.7418 92.4166 26.0288 92.4858C26.3153 92.5508 26.5893 92.6001 26.8507 92.6337L28.1592 92.8145C28.5859 92.8673 29.0274 92.9548 29.4837 93.077C29.9401 93.1993 30.3711 93.3803 30.7769 93.62C31.1827 93.8598 31.5245 94.1757 31.8023 94.5678C32.0844 94.9594 32.2597 95.4472 32.3284 96.0313C32.4151 96.7677 32.3015 97.4439 31.9878 98.0601C31.6784 98.6757 31.1833 99.1909 30.5027 99.6057C29.8263 100.02 28.9802 100.287 27.9645 100.406C26.9911 100.521 26.1307 100.465 25.3834 100.24C24.636 100.015 24.028 99.6421 23.5592 99.1223C23.0899 98.5983 22.7881 97.9472 22.6537 97.1693L24.6216 96.9378C24.715 97.4031 24.9134 97.7766 25.2169 98.0584C25.5241 98.3355 25.8961 98.5256 26.333 98.6287C26.7737 98.727 27.2458 98.7466 27.7494 98.6874C28.3038 98.6221 28.7867 98.4774 29.198 98.2531C29.613 98.0241 29.9269 97.7383 30.1398 97.3957C30.3521 97.0489 30.4334 96.6639 30.3836 96.2407C30.3383 95.8556 30.1912 95.5532 29.9423 95.3336C29.6975 95.1136 29.3795 94.945 28.9882 94.828C28.601 94.7105 28.1675 94.6177 27.6875 94.5498L26.1019 94.3115C25.0275 94.1504 24.1532 93.8306 23.479 93.3521C22.8091 92.8731 22.4209 92.1808 22.3143 91.2751C22.2262 90.526 22.3525 89.8482 22.693 89.2418C23.0336 88.6353 23.5328 88.1368 24.1905 87.7462C24.8477 87.3514 25.6123 87.1027 26.4841 87.0002C27.3644 86.8966 28.1592 86.9598 28.8684 87.1895C29.5819 87.4188 30.1652 87.7815 30.6183 88.2774C31.0709 88.7691 31.3467 89.3631 31.4458 90.0594L29.554 90.2819ZM37.5979 99.0543L36.0686 86.053L38.0303 85.8222L38.7606 92.0309L38.9193 92.0122L43.6421 85.1621L46.1116 84.8717L41.5564 91.3416L47.66 97.8707L45.2984 98.1485L40.4126 92.8341L39.0839 94.7797L39.5596 98.8235L37.5979 99.0543ZM53.0702 97.2343L50.988 97.4792L54.1374 83.9276L56.4037 83.661L62.6117 96.112L60.5294 96.3569L55.6023 86.1495L55.5007 86.1615L53.0702 97.2343ZM52.8205 92.1019L59.5751 91.3074L59.7692 92.9579L53.0146 93.7525L52.8205 92.1019ZM63.4838 84.5402L63.2852 82.8516L73.3472 81.668L73.5458 83.3567L69.4893 83.8338L70.8199 95.1465L68.8647 95.3765L67.534 84.0638L63.4838 84.5402ZM77.6309 82.8762L77.4322 81.1875L87.4943 80.0039L87.6929 81.6926L83.6363 82.1698L84.967 93.4824L83.0117 93.7124L81.6811 82.3997L77.6309 82.8762ZM93.7498 92.4493L92.2205 79.448L100.372 78.4892L100.57 80.1779L94.3807 80.9059L94.8467 84.8672L100.611 84.1892L100.809 85.8715L95.0446 86.5495L95.5128 90.5299L101.779 89.7929L101.977 91.4815L93.7498 92.4493ZM111.755 82.9041L111.949 84.5547L106.185 85.2327L105.991 83.5821L111.755 82.9041ZM49.4372 102.605L51.3924 102.375L52.4767 111.592C52.5748 112.426 52.4936 113.159 52.2332 113.79C51.977 114.421 51.5711 114.928 51.0154 115.31C50.4592 115.689 49.7833 115.925 48.9877 116.019C48.2555 116.105 47.5817 116.049 46.9663 115.851C46.3551 115.653 45.8504 115.319 45.4521 114.851C45.0575 114.379 44.8172 113.776 44.731 113.044L46.68 112.815C46.7223 113.175 46.8414 113.476 47.0373 113.719C47.2375 113.961 47.4923 114.139 47.8017 114.253C48.1149 114.362 48.4619 114.394 48.8428 114.35C49.2576 114.301 49.5986 114.173 49.866 113.965C50.1371 113.753 50.3287 113.467 50.4407 113.106C50.5528 112.745 50.5797 112.317 50.5214 111.822L49.4372 102.605ZM59.3779 114.616L57.2956 114.861L60.445 101.31L62.7114 101.043L68.9193 113.494L66.8371 113.739L61.9099 103.532L61.8084 103.544L59.3779 114.616ZM59.1282 109.484L65.8827 108.69L66.0769 110.34L59.3223 111.135L59.1282 109.484ZM80.4411 103.122C80.2731 102.751 80.0675 102.426 79.8242 102.145C79.5848 101.86 79.3105 101.627 79.0016 101.444C78.6921 101.257 78.3487 101.128 77.9713 101.057C77.5981 100.985 77.1957 100.974 76.764 101.025C76.0319 101.111 75.3938 101.377 74.8498 101.823C74.3059 102.269 73.9053 102.876 73.6481 103.644C73.3946 104.408 73.3297 105.314 73.4531 106.364C73.5771 107.418 73.8533 108.288 74.2817 108.976C74.7101 109.664 75.2449 110.161 75.8859 110.467C76.527 110.774 77.2284 110.882 77.9902 110.792C78.6969 110.709 79.2958 110.493 79.7867 110.143C80.2819 109.793 80.6425 109.339 80.8686 108.78C81.0984 108.217 81.1712 107.578 81.0871 106.862L81.6061 106.898L77.886 107.336L77.6956 105.717L82.806 105.116L82.98 106.595C83.1084 107.687 82.9872 108.662 82.6162 109.521C82.249 110.375 81.6826 111.068 80.9171 111.6C80.1558 112.132 79.2503 112.459 78.2007 112.583C77.0242 112.721 75.9597 112.572 75.0072 112.134C74.059 111.697 73.2788 111.01 72.6666 110.073C72.0539 109.133 71.667 107.977 71.5057 106.606C71.3837 105.569 71.4181 104.621 71.6088 103.762C71.7995 102.903 72.1213 102.155 72.5742 101.518C73.0307 100.876 73.5945 100.362 74.2654 99.9737C74.9401 99.5812 75.6985 99.3353 76.5407 99.2363C77.2433 99.1536 77.9094 99.1804 78.539 99.3166C79.1728 99.4523 79.7491 99.6827 80.2679 100.008C80.791 100.332 81.2399 100.739 81.6148 101.227C81.9893 101.71 82.2688 102.263 82.4535 102.885L80.4411 103.122ZM86.0684 100.008L85.8698 98.3191L95.9318 97.1356L96.1304 98.8242L92.0739 99.3014L93.4045 110.614L91.4493 110.844L90.1186 99.5314L86.0684 100.008Z" fill="black"/>
<path d="M29.554 90.2819L28.5802 90.5092L28.7833 91.3795L29.6708 91.2751L29.554 90.2819ZM28.5517 88.9839L28.0892 89.8705L28.0945 89.8732L28.5517 88.9839ZM25.285 89.1171L25.7802 89.9859L25.7881 89.9813L25.285 89.1171ZM24.4578 89.9095L23.5897 89.4131L23.5885 89.4153L24.4578 89.9095ZM24.5661 91.7053L23.7932 92.34L23.8017 92.3501L24.5661 91.7053ZM25.2102 92.2024L24.7715 93.101L24.7807 93.1055L24.7901 93.1098L25.2102 92.2024ZM26.0288 92.4858L25.7944 93.458L25.8076 93.461L26.0288 92.4858ZM26.8507 92.6337L26.9876 91.6431L26.9782 91.6419L26.8507 92.6337ZM28.1592 92.8145L28.0223 93.8051L28.0294 93.806L28.0364 93.8069L28.1592 92.8145ZM31.8023 94.5678L30.9863 95.1459L30.9909 95.1522L31.8023 94.5678ZM31.9878 98.0601L31.0967 97.6064L31.0944 97.611L31.9878 98.0601ZM30.5027 99.6057L29.9823 98.7517L29.9804 98.7529L30.5027 99.6057ZM25.3834 100.24L25.672 99.2826L25.3834 100.24ZM23.5592 99.1223L22.8142 99.7894L22.8166 99.792L23.5592 99.1223ZM22.6537 97.1693L22.5368 96.1761L21.4886 96.2994L21.6683 97.3395L22.6537 97.1693ZM24.6216 96.9378L25.6021 96.7411L25.4207 95.8369L24.5048 95.9446L24.6216 96.9378ZM25.2169 98.0584L24.5364 98.7912L24.5417 98.7961L24.5471 98.801L25.2169 98.0584ZM26.333 98.6287L26.1034 99.602L26.1152 99.6047L26.333 98.6287ZM29.198 98.2531L29.6768 99.131L29.6811 99.1286L29.198 98.2531ZM30.1398 97.3957L30.9891 97.9235L30.9926 97.9179L30.1398 97.3957ZM29.9423 95.3336L29.2735 96.0772L29.2808 96.0836L29.9423 95.3336ZM28.9882 94.828L28.6977 95.7849L28.7017 95.7861L28.9882 94.828ZM27.6875 94.5498L27.5389 95.5387L27.5473 95.5399L27.6875 94.5498ZM26.102 94.3115L26.2506 93.3226L26.2502 93.3225L26.102 94.3115ZM23.479 93.3521L22.8974 94.1656L22.9002 94.1676L23.479 93.3521ZM22.693 89.2418L21.8211 88.7521L21.8211 88.7521L22.693 89.2418ZM24.1905 87.7462L24.7011 88.6061L24.7055 88.6035L24.1905 87.7462ZM28.8684 87.1895L28.5602 88.1409L28.5625 88.1416L28.8684 87.1895ZM30.6183 88.2774L29.88 88.9519L29.8825 88.9546L30.6183 88.2774ZM31.4458 90.0594L31.5626 91.0525L32.5801 90.9329L32.4358 89.9185L31.4458 90.0594ZM30.5278 90.0546C30.3244 89.1831 29.8064 88.5045 29.009 88.0945L28.0945 89.8732C28.3566 90.008 28.5068 90.1947 28.5802 90.5092L30.5278 90.0546ZM29.0142 88.0972C28.2654 87.7066 27.4157 87.6021 26.5222 87.7072L26.7559 89.6935C27.3521 89.6234 27.7775 89.7079 28.0893 89.8705L29.0142 88.0972ZM26.5222 87.7072C25.8864 87.782 25.2961 87.9535 24.7819 88.2529L25.7881 89.9813C26.0128 89.8505 26.3251 89.7442 26.7559 89.6935L26.5222 87.7072ZM24.7898 88.2483C24.2904 88.533 23.8737 88.9165 23.5897 89.4131L25.3259 90.4059C25.405 90.2677 25.5397 90.123 25.7802 89.9859L24.7898 88.2483ZM23.5885 89.4153C23.302 89.9193 23.1956 90.4748 23.263 91.0476L25.2493 90.814C25.2301 90.6505 25.2582 90.5251 25.3272 90.4037L23.5885 89.4153ZM23.263 91.0476C23.3181 91.5158 23.4831 91.9622 23.7932 92.3399L25.3389 91.0707C25.3085 91.0337 25.2669 90.9638 25.2493 90.814L23.263 91.0476ZM23.8017 92.3501C24.0702 92.6684 24.3977 92.9184 24.7715 93.101L25.649 91.3038C25.513 91.2373 25.411 91.156 25.3305 91.0605L23.8017 92.3501ZM24.7901 93.1098C25.1105 93.2582 25.4458 93.3739 25.7944 93.4579L26.2632 91.5137C26.0378 91.4593 25.8273 91.3861 25.6304 91.2949L24.7901 93.1098ZM25.8076 93.461C26.1216 93.5323 26.427 93.5875 26.7232 93.6255L26.9782 91.6419C26.7516 91.6127 26.509 91.5693 26.25 91.5106L25.8076 93.461ZM26.7139 93.6243L28.0223 93.8051L28.296 91.8239L26.9876 91.6431L26.7139 93.6243ZM28.0364 93.8069C28.413 93.8535 28.809 93.9315 29.225 94.043L29.7425 92.1111C29.2458 91.978 28.7588 91.881 28.282 91.822L28.0364 93.8069ZM29.225 94.043C29.5938 94.1418 29.9408 94.2875 30.2682 94.481L31.2856 92.759C30.8015 92.473 30.2863 92.2568 29.7425 92.1111L29.225 94.043ZM30.2682 94.481C30.5504 94.6477 30.7883 94.8663 30.9864 95.1459L32.6183 93.9897C32.2607 93.485 31.815 93.0718 31.2856 92.759L30.2682 94.481ZM30.9909 95.1522C31.1541 95.3788 31.2821 95.6962 31.3353 96.1481L33.3216 95.9144C33.2374 95.1982 33.0147 94.54 32.6138 93.9833L30.9909 95.1522ZM31.3353 96.1481C31.4006 96.7033 31.3142 97.1791 31.0967 97.6064L32.879 98.5138C33.2888 97.7088 33.4295 96.832 33.3216 95.9144L31.3353 96.1481ZM31.0944 97.611C30.8814 98.0346 30.5287 98.4188 29.9823 98.7517L31.023 100.46C31.8379 99.9631 32.4753 99.3169 32.8813 98.5092L31.0944 97.611ZM29.9804 98.7529C29.4577 99.073 28.7597 99.3058 27.8477 99.4131L28.0813 101.399C29.2007 101.268 30.1949 100.967 31.0249 100.458L29.9804 98.7529ZM27.8477 99.4131C26.9768 99.5155 26.2591 99.4596 25.672 99.2826L25.0947 101.197C26.0023 101.471 27.0054 101.526 28.0813 101.399L27.8477 99.4131ZM25.672 99.2826C25.0787 99.1037 24.6347 98.8217 24.3018 98.4526L22.8166 99.792C23.4212 100.463 24.1933 100.926 25.0947 101.197L25.672 99.2826ZM24.3042 98.4552C23.9749 98.0876 23.7456 97.6154 23.6391 96.999L21.6683 97.3395C21.8306 98.2791 22.2049 99.109 22.8142 99.7894L24.3042 98.4552ZM22.7705 98.1624L24.7385 97.9309L24.5048 95.9446L22.5368 96.1761L22.7705 98.1624ZM23.6412 97.1345C23.7695 97.7743 24.0574 98.3464 24.5364 98.7912L25.8973 97.3257C25.7694 97.2069 25.6604 97.0318 25.6021 96.7411L23.6412 97.1345ZM24.5471 98.801C24.9897 99.2003 25.517 99.4636 26.1034 99.602L26.5626 97.6554C26.2752 97.5876 26.0584 97.4708 25.8866 97.3159L24.5471 98.801ZM26.1152 99.6047C26.6783 99.7304 27.2645 99.7513 27.8662 99.6805L27.6326 97.6942C27.2271 97.7419 26.8691 97.7237 26.5508 97.6527L26.1152 99.6047ZM27.8662 99.6805C28.5238 99.6032 29.134 99.427 29.6768 99.131L28.7192 97.3752C28.4394 97.5278 28.0839 97.6411 27.6326 97.6942L27.8662 99.6805ZM29.6811 99.1286C30.2196 98.8315 30.6713 98.435 30.9891 97.9235L29.2904 96.8679C29.1825 97.0415 29.0064 97.2166 28.7148 97.3776L29.6811 99.1286ZM30.9926 97.9179C31.3279 97.3703 31.4514 96.7583 31.3768 96.1239L29.3905 96.3575C29.4154 96.5695 29.3763 96.7276 29.287 96.8735L30.9926 97.9179ZM31.3768 96.1239C31.3078 95.5378 31.068 94.9932 30.6037 94.5837L29.2808 96.0836C29.3144 96.1133 29.3688 96.1734 29.3905 96.3575L31.3768 96.1239ZM30.6109 94.5901C30.233 94.2502 29.7744 94.0193 29.2746 93.8699L28.7017 95.7861C28.9847 95.8707 29.1621 95.9769 29.2736 96.0772L30.6109 94.5901ZM29.2786 93.8711C28.8339 93.7361 28.3489 93.6335 27.8277 93.5597L27.5473 95.5399C27.986 95.602 28.3682 95.6849 28.6977 95.7849L29.2786 93.8711ZM27.8361 93.5609L26.2506 93.3226L25.9533 95.3004L27.5389 95.5387L27.8361 93.5609ZM26.2502 93.3225C25.284 93.1777 24.5703 92.9004 24.0578 92.5366L22.9002 94.1676C23.736 94.7608 24.771 95.1231 25.9537 95.3004L26.2502 93.3225ZM24.0606 92.5387C23.6459 92.2421 23.385 91.8176 23.3075 91.1583L21.3212 91.3919C21.4567 92.544 21.9723 93.5041 22.8974 94.1656L24.0606 92.5387ZM23.3075 91.1583C23.2419 90.6003 23.3367 90.1378 23.5649 89.7314L21.8211 88.7521C21.3682 89.5586 21.2106 90.4516 21.3212 91.3919L23.3075 91.1583ZM23.5649 89.7314C23.8112 89.2929 24.1787 88.9163 24.7011 88.6061L23.6799 86.8864C22.8868 87.3574 22.256 87.9778 21.8211 88.7521L23.5649 89.7314ZM24.7055 88.6035C25.2247 88.2915 25.8496 88.0817 26.6009 87.9933L26.3673 86.007C25.375 86.1237 24.4708 86.4113 23.6756 86.889L24.7055 88.6035ZM26.6009 87.9933C27.3649 87.9035 28.0114 87.963 28.5602 88.1409L29.1767 86.2382C28.307 85.9565 27.364 85.8898 26.3673 86.007L26.6009 87.9933ZM28.5625 88.1416C29.1298 88.3239 29.5576 88.5989 29.88 88.9519L31.3566 87.6029C30.7729 86.964 30.0341 86.5138 29.1744 86.2375L28.5625 88.1416ZM29.8825 88.9546C30.1906 89.2893 30.3836 89.6932 30.4557 90.2002L32.4358 89.9185C32.3098 89.0329 31.9512 88.2488 31.3541 87.6001L29.8825 88.9546ZM31.329 89.0662L29.4372 89.2888L29.6708 91.2751L31.5626 91.0525L31.329 89.0662ZM37.5979 99.0543L36.6048 99.1711L36.7216 100.164L37.7148 100.047L37.5979 99.0543ZM36.0686 86.053L35.9518 85.0598L34.9587 85.1767L35.0755 86.1698L36.0686 86.053ZM38.0303 85.8222L39.0234 85.7054L38.9066 84.7123L37.9134 84.8291L38.0303 85.8222ZM38.7606 92.0309L37.7674 92.1477L37.8842 93.1408L38.8774 93.024L38.7606 92.0309ZM38.9193 92.0122L39.0361 93.0053L39.4856 92.9525L39.7425 92.5798L38.9193 92.0122ZM43.6421 85.1621L43.5253 84.169L43.0758 84.2219L42.8188 84.5945L43.6421 85.1621ZM46.1116 84.8717L46.9293 85.4473L48.218 83.617L45.9948 83.8785L46.1116 84.8717ZM41.5564 91.3416L40.7388 90.7659L40.2707 91.4306L40.8259 92.0245L41.5564 91.3416ZM47.66 97.8707L47.7768 98.8638L49.7413 98.6328L48.3905 97.1878L47.66 97.8707ZM45.2984 98.1485L44.5622 98.8253L44.9079 99.2013L45.4152 99.1416L45.2984 98.1485ZM40.4126 92.8341L41.1487 92.1573L40.2968 91.2306L39.5868 92.2702L40.4126 92.8341ZM39.0839 94.7797L38.2581 94.2157L38.047 94.5248L38.0907 94.8965L39.0839 94.7797ZM39.5596 98.8235L39.6764 99.8167L40.6695 99.6999L40.5527 98.7067L39.5596 98.8235ZM38.5911 98.9374L37.0618 85.9362L35.0755 86.1698L36.6048 99.1711L38.5911 98.9374ZM36.1855 87.0461L38.1471 86.8154L37.9134 84.8291L35.9518 85.0598L36.1855 87.0461ZM37.0371 85.9391L37.7674 92.1477L39.7537 91.914L39.0234 85.7054L37.0371 85.9391ZM38.8774 93.024L39.0361 93.0053L38.8024 91.019L38.6437 91.0377L38.8774 93.024ZM39.7425 92.5798L44.4654 85.7298L42.8188 84.5945L38.096 91.4446L39.7425 92.5798ZM43.759 86.1553L46.2284 85.8648L45.9948 83.8785L43.5253 84.169L43.759 86.1553ZM45.2939 84.296L40.7388 90.7659L42.3741 91.9173L46.9293 85.4473L45.2939 84.296ZM40.8259 92.0245L46.9294 98.5536L48.3905 97.1878L42.2869 90.6587L40.8259 92.0245ZM47.5431 96.8775L45.1816 97.1553L45.4152 99.1416L47.7768 98.8638L47.5431 96.8775ZM46.0346 97.4717L41.1487 92.1573L39.6764 93.5109L44.5622 98.8253L46.0346 97.4717ZM39.5868 92.2702L38.2581 94.2157L39.9097 95.3436L41.2384 93.3981L39.5868 92.2702ZM38.0907 94.8965L38.5664 98.9403L40.5527 98.7067L40.077 94.6628L38.0907 94.8965ZM39.4427 97.8304L37.4811 98.0611L37.7148 100.047L39.6764 99.8167L39.4427 97.8304ZM53.0702 97.2343L53.187 98.2275L53.8943 98.1443L54.047 97.4487L53.0702 97.2343ZM50.988 97.4792L50.0139 97.2529L49.6919 98.6386L51.1048 98.4724L50.988 97.4792ZM54.1374 83.9276L54.0205 82.9345L53.3224 83.0166L53.1633 83.7013L54.1374 83.9276ZM56.4037 83.661L57.2986 83.2148L56.985 82.5858L56.2869 82.6679L56.4037 83.661ZM62.6117 96.112L62.7285 97.1051L64.1414 96.9389L63.5066 95.6658L62.6117 96.112ZM60.5294 96.3569L59.6289 96.7916L59.9386 97.4333L60.6463 97.3501L60.5294 96.3569ZM55.6023 86.1495L56.5028 85.7148L56.1931 85.0731L55.4855 85.1564L55.6023 86.1495ZM55.5007 86.1615L55.3839 85.1683L54.6766 85.2515L54.524 85.9471L55.5007 86.1615ZM52.8205 92.1019L52.7037 91.1088L51.7105 91.2256L51.8273 92.2187L52.8205 92.1019ZM59.5751 91.3074L60.5682 91.1906L60.4514 90.1974L59.4582 90.3142L59.5751 91.3074ZM59.7692 92.9579L59.886 93.9511L60.8792 93.8343L60.7624 92.8411L59.7692 92.9579ZM53.0146 93.7525L52.0215 93.8693L52.1383 94.8624L53.1315 94.7456L53.0146 93.7525ZM52.9534 96.2412L50.8712 96.4861L51.1048 98.4724L53.187 98.2275L52.9534 96.2412ZM51.962 97.7056L55.1114 84.154L53.1633 83.7013L50.0139 97.2529L51.962 97.7056ZM54.2542 84.9208L56.5205 84.6542L56.2869 82.6679L54.0205 82.9345L54.2542 84.9208ZM55.5088 84.1072L61.7168 96.5582L63.5066 95.6658L57.2986 83.2148L55.5088 84.1072ZM62.4949 95.1188L60.4126 95.3637L60.6463 97.3501L62.7285 97.1051L62.4949 95.1188ZM61.43 95.9222L56.5028 85.7148L54.7017 86.5843L59.6289 96.7916L61.43 95.9222ZM55.4855 85.1564L55.3839 85.1683L55.6175 87.1546L55.7191 87.1427L55.4855 85.1564ZM54.524 85.9471L52.0935 97.0199L54.047 97.4487L56.4774 86.3759L54.524 85.9471ZM52.9373 93.0951L59.6919 92.3005L59.4582 90.3142L52.7037 91.1088L52.9373 93.0951ZM58.5819 91.4242L58.7761 93.0748L60.7624 92.8411L60.5682 91.1906L58.5819 91.4242ZM59.6524 91.9648L52.8978 92.7593L53.1315 94.7456L59.886 93.9511L59.6524 91.9648ZM54.0078 93.6356L53.8136 91.9851L51.8273 92.2187L52.0215 93.8693L54.0078 93.6356ZM63.4838 84.5402L62.4906 84.6571L62.6075 85.6502L63.6006 85.5334L63.4838 84.5402ZM63.2852 82.8516L63.1683 81.8584L62.1752 81.9753L62.292 82.9684L63.2852 82.8516ZM73.3472 81.668L74.3403 81.5512L74.2235 80.5581L73.2304 80.6749L73.3472 81.668ZM73.5458 83.3567L73.6626 84.3498L74.6558 84.233L74.539 83.2398L73.5458 83.3567ZM69.4893 83.8338L69.3725 82.8407L68.3793 82.9575L68.4961 83.9506L69.4893 83.8338ZM70.8199 95.1465L70.9368 96.1396L71.9299 96.0228L71.8131 95.0296L70.8199 95.1465ZM68.8647 95.3765L67.8715 95.4933L67.9883 96.4864L68.9815 96.3696L68.8647 95.3765ZM67.534 84.0638L68.5272 83.947L68.4103 82.9538L67.4172 83.0707L67.534 84.0638ZM64.477 84.4234L64.2783 82.7348L62.292 82.9684L62.4906 84.6571L64.477 84.4234ZM63.402 83.8447L73.464 82.6612L73.2304 80.6749L63.1683 81.8584L63.402 83.8447ZM72.354 81.7848L72.5527 83.4735L74.539 83.2398L74.3403 81.5512L72.354 81.7848ZM73.429 82.3635L69.3725 82.8407L69.6061 84.827L73.6626 84.3498L73.429 82.3635ZM68.4961 83.9506L69.8268 95.2633L71.8131 95.0296L70.4824 83.717L68.4961 83.9506ZM70.7031 94.1533L68.7478 94.3833L68.9815 96.3696L70.9368 96.1396L70.7031 94.1533ZM69.8578 95.2596L68.5272 83.947L66.5408 84.1806L67.8715 95.4933L69.8578 95.2596ZM67.4172 83.0707L63.367 83.5471L63.6006 85.5334L67.6508 85.057L67.4172 83.0707ZM77.6309 82.8762L76.6377 82.993L76.7545 83.9861L77.7477 83.8693L77.6309 82.8762ZM77.4322 81.1875L77.3154 80.1944L76.3223 80.3112L76.4391 81.3043L77.4322 81.1875ZM87.4943 80.0039L88.4874 79.8871L88.3706 78.894L87.3774 79.0108L87.4943 80.0039ZM87.6929 81.6926L87.8097 82.6857L88.8029 82.5689L88.686 81.5758L87.6929 81.6926ZM83.6363 82.1698L83.5195 81.1766L82.5264 81.2934L82.6432 82.2866L83.6363 82.1698ZM84.967 93.4824L85.0838 94.4755L86.077 94.3587L85.9602 93.3656L84.967 93.4824ZM83.0117 93.7124L82.0186 93.8292L82.1354 94.8224L83.1286 94.7055L83.0117 93.7124ZM81.6811 82.3997L82.6742 82.2829L82.5574 81.2898L81.5643 81.4066L81.6811 82.3997ZM78.624 82.7593L78.4254 81.0707L76.4391 81.3043L76.6377 82.993L78.624 82.7593ZM77.5491 82.1807L87.6111 80.9971L87.3774 79.0108L77.3154 80.1944L77.5491 82.1807ZM86.5011 80.1208L86.6997 81.8094L88.686 81.5758L88.4874 79.8871L86.5011 80.1208ZM87.5761 80.6994L83.5195 81.1766L83.7532 83.1629L87.8097 82.6857L87.5761 80.6994ZM82.6432 82.2866L83.9739 93.5992L85.9602 93.3656L84.6295 82.0529L82.6432 82.2866ZM84.8502 92.4892L82.8949 92.7192L83.1286 94.7055L85.0838 94.4755L84.8502 92.4892ZM84.0049 93.5956L82.6742 82.2829L80.6879 82.5166L82.0186 93.8292L84.0049 93.5956ZM81.5643 81.4066L77.5141 81.883L77.7477 83.8693L81.7979 83.3929L81.5643 81.4066ZM93.7498 92.4493L92.7566 92.5661L92.8735 93.5593L93.8666 93.4424L93.7498 92.4493ZM92.2205 79.448L92.1037 78.4549L91.1105 78.5717L91.2273 79.5648L92.2205 79.448ZM100.372 78.4892L101.365 78.3724L101.248 77.3792L100.255 77.4961L100.372 78.4892ZM100.57 80.1779L100.687 81.171L101.68 81.0542L101.563 80.061L100.57 80.1779ZM94.3807 80.9059L94.2639 79.9128L93.2708 80.0296L93.3876 81.0227L94.3807 80.9059ZM94.8467 84.8672L93.8535 84.9841L93.9704 85.9772L94.9635 85.8604L94.8467 84.8672ZM100.611 84.1892L101.604 84.0724L101.487 83.0792L100.494 83.1961L100.611 84.1892ZM100.809 85.8715L100.926 86.8647L101.919 86.7478L101.802 85.7547L100.809 85.8715ZM95.0446 86.5495L94.9278 85.5564L93.9346 85.6732L94.0514 86.6664L95.0446 86.5495ZM95.5128 90.5299L94.5196 90.6467L94.6365 91.6399L95.6296 91.5231L95.5128 90.5299ZM101.779 89.7929L102.772 89.6761L102.655 88.6829L101.662 88.7997L101.779 89.7929ZM101.977 91.4815L102.094 92.4747L103.087 92.3579L102.97 91.3647L101.977 91.4815ZM94.7429 92.3325L93.2136 79.3312L91.2273 79.5648L92.7566 92.5661L94.7429 92.3325ZM92.3373 80.4412L100.489 79.4824L100.255 77.4961L92.1037 78.4549L92.3373 80.4412ZM99.3785 78.606L99.5772 80.2947L101.563 80.061L101.365 78.3724L99.3785 78.606ZM100.453 79.1847L94.2639 79.9128L94.4976 81.8991L100.687 81.171L100.453 79.1847ZM93.3876 81.0227L93.8535 84.9841L95.8399 84.7504L95.3739 80.7891L93.3876 81.0227ZM94.9635 85.8604L100.728 85.1824L100.494 83.1961L94.7299 83.8741L94.9635 85.8604ZM99.6178 84.306L99.8157 85.9883L101.802 85.7547L101.604 84.0724L99.6178 84.306ZM100.692 84.8784L94.9278 85.5564L95.1614 87.5427L100.926 86.8647L100.692 84.8784ZM94.0514 86.6664L94.5196 90.6467L96.5059 90.4131L96.0377 86.4327L94.0514 86.6664ZM95.6296 91.5231L101.895 90.786L101.662 88.7997L95.396 89.5368L95.6296 91.5231ZM100.785 89.9097L100.984 91.5984L102.97 91.3647L102.772 89.6761L100.785 89.9097ZM101.86 90.4884L93.633 91.4561L93.8666 93.4424L102.094 92.4747L101.86 90.4884ZM111.755 82.9041L112.748 82.7873L112.631 81.7941L111.638 81.911L111.755 82.9041ZM111.949 84.5547L112.066 85.5478L113.059 85.431L112.942 84.4378L111.949 84.5547ZM106.185 85.2327L105.192 85.3495L105.309 86.3427L106.302 86.2258L106.185 85.2327ZM105.991 83.5821L105.874 82.589L104.881 82.7058L104.998 83.699L105.991 83.5821ZM110.762 83.0209L110.956 84.6715L112.942 84.4378L112.748 82.7873L110.762 83.0209ZM111.832 83.5615L106.068 84.2395L106.302 86.2258L112.066 85.5478L111.832 83.5615ZM107.178 85.1159L106.984 83.4653L104.998 83.699L105.192 85.3495L107.178 85.1159ZM106.108 84.5753L111.872 83.8973L111.638 81.911L105.874 82.589L106.108 84.5753ZM49.4372 102.605L49.3204 101.611L48.3272 101.728L48.444 102.721L49.4372 102.605ZM51.3924 102.375L52.3856 102.258L52.2688 101.265L51.2756 101.381L51.3924 102.375ZM52.2332 113.79L51.3087 113.409L51.3067 113.414L52.2332 113.79ZM51.0154 115.31L51.5782 116.137L51.5828 116.134L51.0154 115.31ZM46.9663 115.851L46.6575 116.802L46.6601 116.803L46.9663 115.851ZM45.4521 114.851L44.6843 115.492L44.6905 115.5L45.4521 114.851ZM44.731 113.044L44.6142 112.051L43.6211 112.168L43.7379 113.161L44.731 113.044ZM46.68 112.815L47.6731 112.698L47.5563 111.705L46.5631 111.822L46.68 112.815ZM47.0373 113.719L46.2588 114.347L46.2661 114.355L47.0373 113.719ZM47.8017 114.253L47.4566 115.192L47.4647 115.195L47.4729 115.198L47.8017 114.253ZM49.866 113.965L50.4789 114.756L50.4822 114.753L49.866 113.965ZM50.4407 113.106L49.4857 112.81L50.4407 113.106ZM49.554 103.598L51.5093 103.368L51.2756 101.381L49.3204 101.611L49.554 103.598ZM50.3993 102.491L51.4835 111.709L53.4698 111.475L52.3856 102.258L50.3993 102.491ZM51.4835 111.709C51.5662 112.412 51.4909 112.967 51.3087 113.409L53.1576 114.171C53.4963 113.35 53.5833 112.44 53.4698 111.475L51.4835 111.709ZM51.3067 113.414C51.1233 113.865 50.8413 114.216 50.448 114.487L51.5828 116.134C52.3008 115.639 52.8307 114.976 53.1597 114.166L51.3067 113.414ZM50.4526 114.484C50.0527 114.756 49.537 114.947 48.8709 115.026L49.1045 117.012C50.0297 116.903 50.8658 116.622 51.5782 116.137L50.4526 114.484ZM48.8709 115.026C48.261 115.097 47.7336 115.047 47.2725 114.899L46.6601 116.803C47.4299 117.051 48.25 117.112 49.1045 117.012L48.8709 115.026ZM47.2751 114.9C46.8316 114.756 46.4864 114.524 46.2136 114.203L44.6905 115.5C45.2144 116.115 45.8787 116.549 46.6575 116.802L47.2751 114.9ZM46.2198 114.211C45.9724 113.914 45.7922 113.505 45.7242 112.927L43.7379 113.161C43.8422 114.047 44.1426 114.843 44.6844 115.492L46.2198 114.211ZM44.8479 114.037L46.7968 113.808L46.5631 111.822L44.6142 112.051L44.8479 114.037ZM45.6868 112.932C45.7475 113.448 45.9267 113.935 46.2588 114.347L47.8158 113.091C47.7561 113.017 47.697 112.901 47.6731 112.698L45.6868 112.932ZM46.2661 114.355C46.5846 114.741 46.9893 115.02 47.4566 115.192L48.1468 113.315C47.9952 113.259 47.8903 113.181 47.8085 113.082L46.2661 114.355ZM47.4729 115.198C47.9498 115.364 48.4519 115.402 48.9596 115.343L48.726 113.356C48.4719 113.386 48.28 113.361 48.1305 113.309L47.4729 115.198ZM48.9596 115.343C49.513 115.278 50.0375 115.098 50.4789 114.756L49.2532 113.175C49.1598 113.248 49.0022 113.324 48.726 113.356L48.9596 115.343ZM50.4822 114.753C50.9292 114.403 51.2295 113.938 51.3957 113.403L49.4857 112.81C49.4279 112.996 49.3451 113.103 49.2498 113.178L50.4822 114.753ZM51.3957 113.403C51.5603 112.873 51.5842 112.297 51.5146 111.705L49.5283 111.939C49.5752 112.338 49.5453 112.618 49.4857 112.81L51.3957 113.403ZM51.5146 111.705L50.4303 102.488L48.444 102.721L49.5283 111.939L51.5146 111.705ZM59.3779 114.616L59.4947 115.61L60.2019 115.526L60.3546 114.831L59.3779 114.616ZM57.2956 114.861L56.3216 114.635L55.9996 116.021L57.4125 115.855L57.2956 114.861ZM60.445 101.31L60.3282 100.317L59.6301 100.399L59.471 101.083L60.445 101.31ZM62.7114 101.043L63.6063 100.597L63.2926 99.9679L62.5945 100.05L62.7114 101.043ZM68.9193 113.494L69.0362 114.487L70.4491 114.321L69.8143 113.048L68.9193 113.494ZM66.8371 113.739L65.9365 114.174L66.2463 114.815L66.9539 114.732L66.8371 113.739ZM61.9099 103.532L62.8105 103.097L62.5008 102.455L61.7931 102.539L61.9099 103.532ZM61.8084 103.544L61.6915 102.55L60.9843 102.634L60.8316 103.329L61.8084 103.544ZM59.1282 109.484L59.0113 108.491L58.0182 108.608L58.135 109.601L59.1282 109.484ZM65.8827 108.69L66.8759 108.573L66.7591 107.58L65.7659 107.696L65.8827 108.69ZM66.0769 110.34L66.1937 111.333L67.1868 111.216L67.07 110.223L66.0769 110.34ZM59.3223 111.135L58.3292 111.251L58.446 112.245L59.4391 112.128L59.3223 111.135ZM59.2611 113.623L57.1788 113.868L57.4125 115.855L59.4947 115.61L59.2611 113.623ZM58.2697 115.088L61.4191 101.536L59.471 101.083L56.3216 114.635L58.2697 115.088ZM60.5618 102.303L62.8282 102.036L62.5945 100.05L60.3282 100.317L60.5618 102.303ZM61.8164 101.489L68.0244 113.94L69.8143 113.048L63.6063 100.597L61.8164 101.489ZM68.8025 112.501L66.7203 112.746L66.9539 114.732L69.0362 114.487L68.8025 112.501ZM67.7377 113.304L62.8105 103.097L61.0094 103.966L65.9365 114.174L67.7377 113.304ZM61.7931 102.539L61.6915 102.55L61.9252 104.537L62.0268 104.525L61.7931 102.539ZM60.8316 103.329L58.4011 114.402L60.3546 114.831L62.7851 103.758L60.8316 103.329ZM59.245 110.477L65.9995 109.683L65.7659 107.696L59.0113 108.491L59.245 110.477ZM64.8896 108.806L65.0837 110.457L67.07 110.223L66.8759 108.573L64.8896 108.806ZM65.9601 109.347L59.2055 110.141L59.4391 112.128L66.1937 111.333L65.9601 109.347ZM60.3155 111.018L60.1213 109.367L58.135 109.601L58.3292 111.251L60.3155 111.018ZM80.4411 103.122L79.5303 103.535L79.8321 104.2L80.5579 104.115L80.4411 103.122ZM79.8242 102.145L79.0586 102.789L79.0637 102.795L79.0689 102.801L79.8242 102.145ZM79.0016 101.444L78.4849 102.3L78.493 102.305L79.0016 101.444ZM77.9713 101.057L77.782 102.039L77.7853 102.039L77.9713 101.057ZM74.8498 101.823L75.4837 102.596L74.8498 101.823ZM73.6481 103.644L72.6998 103.327L72.699 103.329L73.6481 103.644ZM74.2817 108.976L75.1304 108.447L74.2817 108.976ZM75.8859 110.467L76.3172 109.565L76.3172 109.565L75.8859 110.467ZM79.7867 110.143L79.2095 109.327L79.2068 109.329L79.7867 110.143ZM80.8686 108.78L79.9426 108.403L79.9416 108.405L80.8686 108.78ZM81.0871 106.862L81.1553 105.865L79.9532 105.783L80.0939 106.979L81.0871 106.862ZM81.6061 106.898L81.723 107.891L81.6743 105.9L81.6061 106.898ZM77.886 107.336L76.8929 107.452L77.0097 108.446L78.0029 108.329L77.886 107.336ZM77.6956 105.717L77.5788 104.724L76.5857 104.84L76.7025 105.834L77.6956 105.717ZM82.806 105.116L83.7991 104.999L83.6823 104.006L82.6892 104.122L82.806 105.116ZM82.6162 109.521L81.6982 109.124L81.6975 109.126L82.6162 109.521ZM80.9171 111.6L80.3464 110.779L80.3446 110.78L80.9171 111.6ZM75.0072 112.134L74.5881 113.042L74.5901 113.043L75.0072 112.134ZM72.6666 110.073L71.8287 110.619L71.8296 110.621L72.6666 110.073ZM71.6088 103.762L72.585 103.978L71.6088 103.762ZM72.5742 101.518L71.7594 100.938L71.7592 100.938L72.5742 101.518ZM74.2654 99.9737L74.7659 100.839L74.7684 100.838L74.2654 99.9737ZM78.539 99.3166L78.3275 100.294L78.3296 100.294L78.539 99.3166ZM80.2679 100.008L79.7369 100.855L79.7406 100.857L80.2679 100.008ZM81.6148 101.227L80.8219 101.836L80.8241 101.839L81.6148 101.227ZM82.4535 102.885L82.5703 103.878L83.7505 103.739L83.4121 102.6L82.4535 102.885ZM81.3519 102.709C81.1478 102.259 80.8918 101.85 80.5796 101.49L79.0689 102.801C79.2431 103.001 79.3983 103.244 79.5303 103.535L81.3519 102.709ZM80.5899 101.502C80.2804 101.134 79.9201 100.825 79.5102 100.583L78.493 102.305C78.7009 102.428 78.8891 102.587 79.0586 102.789L80.5899 101.502ZM79.5182 100.588C79.1007 100.336 78.6442 100.166 78.1573 100.074L77.7853 102.039C78.0533 102.09 78.2836 102.179 78.4849 102.3L79.5182 100.588ZM78.1606 100.075C77.6733 99.9809 77.1665 99.9707 76.6472 100.032L76.8808 102.018C77.2249 101.978 77.523 101.989 77.782 102.039L78.1606 100.075ZM76.6472 100.032C75.7348 100.139 74.915 100.477 74.2159 101.05L75.4837 102.596C75.8726 102.278 76.3289 102.083 76.8808 102.018L76.6472 100.032ZM74.2159 101.05C73.5053 101.632 73.0075 102.408 72.6998 103.327L74.5964 103.962C74.8031 103.344 75.1064 102.906 75.4837 102.596L74.2159 101.05ZM72.699 103.329C72.3873 104.268 72.3245 105.329 72.46 106.481L74.4463 106.247C74.3348 105.299 74.4019 104.547 74.5972 103.959L72.699 103.329ZM72.46 106.481C72.596 107.637 72.9064 108.66 73.433 109.505L75.1304 108.447C74.8001 107.917 74.5581 107.198 74.4463 106.247L72.46 106.481ZM73.433 109.505C73.9476 110.331 74.6185 110.97 75.4546 111.369L76.3172 109.565C75.8712 109.352 75.4726 108.996 75.1304 108.447L73.433 109.505ZM75.4546 111.369C76.2797 111.764 77.1731 111.895 78.107 111.786L77.8733 109.799C77.2837 109.869 76.7742 109.783 76.3172 109.565L75.4546 111.369ZM78.107 111.786C78.9504 111.686 79.716 111.421 80.3667 110.958L79.2068 109.329C78.8756 109.565 78.4434 109.732 77.8733 109.799L78.107 111.786ZM80.364 110.96C81.0146 110.5 81.4971 109.893 81.7956 109.156L79.9416 108.405C79.7879 108.785 79.5492 109.087 79.2095 109.327L80.364 110.96ZM81.7945 109.158C82.0989 108.412 82.1805 107.598 82.0802 106.746L80.0939 106.979C80.1619 107.558 80.0978 108.022 79.9426 108.403L81.7945 109.158ZM81.0189 107.86L81.5379 107.896L81.6743 105.9L81.1553 105.865L81.0189 107.86ZM81.4893 105.905L77.7692 106.342L78.0029 108.329L81.723 107.891L81.4893 105.905ZM78.8792 107.219L78.6888 105.6L76.7025 105.834L76.8929 107.452L78.8792 107.219ZM77.8125 106.71L82.9228 106.109L82.6892 104.122L77.5788 104.724L77.8125 106.71ZM81.8128 105.232L81.9868 106.712L83.9731 106.478L83.7991 104.999L81.8128 105.232ZM81.9868 106.712C82.0983 107.66 81.988 108.453 81.6982 109.124L83.5342 109.917C83.9863 108.871 84.1185 107.714 83.9731 106.478L81.9868 106.712ZM81.6975 109.126C81.4044 109.808 80.9588 110.353 80.3464 110.779L81.4877 112.421C82.4064 111.783 83.0936 110.942 83.5349 109.916L81.6975 109.126ZM80.3446 110.78C79.7363 111.205 78.9926 111.483 78.0839 111.589L78.3176 113.576C79.5081 113.436 80.5752 113.058 81.4895 112.42L80.3446 110.78ZM78.0839 111.589C77.0654 111.709 76.189 111.577 75.4243 111.226L74.5901 113.043C75.7304 113.567 76.983 113.733 78.3176 113.576L78.0839 111.589ZM75.4263 111.226C74.6606 110.873 74.0207 110.317 73.5036 109.526L71.8296 110.621C72.5368 111.702 73.4573 112.52 74.5881 113.042L75.4263 111.226ZM73.5045 109.528C72.9931 108.742 72.6462 107.742 72.4988 106.489L70.5125 106.723C70.6878 108.212 71.1148 109.523 71.8287 110.619L73.5045 109.528ZM72.4988 106.489C72.3876 105.543 72.4227 104.71 72.585 103.978L70.6326 103.545C70.4135 104.532 70.3798 105.595 70.5125 106.723L72.4988 106.489ZM72.585 103.978C72.7504 103.233 73.0229 102.612 73.3891 102.097L71.7592 100.938C71.2197 101.697 70.8486 102.572 70.6326 103.545L72.585 103.978ZM73.3889 102.098C73.7638 101.571 74.221 101.154 74.7659 100.839L73.765 99.108C72.968 99.5687 72.2977 100.182 71.7594 100.938L73.3889 102.098ZM74.7684 100.838C75.3146 100.52 75.9397 100.314 76.6576 100.229L76.4239 98.2431C75.4574 98.3568 74.5656 98.6421 73.7625 99.1094L74.7684 100.838ZM76.6576 100.229C77.2613 100.158 77.8158 100.183 78.3275 100.294L78.7504 98.3392C78.0029 98.1775 77.2253 98.1488 76.4239 98.2431L76.6576 100.229ZM78.3296 100.294C78.8562 100.407 79.3225 100.596 79.7369 100.855L80.799 99.1605C80.1757 98.7699 79.4894 98.4974 78.7483 98.3387L78.3296 100.294ZM79.7406 100.857C80.1614 101.119 80.5203 101.444 80.8219 101.836L82.4078 100.617C81.9595 100.034 81.4206 99.5463 80.7953 99.1582L79.7406 100.857ZM80.8241 101.839C81.1183 102.219 81.3433 102.659 81.4949 103.17L83.4121 102.6C83.1944 101.867 82.8602 101.202 82.4056 100.615L80.8241 101.839ZM82.3367 101.892L80.3243 102.129L80.5579 104.115L82.5703 103.878L82.3367 101.892ZM86.0684 100.008L85.0752 100.125L85.1921 101.118L86.1852 101.001L86.0684 100.008ZM85.8698 98.3191L85.7529 97.326L84.7598 97.4428L84.8766 98.436L85.8698 98.3191ZM95.9318 97.1356L96.9249 97.0187L96.8081 96.0256L95.815 96.1424L95.9318 97.1356ZM96.1304 98.8242L96.2472 99.8174L97.2404 99.7005L97.1236 98.7074L96.1304 98.8242ZM92.0739 99.3014L91.957 98.3082L90.9639 98.425L91.0807 99.4182L92.0739 99.3014ZM93.4045 110.614L93.5213 111.607L94.5145 111.49L94.3977 110.497L93.4045 110.614ZM91.4493 110.844L90.4561 110.961L90.5729 111.954L91.5661 111.837L91.4493 110.844ZM90.1186 99.5314L91.1117 99.4145L90.9949 98.4214L90.0018 98.5382L90.1186 99.5314ZM87.0615 99.891L86.8629 98.2023L84.8766 98.436L85.0752 100.125L87.0615 99.891ZM85.9866 99.3123L96.0486 98.1287L95.815 96.1424L85.7529 97.326L85.9866 99.3123ZM94.9386 97.2524L95.1373 98.941L97.1236 98.7074L96.9249 97.0187L94.9386 97.2524ZM96.0136 97.8311L91.957 98.3082L92.1907 100.295L96.2472 99.8174L96.0136 97.8311ZM91.0807 99.4182L92.4114 110.731L94.3977 110.497L93.067 99.1845L91.0807 99.4182ZM93.2877 109.621L91.3324 109.851L91.5661 111.837L93.5213 111.607L93.2877 109.621ZM92.4424 110.727L91.1117 99.4145L89.1254 99.6482L90.4561 110.961L92.4424 110.727ZM90.0018 98.5382L85.9516 99.0146L86.1852 101.001L90.2354 100.525L90.0018 98.5382Z" fill="black" mask="url(#path-30-outside-1_195_1203)"/>
<g filter="url(#filter1_d_195_1203)">
<ellipse cx="15.7552" cy="48.5884" rx="10.9716" ry="3.13474" fill="#CE9732" fill-opacity="0.69"/>
<path d="M3.99988 50.3797L7.67947 52.3949L9.84394 52.8427L12.3331 52.9546H17.2031L20.9909 52.7307L24.5623 51.947L26.7268 50.1558V52.3949L22.3978 54.9698L20.4498 57.2089H17.2031H10.4933L5.83967 56.2013L3.99988 54.634V50.3797Z" fill="#CE9732" fill-opacity="0.69"/>
<path d="M3.99988 56.4252L6.53858 58.1046L11.0641 58.8882H19.6736L18.7906 61.1273L18.4594 63.4784H11.3952L6.53858 62.5828L3.99988 60.5676V56.4252Z" fill="#CE9732" fill-opacity="0.69"/>
<path d="M3.99988 61.9111L6.51731 63.5626L11.0049 64.3334H18.3383L18.6666 66.5355L19.3233 68.8477H11.3333L6.51731 67.9668L3.99988 65.9849V61.9111Z" fill="#CE9732" fill-opacity="0.69"/>
<path d="M3.99988 68.2971L6.51731 69.9487L11.0049 70.7194H19.9801L21.2935 72.371L23.592 74.3529L18.8855 75.2337H11.3333L6.51731 74.3529L3.99988 72.371V68.2971Z" fill="#CE9732" fill-opacity="0.69"/>
<ellipse cx="31.4289" cy="64.654" rx="11.7553" ry="11.3634" fill="#CE9732" fill-opacity="0.69"/>
<circle cx="31.4289" cy="65.0458" r="10.1879" fill="#4A4E44"/>
<ellipse cx="31.4289" cy="64.6539" rx="8.62055" ry="8.2287" fill="#C49954"/>
</g>
<defs>
<filter id="filter0_d_195_1203" x="21.7561" y="2.8349" width="87.0952" height="81.5623" filterUnits="userSpaceOnUse" color-interpolation-filters="sRGB">
<feFlood flood-opacity="0" result="BackgroundImageFix"/>
<feColorMatrix in="SourceAlpha" type="matrix" values="0 0 0 0 0 0 0 0 0 0 0 0 0 0 0 0 0 0 127 0" result="hardAlpha"/>
<feOffset dy="4"/>
<feGaussianBlur stdDeviation="2"/>
<feComposite in2="hardAlpha" operator="out"/>
<feColorMatrix type="matrix" values="0 0 0 0 0 0 0 0 0 0 0 0 0 0 0 0 0 0 0.25 0"/>
<feBlend mode="normal" in2="BackgroundImageFix" result="effect1_dropShadow_195_1203"/>
<feBlend mode="normal" in="SourceGraphic" in2="effect1_dropShadow_195_1203" result="shape"/>
</filter>
<filter id="filter1_d_195_1203" x="-0.00012207" y="45.4536" width="47.1843" height="38.5638" filterUnits="userSpaceOnUse" color-interpolation-filters="sRGB">
<feFlood flood-opacity="0" result="BackgroundImageFix"/>
<feColorMatrix in="SourceAlpha" type="matrix" values="0 0 0 0 0 0 0 0 0 0 0 0 0 0 0 0 0 0 127 0" result="hardAlpha"/>
<feOffset dy="4"/>
<feGaussianBlur stdDeviation="2"/>
<feComposite in2="hardAlpha" operator="out"/>
<feColorMatrix type="matrix" values="0 0 0 0 0 0 0 0 0 0 0 0 0 0 0 0 0 0 0.25 0"/>
<feBlend mode="normal" in2="BackgroundImageFix" result="effect1_dropShadow_195_1203"/>
<feBlend mode="normal" in="SourceGraphic" in2="effect1_dropShadow_195_1203" result="shape"/>
</filter>
</defs>
</svg>
