<svg width="10" height="15" viewBox="0 0 10 15" fill="none" xmlns="http://www.w3.org/2000/svg">
<path fill-rule="evenodd" clip-rule="evenodd" d="M2.36925 2.00859C2.36925 1.25902 2.9769 0.651367 3.72647 0.651367H6.26047C7.01005 0.651367 7.6177 1.25902 7.6177 2.00859C7.6177 2.0686 7.6138 2.1277 7.60625 2.18566H8.82512C9.15099 2.18566 9.41517 2.4498 9.41522 2.77566H9.70495C9.8679 2.77566 10 2.90776 10 3.07071C10 3.23366 9.8679 3.36576 9.70495 3.36576H6.27248C6.26848 3.36579 6.26448 3.36581 6.26047 3.36581H3.72647C3.72247 3.36581 3.71847 3.36579 3.71447 3.36576H0.295049C0.132098 3.36576 0 3.23366 0 3.07071C0 2.90776 0.132098 2.77566 0.295048 2.77566H0.584446C0.584494 2.4498 0.848671 2.18566 1.17454 2.18566H2.38069C2.37314 2.1277 2.36925 2.0686 2.36925 2.00859ZM2.92832 2.18564C2.92832 1.76196 3.27177 1.41851 3.69544 1.41851H6.26057C6.68424 1.41851 7.0277 1.76196 7.0277 2.18564H2.92832Z" fill="#456824"/>
<path d="M9.5909 3.6958H0.409103C0.183162 3.6958 0 3.87896 0 4.1049V4.25128C0 4.39638 0.117626 4.51401 0.262724 4.51401C0.395196 4.51401 0.506945 4.61263 0.523411 4.74408L1.59045 13.262C1.65313 13.7623 2.07848 14.1377 2.5827 14.1377H7.34563C7.84744 14.1377 8.27154 13.7658 8.33706 13.2682L9.45884 4.75027C9.47664 4.61507 9.59189 4.51401 9.72826 4.51401C9.87834 4.51401 10 4.39234 10 4.24226V4.1049C10 3.87896 9.81684 3.6958 9.5909 3.6958Z" fill="#456824"/>
<path d="M4.64282 6.14132C4.64282 5.94408 4.80272 5.78418 4.99997 5.78418C5.19721 5.78418 5.35711 5.94408 5.35711 6.14132V13.0844C5.35711 13.2817 5.19721 13.4416 4.99997 13.4416C4.80272 13.4416 4.64282 13.2817 4.64282 13.0844V6.14132Z" fill="#FCFAEE"/>
<path d="M7.48897 6.21346C7.51299 6.02276 7.68718 5.88668 7.87803 5.90951C8.06888 5.93235 8.20412 6.10546 8.18009 6.29616L7.30413 13.2489C7.2801 13.4396 7.10591 13.5757 6.91506 13.5529C6.72421 13.53 6.58898 13.3569 6.613 13.1662L7.48897 6.21346Z" fill="#FCFAEE"/>
<path d="M1.64787 6.33016C1.62385 6.13946 1.75908 5.96635 1.94993 5.94351C2.14078 5.92067 2.31497 6.05676 2.339 6.24746L3.21496 13.2002C3.23899 13.3909 3.10375 13.564 2.9129 13.5869C2.72205 13.6097 2.54786 13.4736 2.52384 13.2829L1.64787 6.33016Z" fill="#FCFAEE"/>
</svg>
