<svg width="323" height="125" viewBox="0 0 323 125" fill="none" xmlns="http://www.w3.org/2000/svg">
<path fill-rule="evenodd" clip-rule="evenodd" d="M242.236 0H20C8.9543 0 0 8.95431 0 20V105C0 116.046 8.95431 125 20 125H303C314.046 125 323 116.046 323 105V79.1663L322.951 79.2149L242.236 0ZM323 46.7365V20C323 8.9543 314.046 0 303 0H275.379L323 46.7365Z" fill="#355E50"/>
<path d="M266.501 14.9937L267.357 15.498L274.665 8.3254L274.152 7.48486L274.323 7.31675L277.577 10.5108L277.406 10.6789L276.55 10.1746L272.964 13.6936L279.176 13.0884L278.662 11.9117L278.833 11.7436L281.003 13.8729L280.832 14.041L279.576 13.4807L275.122 13.929L273.523 21.5498L273.923 22.2783L273.752 22.4464L272.153 20.8774C271.811 20.5412 271.601 20.1714 271.525 19.7679C271.464 19.3644 271.483 18.9124 271.582 18.4118L272.496 14.1531L269.241 17.3472L269.755 18.1877L269.584 18.3558L266.329 15.1618L266.501 14.9937ZM274.613 22.9555L275.47 23.4599L282.778 16.2873L282.264 15.4468L282.435 15.2786L283.92 16.7356C284.605 17.408 284.605 18.0804 283.92 18.7529L277.297 25.253L277.811 26.0935L277.639 26.2617L274.442 23.1236L274.613 22.9555ZM279.465 28.2772C279.236 28.053 279.118 27.7729 279.111 27.4367C279.118 27.1004 279.236 26.8203 279.465 26.5961C279.693 26.372 279.975 26.2599 280.31 26.2599C280.66 26.2599 280.949 26.372 281.178 26.5961C281.406 26.8203 281.516 27.1004 281.509 27.4367C281.516 27.7729 281.406 28.053 281.178 28.2772C280.949 28.5013 280.66 28.6134 280.31 28.6134C279.975 28.6134 279.693 28.5013 279.465 28.2772ZM285.637 34.1106L285.808 33.9425L286.836 34.5028L293.105 28.3501L291.061 28.0027L291.118 27.4984L295.081 27.6889L296.314 28.8993L288.72 36.352L289.291 37.3607L289.12 37.5288L285.637 34.1106ZM290.719 39.0982L290.89 38.9301L291.918 39.4905L298.187 33.3377L296.143 32.9903L296.2 32.486L300.163 32.6765L301.396 33.8869L293.802 41.3396L294.373 42.3483L294.202 42.5164L290.719 39.0982ZM300.483 40.6116C300.254 40.3875 300.136 40.1073 300.129 39.7711C300.136 39.4349 300.254 39.1547 300.483 38.9305C300.711 38.7064 300.993 38.5943 301.328 38.5943C301.678 38.5943 301.967 38.7064 302.196 38.9305C302.424 39.1547 302.534 39.4349 302.527 39.7711C302.534 40.1073 302.424 40.3875 302.196 40.6116C301.967 40.8358 301.678 40.9478 301.328 40.9478C300.993 40.9478 300.711 40.8358 300.483 40.6116ZM296.258 44.7583C296.029 44.5341 295.911 44.2539 295.904 43.9177C295.911 43.5815 296.029 43.3013 296.258 43.0772C296.486 42.8531 296.768 42.741 297.103 42.741C297.453 42.741 297.742 42.8531 297.971 43.0772C298.199 43.3013 298.309 43.5815 298.302 43.9177C298.309 44.2539 298.199 44.5341 297.971 44.7583C297.742 44.9824 297.453 45.0945 297.103 45.0945C296.768 45.0945 296.486 44.9824 296.258 44.7583ZM300.657 49.1877C300.131 48.6722 299.755 48.1604 299.526 47.6523C299.305 47.1518 299.214 46.696 299.252 46.2851C299.298 45.8816 299.443 45.5603 299.686 45.3213C299.945 45.0672 300.227 44.9402 300.531 44.9402C300.851 44.9402 301.14 45.0672 301.399 45.3213C301.46 45.381 301.513 45.4483 301.559 45.523C301.612 45.5902 301.65 45.6351 301.673 45.6575L301.799 45.8256L299.972 47.6187C299.979 47.6262 300.029 47.7345 300.12 47.9437C300.265 48.1903 300.463 48.4368 300.714 48.6834C301.247 49.2064 301.814 49.4492 302.415 49.4119C303.032 49.3745 303.664 49.0383 304.311 48.4032C304.973 47.7532 305.331 47.1256 305.384 46.5204C305.445 45.9227 305.24 45.3922 304.768 44.929L304.197 44.3686L304.482 44.0885L305.053 44.6488C305.396 44.985 305.833 45.1158 306.366 45.0411C306.899 44.9664 307.451 44.6488 308.022 44.0885C308.593 43.5281 308.913 42.9827 308.981 42.4522C309.05 41.9217 308.901 41.4772 308.536 41.1186C308.338 40.9243 308.117 40.7674 307.874 40.6479C307.843 40.6329 307.741 40.5844 307.565 40.5022L305.738 42.2953L305.556 42.1832C305.419 42.0786 305.308 41.9853 305.224 41.9031C304.966 41.649 304.832 41.3689 304.825 41.0625C304.832 40.7562 304.966 40.476 305.224 40.222C305.46 39.9904 305.784 39.8522 306.195 39.8073C306.606 39.7625 307.059 39.841 307.554 40.0427C308.064 40.2444 308.563 40.5844 309.05 41.0625C309.689 41.6901 310.135 42.314 310.386 42.9341C310.652 43.5543 310.74 44.1258 310.649 44.6488C310.565 45.1793 310.336 45.6276 309.963 45.9937C309.53 46.4196 309.073 46.6512 308.593 46.6885C308.121 46.7184 307.63 46.6325 307.12 46.4308C306.633 46.2216 306.153 45.9078 305.681 45.4894L305.624 45.5454C306.104 46.0609 306.473 46.5951 306.732 47.148C307.28 48.4032 307.12 49.4567 306.252 50.3084C305.582 50.9659 304.764 51.2237 303.797 51.0817C302.845 50.9398 301.799 50.3084 300.657 49.1877ZM308.764 57.1444C308.147 56.5392 307.751 55.8294 307.576 55.015C307.401 54.2006 307.477 53.3414 307.805 52.4374C308.147 51.5333 308.753 50.6554 309.62 49.8037C310.488 48.9519 311.379 48.3617 312.293 48.0329C313.221 47.7042 314.101 47.6257 314.93 47.7976C315.76 47.9694 316.483 48.358 317.1 48.9631C317.717 49.5683 318.113 50.2781 318.288 51.0925C318.463 51.9069 318.379 52.7661 318.036 53.6701C317.709 54.5742 317.111 55.4521 316.244 56.3038C315.376 57.1556 314.477 57.7458 313.549 58.0746C312.635 58.4033 311.763 58.4817 310.934 58.3099C310.104 58.1381 309.381 57.7495 308.764 57.1444ZM308.992 56.9202C309.868 57.7794 311.619 56.9202 314.245 54.3426C316.872 51.7649 317.747 50.0465 316.872 49.1873C315.996 48.3281 314.245 49.1873 311.619 51.7649C308.992 54.3426 308.117 56.061 308.992 56.9202Z" fill="#355E50"/>
<path d="M119.605 43.3636H121.286L125.241 53.0227H125.377L129.332 43.3636H131.014V55H129.696V46.1591H129.582L125.946 55H124.673L121.036 46.1591H120.923V55H119.605V43.3636ZM139.637 51.4318V46.2727H140.978V55H139.637V53.5227H139.546C139.342 53.9659 139.024 54.3428 138.592 54.6534C138.16 54.9602 137.614 55.1136 136.955 55.1136C136.41 55.1136 135.925 54.9943 135.501 54.7557C135.077 54.5133 134.743 54.1496 134.501 53.6648C134.258 53.1761 134.137 52.5606 134.137 51.8182V46.2727H135.478V51.7273C135.478 52.3636 135.656 52.8712 136.012 53.25C136.372 53.6288 136.83 53.8182 137.387 53.8182C137.721 53.8182 138.06 53.733 138.404 53.5625C138.753 53.392 139.044 53.1307 139.279 52.7784C139.518 52.4261 139.637 51.9773 139.637 51.4318ZM145.255 43.3636V55H143.914V43.3636H145.255ZM148.191 55V46.2727H149.532V55H148.191ZM148.873 44.8182C148.611 44.8182 148.386 44.7292 148.197 44.5511C148.011 44.3731 147.918 44.1591 147.918 43.9091C147.918 43.6591 148.011 43.4451 148.197 43.267C148.386 43.089 148.611 43 148.873 43C149.134 43 149.358 43.089 149.543 43.267C149.733 43.4451 149.827 43.6591 149.827 43.9091C149.827 44.1591 149.733 44.3731 149.543 44.5511C149.358 44.7292 149.134 44.8182 148.873 44.8182ZM155.991 58.4545C155.343 58.4545 154.786 58.3712 154.32 58.2045C153.854 58.0417 153.466 57.8258 153.155 57.5568C152.849 57.2917 152.604 57.0076 152.422 56.7045L153.491 55.9545C153.612 56.1136 153.765 56.2955 153.951 56.5C154.136 56.7083 154.39 56.8883 154.712 57.0398C155.038 57.1951 155.464 57.2727 155.991 57.2727C156.695 57.2727 157.277 57.1023 157.735 56.7614C158.193 56.4205 158.422 55.8864 158.422 55.1591V53.3864H158.309C158.21 53.5455 158.07 53.7424 157.888 53.9773C157.71 54.2083 157.453 54.4148 157.116 54.5966C156.782 54.7746 156.331 54.8636 155.763 54.8636C155.059 54.8636 154.426 54.697 153.866 54.3636C153.309 54.0303 152.867 53.5455 152.542 52.9091C152.22 52.2727 152.059 51.5 152.059 50.5909C152.059 49.697 152.216 48.9186 152.53 48.2557C152.845 47.589 153.282 47.0739 153.843 46.7102C154.403 46.3428 155.051 46.1591 155.786 46.1591C156.354 46.1591 156.805 46.2538 157.138 46.4432C157.475 46.6288 157.733 46.8409 157.911 47.0795C158.093 47.3144 158.233 47.5076 158.331 47.6591H158.468V46.2727H159.763V55.25C159.763 56 159.593 56.6098 159.252 57.0795C158.915 57.553 158.46 57.8996 157.888 58.1193C157.32 58.3428 156.688 58.4545 155.991 58.4545ZM155.945 53.6591C156.483 53.6591 156.938 53.536 157.309 53.2898C157.68 53.0436 157.962 52.6894 158.155 52.2273C158.349 51.7652 158.445 51.2121 158.445 50.5682C158.445 49.9394 158.35 49.3845 158.161 48.9034C157.972 48.4223 157.691 48.0455 157.32 47.7727C156.949 47.5 156.491 47.3636 155.945 47.3636C155.377 47.3636 154.903 47.5076 154.525 47.7955C154.15 48.0833 153.867 48.4697 153.678 48.9545C153.492 49.4394 153.4 49.9773 153.4 50.5682C153.4 51.1742 153.494 51.7102 153.684 52.1761C153.877 52.6383 154.161 53.0019 154.536 53.267C154.915 53.5284 155.384 53.6591 155.945 53.6591ZM164.039 49.75V55H162.698V43.3636H164.039V47.6364H164.152C164.357 47.1856 164.664 46.8277 165.073 46.5625C165.486 46.2936 166.035 46.1591 166.721 46.1591C167.315 46.1591 167.836 46.2784 168.283 46.517C168.73 46.7519 169.077 47.1136 169.323 47.6023C169.573 48.0871 169.698 48.7045 169.698 49.4545V55H168.357V49.5455C168.357 48.8523 168.177 48.3163 167.817 47.9375C167.461 47.5549 166.967 47.3636 166.334 47.3636C165.895 47.3636 165.501 47.4564 165.152 47.642C164.808 47.8277 164.535 48.0985 164.334 48.4545C164.137 48.8106 164.039 49.2424 164.039 49.75ZM176.29 55.1818C175.449 55.1818 174.724 54.9962 174.114 54.625C173.508 54.25 173.04 53.7273 172.711 53.0568C172.385 52.3826 172.222 51.5985 172.222 50.7045C172.222 49.8106 172.385 49.0227 172.711 48.3409C173.04 47.6553 173.498 47.1212 174.086 46.7386C174.676 46.3523 175.366 46.1591 176.154 46.1591C176.608 46.1591 177.057 46.2348 177.5 46.3864C177.943 46.5379 178.347 46.7841 178.711 47.125C179.074 47.4621 179.364 47.9091 179.58 48.4659C179.796 49.0227 179.904 49.7083 179.904 50.5227V51.0909H173.176V49.9318H178.54C178.54 49.4394 178.442 49 178.245 48.6136C178.051 48.2273 177.775 47.9223 177.415 47.6989C177.059 47.4754 176.639 47.3636 176.154 47.3636C175.62 47.3636 175.157 47.4962 174.767 47.7614C174.381 48.0227 174.084 48.3636 173.875 48.7841C173.667 49.2045 173.563 49.6553 173.563 50.1364V50.9091C173.563 51.5682 173.676 52.1269 173.904 52.5852C174.135 53.0398 174.455 53.3864 174.864 53.625C175.273 53.8598 175.748 53.9773 176.29 53.9773C176.642 53.9773 176.961 53.928 177.245 53.8295C177.532 53.7273 177.781 53.5758 177.989 53.375C178.197 53.1705 178.358 52.9167 178.472 52.6136L179.767 52.9773C179.631 53.4167 179.402 53.803 179.08 54.1364C178.758 54.4659 178.36 54.7235 177.887 54.9091C177.413 55.0909 176.881 55.1818 176.29 55.1818ZM185.719 55.1818C184.992 55.1818 184.35 54.9981 183.793 54.6307C183.236 54.2595 182.8 53.7367 182.486 53.0625C182.172 52.3845 182.014 51.5833 182.014 50.6591C182.014 49.7424 182.172 48.947 182.486 48.2727C182.8 47.5985 183.238 47.0777 183.798 46.7102C184.359 46.3428 185.007 46.1591 185.742 46.1591C186.31 46.1591 186.759 46.2538 187.088 46.4432C187.422 46.6288 187.675 46.8409 187.85 47.0795C188.028 47.3144 188.166 47.5076 188.264 47.6591H188.378V43.3636H189.719V55H188.423V53.6591H188.264C188.166 53.8182 188.026 54.0189 187.844 54.2614C187.662 54.5 187.403 54.714 187.066 54.9034C186.728 55.089 186.28 55.1818 185.719 55.1818ZM185.901 53.9773C186.439 53.9773 186.893 53.8371 187.264 53.5568C187.636 53.2727 187.918 52.8807 188.111 52.3807C188.304 51.8769 188.401 51.2955 188.401 50.6364C188.401 49.9848 188.306 49.4148 188.117 48.9261C187.927 48.4337 187.647 48.0511 187.276 47.7784C186.905 47.5019 186.446 47.3636 185.901 47.3636C185.333 47.3636 184.859 47.5095 184.48 47.8011C184.105 48.089 183.823 48.4811 183.634 48.9773C183.448 49.4697 183.355 50.0227 183.355 50.6364C183.355 51.2576 183.45 51.822 183.639 52.3295C183.833 52.8333 184.117 53.2348 184.492 53.5341C184.87 53.8295 185.34 53.9773 185.901 53.9773ZM201.707 46.2727V47.4091H197.003V46.2727H201.707ZM198.412 55V45.0682C198.412 44.5682 198.529 44.1515 198.764 43.8182C198.999 43.4848 199.304 43.2348 199.679 43.0682C200.054 42.9015 200.45 42.8182 200.866 42.8182C201.196 42.8182 201.465 42.8447 201.673 42.8977C201.882 42.9508 202.037 43 202.139 43.0455L201.753 44.2045C201.685 44.1818 201.59 44.1534 201.469 44.1193C201.351 44.0852 201.196 44.0682 201.003 44.0682C200.56 44.0682 200.24 44.1799 200.043 44.4034C199.849 44.6269 199.753 44.9545 199.753 45.3864V55H198.412ZM207.253 55.1818C206.465 55.1818 205.773 54.9943 205.179 54.6193C204.588 54.2443 204.126 53.7197 203.792 53.0455C203.463 52.3712 203.298 51.5833 203.298 50.6818C203.298 49.7727 203.463 48.9792 203.792 48.3011C204.126 47.6231 204.588 47.0966 205.179 46.7216C205.773 46.3466 206.465 46.1591 207.253 46.1591C208.041 46.1591 208.73 46.3466 209.321 46.7216C209.916 47.0966 210.378 47.6231 210.707 48.3011C211.041 48.9792 211.207 49.7727 211.207 50.6818C211.207 51.5833 211.041 52.3712 210.707 53.0455C210.378 53.7197 209.916 54.2443 209.321 54.6193C208.73 54.9943 208.041 55.1818 207.253 55.1818ZM207.253 53.9773C207.851 53.9773 208.344 53.8239 208.73 53.517C209.116 53.2102 209.402 52.8068 209.588 52.3068C209.773 51.8068 209.866 51.2652 209.866 50.6818C209.866 50.0985 209.773 49.5549 209.588 49.0511C209.402 48.5473 209.116 48.1402 208.73 47.8295C208.344 47.5189 207.851 47.3636 207.253 47.3636C206.654 47.3636 206.162 47.5189 205.775 47.8295C205.389 48.1402 205.103 48.5473 204.917 49.0511C204.732 49.5549 204.639 50.0985 204.639 50.6818C204.639 51.2652 204.732 51.8068 204.917 52.3068C205.103 52.8068 205.389 53.2102 205.775 53.517C206.162 53.8239 206.654 53.9773 207.253 53.9773ZM213.734 55V46.2727H215.03V47.5909H215.12C215.28 47.1591 215.567 46.8087 215.984 46.5398C216.401 46.2708 216.87 46.1364 217.393 46.1364C217.492 46.1364 217.615 46.1383 217.762 46.142C217.91 46.1458 218.022 46.1515 218.098 46.1591V47.5227C218.052 47.5114 217.948 47.4943 217.785 47.4716C217.626 47.4451 217.458 47.4318 217.28 47.4318C216.855 47.4318 216.477 47.5208 216.143 47.6989C215.814 47.8731 215.552 48.1155 215.359 48.4261C215.17 48.733 215.075 49.0833 215.075 49.4773V55H213.734ZM227.715 55.2045C227.162 55.2045 226.66 55.1004 226.21 54.892C225.759 54.6799 225.401 54.375 225.136 53.9773C224.871 53.5758 224.738 53.0909 224.738 52.5227C224.738 52.0227 224.837 51.6174 225.034 51.3068C225.231 50.9924 225.494 50.7462 225.823 50.5682C226.153 50.3902 226.517 50.2576 226.914 50.1705C227.316 50.0795 227.719 50.0076 228.124 49.9545C228.655 49.8864 229.085 49.8352 229.414 49.8011C229.748 49.7633 229.99 49.7008 230.142 49.6136C230.297 49.5265 230.374 49.375 230.374 49.1591V49.1136C230.374 48.553 230.221 48.1174 229.914 47.8068C229.611 47.4962 229.151 47.3409 228.534 47.3409C227.893 47.3409 227.392 47.4811 227.028 47.7614C226.664 48.0417 226.409 48.3409 226.261 48.6591L224.988 48.2045C225.215 47.6742 225.518 47.2614 225.897 46.9659C226.28 46.6667 226.696 46.4583 227.147 46.3409C227.602 46.2197 228.049 46.1591 228.488 46.1591C228.768 46.1591 229.09 46.1932 229.454 46.2614C229.821 46.3258 230.176 46.4602 230.517 46.6648C230.861 46.8693 231.147 47.178 231.374 47.5909C231.602 48.0038 231.715 48.5568 231.715 49.25V55H230.374V53.8182H230.306C230.215 54.0076 230.064 54.2102 229.852 54.4261C229.64 54.642 229.357 54.8258 229.005 54.9773C228.653 55.1288 228.223 55.2045 227.715 55.2045ZM227.92 54C228.45 54 228.897 53.8958 229.261 53.6875C229.628 53.4792 229.905 53.2102 230.09 52.8807C230.28 52.5511 230.374 52.2045 230.374 51.8409V50.6136C230.318 50.6818 230.193 50.7443 229.999 50.8011C229.81 50.8542 229.59 50.9015 229.34 50.9432C229.094 50.9811 228.854 51.0152 228.619 51.0455C228.388 51.072 228.2 51.0947 228.056 51.1136C227.708 51.1591 227.382 51.233 227.079 51.3352C226.78 51.4337 226.537 51.5833 226.352 51.7841C226.17 51.9811 226.079 52.25 226.079 52.5909C226.079 53.0568 226.251 53.4091 226.596 53.6477C226.945 53.8826 227.386 54 227.92 54ZM238.438 46.2727V47.4091H233.916V46.2727H238.438ZM235.234 44.1818H236.575V52.5C236.575 52.8788 236.63 53.1629 236.739 53.3523C236.853 53.5379 236.997 53.6629 237.171 53.7273C237.349 53.7879 237.537 53.8182 237.734 53.8182C237.881 53.8182 238.003 53.8106 238.097 53.7955C238.192 53.7765 238.268 53.7614 238.325 53.75L238.597 54.9545C238.506 54.9886 238.38 55.0227 238.217 55.0568C238.054 55.0947 237.847 55.1136 237.597 55.1136C237.219 55.1136 236.847 55.0322 236.484 54.8693C236.124 54.7064 235.825 54.4583 235.586 54.125C235.351 53.7917 235.234 53.3712 235.234 52.8636V44.1818ZM245.915 55V46.2727H247.211V47.5909H247.302C247.461 47.1591 247.749 46.8087 248.165 46.5398C248.582 46.2708 249.052 46.1364 249.574 46.1364C249.673 46.1364 249.796 46.1383 249.944 46.142C250.091 46.1458 250.203 46.1515 250.279 46.1591V47.5227C250.234 47.5114 250.129 47.4943 249.966 47.4716C249.807 47.4451 249.639 47.4318 249.461 47.4318C249.037 47.4318 248.658 47.5208 248.324 47.6989C247.995 47.8731 247.734 48.1155 247.54 48.4261C247.351 48.733 247.256 49.0833 247.256 49.4773V55H245.915ZM253.015 55.4773L252.151 54.8864L258.242 45.8636L259.106 46.4545L253.015 55.4773ZM255.628 55.1818C254.84 55.1818 254.149 54.9943 253.554 54.6193C252.964 54.2443 252.501 53.7197 252.168 53.0455C251.839 52.3712 251.674 51.5833 251.674 50.6818C251.674 49.7727 251.839 48.9792 252.168 48.3011C252.501 47.6231 252.964 47.0966 253.554 46.7216C254.149 46.3466 254.84 46.1591 255.628 46.1591C256.416 46.1591 257.106 46.3466 257.696 46.7216C258.291 47.0966 258.753 47.6231 259.083 48.3011C259.416 48.9792 259.583 49.7727 259.583 50.6818C259.583 51.5833 259.416 52.3712 259.083 53.0455C258.753 53.7197 258.291 54.2443 257.696 54.6193C257.106 54.9943 256.416 55.1818 255.628 55.1818ZM255.628 53.9773C256.227 53.9773 256.719 53.8239 257.106 53.517C257.492 53.2102 257.778 52.8068 257.964 52.3068C258.149 51.8068 258.242 51.2652 258.242 50.6818C258.242 50.0985 258.149 49.5549 257.964 49.0511C257.778 48.5473 257.492 48.1402 257.106 47.8295C256.719 47.5189 256.227 47.3636 255.628 47.3636C255.03 47.3636 254.537 47.5189 254.151 47.8295C253.765 48.1402 253.479 48.5473 253.293 49.0511C253.107 49.5549 253.015 50.0985 253.015 50.6818C253.015 51.2652 253.107 51.8068 253.293 52.3068C253.479 52.8068 253.765 53.2102 254.151 53.517C254.537 53.8239 255.03 53.9773 255.628 53.9773ZM262.11 55V46.2727H263.405V47.5909H263.496C263.655 47.1591 263.943 46.8087 264.36 46.5398C264.776 46.2708 265.246 46.1364 265.769 46.1364C265.867 46.1364 265.99 46.1383 266.138 46.142C266.286 46.1458 266.398 46.1515 266.473 46.1591V47.5227C266.428 47.5114 266.324 47.4943 266.161 47.4716C266.002 47.4451 265.833 47.4318 265.655 47.4318C265.231 47.4318 264.852 47.5208 264.519 47.6989C264.189 47.8731 263.928 48.1155 263.735 48.4261C263.545 48.733 263.451 49.0833 263.451 49.4773V55H262.11ZM271.936 55.1818C271.095 55.1818 270.37 54.9962 269.76 54.625C269.154 54.25 268.686 53.7273 268.357 53.0568C268.031 52.3826 267.868 51.5985 267.868 50.7045C267.868 49.8106 268.031 49.0227 268.357 48.3409C268.686 47.6553 269.145 47.1212 269.732 46.7386C270.323 46.3523 271.012 46.1591 271.8 46.1591C272.254 46.1591 272.703 46.2348 273.147 46.3864C273.59 46.5379 273.993 46.7841 274.357 47.125C274.72 47.4621 275.01 47.9091 275.226 48.4659C275.442 49.0227 275.55 49.7083 275.55 50.5227V51.0909H268.823V49.9318H274.186C274.186 49.4394 274.088 49 273.891 48.6136C273.698 48.2273 273.421 47.9223 273.061 47.6989C272.705 47.4754 272.285 47.3636 271.8 47.3636C271.266 47.3636 270.804 47.4962 270.414 47.7614C270.027 48.0227 269.73 48.3636 269.522 48.7841C269.313 49.2045 269.209 49.6553 269.209 50.1364V50.9091C269.209 51.5682 269.323 52.1269 269.55 52.5852C269.781 53.0398 270.101 53.3864 270.51 53.625C270.919 53.8598 271.395 53.9773 271.936 53.9773C272.289 53.9773 272.607 53.928 272.891 53.8295C273.179 53.7273 273.427 53.5758 273.635 53.375C273.843 53.1705 274.004 52.9167 274.118 52.6136L275.414 52.9773C275.277 53.4167 275.048 53.803 274.726 54.1364C274.404 54.4659 274.006 54.7235 273.533 54.9091C273.059 55.0909 272.527 55.1818 271.936 55.1818ZM126.559 65.2727L123.332 74H121.968L118.741 65.2727H120.196L122.605 72.2273H122.696L125.105 65.2727H126.559ZM132.156 74.1818C131.315 74.1818 130.589 73.9962 129.98 73.625C129.373 73.25 128.906 72.7273 128.576 72.0568C128.25 71.3826 128.087 70.5985 128.087 69.7045C128.087 68.8106 128.25 68.0227 128.576 67.3409C128.906 66.6553 129.364 66.1212 129.951 65.7386C130.542 65.3523 131.231 65.1591 132.019 65.1591C132.474 65.1591 132.923 65.2348 133.366 65.3864C133.809 65.5379 134.212 65.7841 134.576 66.125C134.94 66.4621 135.23 66.9091 135.445 67.4659C135.661 68.0227 135.769 68.7083 135.769 69.5227V70.0909H129.042V68.9318H134.406C134.406 68.4394 134.307 68 134.11 67.6136C133.917 67.2273 133.641 66.9223 133.281 66.6989C132.925 66.4754 132.504 66.3636 132.019 66.3636C131.485 66.3636 131.023 66.4962 130.633 66.7614C130.247 67.0227 129.949 67.3636 129.741 67.7841C129.533 68.2045 129.428 68.6553 129.428 69.1364V69.9091C129.428 70.5682 129.542 71.1269 129.769 71.5852C130 72.0398 130.32 72.3864 130.73 72.625C131.139 72.8598 131.614 72.9773 132.156 72.9773C132.508 72.9773 132.826 72.928 133.11 72.8295C133.398 72.7273 133.646 72.5758 133.855 72.375C134.063 72.1705 134.224 71.9167 134.337 71.6136L135.633 71.9773C135.497 72.4167 135.267 72.803 134.945 73.1364C134.623 73.4659 134.226 73.7235 133.752 73.9091C133.279 74.0909 132.747 74.1818 132.156 74.1818ZM141.585 74.1818C140.857 74.1818 140.215 73.9981 139.658 73.6307C139.102 73.2595 138.666 72.7367 138.352 72.0625C138.037 71.3845 137.88 70.5833 137.88 69.6591C137.88 68.7424 138.037 67.947 138.352 67.2727C138.666 66.5985 139.103 66.0777 139.664 65.7102C140.225 65.3428 140.872 65.1591 141.607 65.1591C142.175 65.1591 142.624 65.2538 142.954 65.4432C143.287 65.6288 143.541 65.8409 143.715 66.0795C143.893 66.3144 144.032 66.5076 144.13 66.6591H144.244V62.3636H145.585V74H144.289V72.6591H144.13C144.032 72.8182 143.891 73.0189 143.71 73.2614C143.528 73.5 143.268 73.714 142.931 73.9034C142.594 74.089 142.145 74.1818 141.585 74.1818ZM141.766 72.9773C142.304 72.9773 142.759 72.8371 143.13 72.5568C143.501 72.2727 143.783 71.8807 143.977 71.3807C144.17 70.8769 144.266 70.2955 144.266 69.6364C144.266 68.9848 144.172 68.4148 143.982 67.9261C143.793 67.4337 143.513 67.0511 143.141 66.7784C142.77 66.5019 142.312 66.3636 141.766 66.3636C141.198 66.3636 140.725 66.5095 140.346 66.8011C139.971 67.089 139.689 67.4811 139.499 67.9773C139.314 68.4697 139.221 69.0227 139.221 69.6364C139.221 70.2576 139.316 70.822 139.505 71.3295C139.698 71.8333 139.982 72.2348 140.357 72.5341C140.736 72.8295 141.206 72.9773 141.766 72.9773ZM157.346 74.1818C156.505 74.1818 155.779 73.9962 155.17 73.625C154.563 73.25 154.096 72.7273 153.766 72.0568C153.44 71.3826 153.277 70.5985 153.277 69.7045C153.277 68.8106 153.44 68.0227 153.766 67.3409C154.096 66.6553 154.554 66.1212 155.141 65.7386C155.732 65.3523 156.421 65.1591 157.209 65.1591C157.664 65.1591 158.113 65.2348 158.556 65.3864C158.999 65.5379 159.402 65.7841 159.766 66.125C160.13 66.4621 160.42 66.9091 160.635 67.4659C160.851 68.0227 160.959 68.7083 160.959 69.5227V70.0909H154.232V68.9318H159.596C159.596 68.4394 159.497 68 159.3 67.6136C159.107 67.2273 158.831 66.9223 158.471 66.6989C158.115 66.4754 157.694 66.3636 157.209 66.3636C156.675 66.3636 156.213 66.4962 155.823 66.7614C155.437 67.0227 155.139 67.3636 154.931 67.7841C154.723 68.2045 154.618 68.6553 154.618 69.1364V69.9091C154.618 70.5682 154.732 71.1269 154.959 71.5852C155.19 72.0398 155.51 72.3864 155.92 72.625C156.329 72.8598 156.804 72.9773 157.346 72.9773C157.698 72.9773 158.016 72.928 158.3 72.8295C158.588 72.7273 158.836 72.5758 159.045 72.375C159.253 72.1705 159.414 71.9167 159.527 71.6136L160.823 71.9773C160.687 72.4167 160.457 72.803 160.135 73.1364C159.813 73.4659 159.416 73.7235 158.942 73.9091C158.469 74.0909 157.937 74.1818 157.346 74.1818ZM164.82 62.3636V74H163.479V62.3636H164.82ZM169.097 62.3636V74H167.756V62.3636H169.097ZM175.692 74.1818C174.851 74.1818 174.126 73.9962 173.516 73.625C172.91 73.25 172.442 72.7273 172.112 72.0568C171.787 71.3826 171.624 70.5985 171.624 69.7045C171.624 68.8106 171.787 68.0227 172.112 67.3409C172.442 66.6553 172.9 66.1212 173.487 65.7386C174.078 65.3523 174.768 65.1591 175.556 65.1591C176.01 65.1591 176.459 65.2348 176.902 65.3864C177.345 65.5379 177.749 65.7841 178.112 66.125C178.476 66.4621 178.766 66.9091 178.982 67.4659C179.198 68.0227 179.306 68.7083 179.306 69.5227V70.0909H172.578V68.9318H177.942C177.942 68.4394 177.843 68 177.646 67.6136C177.453 67.2273 177.177 66.9223 176.817 66.6989C176.461 66.4754 176.04 66.3636 175.556 66.3636C175.021 66.3636 174.559 66.4962 174.169 66.7614C173.783 67.0227 173.485 67.3636 173.277 67.7841C173.069 68.2045 172.965 68.6553 172.965 69.1364V69.9091C172.965 70.5682 173.078 71.1269 173.306 71.5852C173.537 72.0398 173.857 72.3864 174.266 72.625C174.675 72.8598 175.15 72.9773 175.692 72.9773C176.044 72.9773 176.362 72.928 176.646 72.8295C176.934 72.7273 177.182 72.5758 177.391 72.375C177.599 72.1705 177.76 71.9167 177.874 71.6136L179.169 71.9773C179.033 72.4167 178.804 72.803 178.482 73.1364C178.16 73.4659 177.762 73.7235 177.289 73.9091C176.815 74.0909 176.283 74.1818 175.692 74.1818ZM181.825 74V65.2727H183.121V66.5909H183.212C183.371 66.1591 183.659 65.8087 184.075 65.5398C184.492 65.2708 184.962 65.1364 185.484 65.1364C185.583 65.1364 185.706 65.1383 185.854 65.142C186.001 65.1458 186.113 65.1515 186.189 65.1591V66.5227C186.144 66.5114 186.039 66.4943 185.876 66.4716C185.717 66.4451 185.549 66.4318 185.371 66.4318C184.947 66.4318 184.568 66.5208 184.234 66.6989C183.905 66.8731 183.644 67.1155 183.45 67.4261C183.261 67.733 183.166 68.0833 183.166 68.4773V74H181.825ZM194.579 68.75V74H193.238V62.3636H194.579V66.6364H194.693C194.898 66.1856 195.204 65.8277 195.613 65.5625C196.026 65.2936 196.576 65.1591 197.261 65.1591C197.856 65.1591 198.377 65.2784 198.824 65.517C199.271 65.7519 199.617 66.1136 199.863 66.6023C200.113 67.0871 200.238 67.7045 200.238 68.4545V74H198.898V68.5455C198.898 67.8523 198.718 67.3163 198.358 66.9375C198.002 66.5549 197.507 66.3636 196.875 66.3636C196.435 66.3636 196.041 66.4564 195.693 66.642C195.348 66.8277 195.076 67.0985 194.875 67.4545C194.678 67.8106 194.579 68.2424 194.579 68.75ZM206.717 74.1818C205.929 74.1818 205.238 73.9943 204.643 73.6193C204.052 73.2443 203.59 72.7197 203.257 72.0455C202.927 71.3712 202.762 70.5833 202.762 69.6818C202.762 68.7727 202.927 67.9792 203.257 67.3011C203.59 66.6231 204.052 66.0966 204.643 65.7216C205.238 65.3466 205.929 65.1591 206.717 65.1591C207.505 65.1591 208.194 65.3466 208.785 65.7216C209.38 66.0966 209.842 66.6231 210.172 67.3011C210.505 67.9792 210.672 68.7727 210.672 69.6818C210.672 70.5833 210.505 71.3712 210.172 72.0455C209.842 72.7197 209.38 73.2443 208.785 73.6193C208.194 73.9943 207.505 74.1818 206.717 74.1818ZM206.717 72.9773C207.316 72.9773 207.808 72.8239 208.194 72.517C208.581 72.2102 208.867 71.8068 209.052 71.3068C209.238 70.8068 209.331 70.2652 209.331 69.6818C209.331 69.0985 209.238 68.5549 209.052 68.0511C208.867 67.5473 208.581 67.1402 208.194 66.8295C207.808 66.5189 207.316 66.3636 206.717 66.3636C206.119 66.3636 205.626 66.5189 205.24 66.8295C204.853 67.1402 204.567 67.5473 204.382 68.0511C204.196 68.5549 204.103 69.0985 204.103 69.6818C204.103 70.2652 204.196 70.8068 204.382 71.3068C204.567 71.8068 204.853 72.2102 205.24 72.517C205.626 72.8239 206.119 72.9773 206.717 72.9773ZM214.539 62.3636V74H213.198V62.3636H214.539ZM220.771 74.1818C220.044 74.1818 219.401 73.9981 218.845 73.6307C218.288 73.2595 217.852 72.7367 217.538 72.0625C217.223 71.3845 217.066 70.5833 217.066 69.6591C217.066 68.7424 217.223 67.947 217.538 67.2727C217.852 66.5985 218.29 66.0777 218.85 65.7102C219.411 65.3428 220.059 65.1591 220.794 65.1591C221.362 65.1591 221.811 65.2538 222.14 65.4432C222.473 65.6288 222.727 65.8409 222.901 66.0795C223.079 66.3144 223.218 66.5076 223.316 66.6591H223.43V62.3636H224.771V74H223.475V72.6591H223.316C223.218 72.8182 223.078 73.0189 222.896 73.2614C222.714 73.5 222.454 73.714 222.117 73.9034C221.78 74.089 221.331 74.1818 220.771 74.1818ZM220.953 72.9773C221.49 72.9773 221.945 72.8371 222.316 72.5568C222.687 72.2727 222.97 71.8807 223.163 71.3807C223.356 70.8769 223.453 70.2955 223.453 69.6364C223.453 68.9848 223.358 68.4148 223.169 67.9261C222.979 67.4337 222.699 67.0511 222.328 66.7784C221.956 66.5019 221.498 66.3636 220.953 66.3636C220.384 66.3636 219.911 66.5095 219.532 66.8011C219.157 67.089 218.875 67.4811 218.686 67.9773C218.5 68.4697 218.407 69.0227 218.407 69.6364C218.407 70.2576 218.502 70.822 218.691 71.3295C218.884 71.8333 219.169 72.2348 219.544 72.5341C219.922 72.8295 220.392 72.9773 220.953 72.9773ZM231.552 74.1818C230.711 74.1818 229.986 73.9962 229.376 73.625C228.77 73.25 228.302 72.7273 227.972 72.0568C227.647 71.3826 227.484 70.5985 227.484 69.7045C227.484 68.8106 227.647 68.0227 227.972 67.3409C228.302 66.6553 228.76 66.1212 229.347 65.7386C229.938 65.3523 230.628 65.1591 231.416 65.1591C231.87 65.1591 232.319 65.2348 232.762 65.3864C233.205 65.5379 233.609 65.7841 233.972 66.125C234.336 66.4621 234.626 66.9091 234.842 67.4659C235.058 68.0227 235.166 68.7083 235.166 69.5227V70.0909H228.438V68.9318H233.802C233.802 68.4394 233.703 68 233.506 67.6136C233.313 67.2273 233.037 66.9223 232.677 66.6989C232.321 66.4754 231.9 66.3636 231.416 66.3636C230.881 66.3636 230.419 66.4962 230.029 66.7614C229.643 67.0227 229.345 67.3636 229.137 67.7841C228.929 68.2045 228.825 68.6553 228.825 69.1364V69.9091C228.825 70.5682 228.938 71.1269 229.166 71.5852C229.397 72.0398 229.717 72.3864 230.126 72.625C230.535 72.8598 231.01 72.9773 231.552 72.9773C231.904 72.9773 232.222 72.928 232.506 72.8295C232.794 72.7273 233.042 72.5758 233.251 72.375C233.459 72.1705 233.62 71.9167 233.734 71.6136L235.029 71.9773C234.893 72.4167 234.664 72.803 234.342 73.1364C234.02 73.4659 233.622 73.7235 233.149 73.9091C232.675 74.0909 232.143 74.1818 231.552 74.1818ZM246.324 74.1818C245.484 74.1818 244.758 73.9962 244.148 73.625C243.542 73.25 243.074 72.7273 242.745 72.0568C242.419 71.3826 242.256 70.5985 242.256 69.7045C242.256 68.8106 242.419 68.0227 242.745 67.3409C243.074 66.6553 243.533 66.1212 244.12 65.7386C244.711 65.3523 245.4 65.1591 246.188 65.1591C246.643 65.1591 247.091 65.2348 247.535 65.3864C247.978 65.5379 248.381 65.7841 248.745 66.125C249.109 66.4621 249.398 66.9091 249.614 67.4659C249.83 68.0227 249.938 68.7083 249.938 69.5227V70.0909H243.211V68.9318H248.574C248.574 68.4394 248.476 68 248.279 67.6136C248.086 67.2273 247.809 66.9223 247.449 66.6989C247.093 66.4754 246.673 66.3636 246.188 66.3636C245.654 66.3636 245.192 66.4962 244.802 66.7614C244.415 67.0227 244.118 67.3636 243.91 67.7841C243.701 68.2045 243.597 68.6553 243.597 69.1364V69.9091C243.597 70.5682 243.711 71.1269 243.938 71.5852C244.169 72.0398 244.489 72.3864 244.898 72.625C245.307 72.8598 245.783 72.9773 246.324 72.9773C246.677 72.9773 246.995 72.928 247.279 72.8295C247.567 72.7273 247.815 72.5758 248.023 72.375C248.232 72.1705 248.393 71.9167 248.506 71.6136L249.802 71.9773C249.665 72.4167 249.436 72.803 249.114 73.1364C248.792 73.4659 248.394 73.7235 247.921 73.9091C247.448 74.0909 246.915 74.1818 246.324 74.1818ZM253.799 68.75V74H252.458V65.2727H253.753V66.6364H253.867C254.071 66.1932 254.382 65.8371 254.799 65.5682C255.215 65.2955 255.753 65.1591 256.412 65.1591C257.003 65.1591 257.52 65.2803 257.964 65.5227C258.407 65.7614 258.751 66.125 258.998 66.6136C259.244 67.0985 259.367 67.7121 259.367 68.4545V74H258.026V68.5455C258.026 67.8598 257.848 67.3258 257.492 66.9432C257.136 66.5568 256.647 66.3636 256.026 66.3636C255.598 66.3636 255.215 66.4564 254.878 66.642C254.545 66.8277 254.282 67.0985 254.089 67.4545C253.895 67.8106 253.799 68.2424 253.799 68.75ZM123.218 84.2727V85.4091H118.696V84.2727H123.218ZM120.014 82.1818H121.355V90.5C121.355 90.8788 121.41 91.1629 121.519 91.3523C121.633 91.5379 121.777 91.6629 121.951 91.7273C122.129 91.7879 122.317 91.8182 122.514 91.8182C122.661 91.8182 122.783 91.8106 122.877 91.7955C122.972 91.7765 123.048 91.7614 123.105 91.75L123.377 92.9545C123.286 92.9886 123.16 93.0227 122.997 93.0568C122.834 93.0947 122.627 93.1136 122.377 93.1136C121.999 93.1136 121.627 93.0322 121.264 92.8693C120.904 92.7064 120.605 92.4583 120.366 92.125C120.131 91.7917 120.014 91.3712 120.014 90.8636V82.1818ZM125.715 93V84.2727H127.056V93H125.715ZM126.397 82.8182C126.136 82.8182 125.91 82.7292 125.721 82.5511C125.535 82.3731 125.443 82.1591 125.443 81.9091C125.443 81.6591 125.535 81.4451 125.721 81.267C125.91 81.089 126.136 81 126.397 81C126.659 81 126.882 81.089 127.068 81.267C127.257 81.4451 127.352 81.6591 127.352 81.9091C127.352 82.1591 127.257 82.3731 127.068 82.5511C126.882 82.7292 126.659 82.8182 126.397 82.8182ZM133.515 96.4545C132.867 96.4545 132.31 96.3712 131.844 96.2045C131.379 96.0417 130.99 95.8258 130.68 95.5568C130.373 95.2917 130.129 95.0076 129.947 94.7045L131.015 93.9545C131.136 94.1136 131.29 94.2955 131.475 94.5C131.661 94.7083 131.915 94.8883 132.237 95.0398C132.562 95.1951 132.988 95.2727 133.515 95.2727C134.219 95.2727 134.801 95.1023 135.259 94.7614C135.718 94.4205 135.947 93.8864 135.947 93.1591V91.3864H135.833C135.735 91.5455 135.594 91.7424 135.413 91.9773C135.235 92.2083 134.977 92.4148 134.64 92.5966C134.307 92.7746 133.856 92.8636 133.288 92.8636C132.583 92.8636 131.951 92.697 131.39 92.3636C130.833 92.0303 130.392 91.5455 130.066 90.9091C129.744 90.2727 129.583 89.5 129.583 88.5909C129.583 87.697 129.74 86.9186 130.055 86.2557C130.369 85.589 130.807 85.0739 131.367 84.7102C131.928 84.3428 132.576 84.1591 133.31 84.1591C133.879 84.1591 134.329 84.2538 134.663 84.4432C135 84.6288 135.257 84.8409 135.435 85.0795C135.617 85.3144 135.757 85.5076 135.856 85.6591H135.992V84.2727H137.288V93.25C137.288 94 137.117 94.6098 136.776 95.0795C136.439 95.553 135.985 95.8996 135.413 96.1193C134.844 96.3428 134.212 96.4545 133.515 96.4545ZM133.469 91.6591C134.007 91.6591 134.462 91.536 134.833 91.2898C135.204 91.0436 135.487 90.6894 135.68 90.2273C135.873 89.7652 135.969 89.2121 135.969 88.5682C135.969 87.9394 135.875 87.3845 135.685 86.9034C135.496 86.4223 135.216 86.0455 134.844 85.7727C134.473 85.5 134.015 85.3636 133.469 85.3636C132.901 85.3636 132.428 85.5076 132.049 85.7955C131.674 86.0833 131.392 86.4697 131.202 86.9545C131.017 87.4394 130.924 87.9773 130.924 88.5682C130.924 89.1742 131.019 89.7102 131.208 90.1761C131.401 90.6383 131.685 91.0019 132.06 91.267C132.439 91.5284 132.909 91.6591 133.469 91.6591ZM143.881 93.1818C143.04 93.1818 142.315 92.9962 141.705 92.625C141.099 92.25 140.631 91.7273 140.302 91.0568C139.976 90.3826 139.813 89.5985 139.813 88.7045C139.813 87.8106 139.976 87.0227 140.302 86.3409C140.631 85.6553 141.09 85.1212 141.677 84.7386C142.268 84.3523 142.957 84.1591 143.745 84.1591C144.199 84.1591 144.648 84.2348 145.092 84.3864C145.535 84.5379 145.938 84.7841 146.302 85.125C146.665 85.4621 146.955 85.9091 147.171 86.4659C147.387 87.0227 147.495 87.7083 147.495 88.5227V89.0909H140.768V87.9318H146.131C146.131 87.4394 146.033 87 145.836 86.6136C145.643 86.2273 145.366 85.9223 145.006 85.6989C144.65 85.4754 144.23 85.3636 143.745 85.3636C143.211 85.3636 142.749 85.4962 142.359 85.7614C141.972 86.0227 141.675 86.3636 141.467 86.7841C141.258 87.2045 141.154 87.6553 141.154 88.1364V88.9091C141.154 89.5682 141.268 90.1269 141.495 90.5852C141.726 91.0398 142.046 91.3864 142.455 91.625C142.864 91.8598 143.34 91.9773 143.881 91.9773C144.234 91.9773 144.552 91.928 144.836 91.8295C145.124 91.7273 145.372 91.5758 145.58 91.375C145.788 91.1705 145.949 90.9167 146.063 90.6136L147.359 90.9773C147.222 91.4167 146.993 91.803 146.671 92.1364C146.349 92.4659 145.951 92.7235 145.478 92.9091C145.004 93.0909 144.472 93.1818 143.881 93.1818ZM150.015 93V84.2727H151.31V85.5909H151.401C151.56 85.1591 151.848 84.8087 152.265 84.5398C152.681 84.2708 153.151 84.1364 153.674 84.1364C153.772 84.1364 153.895 84.1383 154.043 84.142C154.191 84.1458 154.303 84.1515 154.378 84.1591V85.5227C154.333 85.5114 154.229 85.4943 154.066 85.4716C153.907 85.4451 153.738 85.4318 153.56 85.4318C153.136 85.4318 152.757 85.5208 152.424 85.6989C152.094 85.8731 151.833 86.1155 151.64 86.4261C151.45 86.733 151.356 87.0833 151.356 87.4773V93H150.015ZM156.448 96.2727V84.2727H157.743V85.6591H157.902C158.001 85.5076 158.137 85.3144 158.311 85.0795C158.489 84.8409 158.743 84.6288 159.073 84.4432C159.406 84.2538 159.857 84.1591 160.425 84.1591C161.16 84.1591 161.808 84.3428 162.368 84.7102C162.929 85.0777 163.366 85.5985 163.681 86.2727C163.995 86.947 164.152 87.7424 164.152 88.6591C164.152 89.5833 163.995 90.3845 163.681 91.0625C163.366 91.7367 162.931 92.2595 162.374 92.6307C161.817 92.9981 161.175 93.1818 160.448 93.1818C159.887 93.1818 159.438 93.089 159.101 92.9034C158.764 92.714 158.505 92.5 158.323 92.2614C158.141 92.0189 158.001 91.8182 157.902 91.6591H157.789V96.2727H156.448ZM157.766 88.6364C157.766 89.2955 157.863 89.8769 158.056 90.3807C158.249 90.8807 158.531 91.2727 158.902 91.5568C159.274 91.8371 159.728 91.9773 160.266 91.9773C160.827 91.9773 161.294 91.8295 161.669 91.5341C162.048 91.2348 162.332 90.8333 162.522 90.3295C162.715 89.822 162.811 89.2576 162.811 88.6364C162.811 88.0227 162.717 87.4697 162.527 86.9773C162.342 86.4811 162.06 86.089 161.681 85.8011C161.306 85.5095 160.834 85.3636 160.266 85.3636C159.721 85.3636 159.262 85.5019 158.891 85.7784C158.52 86.0511 158.239 86.4337 158.05 86.9261C157.861 87.4148 157.766 87.9848 157.766 88.6364ZM167.229 96.2727C167.002 96.2727 166.799 96.2538 166.621 96.2159C166.443 96.1818 166.32 96.1477 166.252 96.1136L166.593 94.9318C166.918 95.0152 167.206 95.0455 167.456 95.0227C167.706 95 167.928 94.8883 168.121 94.6875C168.318 94.4905 168.498 94.1705 168.661 93.7273L168.911 93.0455L165.684 84.2727H167.138L169.547 91.2273H169.638L172.047 84.2727H173.502L169.797 94.2727C169.63 94.7235 169.424 95.0966 169.178 95.392C168.932 95.6913 168.646 95.9129 168.32 96.0568C167.998 96.2008 167.634 96.2727 167.229 96.2727ZM179.547 84.2727V85.4091H175.024V84.2727H179.547ZM176.342 82.1818H177.683V90.5C177.683 90.8788 177.738 91.1629 177.848 91.3523C177.962 91.5379 178.106 91.6629 178.28 91.7273C178.458 91.7879 178.646 91.8182 178.842 91.8182C178.99 91.8182 179.111 91.8106 179.206 91.7955C179.301 91.7765 179.377 91.7614 179.433 91.75L179.706 92.9545C179.615 92.9886 179.488 93.0227 179.325 93.0568C179.163 93.0947 178.956 93.1136 178.706 93.1136C178.327 93.1136 177.956 93.0322 177.592 92.8693C177.233 92.7064 176.933 92.4583 176.695 92.125C176.46 91.7917 176.342 91.3712 176.342 90.8636V82.1818ZM183.572 87.75V93H182.232V81.3636H183.572V85.6364H183.686C183.891 85.1856 184.197 84.8277 184.607 84.5625C185.019 84.2936 185.569 84.1591 186.254 84.1591C186.849 84.1591 187.37 84.2784 187.817 84.517C188.264 84.7519 188.61 85.1136 188.857 85.6023C189.107 86.0871 189.232 86.7045 189.232 87.4545V93H187.891V87.5455C187.891 86.8523 187.711 86.3163 187.351 85.9375C186.995 85.5549 186.501 85.3636 185.868 85.3636C185.429 85.3636 185.035 85.4564 184.686 85.642C184.341 85.8277 184.069 86.0985 183.868 86.4545C183.671 86.8106 183.572 87.2424 183.572 87.75ZM195.71 93.1818C194.922 93.1818 194.231 92.9943 193.636 92.6193C193.045 92.2443 192.583 91.7197 192.25 91.0455C191.92 90.3712 191.756 89.5833 191.756 88.6818C191.756 87.7727 191.92 86.9792 192.25 86.3011C192.583 85.6231 193.045 85.0966 193.636 84.7216C194.231 84.3466 194.922 84.1591 195.71 84.1591C196.498 84.1591 197.187 84.3466 197.778 84.7216C198.373 85.0966 198.835 85.6231 199.165 86.3011C199.498 86.9792 199.665 87.7727 199.665 88.6818C199.665 89.5833 199.498 90.3712 199.165 91.0455C198.835 91.7197 198.373 92.2443 197.778 92.6193C197.187 92.9943 196.498 93.1818 195.71 93.1818ZM195.71 91.9773C196.309 91.9773 196.801 91.8239 197.187 91.517C197.574 91.2102 197.86 90.8068 198.045 90.3068C198.231 89.8068 198.324 89.2652 198.324 88.6818C198.324 88.0985 198.231 87.5549 198.045 87.0511C197.86 86.5473 197.574 86.1402 197.187 85.8295C196.801 85.5189 196.309 85.3636 195.71 85.3636C195.112 85.3636 194.619 85.5189 194.233 85.8295C193.847 86.1402 193.561 86.5473 193.375 87.0511C193.189 87.5549 193.097 88.0985 193.097 88.6818C193.097 89.2652 193.189 89.8068 193.375 90.3068C193.561 90.8068 193.847 91.2102 194.233 91.517C194.619 91.8239 195.112 91.9773 195.71 91.9773ZM203.532 87.75V93H202.192V84.2727H203.487V85.6364H203.601C203.805 85.1932 204.116 84.8371 204.532 84.5682C204.949 84.2955 205.487 84.1591 206.146 84.1591C206.737 84.1591 207.254 84.2803 207.697 84.5227C208.14 84.7614 208.485 85.125 208.731 85.6136C208.978 86.0985 209.101 86.7121 209.101 87.4545V93H207.76V87.5455C207.76 86.8598 207.582 86.3258 207.226 85.9432C206.87 85.5568 206.381 85.3636 205.76 85.3636C205.332 85.3636 204.949 85.4564 204.612 85.642C204.279 85.8277 204.015 86.0985 203.822 86.4545C203.629 86.8106 203.532 87.2424 203.532 87.75ZM220.556 93.1818C219.769 93.1818 219.077 92.9943 218.483 92.6193C217.892 92.2443 217.43 91.7197 217.096 91.0455C216.767 90.3712 216.602 89.5833 216.602 88.6818C216.602 87.7727 216.767 86.9792 217.096 86.3011C217.43 85.6231 217.892 85.0966 218.483 84.7216C219.077 84.3466 219.769 84.1591 220.556 84.1591C221.344 84.1591 222.034 84.3466 222.625 84.7216C223.219 85.0966 223.681 85.6231 224.011 86.3011C224.344 86.9792 224.511 87.7727 224.511 88.6818C224.511 89.5833 224.344 90.3712 224.011 91.0455C223.681 91.7197 223.219 92.2443 222.625 92.6193C222.034 92.9943 221.344 93.1818 220.556 93.1818ZM220.556 91.9773C221.155 91.9773 221.647 91.8239 222.034 91.517C222.42 91.2102 222.706 90.8068 222.892 90.3068C223.077 89.8068 223.17 89.2652 223.17 88.6818C223.17 88.0985 223.077 87.5549 222.892 87.0511C222.706 86.5473 222.42 86.1402 222.034 85.8295C221.647 85.5189 221.155 85.3636 220.556 85.3636C219.958 85.3636 219.466 85.5189 219.079 85.8295C218.693 86.1402 218.407 86.5473 218.221 87.0511C218.036 87.5549 217.943 88.0985 217.943 88.6818C217.943 89.2652 218.036 89.8068 218.221 90.3068C218.407 90.8068 218.693 91.2102 219.079 91.517C219.466 91.8239 219.958 91.9773 220.556 91.9773ZM230.561 96.4545C229.913 96.4545 229.356 96.3712 228.89 96.2045C228.424 96.0417 228.036 95.8258 227.725 95.5568C227.419 95.2917 227.174 95.0076 226.992 94.7045L228.061 93.9545C228.182 94.1136 228.335 94.2955 228.521 94.5C228.706 94.7083 228.96 94.8883 229.282 95.0398C229.608 95.1951 230.034 95.2727 230.561 95.2727C231.265 95.2727 231.847 95.1023 232.305 94.7614C232.763 94.4205 232.992 93.8864 232.992 93.1591V91.3864H232.879C232.78 91.5455 232.64 91.7424 232.458 91.9773C232.28 92.2083 232.023 92.4148 231.686 92.5966C231.352 92.7746 230.901 92.8636 230.333 92.8636C229.629 92.8636 228.996 92.697 228.436 92.3636C227.879 92.0303 227.437 91.5455 227.112 90.9091C226.79 90.2727 226.629 89.5 226.629 88.5909C226.629 87.697 226.786 86.9186 227.1 86.2557C227.415 85.589 227.852 85.0739 228.413 84.7102C228.973 84.3428 229.621 84.1591 230.356 84.1591C230.924 84.1591 231.375 84.2538 231.708 84.4432C232.045 84.6288 232.303 84.8409 232.481 85.0795C232.663 85.3144 232.803 85.5076 232.901 85.6591H233.038V84.2727H234.333V93.25C234.333 94 234.163 94.6098 233.822 95.0795C233.485 95.553 233.03 95.8996 232.458 96.1193C231.89 96.3428 231.258 96.4545 230.561 96.4545ZM230.515 91.6591C231.053 91.6591 231.508 91.536 231.879 91.2898C232.25 91.0436 232.532 90.6894 232.725 90.2273C232.919 89.7652 233.015 89.2121 233.015 88.5682C233.015 87.9394 232.92 87.3845 232.731 86.9034C232.542 86.4223 232.261 86.0455 231.89 85.7727C231.519 85.5 231.061 85.3636 230.515 85.3636C229.947 85.3636 229.473 85.5076 229.095 85.7955C228.72 86.0833 228.437 86.4697 228.248 86.9545C228.062 87.4394 227.97 87.9773 227.97 88.5682C227.97 89.1742 228.064 89.7102 228.254 90.1761C228.447 90.6383 228.731 91.0019 229.106 91.267C229.485 91.5284 229.954 91.6591 230.515 91.6591ZM244.816 93.2045C244.263 93.2045 243.761 93.1004 243.31 92.892C242.86 92.6799 242.502 92.375 242.236 91.9773C241.971 91.5758 241.839 91.0909 241.839 90.5227C241.839 90.0227 241.937 89.6174 242.134 89.3068C242.331 88.9924 242.594 88.7462 242.924 88.5682C243.254 88.3902 243.617 88.2576 244.015 88.1705C244.416 88.0795 244.82 88.0076 245.225 87.9545C245.755 87.8864 246.185 87.8352 246.515 87.8011C246.848 87.7633 247.091 87.7008 247.242 87.6136C247.397 87.5265 247.475 87.375 247.475 87.1591V87.1136C247.475 86.553 247.322 86.1174 247.015 85.8068C246.712 85.4962 246.252 85.3409 245.634 85.3409C244.994 85.3409 244.492 85.4811 244.129 85.7614C243.765 86.0417 243.509 86.3409 243.361 86.6591L242.089 86.2045C242.316 85.6742 242.619 85.2614 242.998 84.9659C243.38 84.6667 243.797 84.4583 244.248 84.3409C244.702 84.2197 245.149 84.1591 245.589 84.1591C245.869 84.1591 246.191 84.1932 246.555 84.2614C246.922 84.3258 247.276 84.4602 247.617 84.6648C247.962 84.8693 248.248 85.178 248.475 85.5909C248.702 86.0038 248.816 86.5568 248.816 87.25V93H247.475V91.8182H247.407C247.316 92.0076 247.164 92.2102 246.952 92.4261C246.74 92.642 246.458 92.8258 246.106 92.9773C245.754 93.1288 245.324 93.2045 244.816 93.2045ZM245.021 92C245.551 92 245.998 91.8958 246.361 91.6875C246.729 91.4792 247.005 91.2102 247.191 90.8807C247.38 90.5511 247.475 90.2045 247.475 89.8409V88.6136C247.418 88.6818 247.293 88.7443 247.1 88.8011C246.911 88.8542 246.691 88.9015 246.441 88.9432C246.195 88.9811 245.954 89.0152 245.719 89.0455C245.488 89.072 245.301 89.0947 245.157 89.1136C244.808 89.1591 244.483 89.233 244.18 89.3352C243.88 89.4337 243.638 89.5833 243.452 89.7841C243.271 89.9811 243.18 90.25 243.18 90.5909C243.18 91.0568 243.352 91.4091 243.697 91.6477C244.045 91.8826 244.486 92 245.021 92ZM253.084 87.75V93H251.743V84.2727H253.039V85.6364H253.153C253.357 85.1932 253.668 84.8371 254.084 84.5682C254.501 84.2955 255.039 84.1591 255.698 84.1591C256.289 84.1591 256.806 84.2803 257.249 84.5227C257.692 84.7614 258.037 85.125 258.283 85.6136C258.529 86.0985 258.653 86.7121 258.653 87.4545V93H257.312V87.5455C257.312 86.8598 257.134 86.3258 256.778 85.9432C256.421 85.5568 255.933 85.3636 255.312 85.3636C254.884 85.3636 254.501 85.4564 254.164 85.642C253.831 85.8277 253.567 86.0985 253.374 86.4545C253.181 86.8106 253.084 87.2424 253.084 87.75ZM264.878 93.1818C264.151 93.1818 263.509 92.9981 262.952 92.6307C262.395 92.2595 261.96 91.7367 261.645 91.0625C261.331 90.3845 261.174 89.5833 261.174 88.6591C261.174 87.7424 261.331 86.947 261.645 86.2727C261.96 85.5985 262.397 85.0777 262.958 84.7102C263.518 84.3428 264.166 84.1591 264.901 84.1591C265.469 84.1591 265.918 84.2538 266.248 84.4432C266.581 84.6288 266.835 84.8409 267.009 85.0795C267.187 85.3144 267.325 85.5076 267.424 85.6591H267.537V81.3636H268.878V93H267.583V91.6591H267.424C267.325 91.8182 267.185 92.0189 267.003 92.2614C266.821 92.5 266.562 92.714 266.225 92.9034C265.888 93.089 265.439 93.1818 264.878 93.1818ZM265.06 91.9773C265.598 91.9773 266.053 91.8371 266.424 91.5568C266.795 91.2727 267.077 90.8807 267.27 90.3807C267.464 89.8769 267.56 89.2955 267.56 88.6364C267.56 87.9848 267.465 87.4148 267.276 86.9261C267.087 86.4337 266.806 86.0511 266.435 85.7784C266.064 85.5019 265.606 85.3636 265.06 85.3636C264.492 85.3636 264.018 85.5095 263.64 85.8011C263.265 86.089 262.982 86.4811 262.793 86.9773C262.607 87.4697 262.515 88.0227 262.515 88.6364C262.515 89.2576 262.609 89.822 262.799 90.3295C262.992 90.8333 263.276 91.2348 263.651 91.5341C264.03 91.8295 264.499 91.9773 265.06 91.9773ZM272 93V84.2727H273.296V85.5909H273.387C273.546 85.1591 273.834 84.8087 274.25 84.5398C274.667 84.2708 275.137 84.1364 275.659 84.1364C275.758 84.1364 275.881 84.1383 276.029 84.142C276.176 84.1458 276.288 84.1515 276.364 84.1591V85.5227C276.319 85.5114 276.214 85.4943 276.051 85.4716C275.892 85.4451 275.724 85.4318 275.546 85.4318C275.122 85.4318 274.743 85.5208 274.409 85.6989C274.08 85.8731 273.819 86.1155 273.625 86.4261C273.436 86.733 273.341 87.0833 273.341 87.4773V93H272ZM281.827 93.1818C280.986 93.1818 280.261 92.9962 279.651 92.625C279.045 92.25 278.577 91.7273 278.247 91.0568C277.922 90.3826 277.759 89.5985 277.759 88.7045C277.759 87.8106 277.922 87.0227 278.247 86.3409C278.577 85.6553 279.035 85.1212 279.622 84.7386C280.213 84.3523 280.903 84.1591 281.691 84.1591C282.145 84.1591 282.594 84.2348 283.037 84.3864C283.48 84.5379 283.884 84.7841 284.247 85.125C284.611 85.4621 284.901 85.9091 285.117 86.4659C285.333 87.0227 285.441 87.7083 285.441 88.5227V89.0909H278.713V87.9318H284.077C284.077 87.4394 283.978 87 283.781 86.6136C283.588 86.2273 283.312 85.9223 282.952 85.6989C282.596 85.4754 282.175 85.3636 281.691 85.3636C281.156 85.3636 280.694 85.4962 280.304 85.7614C279.918 86.0227 279.62 86.3636 279.412 86.7841C279.204 87.2045 279.1 87.6553 279.1 88.1364V88.9091C279.1 89.5682 279.213 90.1269 279.441 90.5852C279.672 91.0398 279.992 91.3864 280.401 91.625C280.81 91.8598 281.285 91.9773 281.827 91.9773C282.179 91.9773 282.497 91.928 282.781 91.8295C283.069 91.7273 283.317 91.5758 283.526 91.375C283.734 91.1705 283.895 90.9167 284.009 90.6136L285.304 90.9773C285.168 91.4167 284.939 91.803 284.617 92.1364C284.295 92.4659 283.897 92.7235 283.424 92.9091C282.95 93.0909 282.418 93.1818 281.827 93.1818ZM125.605 105.227L124.4 105.568C124.324 105.367 124.213 105.172 124.065 104.983C123.921 104.79 123.724 104.631 123.474 104.506C123.224 104.381 122.904 104.318 122.514 104.318C121.98 104.318 121.535 104.441 121.179 104.688C120.826 104.93 120.65 105.239 120.65 105.614C120.65 105.947 120.771 106.21 121.014 106.403C121.256 106.597 121.635 106.758 122.15 106.886L123.446 107.205C124.226 107.394 124.807 107.684 125.19 108.074C125.572 108.46 125.764 108.958 125.764 109.568C125.764 110.068 125.62 110.515 125.332 110.909C125.048 111.303 124.65 111.614 124.139 111.841C123.627 112.068 123.033 112.182 122.355 112.182C121.464 112.182 120.728 111.989 120.144 111.602C119.561 111.216 119.192 110.652 119.036 109.909L120.309 109.591C120.43 110.061 120.66 110.413 120.997 110.648C121.338 110.883 121.783 111 122.332 111C122.957 111 123.453 110.867 123.821 110.602C124.192 110.333 124.377 110.011 124.377 109.636C124.377 109.333 124.271 109.08 124.059 108.875C123.847 108.667 123.521 108.511 123.082 108.409L121.627 108.068C120.828 107.879 120.241 107.585 119.866 107.188C119.495 106.786 119.309 106.284 119.309 105.682C119.309 105.189 119.447 104.754 119.724 104.375C120.004 103.996 120.385 103.699 120.866 103.483C121.351 103.267 121.9 103.159 122.514 103.159C123.377 103.159 124.055 103.348 124.548 103.727C125.044 104.106 125.396 104.606 125.605 105.227ZM129.603 100.364V112H128.262V100.364H129.603ZM135.107 112.205C134.554 112.205 134.052 112.1 133.602 111.892C133.151 111.68 132.793 111.375 132.528 110.977C132.263 110.576 132.13 110.091 132.13 109.523C132.13 109.023 132.228 108.617 132.425 108.307C132.622 107.992 132.886 107.746 133.215 107.568C133.545 107.39 133.908 107.258 134.306 107.17C134.708 107.08 135.111 107.008 135.516 106.955C136.047 106.886 136.477 106.835 136.806 106.801C137.139 106.763 137.382 106.701 137.533 106.614C137.689 106.527 137.766 106.375 137.766 106.159V106.114C137.766 105.553 137.613 105.117 137.306 104.807C137.003 104.496 136.543 104.341 135.925 104.341C135.285 104.341 134.783 104.481 134.42 104.761C134.056 105.042 133.8 105.341 133.653 105.659L132.38 105.205C132.607 104.674 132.91 104.261 133.289 103.966C133.672 103.667 134.088 103.458 134.539 103.341C134.994 103.22 135.441 103.159 135.88 103.159C136.16 103.159 136.482 103.193 136.846 103.261C137.213 103.326 137.567 103.46 137.908 103.665C138.253 103.869 138.539 104.178 138.766 104.591C138.994 105.004 139.107 105.557 139.107 106.25V112H137.766V110.818H137.698C137.607 111.008 137.456 111.21 137.244 111.426C137.032 111.642 136.749 111.826 136.397 111.977C136.045 112.129 135.615 112.205 135.107 112.205ZM135.312 111C135.842 111 136.289 110.896 136.653 110.688C137.02 110.479 137.297 110.21 137.482 109.881C137.672 109.551 137.766 109.205 137.766 108.841V107.614C137.71 107.682 137.585 107.744 137.391 107.801C137.202 107.854 136.982 107.902 136.732 107.943C136.486 107.981 136.246 108.015 136.011 108.045C135.78 108.072 135.592 108.095 135.448 108.114C135.1 108.159 134.774 108.233 134.471 108.335C134.172 108.434 133.929 108.583 133.744 108.784C133.562 108.981 133.471 109.25 133.471 109.591C133.471 110.057 133.643 110.409 133.988 110.648C134.336 110.883 134.778 111 135.312 111ZM143.376 106.75V112H142.035V103.273H143.33V104.636H143.444C143.648 104.193 143.959 103.837 144.376 103.568C144.792 103.295 145.33 103.159 145.989 103.159C146.58 103.159 147.097 103.28 147.54 103.523C147.984 103.761 148.328 104.125 148.574 104.614C148.821 105.098 148.944 105.712 148.944 106.455V112H147.603V106.545C147.603 105.86 147.425 105.326 147.069 104.943C146.713 104.557 146.224 104.364 145.603 104.364C145.175 104.364 144.792 104.456 144.455 104.642C144.122 104.828 143.859 105.098 143.665 105.455C143.472 105.811 143.376 106.242 143.376 106.75ZM155.397 115.455C154.749 115.455 154.192 115.371 153.726 115.205C153.26 115.042 152.872 114.826 152.562 114.557C152.255 114.292 152.01 114.008 151.829 113.705L152.897 112.955C153.018 113.114 153.171 113.295 153.357 113.5C153.543 113.708 153.796 113.888 154.118 114.04C154.444 114.195 154.87 114.273 155.397 114.273C156.101 114.273 156.683 114.102 157.141 113.761C157.599 113.42 157.829 112.886 157.829 112.159V110.386H157.715C157.617 110.545 157.476 110.742 157.295 110.977C157.117 111.208 156.859 111.415 156.522 111.597C156.188 111.775 155.738 111.864 155.17 111.864C154.465 111.864 153.832 111.697 153.272 111.364C152.715 111.03 152.274 110.545 151.948 109.909C151.626 109.273 151.465 108.5 151.465 107.591C151.465 106.697 151.622 105.919 151.937 105.256C152.251 104.589 152.688 104.074 153.249 103.71C153.81 103.343 154.457 103.159 155.192 103.159C155.76 103.159 156.211 103.254 156.545 103.443C156.882 103.629 157.139 103.841 157.317 104.08C157.499 104.314 157.639 104.508 157.738 104.659H157.874V103.273H159.17V112.25C159.17 113 158.999 113.61 158.658 114.08C158.321 114.553 157.867 114.9 157.295 115.119C156.726 115.343 156.094 115.455 155.397 115.455ZM155.351 110.659C155.889 110.659 156.344 110.536 156.715 110.29C157.086 110.044 157.368 109.689 157.562 109.227C157.755 108.765 157.851 108.212 157.851 107.568C157.851 106.939 157.757 106.384 157.567 105.903C157.378 105.422 157.098 105.045 156.726 104.773C156.355 104.5 155.897 104.364 155.351 104.364C154.783 104.364 154.31 104.508 153.931 104.795C153.556 105.083 153.274 105.47 153.084 105.955C152.899 106.439 152.806 106.977 152.806 107.568C152.806 108.174 152.901 108.71 153.09 109.176C153.283 109.638 153.567 110.002 153.942 110.267C154.321 110.528 154.791 110.659 155.351 110.659ZM165.763 112.182C164.922 112.182 164.197 111.996 163.587 111.625C162.981 111.25 162.513 110.727 162.184 110.057C161.858 109.383 161.695 108.598 161.695 107.705C161.695 106.811 161.858 106.023 162.184 105.341C162.513 104.655 162.972 104.121 163.559 103.739C164.15 103.352 164.839 103.159 165.627 103.159C166.081 103.159 166.53 103.235 166.973 103.386C167.417 103.538 167.82 103.784 168.184 104.125C168.547 104.462 168.837 104.909 169.053 105.466C169.269 106.023 169.377 106.708 169.377 107.523V108.091H162.65V106.932H168.013C168.013 106.439 167.915 106 167.718 105.614C167.525 105.227 167.248 104.922 166.888 104.699C166.532 104.475 166.112 104.364 165.627 104.364C165.093 104.364 164.631 104.496 164.24 104.761C163.854 105.023 163.557 105.364 163.348 105.784C163.14 106.205 163.036 106.655 163.036 107.136V107.909C163.036 108.568 163.15 109.127 163.377 109.585C163.608 110.04 163.928 110.386 164.337 110.625C164.746 110.86 165.222 110.977 165.763 110.977C166.115 110.977 166.434 110.928 166.718 110.83C167.006 110.727 167.254 110.576 167.462 110.375C167.67 110.17 167.831 109.917 167.945 109.614L169.24 109.977C169.104 110.417 168.875 110.803 168.553 111.136C168.231 111.466 167.833 111.723 167.36 111.909C166.886 112.091 166.354 112.182 165.763 112.182ZM171.897 112V103.273H173.192V104.591H173.283C173.442 104.159 173.73 103.809 174.147 103.54C174.563 103.271 175.033 103.136 175.556 103.136C175.654 103.136 175.777 103.138 175.925 103.142C176.073 103.146 176.184 103.152 176.26 103.159V104.523C176.215 104.511 176.111 104.494 175.948 104.472C175.789 104.445 175.62 104.432 175.442 104.432C175.018 104.432 174.639 104.521 174.306 104.699C173.976 104.873 173.715 105.116 173.522 105.426C173.332 105.733 173.237 106.083 173.237 106.477V112H171.897Z" fill="#FCFAEE"/>
<path d="M125.364 28.2598C125.364 28.0059 125.341 27.7747 125.295 27.5664C125.25 27.3581 125.152 27.166 125.002 26.9902C124.859 26.8145 124.647 26.6387 124.367 26.4629C124.094 26.2871 123.736 26.1048 123.293 25.916C122.766 25.6947 122.255 25.4603 121.76 25.2129C121.265 24.959 120.819 24.666 120.422 24.334C120.025 24.002 119.709 23.6113 119.475 23.1621C119.247 22.7064 119.133 22.1725 119.133 21.5605C119.133 20.9616 119.24 20.418 119.455 19.9297C119.677 19.4414 119.989 19.0247 120.393 18.6797C120.796 18.3281 121.268 18.0579 121.809 17.8691C122.356 17.6803 122.964 17.5859 123.635 17.5859C124.546 17.5859 125.334 17.7747 125.998 18.1523C126.669 18.5299 127.186 19.0475 127.551 19.7051C127.922 20.3626 128.108 21.1178 128.108 21.9707H125.256C125.256 21.5671 125.198 21.2122 125.08 20.9062C124.97 20.5938 124.791 20.3496 124.543 20.1738C124.296 19.998 123.977 19.9102 123.586 19.9102C123.222 19.9102 122.919 19.985 122.678 20.1348C122.444 20.278 122.268 20.4766 122.151 20.7305C122.04 20.9779 121.985 21.2578 121.985 21.5703C121.985 21.8047 122.04 22.0163 122.151 22.2051C122.268 22.3874 122.427 22.5534 122.629 22.7031C122.831 22.8464 123.069 22.9863 123.342 23.123C123.622 23.2598 123.928 23.3932 124.26 23.5234C124.905 23.7773 125.474 24.0573 125.969 24.3633C126.464 24.6628 126.877 25.0013 127.209 25.3789C127.541 25.75 127.792 26.1699 127.961 26.6387C128.13 27.1074 128.215 27.6413 128.215 28.2402C128.215 28.8327 128.111 29.373 127.903 29.8613C127.701 30.3431 127.405 30.7598 127.014 31.1113C126.623 31.4564 126.151 31.7233 125.598 31.9121C125.051 32.1009 124.439 32.1953 123.762 32.1953C123.104 32.1953 122.483 32.1042 121.897 31.9219C121.311 31.7331 120.793 31.4499 120.344 31.0723C119.901 30.6882 119.553 30.2031 119.299 29.6172C119.045 29.0247 118.918 28.3249 118.918 27.5176H121.78C121.78 27.9473 121.822 28.3151 121.906 28.6211C121.991 28.9206 122.121 29.1615 122.297 29.3438C122.473 29.5195 122.688 29.653 122.942 29.7441C123.202 29.8288 123.498 29.8711 123.83 29.8711C124.208 29.8711 124.507 29.7995 124.729 29.6562C124.957 29.513 125.119 29.321 125.217 29.0801C125.315 28.8392 125.364 28.5658 125.364 28.2598ZM133.483 17V32H130.739V17H133.483ZM140.909 29.5684V24.6855C140.909 24.3665 140.87 24.1126 140.792 23.9238C140.72 23.735 140.61 23.5983 140.46 23.5137C140.317 23.4225 140.141 23.377 139.933 23.377C139.698 23.377 139.503 23.4258 139.347 23.5234C139.19 23.6211 139.073 23.7611 138.995 23.9434C138.924 24.1257 138.888 24.3438 138.888 24.5977H136.144C136.144 24.1419 136.231 23.7122 136.407 23.3086C136.583 22.8984 136.84 22.5404 137.179 22.2344C137.524 21.9219 137.934 21.6777 138.409 21.502C138.884 21.3262 139.418 21.2383 140.011 21.2383C140.714 21.2383 141.339 21.3587 141.886 21.5996C142.433 21.834 142.866 22.2083 143.185 22.7227C143.504 23.237 143.663 23.9043 143.663 24.7246V29.4316C143.663 30.0241 143.692 30.5059 143.751 30.877C143.816 31.248 143.911 31.5671 144.034 31.834V32H141.28C141.157 31.707 141.062 31.3424 140.997 30.9062C140.939 30.4635 140.909 30.0176 140.909 29.5684ZM141.241 25.5449L141.251 27.1855H140.245C139.985 27.1855 139.757 27.2279 139.562 27.3125C139.373 27.3971 139.213 27.5176 139.083 27.6738C138.953 27.8236 138.855 27.9993 138.79 28.2012C138.731 28.403 138.702 28.6178 138.702 28.8457C138.702 29.0996 138.738 29.3145 138.81 29.4902C138.881 29.666 138.989 29.7995 139.132 29.8906C139.275 29.9818 139.444 30.0273 139.64 30.0273C139.939 30.0273 140.2 29.9655 140.421 29.8418C140.642 29.7181 140.805 29.5684 140.909 29.3926C141.02 29.2168 141.056 29.054 141.017 28.9043L141.642 29.9688C141.564 30.2096 141.456 30.4603 141.319 30.7207C141.189 30.9811 141.023 31.222 140.821 31.4434C140.62 31.6647 140.369 31.847 140.069 31.9902C139.776 32.127 139.428 32.1953 139.024 32.1953C138.458 32.1953 137.94 32.0651 137.472 31.8047C137.003 31.5443 136.632 31.1797 136.358 30.7109C136.092 30.2422 135.958 29.6855 135.958 29.041C135.958 28.5072 136.043 28.0254 136.212 27.5957C136.388 27.1595 136.648 26.7917 136.993 26.4922C137.338 26.1862 137.774 25.9518 138.302 25.7891C138.829 25.6263 139.448 25.5449 140.157 25.5449H141.241ZM148.97 23.6895V32H146.226V21.4336H148.794L148.97 23.6895ZM148.56 26.3555L147.828 26.375C147.815 25.5807 147.889 24.8678 148.052 24.2363C148.221 23.6048 148.459 23.0677 148.765 22.625C149.078 22.1758 149.449 21.834 149.878 21.5996C150.315 21.3587 150.8 21.2383 151.333 21.2383C151.744 21.2383 152.118 21.3099 152.456 21.4531C152.802 21.5964 153.098 21.8242 153.345 22.1367C153.593 22.4492 153.785 22.8659 153.921 23.3867C154.058 23.901 154.126 24.5326 154.126 25.2812V32H151.382V25.2617C151.382 24.806 151.337 24.4544 151.246 24.207C151.154 23.9531 151.018 23.7773 150.835 23.6797C150.653 23.5755 150.425 23.5234 150.152 23.5234C149.891 23.5234 149.66 23.5983 149.458 23.748C149.257 23.8913 149.087 24.0898 148.951 24.3438C148.82 24.5977 148.72 24.8971 148.648 25.2422C148.583 25.5872 148.553 25.9583 148.56 26.3555ZM162.285 21.4336H164.765V32C164.765 32.9635 164.58 33.7513 164.209 34.3633C163.844 34.9818 163.333 35.4342 162.676 35.7207C162.025 36.0137 161.263 36.1602 160.39 36.1602C160.058 36.1602 159.684 36.1146 159.267 36.0234C158.857 35.9323 158.46 35.7923 158.076 35.6035C157.692 35.4212 157.376 35.1999 157.129 34.9395L158.056 33.0449C158.31 33.2988 158.642 33.5137 159.053 33.6895C159.463 33.8717 159.866 33.9629 160.264 33.9629C160.648 33.9629 160.967 33.901 161.221 33.7773C161.481 33.6602 161.676 33.4583 161.806 33.1719C161.943 32.8854 162.012 32.5013 162.012 32.0195V23.8848L162.285 21.4336ZM156.387 27.0879V26.3848C156.387 25.5254 156.468 24.7734 156.631 24.1289C156.793 23.4844 157.028 22.9473 157.334 22.5176C157.64 22.0879 158.014 21.7689 158.457 21.5605C158.906 21.3457 159.407 21.2383 159.961 21.2383C160.54 21.2383 161.025 21.3652 161.416 21.6191C161.806 21.8665 162.122 22.2148 162.363 22.6641C162.611 23.1133 162.799 23.6439 162.93 24.2559C163.066 24.8678 163.17 25.5384 163.242 26.2676V27.2832C163.17 27.9733 163.053 28.6178 162.89 29.2168C162.734 29.8158 162.526 30.3366 162.265 30.7793C162.005 31.222 161.686 31.5703 161.308 31.8242C160.931 32.0716 160.475 32.1953 159.941 32.1953C159.394 32.1953 158.9 32.0846 158.457 31.8633C158.021 31.6419 157.646 31.3164 157.334 30.8867C157.028 30.4505 156.793 29.9167 156.631 29.2852C156.468 28.6471 156.387 27.9147 156.387 27.0879ZM159.131 26.3848V27.0879C159.131 27.5827 159.16 28.0091 159.219 28.3672C159.284 28.7188 159.381 29.0085 159.512 29.2363C159.642 29.4577 159.808 29.6237 160.01 29.7344C160.218 29.8385 160.462 29.8906 160.742 29.8906C161.139 29.8906 161.455 29.7995 161.689 29.6172C161.93 29.4284 162.106 29.1712 162.217 28.8457C162.334 28.5137 162.399 28.1328 162.412 27.7031V25.8574C162.405 25.4993 162.363 25.1771 162.285 24.8906C162.213 24.6042 162.112 24.36 161.982 24.1582C161.852 23.9564 161.683 23.8001 161.474 23.6895C161.273 23.5788 161.035 23.5234 160.762 23.5234C160.482 23.5234 160.241 23.5788 160.039 23.6895C159.837 23.8001 159.668 23.9727 159.531 24.207C159.401 24.4349 159.3 24.7311 159.228 25.0957C159.163 25.4538 159.131 25.8835 159.131 26.3848ZM171.664 32.1953C170.942 32.1953 170.3 32.0846 169.74 31.8633C169.187 31.6419 168.718 31.3229 168.334 30.9062C167.95 30.4831 167.657 29.972 167.455 29.373C167.253 28.7741 167.153 28.0905 167.153 27.3223V26.4531C167.153 25.5938 167.25 24.8418 167.446 24.1973C167.641 23.5462 167.918 22.9993 168.276 22.5566C168.634 22.1139 169.073 21.7852 169.594 21.5703C170.121 21.349 170.717 21.2383 171.381 21.2383C172.045 21.2383 172.628 21.349 173.129 21.5703C173.637 21.7852 174.057 22.1107 174.389 22.5469C174.721 22.9766 174.972 23.5104 175.141 24.1484C175.31 24.7865 175.395 25.5286 175.395 26.375V27.625H168.315V25.7012H172.709V25.457C172.709 25.0273 172.664 24.6693 172.573 24.3828C172.481 24.0898 172.338 23.8717 172.143 23.7285C171.948 23.5853 171.687 23.5137 171.362 23.5137C171.088 23.5137 170.857 23.569 170.668 23.6797C170.479 23.7904 170.33 23.9629 170.219 24.1973C170.108 24.4316 170.027 24.7376 169.975 25.1152C169.923 25.4863 169.897 25.9323 169.897 26.4531V27.3223C169.897 27.8105 169.939 28.2207 170.024 28.5527C170.108 28.8783 170.232 29.1452 170.395 29.3535C170.564 29.5553 170.769 29.7018 171.01 29.793C171.251 29.8776 171.531 29.9199 171.85 29.9199C172.332 29.9199 172.765 29.8353 173.149 29.666C173.539 29.4902 173.871 29.2526 174.145 28.9531L175.239 30.6133C175.05 30.8607 174.789 31.1081 174.457 31.3555C174.125 31.6029 173.728 31.8047 173.266 31.9609C172.804 32.1172 172.27 32.1953 171.664 32.1953ZM180.311 23.7871V32H177.577V21.4336H180.155L180.311 23.7871ZM182.801 21.3555L182.762 24.0801C182.639 24.054 182.489 24.0345 182.313 24.0215C182.144 24.0085 181.994 24.002 181.864 24.002C181.558 24.002 181.298 24.0508 181.083 24.1484C180.868 24.2396 180.689 24.3796 180.546 24.5684C180.409 24.7507 180.305 24.9785 180.233 25.252C180.161 25.5254 180.119 25.8346 180.106 26.1797L179.589 25.9844C179.589 25.2943 179.641 24.6628 179.745 24.0898C179.855 23.5104 180.018 23.0091 180.233 22.5859C180.448 22.1562 180.705 21.8242 181.005 21.5898C181.311 21.3555 181.656 21.2383 182.04 21.2383C182.17 21.2383 182.307 21.2513 182.45 21.2773C182.6 21.2969 182.717 21.3229 182.801 21.3555Z" fill="#FCFAEE"/>
<rect x="27.4635" y="81.7446" width="72.9811" height="12.3106" rx="6.15531" fill="#DEB364"/>
<path d="M23.5815 55.094C24.8003 54.8925 25.9611 55.7124 26.1916 56.9245C26.8987 60.6425 28.4845 68.2739 30.4667 73.4228C31.923 77.2056 34.4092 81.7679 36.5368 85.3927C38.3832 88.5385 36.7628 92.641 33.2278 93.5053C30.4671 94.1804 27.6513 92.5589 26.9071 89.8156C25.7897 85.6973 24.2787 79.7741 23.5149 75.2438C22.5393 69.4571 21.9696 61.12 21.7484 57.3711C21.6824 56.2521 22.473 55.2773 23.5815 55.094Z" fill="#DEB364"/>
<path d="M71.4689 37.022C67.9523 36.3317 66.7654 32.0975 63.2015 31.7061C62.964 31.68 62.7266 31.6635 62.4912 31.6551C59.564 31.5507 56.9072 33.4255 56.0744 36.1827C54.6209 40.9946 61.9966 47.1443 64.5949 49.1301C65.1764 49.5745 65.7426 50.0285 66.2783 50.5253L73.2491 56.9896C75.7641 59.3219 75.8744 63.2156 73.4954 65.6866C71.1165 68.1575 67.1492 68.2699 64.6342 65.9376L56.8589 58.7272L49.9878 52.784C49.4845 52.3487 49.005 51.8921 48.5611 51.3986C47.2104 49.8971 44.189 46.3874 42.9602 43.7366C41.6333 40.8743 41.3243 36.7445 41.2632 35.6296C41.2527 35.4368 41.2493 35.2475 41.2561 35.0545C41.3024 33.7299 41.6915 28.164 44.9559 24.991C48.0327 22.0002 50.3541 19.6599 54.649 19.1156C58.8474 18.5837 61.612 18.322 65.7672 19.1156C69.3298 19.7961 71.2134 20.6305 74.3195 22.4731C77.5537 24.3918 79.7603 26.8781 79.7363 30.587C79.7175 33.4963 79.1661 33.6646 77.8029 35.3433C76.7465 36.6442 74.3195 37.5816 71.4689 37.022Z" fill="#DEB364"/>
<rect x="28.0337" y="69.4341" width="64.9988" height="12.3106" rx="6.15531" fill="#C88D20"/>
<rect x="37.1562" y="57.1233" width="46.7536" height="12.3106" rx="6.15531" fill="#D4A245"/>
<rect width="2.25938" height="4.05182" transform="matrix(0.710492 -0.703705 0.716901 0.697175 75.3573 36.3303)" fill="#D84F52"/>
<path d="M77.1755 36.9785L79.4554 37.0375L79.3466 41.0871C79.3297 41.7167 78.8056 42.2138 78.176 42.1975C77.5464 42.1812 77.0498 41.6577 77.0667 41.0281L77.1755 36.9785Z" fill="#D84F52"/>
<path d="M77.6379 38.6509L77.8115 36.4191L81.9695 36.7305C82.586 36.7766 83.0468 37.3136 82.9989 37.9299C82.951 38.5462 82.4125 39.0084 81.796 38.9623L77.6379 38.6509Z" fill="#D84F52"/>
</svg>
