<svg width="83" height="86" viewBox="0 0 83 86" fill="none" xmlns="http://www.w3.org/2000/svg">
<rect x="9.4635" y="72.7446" width="72.9811" height="12.3106" rx="6.15531" fill="#DEB364"/>
<path d="M5.58155 46.094C6.80034 45.8925 7.96106 46.7124 8.1916 47.9245C8.89874 51.6425 10.4845 59.2739 12.4667 64.4228C13.923 68.2056 16.4092 72.7679 18.5368 76.3927C20.3832 79.5385 18.7628 83.641 15.2278 84.5053C12.4671 85.1804 9.65134 83.5589 8.90706 80.8156C7.78971 76.6973 6.27873 70.7741 5.51492 66.2438C4.53929 60.4571 3.96956 52.12 3.74842 48.3711C3.68241 47.2521 4.47304 46.2773 5.58155 46.094Z" fill="#DEB364"/>
<path d="M53.4689 28.022C49.9523 27.3317 48.7654 23.0975 45.2015 22.7061C44.964 22.68 44.7266 22.6635 44.4912 22.6551C41.564 22.5507 38.9072 24.4255 38.0744 27.1827C36.6209 31.9946 43.9966 38.1443 46.5949 40.1301C47.1764 40.5745 47.7426 41.0285 48.2783 41.5253L55.2491 47.9896C57.7641 50.3219 57.8744 54.2156 55.4954 56.6866C53.1165 59.1575 49.1492 59.2699 46.6342 56.9376L38.8589 49.7272L31.9878 43.784C31.4845 43.3487 31.005 42.8921 30.5611 42.3986C29.2104 40.8971 26.189 37.3874 24.9602 34.7366C23.6333 31.8743 23.3243 27.7445 23.2632 26.6296C23.2527 26.4368 23.2493 26.2475 23.2561 26.0545C23.3024 24.7299 23.6915 19.164 26.9559 15.991C30.0327 13.0002 32.3541 10.6599 36.649 10.1156C40.8474 9.58365 43.612 9.32201 47.7672 10.1156C51.3298 10.7961 53.2134 11.6305 56.3195 13.4731C59.5537 15.3918 61.7603 17.8781 61.7363 21.587C61.7175 24.4963 61.1661 24.6646 59.8029 26.3433C58.7465 27.6442 56.3195 28.5816 53.4689 28.022Z" fill="#DEB364"/>
<rect x="10.0337" y="60.4341" width="64.9988" height="12.3106" rx="6.15531" fill="#C88D20"/>
<rect x="19.1562" y="48.1233" width="46.7536" height="12.3106" rx="6.15531" fill="#D4A245"/>
<rect width="2.25938" height="4.05182" transform="matrix(0.710492 -0.703705 0.716901 0.697175 57.3573 27.3303)" fill="#D84F52"/>
<path d="M59.1755 27.9785L61.4554 28.0375L61.3466 32.0871C61.3297 32.7167 60.8056 33.2138 60.176 33.1975C59.5464 33.1812 59.0498 32.6577 59.0667 32.0281L59.1755 27.9785Z" fill="#D84F52"/>
<path d="M59.6379 29.6509L59.8115 27.4191L63.9695 27.7305C64.586 27.7766 65.0468 28.3136 64.9989 28.9299C64.951 29.5462 64.4125 30.0084 63.796 29.9623L59.6379 29.6509Z" fill="#D84F52"/>
</svg>
