<svg width="106" height="103" viewBox="0 0 106 103" fill="none" xmlns="http://www.w3.org/2000/svg">
<g clip-path="url(#clip0_188_7502)">
<path d="M17.0846 83.8763C11.2094 62.357 24.1436 40.2583 45.9741 34.5175L89.8171 22.988C95.7073 44.5622 82.7214 66.713 60.8269 72.438L17.0846 83.8763Z" fill="#3A3435"/>
<path d="M56.4906 8.49204C56.2966 7.78168 56.7236 7.05219 57.4442 6.86268L60.2205 6.1326C73.0998 2.74571 86.3509 10.2921 89.8171 22.988L62.4156 30.1939L56.4906 8.49204Z" fill="#3A3435"/>
<path d="M37.0508 76.9018L37.3123 77.8598C40.2008 88.4395 33.8417 99.3044 23.1088 102.127C22.5721 102.268 22.02 101.954 21.8755 101.424L16.6454 82.2678L37.0508 76.9018Z" fill="#3A3435"/>
<path d="M69.9472 61.188L71.0171 65.1071C73.8877 75.6212 67.5684 86.4202 56.9026 89.2269C56.3692 89.3671 55.8206 89.055 55.6771 88.5291L49.6693 66.5241L69.9472 61.188Z" fill="#262021"/>
<path d="M29.3593 80.7722C24.8531 64.2674 34.7734 47.3183 51.5168 42.9153L82.4164 34.7896C86.9225 51.2943 77.0024 68.2434 60.2589 72.6465L29.3593 80.7722Z" fill="#FFE6C8"/>
<path d="M68.7189 49.2085L69.7888 53.1274C72.6595 63.6418 66.3402 74.4406 55.6743 77.2473C55.141 77.3876 54.5924 77.0754 54.4488 76.5496L48.441 54.5447L68.7189 49.2085Z" fill="#3A3435"/>
</g>
<defs>
<clipPath id="clip0_188_7502">
<rect width="86.2051" height="83.403" fill="white" transform="matrix(0.967119 -0.254325 0.263381 0.964692 0.170288 21.9241)"/>
</clipPath>
</defs>
</svg>
