<svg width="323" height="125" viewBox="0 0 323 125" fill="none" xmlns="http://www.w3.org/2000/svg">
<path fill-rule="evenodd" clip-rule="evenodd" d="M242.236 0H20C8.9543 0 0 8.95431 0 20V105C0 116.046 8.95431 125 20 125H303C314.046 125 323 116.046 323 105V79.1663L322.951 79.2149L242.236 0ZM323 46.7365V20C323 8.9543 314.046 0 303 0H275.379L323 46.7365Z" fill="#355E50"/>
<path d="M266.501 14.9937L267.357 15.498L274.665 8.3254L274.152 7.48486L274.323 7.31675L277.577 10.5108L277.406 10.6789L276.55 10.1746L272.964 13.6936L279.176 13.0884L278.662 11.9117L278.833 11.7436L281.003 13.8729L280.832 14.041L279.576 13.4807L275.122 13.929L273.523 21.5498L273.923 22.2783L273.752 22.4464L272.153 20.8774C271.811 20.5412 271.601 20.1714 271.525 19.7679C271.464 19.3644 271.483 18.9124 271.582 18.4118L272.496 14.1531L269.241 17.3472L269.755 18.1877L269.584 18.3558L266.329 15.1618L266.501 14.9937ZM274.613 22.9555L275.47 23.4599L282.778 16.2873L282.264 15.4468L282.435 15.2786L283.92 16.7356C284.605 17.408 284.605 18.0804 283.92 18.7529L277.297 25.253L277.811 26.0935L277.639 26.2617L274.442 23.1236L274.613 22.9555ZM279.465 28.2772C279.236 28.053 279.118 27.7729 279.111 27.4367C279.118 27.1004 279.236 26.8203 279.465 26.5961C279.693 26.372 279.975 26.2599 280.31 26.2599C280.66 26.2599 280.949 26.372 281.178 26.5961C281.406 26.8203 281.516 27.1004 281.509 27.4367C281.516 27.7729 281.406 28.053 281.178 28.2772C280.949 28.5013 280.66 28.6134 280.31 28.6134C279.975 28.6134 279.693 28.5013 279.465 28.2772ZM285.637 34.1106L285.808 33.9425L286.836 34.5028L293.105 28.3501L291.061 28.0027L291.118 27.4984L295.081 27.6889L296.314 28.8993L288.72 36.352L289.291 37.3607L289.12 37.5288L285.637 34.1106ZM290.719 39.0982L290.89 38.9301L291.918 39.4905L298.187 33.3377L296.143 32.9903L296.2 32.486L300.163 32.6765L301.396 33.8869L293.802 41.3396L294.373 42.3483L294.202 42.5164L290.719 39.0982ZM300.483 40.6116C300.254 40.3875 300.136 40.1073 300.129 39.7711C300.136 39.4349 300.254 39.1547 300.483 38.9305C300.711 38.7064 300.993 38.5943 301.328 38.5943C301.678 38.5943 301.967 38.7064 302.196 38.9305C302.424 39.1547 302.534 39.4349 302.527 39.7711C302.534 40.1073 302.424 40.3875 302.196 40.6116C301.967 40.8358 301.678 40.9478 301.328 40.9478C300.993 40.9478 300.711 40.8358 300.483 40.6116ZM296.258 44.7583C296.029 44.5341 295.911 44.2539 295.904 43.9177C295.911 43.5815 296.029 43.3013 296.258 43.0772C296.486 42.8531 296.768 42.741 297.103 42.741C297.453 42.741 297.742 42.8531 297.971 43.0772C298.199 43.3013 298.309 43.5815 298.302 43.9177C298.309 44.2539 298.199 44.5341 297.971 44.7583C297.742 44.9824 297.453 45.0945 297.103 45.0945C296.768 45.0945 296.486 44.9824 296.258 44.7583ZM301.742 50.2524C301.125 49.6472 300.729 48.9374 300.554 48.123C300.379 47.3087 300.455 46.4494 300.782 45.5454C301.125 44.6414 301.73 43.7635 302.598 42.9117C303.466 42.06 304.357 41.4697 305.27 41.141C306.199 40.8122 307.078 40.7338 307.908 40.9056C308.738 41.0775 309.461 41.466 310.078 42.0712C310.694 42.6764 311.09 43.3861 311.265 44.2005C311.44 45.0149 311.357 45.8741 311.014 46.7782C310.687 47.6822 310.089 48.5601 309.221 49.4119C308.353 50.2636 307.455 50.8538 306.526 51.1826C305.613 51.5113 304.741 51.5898 303.911 51.4179C303.081 51.2461 302.358 50.8576 301.742 50.2524ZM301.97 50.0283C302.845 50.8875 304.596 50.0283 307.223 47.4506C309.849 44.873 310.725 43.1545 309.849 42.2953C308.974 41.4361 307.223 42.2953 304.596 44.873C301.97 47.4506 301.094 49.169 301.97 50.0283ZM309.734 58.0965C309.118 57.4913 308.722 56.7816 308.547 55.9672C308.371 55.1528 308.448 54.2936 308.775 53.3895C309.118 52.4855 309.723 51.6076 310.591 50.7558C311.458 49.9041 312.349 49.3139 313.263 48.9851C314.192 48.6564 315.071 48.5779 315.901 48.7498C316.73 48.9216 317.454 49.3101 318.07 49.9153C318.687 50.5205 319.083 51.2303 319.258 52.0447C319.433 52.8591 319.349 53.7183 319.007 54.6223C318.679 55.5264 318.082 56.4042 317.214 57.256C316.346 58.1077 315.448 58.698 314.519 59.0267C313.605 59.3555 312.734 59.4339 311.904 59.2621C311.074 59.0902 310.351 58.7017 309.734 58.0965ZM309.963 57.8724C310.838 58.7316 312.589 57.8724 315.215 55.2947C317.842 52.7171 318.717 50.9987 317.842 50.1394C316.966 49.2802 315.215 50.1394 312.589 52.7171C309.963 55.2947 309.087 57.0132 309.963 57.8724Z" fill="#355E50"/>
<path d="M119.605 56V44.3636H126.582V45.6136H121.014V49.5455H126.059V50.7955H121.014V56H119.605ZM132.198 56.1818C131.41 56.1818 130.719 55.9943 130.124 55.6193C129.534 55.2443 129.071 54.7197 128.738 54.0455C128.409 53.3712 128.244 52.5833 128.244 51.6818C128.244 50.7727 128.409 49.9792 128.738 49.3011C129.071 48.6231 129.534 48.0966 130.124 47.7216C130.719 47.3466 131.41 47.1591 132.198 47.1591C132.986 47.1591 133.676 47.3466 134.266 47.7216C134.861 48.0966 135.323 48.6231 135.653 49.3011C135.986 49.9792 136.153 50.7727 136.153 51.6818C136.153 52.5833 135.986 53.3712 135.653 54.0455C135.323 54.7197 134.861 55.2443 134.266 55.6193C133.676 55.9943 132.986 56.1818 132.198 56.1818ZM132.198 54.9773C132.797 54.9773 133.289 54.8239 133.676 54.517C134.062 54.2102 134.348 53.8068 134.534 53.3068C134.719 52.8068 134.812 52.2652 134.812 51.6818C134.812 51.0985 134.719 50.5549 134.534 50.0511C134.348 49.5473 134.062 49.1402 133.676 48.8295C133.289 48.5189 132.797 48.3636 132.198 48.3636C131.6 48.3636 131.107 48.5189 130.721 48.8295C130.335 49.1402 130.049 49.5473 129.863 50.0511C129.677 50.5549 129.585 51.0985 129.585 51.6818C129.585 52.2652 129.677 52.8068 129.863 53.3068C130.049 53.8068 130.335 54.2102 130.721 54.517C131.107 54.8239 131.6 54.9773 132.198 54.9773ZM141.975 56.1818C141.248 56.1818 140.606 55.9981 140.049 55.6307C139.492 55.2595 139.057 54.7367 138.742 54.0625C138.428 53.3845 138.271 52.5833 138.271 51.6591C138.271 50.7424 138.428 49.947 138.742 49.2727C139.057 48.5985 139.494 48.0777 140.055 47.7102C140.615 47.3428 141.263 47.1591 141.998 47.1591C142.566 47.1591 143.015 47.2538 143.344 47.4432C143.678 47.6288 143.932 47.8409 144.106 48.0795C144.284 48.3144 144.422 48.5076 144.521 48.6591H144.634V44.3636H145.975V56H144.68V54.6591H144.521C144.422 54.8182 144.282 55.0189 144.1 55.2614C143.918 55.5 143.659 55.714 143.322 55.9034C142.985 56.089 142.536 56.1818 141.975 56.1818ZM142.157 54.9773C142.695 54.9773 143.149 54.8371 143.521 54.5568C143.892 54.2727 144.174 53.8807 144.367 53.3807C144.56 52.8769 144.657 52.2955 144.657 51.6364C144.657 50.9848 144.562 50.4148 144.373 49.9261C144.183 49.4337 143.903 49.0511 143.532 48.7784C143.161 48.5019 142.702 48.3636 142.157 48.3636C141.589 48.3636 141.115 48.5095 140.737 48.8011C140.362 49.089 140.079 49.4811 139.89 49.9773C139.704 50.4697 139.612 51.0227 139.612 51.6364C139.612 52.2576 139.706 52.822 139.896 53.3295C140.089 53.8333 140.373 54.2348 140.748 54.5341C141.127 54.8295 141.596 54.9773 142.157 54.9773ZM149.097 56V47.2727H150.393V48.5909H150.484C150.643 48.1591 150.931 47.8087 151.347 47.5398C151.764 47.2708 152.234 47.1364 152.756 47.1364C152.855 47.1364 152.978 47.1383 153.126 47.142C153.273 47.1458 153.385 47.1515 153.461 47.1591V48.5227C153.415 48.5114 153.311 48.4943 153.148 48.4716C152.989 48.4451 152.821 48.4318 152.643 48.4318C152.218 48.4318 151.84 48.5208 151.506 48.6989C151.177 48.8731 150.915 49.1155 150.722 49.4261C150.533 49.733 150.438 50.0833 150.438 50.4773V56H149.097ZM155.53 56V47.2727H156.871V56H155.53ZM156.212 45.8182C155.951 45.8182 155.725 45.7292 155.536 45.5511C155.35 45.3731 155.258 45.1591 155.258 44.9091C155.258 44.6591 155.35 44.4451 155.536 44.267C155.725 44.089 155.951 44 156.212 44C156.474 44 156.697 44.089 156.883 44.267C157.072 44.4451 157.167 44.6591 157.167 44.9091C157.167 45.1591 157.072 45.3731 156.883 45.5511C156.697 45.7292 156.474 45.8182 156.212 45.8182ZM161.148 50.75V56H159.807V47.2727H161.103V48.6364H161.216C161.421 48.1932 161.731 47.8371 162.148 47.5682C162.565 47.2955 163.103 47.1591 163.762 47.1591C164.353 47.1591 164.87 47.2803 165.313 47.5227C165.756 47.7614 166.101 48.125 166.347 48.6136C166.593 49.0985 166.716 49.7121 166.716 50.4545V56H165.375V50.5455C165.375 49.8598 165.197 49.3258 164.841 48.9432C164.485 48.5568 163.997 48.3636 163.375 48.3636C162.947 48.3636 162.565 48.4564 162.228 48.642C161.894 48.8277 161.631 49.0985 161.438 49.4545C161.245 49.8106 161.148 50.2424 161.148 50.75ZM173.169 59.4545C172.522 59.4545 171.965 59.3712 171.499 59.2045C171.033 59.0417 170.645 58.8258 170.334 58.5568C170.027 58.2917 169.783 58.0076 169.601 57.7045L170.669 56.9545C170.791 57.1136 170.944 57.2955 171.13 57.5C171.315 57.7083 171.569 57.8883 171.891 58.0398C172.217 58.1951 172.643 58.2727 173.169 58.2727C173.874 58.2727 174.455 58.1023 174.914 57.7614C175.372 57.4205 175.601 56.8864 175.601 56.1591V54.3864H175.487C175.389 54.5455 175.249 54.7424 175.067 54.9773C174.889 55.2083 174.631 55.4148 174.294 55.5966C173.961 55.7746 173.51 55.8636 172.942 55.8636C172.237 55.8636 171.605 55.697 171.044 55.3636C170.487 55.0303 170.046 54.5455 169.72 53.9091C169.398 53.2727 169.237 52.5 169.237 51.5909C169.237 50.697 169.395 49.9186 169.709 49.2557C170.023 48.589 170.461 48.0739 171.022 47.7102C171.582 47.3428 172.23 47.1591 172.965 47.1591C173.533 47.1591 173.984 47.2538 174.317 47.4432C174.654 47.6288 174.912 47.8409 175.09 48.0795C175.272 48.3144 175.412 48.5076 175.51 48.6591H175.647V47.2727H176.942V56.25C176.942 57 176.772 57.6098 176.431 58.0795C176.094 58.553 175.639 58.8996 175.067 59.1193C174.499 59.3428 173.866 59.4545 173.169 59.4545ZM173.124 54.6591C173.662 54.6591 174.116 54.536 174.487 54.2898C174.859 54.0436 175.141 53.6894 175.334 53.2273C175.527 52.7652 175.624 52.2121 175.624 51.5682C175.624 50.9394 175.529 50.3845 175.34 49.9034C175.15 49.4223 174.87 49.0455 174.499 48.7727C174.128 48.5 173.669 48.3636 173.124 48.3636C172.556 48.3636 172.082 48.5076 171.703 48.7955C171.328 49.0833 171.046 49.4697 170.857 49.9545C170.671 50.4394 170.578 50.9773 170.578 51.5682C170.578 52.1742 170.673 52.7102 170.862 53.1761C171.056 53.6383 171.34 54.0019 171.715 54.267C172.094 54.5284 172.563 54.6591 173.124 54.6591ZM188.402 56.1818C187.614 56.1818 186.923 55.9943 186.328 55.6193C185.737 55.2443 185.275 54.7197 184.942 54.0455C184.612 53.3712 184.447 52.5833 184.447 51.6818C184.447 50.7727 184.612 49.9792 184.942 49.3011C185.275 48.6231 185.737 48.0966 186.328 47.7216C186.923 47.3466 187.614 47.1591 188.402 47.1591C189.19 47.1591 189.879 47.3466 190.47 47.7216C191.065 48.0966 191.527 48.6231 191.857 49.3011C192.19 49.9792 192.357 50.7727 192.357 51.6818C192.357 52.5833 192.19 53.3712 191.857 54.0455C191.527 54.7197 191.065 55.2443 190.47 55.6193C189.879 55.9943 189.19 56.1818 188.402 56.1818ZM188.402 54.9773C189.001 54.9773 189.493 54.8239 189.879 54.517C190.266 54.2102 190.552 53.8068 190.737 53.3068C190.923 52.8068 191.016 52.2652 191.016 51.6818C191.016 51.0985 190.923 50.5549 190.737 50.0511C190.552 49.5473 190.266 49.1402 189.879 48.8295C189.493 48.5189 189.001 48.3636 188.402 48.3636C187.804 48.3636 187.311 48.5189 186.925 48.8295C186.538 49.1402 186.252 49.5473 186.067 50.0511C185.881 50.5549 185.788 51.0985 185.788 51.6818C185.788 52.2652 185.881 52.8068 186.067 53.3068C186.252 53.8068 186.538 54.2102 186.925 54.517C187.311 54.8239 187.804 54.9773 188.402 54.9773ZM198.406 59.4545C197.758 59.4545 197.202 59.3712 196.736 59.2045C196.27 59.0417 195.882 58.8258 195.571 58.5568C195.264 58.2917 195.02 58.0076 194.838 57.7045L195.906 56.9545C196.027 57.1136 196.181 57.2955 196.366 57.5C196.552 57.7083 196.806 57.8883 197.128 58.0398C197.454 58.1951 197.88 58.2727 198.406 58.2727C199.111 58.2727 199.692 58.1023 200.15 57.7614C200.609 57.4205 200.838 56.8864 200.838 56.1591V54.3864H200.724C200.626 54.5455 200.486 54.7424 200.304 54.9773C200.126 55.2083 199.868 55.4148 199.531 55.5966C199.198 55.7746 198.747 55.8636 198.179 55.8636C197.474 55.8636 196.842 55.697 196.281 55.3636C195.724 55.0303 195.283 54.5455 194.957 53.9091C194.635 53.2727 194.474 52.5 194.474 51.5909C194.474 50.697 194.632 49.9186 194.946 49.2557C195.26 48.589 195.698 48.0739 196.258 47.7102C196.819 47.3428 197.467 47.1591 198.202 47.1591C198.77 47.1591 199.221 47.2538 199.554 47.4432C199.891 47.6288 200.149 47.8409 200.327 48.0795C200.508 48.3144 200.649 48.5076 200.747 48.6591H200.883V47.2727H202.179V56.25C202.179 57 202.008 57.6098 201.668 58.0795C201.33 58.553 200.876 58.8996 200.304 59.1193C199.736 59.3428 199.103 59.4545 198.406 59.4545ZM198.361 54.6591C198.899 54.6591 199.353 54.536 199.724 54.2898C200.096 54.0436 200.378 53.6894 200.571 53.2273C200.764 52.7652 200.861 52.2121 200.861 51.5682C200.861 50.9394 200.766 50.3845 200.577 49.9034C200.387 49.4223 200.107 49.0455 199.736 48.7727C199.365 48.5 198.906 48.3636 198.361 48.3636C197.793 48.3636 197.319 48.5076 196.94 48.7955C196.565 49.0833 196.283 49.4697 196.094 49.9545C195.908 50.4394 195.815 50.9773 195.815 51.5682C195.815 52.1742 195.91 52.7102 196.099 53.1761C196.293 53.6383 196.577 54.0019 196.952 54.267C197.33 54.5284 197.8 54.6591 198.361 54.6591ZM119.423 78.2727V66.2727H120.718V67.6591H120.877C120.976 67.5076 121.112 67.3144 121.286 67.0795C121.464 66.8409 121.718 66.6288 122.048 66.4432C122.381 66.2538 122.832 66.1591 123.4 66.1591C124.135 66.1591 124.783 66.3428 125.343 66.7102C125.904 67.0777 126.341 67.5985 126.656 68.2727C126.97 68.947 127.127 69.7424 127.127 70.6591C127.127 71.5833 126.97 72.3845 126.656 73.0625C126.341 73.7367 125.906 74.2595 125.349 74.6307C124.792 74.9981 124.15 75.1818 123.423 75.1818C122.862 75.1818 122.413 75.089 122.076 74.9034C121.739 74.714 121.48 74.5 121.298 74.2614C121.116 74.0189 120.976 73.8182 120.877 73.6591H120.764V78.2727H119.423ZM120.741 70.6364C120.741 71.2955 120.838 71.8769 121.031 72.3807C121.224 72.8807 121.506 73.2727 121.877 73.5568C122.249 73.8371 122.703 73.9773 123.241 73.9773C123.802 73.9773 124.269 73.8295 124.644 73.5341C125.023 73.2348 125.307 72.8333 125.497 72.3295C125.69 71.822 125.786 71.2576 125.786 70.6364C125.786 70.0227 125.692 69.4697 125.502 68.9773C125.317 68.4811 125.035 68.089 124.656 67.8011C124.281 67.5095 123.809 67.3636 123.241 67.3636C122.696 67.3636 122.237 67.5019 121.866 67.7784C121.495 68.0511 121.214 68.4337 121.025 68.9261C120.836 69.4148 120.741 69.9848 120.741 70.6364ZM129.653 75V66.2727H130.948V67.5909H131.039C131.198 67.1591 131.486 66.8087 131.903 66.5398C132.319 66.2708 132.789 66.1364 133.312 66.1364C133.41 66.1364 133.534 66.1383 133.681 66.142C133.829 66.1458 133.941 66.1515 134.016 66.1591V67.5227C133.971 67.5114 133.867 67.4943 133.704 67.4716C133.545 67.4451 133.376 67.4318 133.198 67.4318C132.774 67.4318 132.395 67.5208 132.062 67.6989C131.732 67.8731 131.471 68.1155 131.278 68.4261C131.088 68.733 130.994 69.0833 130.994 69.4773V75H129.653ZM145.222 75.1818C144.256 75.1818 143.453 74.9451 142.813 74.4716C142.173 73.9943 141.779 73.375 141.631 72.6136L141.881 68.2727C142.165 67.6136 142.576 67.0966 143.114 66.7216C143.656 66.3466 144.313 66.1591 145.086 66.1591C145.54 66.1591 145.989 66.2348 146.433 66.3864C146.876 66.5379 147.279 66.7841 147.643 67.125C148.006 67.4621 148.296 67.9091 148.512 68.4659C148.728 69.0227 148.836 69.7083 148.836 70.5227V71.0909H142.109V69.9318H147.472C147.472 69.4394 147.374 69 147.177 68.6136C146.984 68.2273 146.707 67.9223 146.347 67.6989C145.991 67.4754 145.571 67.3636 145.086 67.3636C144.552 67.3636 144.09 67.4962 143.7 67.7614C143.313 68.0227 143.016 68.3655 142.808 68.7898C142.599 69.2102 142.495 69.6591 142.495 70.1364V70.9091C142.495 71.5682 142.611 72.1269 142.842 72.5852C143.073 73.0398 143.393 73.3864 143.802 73.625C144.211 73.8598 144.684 73.9773 145.222 73.9773C145.575 73.9773 145.893 73.928 146.177 73.8295C146.465 73.7273 146.713 73.5758 146.921 73.375C147.13 73.1705 147.29 72.9167 147.404 72.6136L148.7 72.9773C148.563 73.4167 148.334 73.803 148.012 74.1364C147.69 74.4659 147.292 74.7235 146.819 74.9091C146.345 75.0909 145.813 75.1818 145.222 75.1818ZM138.859 74C139.389 74 139.836 73.8958 140.2 73.6875C140.567 73.4792 140.844 73.2102 141.029 72.8807C141.219 72.5511 141.313 72.2045 141.313 71.8409V70.6136C141.256 70.6818 141.131 70.7443 140.938 70.8011C140.749 70.8542 140.529 70.9015 140.279 70.9432C140.033 70.9811 139.792 71.0152 139.558 71.0455C139.326 71.072 139.139 71.0947 138.995 71.1136C138.647 71.1591 138.321 71.233 138.018 71.3352C137.719 71.4337 137.476 71.5833 137.29 71.7841C137.109 71.9811 137.018 72.25 137.018 72.5909C137.018 73.0568 137.19 73.4091 137.535 73.6477C137.883 73.8826 138.325 74 138.859 74ZM138.654 75.2045C138.101 75.2045 137.599 75.1004 137.148 74.892C136.698 74.6799 136.34 74.375 136.075 73.9773C135.809 73.5758 135.677 73.0909 135.677 72.5227C135.677 72.0227 135.775 71.6174 135.972 71.3068C136.173 70.9924 136.436 70.7462 136.762 70.5682C137.092 70.3864 137.457 70.2519 137.859 70.1648C138.26 70.0739 138.662 70.0038 139.063 69.9545C139.594 69.8864 140.023 69.8333 140.353 69.7955C140.686 69.7576 140.929 69.6951 141.08 69.608C141.236 69.5208 141.313 69.3712 141.313 69.1591V69.1136C141.313 68.5568 141.16 68.1231 140.853 67.8125C140.546 67.4981 140.086 67.3409 139.472 67.3409C138.836 67.3409 138.334 67.4811 137.967 67.7614C137.603 68.0417 137.347 68.3409 137.2 68.6591L135.927 68.2045C136.154 67.6742 136.457 67.2614 136.836 66.9659C137.219 66.6667 137.635 66.4583 138.086 66.3409C138.54 66.2197 138.987 66.1591 139.427 66.1591C139.662 66.1591 139.927 66.1818 140.222 66.2273C140.518 66.2689 140.815 66.3542 141.114 66.483C141.414 66.6117 141.686 66.803 141.933 67.0568C142.179 67.3106 142.366 67.6477 142.495 68.0682L141.972 73.4091H141.859C141.745 73.7348 141.531 74.0341 141.217 74.3068C140.906 74.5795 140.527 74.7973 140.08 74.9602C139.637 75.1231 139.162 75.2045 138.654 75.2045ZM157.545 68.2273L156.34 68.5682C156.264 68.3674 156.153 68.1723 156.005 67.983C155.861 67.7898 155.664 67.6307 155.414 67.5057C155.164 67.3807 154.844 67.3182 154.454 67.3182C153.92 67.3182 153.475 67.4413 153.119 67.6875C152.766 67.9299 152.59 68.2386 152.59 68.6136C152.59 68.947 152.711 69.2102 152.954 69.4034C153.196 69.5966 153.575 69.7576 154.09 69.8864L155.386 70.2045C156.166 70.3939 156.747 70.6837 157.13 71.0739C157.512 71.4602 157.704 71.9583 157.704 72.5682C157.704 73.0682 157.56 73.5152 157.272 73.9091C156.988 74.303 156.59 74.6136 156.079 74.8409C155.567 75.0682 154.973 75.1818 154.295 75.1818C153.404 75.1818 152.668 74.9886 152.084 74.6023C151.501 74.2159 151.132 73.6515 150.976 72.9091L152.249 72.5909C152.37 73.0606 152.6 73.4129 152.937 73.6477C153.278 73.8826 153.723 74 154.272 74C154.897 74 155.393 73.8674 155.761 73.6023C156.132 73.3333 156.317 73.0114 156.317 72.6364C156.317 72.3333 156.211 72.0795 155.999 71.875C155.787 71.6667 155.461 71.5114 155.022 71.4091L153.567 71.0682C152.768 70.8788 152.181 70.5852 151.806 70.1875C151.435 69.786 151.249 69.2841 151.249 68.6818C151.249 68.1894 151.387 67.7538 151.664 67.375C151.944 66.9962 152.325 66.6989 152.806 66.483C153.291 66.267 153.84 66.1591 154.454 66.1591C155.317 66.1591 155.995 66.3485 156.488 66.7273C156.984 67.1061 157.336 67.6061 157.545 68.2273ZM163.861 75.1818C163.02 75.1818 162.295 74.9962 161.685 74.625C161.079 74.25 160.611 73.7273 160.282 73.0568C159.956 72.3826 159.793 71.5985 159.793 70.7045C159.793 69.8106 159.956 69.0227 160.282 68.3409C160.611 67.6553 161.07 67.1212 161.657 66.7386C162.248 66.3523 162.937 66.1591 163.725 66.1591C164.179 66.1591 164.628 66.2348 165.072 66.3864C165.515 66.5379 165.918 66.7841 166.282 67.125C166.645 67.4621 166.935 67.9091 167.151 68.4659C167.367 69.0227 167.475 69.7083 167.475 70.5227V71.0909H160.748V69.9318H166.111C166.111 69.4394 166.013 69 165.816 68.6136C165.623 68.2273 165.346 67.9223 164.986 67.6989C164.63 67.4754 164.21 67.3636 163.725 67.3636C163.191 67.3636 162.729 67.4962 162.339 67.7614C161.952 68.0227 161.655 68.3636 161.447 68.7841C161.238 69.2045 161.134 69.6553 161.134 70.1364V70.9091C161.134 71.5682 161.248 72.1269 161.475 72.5852C161.706 73.0398 162.026 73.3864 162.435 73.625C162.844 73.8598 163.32 73.9773 163.861 73.9773C164.214 73.9773 164.532 73.928 164.816 73.8295C165.104 73.7273 165.352 73.5758 165.56 73.375C165.768 73.1705 165.929 72.9167 166.043 72.6136L167.339 72.9773C167.202 73.4167 166.973 73.803 166.651 74.1364C166.329 74.4659 165.931 74.7235 165.458 74.9091C164.984 75.0909 164.452 75.1818 163.861 75.1818ZM171.336 69.75V75H169.995V66.2727H171.29V67.6364H171.404C171.608 67.1932 171.919 66.8371 172.336 66.5682C172.752 66.2955 173.29 66.1591 173.949 66.1591C174.54 66.1591 175.057 66.2803 175.5 66.5227C175.944 66.7614 176.288 67.125 176.534 67.6136C176.781 68.0985 176.904 68.7121 176.904 69.4545V75H175.563V69.5455C175.563 68.8598 175.385 68.3258 175.029 67.9432C174.673 67.5568 174.184 67.3636 173.563 67.3636C173.135 67.3636 172.752 67.4564 172.415 67.642C172.082 67.8277 171.819 68.0985 171.625 68.4545C171.432 68.8106 171.336 69.2424 171.336 69.75ZM183.63 66.2727V67.4091H179.107V66.2727H183.63ZM180.425 64.1818H181.766V72.5C181.766 72.8788 181.821 73.1629 181.931 73.3523C182.044 73.5379 182.188 73.6629 182.362 73.7273C182.541 73.7879 182.728 73.8182 182.925 73.8182C183.073 73.8182 183.194 73.8106 183.289 73.7955C183.383 73.7765 183.459 73.7614 183.516 73.75L183.789 74.9545C183.698 74.9886 183.571 75.0227 183.408 75.0568C183.245 75.0947 183.039 75.1136 182.789 75.1136C182.41 75.1136 182.039 75.0322 181.675 74.8693C181.315 74.7064 181.016 74.4583 180.777 74.125C180.542 73.7917 180.425 73.3712 180.425 72.8636V64.1818ZM188.695 75.2045C188.142 75.2045 187.64 75.1004 187.189 74.892C186.738 74.6799 186.38 74.375 186.115 73.9773C185.85 73.5758 185.717 73.0909 185.717 72.5227C185.717 72.0227 185.816 71.6174 186.013 71.3068C186.21 70.9924 186.473 70.7462 186.803 70.5682C187.132 70.3902 187.496 70.2576 187.894 70.1705C188.295 70.0795 188.699 70.0076 189.104 69.9545C189.634 69.8864 190.064 69.8352 190.394 69.8011C190.727 69.7633 190.969 69.7008 191.121 69.6136C191.276 69.5265 191.354 69.375 191.354 69.1591V69.1136C191.354 68.553 191.2 68.1174 190.894 67.8068C190.591 67.4962 190.13 67.3409 189.513 67.3409C188.873 67.3409 188.371 67.4811 188.007 67.7614C187.644 68.0417 187.388 68.3409 187.24 68.6591L185.967 68.2045C186.195 67.6742 186.498 67.2614 186.877 66.9659C187.259 66.6667 187.676 66.4583 188.127 66.3409C188.581 66.2197 189.028 66.1591 189.467 66.1591C189.748 66.1591 190.07 66.1932 190.433 66.2614C190.801 66.3258 191.155 66.4602 191.496 66.6648C191.841 66.8693 192.127 67.178 192.354 67.5909C192.581 68.0038 192.695 68.5568 192.695 69.25V75H191.354V73.8182H191.286C191.195 74.0076 191.043 74.2102 190.831 74.4261C190.619 74.642 190.337 74.8258 189.985 74.9773C189.632 75.1288 189.202 75.2045 188.695 75.2045ZM188.899 74C189.43 74 189.877 73.8958 190.24 73.6875C190.608 73.4792 190.884 73.2102 191.07 72.8807C191.259 72.5511 191.354 72.2045 191.354 71.8409V70.6136C191.297 70.6818 191.172 70.7443 190.979 70.8011C190.789 70.8542 190.57 70.9015 190.32 70.9432C190.074 70.9811 189.833 71.0152 189.598 71.0455C189.367 71.072 189.18 71.0947 189.036 71.1136C188.687 71.1591 188.361 71.233 188.058 71.3352C187.759 71.4337 187.517 71.5833 187.331 71.7841C187.149 71.9811 187.058 72.25 187.058 72.5909C187.058 73.0568 187.231 73.4091 187.575 73.6477C187.924 73.8826 188.365 74 188.899 74ZM199.418 66.2727V67.4091H194.895V66.2727H199.418ZM196.213 64.1818H197.554V72.5C197.554 72.8788 197.609 73.1629 197.719 73.3523C197.832 73.5379 197.976 73.6629 198.151 73.7273C198.329 73.7879 198.516 73.8182 198.713 73.8182C198.861 73.8182 198.982 73.8106 199.077 73.7955C199.171 73.7765 199.247 73.7614 199.304 73.75L199.577 74.9545C199.486 74.9886 199.359 75.0227 199.196 75.0568C199.033 75.0947 198.827 75.1136 198.577 75.1136C198.198 75.1136 197.827 75.0322 197.463 74.8693C197.103 74.7064 196.804 74.4583 196.565 74.125C196.331 73.7917 196.213 73.3712 196.213 72.8636V64.1818ZM201.915 75V66.2727H203.256V75H201.915ZM202.597 64.8182C202.335 64.8182 202.11 64.7292 201.92 64.5511C201.735 64.3731 201.642 64.1591 201.642 63.9091C201.642 63.6591 201.735 63.4451 201.92 63.267C202.11 63.089 202.335 63 202.597 63C202.858 63 203.081 63.089 203.267 63.267C203.456 63.4451 203.551 63.6591 203.551 63.9091C203.551 64.1591 203.456 64.3731 203.267 64.5511C203.081 64.7292 202.858 64.8182 202.597 64.8182ZM209.737 75.1818C208.949 75.1818 208.258 74.9943 207.663 74.6193C207.072 74.2443 206.61 73.7197 206.277 73.0455C205.947 72.3712 205.782 71.5833 205.782 70.6818C205.782 69.7727 205.947 68.9792 206.277 68.3011C206.61 67.6231 207.072 67.0966 207.663 66.7216C208.258 66.3466 208.949 66.1591 209.737 66.1591C210.525 66.1591 211.214 66.3466 211.805 66.7216C212.4 67.0966 212.862 67.6231 213.192 68.3011C213.525 68.9792 213.692 69.7727 213.692 70.6818C213.692 71.5833 213.525 72.3712 213.192 73.0455C212.862 73.7197 212.4 74.2443 211.805 74.6193C211.214 74.9943 210.525 75.1818 209.737 75.1818ZM209.737 73.9773C210.336 73.9773 210.828 73.8239 211.214 73.517C211.601 73.2102 211.887 72.8068 212.072 72.3068C212.258 71.8068 212.351 71.2652 212.351 70.6818C212.351 70.0985 212.258 69.5549 212.072 69.0511C211.887 68.5473 211.601 68.1402 211.214 67.8295C210.828 67.5189 210.336 67.3636 209.737 67.3636C209.139 67.3636 208.646 67.5189 208.26 67.8295C207.873 68.1402 207.587 68.5473 207.402 69.0511C207.216 69.5549 207.123 70.0985 207.123 70.6818C207.123 71.2652 207.216 71.8068 207.402 72.3068C207.587 72.8068 207.873 73.2102 208.26 73.517C208.646 73.8239 209.139 73.9773 209.737 73.9773ZM217.559 69.75V75H216.218V66.2727H217.514V67.6364H217.628C217.832 67.1932 218.143 66.8371 218.559 66.5682C218.976 66.2955 219.514 66.1591 220.173 66.1591C220.764 66.1591 221.281 66.2803 221.724 66.5227C222.167 66.7614 222.512 67.125 222.758 67.6136C223.004 68.0985 223.128 68.7121 223.128 69.4545V75H221.787V69.5455C221.787 68.8598 221.609 68.3258 221.253 67.9432C220.896 67.5568 220.408 67.3636 219.787 67.3636C219.359 67.3636 218.976 67.4564 218.639 67.642C218.306 67.8277 218.042 68.0985 217.849 68.4545C217.656 68.8106 217.559 69.2424 217.559 69.75ZM233.606 75.2045C233.053 75.2045 232.551 75.1004 232.1 74.892C231.65 74.6799 231.292 74.375 231.026 73.9773C230.761 73.5758 230.629 73.0909 230.629 72.5227C230.629 72.0227 230.727 71.6174 230.924 71.3068C231.121 70.9924 231.384 70.7462 231.714 70.5682C232.044 70.3902 232.407 70.2576 232.805 70.1705C233.206 70.0795 233.61 70.0076 234.015 69.9545C234.545 69.8864 234.975 69.8352 235.305 69.8011C235.638 69.7633 235.881 69.7008 236.032 69.6136C236.187 69.5265 236.265 69.375 236.265 69.1591V69.1136C236.265 68.553 236.112 68.1174 235.805 67.8068C235.502 67.4962 235.042 67.3409 234.424 67.3409C233.784 67.3409 233.282 67.4811 232.919 67.7614C232.555 68.0417 232.299 68.3409 232.151 68.6591L230.879 68.2045C231.106 67.6742 231.409 67.2614 231.788 66.9659C232.17 66.6667 232.587 66.4583 233.038 66.3409C233.492 66.2197 233.939 66.1591 234.379 66.1591C234.659 66.1591 234.981 66.1932 235.345 66.2614C235.712 66.3258 236.066 66.4602 236.407 66.6648C236.752 66.8693 237.038 67.178 237.265 67.5909C237.492 68.0038 237.606 68.5568 237.606 69.25V75H236.265V73.8182H236.197C236.106 74.0076 235.954 74.2102 235.742 74.4261C235.53 74.642 235.248 74.8258 234.896 74.9773C234.544 75.1288 234.114 75.2045 233.606 75.2045ZM233.811 74C234.341 74 234.788 73.8958 235.151 73.6875C235.519 73.4792 235.795 73.2102 235.981 72.8807C236.17 72.5511 236.265 72.2045 236.265 71.8409V70.6136C236.208 70.6818 236.083 70.7443 235.89 70.8011C235.701 70.8542 235.481 70.9015 235.231 70.9432C234.985 70.9811 234.744 71.0152 234.509 71.0455C234.278 71.072 234.091 71.0947 233.947 71.1136C233.598 71.1591 233.273 71.233 232.97 71.3352C232.67 71.4337 232.428 71.5833 232.242 71.7841C232.061 71.9811 231.97 72.25 231.97 72.5909C231.97 73.0568 232.142 73.4091 232.487 73.6477C232.835 73.8826 233.276 74 233.811 74ZM244.42 66.2727V67.4091H239.715V66.2727H244.42ZM241.124 75V65.0682C241.124 64.5682 241.242 64.1515 241.477 63.8182C241.711 63.4848 242.016 63.2348 242.391 63.0682C242.766 62.9015 243.162 62.8182 243.579 62.8182C243.908 62.8182 244.177 62.8447 244.386 62.8977C244.594 62.9508 244.749 63 244.852 63.0455L244.465 64.2045C244.397 64.1818 244.302 64.1534 244.181 64.1193C244.064 64.0852 243.908 64.0682 243.715 64.0682C243.272 64.0682 242.952 64.1799 242.755 64.4034C242.562 64.6269 242.465 64.9545 242.465 65.3864V75H241.124ZM125.605 87.2273L124.4 87.5682C124.324 87.3674 124.213 87.1723 124.065 86.983C123.921 86.7898 123.724 86.6307 123.474 86.5057C123.224 86.3807 122.904 86.3182 122.514 86.3182C121.98 86.3182 121.535 86.4413 121.179 86.6875C120.826 86.9299 120.65 87.2386 120.65 87.6136C120.65 87.947 120.771 88.2102 121.014 88.4034C121.256 88.5966 121.635 88.7576 122.15 88.8864L123.446 89.2045C124.226 89.3939 124.807 89.6837 125.19 90.0739C125.572 90.4602 125.764 90.9583 125.764 91.5682C125.764 92.0682 125.62 92.5152 125.332 92.9091C125.048 93.303 124.65 93.6136 124.139 93.8409C123.627 94.0682 123.033 94.1818 122.355 94.1818C121.464 94.1818 120.728 93.9886 120.144 93.6023C119.561 93.2159 119.192 92.6515 119.036 91.9091L120.309 91.5909C120.43 92.0606 120.66 92.4129 120.997 92.6477C121.338 92.8826 121.783 93 122.332 93C122.957 93 123.453 92.8674 123.821 92.6023C124.192 92.3333 124.377 92.0114 124.377 91.6364C124.377 91.3333 124.271 91.0795 124.059 90.875C123.847 90.6667 123.521 90.5114 123.082 90.4091L121.627 90.0682C120.828 89.8788 120.241 89.5852 119.866 89.1875C119.495 88.786 119.309 88.2841 119.309 87.6818C119.309 87.1894 119.447 86.7538 119.724 86.375C120.004 85.9962 120.385 85.6989 120.866 85.483C121.351 85.267 121.9 85.1591 122.514 85.1591C123.377 85.1591 124.055 85.3485 124.548 85.7273C125.044 86.1061 125.396 86.6061 125.605 87.2273ZM129.194 94.4773L128.33 93.8864L134.421 84.8636L135.285 85.4545L129.194 94.4773ZM131.808 94.1818C131.02 94.1818 130.328 93.9943 129.734 93.6193C129.143 93.2443 128.681 92.7197 128.347 92.0455C128.018 91.3712 127.853 90.5833 127.853 89.6818C127.853 88.7727 128.018 87.9792 128.347 87.3011C128.681 86.6231 129.143 86.0966 129.734 85.7216C130.328 85.3466 131.02 85.1591 131.808 85.1591C132.596 85.1591 133.285 85.3466 133.876 85.7216C134.471 86.0966 134.933 86.6231 135.262 87.3011C135.596 87.9792 135.762 88.7727 135.762 89.6818C135.762 90.5833 135.596 91.3712 135.262 92.0455C134.933 92.7197 134.471 93.2443 133.876 93.6193C133.285 93.9943 132.596 94.1818 131.808 94.1818ZM131.808 92.9773C132.406 92.9773 132.899 92.8239 133.285 92.517C133.671 92.2102 133.957 91.8068 134.143 91.3068C134.328 90.8068 134.421 90.2652 134.421 89.6818C134.421 89.0985 134.328 88.5549 134.143 88.0511C133.957 87.5473 133.671 87.1402 133.285 86.8295C132.899 86.5189 132.406 86.3636 131.808 86.3636C131.209 86.3636 130.717 86.5189 130.33 86.8295C129.944 87.1402 129.658 87.5473 129.472 88.0511C129.287 88.5549 129.194 89.0985 129.194 89.6818C129.194 90.2652 129.287 90.8068 129.472 91.3068C129.658 91.8068 129.944 92.2102 130.33 92.517C130.717 92.8239 131.209 92.9773 131.808 92.9773ZM138.471 94V82.3636H139.812V86.6591H139.925C140.024 86.5076 140.16 86.3144 140.335 86.0795C140.513 85.8409 140.766 85.6288 141.096 85.4432C141.429 85.2538 141.88 85.1591 142.448 85.1591C143.183 85.1591 143.831 85.3428 144.391 85.7102C144.952 86.0777 145.389 86.5985 145.704 87.2727C146.018 87.947 146.175 88.7424 146.175 89.6591C146.175 90.5833 146.018 91.3845 145.704 92.0625C145.389 92.7367 144.954 93.2595 144.397 93.6307C143.84 93.9981 143.198 94.1818 142.471 94.1818C141.91 94.1818 141.461 94.089 141.124 93.9034C140.787 93.714 140.528 93.5 140.346 93.2614C140.164 93.0189 140.024 92.8182 139.925 92.6591H139.766V94H138.471ZM139.789 89.6364C139.789 90.2955 139.886 90.8769 140.079 91.3807C140.272 91.8807 140.554 92.2727 140.925 92.5568C141.297 92.8371 141.751 92.9773 142.289 92.9773C142.85 92.9773 143.317 92.8295 143.692 92.5341C144.071 92.2348 144.355 91.8333 144.545 91.3295C144.738 90.822 144.835 90.2576 144.835 89.6364C144.835 89.0227 144.74 88.4697 144.55 87.9773C144.365 87.4811 144.083 87.089 143.704 86.8011C143.329 86.5095 142.857 86.3636 142.289 86.3636C141.744 86.3636 141.285 86.5019 140.914 86.7784C140.543 87.0511 140.263 87.4337 140.073 87.9261C139.884 88.4148 139.789 88.9848 139.789 89.6364ZM148.707 85.2727H150.047V94.6364C150.047 95.1742 149.955 95.6402 149.769 96.0341C149.587 96.428 149.311 96.733 148.94 96.9489C148.572 97.1648 148.108 97.2727 147.547 97.2727C147.502 97.2727 147.457 97.2727 147.411 97.2727C147.366 97.2727 147.32 97.2727 147.275 97.2727V96.0227C147.32 96.0227 147.362 96.0227 147.4 96.0227C147.438 96.0227 147.479 96.0227 147.525 96.0227C147.934 96.0227 148.233 95.9015 148.422 95.6591C148.612 95.4205 148.707 95.0795 148.707 94.6364V85.2727ZM149.366 83.8182C149.104 83.8182 148.879 83.7292 148.69 83.5511C148.504 83.3731 148.411 83.1591 148.411 82.9091C148.411 82.6591 148.504 82.4451 148.69 82.267C148.879 82.089 149.104 82 149.366 82C149.627 82 149.851 82.089 150.036 82.267C150.226 82.4451 150.32 82.6591 150.32 82.9091C150.32 83.1591 150.226 83.3731 150.036 83.5511C149.851 83.7292 149.627 83.8182 149.366 83.8182ZM153.915 94.4773L153.052 93.8864L159.143 84.8636L160.006 85.4545L153.915 94.4773ZM156.529 94.1818C155.741 94.1818 155.05 93.9943 154.455 93.6193C153.864 93.2443 153.402 92.7197 153.069 92.0455C152.739 91.3712 152.574 90.5833 152.574 89.6818C152.574 88.7727 152.739 87.9792 153.069 87.3011C153.402 86.6231 153.864 86.0966 154.455 85.7216C155.05 85.3466 155.741 85.1591 156.529 85.1591C157.317 85.1591 158.006 85.3466 158.597 85.7216C159.192 86.0966 159.654 86.6231 159.983 87.3011C160.317 87.9792 160.483 88.7727 160.483 89.6818C160.483 90.5833 160.317 91.3712 159.983 92.0455C159.654 92.7197 159.192 93.2443 158.597 93.6193C158.006 93.9943 157.317 94.1818 156.529 94.1818ZM156.529 92.9773C157.127 92.9773 157.62 92.8239 158.006 92.517C158.393 92.2102 158.679 91.8068 158.864 91.3068C159.05 90.8068 159.143 90.2652 159.143 89.6818C159.143 89.0985 159.05 88.5549 158.864 88.0511C158.679 87.5473 158.393 87.1402 158.006 86.8295C157.62 86.5189 157.127 86.3636 156.529 86.3636C155.93 86.3636 155.438 86.5189 155.052 86.8295C154.665 87.1402 154.379 87.5473 154.194 88.0511C154.008 88.5549 153.915 89.0985 153.915 89.6818C153.915 90.2652 154.008 90.8068 154.194 91.3068C154.379 91.8068 154.665 92.2102 155.052 92.517C155.438 92.8239 155.93 92.9773 156.529 92.9773ZM163.01 94V85.2727H164.306V86.5909H164.397C164.556 86.1591 164.844 85.8087 165.26 85.5398C165.677 85.2708 166.147 85.1364 166.669 85.1364C166.768 85.1364 166.891 85.1383 167.039 85.142C167.186 85.1458 167.298 85.1515 167.374 85.1591V86.5227C167.329 86.5114 167.224 86.4943 167.061 86.4716C166.902 86.4451 166.734 86.4318 166.556 86.4318C166.132 86.4318 165.753 86.5208 165.419 86.6989C165.09 86.8731 164.829 87.1155 164.635 87.4261C164.446 87.733 164.351 88.0833 164.351 88.4773V94H163.01ZM170.784 88.75V94H169.443V85.2727H170.739V86.6364H170.853C171.057 86.1932 171.368 85.8371 171.784 85.5682C172.201 85.2955 172.739 85.1591 173.398 85.1591C173.989 85.1591 174.506 85.2803 174.949 85.5227C175.392 85.7614 175.737 86.125 175.983 86.6136C176.229 87.0985 176.353 87.7121 176.353 88.4545V94H175.012V88.5455C175.012 87.8598 174.834 87.3258 174.478 86.9432C174.121 86.5568 173.633 86.3636 173.012 86.3636C172.584 86.3636 172.201 86.4564 171.864 86.642C171.531 86.8277 171.267 87.0985 171.074 87.4545C170.881 87.8106 170.784 88.2424 170.784 88.75ZM182.942 94.1818C182.101 94.1818 181.376 93.9962 180.766 93.625C180.16 93.25 179.692 92.7273 179.362 92.0568C179.037 91.3826 178.874 90.5985 178.874 89.7045C178.874 88.8106 179.037 88.0227 179.362 87.3409C179.692 86.6553 180.15 86.1212 180.737 85.7386C181.328 85.3523 182.018 85.1591 182.806 85.1591C183.26 85.1591 183.709 85.2348 184.152 85.3864C184.595 85.5379 184.999 85.7841 185.362 86.125C185.726 86.4621 186.016 86.9091 186.232 87.4659C186.448 88.0227 186.556 88.7083 186.556 89.5227V90.0909H179.828V88.9318H185.192C185.192 88.4394 185.093 88 184.896 87.6136C184.703 87.2273 184.427 86.9223 184.067 86.6989C183.711 86.4754 183.29 86.3636 182.806 86.3636C182.271 86.3636 181.809 86.4962 181.419 86.7614C181.033 87.0227 180.735 87.3636 180.527 87.7841C180.319 88.2045 180.215 88.6553 180.215 89.1364V89.9091C180.215 90.5682 180.328 91.1269 180.556 91.5852C180.787 92.0398 181.107 92.3864 181.516 92.625C181.925 92.8598 182.4 92.9773 182.942 92.9773C183.294 92.9773 183.612 92.928 183.896 92.8295C184.184 92.7273 184.432 92.5758 184.641 92.375C184.849 92.1705 185.01 91.9167 185.124 91.6136L186.419 91.9773C186.283 92.4167 186.054 92.803 185.732 93.1364C185.41 93.4659 185.012 93.7235 184.539 93.9091C184.065 94.0909 183.533 94.1818 182.942 94.1818Z" fill="#FCFAEE"/>
<path d="M125.364 31.2598C125.364 31.0059 125.341 30.7747 125.295 30.5664C125.25 30.3581 125.152 30.166 125.002 29.9902C124.859 29.8145 124.647 29.6387 124.367 29.4629C124.094 29.2871 123.736 29.1048 123.293 28.916C122.766 28.6947 122.255 28.4603 121.76 28.2129C121.265 27.959 120.819 27.666 120.422 27.334C120.025 27.002 119.709 26.6113 119.475 26.1621C119.247 25.7064 119.133 25.1725 119.133 24.5605C119.133 23.9616 119.24 23.418 119.455 22.9297C119.677 22.4414 119.989 22.0247 120.393 21.6797C120.796 21.3281 121.268 21.0579 121.809 20.8691C122.356 20.6803 122.964 20.5859 123.635 20.5859C124.546 20.5859 125.334 20.7747 125.998 21.1523C126.669 21.5299 127.186 22.0475 127.551 22.7051C127.922 23.3626 128.108 24.1178 128.108 24.9707H125.256C125.256 24.5671 125.198 24.2122 125.08 23.9062C124.97 23.5938 124.791 23.3496 124.543 23.1738C124.296 22.998 123.977 22.9102 123.586 22.9102C123.222 22.9102 122.919 22.985 122.678 23.1348C122.444 23.278 122.268 23.4766 122.151 23.7305C122.04 23.9779 121.985 24.2578 121.985 24.5703C121.985 24.8047 122.04 25.0163 122.151 25.2051C122.268 25.3874 122.427 25.5534 122.629 25.7031C122.831 25.8464 123.069 25.9863 123.342 26.123C123.622 26.2598 123.928 26.3932 124.26 26.5234C124.905 26.7773 125.474 27.0573 125.969 27.3633C126.464 27.6628 126.877 28.0013 127.209 28.3789C127.541 28.75 127.792 29.1699 127.961 29.6387C128.13 30.1074 128.215 30.6413 128.215 31.2402C128.215 31.8327 128.111 32.373 127.903 32.8613C127.701 33.3431 127.405 33.7598 127.014 34.1113C126.623 34.4564 126.151 34.7233 125.598 34.9121C125.051 35.1009 124.439 35.1953 123.762 35.1953C123.104 35.1953 122.483 35.1042 121.897 34.9219C121.311 34.7331 120.793 34.4499 120.344 34.0723C119.901 33.6882 119.553 33.2031 119.299 32.6172C119.045 32.0247 118.918 31.3249 118.918 30.5176H121.78C121.78 30.9473 121.822 31.3151 121.906 31.6211C121.991 31.9206 122.121 32.1615 122.297 32.3438C122.473 32.5195 122.688 32.653 122.942 32.7441C123.202 32.8288 123.498 32.8711 123.83 32.8711C124.208 32.8711 124.507 32.7995 124.729 32.6562C124.957 32.513 125.119 32.321 125.217 32.0801C125.315 31.8392 125.364 31.5658 125.364 31.2598ZM138.034 23.125L132.594 36.3867H131.139L136.579 23.125H138.034ZM130.309 29.834V29.6191C130.309 28.8509 130.4 28.1413 130.583 27.4902C130.771 26.8327 131.045 26.263 131.403 25.7812C131.768 25.293 132.21 24.9154 132.731 24.6484C133.258 24.375 133.867 24.2383 134.557 24.2383C135.254 24.2383 135.866 24.375 136.393 24.6484C136.921 24.9154 137.363 25.293 137.721 25.7812C138.086 26.263 138.359 26.8327 138.542 27.4902C138.73 28.1413 138.825 28.8509 138.825 29.6191V29.834C138.825 30.5957 138.73 31.3053 138.542 31.9629C138.359 32.6139 138.089 33.1836 137.731 33.6719C137.373 34.1536 136.927 34.528 136.393 34.7949C135.866 35.0618 135.26 35.1953 134.577 35.1953C133.887 35.1953 133.275 35.0618 132.741 34.7949C132.214 34.528 131.768 34.1536 131.403 33.6719C131.045 33.1836 130.771 32.6139 130.583 31.9629C130.4 31.3053 130.309 30.5957 130.309 29.834ZM133.044 29.6191V29.8242C133.044 30.2539 133.07 30.6576 133.122 31.0352C133.174 31.4062 133.255 31.735 133.366 32.0215C133.483 32.3014 133.639 32.5228 133.835 32.6855C134.036 32.8418 134.284 32.9199 134.577 32.9199C134.863 32.9199 135.104 32.8418 135.299 32.6855C135.501 32.5228 135.658 32.3014 135.768 32.0215C135.879 31.735 135.96 31.4062 136.012 31.0352C136.064 30.6576 136.09 30.2539 136.09 29.8242V29.6191C136.09 29.2025 136.064 28.8086 136.012 28.4375C135.967 28.0599 135.885 27.7279 135.768 27.4414C135.658 27.1549 135.501 26.9303 135.299 26.7676C135.098 26.5983 134.85 26.5137 134.557 26.5137C134.264 26.5137 134.02 26.5983 133.825 26.7676C133.636 26.9303 133.483 27.1549 133.366 27.4414C133.255 27.7279 133.174 28.0599 133.122 28.4375C133.07 28.8086 133.044 29.2025 133.044 29.6191ZM141.163 20H143.888V32.5488L143.692 35H141.163V20ZM149.376 29.3652V30.0586C149.376 30.918 149.308 31.6667 149.171 32.3047C149.041 32.9427 148.836 33.4766 148.556 33.9062C148.282 34.3359 147.931 34.6582 147.501 34.873C147.071 35.0879 146.564 35.1953 145.978 35.1953C145.45 35.1953 144.998 35.0716 144.62 34.8242C144.243 34.5703 143.924 34.222 143.663 33.7793C143.409 33.3301 143.201 32.806 143.038 32.207C142.882 31.6016 142.768 30.9408 142.696 30.2246V29.1992C142.761 28.4961 142.872 27.8418 143.028 27.2363C143.191 26.6309 143.399 26.1068 143.653 25.6641C143.907 25.2148 144.223 24.8665 144.601 24.6191C144.985 24.3652 145.437 24.2383 145.958 24.2383C146.557 24.2383 147.071 24.349 147.501 24.5703C147.931 24.7852 148.282 25.1074 148.556 25.5371C148.836 25.9668 149.041 26.5039 149.171 27.1484C149.308 27.7865 149.376 28.5254 149.376 29.3652ZM146.651 30.0586V29.3652C146.651 28.877 146.632 28.457 146.593 28.1055C146.554 27.7539 146.482 27.4609 146.378 27.2266C146.274 26.9922 146.124 26.8164 145.929 26.6992C145.74 26.582 145.489 26.5234 145.177 26.5234C144.897 26.5234 144.662 26.5788 144.474 26.6895C144.285 26.7936 144.122 26.9499 143.985 27.1582C143.855 27.36 143.758 27.6009 143.692 27.8809C143.634 28.1543 143.601 28.457 143.595 28.7891V30.6348C143.601 31.084 143.657 31.4811 143.761 31.8262C143.865 32.1712 144.031 32.4382 144.259 32.627C144.493 32.8158 144.806 32.9102 145.196 32.9102C145.502 32.9102 145.75 32.8581 145.939 32.7539C146.127 32.6497 146.274 32.4837 146.378 32.2559C146.489 32.028 146.56 31.735 146.593 31.377C146.632 31.0124 146.651 30.5729 146.651 30.0586ZM151.783 24.4336H154.537V35.5859C154.537 36.3802 154.41 37.0508 154.156 37.5977C153.908 38.1445 153.55 38.5579 153.081 38.8379C152.613 39.1243 152.046 39.2676 151.382 39.2676C151.167 39.2676 150.956 39.2546 150.748 39.2285C150.539 39.2025 150.328 39.1602 150.113 39.1016L150.123 36.875C150.253 36.901 150.38 36.9206 150.503 36.9336C150.621 36.9466 150.738 36.9531 150.855 36.9531C151.063 36.9531 151.236 36.9043 151.373 36.8066C151.509 36.7155 151.61 36.569 151.675 36.3672C151.747 36.1654 151.783 35.9049 151.783 35.5859V24.4336ZM151.597 21.6992C151.597 21.276 151.734 20.9277 152.007 20.6543C152.281 20.3743 152.642 20.2344 153.091 20.2344C153.547 20.2344 153.912 20.3743 154.185 20.6543C154.458 20.9277 154.595 21.276 154.595 21.6992C154.595 22.1159 154.458 22.4642 154.185 22.7441C153.912 23.0176 153.547 23.1543 153.091 23.1543C152.642 23.1543 152.281 23.0176 152.007 22.7441C151.734 22.4642 151.597 22.1159 151.597 21.6992ZM164.58 23.125L159.14 36.3867H157.685L163.125 23.125H164.58ZM156.855 29.834V29.6191C156.855 28.8509 156.946 28.1413 157.129 27.4902C157.318 26.8327 157.591 26.263 157.949 25.7812C158.314 25.293 158.756 24.9154 159.277 24.6484C159.805 24.375 160.413 24.2383 161.103 24.2383C161.8 24.2383 162.412 24.375 162.939 24.6484C163.467 24.9154 163.909 25.293 164.267 25.7812C164.632 26.263 164.905 26.8327 165.088 27.4902C165.277 28.1413 165.371 28.8509 165.371 29.6191V29.834C165.371 30.5957 165.277 31.3053 165.088 31.9629C164.905 32.6139 164.635 33.1836 164.277 33.6719C163.919 34.1536 163.473 34.528 162.939 34.7949C162.412 35.0618 161.806 35.1953 161.123 35.1953C160.433 35.1953 159.821 35.0618 159.287 34.7949C158.76 34.528 158.314 34.1536 157.949 33.6719C157.591 33.1836 157.318 32.6139 157.129 31.9629C156.946 31.3053 156.855 30.5957 156.855 29.834ZM159.59 29.6191V29.8242C159.59 30.2539 159.616 30.6576 159.668 31.0352C159.72 31.4062 159.801 31.735 159.912 32.0215C160.029 32.3014 160.185 32.5228 160.381 32.6855C160.583 32.8418 160.83 32.9199 161.123 32.9199C161.409 32.9199 161.65 32.8418 161.846 32.6855C162.047 32.5228 162.204 32.3014 162.314 32.0215C162.425 31.735 162.506 31.4062 162.558 31.0352C162.611 30.6576 162.637 30.2539 162.637 29.8242V29.6191C162.637 29.2025 162.611 28.8086 162.558 28.4375C162.513 28.0599 162.431 27.7279 162.314 27.4414C162.204 27.1549 162.047 26.9303 161.846 26.7676C161.644 26.5983 161.396 26.5137 161.103 26.5137C160.81 26.5137 160.566 26.5983 160.371 26.7676C160.182 26.9303 160.029 27.1549 159.912 27.4414C159.801 27.7279 159.72 28.0599 159.668 28.4375C159.616 28.8086 159.59 29.2025 159.59 29.6191ZM170.434 26.7871V35H167.699V24.4336H170.278L170.434 26.7871ZM172.924 24.3555L172.885 27.0801C172.761 27.054 172.612 27.0345 172.436 27.0215C172.267 27.0085 172.117 27.002 171.987 27.002C171.681 27.002 171.42 27.0508 171.205 27.1484C170.99 27.2396 170.811 27.3796 170.668 27.5684C170.531 27.7507 170.427 27.9785 170.356 28.252C170.284 28.5254 170.242 28.8346 170.229 29.1797L169.711 28.9844C169.711 28.2943 169.763 27.6628 169.867 27.0898C169.978 26.5104 170.141 26.0091 170.356 25.5859C170.571 25.1562 170.828 24.8242 171.127 24.5898C171.433 24.3555 171.778 24.2383 172.162 24.2383C172.293 24.2383 172.429 24.2513 172.573 24.2773C172.722 24.2969 172.839 24.3229 172.924 24.3555ZM177.606 26.6895V35H174.862V24.4336H177.43L177.606 26.6895ZM177.196 29.3555L176.464 29.375C176.451 28.5807 176.525 27.8678 176.688 27.2363C176.857 26.6048 177.095 26.0677 177.401 25.625C177.714 25.1758 178.085 24.834 178.514 24.5996C178.951 24.3587 179.436 24.2383 179.969 24.2383C180.38 24.2383 180.754 24.3099 181.092 24.4531C181.437 24.5964 181.734 24.8242 181.981 25.1367C182.228 25.4492 182.421 25.8659 182.557 26.3867C182.694 26.901 182.762 27.5326 182.762 28.2812V35H180.018V28.2617C180.018 27.806 179.973 27.4544 179.881 27.207C179.79 26.9531 179.654 26.7773 179.471 26.6797C179.289 26.5755 179.061 26.5234 178.788 26.5234C178.527 26.5234 178.296 26.5983 178.094 26.748C177.893 26.8913 177.723 27.0898 177.587 27.3438C177.456 27.5977 177.355 27.8971 177.284 28.2422C177.219 28.5872 177.189 28.9583 177.196 29.3555ZM189.622 35.1953C188.899 35.1953 188.258 35.0846 187.698 34.8633C187.145 34.6419 186.676 34.3229 186.292 33.9062C185.908 33.4831 185.615 32.972 185.413 32.373C185.211 31.7741 185.11 31.0905 185.11 30.3223V29.4531C185.11 28.5938 185.208 27.8418 185.403 27.1973C185.599 26.5462 185.875 25.9993 186.233 25.5566C186.592 25.1139 187.031 24.7852 187.552 24.5703C188.079 24.349 188.675 24.2383 189.339 24.2383C190.003 24.2383 190.586 24.349 191.087 24.5703C191.595 24.7852 192.015 25.1107 192.347 25.5469C192.679 25.9766 192.929 26.5104 193.099 27.1484C193.268 27.7865 193.353 28.5286 193.353 29.375V30.625H186.273V28.7012H190.667V28.457C190.667 28.0273 190.621 27.6693 190.53 27.3828C190.439 27.0898 190.296 26.8717 190.101 26.7285C189.905 26.5853 189.645 26.5137 189.319 26.5137C189.046 26.5137 188.815 26.569 188.626 26.6797C188.437 26.7904 188.287 26.9629 188.177 27.1973C188.066 27.4316 187.985 27.7376 187.933 28.1152C187.881 28.4863 187.855 28.9323 187.855 29.4531V30.3223C187.855 30.8105 187.897 31.2207 187.981 31.5527C188.066 31.8783 188.19 32.1452 188.353 32.3535C188.522 32.5553 188.727 32.7018 188.968 32.793C189.209 32.8776 189.489 32.9199 189.808 32.9199C190.289 32.9199 190.722 32.8353 191.106 32.666C191.497 32.4902 191.829 32.2526 192.103 31.9531L193.196 33.6133C193.008 33.8607 192.747 34.1081 192.415 34.3555C192.083 34.6029 191.686 34.8047 191.224 34.9609C190.761 35.1172 190.228 35.1953 189.622 35.1953Z" fill="#FCFAEE"/>
<g clip-path="url(#clip0_188_7514)">
<path d="M26.0846 95.8763C20.2094 74.357 33.1436 52.2583 54.9741 46.5175L98.8171 34.988C104.707 56.5622 91.7214 78.713 69.8269 84.438L26.0846 95.8763Z" fill="#3A3435"/>
<path d="M65.4906 20.492C65.2966 19.7817 65.7236 19.0522 66.4442 18.8627L69.2205 18.1326C82.0998 14.7457 95.3509 22.2921 98.8171 34.988L71.4156 42.1939L65.4906 20.492Z" fill="#3A3435"/>
<path d="M46.0508 88.9018L46.3123 89.8598C49.2008 100.439 42.8417 111.304 32.1088 114.127C31.5721 114.268 31.02 113.954 30.8755 113.424L25.6454 94.2678L46.0508 88.9018Z" fill="#3A3435"/>
<path d="M78.9472 73.188L80.0171 77.1071C82.8877 87.6212 76.5684 98.4202 65.9026 101.227C65.3692 101.367 64.8206 101.055 64.6771 100.529L58.6693 78.5241L78.9472 73.188Z" fill="#262021"/>
<path d="M38.3593 92.7722C33.8531 76.2674 43.7734 59.3183 60.5168 54.9153L91.4164 46.7896C95.9225 63.2943 86.0024 80.2434 69.2589 84.6465L38.3593 92.7722Z" fill="#FFE6C8"/>
<path d="M77.7189 61.2085L78.7888 65.1274C81.6595 75.6418 75.3402 86.4406 64.6743 89.2473C64.141 89.3876 63.5924 89.0754 63.4488 88.5496L57.441 66.5447L77.7189 61.2085Z" fill="#3A3435"/>
</g>
<defs>
<clipPath id="clip0_188_7514">
<rect width="86.2051" height="83.403" fill="white" transform="matrix(0.967119 -0.254325 0.263381 0.964692 9.17029 33.9241)"/>
</clipPath>
</defs>
</svg>
