<svg width="323" height="125" viewBox="0 0 323 125" fill="none" xmlns="http://www.w3.org/2000/svg">
<path fill-rule="evenodd" clip-rule="evenodd" d="M242.236 0H20C8.9543 0 0 8.95431 0 20V105C0 116.046 8.95431 125 20 125H303C314.046 125 323 116.046 323 105V79.1663L322.951 79.2149L242.236 0ZM323 46.7365V20C323 8.9543 314.046 0 303 0H275.379L323 46.7365Z" fill="#355E50"/>
<path d="M262.879 11.4395L263.736 11.9438L271.044 4.7712L270.53 3.93066L270.701 3.76255L273.956 6.95659L273.785 7.1247L272.928 6.62038L269.343 10.1394L275.555 9.53424L275.041 8.35748L275.212 8.18938L277.382 10.3187L277.21 10.4868L275.954 9.92649L271.501 10.3748L269.902 17.9956L270.302 18.7241L270.131 18.8922L268.532 17.3232C268.189 16.987 267.98 16.6172 267.904 16.2137C267.843 15.8102 267.862 15.3582 267.961 14.8576L268.874 10.5989L265.62 13.793L266.134 14.6335L265.962 14.8016L262.708 11.6076L262.879 11.4395ZM270.992 19.4013L271.848 19.9057L279.157 12.7331L278.643 11.8926L278.814 11.7244L280.299 13.1814C280.984 13.8538 280.984 14.5262 280.299 15.1987L273.675 21.6988L274.189 22.5393L274.018 22.7075L270.821 19.5695L270.992 19.4013ZM275.843 24.723C275.615 24.4988 275.497 24.2187 275.489 23.8825C275.497 23.5462 275.615 23.2661 275.843 23.0419C276.072 22.8178 276.353 22.7057 276.688 22.7057C277.039 22.7057 277.328 22.8178 277.556 23.0419C277.785 23.2661 277.895 23.5462 277.887 23.8825C277.895 24.2187 277.785 24.4988 277.556 24.723C277.328 24.9471 277.039 25.0592 276.688 25.0592C276.353 25.0592 276.072 24.9471 275.843 24.723ZM282.015 30.5564L282.187 30.3883L283.215 30.9486L289.484 24.7959L287.44 24.4485L287.497 23.9442L291.459 24.1347L292.693 25.3451L285.099 32.7978L285.67 33.8065L285.498 33.9746L282.015 30.5564ZM288.636 37.0539L288.807 36.8858L289.835 37.4462L291.548 35.7651L288.293 32.5711L288.408 32.0107L298.342 30.6658L299.427 31.7305L293.946 37.11L295.145 38.2867L294.631 38.791L293.432 37.6143L291.719 39.2954L292.29 40.304L292.119 40.4721L288.636 37.0539ZM289.207 32.459L292.062 35.2608L295.83 31.5624L289.207 32.459ZM298.623 38.7867C298.395 38.5625 298.277 38.2823 298.269 37.9461C298.277 37.6099 298.395 37.3297 298.623 37.1056C298.852 36.8814 299.133 36.7694 299.468 36.7694C299.819 36.7694 300.108 36.8814 300.336 37.1056C300.565 37.3297 300.675 37.6099 300.667 37.9461C300.675 38.2823 300.565 38.5625 300.336 38.7867C300.108 39.0108 299.819 39.1229 299.468 39.1229C299.133 39.1229 298.852 39.0108 298.623 38.7867ZM294.398 42.9333C294.17 42.7092 294.052 42.429 294.044 42.0928C294.052 41.7565 294.17 41.4764 294.398 41.2522C294.627 41.0281 294.908 40.916 295.243 40.916C295.593 40.916 295.883 41.0281 296.111 41.2522C296.34 41.4764 296.45 41.7565 296.442 42.0928C296.45 42.429 296.34 42.7092 296.111 42.9333C295.883 43.1574 295.593 43.2695 295.243 43.2695C294.908 43.2695 294.627 43.1574 294.398 42.9333ZM298.797 47.3627C298.272 46.8472 297.895 46.3354 297.667 45.8274C297.446 45.3268 297.355 44.871 297.393 44.4601C297.438 44.0566 297.583 43.7354 297.827 43.4963C298.086 43.2423 298.367 43.1152 298.672 43.1152C298.991 43.1152 299.281 43.2423 299.54 43.4963C299.601 43.5561 299.654 43.6233 299.699 43.698C299.753 43.7653 299.791 43.8101 299.814 43.8325L299.939 44.0006L298.112 45.7937C298.12 45.8012 298.169 45.9096 298.261 46.1188C298.405 46.3653 298.603 46.6119 298.854 46.8584C299.387 47.3814 299.955 47.6242 300.556 47.5869C301.173 47.5495 301.804 47.2133 302.452 46.5782C303.114 45.9282 303.472 45.3006 303.525 44.6954C303.586 44.0977 303.38 43.5673 302.908 43.104L302.337 42.5437L302.623 42.2635L303.194 42.8239C303.536 43.1601 303.974 43.2908 304.507 43.2161C305.04 43.1414 305.592 42.8239 306.163 42.2635C306.734 41.7031 307.054 41.1577 307.122 40.6272C307.191 40.0968 307.042 39.6522 306.677 39.2936C306.479 39.0993 306.258 38.9424 306.014 38.8229C305.984 38.808 305.881 38.7594 305.706 38.6772L303.879 40.4703L303.696 40.3583C303.559 40.2537 303.449 40.1603 303.365 40.0781C303.106 39.8241 302.973 39.5439 302.965 39.2376C302.973 38.9312 303.106 38.6511 303.365 38.397C303.601 38.1654 303.925 38.0272 304.336 37.9824C304.747 37.9375 305.2 38.016 305.695 38.2177C306.205 38.4194 306.703 38.7594 307.191 39.2376C307.83 39.8652 308.275 40.489 308.527 41.1092C308.793 41.7293 308.881 42.3009 308.789 42.8239C308.705 43.3543 308.477 43.8026 308.104 44.1687C307.67 44.5946 307.213 44.8262 306.734 44.8636C306.262 44.8934 305.771 44.8075 305.261 44.6058C304.773 44.3966 304.294 44.0828 303.822 43.6644L303.765 43.7204C304.244 44.236 304.614 44.7702 304.872 45.323C305.421 46.5782 305.261 47.6317 304.393 48.4835C303.723 49.1409 302.905 49.3987 301.938 49.2568C300.986 49.1148 299.939 48.4835 298.797 47.3627ZM306.905 55.3194C306.288 54.7142 305.892 54.0044 305.717 53.19C305.542 52.3756 305.618 51.5164 305.945 50.6124C306.288 49.7083 306.893 48.8304 307.761 47.9787C308.629 47.127 309.52 46.5367 310.433 46.208C311.362 45.8792 312.241 45.8008 313.071 45.9726C313.901 46.1445 314.624 46.533 315.241 47.1382C315.857 47.7434 316.253 48.4531 316.428 49.2675C316.603 50.0819 316.52 50.9411 316.177 51.8452C315.85 52.7492 315.252 53.6271 314.384 54.4788C313.516 55.3306 312.618 55.9208 311.689 56.2496C310.776 56.5783 309.904 56.6568 309.074 56.4849C308.244 56.3131 307.521 55.9246 306.905 55.3194ZM307.133 55.0952C308.008 55.9545 309.759 55.0952 312.386 52.5176C315.012 49.94 315.888 48.2215 315.012 47.3623C314.137 46.5031 312.386 47.3623 309.759 49.94C307.133 52.5176 306.258 54.236 307.133 55.0952Z" fill="#355E50"/>
<path d="M119.605 63V51.3636H126.582V52.6136H121.014V56.5455H126.059V57.7955H121.014V63H119.605ZM132.198 63.1818C131.41 63.1818 130.719 62.9943 130.124 62.6193C129.534 62.2443 129.071 61.7197 128.738 61.0455C128.409 60.3712 128.244 59.5833 128.244 58.6818C128.244 57.7727 128.409 56.9792 128.738 56.3011C129.071 55.6231 129.534 55.0966 130.124 54.7216C130.719 54.3466 131.41 54.1591 132.198 54.1591C132.986 54.1591 133.676 54.3466 134.266 54.7216C134.861 55.0966 135.323 55.6231 135.653 56.3011C135.986 56.9792 136.153 57.7727 136.153 58.6818C136.153 59.5833 135.986 60.3712 135.653 61.0455C135.323 61.7197 134.861 62.2443 134.266 62.6193C133.676 62.9943 132.986 63.1818 132.198 63.1818ZM132.198 61.9773C132.797 61.9773 133.289 61.8239 133.676 61.517C134.062 61.2102 134.348 60.8068 134.534 60.3068C134.719 59.8068 134.812 59.2652 134.812 58.6818C134.812 58.0985 134.719 57.5549 134.534 57.0511C134.348 56.5473 134.062 56.1402 133.676 55.8295C133.289 55.5189 132.797 55.3636 132.198 55.3636C131.6 55.3636 131.107 55.5189 130.721 55.8295C130.335 56.1402 130.049 56.5473 129.863 57.0511C129.677 57.5549 129.585 58.0985 129.585 58.6818C129.585 59.2652 129.677 59.8068 129.863 60.3068C130.049 60.8068 130.335 61.2102 130.721 61.517C131.107 61.8239 131.6 61.9773 132.198 61.9773ZM141.975 63.1818C141.248 63.1818 140.606 62.9981 140.049 62.6307C139.492 62.2595 139.057 61.7367 138.742 61.0625C138.428 60.3845 138.271 59.5833 138.271 58.6591C138.271 57.7424 138.428 56.947 138.742 56.2727C139.057 55.5985 139.494 55.0777 140.055 54.7102C140.615 54.3428 141.263 54.1591 141.998 54.1591C142.566 54.1591 143.015 54.2538 143.344 54.4432C143.678 54.6288 143.932 54.8409 144.106 55.0795C144.284 55.3144 144.422 55.5076 144.521 55.6591H144.634V51.3636H145.975V63H144.68V61.6591H144.521C144.422 61.8182 144.282 62.0189 144.1 62.2614C143.918 62.5 143.659 62.714 143.322 62.9034C142.985 63.089 142.536 63.1818 141.975 63.1818ZM142.157 61.9773C142.695 61.9773 143.149 61.8371 143.521 61.5568C143.892 61.2727 144.174 60.8807 144.367 60.3807C144.56 59.8769 144.657 59.2955 144.657 58.6364C144.657 57.9848 144.562 57.4148 144.373 56.9261C144.183 56.4337 143.903 56.0511 143.532 55.7784C143.161 55.5019 142.702 55.3636 142.157 55.3636C141.589 55.3636 141.115 55.5095 140.737 55.8011C140.362 56.089 140.079 56.4811 139.89 56.9773C139.704 57.4697 139.612 58.0227 139.612 58.6364C139.612 59.2576 139.706 59.822 139.896 60.3295C140.089 60.8333 140.373 61.2348 140.748 61.5341C141.127 61.8295 141.596 61.9773 142.157 61.9773ZM149.097 63V54.2727H150.393V55.5909H150.484C150.643 55.1591 150.931 54.8087 151.347 54.5398C151.764 54.2708 152.234 54.1364 152.756 54.1364C152.855 54.1364 152.978 54.1383 153.126 54.142C153.273 54.1458 153.385 54.1515 153.461 54.1591V55.5227C153.415 55.5114 153.311 55.4943 153.148 55.4716C152.989 55.4451 152.821 55.4318 152.643 55.4318C152.218 55.4318 151.84 55.5208 151.506 55.6989C151.177 55.8731 150.915 56.1155 150.722 56.4261C150.533 56.733 150.438 57.0833 150.438 57.4773V63H149.097ZM155.53 63V54.2727H156.871V63H155.53ZM156.212 52.8182C155.951 52.8182 155.725 52.7292 155.536 52.5511C155.35 52.3731 155.258 52.1591 155.258 51.9091C155.258 51.6591 155.35 51.4451 155.536 51.267C155.725 51.089 155.951 51 156.212 51C156.474 51 156.697 51.089 156.883 51.267C157.072 51.4451 157.167 51.6591 157.167 51.9091C157.167 52.1591 157.072 52.3731 156.883 52.5511C156.697 52.7292 156.474 52.8182 156.212 52.8182ZM161.148 57.75V63H159.807V54.2727H161.103V55.6364H161.216C161.421 55.1932 161.731 54.8371 162.148 54.5682C162.565 54.2955 163.103 54.1591 163.762 54.1591C164.353 54.1591 164.87 54.2803 165.313 54.5227C165.756 54.7614 166.101 55.125 166.347 55.6136C166.593 56.0985 166.716 56.7121 166.716 57.4545V63H165.375V57.5455C165.375 56.8598 165.197 56.3258 164.841 55.9432C164.485 55.5568 163.997 55.3636 163.375 55.3636C162.947 55.3636 162.565 55.4564 162.228 55.642C161.894 55.8277 161.631 56.0985 161.438 56.4545C161.245 56.8106 161.148 57.2424 161.148 57.75ZM173.169 66.4545C172.522 66.4545 171.965 66.3712 171.499 66.2045C171.033 66.0417 170.645 65.8258 170.334 65.5568C170.027 65.2917 169.783 65.0076 169.601 64.7045L170.669 63.9545C170.791 64.1136 170.944 64.2955 171.13 64.5C171.315 64.7083 171.569 64.8883 171.891 65.0398C172.217 65.1951 172.643 65.2727 173.169 65.2727C173.874 65.2727 174.455 65.1023 174.914 64.7614C175.372 64.4205 175.601 63.8864 175.601 63.1591V61.3864H175.487C175.389 61.5455 175.249 61.7424 175.067 61.9773C174.889 62.2083 174.631 62.4148 174.294 62.5966C173.961 62.7746 173.51 62.8636 172.942 62.8636C172.237 62.8636 171.605 62.697 171.044 62.3636C170.487 62.0303 170.046 61.5455 169.72 60.9091C169.398 60.2727 169.237 59.5 169.237 58.5909C169.237 57.697 169.395 56.9186 169.709 56.2557C170.023 55.589 170.461 55.0739 171.022 54.7102C171.582 54.3428 172.23 54.1591 172.965 54.1591C173.533 54.1591 173.984 54.2538 174.317 54.4432C174.654 54.6288 174.912 54.8409 175.09 55.0795C175.272 55.3144 175.412 55.5076 175.51 55.6591H175.647V54.2727H176.942V63.25C176.942 64 176.772 64.6098 176.431 65.0795C176.094 65.553 175.639 65.8996 175.067 66.1193C174.499 66.3428 173.866 66.4545 173.169 66.4545ZM173.124 61.6591C173.662 61.6591 174.116 61.536 174.487 61.2898C174.859 61.0436 175.141 60.6894 175.334 60.2273C175.527 59.7652 175.624 59.2121 175.624 58.5682C175.624 57.9394 175.529 57.3845 175.34 56.9034C175.15 56.4223 174.87 56.0455 174.499 55.7727C174.128 55.5 173.669 55.3636 173.124 55.3636C172.556 55.3636 172.082 55.5076 171.703 55.7955C171.328 56.0833 171.046 56.4697 170.857 56.9545C170.671 57.4394 170.578 57.9773 170.578 58.5682C170.578 59.1742 170.673 59.7102 170.862 60.1761C171.056 60.6383 171.34 61.0019 171.715 61.267C172.094 61.5284 172.563 61.6591 173.124 61.6591ZM188.402 63.1818C187.614 63.1818 186.923 62.9943 186.328 62.6193C185.737 62.2443 185.275 61.7197 184.942 61.0455C184.612 60.3712 184.447 59.5833 184.447 58.6818C184.447 57.7727 184.612 56.9792 184.942 56.3011C185.275 55.6231 185.737 55.0966 186.328 54.7216C186.923 54.3466 187.614 54.1591 188.402 54.1591C189.19 54.1591 189.879 54.3466 190.47 54.7216C191.065 55.0966 191.527 55.6231 191.857 56.3011C192.19 56.9792 192.357 57.7727 192.357 58.6818C192.357 59.5833 192.19 60.3712 191.857 61.0455C191.527 61.7197 191.065 62.2443 190.47 62.6193C189.879 62.9943 189.19 63.1818 188.402 63.1818ZM188.402 61.9773C189.001 61.9773 189.493 61.8239 189.879 61.517C190.266 61.2102 190.552 60.8068 190.737 60.3068C190.923 59.8068 191.016 59.2652 191.016 58.6818C191.016 58.0985 190.923 57.5549 190.737 57.0511C190.552 56.5473 190.266 56.1402 189.879 55.8295C189.493 55.5189 189.001 55.3636 188.402 55.3636C187.804 55.3636 187.311 55.5189 186.925 55.8295C186.538 56.1402 186.252 56.5473 186.067 57.0511C185.881 57.5549 185.788 58.0985 185.788 58.6818C185.788 59.2652 185.881 59.8068 186.067 60.3068C186.252 60.8068 186.538 61.2102 186.925 61.517C187.311 61.8239 187.804 61.9773 188.402 61.9773ZM198.406 66.4545C197.758 66.4545 197.202 66.3712 196.736 66.2045C196.27 66.0417 195.882 65.8258 195.571 65.5568C195.264 65.2917 195.02 65.0076 194.838 64.7045L195.906 63.9545C196.027 64.1136 196.181 64.2955 196.366 64.5C196.552 64.7083 196.806 64.8883 197.128 65.0398C197.454 65.1951 197.88 65.2727 198.406 65.2727C199.111 65.2727 199.692 65.1023 200.15 64.7614C200.609 64.4205 200.838 63.8864 200.838 63.1591V61.3864H200.724C200.626 61.5455 200.486 61.7424 200.304 61.9773C200.126 62.2083 199.868 62.4148 199.531 62.5966C199.198 62.7746 198.747 62.8636 198.179 62.8636C197.474 62.8636 196.842 62.697 196.281 62.3636C195.724 62.0303 195.283 61.5455 194.957 60.9091C194.635 60.2727 194.474 59.5 194.474 58.5909C194.474 57.697 194.632 56.9186 194.946 56.2557C195.26 55.589 195.698 55.0739 196.258 54.7102C196.819 54.3428 197.467 54.1591 198.202 54.1591C198.77 54.1591 199.221 54.2538 199.554 54.4432C199.891 54.6288 200.149 54.8409 200.327 55.0795C200.508 55.3144 200.649 55.5076 200.747 55.6591H200.883V54.2727H202.179V63.25C202.179 64 202.008 64.6098 201.668 65.0795C201.33 65.553 200.876 65.8996 200.304 66.1193C199.736 66.3428 199.103 66.4545 198.406 66.4545ZM198.361 61.6591C198.899 61.6591 199.353 61.536 199.724 61.2898C200.096 61.0436 200.378 60.6894 200.571 60.2273C200.764 59.7652 200.861 59.2121 200.861 58.5682C200.861 57.9394 200.766 57.3845 200.577 56.9034C200.387 56.4223 200.107 56.0455 199.736 55.7727C199.365 55.5 198.906 55.3636 198.361 55.3636C197.793 55.3636 197.319 55.5076 196.94 55.7955C196.565 56.0833 196.283 56.4697 196.094 56.9545C195.908 57.4394 195.815 57.9773 195.815 58.5682C195.815 59.1742 195.91 59.7102 196.099 60.1761C196.293 60.6383 196.577 61.0019 196.952 61.267C197.33 61.5284 197.8 61.6591 198.361 61.6591ZM119.423 85.2727V73.2727H120.718V74.6591H120.877C120.976 74.5076 121.112 74.3144 121.286 74.0795C121.464 73.8409 121.718 73.6288 122.048 73.4432C122.381 73.2538 122.832 73.1591 123.4 73.1591C124.135 73.1591 124.783 73.3428 125.343 73.7102C125.904 74.0777 126.341 74.5985 126.656 75.2727C126.97 75.947 127.127 76.7424 127.127 77.6591C127.127 78.5833 126.97 79.3845 126.656 80.0625C126.341 80.7367 125.906 81.2595 125.349 81.6307C124.792 81.9981 124.15 82.1818 123.423 82.1818C122.862 82.1818 122.413 82.089 122.076 81.9034C121.739 81.714 121.48 81.5 121.298 81.2614C121.116 81.0189 120.976 80.8182 120.877 80.6591H120.764V85.2727H119.423ZM120.741 77.6364C120.741 78.2955 120.838 78.8769 121.031 79.3807C121.224 79.8807 121.506 80.2727 121.877 80.5568C122.249 80.8371 122.703 80.9773 123.241 80.9773C123.802 80.9773 124.269 80.8295 124.644 80.5341C125.023 80.2348 125.307 79.8333 125.497 79.3295C125.69 78.822 125.786 78.2576 125.786 77.6364C125.786 77.0227 125.692 76.4697 125.502 75.9773C125.317 75.4811 125.035 75.089 124.656 74.8011C124.281 74.5095 123.809 74.3636 123.241 74.3636C122.696 74.3636 122.237 74.5019 121.866 74.7784C121.495 75.0511 121.214 75.4337 121.025 75.9261C120.836 76.4148 120.741 76.9848 120.741 77.6364ZM129.653 82V73.2727H130.948V74.5909H131.039C131.198 74.1591 131.486 73.8087 131.903 73.5398C132.319 73.2708 132.789 73.1364 133.312 73.1364C133.41 73.1364 133.534 73.1383 133.681 73.142C133.829 73.1458 133.941 73.1515 134.016 73.1591V74.5227C133.971 74.5114 133.867 74.4943 133.704 74.4716C133.545 74.4451 133.376 74.4318 133.198 74.4318C132.774 74.4318 132.395 74.5208 132.062 74.6989C131.732 74.8731 131.471 75.1155 131.278 75.4261C131.088 75.733 130.994 76.0833 130.994 76.4773V82H129.653ZM145.222 82.1818C144.256 82.1818 143.453 81.9451 142.813 81.4716C142.173 80.9943 141.779 80.375 141.631 79.6136L141.881 75.2727C142.165 74.6136 142.576 74.0966 143.114 73.7216C143.656 73.3466 144.313 73.1591 145.086 73.1591C145.54 73.1591 145.989 73.2348 146.433 73.3864C146.876 73.5379 147.279 73.7841 147.643 74.125C148.006 74.4621 148.296 74.9091 148.512 75.4659C148.728 76.0227 148.836 76.7083 148.836 77.5227V78.0909H142.109V76.9318H147.472C147.472 76.4394 147.374 76 147.177 75.6136C146.984 75.2273 146.707 74.9223 146.347 74.6989C145.991 74.4754 145.571 74.3636 145.086 74.3636C144.552 74.3636 144.09 74.4962 143.7 74.7614C143.313 75.0227 143.016 75.3655 142.808 75.7898C142.599 76.2102 142.495 76.6591 142.495 77.1364V77.9091C142.495 78.5682 142.611 79.1269 142.842 79.5852C143.073 80.0398 143.393 80.3864 143.802 80.625C144.211 80.8598 144.684 80.9773 145.222 80.9773C145.575 80.9773 145.893 80.928 146.177 80.8295C146.465 80.7273 146.713 80.5758 146.921 80.375C147.13 80.1705 147.29 79.9167 147.404 79.6136L148.7 79.9773C148.563 80.4167 148.334 80.803 148.012 81.1364C147.69 81.4659 147.292 81.7235 146.819 81.9091C146.345 82.0909 145.813 82.1818 145.222 82.1818ZM138.859 81C139.389 81 139.836 80.8958 140.2 80.6875C140.567 80.4792 140.844 80.2102 141.029 79.8807C141.219 79.5511 141.313 79.2045 141.313 78.8409V77.6136C141.256 77.6818 141.131 77.7443 140.938 77.8011C140.749 77.8542 140.529 77.9015 140.279 77.9432C140.033 77.9811 139.792 78.0152 139.558 78.0455C139.326 78.072 139.139 78.0947 138.995 78.1136C138.647 78.1591 138.321 78.233 138.018 78.3352C137.719 78.4337 137.476 78.5833 137.29 78.7841C137.109 78.9811 137.018 79.25 137.018 79.5909C137.018 80.0568 137.19 80.4091 137.535 80.6477C137.883 80.8826 138.325 81 138.859 81ZM138.654 82.2045C138.101 82.2045 137.599 82.1004 137.148 81.892C136.698 81.6799 136.34 81.375 136.075 80.9773C135.809 80.5758 135.677 80.0909 135.677 79.5227C135.677 79.0227 135.775 78.6174 135.972 78.3068C136.173 77.9924 136.436 77.7462 136.762 77.5682C137.092 77.3864 137.457 77.2519 137.859 77.1648C138.26 77.0739 138.662 77.0038 139.063 76.9545C139.594 76.8864 140.023 76.8333 140.353 76.7955C140.686 76.7576 140.929 76.6951 141.08 76.608C141.236 76.5208 141.313 76.3712 141.313 76.1591V76.1136C141.313 75.5568 141.16 75.1231 140.853 74.8125C140.546 74.4981 140.086 74.3409 139.472 74.3409C138.836 74.3409 138.334 74.4811 137.967 74.7614C137.603 75.0417 137.347 75.3409 137.2 75.6591L135.927 75.2045C136.154 74.6742 136.457 74.2614 136.836 73.9659C137.219 73.6667 137.635 73.4583 138.086 73.3409C138.54 73.2197 138.987 73.1591 139.427 73.1591C139.662 73.1591 139.927 73.1818 140.222 73.2273C140.518 73.2689 140.815 73.3542 141.114 73.483C141.414 73.6117 141.686 73.803 141.933 74.0568C142.179 74.3106 142.366 74.6477 142.495 75.0682L141.972 80.4091H141.859C141.745 80.7348 141.531 81.0341 141.217 81.3068C140.906 81.5795 140.527 81.7973 140.08 81.9602C139.637 82.1231 139.162 82.2045 138.654 82.2045ZM157.545 75.2273L156.34 75.5682C156.264 75.3674 156.153 75.1723 156.005 74.983C155.861 74.7898 155.664 74.6307 155.414 74.5057C155.164 74.3807 154.844 74.3182 154.454 74.3182C153.92 74.3182 153.475 74.4413 153.119 74.6875C152.766 74.9299 152.59 75.2386 152.59 75.6136C152.59 75.947 152.711 76.2102 152.954 76.4034C153.196 76.5966 153.575 76.7576 154.09 76.8864L155.386 77.2045C156.166 77.3939 156.747 77.6837 157.13 78.0739C157.512 78.4602 157.704 78.9583 157.704 79.5682C157.704 80.0682 157.56 80.5152 157.272 80.9091C156.988 81.303 156.59 81.6136 156.079 81.8409C155.567 82.0682 154.973 82.1818 154.295 82.1818C153.404 82.1818 152.668 81.9886 152.084 81.6023C151.501 81.2159 151.132 80.6515 150.976 79.9091L152.249 79.5909C152.37 80.0606 152.6 80.4129 152.937 80.6477C153.278 80.8826 153.723 81 154.272 81C154.897 81 155.393 80.8674 155.761 80.6023C156.132 80.3333 156.317 80.0114 156.317 79.6364C156.317 79.3333 156.211 79.0795 155.999 78.875C155.787 78.6667 155.461 78.5114 155.022 78.4091L153.567 78.0682C152.768 77.8788 152.181 77.5852 151.806 77.1875C151.435 76.786 151.249 76.2841 151.249 75.6818C151.249 75.1894 151.387 74.7538 151.664 74.375C151.944 73.9962 152.325 73.6989 152.806 73.483C153.291 73.267 153.84 73.1591 154.454 73.1591C155.317 73.1591 155.995 73.3485 156.488 73.7273C156.984 74.1061 157.336 74.6061 157.545 75.2273ZM163.861 82.1818C163.02 82.1818 162.295 81.9962 161.685 81.625C161.079 81.25 160.611 80.7273 160.282 80.0568C159.956 79.3826 159.793 78.5985 159.793 77.7045C159.793 76.8106 159.956 76.0227 160.282 75.3409C160.611 74.6553 161.07 74.1212 161.657 73.7386C162.248 73.3523 162.937 73.1591 163.725 73.1591C164.179 73.1591 164.628 73.2348 165.072 73.3864C165.515 73.5379 165.918 73.7841 166.282 74.125C166.645 74.4621 166.935 74.9091 167.151 75.4659C167.367 76.0227 167.475 76.7083 167.475 77.5227V78.0909H160.748V76.9318H166.111C166.111 76.4394 166.013 76 165.816 75.6136C165.623 75.2273 165.346 74.9223 164.986 74.6989C164.63 74.4754 164.21 74.3636 163.725 74.3636C163.191 74.3636 162.729 74.4962 162.339 74.7614C161.952 75.0227 161.655 75.3636 161.447 75.7841C161.238 76.2045 161.134 76.6553 161.134 77.1364V77.9091C161.134 78.5682 161.248 79.1269 161.475 79.5852C161.706 80.0398 162.026 80.3864 162.435 80.625C162.844 80.8598 163.32 80.9773 163.861 80.9773C164.214 80.9773 164.532 80.928 164.816 80.8295C165.104 80.7273 165.352 80.5758 165.56 80.375C165.768 80.1705 165.929 79.9167 166.043 79.6136L167.339 79.9773C167.202 80.4167 166.973 80.803 166.651 81.1364C166.329 81.4659 165.931 81.7235 165.458 81.9091C164.984 82.0909 164.452 82.1818 163.861 82.1818ZM171.336 76.75V82H169.995V73.2727H171.29V74.6364H171.404C171.608 74.1932 171.919 73.8371 172.336 73.5682C172.752 73.2955 173.29 73.1591 173.949 73.1591C174.54 73.1591 175.057 73.2803 175.5 73.5227C175.944 73.7614 176.288 74.125 176.534 74.6136C176.781 75.0985 176.904 75.7121 176.904 76.4545V82H175.563V76.5455C175.563 75.8598 175.385 75.3258 175.029 74.9432C174.673 74.5568 174.184 74.3636 173.563 74.3636C173.135 74.3636 172.752 74.4564 172.415 74.642C172.082 74.8277 171.819 75.0985 171.625 75.4545C171.432 75.8106 171.336 76.2424 171.336 76.75ZM183.63 73.2727V74.4091H179.107V73.2727H183.63ZM180.425 71.1818H181.766V79.5C181.766 79.8788 181.821 80.1629 181.931 80.3523C182.044 80.5379 182.188 80.6629 182.362 80.7273C182.541 80.7879 182.728 80.8182 182.925 80.8182C183.073 80.8182 183.194 80.8106 183.289 80.7955C183.383 80.7765 183.459 80.7614 183.516 80.75L183.789 81.9545C183.698 81.9886 183.571 82.0227 183.408 82.0568C183.245 82.0947 183.039 82.1136 182.789 82.1136C182.41 82.1136 182.039 82.0322 181.675 81.8693C181.315 81.7064 181.016 81.4583 180.777 81.125C180.542 80.7917 180.425 80.3712 180.425 79.8636V71.1818ZM188.695 82.2045C188.142 82.2045 187.64 82.1004 187.189 81.892C186.738 81.6799 186.38 81.375 186.115 80.9773C185.85 80.5758 185.717 80.0909 185.717 79.5227C185.717 79.0227 185.816 78.6174 186.013 78.3068C186.21 77.9924 186.473 77.7462 186.803 77.5682C187.132 77.3902 187.496 77.2576 187.894 77.1705C188.295 77.0795 188.699 77.0076 189.104 76.9545C189.634 76.8864 190.064 76.8352 190.394 76.8011C190.727 76.7633 190.969 76.7008 191.121 76.6136C191.276 76.5265 191.354 76.375 191.354 76.1591V76.1136C191.354 75.553 191.2 75.1174 190.894 74.8068C190.591 74.4962 190.13 74.3409 189.513 74.3409C188.873 74.3409 188.371 74.4811 188.007 74.7614C187.644 75.0417 187.388 75.3409 187.24 75.6591L185.967 75.2045C186.195 74.6742 186.498 74.2614 186.877 73.9659C187.259 73.6667 187.676 73.4583 188.127 73.3409C188.581 73.2197 189.028 73.1591 189.467 73.1591C189.748 73.1591 190.07 73.1932 190.433 73.2614C190.801 73.3258 191.155 73.4602 191.496 73.6648C191.841 73.8693 192.127 74.178 192.354 74.5909C192.581 75.0038 192.695 75.5568 192.695 76.25V82H191.354V80.8182H191.286C191.195 81.0076 191.043 81.2102 190.831 81.4261C190.619 81.642 190.337 81.8258 189.985 81.9773C189.632 82.1288 189.202 82.2045 188.695 82.2045ZM188.899 81C189.43 81 189.877 80.8958 190.24 80.6875C190.608 80.4792 190.884 80.2102 191.07 79.8807C191.259 79.5511 191.354 79.2045 191.354 78.8409V77.6136C191.297 77.6818 191.172 77.7443 190.979 77.8011C190.789 77.8542 190.57 77.9015 190.32 77.9432C190.074 77.9811 189.833 78.0152 189.598 78.0455C189.367 78.072 189.18 78.0947 189.036 78.1136C188.687 78.1591 188.361 78.233 188.058 78.3352C187.759 78.4337 187.517 78.5833 187.331 78.7841C187.149 78.9811 187.058 79.25 187.058 79.5909C187.058 80.0568 187.231 80.4091 187.575 80.6477C187.924 80.8826 188.365 81 188.899 81ZM199.418 73.2727V74.4091H194.895V73.2727H199.418ZM196.213 71.1818H197.554V79.5C197.554 79.8788 197.609 80.1629 197.719 80.3523C197.832 80.5379 197.976 80.6629 198.151 80.7273C198.329 80.7879 198.516 80.8182 198.713 80.8182C198.861 80.8182 198.982 80.8106 199.077 80.7955C199.171 80.7765 199.247 80.7614 199.304 80.75L199.577 81.9545C199.486 81.9886 199.359 82.0227 199.196 82.0568C199.033 82.0947 198.827 82.1136 198.577 82.1136C198.198 82.1136 197.827 82.0322 197.463 81.8693C197.103 81.7064 196.804 81.4583 196.565 81.125C196.331 80.7917 196.213 80.3712 196.213 79.8636V71.1818ZM201.915 82V73.2727H203.256V82H201.915ZM202.597 71.8182C202.335 71.8182 202.11 71.7292 201.92 71.5511C201.735 71.3731 201.642 71.1591 201.642 70.9091C201.642 70.6591 201.735 70.4451 201.92 70.267C202.11 70.089 202.335 70 202.597 70C202.858 70 203.081 70.089 203.267 70.267C203.456 70.4451 203.551 70.6591 203.551 70.9091C203.551 71.1591 203.456 71.3731 203.267 71.5511C203.081 71.7292 202.858 71.8182 202.597 71.8182ZM209.737 82.1818C208.949 82.1818 208.258 81.9943 207.663 81.6193C207.072 81.2443 206.61 80.7197 206.277 80.0455C205.947 79.3712 205.782 78.5833 205.782 77.6818C205.782 76.7727 205.947 75.9792 206.277 75.3011C206.61 74.6231 207.072 74.0966 207.663 73.7216C208.258 73.3466 208.949 73.1591 209.737 73.1591C210.525 73.1591 211.214 73.3466 211.805 73.7216C212.4 74.0966 212.862 74.6231 213.192 75.3011C213.525 75.9792 213.692 76.7727 213.692 77.6818C213.692 78.5833 213.525 79.3712 213.192 80.0455C212.862 80.7197 212.4 81.2443 211.805 81.6193C211.214 81.9943 210.525 82.1818 209.737 82.1818ZM209.737 80.9773C210.336 80.9773 210.828 80.8239 211.214 80.517C211.601 80.2102 211.887 79.8068 212.072 79.3068C212.258 78.8068 212.351 78.2652 212.351 77.6818C212.351 77.0985 212.258 76.5549 212.072 76.0511C211.887 75.5473 211.601 75.1402 211.214 74.8295C210.828 74.5189 210.336 74.3636 209.737 74.3636C209.139 74.3636 208.646 74.5189 208.26 74.8295C207.873 75.1402 207.587 75.5473 207.402 76.0511C207.216 76.5549 207.123 77.0985 207.123 77.6818C207.123 78.2652 207.216 78.8068 207.402 79.3068C207.587 79.8068 207.873 80.2102 208.26 80.517C208.646 80.8239 209.139 80.9773 209.737 80.9773ZM217.559 76.75V82H216.218V73.2727H217.514V74.6364H217.628C217.832 74.1932 218.143 73.8371 218.559 73.5682C218.976 73.2955 219.514 73.1591 220.173 73.1591C220.764 73.1591 221.281 73.2803 221.724 73.5227C222.167 73.7614 222.512 74.125 222.758 74.6136C223.004 75.0985 223.128 75.7121 223.128 76.4545V82H221.787V76.5455C221.787 75.8598 221.609 75.3258 221.253 74.9432C220.896 74.5568 220.408 74.3636 219.787 74.3636C219.359 74.3636 218.976 74.4564 218.639 74.642C218.306 74.8277 218.042 75.0985 217.849 75.4545C217.656 75.8106 217.559 76.2424 217.559 76.75ZM233.606 82.2045C233.053 82.2045 232.551 82.1004 232.1 81.892C231.65 81.6799 231.292 81.375 231.026 80.9773C230.761 80.5758 230.629 80.0909 230.629 79.5227C230.629 79.0227 230.727 78.6174 230.924 78.3068C231.121 77.9924 231.384 77.7462 231.714 77.5682C232.044 77.3902 232.407 77.2576 232.805 77.1705C233.206 77.0795 233.61 77.0076 234.015 76.9545C234.545 76.8864 234.975 76.8352 235.305 76.8011C235.638 76.7633 235.881 76.7008 236.032 76.6136C236.187 76.5265 236.265 76.375 236.265 76.1591V76.1136C236.265 75.553 236.112 75.1174 235.805 74.8068C235.502 74.4962 235.042 74.3409 234.424 74.3409C233.784 74.3409 233.282 74.4811 232.919 74.7614C232.555 75.0417 232.299 75.3409 232.151 75.6591L230.879 75.2045C231.106 74.6742 231.409 74.2614 231.788 73.9659C232.17 73.6667 232.587 73.4583 233.038 73.3409C233.492 73.2197 233.939 73.1591 234.379 73.1591C234.659 73.1591 234.981 73.1932 235.345 73.2614C235.712 73.3258 236.066 73.4602 236.407 73.6648C236.752 73.8693 237.038 74.178 237.265 74.5909C237.492 75.0038 237.606 75.5568 237.606 76.25V82H236.265V80.8182H236.197C236.106 81.0076 235.954 81.2102 235.742 81.4261C235.53 81.642 235.248 81.8258 234.896 81.9773C234.544 82.1288 234.114 82.2045 233.606 82.2045ZM233.811 81C234.341 81 234.788 80.8958 235.151 80.6875C235.519 80.4792 235.795 80.2102 235.981 79.8807C236.17 79.5511 236.265 79.2045 236.265 78.8409V77.6136C236.208 77.6818 236.083 77.7443 235.89 77.8011C235.701 77.8542 235.481 77.9015 235.231 77.9432C234.985 77.9811 234.744 78.0152 234.509 78.0455C234.278 78.072 234.091 78.0947 233.947 78.1136C233.598 78.1591 233.273 78.233 232.97 78.3352C232.67 78.4337 232.428 78.5833 232.242 78.7841C232.061 78.9811 231.97 79.25 231.97 79.5909C231.97 80.0568 232.142 80.4091 232.487 80.6477C232.835 80.8826 233.276 81 233.811 81ZM244.42 73.2727V74.4091H239.715V73.2727H244.42ZM241.124 82V72.0682C241.124 71.5682 241.242 71.1515 241.477 70.8182C241.711 70.4848 242.016 70.2348 242.391 70.0682C242.766 69.9015 243.162 69.8182 243.579 69.8182C243.908 69.8182 244.177 69.8447 244.386 69.8977C244.594 69.9508 244.749 70 244.852 70.0455L244.465 71.2045C244.397 71.1818 244.302 71.1534 244.181 71.1193C244.064 71.0852 243.908 71.0682 243.715 71.0682C243.272 71.0682 242.952 71.1799 242.755 71.4034C242.562 71.6269 242.465 71.9545 242.465 72.3864V82H241.124ZM125.605 94.2273L124.4 94.5682C124.324 94.3674 124.213 94.1723 124.065 93.983C123.921 93.7898 123.724 93.6307 123.474 93.5057C123.224 93.3807 122.904 93.3182 122.514 93.3182C121.98 93.3182 121.535 93.4413 121.179 93.6875C120.826 93.9299 120.65 94.2386 120.65 94.6136C120.65 94.947 120.771 95.2102 121.014 95.4034C121.256 95.5966 121.635 95.7576 122.15 95.8864L123.446 96.2045C124.226 96.3939 124.807 96.6837 125.19 97.0739C125.572 97.4602 125.764 97.9583 125.764 98.5682C125.764 99.0682 125.62 99.5152 125.332 99.9091C125.048 100.303 124.65 100.614 124.139 100.841C123.627 101.068 123.033 101.182 122.355 101.182C121.464 101.182 120.728 100.989 120.144 100.602C119.561 100.216 119.192 99.6515 119.036 98.9091L120.309 98.5909C120.43 99.0606 120.66 99.4129 120.997 99.6477C121.338 99.8826 121.783 100 122.332 100C122.957 100 123.453 99.8674 123.821 99.6023C124.192 99.3333 124.377 99.0114 124.377 98.6364C124.377 98.3333 124.271 98.0795 124.059 97.875C123.847 97.6667 123.521 97.5114 123.082 97.4091L121.627 97.0682C120.828 96.8788 120.241 96.5852 119.866 96.1875C119.495 95.786 119.309 95.2841 119.309 94.6818C119.309 94.1894 119.447 93.7538 119.724 93.375C120.004 92.9962 120.385 92.6989 120.866 92.483C121.351 92.267 121.9 92.1591 122.514 92.1591C123.377 92.1591 124.055 92.3485 124.548 92.7273C125.044 93.1061 125.396 93.6061 125.605 94.2273ZM129.194 101.477L128.33 100.886L134.421 91.8636L135.285 92.4545L129.194 101.477ZM131.808 101.182C131.02 101.182 130.328 100.994 129.734 100.619C129.143 100.244 128.681 99.7197 128.347 99.0455C128.018 98.3712 127.853 97.5833 127.853 96.6818C127.853 95.7727 128.018 94.9792 128.347 94.3011C128.681 93.6231 129.143 93.0966 129.734 92.7216C130.328 92.3466 131.02 92.1591 131.808 92.1591C132.596 92.1591 133.285 92.3466 133.876 92.7216C134.471 93.0966 134.933 93.6231 135.262 94.3011C135.596 94.9792 135.762 95.7727 135.762 96.6818C135.762 97.5833 135.596 98.3712 135.262 99.0455C134.933 99.7197 134.471 100.244 133.876 100.619C133.285 100.994 132.596 101.182 131.808 101.182ZM131.808 99.9773C132.406 99.9773 132.899 99.8239 133.285 99.517C133.671 99.2102 133.957 98.8068 134.143 98.3068C134.328 97.8068 134.421 97.2652 134.421 96.6818C134.421 96.0985 134.328 95.5549 134.143 95.0511C133.957 94.5473 133.671 94.1402 133.285 93.8295C132.899 93.5189 132.406 93.3636 131.808 93.3636C131.209 93.3636 130.717 93.5189 130.33 93.8295C129.944 94.1402 129.658 94.5473 129.472 95.0511C129.287 95.5549 129.194 96.0985 129.194 96.6818C129.194 97.2652 129.287 97.8068 129.472 98.3068C129.658 98.8068 129.944 99.2102 130.33 99.517C130.717 99.8239 131.209 99.9773 131.808 99.9773ZM138.471 101V89.3636H139.812V93.6591H139.925C140.024 93.5076 140.16 93.3144 140.335 93.0795C140.513 92.8409 140.766 92.6288 141.096 92.4432C141.429 92.2538 141.88 92.1591 142.448 92.1591C143.183 92.1591 143.831 92.3428 144.391 92.7102C144.952 93.0777 145.389 93.5985 145.704 94.2727C146.018 94.947 146.175 95.7424 146.175 96.6591C146.175 97.5833 146.018 98.3845 145.704 99.0625C145.389 99.7367 144.954 100.259 144.397 100.631C143.84 100.998 143.198 101.182 142.471 101.182C141.91 101.182 141.461 101.089 141.124 100.903C140.787 100.714 140.528 100.5 140.346 100.261C140.164 100.019 140.024 99.8182 139.925 99.6591H139.766V101H138.471ZM139.789 96.6364C139.789 97.2955 139.886 97.8769 140.079 98.3807C140.272 98.8807 140.554 99.2727 140.925 99.5568C141.297 99.8371 141.751 99.9773 142.289 99.9773C142.85 99.9773 143.317 99.8295 143.692 99.5341C144.071 99.2348 144.355 98.8333 144.545 98.3295C144.738 97.822 144.835 97.2576 144.835 96.6364C144.835 96.0227 144.74 95.4697 144.55 94.9773C144.365 94.4811 144.083 94.089 143.704 93.8011C143.329 93.5095 142.857 93.3636 142.289 93.3636C141.744 93.3636 141.285 93.5019 140.914 93.7784C140.543 94.0511 140.263 94.4337 140.073 94.9261C139.884 95.4148 139.789 95.9848 139.789 96.6364ZM148.707 92.2727H150.047V101.636C150.047 102.174 149.955 102.64 149.769 103.034C149.587 103.428 149.311 103.733 148.94 103.949C148.572 104.165 148.108 104.273 147.547 104.273C147.502 104.273 147.457 104.273 147.411 104.273C147.366 104.273 147.32 104.273 147.275 104.273V103.023C147.32 103.023 147.362 103.023 147.4 103.023C147.438 103.023 147.479 103.023 147.525 103.023C147.934 103.023 148.233 102.902 148.422 102.659C148.612 102.42 148.707 102.08 148.707 101.636V92.2727ZM149.366 90.8182C149.104 90.8182 148.879 90.7292 148.69 90.5511C148.504 90.3731 148.411 90.1591 148.411 89.9091C148.411 89.6591 148.504 89.4451 148.69 89.267C148.879 89.089 149.104 89 149.366 89C149.627 89 149.851 89.089 150.036 89.267C150.226 89.4451 150.32 89.6591 150.32 89.9091C150.32 90.1591 150.226 90.3731 150.036 90.5511C149.851 90.7292 149.627 90.8182 149.366 90.8182ZM153.915 101.477L153.052 100.886L159.143 91.8636L160.006 92.4545L153.915 101.477ZM156.529 101.182C155.741 101.182 155.05 100.994 154.455 100.619C153.864 100.244 153.402 99.7197 153.069 99.0455C152.739 98.3712 152.574 97.5833 152.574 96.6818C152.574 95.7727 152.739 94.9792 153.069 94.3011C153.402 93.6231 153.864 93.0966 154.455 92.7216C155.05 92.3466 155.741 92.1591 156.529 92.1591C157.317 92.1591 158.006 92.3466 158.597 92.7216C159.192 93.0966 159.654 93.6231 159.983 94.3011C160.317 94.9792 160.483 95.7727 160.483 96.6818C160.483 97.5833 160.317 98.3712 159.983 99.0455C159.654 99.7197 159.192 100.244 158.597 100.619C158.006 100.994 157.317 101.182 156.529 101.182ZM156.529 99.9773C157.127 99.9773 157.62 99.8239 158.006 99.517C158.393 99.2102 158.679 98.8068 158.864 98.3068C159.05 97.8068 159.143 97.2652 159.143 96.6818C159.143 96.0985 159.05 95.5549 158.864 95.0511C158.679 94.5473 158.393 94.1402 158.006 93.8295C157.62 93.5189 157.127 93.3636 156.529 93.3636C155.93 93.3636 155.438 93.5189 155.052 93.8295C154.665 94.1402 154.379 94.5473 154.194 95.0511C154.008 95.5549 153.915 96.0985 153.915 96.6818C153.915 97.2652 154.008 97.8068 154.194 98.3068C154.379 98.8068 154.665 99.2102 155.052 99.517C155.438 99.8239 155.93 99.9773 156.529 99.9773ZM163.01 101V92.2727H164.306V93.5909H164.397C164.556 93.1591 164.844 92.8087 165.26 92.5398C165.677 92.2708 166.147 92.1364 166.669 92.1364C166.768 92.1364 166.891 92.1383 167.039 92.142C167.186 92.1458 167.298 92.1515 167.374 92.1591V93.5227C167.329 93.5114 167.224 93.4943 167.061 93.4716C166.902 93.4451 166.734 93.4318 166.556 93.4318C166.132 93.4318 165.753 93.5208 165.419 93.6989C165.09 93.8731 164.829 94.1155 164.635 94.4261C164.446 94.733 164.351 95.0833 164.351 95.4773V101H163.01ZM170.784 95.75V101H169.443V92.2727H170.739V93.6364H170.853C171.057 93.1932 171.368 92.8371 171.784 92.5682C172.201 92.2955 172.739 92.1591 173.398 92.1591C173.989 92.1591 174.506 92.2803 174.949 92.5227C175.392 92.7614 175.737 93.125 175.983 93.6136C176.229 94.0985 176.353 94.7121 176.353 95.4545V101H175.012V95.5455C175.012 94.8598 174.834 94.3258 174.478 93.9432C174.121 93.5568 173.633 93.3636 173.012 93.3636C172.584 93.3636 172.201 93.4564 171.864 93.642C171.531 93.8277 171.267 94.0985 171.074 94.4545C170.881 94.8106 170.784 95.2424 170.784 95.75ZM182.942 101.182C182.101 101.182 181.376 100.996 180.766 100.625C180.16 100.25 179.692 99.7273 179.362 99.0568C179.037 98.3826 178.874 97.5985 178.874 96.7045C178.874 95.8106 179.037 95.0227 179.362 94.3409C179.692 93.6553 180.15 93.1212 180.737 92.7386C181.328 92.3523 182.018 92.1591 182.806 92.1591C183.26 92.1591 183.709 92.2348 184.152 92.3864C184.595 92.5379 184.999 92.7841 185.362 93.125C185.726 93.4621 186.016 93.9091 186.232 94.4659C186.448 95.0227 186.556 95.7083 186.556 96.5227V97.0909H179.828V95.9318H185.192C185.192 95.4394 185.093 95 184.896 94.6136C184.703 94.2273 184.427 93.9223 184.067 93.6989C183.711 93.4754 183.29 93.3636 182.806 93.3636C182.271 93.3636 181.809 93.4962 181.419 93.7614C181.033 94.0227 180.735 94.3636 180.527 94.7841C180.319 95.2045 180.215 95.6553 180.215 96.1364V96.9091C180.215 97.5682 180.328 98.1269 180.556 98.5852C180.787 99.0398 181.107 99.3864 181.516 99.625C181.925 99.8598 182.4 99.9773 182.942 99.9773C183.294 99.9773 183.612 99.928 183.896 99.8295C184.184 99.7273 184.432 99.5758 184.641 99.375C184.849 99.1705 185.01 98.9167 185.124 98.6136L186.419 98.9773C186.283 99.4167 186.054 99.803 185.732 100.136C185.41 100.466 185.012 100.723 184.539 100.909C184.065 101.091 183.533 101.182 182.942 101.182Z" fill="#FCFAEE"/>
<path d="M125.364 37.2598C125.364 37.0059 125.341 36.7747 125.295 36.5664C125.25 36.3581 125.152 36.166 125.002 35.9902C124.859 35.8145 124.647 35.6387 124.367 35.4629C124.094 35.2871 123.736 35.1048 123.293 34.916C122.766 34.6947 122.255 34.4603 121.76 34.2129C121.265 33.959 120.819 33.666 120.422 33.334C120.025 33.002 119.709 32.6113 119.475 32.1621C119.247 31.7064 119.133 31.1725 119.133 30.5605C119.133 29.9616 119.24 29.418 119.455 28.9297C119.677 28.4414 119.989 28.0247 120.393 27.6797C120.796 27.3281 121.268 27.0579 121.809 26.8691C122.356 26.6803 122.964 26.5859 123.635 26.5859C124.546 26.5859 125.334 26.7747 125.998 27.1523C126.669 27.5299 127.186 28.0475 127.551 28.7051C127.922 29.3626 128.108 30.1178 128.108 30.9707H125.256C125.256 30.5671 125.198 30.2122 125.08 29.9062C124.97 29.5938 124.791 29.3496 124.543 29.1738C124.296 28.998 123.977 28.9102 123.586 28.9102C123.222 28.9102 122.919 28.985 122.678 29.1348C122.444 29.278 122.268 29.4766 122.151 29.7305C122.04 29.9779 121.985 30.2578 121.985 30.5703C121.985 30.8047 122.04 31.0163 122.151 31.2051C122.268 31.3874 122.427 31.5534 122.629 31.7031C122.831 31.8464 123.069 31.9863 123.342 32.123C123.622 32.2598 123.928 32.3932 124.26 32.5234C124.905 32.7773 125.474 33.0573 125.969 33.3633C126.464 33.6628 126.877 34.0013 127.209 34.3789C127.541 34.75 127.792 35.1699 127.961 35.6387C128.13 36.1074 128.215 36.6413 128.215 37.2402C128.215 37.8327 128.111 38.373 127.903 38.8613C127.701 39.3431 127.405 39.7598 127.014 40.1113C126.623 40.4564 126.151 40.7233 125.598 40.9121C125.051 41.1009 124.439 41.1953 123.762 41.1953C123.104 41.1953 122.483 41.1042 121.897 40.9219C121.311 40.7331 120.793 40.4499 120.344 40.0723C119.901 39.6882 119.553 39.2031 119.299 38.6172C119.045 38.0247 118.918 37.3249 118.918 36.5176H121.78C121.78 36.9473 121.822 37.3151 121.906 37.6211C121.991 37.9206 122.121 38.1615 122.297 38.3438C122.473 38.5195 122.688 38.653 122.942 38.7441C123.202 38.8288 123.498 38.8711 123.83 38.8711C124.208 38.8711 124.507 38.7995 124.729 38.6562C124.957 38.513 125.119 38.321 125.217 38.0801C125.315 37.8392 125.364 37.5658 125.364 37.2598ZM138.034 29.125L132.594 42.3867H131.139L136.579 29.125H138.034ZM130.309 35.834V35.6191C130.309 34.8509 130.4 34.1413 130.583 33.4902C130.771 32.8327 131.045 32.263 131.403 31.7812C131.768 31.293 132.21 30.9154 132.731 30.6484C133.258 30.375 133.867 30.2383 134.557 30.2383C135.254 30.2383 135.866 30.375 136.393 30.6484C136.921 30.9154 137.363 31.293 137.721 31.7812C138.086 32.263 138.359 32.8327 138.542 33.4902C138.73 34.1413 138.825 34.8509 138.825 35.6191V35.834C138.825 36.5957 138.73 37.3053 138.542 37.9629C138.359 38.6139 138.089 39.1836 137.731 39.6719C137.373 40.1536 136.927 40.528 136.393 40.7949C135.866 41.0618 135.26 41.1953 134.577 41.1953C133.887 41.1953 133.275 41.0618 132.741 40.7949C132.214 40.528 131.768 40.1536 131.403 39.6719C131.045 39.1836 130.771 38.6139 130.583 37.9629C130.4 37.3053 130.309 36.5957 130.309 35.834ZM133.044 35.6191V35.8242C133.044 36.2539 133.07 36.6576 133.122 37.0352C133.174 37.4062 133.255 37.735 133.366 38.0215C133.483 38.3014 133.639 38.5228 133.835 38.6855C134.036 38.8418 134.284 38.9199 134.577 38.9199C134.863 38.9199 135.104 38.8418 135.299 38.6855C135.501 38.5228 135.658 38.3014 135.768 38.0215C135.879 37.735 135.96 37.4062 136.012 37.0352C136.064 36.6576 136.09 36.2539 136.09 35.8242V35.6191C136.09 35.2025 136.064 34.8086 136.012 34.4375C135.967 34.0599 135.885 33.7279 135.768 33.4414C135.658 33.1549 135.501 32.9303 135.299 32.7676C135.098 32.5983 134.85 32.5137 134.557 32.5137C134.264 32.5137 134.02 32.5983 133.825 32.7676C133.636 32.9303 133.483 33.1549 133.366 33.4414C133.255 33.7279 133.174 34.0599 133.122 34.4375C133.07 34.8086 133.044 35.2025 133.044 35.6191ZM141.163 26H143.888V38.5488L143.692 41H141.163V26ZM149.376 35.3652V36.0586C149.376 36.918 149.308 37.6667 149.171 38.3047C149.041 38.9427 148.836 39.4766 148.556 39.9062C148.282 40.3359 147.931 40.6582 147.501 40.873C147.071 41.0879 146.564 41.1953 145.978 41.1953C145.45 41.1953 144.998 41.0716 144.62 40.8242C144.243 40.5703 143.924 40.222 143.663 39.7793C143.409 39.3301 143.201 38.806 143.038 38.207C142.882 37.6016 142.768 36.9408 142.696 36.2246V35.1992C142.761 34.4961 142.872 33.8418 143.028 33.2363C143.191 32.6309 143.399 32.1068 143.653 31.6641C143.907 31.2148 144.223 30.8665 144.601 30.6191C144.985 30.3652 145.437 30.2383 145.958 30.2383C146.557 30.2383 147.071 30.349 147.501 30.5703C147.931 30.7852 148.282 31.1074 148.556 31.5371C148.836 31.9668 149.041 32.5039 149.171 33.1484C149.308 33.7865 149.376 34.5254 149.376 35.3652ZM146.651 36.0586V35.3652C146.651 34.877 146.632 34.457 146.593 34.1055C146.554 33.7539 146.482 33.4609 146.378 33.2266C146.274 32.9922 146.124 32.8164 145.929 32.6992C145.74 32.582 145.489 32.5234 145.177 32.5234C144.897 32.5234 144.662 32.5788 144.474 32.6895C144.285 32.7936 144.122 32.9499 143.985 33.1582C143.855 33.36 143.758 33.6009 143.692 33.8809C143.634 34.1543 143.601 34.457 143.595 34.7891V36.6348C143.601 37.084 143.657 37.4811 143.761 37.8262C143.865 38.1712 144.031 38.4382 144.259 38.627C144.493 38.8158 144.806 38.9102 145.196 38.9102C145.502 38.9102 145.75 38.8581 145.939 38.7539C146.127 38.6497 146.274 38.4837 146.378 38.2559C146.489 38.028 146.56 37.735 146.593 37.377C146.632 37.0124 146.651 36.5729 146.651 36.0586ZM151.783 30.4336H154.537V41.5859C154.537 42.3802 154.41 43.0508 154.156 43.5977C153.908 44.1445 153.55 44.5579 153.081 44.8379C152.613 45.1243 152.046 45.2676 151.382 45.2676C151.167 45.2676 150.956 45.2546 150.748 45.2285C150.539 45.2025 150.328 45.1602 150.113 45.1016L150.123 42.875C150.253 42.901 150.38 42.9206 150.503 42.9336C150.621 42.9466 150.738 42.9531 150.855 42.9531C151.063 42.9531 151.236 42.9043 151.373 42.8066C151.509 42.7155 151.61 42.569 151.675 42.3672C151.747 42.1654 151.783 41.9049 151.783 41.5859V30.4336ZM151.597 27.6992C151.597 27.276 151.734 26.9277 152.007 26.6543C152.281 26.3743 152.642 26.2344 153.091 26.2344C153.547 26.2344 153.912 26.3743 154.185 26.6543C154.458 26.9277 154.595 27.276 154.595 27.6992C154.595 28.1159 154.458 28.4642 154.185 28.7441C153.912 29.0176 153.547 29.1543 153.091 29.1543C152.642 29.1543 152.281 29.0176 152.007 28.7441C151.734 28.4642 151.597 28.1159 151.597 27.6992ZM164.58 29.125L159.14 42.3867H157.685L163.125 29.125H164.58ZM156.855 35.834V35.6191C156.855 34.8509 156.946 34.1413 157.129 33.4902C157.318 32.8327 157.591 32.263 157.949 31.7812C158.314 31.293 158.756 30.9154 159.277 30.6484C159.805 30.375 160.413 30.2383 161.103 30.2383C161.8 30.2383 162.412 30.375 162.939 30.6484C163.467 30.9154 163.909 31.293 164.267 31.7812C164.632 32.263 164.905 32.8327 165.088 33.4902C165.277 34.1413 165.371 34.8509 165.371 35.6191V35.834C165.371 36.5957 165.277 37.3053 165.088 37.9629C164.905 38.6139 164.635 39.1836 164.277 39.6719C163.919 40.1536 163.473 40.528 162.939 40.7949C162.412 41.0618 161.806 41.1953 161.123 41.1953C160.433 41.1953 159.821 41.0618 159.287 40.7949C158.76 40.528 158.314 40.1536 157.949 39.6719C157.591 39.1836 157.318 38.6139 157.129 37.9629C156.946 37.3053 156.855 36.5957 156.855 35.834ZM159.59 35.6191V35.8242C159.59 36.2539 159.616 36.6576 159.668 37.0352C159.72 37.4062 159.801 37.735 159.912 38.0215C160.029 38.3014 160.185 38.5228 160.381 38.6855C160.583 38.8418 160.83 38.9199 161.123 38.9199C161.409 38.9199 161.65 38.8418 161.846 38.6855C162.047 38.5228 162.204 38.3014 162.314 38.0215C162.425 37.735 162.506 37.4062 162.558 37.0352C162.611 36.6576 162.637 36.2539 162.637 35.8242V35.6191C162.637 35.2025 162.611 34.8086 162.558 34.4375C162.513 34.0599 162.431 33.7279 162.314 33.4414C162.204 33.1549 162.047 32.9303 161.846 32.7676C161.644 32.5983 161.396 32.5137 161.103 32.5137C160.81 32.5137 160.566 32.5983 160.371 32.7676C160.182 32.9303 160.029 33.1549 159.912 33.4414C159.801 33.7279 159.72 34.0599 159.668 34.4375C159.616 34.8086 159.59 35.2025 159.59 35.6191ZM170.434 32.7871V41H167.699V30.4336H170.278L170.434 32.7871ZM172.924 30.3555L172.885 33.0801C172.761 33.054 172.612 33.0345 172.436 33.0215C172.267 33.0085 172.117 33.002 171.987 33.002C171.681 33.002 171.42 33.0508 171.205 33.1484C170.99 33.2396 170.811 33.3796 170.668 33.5684C170.531 33.7507 170.427 33.9785 170.356 34.252C170.284 34.5254 170.242 34.8346 170.229 35.1797L169.711 34.9844C169.711 34.2943 169.763 33.6628 169.867 33.0898C169.978 32.5104 170.141 32.0091 170.356 31.5859C170.571 31.1562 170.828 30.8242 171.127 30.5898C171.433 30.3555 171.778 30.2383 172.162 30.2383C172.293 30.2383 172.429 30.2513 172.573 30.2773C172.722 30.2969 172.839 30.3229 172.924 30.3555ZM177.606 32.6895V41H174.862V30.4336H177.43L177.606 32.6895ZM177.196 35.3555L176.464 35.375C176.451 34.5807 176.525 33.8678 176.688 33.2363C176.857 32.6048 177.095 32.0677 177.401 31.625C177.714 31.1758 178.085 30.834 178.514 30.5996C178.951 30.3587 179.436 30.2383 179.969 30.2383C180.38 30.2383 180.754 30.3099 181.092 30.4531C181.437 30.5964 181.734 30.8242 181.981 31.1367C182.228 31.4492 182.421 31.8659 182.557 32.3867C182.694 32.901 182.762 33.5326 182.762 34.2812V41H180.018V34.2617C180.018 33.806 179.973 33.4544 179.881 33.207C179.79 32.9531 179.654 32.7773 179.471 32.6797C179.289 32.5755 179.061 32.5234 178.788 32.5234C178.527 32.5234 178.296 32.5983 178.094 32.748C177.893 32.8913 177.723 33.0898 177.587 33.3438C177.456 33.5977 177.355 33.8971 177.284 34.2422C177.219 34.5872 177.189 34.9583 177.196 35.3555ZM189.622 41.1953C188.899 41.1953 188.258 41.0846 187.698 40.8633C187.145 40.6419 186.676 40.3229 186.292 39.9062C185.908 39.4831 185.615 38.972 185.413 38.373C185.211 37.7741 185.11 37.0905 185.11 36.3223V35.4531C185.11 34.5938 185.208 33.8418 185.403 33.1973C185.599 32.5462 185.875 31.9993 186.233 31.5566C186.592 31.1139 187.031 30.7852 187.552 30.5703C188.079 30.349 188.675 30.2383 189.339 30.2383C190.003 30.2383 190.586 30.349 191.087 30.5703C191.595 30.7852 192.015 31.1107 192.347 31.5469C192.679 31.9766 192.929 32.5104 193.099 33.1484C193.268 33.7865 193.353 34.5286 193.353 35.375V36.625H186.273V34.7012H190.667V34.457C190.667 34.0273 190.621 33.6693 190.53 33.3828C190.439 33.0898 190.296 32.8717 190.101 32.7285C189.905 32.5853 189.645 32.5137 189.319 32.5137C189.046 32.5137 188.815 32.569 188.626 32.6797C188.437 32.7904 188.287 32.9629 188.177 33.1973C188.066 33.4316 187.985 33.7376 187.933 34.1152C187.881 34.4863 187.855 34.9323 187.855 35.4531V36.3223C187.855 36.8105 187.897 37.2207 187.981 37.5527C188.066 37.8783 188.19 38.1452 188.353 38.3535C188.522 38.5553 188.727 38.7018 188.968 38.793C189.209 38.8776 189.489 38.9199 189.808 38.9199C190.289 38.9199 190.722 38.8353 191.106 38.666C191.497 38.4902 191.829 38.2526 192.103 37.9531L193.196 39.6133C193.008 39.8607 192.747 40.1081 192.415 40.3555C192.083 40.6029 191.686 40.8047 191.224 40.9609C190.761 41.1172 190.228 41.1953 189.622 41.1953Z" fill="#FCFAEE"/>
<g clip-path="url(#clip0_201_4196)">
<path d="M26.0846 95.8763C20.2094 74.357 33.1436 52.2583 54.9741 46.5175L98.8171 34.988C104.707 56.5622 91.7214 78.713 69.8269 84.438L26.0846 95.8763Z" fill="#3A3435"/>
<path d="M65.4906 20.492C65.2966 19.7817 65.7236 19.0522 66.4442 18.8627L69.2205 18.1326C82.0998 14.7457 95.3509 22.2921 98.8171 34.988L71.4156 42.1939L65.4906 20.492Z" fill="#3A3435"/>
<path d="M46.0508 88.9018L46.3123 89.8598C49.2008 100.439 42.8417 111.304 32.1088 114.127C31.5721 114.268 31.02 113.954 30.8755 113.424L25.6454 94.2678L46.0508 88.9018Z" fill="#3A3435"/>
<path d="M78.9472 73.188L80.0171 77.1071C82.8877 87.6212 76.5684 98.4202 65.9026 101.227C65.3692 101.367 64.8206 101.055 64.6771 100.529L58.6693 78.5241L78.9472 73.188Z" fill="#262021"/>
<path d="M38.3593 92.7722C33.8531 76.2674 43.7734 59.3183 60.5168 54.9153L91.4164 46.7896C95.9225 63.2943 86.0024 80.2434 69.2589 84.6465L38.3593 92.7722Z" fill="#FFE6C8"/>
<path d="M77.7189 61.2085L78.7888 65.1274C81.6595 75.6418 75.3402 86.4406 64.6743 89.2473C64.141 89.3876 63.5924 89.0754 63.4488 88.5496L57.441 66.5447L77.7189 61.2085Z" fill="#3A3435"/>
</g>
<defs>
<clipPath id="clip0_201_4196">
<rect width="86.2051" height="83.403" fill="white" transform="matrix(0.967119 -0.254325 0.263381 0.964692 9.17029 33.9241)"/>
</clipPath>
</defs>
</svg>
