<svg width="153" height="22" viewBox="0 0 153 22" fill="none" xmlns="http://www.w3.org/2000/svg">
<path d="M0.263123 22.0001V0.76006H1.34312V22.0001H0.263123ZM5.66312 22.0001V0.76006H6.74312V22.0001H5.66312ZM8.90312 22.0001V0.76006H11.0631V22.0001H8.90312ZM13.2259 22.0001V0.76006H14.3059V22.0001H13.2259ZM15.3859 22.0001V0.76006H19.7059V22.0001H15.3859ZM21.8659 22.0001V0.76006H22.9459V22.0001H21.8659ZM26.1887 22.0001V0.76006H27.2687V22.0001H26.1887ZM31.5887 22.0001V0.76006H33.7487V22.0001H31.5887ZM34.8287 22.0001V0.76006H35.9087V22.0001H34.8287ZM39.1516 22.0001V0.76006H40.2316V22.0001H39.1516ZM44.5516 22.0001V0.76006H46.7116V22.0001H44.5516ZM48.8716 22.0001V0.76006H49.9516V22.0001H48.8716ZM52.1144 22.0001V0.76006H53.1944V22.0001H52.1144ZM55.3544 22.0001V0.76006H56.4344V22.0001H55.3544ZM60.7544 22.0001V0.76006H62.9144V22.0001H60.7544ZM65.0772 22.0001V0.76006H66.1572V22.0001H65.0772ZM70.4772 22.0001V0.76006H72.6372V22.0001H70.4772ZM74.7972 22.0001V0.76006H75.8772V22.0001H74.7972ZM78.04 22.0001V0.76006H79.12V22.0001H78.04ZM81.28 22.0001V0.76006H83.44V22.0001H81.28ZM84.52 22.0001V0.76006H85.6V22.0001H84.52ZM91.0028 22.0001V0.76006H92.0828V22.0001H91.0028ZM96.4028 22.0001V0.76006H98.5628V22.0001H96.4028ZM100.723 22.0001V0.76006H101.803V22.0001H100.723ZM103.966 22.0001V0.76006H106.126V22.0001H103.966ZM110.446 22.0001V0.76006H111.526V22.0001H110.446ZM113.686 22.0001V0.76006H114.766V22.0001H113.686ZM116.928 22.0001V0.76006H118.008V22.0001H116.928ZM122.328 22.0001V0.76006H123.408V22.0001H122.328ZM125.568 22.0001V0.76006H127.728V22.0001H125.568ZM129.891 22.0001V0.76006H130.971V22.0001H129.891ZM132.051 22.0001V0.76006H136.371V22.0001H132.051ZM138.531 22.0001V0.76006H139.611V22.0001H138.531ZM142.854 22.0001V0.76006H143.934V22.0001H142.854ZM145.014 22.0001V0.76006H147.174V22.0001H145.014ZM151.494 22.0001V0.76006H152.574V22.0001H151.494Z" fill="black"/>
</svg>
