<svg width="128" height="104" viewBox="0 0 128 104" fill="none" xmlns="http://www.w3.org/2000/svg">
<mask id="path-1-inside-1_631_2730" fill="white">
<path fill-rule="evenodd" clip-rule="evenodd" d="M4.9999 103.28C2.23851 103.267 0.0108854 101.017 0.0243635 98.2561L0.129574 76.7005C5.2261 75.6918 9.08024 71.2091 9.10658 65.8126C9.13292 60.4161 5.32272 55.8959 0.236285 54.8375L0.343638 32.8432C0.357116 30.0818 2.60659 27.8542 5.36798 27.8677L122.085 28.4374C124.846 28.4508 127.074 30.7003 127.06 33.4617L126.954 55.2416C120.999 55.4467 116.221 60.3241 116.191 66.3352C116.162 72.3464 120.893 77.2702 126.845 77.5334L126.845 77.5422L126.741 98.8746C126.728 101.636 124.478 103.864 121.717 103.85L4.9999 103.28Z"/>
</mask>
<path fill-rule="evenodd" clip-rule="evenodd" d="M4.9999 103.28C2.23851 103.267 0.0108854 101.017 0.0243635 98.2561L0.129574 76.7005C5.2261 75.6918 9.08024 71.2091 9.10658 65.8126C9.13292 60.4161 5.32272 55.8959 0.236285 54.8375L0.343638 32.8432C0.357116 30.0818 2.60659 27.8542 5.36798 27.8677L122.085 28.4374C124.846 28.4508 127.074 30.7003 127.06 33.4617L126.954 55.2416C120.999 55.4467 116.221 60.3241 116.191 66.3352C116.162 72.3464 120.893 77.2702 126.845 77.5334L126.845 77.5422L126.741 98.8746C126.728 101.636 124.478 103.864 121.717 103.85L4.9999 103.28Z" fill="#9CAFA2"/>
<path d="M0.0243635 98.2561L-1.47562 98.2488L0.0243635 98.2561ZM0.129574 76.7005L-0.161656 75.2291L-1.36442 75.4671L-1.37041 76.6932L0.129574 76.7005ZM0.236285 54.8375L-1.2637 54.8302L-1.26968 56.0563L-0.0692939 56.3061L0.236285 54.8375ZM0.343638 32.8432L1.84362 32.8505L0.343638 32.8432ZM127.06 33.4617L128.56 33.469L127.06 33.4617ZM126.954 55.2416L127.006 56.7407L128.447 56.6911L128.454 55.2489L126.954 55.2416ZM126.845 77.5334L128.345 77.5407L128.352 76.0986L126.912 76.0349L126.845 77.5334ZM126.845 77.5422L125.345 77.5349L126.845 77.5422ZM-1.47562 98.2488C-1.49314 101.839 1.40278 104.763 4.99258 104.78L5.00723 101.78C3.07425 101.771 1.51491 100.196 1.52435 98.2634L-1.47562 98.2488ZM-1.37041 76.6932L-1.47562 98.2488L1.52435 98.2634L1.62956 76.7079L-1.37041 76.6932ZM7.6066 65.8053C7.58381 70.4744 4.2489 74.3562 -0.161656 75.2291L0.420804 78.172C6.2033 77.0275 10.5767 71.9438 10.6066 65.8199L7.6066 65.8053ZM-0.0692939 56.3061C4.33253 57.222 7.62938 61.1362 7.6066 65.8053L10.6066 65.8199C10.6364 59.696 6.31291 54.5699 0.541865 53.369L-0.0692939 56.3061ZM-1.15634 32.8359L-1.2637 54.8302L1.73627 54.8449L1.84362 32.8505L-1.15634 32.8359ZM5.3753 26.3677C1.78549 26.3502 -1.13882 29.2461 -1.15634 32.8359L1.84362 32.8505C1.85305 30.9176 3.42769 29.3582 5.36066 29.3676L5.3753 26.3677ZM122.092 26.9374L5.3753 26.3677L5.36066 29.3676L122.078 29.9373L122.092 26.9374ZM128.56 33.469C128.578 29.8792 125.682 26.9549 122.092 26.9374L122.078 29.9373C124.011 29.9468 125.57 31.5214 125.56 33.4544L128.56 33.469ZM128.454 55.2489L128.56 33.469L125.56 33.4544L125.454 55.2343L128.454 55.2489ZM117.691 66.3426C117.717 61.1401 121.853 56.9182 127.006 56.7407L126.903 53.7425C120.146 53.9753 114.725 59.5081 114.691 66.3279L117.691 66.3426ZM126.912 76.0349C121.761 75.8071 117.666 71.545 117.691 66.3426L114.691 66.3279C114.658 73.1477 120.025 78.7333 126.779 79.0319L126.912 76.0349ZM128.345 77.5496L128.345 77.5407L125.345 77.5261L125.345 77.5349L128.345 77.5496ZM128.241 98.8819L128.345 77.5496L125.345 77.5349L125.241 98.8673L128.241 98.8819ZM121.71 105.35C125.299 105.368 128.224 102.472 128.241 98.8819L125.241 98.8673C125.232 100.8 123.657 102.36 121.724 102.35L121.71 105.35ZM4.99258 104.78L121.71 105.35L121.724 102.35L5.00723 101.78L4.99258 104.78Z" fill="#FCFAEE" mask="url(#path-1-inside-1_631_2730)"/>
<path d="M39.6717 49.5781C42.1243 46.3466 45.3358 43.9694 48.7616 42.4514C52.5304 40.7836 56.4921 40.1654 60.3795 40.1291C62.6998 40.1084 64.9993 40.2928 67.2781 40.5703C67.829 40.6368 67.6918 41.6279 67.1409 41.5615C59.826 40.6731 51.7824 40.7909 44.9384 45.6822C43.2357 46.8993 41.6667 48.3901 40.3447 50.1307C39.962 50.6374 39.2851 50.0869 39.6729 49.575L39.6717 49.5781Z" fill="#748763"/>
<path d="M67.3225 40.5335C69.1375 41.0433 70.9761 41.508 72.7504 42.1391C73.271 42.3238 72.9077 43.2651 72.3871 43.0804C70.6101 42.4483 68.773 41.9877 66.9591 41.4748C66.4279 41.3257 66.7939 40.3855 67.3225 40.5335Z" fill="#748763"/>
<path d="M72.6551 42.0505C75.1534 43.0229 77.6504 43.9983 80.146 44.9696C80.6594 45.1731 80.2973 46.1112 79.7827 45.9109C77.2844 44.9385 74.7874 43.9631 72.2918 42.9918C71.7784 42.7883 72.1406 41.8502 72.6551 42.0505Z" fill="#748763"/>
<path d="M80.093 44.9404C80.8648 45.2608 81.6367 45.5813 82.4111 45.9028C82.6174 45.9882 82.7384 46.2785 82.6284 46.5316C82.5185 46.7847 82.27 46.9358 82.0478 46.8441C81.276 46.5236 80.5042 46.2032 79.7297 45.8817C79.5234 45.7963 79.4024 45.506 79.5124 45.2529C79.6223 44.9998 79.8708 44.8487 80.093 44.9404Z" fill="#748763"/>
<path d="M76.8668 43.4163C77.1005 42.8107 77.8984 43.127 77.6647 43.7326C77.4309 44.3382 76.633 44.0218 76.8668 43.4163Z" fill="#748763"/>
<path d="M76.1974 43.1466C77.8032 42.4664 79.4826 42.1517 81.1286 42.2652C82.9351 42.3917 84.5585 43.1836 86.3265 43.4576L86.0756 44.4254C83.3868 43.7719 80.5551 43.608 77.7321 44.1205L77.7554 43.1384C78.9922 43.2633 80.2318 43.3568 81.4783 43.4169C82.6368 43.4745 83.7979 43.4935 84.9701 43.2455L84.9468 44.2275C82.9193 44.292 80.9052 44.2026 78.9151 43.9636C78.3642 43.8971 78.4944 42.9321 79.0523 42.9724C81.4393 43.1445 83.8263 43.3166 86.2133 43.4887L85.8633 44.3955C83.5025 42.8048 80.4889 42.5399 77.6874 43.5926C77.1388 43.7984 77.0547 42.8245 77.5995 42.6208C80.6356 41.4765 83.884 41.8562 86.4261 43.5731C86.7911 43.8191 86.4814 44.5103 86.0761 44.4799C83.6891 44.3078 81.3021 44.1357 78.9151 43.9636L79.0523 42.9724C81.0424 43.2115 83.0565 43.3009 85.084 43.2364C85.5837 43.221 85.5483 44.1151 85.0607 44.2184C83.8597 44.4695 82.6599 44.4714 81.4727 44.4167C80.1829 44.3576 78.8985 44.2609 77.6169 44.1327C77.1441 44.0864 77.1287 43.2445 77.6403 43.1507C80.6289 42.6062 83.5927 42.7935 86.4378 43.4873C86.9062 43.6006 86.6645 44.5286 86.1869 44.455C84.4994 44.1949 82.9418 43.4471 81.2298 43.2822C79.6627 43.1312 78.0392 43.3884 76.5033 44.0385C75.9619 44.2652 75.6509 43.3786 76.1961 43.1498L76.1974 43.1466Z" fill="#748763"/>
<path d="M76.9997 44.5976C77.5581 45.8681 78.5025 46.8141 79.4677 47.6743C80.5586 48.6458 81.7161 49.5243 82.9283 50.3088L82.3655 51.1312C80.4217 49.4851 79.4616 46.6335 77.0908 45.5851L77.632 44.7867C78.3943 45.704 79.1578 46.618 79.9174 47.5342L79.2021 48.1876C78.7325 47.5927 78.2629 46.9977 77.7934 46.4027C77.3608 45.855 76.9473 45.2099 76.3199 44.9286L76.8611 44.1302C76.9563 44.3127 77.0576 44.3601 77.2538 44.2967C77.8097 44.1119 77.8938 45.0859 77.3418 45.2686C76.8703 45.4254 76.3782 45.2303 76.1432 44.7826C75.9487 44.4125 76.2596 43.7977 76.6844 43.9842C77.381 44.2929 77.8513 44.9099 78.3332 45.5206C78.863 46.19 79.3901 46.8584 79.9186 47.5311C80.2773 47.9844 79.5654 48.621 79.2033 48.1845C78.441 47.2673 77.6776 46.3532 76.9179 45.437C76.6311 45.0918 77.0837 44.4753 77.4592 44.6386C78.6539 45.1665 79.6017 46.0958 80.4011 47.1869C81.2005 48.278 81.9089 49.438 82.9307 50.3025C83.368 50.6712 82.8266 51.4225 82.3679 51.1249C81.082 50.2932 79.8571 49.359 78.7086 48.314C77.6982 47.3961 76.7696 46.3695 76.1815 45.0329C75.9392 44.4847 76.7613 44.0472 77.0021 44.5913L76.9997 44.5976Z" fill="#748763"/>
<path d="M78.0586 51.2945C76.739 50.0732 75.9714 48.3434 75.0686 46.7338C74.6059 45.9064 74.0992 45.0977 73.4483 44.4562C72.7065 43.7244 71.8351 43.2089 70.8732 42.8963L71.4145 42.0979C72.396 43.5036 73.345 44.9543 74.4042 46.2859C75.4635 47.6175 76.6302 48.7819 77.8831 49.8502L77.2428 50.5876C76.1859 49.2497 75.1329 47.9097 74.0761 46.5719C73.0835 45.3137 72.1365 43.9615 70.8901 43.0115L71.5304 42.2741C72.7294 44.2689 74.1173 46.0998 75.6835 47.7228C76.0734 48.127 75.5174 48.9557 75.1207 48.5452C73.5001 46.8645 72.0556 44.9894 70.8151 42.9275C70.5515 42.4902 71.0557 41.8833 71.4555 42.1901C72.7223 43.159 73.6961 44.5291 74.7051 45.8083C75.7895 47.186 76.8778 48.5617 77.9622 49.9394C78.2771 50.3392 77.6958 50.9951 77.3218 50.6768C76.0459 49.5885 74.8516 48.3843 73.7752 47.0495C72.6988 45.7147 71.7083 44.1969 70.6992 42.7513C70.4321 42.3705 70.8477 41.8262 71.2404 41.9529C73.1364 42.5707 74.5584 43.9557 75.6109 45.7658C76.5508 47.3829 77.2842 49.2329 78.6267 50.4742C79.0381 50.8544 78.4794 51.682 78.0639 51.2966L78.0586 51.2945Z" fill="#748763"/>
<path d="M72.7872 41.4484C75.7952 40.4087 78.87 39.8477 81.9312 39.7589L81.6803 40.7267C79.8536 40.3028 78.0357 40.1501 76.1161 40.5866C75.2351 40.7872 74.3667 41.0905 73.5241 41.5017C72.6815 41.913 71.875 42.4688 70.9933 42.3218C70.5551 42.2494 70.5081 41.6483 70.909 41.3803C72.7838 40.1302 74.8772 39.466 76.9541 39.4246C77.5169 39.4126 77.3758 40.4058 76.8168 40.4158C74.8856 40.4533 72.956 41.1065 71.2161 42.269L71.1318 41.3275C71.9818 41.4692 72.8761 40.7492 73.6747 40.3965C74.5574 40.0085 75.4682 39.7147 76.384 39.5351C78.342 39.15 80.1785 39.3499 82.0384 39.7833C82.5397 39.8988 82.2439 40.7367 81.7875 40.7511C78.8037 40.838 75.8026 41.4065 72.8713 42.4223C72.3183 42.6155 72.2354 41.6384 72.7833 41.4505L72.7872 41.4484Z" fill="#748763"/>
<path d="M65.2812 39.694C66.1858 39.2495 67.0865 38.807 67.991 38.3624C68.5247 38.1001 68.8256 38.9574 68.2981 39.2512L65.8418 40.6253L65.5347 39.7366C66.9567 39.0956 68.3813 38.4557 69.8045 37.8115C71.2277 37.1674 72.5363 36.5104 73.9285 36.0023L73.9052 36.9843C70.6004 37.1322 67.2468 38.4075 64.3788 40.6097L64.1958 39.7412C64.7419 39.7009 65.2626 39.3212 65.7465 39.021C66.3025 38.6771 66.8712 38.3635 67.4504 38.0866C68.584 37.5412 69.7561 37.1267 70.9401 36.84C71.5015 36.7044 71.5895 37.6762 71.0281 37.8118C69.7894 38.113 68.5762 38.5546 67.397 39.1544C66.3096 39.7073 65.24 40.6508 64.0573 40.7355C63.6815 40.7638 63.5566 40.1101 63.8743 39.867C66.9549 37.5031 70.4926 36.1561 74.0438 35.9974C74.5813 35.9717 74.463 36.8184 74.0205 36.9794C72.6569 37.4771 71.3152 38.1644 69.9759 38.7659C68.5992 39.385 67.2212 40.0072 65.8444 40.6264C65.3062 40.8688 65.006 40.0335 65.5373 39.7376L67.9937 38.3635L68.3008 39.2522C67.3962 39.6968 66.4956 40.1392 65.591 40.5838C65.0573 40.8461 64.7463 39.9595 65.2839 39.6951L65.2812 39.694Z" fill="#748763"/>
<path d="M65.1157 40.7982C67.2323 43.9274 70.3663 45.8427 73.4036 47.6908L72.8408 48.5132C72.133 48.0191 71.6219 47.2775 71.1406 46.5223C70.6592 45.7671 70.1339 44.9908 69.51 44.3347C68.2638 43.0267 66.7576 42.0823 65.0887 41.5436L65.5523 40.6602C67.4042 42.3458 69.2321 44.0617 71.0411 45.8027L70.4007 46.5401C69.2894 45.3036 68.1781 44.0672 67.068 42.8275C66.9072 42.6481 66.9993 42.2902 67.1726 42.1274C67.3841 41.929 67.624 41.9988 67.7833 42.1741C68.8946 43.4106 70.0059 44.6471 71.116 45.8867C71.4483 46.2572 70.8334 46.9685 70.4756 46.6241C68.6666 44.8831 66.8349 43.1693 64.9869 41.4816C64.6175 41.1434 64.9863 40.4503 65.4505 40.5981C67.1446 41.1431 68.7026 42.1044 69.9817 43.4147C70.6036 44.0519 71.1532 44.7654 71.6442 45.5353C72.1352 46.3052 72.6433 47.1578 73.3995 47.6855C73.8656 48.0114 73.3014 48.7899 72.8367 48.508C69.7298 46.6178 66.5597 44.6448 64.3963 41.4464C64.0696 40.966 64.7861 40.3094 65.1116 40.793L65.1157 40.7982Z" fill="#748763"/>
<path d="M58.8266 39.8177C61.1426 35.3671 65.2543 32.4532 69.6236 32.1775C70.1228 32.1475 70.0855 33.0624 69.6003 33.1595C65.8124 33.9153 62.9987 37.5102 60.0195 40.1278C59.6161 40.4816 59.0986 39.9472 59.4312 39.4749C60.7199 37.6379 62.282 36.0937 64.0466 34.8831L64.3537 35.7718C63.1958 36.4198 62.1961 37.4525 61.5442 38.728L60.8916 38.1943C63.3809 36.2978 65.869 34.4044 68.3583 32.5079C68.8439 32.1397 69.355 32.8814 68.8643 33.2548C66.375 35.1513 63.8869 37.0447 61.3976 38.9412C61.0682 39.1905 60.493 38.901 60.7449 38.4075C61.5253 36.8863 62.6564 35.6561 64.0463 34.8757C64.5827 34.5747 64.8453 35.4277 64.3534 35.7645C62.7314 36.876 61.2898 38.3305 60.104 40.0202L59.5157 39.3673C62.6341 36.6276 65.5506 32.965 69.5145 32.174L69.4912 33.1561C65.553 33.4037 61.7192 36.1058 59.6306 40.1183C59.5032 40.3609 59.2879 40.5215 59.05 40.4308C58.8558 40.3538 58.7065 40.0414 58.8327 39.802L58.8266 39.8177Z" fill="#748763"/>
<path d="M55.4422 41.0551C59.1212 42.7741 62.9393 44.1647 66.8618 45.2132L66.3205 46.0116C64.5118 43.7932 62.1404 42.2381 59.4915 41.481C58.9615 41.3288 59.3275 40.3885 59.8549 40.5397C62.6534 41.338 65.1299 43.018 67.0385 45.3593C67.3462 45.7381 66.868 46.254 66.4972 46.1577C62.5747 45.1091 58.7567 43.7185 55.0776 41.9995C54.5791 41.7657 54.9397 40.8233 55.441 41.0582L55.4422 41.0551Z" fill="#748763"/>
<path d="M58.8421 40.7645C60.9194 41.9932 62.994 43.2209 65.0725 44.4465L64.5097 45.2689C63.4481 44.1896 62.2452 43.2858 60.9229 42.6277C59.7113 42.0244 58.3758 41.6071 56.9787 41.8419C56.4146 41.9367 56.324 40.9638 56.8907 40.8701C58.4054 40.6167 59.8551 40.9925 61.1781 41.6328C62.6146 42.3288 63.928 43.28 65.0764 44.4444C65.4822 44.8549 64.9874 45.5487 64.5136 45.2668C62.4363 44.0381 60.3617 42.8105 58.2831 41.5849C58.081 41.465 58.0941 41.0975 58.2279 40.8937C58.3945 40.645 58.6477 40.6405 58.8472 40.7593L58.8421 40.7645Z" fill="#748763"/>
<path d="M57.0311 41.839L56.6049 42.0535L56.5205 41.112C58.4175 41.3539 60.2035 41.9787 61.8431 42.9507C62.0426 43.0696 62.0349 43.4392 61.8984 43.6419C61.7292 43.8896 61.4813 43.8962 61.2791 43.7763C59.7787 42.8884 58.1102 42.3247 56.3794 42.1052C55.9707 42.0517 55.8599 41.3855 56.2951 41.1637L56.7214 40.9492C57.2548 40.6795 57.5646 41.5693 57.0285 41.8379L57.0311 41.839Z" fill="#748763"/>
<path d="M55.0239 40.0096C56.8341 36.4004 59.5502 33.3999 62.792 31.4689L62.9902 32.4013C61.3599 32.7317 60.426 34.5792 59.5443 36.0132C58.538 37.6511 57.3457 39.1429 56.0167 40.4647C55.6148 40.8624 55.1258 40.2779 55.4284 39.8118C57.3914 36.7841 59.7467 34.0747 62.3905 31.8017L62.8965 32.5486C61.8063 33.3392 60.8144 34.2882 59.9549 35.3945L59.3666 34.7417L60.5326 33.4529L60.7157 34.3214L60.0902 34.305C59.6868 34.2934 59.6238 33.7257 59.9072 33.4365L60.019 33.3216C60.4573 32.8695 60.9621 33.6195 60.525 34.0685L60.4132 34.1834L60.2301 33.3149L60.8556 33.3313C61.2694 33.3398 61.306 33.9042 61.0386 34.1998L59.8726 35.4885C59.5026 35.899 58.9389 35.2776 59.2843 34.8357C60.198 33.6603 61.2374 32.6361 62.3956 31.7965C62.8766 31.4482 63.387 32.128 62.9016 32.5434C60.3151 34.7632 58.0257 37.3973 56.1065 40.3592L55.5182 39.7063C56.9402 38.2947 58.1364 36.6815 59.1953 34.9234C60.1184 33.39 61.2287 31.7608 62.9059 31.42C63.4081 31.3188 63.5626 32.0783 63.1042 32.3524C60.0942 34.1438 57.51 36.9614 55.8269 40.3207C55.5383 40.8936 54.738 40.5836 55.029 40.0044L55.0239 40.0096Z" fill="#748763"/>
<path d="M62.9129 32.277C61.1072 33.0698 59.5599 34.5439 58.5329 36.434C58.4041 36.6724 58.0821 36.7039 57.9136 36.5684C57.714 36.4024 57.7284 36.1187 57.8584 35.8772C58.9547 33.8553 60.6719 32.2352 62.6031 31.3873C62.8322 31.2864 63.08 31.3593 63.167 31.6108C63.2452 31.8372 63.1393 32.1751 62.9102 32.276L62.9129 32.277Z" fill="#748763"/>
<path d="M49.803 42.8424C53.605 44.4256 58.0897 43.7398 61.7007 45.8732C62.1625 46.1467 61.8444 47.0661 61.3374 46.8145C59.2242 45.7741 57.0451 44.8886 54.806 44.1745C53.6864 43.8175 52.5538 43.5023 51.408 43.229C51.3485 43.2163 51.0216 43.1735 51.0192 43.14L51.185 42.8295C51.2648 42.8611 51.3494 42.8802 51.4353 42.8962C51.7078 42.9608 51.9825 43.0118 52.2548 43.0691C52.8483 43.1922 53.4405 43.3185 54.0339 43.4416L53.7831 44.4093C52.5459 44.0709 51.3049 43.7344 50.0678 43.3959L50.4311 42.4547C53.9541 43.4497 57.4771 44.4448 61.0001 45.4399C61.5314 45.589 61.1654 46.5292 60.6368 46.3812C57.1138 45.3861 53.5908 44.391 50.0678 43.3959C49.5339 43.2458 49.904 42.3108 50.4311 42.4547C51.6683 42.7931 52.9093 43.1296 54.1464 43.4681C54.6073 43.5929 54.37 44.5335 53.8955 44.4358C53.1659 44.2841 52.4349 44.1281 51.7053 43.9764C51.1805 43.866 50.3764 43.8439 50.2968 43.0888C50.2626 42.7641 50.4067 42.4305 50.6729 42.2574C50.939 42.0844 51.2251 42.1616 51.4949 42.2252C52.1815 42.3852 52.8658 42.5588 53.5468 42.7492C56.3567 43.5339 59.082 44.5854 61.7007 45.8732L61.3374 46.8145C57.7316 44.6832 53.2417 45.3669 49.4397 43.7837C48.93 43.5708 49.2933 42.6295 49.803 42.8424Z" fill="#748763"/>
<path d="M49.084 42.9727C49.3178 42.3671 50.1157 42.6834 49.882 43.289C49.6482 43.8946 48.8503 43.5782 49.084 42.9727Z" fill="#748763"/>
<path d="M48.8785 41.9863C50.5473 38.1872 53.0336 34.8207 56.0784 32.2797C56.5539 31.8821 57.0335 32.586 56.5844 33.0266C54.0447 35.5145 51.9211 38.5292 50.3672 41.8638L49.631 41.4272C51.1443 39.2704 52.5107 36.9939 53.6991 34.6142L54.4353 35.0508L52.9002 37.6692L52.4094 36.9465C53.2861 36.5741 53.46 35.2574 53.9867 34.4967C54.5135 33.7359 55.3998 33.3782 55.7841 32.5574L56.5203 32.994C55.1179 34.8872 53.7182 36.7815 52.3157 38.6748L51.644 38.1191C52.8664 36.6284 54.0889 35.1377 55.3114 33.6471C55.7105 33.1613 56.3886 33.7087 55.9832 34.2028C54.7607 35.6935 53.5382 37.1841 52.3157 38.6748C51.9217 39.1553 51.2552 38.6415 51.644 38.1191C53.0464 36.2258 54.4461 34.3315 55.8485 32.4382C56.1642 32.0098 56.8363 32.3342 56.5847 32.8748C56.3539 33.3694 56.0275 33.7464 55.6396 34.0919C55.2517 34.4374 54.858 34.7263 54.5799 35.1768C53.9962 36.1248 53.7875 37.3806 52.7192 37.8362C52.2905 38.0172 51.9684 37.5567 52.2284 37.1135L53.7635 34.495C54.0446 34.0131 54.7549 34.4213 54.4997 34.9316C53.2694 37.3959 51.8715 39.7541 50.3054 41.984C49.9942 42.425 49.3239 42.0797 49.5692 41.5474C51.1992 38.0477 53.4102 34.894 56.0784 32.2797L56.5844 33.0266C53.6701 35.4601 51.2743 38.6635 49.6764 42.3026C49.4173 42.8945 48.6182 42.5813 48.8785 41.9863Z" fill="#748763"/>
<path d="M56.6939 33.2583L55.2989 34.894C55.2103 34.9963 55.1314 35.0736 55.0064 35.1036C54.8982 35.1295 54.7609 35.104 54.6797 35.0284C54.5213 34.8824 54.4449 34.5482 54.6244 34.3372L56.0194 32.7015C56.108 32.5991 56.1869 32.5219 56.312 32.4918C56.4201 32.466 56.5575 32.4915 56.6387 32.5671C56.797 32.7131 56.8735 33.0473 56.6939 33.2583Z" fill="#748763"/>
<path d="M45.6745 45.0053C48.4352 45.9333 51.2392 46.7809 53.9239 47.9139L53.5605 48.8552C52.282 48.171 50.9839 47.5298 49.6625 46.9408C48.3411 46.3519 47.056 45.7483 45.6221 45.6176L45.7593 44.6265C48.7654 44.9427 51.5937 46.0531 54.0262 47.8712C54.4741 48.2044 53.9101 49.03 53.4634 48.6937C51.16 46.9701 48.4727 45.9156 45.6221 45.6176C45.0676 45.5606 45.2024 44.5757 45.7593 44.6265C47.2261 44.7594 48.5726 45.3547 49.8967 45.9447C51.2207 46.5348 52.604 47.2097 53.9226 47.917C54.4009 48.1717 54.0784 49.0786 53.5593 48.8583C50.872 47.7242 48.0706 46.8778 45.3099 45.9497C44.7857 45.7745 45.149 44.8332 45.6733 45.0084L45.6745 45.0053Z" fill="#748763"/>
<path d="M44.888 44.5365C44.3824 43.0734 44.8601 41.4467 45.6334 40.071C46.4873 38.55 47.619 37.1753 48.8019 35.9619C49.2136 35.5391 49.6548 36.1517 49.3902 36.6148C48.0775 38.9271 47.0085 41.3867 46.1852 43.9328L45.449 43.4963C46.7056 41.5199 47.6294 39.3175 48.1483 37.0197L48.917 37.3244C47.5664 39.0356 46.1222 40.8544 45.6406 43.0874C45.5048 43.7173 44.638 43.6667 44.775 43.0337C45.3013 40.5977 46.7634 38.645 48.244 36.7718C48.515 36.4271 49.1334 36.5492 49.0126 37.0765C48.451 39.5564 47.4774 41.9199 46.1196 44.0551C45.8049 44.5526 45.2153 44.1416 45.3834 43.6186C46.2341 40.9856 47.3573 38.4571 48.7133 36.0643L49.3016 36.7172C48.2751 37.7718 47.3285 38.9449 46.5378 40.2305C45.8283 41.3855 45.2603 42.8173 45.7062 44.1011C45.9047 44.6754 45.0841 45.1171 44.8856 44.5427L44.888 44.5365Z" fill="#748763"/>
<path d="M45.8328 45.1273C48.426 46.1951 51.0823 47.0998 53.7909 47.8371C54.3233 47.9831 53.9573 48.9234 53.4275 48.7784C50.7189 48.0411 48.0627 47.1364 45.4694 46.0686C44.9585 45.8588 45.3219 44.9175 45.8328 45.1273Z" fill="#748763"/>
<path d="M39.3091 53.9334L39.2789 63.1756L37.4318 63.1696L37.462 53.9274L39.3091 53.9334ZM41.6069 53.9409L41.6019 55.4834L35.2035 55.4625L35.2085 53.9201L41.6069 53.9409ZM47.6174 53.9606L49.4709 53.9666L49.4502 60.3143C49.4478 61.0252 49.3148 61.6045 49.0509 62.0522C48.7913 62.4957 48.4327 62.8204 47.975 63.0262C47.5173 63.2279 46.9943 63.3277 46.4061 63.3258C45.8137 63.3239 45.2872 63.2206 44.8266 63.016C44.366 62.8071 44.0074 62.4801 43.7507 62.0349C43.4982 61.5855 43.3732 61.0053 43.3755 60.2944L43.3962 53.9468L45.2497 53.9528L45.229 60.3005C45.2277 60.7025 45.2711 61.0115 45.3593 61.2277C45.4517 61.4438 45.5845 61.5923 45.7577 61.6733C45.9352 61.75 46.153 61.7888 46.4111 61.7897C46.6735 61.7905 46.8895 61.7532 47.059 61.6775C47.2327 61.5977 47.3644 61.45 47.454 61.2345C47.5478 61.019 47.5953 60.7102 47.5967 60.3082L47.6174 53.9606ZM51.6791 53.9738L54.6434 53.9835C55.2613 53.9855 55.7878 54.0931 56.223 54.3061C56.6581 54.5191 56.9914 54.8333 57.2228 55.2488C57.4542 55.6643 57.5689 56.1767 57.5669 56.7861C57.5653 57.2854 57.4962 57.7126 57.3596 58.0676C57.223 58.4184 57.0295 58.7119 56.7791 58.948C56.5287 59.18 56.2297 59.3652 55.8823 59.5037L55.3162 59.8383L52.9105 59.8304L52.9092 58.2879L54.5786 58.2934C54.8325 58.2942 55.0421 58.2399 55.2075 58.1304C55.3772 58.0167 55.5025 57.8584 55.5836 57.6556C55.6689 57.4485 55.712 57.2074 55.7129 56.9323C55.7139 56.6404 55.6766 56.3906 55.6011 56.1829C55.5299 55.9711 55.414 55.8099 55.2536 55.6994C55.0974 55.5846 54.8923 55.5268 54.6384 55.526L53.5339 55.5224L53.5088 63.2221L51.6489 63.216L51.6791 53.9738ZM55.8447 63.2297L54.1633 59.1045L56.1121 59.1046L57.8318 63.1473L57.8315 63.2362L55.8447 63.2297ZM61.5108 54.0059L61.4806 63.2481L59.6208 63.242L59.651 53.9999L61.5108 54.0059ZM66.1001 54.0209L63.0891 58.6005L61.2471 60.8796L60.8978 59.0186L62.0912 57.042L63.8404 54.0136L66.1001 54.0209ZM63.9245 63.2561L61.9198 59.0029L63.2885 57.8013L66.1144 63.2632L63.9245 63.2561ZM73.9069 57.9503L73.9019 59.4927C73.8997 60.1444 73.8175 60.7154 73.6551 61.2058C73.4969 61.6919 73.2713 62.0996 72.9782 62.4287C72.6894 62.7536 72.3395 62.9979 71.9284 63.1616C71.5217 63.3253 71.0707 63.4064 70.5756 63.4047C70.0805 63.4031 69.6279 63.3191 69.218 63.1527C68.8123 62.9864 68.4619 62.7398 68.1667 62.413C67.8758 62.082 67.6507 61.6728 67.4915 61.1857C67.3323 60.6943 67.2538 60.1227 67.2559 59.471L67.2609 57.9286C67.2631 57.2599 67.3433 56.6762 67.5015 56.1774C67.6597 55.6743 67.8875 55.2561 68.1848 54.9228C68.4821 54.5852 68.8342 54.3324 69.241 54.1645C69.6478 53.9923 70.0988 53.907 70.5939 53.9087C71.089 53.9103 71.5394 53.9985 71.9451 54.1733C72.3508 54.3439 72.7012 54.599 72.9963 54.9385C73.2914 55.2738 73.5165 55.6934 73.6714 56.1975C73.8306 56.6974 73.9091 57.2816 73.9069 57.9503ZM72.0547 59.4867L72.0598 57.9315C72.0612 57.4914 72.0307 57.1168 71.9682 56.8077C71.9058 56.4943 71.8114 56.238 71.6851 56.0387C71.5588 55.8394 71.4048 55.6929 71.2232 55.5992C71.0415 55.5055 70.8301 55.4583 70.5888 55.4575C70.3476 55.4567 70.1338 55.5025 69.9473 55.595C69.765 55.6875 69.6101 55.833 69.4825 56.0315C69.3591 56.23 69.2652 56.4857 69.2007 56.7987C69.1404 57.1074 69.1096 57.4818 69.1081 57.9219L69.1031 59.4771C69.1017 59.9002 69.1322 60.2622 69.1947 60.5628C69.2572 60.8635 69.3516 61.1092 69.478 61.3001C69.6043 61.4909 69.7583 61.6332 69.94 61.7269C70.1259 61.8163 70.3394 61.8615 70.5806 61.8623C70.8176 61.863 71.0272 61.8193 71.2095 61.731C71.396 61.6385 71.5509 61.4973 71.6742 61.3072C71.7976 61.1172 71.8915 60.8721 71.9559 60.5718C72.0204 60.2716 72.0533 59.9099 72.0547 59.4867ZM76.058 54.0535L79.0224 54.0631C79.6402 54.0651 80.1667 54.1727 80.6019 54.3857C81.0371 54.5987 81.3704 54.9129 81.6018 55.3284C81.8331 55.7439 81.9478 56.2563 81.9459 56.8657C81.9442 57.365 81.8751 57.7922 81.7385 58.1472C81.602 58.498 81.4085 58.7915 81.158 59.0277C80.9076 59.2596 80.6087 59.4448 80.2612 59.5833L79.6952 59.9179L77.2894 59.91L77.2881 58.3676L78.9575 58.373C79.2114 58.3738 79.4211 58.3195 79.5865 58.21C79.7561 58.0963 79.8815 57.938 79.9625 57.7352C80.0478 57.5281 80.091 57.287 80.0919 57.012C80.0928 56.72 80.0555 56.4702 79.98 56.2626C79.9088 56.0507 79.7929 55.8896 79.6325 55.779C79.4763 55.6642 79.2712 55.6064 79.0173 55.6056L77.9129 55.602L77.8877 63.3017L76.0279 63.2956L76.058 54.0535ZM80.2236 63.3093L78.5423 59.1842L80.491 59.1842L82.2107 63.2269L82.2104 63.3158L80.2236 63.3093ZM87.3814 54.0904L87.3512 63.3326L85.5041 63.3265L85.5343 54.0844L87.3814 54.0904ZM89.6793 54.0979L89.6742 55.6404L83.2758 55.6195L83.2809 54.077L89.6793 54.0979Z" fill="black"/>
<path d="M48.4615 66.0093V73.1577H47.5972V67.1372L46.1031 67.8013V66.9858L48.3296 66.0093H48.4615ZM55.2285 69.0366V70.1206C55.2285 70.7033 55.1829 71.1948 55.0917 71.5952C55.0039 71.9956 54.8769 72.3179 54.7109 72.562C54.5449 72.8062 54.3447 72.9836 54.1103 73.0942C53.8792 73.2017 53.6188 73.2554 53.3291 73.2554C53.1012 73.2554 52.888 73.2212 52.6894 73.1528C52.4941 73.0845 52.3183 72.9754 52.1621 72.8257C52.0058 72.6727 51.8723 72.4741 51.7617 72.23C51.651 71.9858 51.5664 71.6896 51.5078 71.3413C51.4492 70.993 51.4199 70.5861 51.4199 70.1206V69.0366C51.4199 68.4539 51.4654 67.9657 51.5566 67.5718C51.6477 67.1779 51.7763 66.8621 51.9423 66.6245C52.1116 66.3836 52.3118 66.2111 52.5429 66.1069C52.7773 66.0028 53.0377 65.9507 53.3242 65.9507C53.5553 65.9507 53.7685 65.9849 53.9638 66.0532C54.1624 66.1183 54.3382 66.2241 54.4912 66.3706C54.6474 66.5138 54.7809 66.7059 54.8916 66.9468C55.0022 67.1844 55.0852 67.4757 55.1406 67.8208C55.1992 68.1659 55.2285 68.5711 55.2285 69.0366ZM54.3691 70.2671V68.8853C54.3691 68.5662 54.3544 68.2863 54.3251 68.0454C54.2959 67.8013 54.2535 67.5929 54.1982 67.4204C54.1429 67.2479 54.0712 67.1079 53.9834 67.0005C53.8987 66.8931 53.8011 66.8149 53.6904 66.7661C53.5797 66.714 53.4576 66.688 53.3242 66.688C53.1582 66.688 53.01 66.7287 52.8798 66.8101C52.7529 66.8882 52.6438 67.0135 52.5527 67.186C52.4648 67.3586 52.3981 67.5848 52.3525 67.8647C52.3069 68.1447 52.2841 68.4849 52.2841 68.8853V70.2671C52.2841 70.5861 52.2988 70.8677 52.3281 71.1118C52.3606 71.356 52.4046 71.5675 52.4599 71.7466C52.5185 71.9224 52.5901 72.0672 52.6748 72.1812C52.7594 72.2951 52.857 72.3797 52.9677 72.4351C53.0784 72.4871 53.1988 72.5132 53.3291 72.5132C53.5016 72.5132 53.6513 72.4709 53.7783 72.3862C53.9085 72.3016 54.0175 72.1698 54.1054 71.9907C54.1933 71.8084 54.2584 71.5757 54.3007 71.2925C54.3463 71.006 54.3691 70.6642 54.3691 70.2671ZM60.9597 66.0483V73.1577H60.0613V66.0483H60.9597ZM64.5339 66.0483L62.0876 69.3638L60.657 71.0874L60.4959 70.0815L61.5457 68.7046L63.4597 66.0483H64.5339ZM63.6404 73.1577L61.5457 69.6909L62.0779 68.9438L64.7097 73.1577H63.6404ZM69.8068 72.3911V73.1577H66.8576V72.3911H69.8068ZM67.0187 66.0483V73.1577H66.1203V66.0483H67.0187ZM72.4136 66.0483V73.1577H71.5152V66.0483H72.4136ZM76.8417 70.3696H75.289V69.603H76.8417C77.1347 69.603 77.3707 69.5444 77.5498 69.4272C77.732 69.3101 77.8639 69.1473 77.9453 68.939C78.0299 68.7306 78.0722 68.493 78.0722 68.2261C78.0722 67.9819 78.0299 67.7524 77.9453 67.5376C77.8639 67.3228 77.732 67.1502 77.5498 67.02C77.3707 66.8866 77.1347 66.8198 76.8417 66.8198H75.4746V73.1577H74.5761V66.0483H76.8417C77.3007 66.0483 77.6881 66.1411 78.0039 66.3267C78.3196 66.5122 78.5589 66.7694 78.7216 67.0981C78.8876 67.4237 78.9707 67.7964 78.9707 68.2163C78.9707 68.672 78.8876 69.061 78.7216 69.3833C78.5589 69.7056 78.3196 69.9513 78.0039 70.1206C77.6881 70.2866 77.3007 70.3696 76.8417 70.3696Z" fill="black"/>
<path d="M39.8216 93.1577V77.8177H40.6016V93.1577H39.8216ZM43.7216 93.1577V77.8177H44.5016V93.1577H43.7216ZM46.0616 93.1577V77.8177H47.6216V93.1577H46.0616ZM49.1836 93.1577V77.8177H49.9636V93.1577H49.1836ZM50.7436 93.1577V77.8177H53.8636V93.1577H50.7436ZM55.4236 93.1577V77.8177H56.2036V93.1577H55.4236ZM58.5457 93.1577V77.8177H59.3257V93.1577H58.5457ZM62.4457 93.1577V77.8177H64.0057V93.1577H62.4457ZM64.7857 93.1577V77.8177H65.5657V93.1577H64.7857ZM67.9077 93.1577V77.8177H68.6877V93.1577H67.9077ZM71.8077 93.1577V77.8177H73.3677V93.1577H71.8077ZM74.9277 93.1577V77.8177H75.7077V93.1577H74.9277ZM77.2697 93.1577V77.8177H78.0497V93.1577H77.2697ZM79.6097 93.1577V77.8177H80.3897V93.1577H79.6097ZM83.5097 93.1577V77.8177H85.0697V93.1577H83.5097Z" fill="black"/>
</svg>
