<svg width="128" height="77" viewBox="0 0 128 77" fill="none" xmlns="http://www.w3.org/2000/svg">
<mask id="path-1-inside-1_631_2775" fill="white">
<path fill-rule="evenodd" clip-rule="evenodd" d="M4.99997 76.2804C2.23857 76.267 0.0109465 74.0175 0.0244246 71.2561L0.129635 49.7005C5.22616 48.6918 9.0803 44.2091 9.10664 38.8126C9.13298 33.4161 5.32278 28.8959 0.236346 27.8375L0.343699 5.84321C0.357177 3.08182 2.60665 0.854188 5.36804 0.867666L122.085 1.43735C124.846 1.45083 127.074 3.7003 127.061 6.4617L126.954 28.2416C120.999 28.4467 116.221 33.3241 116.191 39.3352C116.162 45.3464 120.893 50.2702 126.845 50.5334L126.845 50.5422L126.741 71.8746C126.728 74.636 124.478 76.8636 121.717 76.8501L4.99997 76.2804Z"/>
</mask>
<path fill-rule="evenodd" clip-rule="evenodd" d="M4.99997 76.2804C2.23857 76.267 0.0109465 74.0175 0.0244246 71.2561L0.129635 49.7005C5.22616 48.6918 9.0803 44.2091 9.10664 38.8126C9.13298 33.4161 5.32278 28.8959 0.236346 27.8375L0.343699 5.84321C0.357177 3.08182 2.60665 0.854188 5.36804 0.867666L122.085 1.43735C124.846 1.45083 127.074 3.7003 127.061 6.4617L126.954 28.2416C120.999 28.4467 116.221 33.3241 116.191 39.3352C116.162 45.3464 120.893 50.2702 126.845 50.5334L126.845 50.5422L126.741 71.8746C126.728 74.636 124.478 76.8636 121.717 76.8501L4.99997 76.2804Z" fill="#9CAFA2"/>
<path d="M4.99997 76.2804L5.00729 74.7805L4.99997 76.2804ZM0.129635 49.7005L-0.161595 48.2291L-1.36436 48.4671L-1.37035 49.6932L0.129635 49.7005ZM0.236346 27.8375L-1.26364 27.8302L-1.26962 29.0563L-0.0692329 29.3061L0.236346 27.8375ZM0.343699 5.84321L1.84368 5.85053L0.343699 5.84321ZM126.954 28.2416L127.006 29.7407L128.447 29.6911L128.454 28.2489L126.954 28.2416ZM126.845 50.5334L128.345 50.5407L128.352 49.0986L126.912 49.0349L126.845 50.5334ZM121.717 76.8501L121.71 78.3501L121.717 76.8501ZM-1.47556 71.2488C-1.49308 74.8386 1.40284 77.7629 4.99264 77.7804L5.00729 74.7805C3.07431 74.771 1.51497 73.1964 1.52441 71.2634L-1.47556 71.2488ZM-1.37035 49.6932L-1.47556 71.2488L1.52441 71.2634L1.62962 49.7079L-1.37035 49.6932ZM7.60666 38.8053C7.58387 43.4744 4.24896 47.3562 -0.161595 48.2291L0.420865 51.172C6.20336 50.0275 10.5767 44.9438 10.6066 38.8199L7.60666 38.8053ZM-0.0692329 29.3061C4.33259 30.222 7.62945 34.1362 7.60666 38.8053L10.6066 38.8199C10.6365 32.696 6.31297 27.5699 0.541926 26.369L-0.0692329 29.3061ZM-1.15628 5.83589L-1.26364 27.8302L1.73633 27.8449L1.84368 5.85053L-1.15628 5.83589ZM5.37537 -0.632316C1.78555 -0.649838 -1.13876 2.24608 -1.15628 5.83589L1.84368 5.85053C1.85312 3.91755 3.42775 2.35821 5.36072 2.36765L5.37537 -0.632316ZM122.092 -0.0626316L5.37537 -0.632316L5.36072 2.36765L122.078 2.93733L122.092 -0.0626316ZM128.561 6.46902C128.578 2.87921 125.682 -0.0451101 122.092 -0.0626316L122.078 2.93733C124.011 2.94677 125.57 4.5214 125.561 6.45437L128.561 6.46902ZM128.454 28.2489L128.561 6.46902L125.561 6.45437L125.454 28.2343L128.454 28.2489ZM117.691 39.3426C117.717 34.1401 121.853 29.9182 127.006 29.7407L126.903 26.7425C120.146 26.9753 114.725 32.5081 114.691 39.3279L117.691 39.3426ZM126.912 49.0349C121.761 48.8071 117.666 44.545 117.691 39.3426L114.691 39.3279C114.658 46.1477 120.025 51.7333 126.779 52.0319L126.912 49.0349ZM128.345 50.5496L128.345 50.5407L125.345 50.5261L125.345 50.5349L128.345 50.5496ZM128.241 71.8819L128.345 50.5496L125.345 50.5349L125.241 71.8673L128.241 71.8819ZM121.71 78.3501C125.299 78.3676 128.224 75.4717 128.241 71.8819L125.241 71.8673C125.232 73.8002 123.657 75.3596 121.724 75.3501L121.71 78.3501ZM4.99264 77.7804L121.71 78.3501L121.724 75.3501L5.00729 74.7805L4.99264 77.7804Z" fill="#013D19" mask="url(#path-1-inside-1_631_2775)"/>
<path d="M39.6718 22.5776C42.1244 19.3461 45.3359 16.9689 48.7617 15.4509C52.5306 13.7831 56.4923 13.1649 60.3796 13.1286C62.7 13.1079 64.9994 13.2923 67.2782 13.5699C67.8291 13.6363 67.6919 14.6274 67.141 14.561C59.8262 13.6726 51.7825 13.7904 44.9385 18.6818C43.2359 19.8989 41.6668 21.3896 40.3448 23.1302C39.9621 23.637 39.2853 23.0864 39.673 22.5745L39.6718 22.5776Z" fill="#748763"/>
<path d="M67.3225 13.5333C69.1376 14.043 70.9762 14.5078 72.7505 15.1388C73.2711 15.3235 72.9078 16.2648 72.3872 16.0801C70.6102 15.448 68.7731 14.9874 66.9592 14.4746C66.4279 14.3254 66.7939 13.3852 67.3225 13.5333Z" fill="#748763"/>
<path d="M72.6553 15.0502C75.1535 16.0225 77.6506 16.998 80.1462 17.9693C80.6595 18.1728 80.2974 19.1109 79.7829 18.9105C77.2846 17.9382 74.7875 16.9628 72.2919 15.9915C71.7786 15.788 72.1407 14.8499 72.6553 15.0502Z" fill="#748763"/>
<path d="M80.0931 17.9399C80.8649 18.2603 81.6367 18.5808 82.4112 18.9023C82.6174 18.9877 82.7384 19.278 82.6285 19.5311C82.5185 19.7842 82.2701 19.9353 82.0479 19.8436C81.276 19.5231 80.5042 19.2027 79.7298 18.8812C79.5235 18.7958 79.4025 18.5055 79.5125 18.2524C79.6224 17.9993 79.8709 17.8482 80.0931 17.9399Z" fill="#748763"/>
<path d="M76.8669 16.4159C77.1007 15.8104 77.8986 16.1267 77.6648 16.7323C77.4311 17.3378 76.6332 17.0215 76.8669 16.4159Z" fill="#748763"/>
<path d="M76.1975 16.1463C77.8033 15.466 79.4827 15.1514 81.1287 15.2649C82.9352 15.3914 84.5586 16.1832 86.3266 16.4573L86.0757 17.425C83.3869 16.7715 80.5552 16.6076 77.7322 17.1201L77.7555 16.1381C78.9923 16.263 80.232 16.3565 81.4784 16.4165C82.6369 16.4742 83.798 16.4931 84.9702 16.2451L84.9469 17.2271C82.9194 17.2916 80.9053 17.2022 78.9152 16.9632C78.3643 16.8967 78.4945 15.9318 79.0524 15.9721C81.4394 16.1442 83.8264 16.3163 86.2134 16.4883L85.8634 17.3951C83.5026 15.8044 80.489 15.5395 77.6875 16.5923C77.1389 16.798 77.0548 15.8241 77.5996 15.6204C80.6357 14.4761 83.8841 14.8558 86.4262 16.5727C86.7913 16.8187 86.4815 17.5099 86.0762 17.4795C83.6892 17.3074 81.3022 17.1353 78.9152 16.9632L79.0524 15.9721C81.0425 16.2111 83.0566 16.3005 85.0841 16.236C85.5838 16.2206 85.5484 17.1147 85.0608 17.218C83.8598 17.4691 82.66 17.471 81.4728 17.4164C80.183 17.3573 78.8986 17.2605 77.6171 17.1323C77.1443 17.086 77.1288 16.2442 77.6404 16.1503C80.629 15.6058 83.5929 15.7931 86.4379 16.4869C86.9063 16.6002 86.6646 17.5282 86.187 17.4547C84.4995 17.1945 82.9419 16.4468 81.2299 16.2818C79.6628 16.1308 78.0393 16.388 76.5034 17.0381C75.962 17.2649 75.651 16.3782 76.1963 16.1494L76.1975 16.1463Z" fill="#748763"/>
<path d="M76.9998 17.5971C77.5582 18.8677 78.5026 19.8136 79.4678 20.6738C80.5587 21.6454 81.7162 22.5239 82.9284 23.3083L82.3656 24.1308C80.4218 22.4847 79.4616 19.6331 77.0909 18.5847L77.6321 17.7863C78.3944 18.7035 79.1579 19.6176 79.9175 20.5337L79.2022 21.1872C78.7326 20.5922 78.263 19.9972 77.7934 19.4023C77.3608 18.8545 76.9474 18.2095 76.32 17.9282L76.8612 17.1298C76.9564 17.3122 77.0577 17.3596 77.2539 17.2963C77.8098 17.1115 77.8939 18.0854 77.3418 18.2682C76.8704 18.4249 76.3783 18.2299 76.1432 17.7821C75.9488 17.412 76.2597 16.7972 76.6845 16.9837C77.3811 17.2925 77.8514 17.9094 78.3333 18.5201C78.863 19.1896 79.3901 19.858 79.9187 20.5306C80.2773 20.9839 79.5654 21.6206 79.2034 21.184C78.4411 20.2668 77.6776 19.3527 76.918 18.4366C76.6311 18.0913 77.0838 17.4749 77.4593 17.6382C78.654 18.1661 79.6017 19.0953 80.4011 20.1864C81.2006 21.2776 81.909 22.4375 82.9308 23.3021C83.3681 23.6708 82.8266 24.4221 82.368 24.1245C81.0821 23.2927 79.8571 22.3585 78.7087 21.3135C77.6983 20.3956 76.7697 19.3691 76.1816 18.0325C75.9393 17.4842 76.7614 17.0468 77.0022 17.5908L76.9998 17.5971Z" fill="#748763"/>
<path d="M78.0587 24.294C76.7392 23.0727 75.9716 21.343 75.0687 19.7333C74.606 18.9059 74.0993 18.0972 73.4484 17.4557C72.7066 16.7239 71.8352 16.2084 70.8733 15.8958L71.4146 15.0974C72.3962 16.5031 73.3451 17.9538 74.4043 19.2854C75.4636 20.617 76.6304 21.7814 77.8833 22.8497L77.2429 23.5871C76.186 22.2492 75.1331 20.9093 74.0762 19.5714C73.0837 18.3132 72.1366 16.961 70.8902 16.011L71.5306 15.2736C72.7295 17.2684 74.1174 19.0993 75.6836 20.7223C76.0735 21.1265 75.5175 21.9552 75.1208 21.5448C73.5002 19.864 72.0557 17.9889 70.8153 15.9271C70.5516 15.4897 71.0558 14.8828 71.4556 15.1897C72.7224 16.1585 73.6963 17.5286 74.7052 18.8078C75.7896 20.1855 76.8779 21.5612 77.9623 22.9389C78.2772 23.3387 77.6959 23.9946 77.3219 23.6763C76.046 22.5881 74.8517 21.3838 73.7753 20.049C72.6989 18.7142 71.7084 17.1964 70.6993 15.7508C70.4322 15.37 70.8478 14.8257 71.2405 14.9524C73.1365 15.5702 74.5586 16.9552 75.611 18.7653C76.5509 20.3824 77.2843 22.2324 78.6268 23.4737C79.0382 23.8539 78.4796 24.6815 78.064 24.2961L78.0587 24.294Z" fill="#748763"/>
<path d="M72.7873 14.448C75.7954 13.4083 78.8701 12.8473 81.9314 12.7585L81.6805 13.7263C79.8537 13.3024 78.0358 13.1497 76.1162 13.5861C75.2353 13.7868 74.3668 14.0901 73.5242 14.5013C72.6816 14.9125 71.8751 15.4683 70.9934 15.3214C70.5552 15.249 70.5082 14.6479 70.9091 14.3799C72.784 13.1298 74.8774 12.4655 76.9542 12.4242C77.517 12.4122 77.3759 13.4054 76.817 13.4153C74.8857 13.4529 72.9561 14.1061 71.2162 15.2686L71.1319 14.3271C71.9819 14.4687 72.8762 13.7488 73.6748 13.3961C74.5576 13.008 75.4683 12.7143 76.3841 12.5347C78.3421 12.1496 80.1786 12.3495 82.0385 12.7829C82.5398 12.8984 82.244 13.7362 81.7876 13.7507C78.8038 13.8376 75.8028 14.4061 72.8714 15.4219C72.3184 15.6151 72.2355 14.638 72.7834 14.45L72.7873 14.448Z" fill="#748763"/>
<path d="M65.2813 12.6935C66.1859 12.249 67.0866 11.8065 67.9911 11.3619C68.5248 11.0996 68.8257 11.9569 68.2983 12.2507L65.8419 13.6248L65.5348 12.7361C66.9568 12.0951 68.3814 11.4552 69.8046 10.811C71.2279 10.1669 72.5364 9.50992 73.9286 9.00182L73.9053 9.98385C70.6005 10.1317 67.2469 11.407 64.3789 13.6092L64.1959 12.7407C64.742 12.7004 65.2627 12.3207 65.7466 12.0205C66.3026 11.6766 66.8714 11.363 67.4505 11.0861C68.5842 10.5407 69.7562 10.1262 70.9402 9.83946C71.5017 9.70387 71.5896 10.6757 71.0282 10.8113C69.7895 11.1125 68.5763 11.5541 67.3972 12.1539C66.3097 12.7068 65.2402 13.6503 64.0574 13.735C63.6816 13.7633 63.5567 13.1096 63.8744 12.8665C66.9551 10.5026 70.4927 9.15556 74.044 8.99691C74.5814 8.97119 74.4631 9.81789 74.0207 9.97894C72.657 10.4766 71.3153 11.1639 69.976 11.7654C68.5993 12.3845 67.2213 13.0067 65.8446 13.6259C65.3063 13.8683 65.0062 13.033 65.5374 12.7371L67.9938 11.363L68.3009 12.2517C67.3964 12.6963 66.4957 13.1387 65.5911 13.5833C65.0574 13.8456 64.7464 12.959 65.284 12.6946L65.2813 12.6935Z" fill="#748763"/>
<path d="M65.1158 13.7979C67.2323 16.927 70.3664 18.8424 73.4037 20.6905L72.8409 21.5129C72.133 21.0188 71.622 20.2772 71.1406 19.522C70.6593 18.7668 70.134 17.9905 69.5101 17.3344C68.2639 16.0264 66.7577 15.0819 65.0887 14.5433L65.5524 13.6599C67.4043 15.3455 69.2321 17.0614 71.0412 18.8024L70.4008 19.5398C69.2895 18.3033 68.1781 17.0668 67.068 15.8272C66.9073 15.6477 66.9994 15.2899 67.1727 15.1271C67.3842 14.9287 67.6241 14.9985 67.7833 15.1738C68.8947 16.4103 70.006 17.6467 71.1161 18.8864C71.4484 19.2569 70.8335 19.9682 70.4757 19.6238C68.6667 17.8828 66.8349 16.1689 64.9869 14.4812C64.6176 14.1431 64.9863 13.4499 65.4506 13.5978C67.1447 14.1428 68.7027 15.1041 69.9818 16.4144C70.6037 17.0516 71.1533 17.7651 71.6443 18.535C72.1353 19.3049 72.6434 20.1575 73.3996 20.6852C73.8657 21.0111 73.3015 21.7895 72.8368 21.5076C69.7298 19.6175 66.5598 17.6444 64.3964 14.4461C64.0696 13.9656 64.7862 13.3091 65.1117 13.7927L65.1158 13.7979Z" fill="#748763"/>
<path d="M58.8268 12.8172C61.1427 8.36656 65.2545 5.45271 69.6238 5.17698C70.123 5.14697 70.0857 6.06195 69.6005 6.15901C65.8126 6.91484 62.9989 10.5097 60.0197 13.1273C59.6163 13.4811 59.0988 12.9467 59.4314 12.4744C60.7201 10.6374 62.2822 9.09322 64.0467 7.88258L64.3538 8.7713C63.1959 9.4193 62.1962 10.452 61.5444 11.7275L60.8917 11.1938C63.381 9.29732 65.8691 7.40395 68.3584 5.50745C68.8441 5.13921 69.3552 5.88087 68.8645 6.25433C66.3751 8.15083 63.887 10.0442 61.3977 11.9407C61.0684 12.19 60.4932 11.9005 60.745 11.407C61.5254 9.88579 62.6566 8.65557 64.0465 7.87525C64.5829 7.57416 64.8455 8.42716 64.3536 8.76397C62.7316 9.87555 61.29 11.33 60.1041 13.0197L59.5159 12.3668C62.6342 9.62713 65.5507 5.96447 69.5147 5.17354L69.4914 6.15556C65.5531 6.40318 61.7194 9.10526 59.6308 13.1178C59.5034 13.3604 59.2881 13.521 59.0501 13.4303C58.856 13.3533 58.7067 13.0409 58.8328 12.8015L58.8268 12.8172Z" fill="#748763"/>
<path d="M55.4423 14.0547C59.1213 15.7737 62.9394 17.1643 66.8619 18.2128L66.3207 19.0112C64.5119 16.7928 62.1405 15.2377 59.4917 14.4806C58.9616 14.3284 59.3276 13.3881 59.855 13.5393C62.6535 14.3376 65.1301 16.0177 67.0386 18.3589C67.3463 18.7377 66.8681 19.2536 66.4974 19.1573C62.5749 18.1087 58.7568 16.7181 55.0778 14.9991C54.5792 14.7653 54.9399 13.8229 55.4411 14.0578L55.4423 14.0547Z" fill="#748763"/>
<path d="M58.8422 13.7642C60.9195 14.9929 62.9941 16.2206 65.0726 17.4461L64.5098 18.2686C63.4482 17.1893 62.2453 16.2855 60.923 15.6274C59.7114 15.0241 58.3759 14.6068 56.9788 14.8416C56.4147 14.9364 56.3241 13.9635 56.8908 13.8698C58.4055 13.6164 59.8552 13.9922 61.1782 14.6324C62.6147 15.3285 63.9281 16.2797 65.0765 17.4441C65.4823 17.8546 64.9876 18.5484 64.5137 18.2665C62.4364 17.0378 60.3618 15.8101 58.2833 14.5846C58.0811 14.4646 58.0942 14.0972 58.228 13.8934C58.3946 13.6447 58.6478 13.6401 58.8473 13.759L58.8422 13.7642Z" fill="#748763"/>
<path d="M57.0313 14.8386L56.605 15.0531L56.5207 14.1116C58.4177 14.3535 60.2036 14.9783 61.8433 15.9504C62.0428 16.0692 62.0351 16.4388 61.8985 16.6415C61.7293 16.8892 61.4814 16.8958 61.2793 16.7759C59.7789 15.888 58.1104 15.3243 56.3796 15.1048C55.9709 15.0513 55.86 14.3851 56.2952 14.1633L56.7215 13.9488C57.255 13.6791 57.5647 14.5689 57.0286 14.8375L57.0313 14.8386Z" fill="#748763"/>
<path d="M55.024 13.0092C56.8342 9.39999 59.5503 6.39953 62.7921 4.46848L62.9903 5.40087C61.36 5.73136 60.4261 7.57881 59.5445 9.01284C58.5381 10.6507 57.3459 12.1425 56.0168 13.4643C55.6149 13.8621 55.1259 13.2775 55.4285 12.8114C57.3915 9.7837 59.7468 7.07435 62.3906 4.80135L62.8967 5.54823C61.8064 6.33882 60.8145 7.28778 59.955 8.39416L59.3667 7.74128L60.5327 6.45253L60.7158 7.32101L60.0903 7.3046C59.6869 7.293 59.6239 6.72535 59.9073 6.43612L60.0191 6.32126C60.4574 5.86913 60.9622 6.61915 60.5251 7.06814L60.4133 7.183L60.2302 6.31452L60.8557 6.33093C61.2695 6.33941 61.3061 6.90385 61.0387 7.19941L59.8727 8.48816C59.5027 8.8986 58.939 8.2772 59.2844 7.83528C60.1981 6.65995 61.2375 5.63574 62.3957 4.79613C62.8767 4.44778 63.3871 5.12766 62.9017 5.54301C60.3152 7.76277 58.0258 10.3969 56.1066 13.3588L55.5183 12.7059C56.9403 11.2943 58.1365 9.68108 59.1954 7.92298C60.1185 6.3896 61.2288 4.76041 62.906 4.41959C63.4082 4.31838 63.5628 5.07789 63.1043 5.35198C60.0943 7.14337 57.5101 9.96098 55.827 13.3203C55.5384 13.8933 54.7381 13.5832 55.0291 13.004L55.024 13.0092Z" fill="#748763"/>
<path d="M62.913 5.27661C61.1074 6.06939 59.5601 7.54344 58.533 9.43356C58.4042 9.67191 58.0823 9.70347 57.9138 9.56794C57.7141 9.40195 57.7286 9.11826 57.8586 8.87676C58.9549 6.85491 60.672 5.23476 62.6033 4.38684C62.8324 4.28592 63.0802 4.35885 63.1671 4.61038C63.2454 4.83675 63.1395 5.17464 62.9104 5.27556L62.913 5.27661Z" fill="#748763"/>
<path d="M49.8031 15.842C53.6051 17.4252 58.0897 16.7394 61.7008 18.8728C62.1626 19.1463 61.8445 20.0657 61.3375 19.8141C59.2243 18.7737 57.0452 17.8881 54.8061 17.1741C53.6865 16.8171 52.5538 16.5019 51.4081 16.2286C51.3486 16.2159 51.0216 16.1731 51.0192 16.1396L51.1851 15.8291C51.2649 15.8607 51.3495 15.8798 51.4354 15.8957C51.7079 15.9604 51.9826 16.0114 52.2549 16.0687C52.8484 16.1918 53.4406 16.318 54.034 16.4411L53.7831 17.4089C52.546 17.0704 51.305 16.734 50.0679 16.3955L50.4312 15.4542C53.9542 16.4493 57.4772 17.4444 61.0002 18.4394C61.5315 18.5886 61.1655 19.5288 60.6369 19.3807C57.1139 18.3857 53.5909 17.3906 50.0679 16.3955C49.534 16.2454 49.9041 15.3104 50.4312 15.4542C51.6683 15.7927 52.9093 16.1291 54.1465 16.4676C54.6074 16.5925 54.37 17.5331 53.8956 17.4354C53.166 17.2837 52.435 17.1277 51.7054 16.9759C51.1806 16.8656 50.3765 16.8435 50.2969 16.0883C50.2627 15.7637 50.4068 15.4301 50.6729 15.257C50.9391 15.084 51.2252 15.1612 51.495 15.2248C52.1816 15.3848 52.8659 15.5584 53.5468 15.7488C56.3567 16.5335 59.0821 17.585 61.7008 18.8728L61.3375 19.8141C57.7317 17.6828 53.2418 18.3665 49.4398 16.7833C48.9301 16.5703 49.2934 15.629 49.8031 15.842Z" fill="#748763"/>
<path d="M49.0842 15.9723C49.3179 15.3667 50.1158 15.683 49.8821 16.2886C49.6483 16.8942 48.8504 16.5778 49.0842 15.9723Z" fill="#748763"/>
<path d="M48.8786 14.986C50.5474 11.1869 53.0337 7.82038 56.0785 5.27942C56.554 4.88184 57.0336 5.58572 56.5845 6.0263C54.0448 8.51423 51.9212 11.5289 50.3673 14.8635L49.6311 14.4269C51.1444 12.2701 52.5108 9.99355 53.6992 7.61388L54.4354 8.05045L52.9002 10.6689L52.4095 9.94615C53.2862 9.57377 53.4601 8.25712 53.9868 7.49638C54.5135 6.73563 55.3999 6.37793 55.7842 5.55711L56.5204 5.99367C55.118 7.88693 53.7182 9.78124 52.3158 11.6745L51.644 11.1188C52.8665 9.62809 54.089 8.13743 55.3115 6.64677C55.7106 6.16102 56.3887 6.70841 55.9833 7.20251C54.7608 8.69317 53.5383 10.1838 52.3158 11.6745C51.9218 12.155 51.2553 11.6412 51.644 11.1188C53.0464 9.2255 54.4462 7.33118 55.8486 5.43793C56.1642 5.00953 56.8364 5.33389 56.5848 5.87449C56.354 6.36908 56.0275 6.74614 55.6397 7.09161C55.2518 7.43709 54.8581 7.72601 54.5799 8.17649C53.9963 9.1245 53.7875 10.3803 52.7192 10.8359C52.2906 11.0169 51.9684 10.5564 52.2285 10.1132L53.7636 7.4947C54.0447 7.01282 54.755 7.42104 54.4998 7.93127C53.2695 10.3956 51.8716 12.7538 50.3055 14.9837C49.9942 15.4247 49.324 15.0794 49.5693 14.5471C51.1993 11.0474 53.4103 7.89367 56.0785 5.27942L56.5845 6.0263C53.6702 8.45978 51.2744 11.6632 49.6765 15.3023C49.4174 15.8942 48.6182 15.581 48.8786 14.986Z" fill="#748763"/>
<path d="M56.694 6.2578L55.299 7.89352C55.2104 7.99588 55.1315 8.07313 55.0065 8.10315C54.8983 8.12902 54.761 8.10351 54.6798 8.0279C54.5214 7.88192 54.445 7.54771 54.6245 7.33672L56.0196 5.701C56.1081 5.59865 56.187 5.52139 56.3121 5.49137C56.4202 5.4655 56.5576 5.49101 56.6388 5.56662C56.7971 5.7126 56.8736 6.04681 56.694 6.2578Z" fill="#748763"/>
<path d="M45.6746 18.0049C48.4353 18.9329 51.2394 19.7804 53.924 20.9134L53.5607 21.8547C52.2822 21.1706 50.984 20.5294 49.6627 19.9404C48.3413 19.3514 47.0562 18.7479 45.6223 18.6172L45.7595 17.6261C48.7656 17.9423 51.5939 19.0527 54.0264 20.8708C54.4743 21.204 53.9103 22.0295 53.4636 21.6932C51.1602 19.9697 48.4728 18.9152 45.6223 18.6172C45.0677 18.5602 45.2025 17.5753 45.7595 17.6261C47.2263 17.759 48.5728 18.3543 49.8969 18.9443C51.2209 19.5343 52.6042 20.2093 53.9228 20.9166C54.4011 21.1713 54.0786 22.0782 53.5595 21.8579C50.8722 20.7238 48.0708 19.8773 45.3101 18.9493C44.7859 18.774 45.1492 17.8327 45.6734 18.008L45.6746 18.0049Z" fill="#748763"/>
<path d="M44.8882 17.536C44.3826 16.0729 44.8603 14.4462 45.6336 13.0705C46.4875 11.5495 47.6192 10.1748 48.8021 8.96145C49.2137 8.53856 49.655 9.15125 49.3904 9.61433C48.0777 11.9266 47.0087 14.3862 46.1854 16.9323L45.4492 16.4958C46.7058 14.5194 47.6295 12.317 48.1485 10.0192L48.9171 10.3239C47.5666 12.0352 46.1224 13.854 45.6407 16.0869C45.5049 16.7168 44.6382 16.6663 44.7752 16.0332C45.3014 13.5972 46.7636 11.6445 48.2441 9.77132C48.5152 9.42657 49.1336 9.5487 49.0128 10.0761C48.4512 12.5559 47.4776 14.9194 46.1198 17.0546C45.8051 17.5521 45.2154 17.1411 45.3836 16.6181C46.2343 13.9851 47.3575 11.4566 48.7135 9.06381L49.3018 9.71669C48.2752 10.7713 47.3287 11.9444 46.538 13.2301C45.8284 14.385 45.2605 15.8168 45.7064 17.1006C45.9049 17.6749 45.0842 18.1166 44.8858 17.5422L44.8882 17.536Z" fill="#748763"/>
<path d="M45.8329 18.1269C48.4262 19.1948 51.0824 20.0995 53.791 20.8368C54.3235 20.9828 53.9575 21.923 53.4276 21.7781C50.7191 21.0408 48.0628 20.1361 45.4696 19.0682C44.9587 18.8584 45.322 17.9171 45.8329 18.1269Z" fill="#748763"/>
<path d="M39.3091 26.9332L39.2789 36.1753L37.4318 36.1693L37.462 26.9272L39.3091 26.9332ZM41.6069 26.9407L41.6019 28.4832L35.2035 28.4623L35.2085 26.9198L41.6069 26.9407ZM47.6174 26.9603L49.4709 26.9664L49.4502 33.314C49.4478 34.0249 49.3148 34.6043 49.0509 35.052C48.7913 35.4955 48.4327 35.8201 47.975 36.026C47.5173 36.2276 46.9943 36.3275 46.4061 36.3256C45.8137 36.3236 45.2872 36.2203 44.8266 36.0157C44.366 35.8069 44.0074 35.4798 43.7507 35.0347C43.4982 34.5853 43.3732 34.0051 43.3755 33.2942L43.3962 26.9465L45.2497 26.9526L45.229 33.3002C45.2277 33.7022 45.2711 34.0113 45.3593 34.2274C45.4517 34.4435 45.5845 34.5921 45.7577 34.673C45.9352 34.7498 46.153 34.7886 46.4111 34.7894C46.6735 34.7903 46.8895 34.7529 47.059 34.6773C47.2327 34.5975 47.3644 34.4498 47.454 34.2343C47.5478 34.0187 47.5953 33.71 47.5967 33.308L47.6174 26.9603ZM51.6791 26.9736L54.6434 26.9833C55.2613 26.9853 55.7878 27.0928 56.223 27.3058C56.6581 27.5188 56.9914 27.8331 57.2228 28.2485C57.4542 28.664 57.5689 29.1764 57.5669 29.7858C57.5653 30.2852 57.4962 30.7123 57.3596 31.0674C57.223 31.4182 57.0295 31.7116 56.7791 31.9478C56.5287 32.1797 56.2297 32.3649 55.8823 32.5035L55.3162 32.838L52.9105 32.8302L52.9092 31.2877L54.5786 31.2931C54.8325 31.294 55.0421 31.2396 55.2075 31.1302C55.3772 31.0165 55.5025 30.8582 55.5836 30.6553C55.6689 30.4482 55.712 30.2072 55.7129 29.9321C55.7139 29.6401 55.6766 29.3903 55.6011 29.1827C55.5299 28.9709 55.414 28.8097 55.2536 28.6991C55.0974 28.5844 54.8923 28.5266 54.6384 28.5257L53.5339 28.5221L53.5088 36.2218L51.6489 36.2157L51.6791 26.9736ZM55.8447 36.2294L54.1633 32.1043L56.1121 32.1043L57.8318 36.1471L57.8315 36.2359L55.8447 36.2294ZM61.5108 27.0057L61.4806 36.2478L59.6208 36.2418L59.651 26.9996L61.5108 27.0057ZM66.1001 27.0207L63.0891 31.6002L61.2471 33.8794L60.8978 32.0184L62.0912 30.0418L63.8404 27.0133L66.1001 27.0207ZM63.9245 36.2558L61.9198 32.0027L63.2885 30.8011L66.1144 36.263L63.9245 36.2558ZM73.9069 30.95L73.9019 32.4925C73.8997 33.1442 73.8175 33.7152 73.6551 34.2056C73.4969 34.6917 73.2713 35.0993 72.9782 35.4284C72.6894 35.7534 72.3395 35.9977 71.9284 36.1614C71.5217 36.3251 71.0707 36.4061 70.5756 36.4045C70.0805 36.4029 69.6279 36.3189 69.218 36.1525C68.8123 35.9861 68.4619 35.7395 68.1667 35.4127C67.8758 35.0817 67.6507 34.6726 67.4915 34.1854C67.3323 33.694 67.2538 33.1225 67.2559 32.4708L67.2609 30.9283C67.2631 30.2597 67.3433 29.676 67.5015 29.1771C67.6597 28.6741 67.8875 28.2559 68.1848 27.9225C68.4821 27.5849 68.8342 27.3322 69.241 27.1642C69.6478 26.9921 70.0988 26.9068 70.5939 26.9084C71.089 26.91 71.5394 26.9982 71.9451 27.1731C72.3508 27.3437 72.7012 27.5987 72.9963 27.9382C73.2914 28.2735 73.5165 28.6932 73.6714 29.1973C73.8306 29.6972 73.9091 30.2814 73.9069 30.95ZM72.0547 32.4865L72.0598 30.9313C72.0612 30.4912 72.0307 30.1166 71.9682 29.8074C71.9058 29.4941 71.8114 29.2378 71.6851 29.0384C71.5588 28.8391 71.4048 28.6926 71.2232 28.599C71.0415 28.5053 70.8301 28.458 70.5888 28.4572C70.3476 28.4564 70.1338 28.5023 69.9473 28.5948C69.765 28.6873 69.6101 28.8328 69.4825 29.0313C69.3591 29.2297 69.2652 29.4855 69.2007 29.7984C69.1404 30.1071 69.1096 30.4815 69.1081 30.9216L69.1031 32.4768C69.1017 32.9 69.1322 33.2619 69.1947 33.5626C69.2572 33.8632 69.3516 34.109 69.478 34.2998C69.6043 34.4907 69.7583 34.6329 69.94 34.7266C70.1259 34.8161 70.3394 34.8612 70.5806 34.862C70.8176 34.8628 71.0272 34.819 71.2095 34.7308C71.396 34.6383 71.5509 34.497 71.6742 34.307C71.7976 34.117 71.8915 33.8718 71.9559 33.5716C72.0204 33.2713 72.0533 32.9096 72.0547 32.4865ZM76.058 27.0532L79.0224 27.0629C79.6402 27.0649 80.1667 27.1724 80.6019 27.3854C81.0371 27.5984 81.3704 27.9127 81.6018 28.3282C81.8331 28.7436 81.9478 29.256 81.9459 29.8654C81.9442 30.3648 81.8751 30.792 81.7385 31.147C81.602 31.4978 81.4085 31.7912 81.158 32.0274C80.9076 32.2593 80.6087 32.4446 80.2612 32.5831L79.6952 32.9177L77.2894 32.9098L77.2881 31.3673L78.9575 31.3728C79.2114 31.3736 79.4211 31.3193 79.5865 31.2098C79.7561 31.0961 79.8815 30.9378 79.9625 30.7349C80.0478 30.5278 80.091 30.2868 80.0919 30.0117C80.0928 29.7197 80.0555 29.4699 79.98 29.2623C79.9088 29.0505 79.7929 28.8893 79.6325 28.7788C79.4763 28.664 79.2712 28.6062 79.0173 28.6054L77.9129 28.6018L77.8877 36.3014L76.0279 36.2953L76.058 27.0532ZM80.2236 36.309L78.5423 32.1839L80.491 32.1839L82.2107 36.2267L82.2104 36.3155L80.2236 36.309ZM87.3814 27.0902L87.3512 36.3323L85.5041 36.3263L85.5343 27.0842L87.3814 27.0902ZM89.6793 27.0977L89.6742 28.6402L83.2758 28.6193L83.2809 27.0768L89.6793 27.0977Z" fill="black"/>
<path d="M48.4615 39.0093V46.1577H47.5972V40.1372L46.1031 40.8013V39.9858L48.3296 39.0093H48.4615ZM55.2285 42.0366V43.1206C55.2285 43.7033 55.1829 44.1948 55.0917 44.5952C55.0039 44.9956 54.8769 45.3179 54.7109 45.562C54.5449 45.8062 54.3447 45.9836 54.1103 46.0942C53.8792 46.2017 53.6188 46.2554 53.3291 46.2554C53.1012 46.2554 52.888 46.2212 52.6894 46.1528C52.4941 46.0845 52.3183 45.9754 52.1621 45.8257C52.0058 45.6727 51.8723 45.4741 51.7617 45.23C51.651 44.9858 51.5664 44.6896 51.5078 44.3413C51.4492 43.993 51.4199 43.5861 51.4199 43.1206V42.0366C51.4199 41.4539 51.4654 40.9657 51.5566 40.5718C51.6477 40.1779 51.7763 39.8621 51.9423 39.6245C52.1116 39.3836 52.3118 39.2111 52.5429 39.1069C52.7773 39.0028 53.0377 38.9507 53.3242 38.9507C53.5553 38.9507 53.7685 38.9849 53.9638 39.0532C54.1624 39.1183 54.3382 39.2241 54.4912 39.3706C54.6474 39.5138 54.7809 39.7059 54.8916 39.9468C55.0022 40.1844 55.0852 40.4757 55.1406 40.8208C55.1992 41.1659 55.2285 41.5711 55.2285 42.0366ZM54.3691 43.2671V41.8853C54.3691 41.5662 54.3544 41.2863 54.3251 41.0454C54.2959 40.8013 54.2535 40.5929 54.1982 40.4204C54.1429 40.2479 54.0712 40.1079 53.9834 40.0005C53.8987 39.8931 53.8011 39.8149 53.6904 39.7661C53.5797 39.714 53.4576 39.688 53.3242 39.688C53.1582 39.688 53.01 39.7287 52.8798 39.8101C52.7529 39.8882 52.6438 40.0135 52.5527 40.186C52.4648 40.3586 52.3981 40.5848 52.3525 40.8647C52.3069 41.1447 52.2841 41.4849 52.2841 41.8853V43.2671C52.2841 43.5861 52.2988 43.8677 52.3281 44.1118C52.3606 44.356 52.4046 44.5675 52.4599 44.7466C52.5185 44.9224 52.5901 45.0672 52.6748 45.1812C52.7594 45.2951 52.857 45.3797 52.9677 45.4351C53.0784 45.4871 53.1988 45.5132 53.3291 45.5132C53.5016 45.5132 53.6513 45.4709 53.7783 45.3862C53.9085 45.3016 54.0175 45.1698 54.1054 44.9907C54.1933 44.8084 54.2584 44.5757 54.3007 44.2925C54.3463 44.006 54.3691 43.6642 54.3691 43.2671ZM60.9597 39.0483V46.1577H60.0613V39.0483H60.9597ZM64.5339 39.0483L62.0876 42.3638L60.657 44.0874L60.4959 43.0815L61.5457 41.7046L63.4597 39.0483H64.5339ZM63.6404 46.1577L61.5457 42.6909L62.0779 41.9438L64.7097 46.1577H63.6404ZM69.8068 45.3911V46.1577H66.8576V45.3911H69.8068ZM67.0187 39.0483V46.1577H66.1203V39.0483H67.0187ZM72.4136 39.0483V46.1577H71.5152V39.0483H72.4136ZM76.8417 43.3696H75.289V42.603H76.8417C77.1347 42.603 77.3707 42.5444 77.5498 42.4272C77.732 42.3101 77.8639 42.1473 77.9453 41.939C78.0299 41.7306 78.0722 41.493 78.0722 41.2261C78.0722 40.9819 78.0299 40.7524 77.9453 40.5376C77.8639 40.3228 77.732 40.1502 77.5498 40.02C77.3707 39.8866 77.1347 39.8198 76.8417 39.8198H75.4746V46.1577H74.5761V39.0483H76.8417C77.3007 39.0483 77.6881 39.1411 78.0039 39.3267C78.3196 39.5122 78.5589 39.7694 78.7216 40.0981C78.8876 40.4237 78.9707 40.7964 78.9707 41.2163C78.9707 41.672 78.8876 42.061 78.7216 42.3833C78.5589 42.7056 78.3196 42.9513 78.0039 43.1206C77.6881 43.2866 77.3007 43.3696 76.8417 43.3696Z" fill="black"/>
</svg>
