<svg width="128" height="77" viewBox="0 0 128 77" fill="none" xmlns="http://www.w3.org/2000/svg">
<mask id="path-1-inside-1_711_4087" fill="white">
<path fill-rule="evenodd" clip-rule="evenodd" d="M4.99996 75.4372C2.23857 75.4237 0.0109465 73.1742 0.0244246 70.4128L0.129635 48.8573C5.22616 47.8486 9.0803 43.3658 9.10664 37.9693C9.13298 32.5728 5.32278 28.0527 0.236346 26.9943L0.343699 4.99995C0.357177 2.23856 2.60665 0.0109262 5.36804 0.0244042L122.085 0.594089C124.846 0.607567 127.074 2.85704 127.061 5.61843L126.954 27.3984C120.999 27.6035 116.221 32.4809 116.191 38.492C116.162 44.5031 120.893 49.4269 126.845 49.6901L126.845 49.699L126.741 71.0313C126.728 73.7927 124.478 76.0203 121.717 76.0069L4.99996 75.4372Z"/>
</mask>
<path fill-rule="evenodd" clip-rule="evenodd" d="M4.99996 75.4372C2.23857 75.4237 0.0109465 73.1742 0.0244246 70.4128L0.129635 48.8573C5.22616 47.8486 9.0803 43.3658 9.10664 37.9693C9.13298 32.5728 5.32278 28.0527 0.236346 26.9943L0.343699 4.99995C0.357177 2.23856 2.60665 0.0109262 5.36804 0.0244042L122.085 0.594089C124.846 0.607567 127.074 2.85704 127.061 5.61843L126.954 27.3984C120.999 27.6035 116.221 32.4809 116.191 38.492C116.162 44.5031 120.893 49.4269 126.845 49.6901L126.845 49.699L126.741 71.0313C126.728 73.7927 124.478 76.0203 121.717 76.0069L4.99996 75.4372Z" fill="#9CAFA2"/>
<path d="M0.0244246 70.4128L-1.47556 70.4055L0.0244246 70.4128ZM0.129635 48.8573L-0.161595 47.3858L-1.36436 47.6239L-1.37035 48.85L0.129635 48.8573ZM0.236346 26.9943L-1.26364 26.987L-1.26962 28.213L-0.0692329 28.4628L0.236346 26.9943ZM126.954 27.3984L127.006 28.8975L128.447 28.8478L128.454 27.4057L126.954 27.3984ZM126.845 49.6901L128.345 49.6975L128.352 48.2553L126.912 48.1916L126.845 49.6901ZM126.845 49.699L128.345 49.7063L126.845 49.699ZM126.741 71.0313L125.241 71.024L126.741 71.0313ZM-1.47556 70.4055C-1.49308 73.9953 1.40284 76.9196 4.99264 76.9372L5.00729 73.9372C3.07431 73.9278 1.51497 72.3531 1.52441 70.4201L-1.47556 70.4055ZM-1.37035 48.85L-1.47556 70.4055L1.52441 70.4201L1.62962 48.8646L-1.37035 48.85ZM7.60666 37.962C7.58387 42.6311 4.24896 46.5129 -0.161595 47.3858L0.420865 50.3287C6.20336 49.1843 10.5767 44.1006 10.6066 37.9767L7.60666 37.962ZM-0.0692329 28.4628C4.33259 29.3788 7.62945 33.2929 7.60666 37.962L10.6066 37.9767C10.6365 31.8527 6.31297 26.7266 0.541926 25.5257L-0.0692329 28.4628ZM-1.15628 4.99263L-1.26364 26.987L1.73633 27.0016L1.84368 5.00727L-1.15628 4.99263ZM5.37537 -1.47558C1.78555 -1.4931 -1.13876 1.40282 -1.15628 4.99263L1.84368 5.00727C1.85312 3.07429 3.42775 1.51495 5.36072 1.52439L5.37537 -1.47558ZM122.092 -0.905893L5.37537 -1.47558L5.36072 1.52439L122.078 2.09407L122.092 -0.905893ZM128.561 5.62575C128.578 2.03594 125.682 -0.888372 122.092 -0.905893L122.078 2.09407C124.011 2.10351 125.57 3.67814 125.561 5.61111L128.561 5.62575ZM128.454 27.4057L128.561 5.62575L125.561 5.61111L125.454 27.391L128.454 27.4057ZM117.691 38.4993C117.717 33.2969 121.853 29.075 127.006 28.8975L126.903 25.8992C120.146 26.132 114.725 31.6649 114.691 38.4847L117.691 38.4993ZM126.912 48.1916C121.761 47.9638 117.666 43.7018 117.691 38.4993L114.691 38.4847C114.658 45.3045 120.025 50.89 126.779 51.1887L126.912 48.1916ZM128.345 49.7063L128.345 49.6975L125.345 49.6828L125.345 49.6917L128.345 49.7063ZM128.241 71.0386L128.345 49.7063L125.345 49.6917L125.241 71.024L128.241 71.0386ZM121.71 77.5068C125.299 77.5244 128.224 74.6284 128.241 71.0386L125.241 71.024C125.232 72.957 123.657 74.5163 121.724 74.5069L121.71 77.5068ZM4.99264 76.9372L121.71 77.5068L121.724 74.5069L5.00729 73.9372L4.99264 76.9372Z" fill="#FCFAEE" mask="url(#path-1-inside-1_711_4087)"/>
<path d="M40.1572 23.6396C42.6098 20.4081 45.8213 18.0309 49.2471 16.5129C53.0159 14.8451 56.9776 14.2269 60.865 14.1907C63.1853 14.1699 65.4848 14.3543 67.7636 14.6319C68.3145 14.6983 68.1773 15.6895 67.6264 15.623C60.3115 14.7346 52.2679 14.8524 45.4239 19.7438C43.7213 20.9609 42.1522 22.4516 40.8302 24.1922C40.4475 24.699 39.7706 24.1485 40.1584 23.6365L40.1572 23.6396Z" fill="#748763"/>
<path d="M67.8079 14.5953C69.623 15.105 71.4615 15.5698 73.2359 16.2008C73.7565 16.3855 73.3931 17.3268 72.8725 17.1421C71.0955 16.51 69.2584 16.0494 67.4446 15.5366C66.9133 15.3875 67.2793 14.4472 67.8079 14.5953Z" fill="#748763"/>
<path d="M73.1406 16.1122C75.6389 17.0845 78.1359 18.06 80.6316 19.0313C81.1449 19.2348 80.7828 20.1729 80.2682 19.9726C77.77 19.0002 75.2729 18.0248 72.7773 17.0535C72.264 16.85 72.6261 15.9119 73.1406 16.1122Z" fill="#748763"/>
<path d="M80.5784 19.0019C81.3503 19.3224 82.1221 19.6428 82.8965 19.9643C83.1028 20.0497 83.2238 20.34 83.1138 20.5931C83.0039 20.8462 82.7554 20.9973 82.5332 20.9056C81.7614 20.5852 80.9896 20.2647 80.2151 19.9432C80.0089 19.8578 79.8879 19.5675 79.9978 19.3144C80.1078 19.0613 80.3562 18.9102 80.5784 19.0019Z" fill="#748763"/>
<path d="M77.3523 17.4779C77.586 16.8724 78.3839 17.1887 78.1502 17.7943C77.9164 18.3998 77.1185 18.0835 77.3523 17.4779Z" fill="#748763"/>
<path d="M76.6828 17.2083C78.2886 16.528 79.968 16.2134 81.614 16.3269C83.4206 16.4534 85.0439 17.2452 86.812 17.5193L86.5611 18.487C83.8723 17.8335 81.0405 17.6696 78.2175 18.1821L78.2408 17.2001C79.4776 17.325 80.7173 17.4185 81.9638 17.4785C83.1222 17.5362 84.2834 17.5551 85.4555 17.3071L85.4322 18.2891C83.4047 18.3536 81.3906 18.2643 79.4005 18.0252C78.8496 17.9588 78.9798 16.9938 79.5378 17.0341C81.9248 17.2062 84.3118 17.3783 86.6988 17.5504L86.3488 18.4571C83.988 16.8664 80.9744 16.6015 78.1729 17.6543C77.6242 17.8601 77.5401 16.8861 78.0849 16.6824C81.1211 15.5381 84.3695 15.9179 86.9116 17.6347C87.2766 17.8807 86.9669 18.5719 86.5615 18.5415C84.1745 18.3694 81.7875 18.1973 79.4005 18.0252L79.5378 17.0341C81.5278 17.2731 83.542 17.3625 85.5695 17.298C86.0691 17.2827 86.0338 18.1767 85.5461 18.28C84.3452 18.5311 83.1454 18.533 81.9581 18.4784C80.6683 18.4193 79.3839 18.3225 78.1024 18.1943C77.6296 18.148 77.6141 17.3062 78.1257 17.2123C81.1144 16.6678 84.0782 16.8552 86.9232 17.5489C87.3916 17.6622 87.1499 18.5903 86.6723 18.5167C84.9848 18.2565 83.4272 17.5088 81.7152 17.3438C80.1481 17.1928 78.5246 17.4501 76.9887 18.1001C76.4473 18.3269 76.1363 17.4402 76.6816 17.2114L76.6828 17.2083Z" fill="#748763"/>
<path d="M77.4851 18.6591C78.0435 19.9297 78.9879 20.8757 79.9531 21.7358C81.044 22.7074 82.2015 23.5859 83.4137 24.3704L82.8509 25.1928C80.9072 23.5467 79.947 20.6951 77.5762 19.6467L78.1175 18.8483C78.8797 19.7655 79.6432 20.6796 80.4028 21.5958L79.6875 22.2492C79.2179 21.6542 78.7484 21.0593 78.2788 20.4643C77.8462 19.9165 77.4328 19.2715 76.8053 18.9902L77.3466 18.1918C77.4417 18.3742 77.5431 18.4216 77.7392 18.3583C78.2951 18.1735 78.3792 19.1474 77.8272 19.3302C77.3557 19.487 76.8637 19.2919 76.6286 18.8442C76.4341 18.474 76.745 17.8592 77.1699 18.0458C77.8665 18.3545 78.3367 18.9714 78.8186 19.5821C79.3484 20.2516 79.8755 20.92 80.404 21.5926C80.7627 22.0459 80.0508 22.6826 79.6887 22.246C78.9265 21.3288 78.163 20.4148 77.4034 19.4986C77.1165 19.1533 77.5691 18.5369 77.9446 18.7002C79.1393 19.2281 80.0871 20.1573 80.8865 21.2485C81.6859 22.3396 82.3943 23.4995 83.4162 24.3641C83.8535 24.7328 83.312 25.4841 82.8534 25.1865C81.5674 24.3547 80.3425 23.4205 79.1941 22.3755C78.1836 21.4576 77.255 20.4311 76.6669 19.0945C76.4246 18.5462 77.2467 18.1088 77.4875 18.6529L77.4851 18.6591Z" fill="#748763"/>
<path d="M78.5441 25.356C77.2245 24.1347 76.4569 22.405 75.554 20.7953C75.0914 19.9679 74.5847 19.1593 73.9337 18.5177C73.1919 17.7859 72.3206 17.2704 71.3587 16.9578L71.8999 16.1594C72.8815 17.5651 73.8304 19.0158 74.8897 20.3474C75.949 21.679 77.1157 22.8434 78.3686 23.9117L77.7282 24.6491C76.6714 23.3112 75.6184 21.9713 74.5616 20.6334C73.569 19.3752 72.622 18.023 71.3755 17.073L72.0159 16.3356C73.2148 18.3304 74.6027 20.1613 76.169 21.7843C76.5589 22.1885 76.0028 23.0172 75.6062 22.6068C73.9855 20.926 72.5411 19.0509 71.3006 16.9891C71.037 16.5517 71.5411 15.9448 71.941 16.2517C73.2077 17.2205 74.1816 18.5907 75.1906 19.8698C76.275 21.2475 77.3632 22.6232 78.4476 24.0009C78.7625 24.4007 78.1812 25.0566 77.8073 24.7383C76.5314 23.6501 75.3371 22.4458 74.2607 21.111C73.1842 19.7762 72.1938 18.2584 71.1846 16.8128C70.9176 16.432 71.3332 15.8877 71.7259 16.0144C73.6219 16.6322 75.0439 18.0172 76.0964 19.8273C77.0362 21.4444 77.7697 23.2944 79.1122 24.5357C79.5236 24.9159 78.9649 25.7435 78.5494 25.3581L78.5441 25.356Z" fill="#748763"/>
<path d="M73.2726 15.51C76.2807 14.4703 79.3555 13.9093 82.4167 13.8205L82.1658 14.7883C80.3391 14.3644 78.5212 14.2117 76.6016 14.6482C75.7206 14.8488 74.8522 15.1521 74.0095 15.5633C73.1669 15.9745 72.3605 16.5303 71.4788 16.3834C71.0406 16.311 70.9935 15.7099 71.3944 15.4419C73.2693 14.1918 75.3627 13.5275 77.4395 13.4862C78.0023 13.4742 77.8612 14.4674 77.3023 14.4774C75.3711 14.5149 73.4414 15.1681 71.7016 16.3306L71.6172 15.3891C72.4673 15.5308 73.3616 14.8108 74.1601 14.4581C75.0429 14.07 75.9537 13.7763 76.8694 13.5967C78.8275 13.2116 80.664 13.4115 82.5238 13.8449C83.0251 13.9604 82.7293 14.7982 82.2729 14.8127C79.2891 14.8996 76.2881 15.4681 73.3567 16.4839C72.8037 16.6771 72.7209 15.7 73.2688 15.5121L73.2726 15.51Z" fill="#748763"/>
<path d="M65.7667 13.7555C66.6712 13.311 67.5719 12.8685 68.4765 12.424C69.0102 12.1616 69.311 13.0189 68.7836 13.3127L66.3273 14.6868L66.0201 13.7981C67.4421 13.1571 68.8668 12.5172 70.29 11.8731C71.7132 11.2289 73.0218 10.5719 74.4139 10.0638L74.3906 11.0459C71.0859 11.1937 67.7323 12.469 64.8643 14.6712L64.6812 13.8027C65.2274 13.7624 65.7481 13.3827 66.2319 13.0825C66.7879 12.7386 67.3567 12.425 67.9359 12.1481C69.0695 11.6027 70.2415 11.1882 71.4256 10.9015C71.987 10.7659 72.075 11.7377 71.5135 11.8733C70.2748 12.1746 69.0617 12.6161 67.8825 13.2159C66.7951 13.7689 65.7255 14.7124 64.5428 14.797C64.1669 14.8253 64.042 14.1716 64.3597 13.9285C67.4404 11.5646 70.9781 10.2176 74.5293 10.0589C75.0667 10.0332 74.9485 10.8799 74.506 11.0409C73.1424 11.5387 71.8007 12.2259 70.4614 12.8274C69.0846 13.4465 67.7067 14.0687 66.3299 14.6879C65.7916 14.9303 65.4915 14.095 66.0228 13.7992L68.4791 12.425L68.7863 13.3137C67.8817 13.7583 66.981 14.2007 66.0765 14.6453C65.5428 14.9076 65.2318 14.021 65.7694 13.7566L65.7667 13.7555Z" fill="#748763"/>
<path d="M65.6011 14.8599C67.7177 17.989 70.8517 19.9044 73.889 21.7525L73.3263 22.5749C72.6184 22.0808 72.1073 21.3392 71.626 20.584C71.1446 19.8288 70.6193 19.0525 69.9955 18.3964C68.7492 17.0884 67.243 16.1439 65.5741 15.6053L66.0377 14.7219C67.8896 16.4075 69.7175 18.1234 71.5265 19.8644L70.8861 20.6018C69.7748 19.3653 68.6635 18.1288 67.5534 16.8892C67.3927 16.7097 67.4848 16.3519 67.658 16.1891C67.8695 15.9907 68.1094 16.0605 68.2687 16.2358C69.38 17.4723 70.4913 18.7088 71.6014 19.9484C71.9338 20.3189 71.3188 21.0302 70.9611 20.6858C69.152 18.9448 67.3203 17.231 65.4723 15.5433C65.1029 15.2051 65.4717 14.5119 65.936 14.6598C67.6301 15.2048 69.188 16.1661 70.4671 17.4764C71.0891 18.1136 71.6386 18.8271 72.1296 19.597C72.6206 20.3669 73.1287 21.2195 73.8849 21.7472C74.351 22.0731 73.7868 22.8515 73.3222 22.5696C70.2152 20.6795 67.0451 18.7065 64.8817 15.5081C64.555 15.0277 65.2715 14.3711 65.597 14.8547L65.6011 14.8599Z" fill="#748763"/>
<path d="M59.3121 13.8792C61.6281 9.42857 65.7399 6.51472 70.1091 6.239C70.6083 6.20898 70.571 7.12396 70.0858 7.22102C66.2979 7.97685 63.4843 11.5717 60.505 14.1893C60.1016 14.5431 59.5842 14.0088 59.9167 13.5364C61.2054 11.6994 62.7675 10.1552 64.5321 8.94459L64.8392 9.83331C63.6813 10.4813 62.6816 11.514 62.0298 12.7895L61.3771 12.2558C63.8664 10.3593 66.3545 8.46596 68.8438 6.56946C69.3294 6.20122 69.8405 6.94288 69.3498 7.31634C66.8605 9.21284 64.3724 11.1062 61.8831 13.0027C61.5538 13.252 60.9786 12.9625 61.2304 12.469C62.0108 10.9478 63.1419 9.71759 64.5318 8.93726C65.0682 8.63617 65.3308 9.48917 64.839 9.82598C63.2169 10.9376 61.7753 12.392 60.5895 14.0817L60.0012 13.4288C63.1196 10.6891 66.0361 7.02649 70.0001 6.23555L69.9767 7.21758C66.0385 7.46519 62.2047 10.1673 60.1161 14.1799C59.9888 14.4224 59.7734 14.583 59.5355 14.4923C59.3413 14.4154 59.1921 14.1029 59.3182 13.8635L59.3121 13.8792Z" fill="#748763"/>
<path d="M55.9276 15.1167C59.6067 16.8357 63.4248 18.2263 67.3473 19.2748L66.806 20.0732C64.9973 17.8548 62.6258 16.2997 59.977 15.5426C59.4469 15.3904 59.8129 14.4501 60.3403 14.6013C63.1388 15.3996 65.6154 17.0797 67.524 19.4209C67.8316 19.7997 67.3534 20.3156 66.9827 20.2193C63.0602 19.1707 59.2421 17.7801 55.5631 16.0611C55.0645 15.8273 55.4252 14.885 55.9264 15.1198L55.9276 15.1167Z" fill="#748763"/>
<path d="M59.3275 14.8262C61.4048 16.0549 63.4795 17.2826 65.558 18.5082L64.9952 19.3306C63.9336 18.2513 62.7306 17.3475 61.4083 16.6894C60.1968 16.0861 58.8612 15.6688 57.4641 15.9036C56.9001 15.9984 56.8095 15.0255 57.3762 14.9318C58.8908 14.6784 60.3405 15.0542 61.6636 15.6944C63.1 16.3905 64.4135 17.3417 65.5618 18.5061C65.9677 18.9166 65.4729 19.6104 64.999 19.3285C62.9218 18.0998 60.8471 16.8721 58.7686 15.6466C58.5665 15.5267 58.5795 15.1592 58.7134 14.9554C58.8799 14.7067 59.1332 14.7021 59.3326 14.821L59.3275 14.8262Z" fill="#748763"/>
<path d="M57.5167 15.9006L57.0904 16.1151L57.006 15.1736C58.903 15.4155 60.689 16.0404 62.3287 17.0124C62.5281 17.1312 62.5204 17.5008 62.3839 17.7035C62.2147 17.9512 61.9668 17.9578 61.7647 17.8379C60.2642 16.9501 58.5958 16.3863 56.8649 16.1668C56.4562 16.1133 56.3454 15.4471 56.7806 15.2253L57.2069 15.0108C57.7403 14.7412 58.0501 15.6309 57.514 15.8996L57.5167 15.9006Z" fill="#748763"/>
<path d="M55.5094 14.0712C57.3196 10.462 60.0357 7.46154 63.2774 5.53049L63.4757 6.46288C61.8454 6.79337 60.9115 8.64082 60.0298 10.0749C59.0235 11.7127 57.8312 13.2045 56.5022 14.5263C56.1002 14.9241 55.6113 14.3395 55.9139 13.8734C57.8768 10.8457 60.2322 8.13636 62.876 5.86336L63.382 6.61025C62.2917 7.40083 61.2998 8.34979 60.4403 9.45617L59.8521 8.80329L61.0181 7.51454L61.2011 8.38302L60.5757 8.36661C60.1723 8.35502 60.1093 7.78736 60.3926 7.49813L60.5044 7.38328C60.9427 6.93115 61.4475 7.68116 61.0105 8.13016L60.8986 8.24501L60.7156 7.37654L61.341 7.39294C61.7548 7.40143 61.7915 7.96586 61.5241 8.26142L60.3581 9.55017C59.988 9.96061 59.4244 9.33921 59.7698 8.89729C60.6835 7.72196 61.7228 6.69775 62.8811 5.85814C63.3621 5.50979 63.8725 6.18967 63.3871 6.60502C60.8006 8.82478 58.5111 11.4589 56.592 14.4208L56.0037 13.7679C57.4256 12.3563 58.6218 10.7431 59.6807 8.98499C60.6038 7.45161 61.7142 5.82243 63.3914 5.4816C63.8935 5.38039 64.0481 6.1399 63.5896 6.41399C60.5797 8.20538 57.9955 11.023 56.3124 14.3823C56.0238 14.9553 55.2234 14.6452 55.5145 14.066L55.5094 14.0712Z" fill="#748763"/>
<path d="M63.3984 6.33862C61.5927 7.1314 60.0454 8.60545 59.0184 10.4956C58.8896 10.7339 58.5676 10.7655 58.3992 10.63C58.1995 10.464 58.2139 10.1803 58.3439 9.93877C59.4402 7.91692 61.1574 6.29677 63.0886 5.44885C63.3177 5.34793 63.5656 5.42087 63.6525 5.67239C63.7307 5.89876 63.6248 6.23665 63.3957 6.33757L63.3984 6.33862Z" fill="#748763"/>
<path d="M50.2885 16.904C54.0905 18.4872 58.5751 17.8014 62.1862 19.9348C62.648 20.2083 62.3299 21.1277 61.8228 20.8761C59.7096 19.8357 57.5306 18.9502 55.2914 18.2361C54.1718 17.8791 53.0392 17.5639 51.8934 17.2906C51.834 17.2779 51.507 17.2351 51.5046 17.2016L51.6704 16.8911C51.7502 16.9227 51.8349 16.9418 51.9207 16.9577C52.1933 17.0224 52.468 17.0734 52.7403 17.1307C53.3337 17.2538 53.9259 17.38 54.5194 17.5032L54.2685 18.4709C53.0314 18.1324 51.7904 17.796 50.5532 17.4575L50.9166 16.5162C54.4396 17.5113 57.9625 18.5064 61.4855 19.5015C62.0168 19.6506 61.6508 20.5908 61.1222 20.4427C57.5992 19.4477 54.0762 18.4526 50.5532 17.4575C50.0193 17.3074 50.3894 16.3724 50.9166 16.5162C52.1537 16.8547 53.3947 17.1911 54.6318 17.5296C55.0927 17.6545 54.8554 18.5951 54.3809 18.4974C53.6513 18.3457 52.9203 18.1897 52.1907 18.038C51.666 17.9276 50.8618 17.9055 50.7822 17.1504C50.7481 16.8257 50.8922 16.4921 51.1583 16.319C51.4244 16.146 51.7105 16.2232 51.9804 16.2868C52.6669 16.4468 53.3513 16.6204 54.0322 16.8108C56.8421 17.5955 59.5674 18.647 62.1862 19.9348L61.8228 20.8761C58.2171 18.7448 53.7271 19.4285 49.9251 17.8453C49.4154 17.6323 49.7788 16.6911 50.2885 16.904Z" fill="#748763"/>
<path d="M49.5695 17.0343C49.8033 16.4287 50.6012 16.7451 50.3674 17.3506C50.1337 17.9562 49.3358 17.6399 49.5695 17.0343Z" fill="#748763"/>
<path d="M49.3639 16.048C51.0328 12.2489 53.5191 8.88239 56.5638 6.34143C57.0393 5.94385 57.519 6.64773 57.0698 7.08832C54.5301 9.57624 52.4066 12.5909 50.8526 15.9255L50.1164 15.4889C51.6298 13.3321 52.9961 11.0556 54.1845 8.67589L54.9207 9.11246L53.3856 11.7309L52.8948 11.0082C53.7715 10.6358 53.9455 9.31914 54.4722 8.55839C54.9989 7.79764 55.8853 7.43994 56.2696 6.61912L57.0058 7.05568C55.6033 8.94894 54.2036 10.8433 52.8012 12.7365L52.1294 12.1808C53.3519 10.6901 54.5743 9.19944 55.7968 7.70878C56.1959 7.22303 56.874 7.77042 56.4686 8.26452C55.2461 9.75518 54.0237 11.2458 52.8012 12.7365C52.4072 13.217 51.7407 12.7032 52.1294 12.1808C53.5318 10.2875 54.9316 8.3932 56.334 6.49994C56.6496 6.07155 57.3218 6.3959 57.0702 6.9365C56.8394 7.43109 56.5129 7.80815 56.125 8.15362C55.7371 8.4991 55.3434 8.78802 55.0653 9.2385C54.4816 10.1865 54.2729 11.4423 53.2046 11.8979C52.7759 12.0789 52.4538 11.6184 52.7138 11.1752L54.2489 8.55672C54.53 8.07483 55.2403 8.48305 54.9851 8.99328C53.7548 11.4576 52.357 13.8158 50.7909 16.0457C50.4796 16.4867 49.8094 16.1414 50.0547 15.6092C51.6847 12.1094 53.8956 8.95568 56.5638 6.34143L57.0698 7.08832C54.1555 9.52179 51.7598 12.7252 50.1619 16.3643C49.9027 16.9562 49.1036 16.643 49.3639 16.048Z" fill="#748763"/>
<path d="M57.1794 7.31981L55.7843 8.95553C55.6958 9.05789 55.6169 9.13515 55.4918 9.16516C55.3837 9.19103 55.2463 9.16552 55.1651 9.08991C55.0068 8.94393 54.9303 8.60972 55.1099 8.39873L56.5049 6.76302C56.5935 6.66066 56.6724 6.5834 56.7974 6.55338C56.9056 6.52751 57.0429 6.55302 57.1241 6.62863C57.2825 6.77461 57.3589 7.10882 57.1794 7.31981Z" fill="#748763"/>
<path d="M46.16 19.0669C48.9207 19.9949 51.7247 20.8424 54.4094 21.9755L54.0461 22.9167C52.7675 22.2326 51.4694 21.5914 50.148 21.0024C48.8266 20.4134 47.5415 19.8099 46.1076 19.6792L46.2449 18.6881C49.2509 19.0043 52.0792 20.1147 54.5117 21.9328C54.9597 22.266 54.3957 23.0915 53.9489 22.7552C51.6455 21.0317 48.9582 19.9772 46.1076 19.6792C45.5531 19.6222 45.6879 18.6373 46.2449 18.6881C47.7116 18.821 49.0582 19.4163 50.3822 20.0063C51.7063 20.5963 53.0895 21.2713 54.4082 21.9786C54.8864 22.2333 54.564 23.1402 54.0448 22.9199C51.3575 21.7858 48.5562 20.9393 45.7954 20.0113C45.2712 19.836 45.6345 18.8947 46.1588 19.07L46.16 19.0669Z" fill="#748763"/>
<path d="M45.3736 18.598C44.868 17.135 45.3456 15.5082 46.1189 14.1325C46.9728 12.6115 48.1045 11.2368 49.2874 10.0235C49.6991 9.60058 50.1403 10.2133 49.8757 10.6763C48.563 12.9887 47.494 15.4482 46.6707 17.9943L45.9345 17.5578C47.1912 15.5814 48.1149 13.379 48.6338 11.0812L49.4025 11.3859C48.0519 13.0972 46.6077 14.916 46.1261 17.1489C45.9903 17.7789 45.1235 17.7283 45.2605 17.0952C45.7868 14.6593 47.249 12.7065 48.7295 10.8333C49.0006 10.4886 49.6189 10.6107 49.4982 11.1381C48.9366 13.6179 47.9629 15.9814 46.6051 18.1167C46.2904 18.6142 45.7008 18.2031 45.8689 17.6801C46.7196 15.0472 47.8428 12.5186 49.1989 10.1258L49.7871 10.7787C48.7606 11.8333 47.814 13.0065 47.0234 14.2921C46.3138 15.447 45.7458 16.8788 46.1918 18.1626C46.3902 18.7369 45.5696 19.1786 45.3711 18.6043L45.3736 18.598Z" fill="#748763"/>
<path d="M46.3183 19.1889C48.9115 20.2568 51.5678 21.1615 54.2763 21.8988C54.8088 22.0448 54.4428 22.985 53.913 22.8401C51.2044 22.1028 48.5482 21.1981 45.9549 20.1302C45.444 19.9204 45.8073 18.9791 46.3183 19.1889Z" fill="#748763"/>
<path d="M39.3091 26.0899L39.2789 35.3321L37.4318 35.326L37.462 26.0839L39.3091 26.0899ZM41.6069 26.0974L41.6019 27.6399L35.2035 27.619L35.2085 26.0765L41.6069 26.0974ZM47.6174 26.1171L49.4709 26.1231L49.4502 32.4707C49.4478 33.1817 49.3148 33.761 49.0509 34.2087C48.7913 34.6522 48.4327 34.9769 47.975 35.1827C47.5173 35.3844 46.9943 35.4842 46.4061 35.4823C45.8137 35.4804 45.2872 35.3771 44.8266 35.1725C44.366 34.9636 44.0074 34.6366 43.7507 34.1914C43.4982 33.742 43.3732 33.1618 43.3755 32.4509L43.3962 26.1033L45.2497 26.1093L45.229 32.457C45.2277 32.859 45.2711 33.168 45.3593 33.3841C45.4517 33.6003 45.5845 33.7488 45.7577 33.8298C45.9352 33.9065 46.153 33.9453 46.4111 33.9462C46.6735 33.947 46.8895 33.9097 47.059 33.834C47.2327 33.7542 47.3644 33.6065 47.454 33.391C47.5478 33.1755 47.5953 32.8667 47.5967 32.4647L47.6174 26.1171ZM51.6791 26.1303L54.6434 26.14C55.2613 26.142 55.7878 26.2495 56.223 26.4626C56.6581 26.6756 56.9914 26.9898 57.2228 27.4053C57.4542 27.8208 57.5689 28.3332 57.5669 28.9425C57.5653 29.4419 57.4962 29.8691 57.3596 30.2241C57.223 30.5749 57.0295 30.8684 56.7791 31.1045C56.5287 31.3365 56.2297 31.5217 55.8823 31.6602L55.3162 31.9948L52.9105 31.9869L52.9092 30.4444L54.5786 30.4499C54.8325 30.4507 55.0421 30.3964 55.2075 30.2869C55.3772 30.1732 55.5025 30.0149 55.5836 29.812C55.6689 29.605 55.712 29.3639 55.7129 29.0888C55.7139 28.7968 55.6766 28.547 55.6011 28.3394C55.5299 28.1276 55.414 27.9664 55.2536 27.8559C55.0974 27.7411 54.8923 27.6833 54.6384 27.6825L53.5339 27.6789L53.5088 35.3785L51.6489 35.3725L51.6791 26.1303ZM55.8447 35.3862L54.1633 31.261L56.1121 31.261L57.8318 35.3038L57.8315 35.3927L55.8447 35.3862ZM61.5108 26.1624L61.4806 35.4046L59.6208 35.3985L59.651 26.1564L61.5108 26.1624ZM66.1001 26.1774L63.0891 30.757L61.2471 33.0361L60.8978 31.1751L62.0912 29.1985L63.8404 26.17L66.1001 26.1774ZM63.9245 35.4126L61.9198 31.1594L63.2885 29.9578L66.1144 35.4197L63.9245 35.4126ZM73.9069 30.1068L73.9019 31.6492C73.8997 32.3009 73.8175 32.8719 73.6551 33.3623C73.4969 33.8484 73.2713 34.2561 72.9782 34.5852C72.6894 34.9101 72.3395 35.1544 71.9284 35.3181C71.5217 35.4818 71.0707 35.5628 70.5756 35.5612C70.0805 35.5596 69.6279 35.4756 69.218 35.3092C68.8123 35.1429 68.4619 34.8963 68.1667 34.5695C67.8758 34.2384 67.6507 33.8293 67.4915 33.3422C67.3323 32.8508 67.2538 32.2792 67.2559 31.6275L67.2609 30.085C67.2631 29.4164 67.3433 28.8327 67.5015 28.3339C67.6597 27.8308 67.8875 27.4126 68.1848 27.0793C68.4821 26.7417 68.8342 26.4889 69.241 26.321C69.6478 26.1488 70.0988 26.0635 70.5939 26.0651C71.089 26.0668 71.5394 26.155 71.9451 26.3298C72.3508 26.5004 72.7012 26.7555 72.9963 27.095C73.2914 27.4302 73.5165 27.8499 73.6714 28.354C73.8306 28.8539 73.9091 29.4381 73.9069 30.1068ZM72.0547 31.6432L72.0598 30.088C72.0612 29.6479 72.0307 29.2733 71.9682 28.9642C71.9058 28.6508 71.8114 28.3945 71.6851 28.1952C71.5588 27.9959 71.4048 27.8494 71.2232 27.7557C71.0415 27.662 70.8301 27.6148 70.5888 27.614C70.3476 27.6132 70.1338 27.659 69.9473 27.7515C69.765 27.844 69.6101 27.9895 69.4825 28.188C69.3591 28.3865 69.2652 28.6422 69.2007 28.9551C69.1404 29.2639 69.1096 29.6383 69.1081 30.0784L69.1031 31.6336C69.1017 32.0567 69.1322 32.4186 69.1947 32.7193C69.2572 33.02 69.3516 33.2657 69.478 33.4566C69.6043 33.6474 69.7583 33.7897 69.94 33.8834C70.1259 33.9728 70.3394 34.018 70.5806 34.0188C70.8176 34.0195 71.0272 33.9758 71.2095 33.8875C71.396 33.795 71.5509 33.6538 71.6742 33.4637C71.7976 33.2737 71.8915 33.0286 71.9559 32.7283C72.0204 32.4281 72.0533 32.0664 72.0547 31.6432ZM76.058 26.2099L79.0224 26.2196C79.6402 26.2216 80.1667 26.3292 80.6019 26.5422C81.0371 26.7552 81.3704 27.0694 81.6018 27.4849C81.8331 27.9004 81.9478 28.4128 81.9459 29.0222C81.9442 29.5215 81.8751 29.9487 81.7385 30.3037C81.602 30.6545 81.4085 30.948 81.158 31.1841C80.9076 31.4161 80.6087 31.6013 80.2612 31.7398L79.6952 32.0744L77.2894 32.0665L77.2881 30.524L78.9575 30.5295C79.2114 30.5303 79.4211 30.476 79.5865 30.3665C79.7561 30.2528 79.8815 30.0945 79.9625 29.8917C80.0478 29.6846 80.091 29.4435 80.0919 29.1684C80.0928 28.8765 80.0555 28.6267 79.98 28.4191C79.9088 28.2072 79.7929 28.046 79.6325 27.9355C79.4763 27.8207 79.2712 27.7629 79.0173 27.7621L77.9129 27.7585L77.8877 35.4582L76.0279 35.4521L76.058 26.2099ZM80.2236 35.4658L78.5423 31.3406L80.491 31.3407L82.2107 35.3834L82.2104 35.4723L80.2236 35.4658ZM87.3814 26.2469L87.3512 35.4891L85.5041 35.483L85.5343 26.2409L87.3814 26.2469ZM89.6793 26.2544L89.6742 27.7969L83.2758 27.776L83.2809 26.2335L89.6793 26.2544Z" fill="black"/>
<path d="M48.4615 38.166V45.3145H47.5972V39.2939L46.1031 39.958V39.1426L48.3296 38.166H48.4615ZM55.2285 41.1934V42.2773C55.2285 42.86 55.1829 43.3516 55.0917 43.752C55.0039 44.1523 54.8769 44.4746 54.7109 44.7188C54.5449 44.9629 54.3447 45.1403 54.1103 45.251C53.8792 45.3584 53.6188 45.4121 53.3291 45.4121C53.1012 45.4121 52.888 45.3779 52.6894 45.3096C52.4941 45.2412 52.3183 45.1322 52.1621 44.9824C52.0058 44.8294 51.8723 44.6309 51.7617 44.3867C51.651 44.1426 51.5664 43.8464 51.5078 43.498C51.4492 43.1497 51.4199 42.7428 51.4199 42.2773V41.1934C51.4199 40.6107 51.4654 40.1224 51.5566 39.7285C51.6477 39.3346 51.7763 39.0189 51.9423 38.7812C52.1116 38.5404 52.3118 38.3678 52.5429 38.2637C52.7773 38.1595 53.0377 38.1074 53.3242 38.1074C53.5553 38.1074 53.7685 38.1416 53.9638 38.21C54.1624 38.2751 54.3382 38.3809 54.4912 38.5273C54.6474 38.6706 54.7809 38.8626 54.8916 39.1035C55.0022 39.3411 55.0852 39.6325 55.1406 39.9775C55.1992 40.3226 55.2285 40.7279 55.2285 41.1934ZM54.3691 42.4238V41.042C54.3691 40.723 54.3544 40.443 54.3251 40.2021C54.2959 39.958 54.2535 39.7497 54.1982 39.5771C54.1429 39.4046 54.0712 39.2646 53.9834 39.1572C53.8987 39.0498 53.8011 38.9717 53.6904 38.9229C53.5797 38.8708 53.4576 38.8447 53.3242 38.8447C53.1582 38.8447 53.01 38.8854 52.8798 38.9668C52.7529 39.0449 52.6438 39.1702 52.5527 39.3428C52.4648 39.5153 52.3981 39.7415 52.3525 40.0215C52.3069 40.3014 52.2841 40.6416 52.2841 41.042V42.4238C52.2841 42.7428 52.2988 43.0244 52.3281 43.2686C52.3606 43.5127 52.4046 43.7243 52.4599 43.9033C52.5185 44.0791 52.5901 44.224 52.6748 44.3379C52.7594 44.4518 52.857 44.5365 52.9677 44.5918C53.0784 44.6439 53.1988 44.6699 53.3291 44.6699C53.5016 44.6699 53.6513 44.6276 53.7783 44.543C53.9085 44.4583 54.0175 44.3265 54.1054 44.1475C54.1933 43.9652 54.2584 43.7324 54.3007 43.4492C54.3463 43.1628 54.3691 42.821 54.3691 42.4238ZM60.9597 38.2051V45.3145H60.0613V38.2051H60.9597ZM64.5339 38.2051L62.0876 41.5205L60.657 43.2441L60.4959 42.2383L61.5457 40.8613L63.4597 38.2051H64.5339ZM63.6404 45.3145L61.5457 41.8477L62.0779 41.1006L64.7097 45.3145H63.6404ZM69.8068 44.5479V45.3145H66.8576V44.5479H69.8068ZM67.0187 38.2051V45.3145H66.1203V38.2051H67.0187ZM72.4136 38.2051V45.3145H71.5152V38.2051H72.4136ZM76.8417 42.5264H75.289V41.7598H76.8417C77.1347 41.7598 77.3707 41.7012 77.5498 41.584C77.732 41.4668 77.8639 41.304 77.9453 41.0957C78.0299 40.8874 78.0722 40.6497 78.0722 40.3828C78.0722 40.1387 78.0299 39.9092 77.9453 39.6943C77.8639 39.4795 77.732 39.307 77.5498 39.1768C77.3707 39.0433 77.1347 38.9766 76.8417 38.9766H75.4746V45.3145H74.5761V38.2051H76.8417C77.3007 38.2051 77.6881 38.2979 78.0039 38.4834C78.3196 38.6689 78.5589 38.9261 78.7216 39.2549C78.8876 39.5804 78.9707 39.9531 78.9707 40.373C78.9707 40.8288 78.8876 41.2178 78.7216 41.54C78.5589 41.8623 78.3196 42.1081 78.0039 42.2773C77.6881 42.4434 77.3007 42.5264 76.8417 42.5264Z" fill="black"/>
<path d="M39.8216 65.3145V49.9745H40.6016V65.3145H39.8216ZM43.7216 65.3145V49.9745H44.5016V65.3145H43.7216ZM46.0616 65.3145V49.9745H47.6216V65.3145H46.0616ZM49.1836 65.3145V49.9745H49.9636V65.3145H49.1836ZM50.7436 65.3145V49.9745H53.8636V65.3145H50.7436ZM55.4236 65.3145V49.9745H56.2036V65.3145H55.4236ZM58.5457 65.3145V49.9745H59.3257V65.3145H58.5457ZM62.4457 65.3145V49.9745H64.0057V65.3145H62.4457ZM64.7857 65.3145V49.9745H65.5657V65.3145H64.7857ZM67.9077 65.3145V49.9745H68.6877V65.3145H67.9077ZM71.8077 65.3145V49.9745H73.3677V65.3145H71.8077ZM74.9277 65.3145V49.9745H75.7077V65.3145H74.9277ZM77.2697 65.3145V49.9745H78.0497V65.3145H77.2697ZM79.6097 65.3145V49.9745H80.3897V65.3145H79.6097ZM83.5097 65.3145V49.9745H85.0697V65.3145H83.5097Z" fill="black"/>
</svg>
